<?xml version="1.0" encoding="UTF-8" standalone="no"?>
<!-- This is a Stata 14.2 generated SVG file (http://www.stata.com) -->

<svg version="1.1" width="5.50in" height="4.00in" viewBox="0 0 3960 2880" xmlns="http://www.w3.org/2000/svg">
	<desc>Stata Graph - Graph</desc>
	<line x1="390.80" y1="1742.95" x2="3859.02" y2="1742.95" style="stroke:#FF0000;stroke-width:8.64"/>
	<path d="M621.23 1769.80 L621.23 1769.80 L788.29 1769.80 L955.35 1769.68 L1122.41 1769.56 L1289.47 1769.19 L1456.66 1768.69 L1623.72 1768.32 L1790.79 1768.20 L1957.85 1768.69 L2124.91 1769.93 L2291.97 1773.02 L2459.04 1779.09 L2626.22 1789.85 L2793.28 1808.17 L2960.35 1837.87 L3127.41 1884.40 L3294.47 1955.06 L3461.53 2059.76 L3628.60 2211.23 L3795.66 2425.82 L3795.66 186.99 L3628.60 662.33 L3461.53 1006.61 L3294.47 1252.39 L3127.41 1424.90 L2960.35 1544.20 L2793.28 1625.01 L2626.22 1678.84 L2459.04 1713.99 L2291.97 1736.39 L2124.91 1750.37 L1957.85 1758.91 L1790.79 1763.86 L1623.72 1766.71 L1456.66 1768.20 L1289.47 1768.81 L1122.41 1769.06 L955.35 1769.31 L788.29 1769.43 L621.23 1769.56 L621.23 1769.80 Z" stroke-linecap="round" style="fill:#EBEBFF;stroke:#E6E6FF;stroke-width:3.00"/>
	<path d="M621.23 1769.68 L621.23 1769.68 L788.29 1769.68 L955.35 1769.56 L1122.41 1769.43 L1289.47 1769.06 L1456.66 1768.57 L1623.72 1767.82 L1790.79 1766.96 L1957.85 1765.84 L2124.91 1764.36 L2291.97 1762.50 L2459.04 1760.28 L2626.22 1757.80 L2793.28 1755.32 L2960.35 1753.10 L3127.41 1751.86 L3294.47 1752.23 L3461.53 1755.82 L3628.60 1764.24 L3795.66 1779.70 L3795.66 833.11 L3628.60 1109.33 L3461.53 1310.55 L3294.47 1455.22 L3127.41 1557.57 L2960.35 1628.97 L2793.28 1677.85 L2626.22 1710.90 L2459.04 1732.80 L2291.97 1747.03 L2124.91 1756.07 L1957.85 1761.76 L1790.79 1765.10 L1623.72 1767.21 L1456.66 1768.32 L1289.47 1768.94 L1122.41 1769.19 L955.35 1769.43 L788.29 1769.56 L621.23 1769.68 L621.23 1769.68 Z" stroke-linecap="round" style="fill:#D6D6FF;stroke:#CCCCFF;stroke-width:3.00"/>
	<path d="M621.23 1769.68 L621.23 1769.68 L788.29 1769.68 L955.35 1769.56 L1122.41 1769.43 L1289.47 1769.06 L1456.66 1768.44 L1623.72 1767.82 L1790.79 1766.83 L1957.85 1765.35 L2124.91 1763.37 L2291.97 1760.77 L2459.04 1757.18 L2626.22 1752.60 L2793.28 1746.79 L2960.35 1739.36 L3127.41 1730.33 L3294.47 1719.44 L3461.53 1706.69 L3628.60 1691.84 L3795.66 1675.13 L3795.66 937.68 L3628.60 1181.60 L3461.53 1359.81 L3294.47 1488.02 L3127.41 1578.98 L2960.35 1642.59 L2793.28 1686.39 L2626.22 1716.09 L2459.04 1735.77 L2291.97 1748.77 L2124.91 1756.93 L1957.85 1762.13 L1790.79 1765.35 L1623.72 1767.21 L1456.66 1768.32 L1289.47 1768.94 L1122.41 1769.19 L955.35 1769.43 L788.29 1769.56 L621.23 1769.68 L621.23 1769.68 Z" stroke-linecap="round" style="fill:#C2C2FF;stroke:#B3B3FF;stroke-width:3.00"/>
	<path d="M621.23 1769.68 L621.23 1769.68 L788.29 1769.68 L955.35 1769.56 L1122.41 1769.31 L1289.47 1769.06 L1456.66 1768.44 L1623.72 1767.70 L1790.79 1766.59 L1957.85 1765.10 L2124.91 1762.75 L2291.97 1759.66 L2459.04 1755.20 L2626.22 1749.14 L2793.28 1740.97 L2960.35 1730.20 L3127.41 1715.85 L3294.47 1697.28 L3461.53 1673.52 L3628.60 1643.08 L3795.66 1604.59 L3795.66 1008.22 L3628.60 1230.48 L3461.53 1392.97 L3294.47 1510.17 L3127.41 1593.45 L2960.35 1651.87 L2793.28 1692.21 L2626.22 1719.56 L2459.04 1737.88 L2291.97 1749.88 L2124.91 1757.55 L1957.85 1762.50 L1790.79 1765.47 L1623.72 1767.33 L1456.66 1768.32 L1289.47 1768.94 L1122.41 1769.19 L955.35 1769.43 L788.29 1769.56 L621.23 1769.68 L621.23 1769.68 Z" stroke-linecap="round" style="fill:#ADADFF;stroke:#9999FF;stroke-width:3.00"/>
	<path d="M621.23 1769.68 L621.23 1769.68 L788.29 1769.68 L955.35 1769.56 L1122.41 1769.31 L1289.47 1769.06 L1456.66 1768.44 L1623.72 1767.70 L1790.79 1766.59 L1957.85 1764.85 L2124.91 1762.26 L2291.97 1758.67 L2459.04 1753.59 L2626.22 1746.41 L2793.28 1736.39 L2960.35 1722.78 L3127.41 1704.34 L3294.47 1679.71 L3461.53 1647.16 L3628.60 1604.35 L3795.66 1548.53 L3795.66 1064.28 L3628.60 1269.22 L3461.53 1419.33 L3294.47 1527.74 L3127.41 1604.96 L2960.35 1659.29 L2793.28 1696.79 L2626.22 1722.41 L2459.04 1739.48 L2291.97 1750.75 L2124.91 1758.05 L1957.85 1762.75 L1790.79 1765.60 L1623.72 1767.33 L1456.66 1768.32 L1289.47 1768.94 L1122.41 1769.31 L955.35 1769.43 L788.29 1769.56 L621.23 1769.68 L621.23 1769.68 Z" stroke-linecap="round" style="fill:#9999FF;stroke:#8080FF;stroke-width:3.00"/>
	<path d="M621.23 1769.68 L621.23 1769.68 L788.29 1769.68 L955.35 1769.56 L1122.41 1769.31 L1289.47 1769.06 L1456.66 1768.44 L1623.72 1767.70 L1790.79 1766.46 L1957.85 1764.61 L2124.91 1761.88 L2291.97 1757.92 L2459.04 1752.11 L2626.22 1743.94 L2793.28 1732.43 L2960.35 1716.47 L3127.41 1694.56 L3294.47 1664.61 L3461.53 1624.52 L3628.60 1571.06 L3795.66 1500.52 L3795.66 1112.42 L3628.60 1302.51 L3461.53 1441.86 L3294.47 1542.84 L3127.41 1614.86 L2960.35 1665.60 L2793.28 1700.75 L2626.22 1724.76 L2459.04 1740.85 L2291.97 1751.61 L2124.91 1758.54 L1957.85 1762.87 L1790.79 1765.72 L1623.72 1767.33 L1456.66 1768.32 L1289.47 1768.94 L1122.41 1769.31 L955.35 1769.43 L788.29 1769.56 L621.23 1769.68 L621.23 1769.68 Z" stroke-linecap="round" style="fill:#8585FF;stroke:#6666FF;stroke-width:3.00"/>
	<path d="M621.23 1769.68 L621.23 1769.68 L788.29 1769.68 L955.35 1769.56 L1122.41 1769.31 L1289.47 1769.06 L1456.66 1768.44 L1623.72 1767.58 L1790.79 1766.34 L1957.85 1764.36 L2124.91 1761.51 L2291.97 1757.18 L2459.04 1750.87 L2626.22 1741.84 L2793.28 1728.97 L2960.35 1710.77 L3127.41 1685.65 L3294.47 1651.12 L3461.53 1604.22 L3628.60 1541.11 L3795.66 1457.33 L3795.66 1155.49 L3628.60 1332.33 L3461.53 1462.28 L3294.47 1556.33 L3127.41 1623.77 L2960.35 1671.17 L2793.28 1704.21 L2626.22 1726.86 L2459.04 1742.21 L2291.97 1752.23 L2124.91 1758.91 L1957.85 1763.12 L1790.79 1765.72 L1623.72 1767.45 L1456.66 1768.44 L1289.47 1768.94 L1122.41 1769.31 L955.35 1769.43 L788.29 1769.56 L621.23 1769.68 L621.23 1769.68 Z" stroke-linecap="round" style="fill:#7171FF;stroke:#4D4DFF;stroke-width:3.00"/>
	<path d="M621.23 1769.68 L621.23 1769.68 L788.29 1769.68 L955.35 1769.56 L1122.41 1769.31 L1289.47 1768.94 L1456.66 1768.44 L1623.72 1767.58 L1790.79 1766.22 L1957.85 1764.24 L2124.91 1761.14 L2291.97 1756.56 L2459.04 1749.76 L2626.22 1739.86 L2793.28 1725.62 L2960.35 1705.58 L3127.41 1677.48 L3294.47 1638.50 L3461.53 1585.41 L3628.60 1513.51 L3795.66 1417.35 L3795.66 1195.59 L3628.60 1360.06 L3461.53 1481.09 L3294.47 1568.95 L3127.41 1631.94 L2960.35 1676.49 L2793.28 1707.56 L2626.22 1728.84 L2459.04 1743.32 L2291.97 1752.97 L2124.91 1759.16 L1957.85 1763.25 L1790.79 1765.84 L1623.72 1767.45 L1456.66 1768.44 L1289.47 1768.94 L1122.41 1769.31 L955.35 1769.43 L788.29 1769.56 L621.23 1769.68 L621.23 1769.68 Z" stroke-linecap="round" style="fill:#5C5CFF;stroke:#3333FF;stroke-width:3.00"/>
	<path d="M621.23 1769.68 L621.23 1769.68 L788.29 1769.68 L955.35 1769.56 L1122.41 1769.31 L1289.47 1768.94 L1456.66 1768.44 L1623.72 1767.58 L1790.79 1766.22 L1957.85 1764.11 L2124.91 1760.77 L2291.97 1755.94 L2459.04 1748.64 L2626.22 1738.00 L2793.28 1722.53 L2960.35 1700.63 L3127.41 1669.69 L3294.47 1626.62 L3461.53 1567.47 L3628.60 1487.15 L3795.66 1379.36 L3795.66 1233.58 L3628.60 1386.29 L3461.53 1498.91 L3294.47 1580.83 L3127.41 1639.74 L2960.35 1681.44 L2793.28 1710.65 L2626.22 1730.70 L2459.04 1744.43 L2291.97 1753.59 L2124.91 1759.53 L1957.85 1763.49 L1790.79 1765.97 L1623.72 1767.45 L1456.66 1768.44 L1289.47 1768.94 L1122.41 1769.31 L955.35 1769.43 L788.29 1769.56 L621.23 1769.68 L621.23 1769.68 Z" stroke-linecap="round" style="fill:#4747FF;stroke:#1919FF;stroke-width:3.00"/>
	<path d="M621.23 1769.68 L621.23 1769.68 L788.29 1769.56 L955.35 1769.56 L1122.41 1769.31 L1289.47 1768.94 L1456.66 1768.44 L1623.72 1767.58 L1790.79 1766.09 L1957.85 1763.86 L2124.91 1760.52 L2291.97 1755.32 L2459.04 1747.53 L2626.22 1736.14 L2793.28 1719.56 L2960.35 1695.80 L3127.41 1662.14 L3294.47 1615.11 L3461.53 1550.26 L3628.60 1461.78 L3795.66 1342.61 L3795.66 1270.33 L3628.60 1411.78 L3461.53 1516.23 L3294.47 1592.34 L3127.41 1647.29 L2960.35 1686.27 L2793.28 1713.62 L2626.22 1732.55 L2459.04 1745.42 L2291.97 1754.09 L2124.91 1759.90 L1957.85 1763.62 L1790.79 1765.97 L1623.72 1767.45 L1456.66 1768.44 L1289.47 1768.94 L1122.41 1769.31 L955.35 1769.43 L788.29 1769.56 L621.23 1769.68 L621.23 1769.68 Z" stroke-linecap="round" style="fill:#3333FF;stroke:#0000FF;stroke-width:3.00"/>
	<circle cx="621.10" cy="1769.68" r="22.03" style="fill:#000000;stroke:#000000;stroke-width:8.64"/>
	<circle cx="788.29" cy="1769.68" r="22.03" style="fill:#000000;stroke:#000000;stroke-width:8.64"/>
	<circle cx="955.35" cy="1769.43" r="22.03" style="fill:#000000;stroke:#000000;stroke-width:8.64"/>
	<circle cx="1122.41" cy="1769.43" r="22.03" style="fill:#000000;stroke:#000000;stroke-width:8.64"/>
	<circle cx="1289.47" cy="1769.19" r="22.03" style="fill:#000000;stroke:#000000;stroke-width:8.64"/>
	<circle cx="1456.54" cy="1768.44" r="22.03" style="fill:#000000;stroke:#000000;stroke-width:8.64"/>
	<line x1="390.80" y1="2489.19" x2="390.80" y2="100.86" style="stroke:#000000;stroke-width:5.76"/>
	<line x1="390.80" y1="2304.92" x2="350.83" y2="2304.92" style="stroke:#000000;stroke-width:5.76"/>
	<text x="300.72" y="2304.92" style="font-family:'Helvetica';font-size:99.99px;fill:#000000" transform="rotate(-90 300.72,2304.92)" text-anchor="middle">-200</text>
	<line x1="390.80" y1="1769.80" x2="350.83" y2="1769.80" style="stroke:#000000;stroke-width:5.76"/>
	<text x="300.72" y="1769.80" style="font-family:'Helvetica';font-size:99.99px;fill:#000000" transform="rotate(-90 300.72,1769.80)" text-anchor="middle">0</text>
	<line x1="390.80" y1="1234.57" x2="350.83" y2="1234.57" style="stroke:#000000;stroke-width:5.76"/>
	<text x="300.72" y="1234.57" style="font-family:'Helvetica';font-size:99.99px;fill:#000000" transform="rotate(-90 300.72,1234.57)" text-anchor="middle">200</text>
	<line x1="390.80" y1="699.33" x2="350.83" y2="699.33" style="stroke:#000000;stroke-width:5.76"/>
	<text x="300.72" y="699.33" style="font-family:'Helvetica';font-size:99.99px;fill:#000000" transform="rotate(-90 300.72,699.33)" text-anchor="middle">400</text>
	<line x1="390.80" y1="164.22" x2="350.83" y2="164.22" style="stroke:#000000;stroke-width:5.76"/>
	<text x="300.72" y="164.22" style="font-family:'Helvetica';font-size:99.99px;fill:#000000" transform="rotate(-90 300.72,164.22)" text-anchor="middle">600</text>
	<text x="190.71" y="1294.96" style="font-family:'Helvetica';font-size:99.99px;fill:#000000" transform="rotate(-90 190.71,1294.96)" text-anchor="middle">Confirmed cases per 100 beds</text>
	<line x1="390.80" y1="2489.19" x2="3859.02" y2="2489.19" style="stroke:#000000;stroke-width:5.76"/>
	<line x1="454.16" y1="2489.19" x2="454.16" y2="2529.16" style="stroke:#000000;stroke-width:5.76"/>
	<text x="454.16" y="2619.14" style="font-family:'Helvetica';font-size:99.99px;fill:#000000" text-anchor="middle">0</text>
	<line x1="621.23" y1="2489.19" x2="621.23" y2="2529.16" style="stroke:#000000;stroke-width:5.76"/>
	<text x="621.23" y="2619.14" style="font-family:'Helvetica';font-size:99.99px;fill:#000000" text-anchor="middle">1</text>
	<line x1="788.29" y1="2489.19" x2="788.29" y2="2529.16" style="stroke:#000000;stroke-width:5.76"/>
	<text x="788.29" y="2619.14" style="font-family:'Helvetica';font-size:99.99px;fill:#000000" text-anchor="middle">2</text>
	<line x1="955.35" y1="2489.19" x2="955.35" y2="2529.16" style="stroke:#000000;stroke-width:5.76"/>
	<text x="955.35" y="2619.14" style="font-family:'Helvetica';font-size:99.99px;fill:#000000" text-anchor="middle">3</text>
	<line x1="1122.41" y1="2489.19" x2="1122.41" y2="2529.16" style="stroke:#000000;stroke-width:5.76"/>
	<text x="1122.41" y="2619.14" style="font-family:'Helvetica';font-size:99.99px;fill:#000000" text-anchor="middle">4</text>
	<line x1="1289.47" y1="2489.19" x2="1289.47" y2="2529.16" style="stroke:#000000;stroke-width:5.76"/>
	<text x="1289.47" y="2619.14" style="font-family:'Helvetica';font-size:99.99px;fill:#000000" text-anchor="middle">5</text>
	<line x1="1456.66" y1="2489.19" x2="1456.66" y2="2529.16" style="stroke:#000000;stroke-width:5.76"/>
	<text x="1456.66" y="2619.14" style="font-family:'Helvetica';font-size:99.99px;fill:#000000" text-anchor="middle">6</text>
	<line x1="1623.72" y1="2489.19" x2="1623.72" y2="2529.16" style="stroke:#000000;stroke-width:5.76"/>
	<text x="1623.72" y="2619.14" style="font-family:'Helvetica';font-size:99.99px;fill:#000000" text-anchor="middle">7</text>
	<line x1="1790.79" y1="2489.19" x2="1790.79" y2="2529.16" style="stroke:#000000;stroke-width:5.76"/>
	<text x="1790.79" y="2619.14" style="font-family:'Helvetica';font-size:99.99px;fill:#000000" text-anchor="middle">8</text>
	<line x1="1957.85" y1="2489.19" x2="1957.85" y2="2529.16" style="stroke:#000000;stroke-width:5.76"/>
	<text x="1957.85" y="2619.14" style="font-family:'Helvetica';font-size:99.99px;fill:#000000" text-anchor="middle">9</text>
	<line x1="2124.91" y1="2489.19" x2="2124.91" y2="2529.16" style="stroke:#000000;stroke-width:5.76"/>
	<text x="2124.91" y="2619.14" style="font-family:'Helvetica';font-size:99.99px;fill:#000000" text-anchor="middle">10</text>
	<line x1="2291.97" y1="2489.19" x2="2291.97" y2="2529.16" style="stroke:#000000;stroke-width:5.76"/>
	<text x="2291.97" y="2619.14" style="font-family:'Helvetica';font-size:99.99px;fill:#000000" text-anchor="middle">11</text>
	<line x1="2459.04" y1="2489.19" x2="2459.04" y2="2529.16" style="stroke:#000000;stroke-width:5.76"/>
	<text x="2459.04" y="2619.14" style="font-family:'Helvetica';font-size:99.99px;fill:#000000" text-anchor="middle">12</text>
	<line x1="2626.22" y1="2489.19" x2="2626.22" y2="2529.16" style="stroke:#000000;stroke-width:5.76"/>
	<text x="2626.22" y="2619.14" style="font-family:'Helvetica';font-size:99.99px;fill:#000000" text-anchor="middle">13</text>
	<line x1="2793.28" y1="2489.19" x2="2793.28" y2="2529.16" style="stroke:#000000;stroke-width:5.76"/>
	<text x="2793.28" y="2619.14" style="font-family:'Helvetica';font-size:99.99px;fill:#000000" text-anchor="middle">14</text>
	<line x1="2960.35" y1="2489.19" x2="2960.35" y2="2529.16" style="stroke:#000000;stroke-width:5.76"/>
	<text x="2960.35" y="2619.14" style="font-family:'Helvetica';font-size:99.99px;fill:#000000" text-anchor="middle">15</text>
	<line x1="3127.41" y1="2489.19" x2="3127.41" y2="2529.16" style="stroke:#000000;stroke-width:5.76"/>
	<text x="3127.41" y="2619.14" style="font-family:'Helvetica';font-size:99.99px;fill:#000000" text-anchor="middle">16</text>
	<line x1="3294.47" y1="2489.19" x2="3294.47" y2="2529.16" style="stroke:#000000;stroke-width:5.76"/>
	<text x="3294.47" y="2619.14" style="font-family:'Helvetica';font-size:99.99px;fill:#000000" text-anchor="middle">17</text>
	<line x1="3461.53" y1="2489.19" x2="3461.53" y2="2529.16" style="stroke:#000000;stroke-width:5.76"/>
	<text x="3461.53" y="2619.14" style="font-family:'Helvetica';font-size:99.99px;fill:#000000" text-anchor="middle">18</text>
	<line x1="3628.60" y1="2489.19" x2="3628.60" y2="2529.16" style="stroke:#000000;stroke-width:5.76"/>
	<text x="3628.60" y="2619.14" style="font-family:'Helvetica';font-size:99.99px;fill:#000000" text-anchor="middle">19</text>
	<line x1="3795.66" y1="2489.19" x2="3795.66" y2="2529.16" style="stroke:#000000;stroke-width:5.76"/>
	<text x="3795.66" y="2619.14" style="font-family:'Helvetica';font-size:99.99px;fill:#000000" text-anchor="middle">20</text>
	<text x="2124.91" y="2729.16" style="font-family:'Helvetica';font-size:99.99px;fill:#000000" text-anchor="middle">Days since 0.01 confirmed cases per 100 beds</text>
</svg>
