<?xml version="1.0" encoding="UTF-8" standalone="no"?>
<!-- This is a Stata 14.2 generated SVG file (http://www.stata.com) -->

<svg version="1.1" width="5.50in" height="4.00in" viewBox="0 0 3960 2880" xmlns="http://www.w3.org/2000/svg">
	<desc>Stata Graph - Graph</desc>
	<line x1="390.80" y1="1516.60" x2="3859.02" y2="1516.60" style="stroke:#FF0000;stroke-width:8.64"/>
	<path d="M613.30 1521.18 L613.30 1521.18 L772.32 1521.18 L931.47 1521.18 L1090.61 1521.18 L1249.75 1521.18 L1408.89 1521.06 L1568.04 1520.94 L1727.18 1520.94 L1886.20 1521.18 L2045.34 1521.80 L2204.48 1523.41 L2363.63 1526.63 L2522.77 1532.82 L2681.91 1543.95 L2840.93 1563.01 L3000.07 1594.57 L3159.21 1645.18 L3318.36 1723.89 L3477.50 1843.19 L3636.64 2019.66 L3795.66 2275.09 L3795.66 316.31 L3636.64 710.84 L3477.50 986.69 L3318.36 1175.91 L3159.21 1303.00 L3000.07 1386.66 L2840.93 1440.37 L2681.91 1474.03 L2522.77 1494.45 L2363.63 1506.58 L2204.48 1513.63 L2045.34 1517.35 L1886.20 1519.45 L1727.18 1520.44 L1568.04 1520.81 L1408.89 1520.94 L1249.75 1521.06 L1090.61 1521.06 L931.47 1521.06 L772.32 1521.18 L613.30 1521.18 L613.30 1521.18 Z" stroke-linecap="round" style="fill:#EBEBFF;stroke:#E6E6FF;stroke-width:3.00"/>
	<path d="M613.30 1521.18 L613.30 1521.18 L772.32 1521.18 L931.47 1521.18 L1090.61 1521.18 L1249.75 1521.18 L1408.89 1521.06 L1568.04 1520.94 L1727.18 1520.81 L1886.20 1520.69 L2045.34 1520.56 L2204.48 1520.56 L2363.63 1520.94 L2522.77 1521.80 L2681.91 1523.78 L2840.93 1527.62 L3000.07 1534.55 L3159.21 1546.43 L3318.36 1565.73 L3477.50 1595.93 L3636.64 1641.84 L3795.66 1709.78 L3795.66 881.62 L3636.64 1088.54 L3477.50 1233.83 L3318.36 1334.07 L3159.21 1401.76 L3000.07 1446.68 L2840.93 1475.76 L2681.91 1494.20 L2522.77 1505.59 L2363.63 1512.40 L2204.48 1516.48 L2045.34 1518.71 L1886.20 1519.94 L1727.18 1520.56 L1568.04 1520.94 L1408.89 1521.06 L1249.75 1521.06 L1090.61 1521.06 L931.47 1521.18 L772.32 1521.18 L613.30 1521.18 L613.30 1521.18 Z" stroke-linecap="round" style="fill:#D6D6FF;stroke:#CCCCFF;stroke-width:3.00"/>
	<path d="M613.30 1521.18 L613.30 1521.18 L772.32 1521.18 L931.47 1521.18 L1090.61 1521.18 L1249.75 1521.18 L1408.89 1521.06 L1568.04 1520.94 L1727.18 1520.81 L1886.20 1520.56 L2045.34 1520.32 L2204.48 1520.07 L2363.63 1519.94 L2522.77 1519.94 L2681.91 1520.44 L2840.93 1521.93 L3000.07 1524.90 L3159.21 1530.46 L3318.36 1540.12 L3477.50 1555.96 L3636.64 1580.83 L3795.66 1618.33 L3795.66 973.08 L3636.64 1149.67 L3477.50 1273.80 L3318.36 1359.68 L3159.21 1417.72 L3000.07 1456.34 L2840.93 1481.46 L2681.91 1497.42 L2522.77 1507.32 L2363.63 1513.39 L2204.48 1516.85 L2045.34 1518.95 L1886.20 1520.07 L1727.18 1520.56 L1568.04 1520.94 L1408.89 1521.06 L1249.75 1521.06 L1090.61 1521.06 L931.47 1521.18 L772.32 1521.18 L613.30 1521.18 L613.30 1521.18 Z" stroke-linecap="round" style="fill:#C2C2FF;stroke:#B3B3FF;stroke-width:3.00"/>
	<path d="M613.30 1521.18 L613.30 1521.18 L772.32 1521.18 L931.47 1521.18 L1090.61 1521.18 L1249.75 1521.18 L1408.89 1521.06 L1568.04 1520.94 L1727.18 1520.81 L1886.20 1520.56 L2045.34 1520.19 L2204.48 1519.82 L2363.63 1519.33 L2522.77 1518.83 L2681.91 1518.34 L2840.93 1518.09 L3000.07 1518.34 L3159.21 1519.70 L3318.36 1522.92 L3477.50 1528.98 L3636.64 1539.50 L3795.66 1556.58 L3795.66 1034.83 L3636.64 1190.88 L3477.50 1300.78 L3318.36 1376.89 L3159.21 1428.49 L3000.07 1462.89 L2840.93 1485.29 L2681.91 1499.65 L2522.77 1508.56 L2363.63 1514.00 L2204.48 1517.22 L2045.34 1519.08 L1886.20 1520.07 L1727.18 1520.56 L1568.04 1520.94 L1408.89 1521.06 L1249.75 1521.06 L1090.61 1521.06 L931.47 1521.18 L772.32 1521.18 L613.30 1521.18 L613.30 1521.18 Z" stroke-linecap="round" style="fill:#ADADFF;stroke:#9999FF;stroke-width:3.00"/>
	<path d="M613.30 1521.18 L613.30 1521.18 L772.32 1521.18 L931.47 1521.18 L1090.61 1521.18 L1249.75 1521.06 L1408.89 1521.06 L1568.04 1520.94 L1727.18 1520.69 L1886.20 1520.44 L2045.34 1520.07 L2204.48 1519.57 L2363.63 1518.83 L2522.77 1517.84 L2681.91 1516.48 L2840.93 1514.99 L3000.07 1513.14 L3159.21 1511.16 L3318.36 1509.18 L3477.50 1507.57 L3636.64 1506.83 L3795.66 1507.57 L3795.66 1083.84 L3636.64 1223.68 L3477.50 1322.31 L3318.36 1390.62 L3159.21 1437.15 L3000.07 1468.09 L2840.93 1488.39 L2681.91 1501.38 L2522.77 1509.55 L2363.63 1514.50 L2204.48 1517.47 L2045.34 1519.20 L1886.20 1520.07 L1727.18 1520.69 L1568.04 1520.94 L1408.89 1521.06 L1249.75 1521.06 L1090.61 1521.18 L931.47 1521.18 L772.32 1521.18 L613.30 1521.18 L613.30 1521.18 Z" stroke-linecap="round" style="fill:#9999FF;stroke:#8080FF;stroke-width:3.00"/>
	<path d="M613.30 1521.18 L613.30 1521.18 L772.32 1521.18 L931.47 1521.18 L1090.61 1521.18 L1249.75 1521.06 L1408.89 1521.06 L1568.04 1520.94 L1727.18 1520.69 L1886.20 1520.44 L2045.34 1520.07 L2204.48 1519.33 L2363.63 1518.34 L2522.77 1516.97 L2681.91 1514.99 L2840.93 1512.27 L3000.07 1508.68 L3159.21 1503.73 L3318.36 1497.42 L3477.50 1489.13 L3636.64 1478.61 L3795.66 1465.49 L3795.66 1125.91 L3636.64 1251.77 L3477.50 1340.63 L3318.36 1402.38 L3159.21 1444.46 L3000.07 1472.55 L2840.93 1491.11 L2681.91 1502.87 L2522.77 1510.29 L2363.63 1514.87 L2204.48 1517.59 L2045.34 1519.20 L1886.20 1520.19 L1727.18 1520.69 L1568.04 1520.94 L1408.89 1521.06 L1249.75 1521.06 L1090.61 1521.18 L931.47 1521.18 L772.32 1521.18 L613.30 1521.18 L613.30 1521.18 Z" stroke-linecap="round" style="fill:#8585FF;stroke:#6666FF;stroke-width:3.00"/>
	<path d="M613.30 1521.18 L613.30 1521.18 L772.32 1521.18 L931.47 1521.18 L1090.61 1521.18 L1249.75 1521.06 L1408.89 1521.06 L1568.04 1520.94 L1727.18 1520.69 L1886.20 1520.44 L2045.34 1519.94 L2204.48 1519.20 L2363.63 1517.96 L2522.77 1516.23 L2681.91 1513.63 L2840.93 1509.92 L3000.07 1504.60 L3159.21 1497.17 L3318.36 1486.78 L3477.50 1472.67 L3636.64 1453.37 L3795.66 1427.62 L3795.66 1163.66 L3636.64 1277.02 L3477.50 1357.21 L3318.36 1412.90 L3159.21 1451.01 L3000.07 1476.63 L2840.93 1493.46 L2681.91 1504.23 L2522.77 1511.03 L2363.63 1515.24 L2204.48 1517.84 L2045.34 1519.33 L1886.20 1520.19 L1727.18 1520.69 L1568.04 1520.94 L1408.89 1521.06 L1249.75 1521.06 L1090.61 1521.18 L931.47 1521.18 L772.32 1521.18 L613.30 1521.18 L613.30 1521.18 Z" stroke-linecap="round" style="fill:#7171FF;stroke:#4D4DFF;stroke-width:3.00"/>
	<path d="M613.30 1521.18 L613.30 1521.18 L772.32 1521.18 L931.47 1521.18 L1090.61 1521.18 L1249.75 1521.06 L1408.89 1521.06 L1568.04 1520.94 L1727.18 1520.69 L1886.20 1520.44 L2045.34 1519.82 L2204.48 1518.95 L2363.63 1517.59 L2522.77 1515.61 L2681.91 1512.40 L2840.93 1507.82 L3000.07 1500.89 L3159.21 1491.11 L3318.36 1477.00 L3477.50 1457.33 L3636.64 1429.98 L3795.66 1392.73 L3795.66 1198.68 L3636.64 1300.41 L3477.50 1372.55 L3318.36 1422.80 L3159.21 1457.20 L3000.07 1480.34 L2840.93 1495.57 L2681.91 1505.47 L2522.77 1511.78 L2363.63 1515.61 L2204.48 1517.96 L2045.34 1519.45 L1886.20 1520.19 L1727.18 1520.69 L1568.04 1520.94 L1408.89 1521.06 L1249.75 1521.06 L1090.61 1521.18 L931.47 1521.18 L772.32 1521.18 L613.30 1521.18 L613.30 1521.18 Z" stroke-linecap="round" style="fill:#5C5CFF;stroke:#3333FF;stroke-width:3.00"/>
	<path d="M613.30 1521.18 L613.30 1521.18 L772.32 1521.18 L931.47 1521.18 L1090.61 1521.18 L1249.75 1521.06 L1408.89 1521.06 L1568.04 1520.94 L1727.18 1520.69 L1886.20 1520.32 L2045.34 1519.82 L2204.48 1518.83 L2363.63 1517.35 L2522.77 1514.87 L2681.91 1511.28 L2840.93 1505.71 L3000.07 1497.42 L3159.21 1485.29 L3318.36 1467.72 L3477.50 1442.85 L3636.64 1407.82 L3795.66 1359.44 L3795.66 1231.85 L3636.64 1322.56 L3477.50 1387.03 L3318.36 1432.08 L3159.21 1463.02 L3000.07 1483.81 L2840.93 1497.67 L2681.91 1506.70 L2522.77 1512.40 L2363.63 1515.98 L2204.48 1518.21 L2045.34 1519.45 L1886.20 1520.19 L1727.18 1520.69 L1568.04 1520.94 L1408.89 1521.06 L1249.75 1521.06 L1090.61 1521.18 L931.47 1521.18 L772.32 1521.18 L613.30 1521.18 L613.30 1521.18 Z" stroke-linecap="round" style="fill:#4747FF;stroke:#1919FF;stroke-width:3.00"/>
	<path d="M613.30 1521.18 L613.30 1521.18 L772.32 1521.18 L931.47 1521.18 L1090.61 1521.18 L1249.75 1521.06 L1408.89 1521.06 L1568.04 1520.94 L1727.18 1520.69 L1886.20 1520.32 L2045.34 1519.70 L2204.48 1518.71 L2363.63 1516.97 L2522.77 1514.25 L2681.91 1510.04 L2840.93 1503.61 L3000.07 1493.96 L3159.21 1479.60 L3318.36 1458.69 L3477.50 1428.74 L3636.64 1386.29 L3795.66 1327.26 L3795.66 1264.02 L3636.64 1344.09 L3477.50 1401.02 L3318.36 1440.99 L3159.21 1468.59 L3000.07 1487.27 L2840.93 1499.65 L2681.91 1507.82 L2522.77 1513.01 L2363.63 1516.36 L2204.48 1518.34 L2045.34 1519.57 L1886.20 1520.32 L1727.18 1520.69 L1568.04 1520.94 L1408.89 1521.06 L1249.75 1521.06 L1090.61 1521.18 L931.47 1521.18 L772.32 1521.18 L613.30 1521.18 L613.30 1521.18 Z" stroke-linecap="round" style="fill:#3333FF;stroke:#0000FF;stroke-width:3.00"/>
	<circle cx="613.18" cy="1521.18" r="22.03" style="fill:#000000;stroke:#000000;stroke-width:8.64"/>
	<circle cx="772.32" cy="1521.18" r="22.03" style="fill:#000000;stroke:#000000;stroke-width:8.64"/>
	<circle cx="931.47" cy="1521.18" r="22.03" style="fill:#000000;stroke:#000000;stroke-width:8.64"/>
	<circle cx="1090.61" cy="1521.18" r="22.03" style="fill:#000000;stroke:#000000;stroke-width:8.64"/>
	<circle cx="1249.75" cy="1521.18" r="22.03" style="fill:#000000;stroke:#000000;stroke-width:8.64"/>
	<circle cx="1408.77" cy="1521.06" r="22.03" style="fill:#000000;stroke:#000000;stroke-width:8.64"/>
	<circle cx="1567.91" cy="1520.94" r="22.03" style="fill:#000000;stroke:#000000;stroke-width:8.64"/>
	<line x1="390.80" y1="2489.19" x2="390.80" y2="100.86" style="stroke:#000000;stroke-width:5.76"/>
	<line x1="390.80" y1="2425.82" x2="350.83" y2="2425.82" style="stroke:#000000;stroke-width:5.76"/>
	<text x="300.72" y="2425.82" style="font-family:'Helvetica';font-size:99.99px;fill:#000000" transform="rotate(-90 300.72,2425.82)" text-anchor="middle">-2000</text>
	<line x1="390.80" y1="1973.50" x2="350.83" y2="1973.50" style="stroke:#000000;stroke-width:5.76"/>
	<text x="300.72" y="1973.50" style="font-family:'Helvetica';font-size:99.99px;fill:#000000" transform="rotate(-90 300.72,1973.50)" text-anchor="middle">-1000</text>
	<line x1="390.80" y1="1521.18" x2="350.83" y2="1521.18" style="stroke:#000000;stroke-width:5.76"/>
	<text x="300.72" y="1521.18" style="font-family:'Helvetica';font-size:99.99px;fill:#000000" transform="rotate(-90 300.72,1521.18)" text-anchor="middle">0</text>
	<line x1="390.80" y1="1068.86" x2="350.83" y2="1068.86" style="stroke:#000000;stroke-width:5.76"/>
	<text x="300.72" y="1068.86" style="font-family:'Helvetica';font-size:99.99px;fill:#000000" transform="rotate(-90 300.72,1068.86)" text-anchor="middle">1000</text>
	<line x1="390.80" y1="616.54" x2="350.83" y2="616.54" style="stroke:#000000;stroke-width:5.76"/>
	<text x="300.72" y="616.54" style="font-family:'Helvetica';font-size:99.99px;fill:#000000" transform="rotate(-90 300.72,616.54)" text-anchor="middle">2000</text>
	<line x1="390.80" y1="164.22" x2="350.83" y2="164.22" style="stroke:#000000;stroke-width:5.76"/>
	<text x="300.72" y="164.22" style="font-family:'Helvetica';font-size:99.99px;fill:#000000" transform="rotate(-90 300.72,164.22)" text-anchor="middle">3000</text>
	<text x="190.71" y="1294.96" style="font-family:'Helvetica';font-size:99.99px;fill:#000000" transform="rotate(-90 190.71,1294.96)" text-anchor="middle">Confirmed cases per 100 beds</text>
	<line x1="390.80" y1="2489.19" x2="3859.02" y2="2489.19" style="stroke:#000000;stroke-width:5.76"/>
	<line x1="454.16" y1="2489.19" x2="454.16" y2="2529.16" style="stroke:#000000;stroke-width:5.76"/>
	<text x="454.16" y="2619.14" style="font-family:'Helvetica';font-size:99.99px;fill:#000000" text-anchor="middle">0</text>
	<line x1="613.30" y1="2489.19" x2="613.30" y2="2529.16" style="stroke:#000000;stroke-width:5.76"/>
	<text x="613.30" y="2619.14" style="font-family:'Helvetica';font-size:99.99px;fill:#000000" text-anchor="middle">1</text>
	<line x1="772.32" y1="2489.19" x2="772.32" y2="2529.16" style="stroke:#000000;stroke-width:5.76"/>
	<text x="772.32" y="2619.14" style="font-family:'Helvetica';font-size:99.99px;fill:#000000" text-anchor="middle">2</text>
	<line x1="931.47" y1="2489.19" x2="931.47" y2="2529.16" style="stroke:#000000;stroke-width:5.76"/>
	<text x="931.47" y="2619.14" style="font-family:'Helvetica';font-size:99.99px;fill:#000000" text-anchor="middle">3</text>
	<line x1="1090.61" y1="2489.19" x2="1090.61" y2="2529.16" style="stroke:#000000;stroke-width:5.76"/>
	<text x="1090.61" y="2619.14" style="font-family:'Helvetica';font-size:99.99px;fill:#000000" text-anchor="middle">4</text>
	<line x1="1249.75" y1="2489.19" x2="1249.75" y2="2529.16" style="stroke:#000000;stroke-width:5.76"/>
	<text x="1249.75" y="2619.14" style="font-family:'Helvetica';font-size:99.99px;fill:#000000" text-anchor="middle">5</text>
	<line x1="1408.89" y1="2489.19" x2="1408.89" y2="2529.16" style="stroke:#000000;stroke-width:5.76"/>
	<text x="1408.89" y="2619.14" style="font-family:'Helvetica';font-size:99.99px;fill:#000000" text-anchor="middle">6</text>
	<line x1="1568.04" y1="2489.19" x2="1568.04" y2="2529.16" style="stroke:#000000;stroke-width:5.76"/>
	<text x="1568.04" y="2619.14" style="font-family:'Helvetica';font-size:99.99px;fill:#000000" text-anchor="middle">7</text>
	<line x1="1727.18" y1="2489.19" x2="1727.18" y2="2529.16" style="stroke:#000000;stroke-width:5.76"/>
	<text x="1727.18" y="2619.14" style="font-family:'Helvetica';font-size:99.99px;fill:#000000" text-anchor="middle">8</text>
	<line x1="1886.20" y1="2489.19" x2="1886.20" y2="2529.16" style="stroke:#000000;stroke-width:5.76"/>
	<text x="1886.20" y="2619.14" style="font-family:'Helvetica';font-size:99.99px;fill:#000000" text-anchor="middle">9</text>
	<line x1="2045.34" y1="2489.19" x2="2045.34" y2="2529.16" style="stroke:#000000;stroke-width:5.76"/>
	<text x="2045.34" y="2619.14" style="font-family:'Helvetica';font-size:99.99px;fill:#000000" text-anchor="middle">10</text>
	<line x1="2204.48" y1="2489.19" x2="2204.48" y2="2529.16" style="stroke:#000000;stroke-width:5.76"/>
	<text x="2204.48" y="2619.14" style="font-family:'Helvetica';font-size:99.99px;fill:#000000" text-anchor="middle">11</text>
	<line x1="2363.63" y1="2489.19" x2="2363.63" y2="2529.16" style="stroke:#000000;stroke-width:5.76"/>
	<text x="2363.63" y="2619.14" style="font-family:'Helvetica';font-size:99.99px;fill:#000000" text-anchor="middle">12</text>
	<line x1="2522.77" y1="2489.19" x2="2522.77" y2="2529.16" style="stroke:#000000;stroke-width:5.76"/>
	<text x="2522.77" y="2619.14" style="font-family:'Helvetica';font-size:99.99px;fill:#000000" text-anchor="middle">13</text>
	<line x1="2681.91" y1="2489.19" x2="2681.91" y2="2529.16" style="stroke:#000000;stroke-width:5.76"/>
	<text x="2681.91" y="2619.14" style="font-family:'Helvetica';font-size:99.99px;fill:#000000" text-anchor="middle">14</text>
	<line x1="2840.93" y1="2489.19" x2="2840.93" y2="2529.16" style="stroke:#000000;stroke-width:5.76"/>
	<text x="2840.93" y="2619.14" style="font-family:'Helvetica';font-size:99.99px;fill:#000000" text-anchor="middle">15</text>
	<line x1="3000.07" y1="2489.19" x2="3000.07" y2="2529.16" style="stroke:#000000;stroke-width:5.76"/>
	<text x="3000.07" y="2619.14" style="font-family:'Helvetica';font-size:99.99px;fill:#000000" text-anchor="middle">16</text>
	<line x1="3159.21" y1="2489.19" x2="3159.21" y2="2529.16" style="stroke:#000000;stroke-width:5.76"/>
	<text x="3159.21" y="2619.14" style="font-family:'Helvetica';font-size:99.99px;fill:#000000" text-anchor="middle">17</text>
	<line x1="3318.36" y1="2489.19" x2="3318.36" y2="2529.16" style="stroke:#000000;stroke-width:5.76"/>
	<text x="3318.36" y="2619.14" style="font-family:'Helvetica';font-size:99.99px;fill:#000000" text-anchor="middle">18</text>
	<line x1="3477.50" y1="2489.19" x2="3477.50" y2="2529.16" style="stroke:#000000;stroke-width:5.76"/>
	<text x="3477.50" y="2619.14" style="font-family:'Helvetica';font-size:99.99px;fill:#000000" text-anchor="middle">19</text>
	<line x1="3636.64" y1="2489.19" x2="3636.64" y2="2529.16" style="stroke:#000000;stroke-width:5.76"/>
	<text x="3636.64" y="2619.14" style="font-family:'Helvetica';font-size:99.99px;fill:#000000" text-anchor="middle">20</text>
	<line x1="3795.66" y1="2489.19" x2="3795.66" y2="2529.16" style="stroke:#000000;stroke-width:5.76"/>
	<text x="3795.66" y="2619.14" style="font-family:'Helvetica';font-size:99.99px;fill:#000000" text-anchor="middle">21</text>
	<text x="2124.91" y="2729.16" style="font-family:'Helvetica';font-size:99.99px;fill:#000000" text-anchor="middle">Days since 0.01 confirmed cases per 100 beds</text>
</svg>
