<?xml version="1.0" encoding="UTF-8" standalone="no"?>
<!-- This is a Stata 14.2 generated SVG file (http://www.stata.com) -->

<svg version="1.1" width="5.50in" height="4.00in" viewBox="0 0 3960 2880" xmlns="http://www.w3.org/2000/svg">
	<desc>Stata Graph - Graph</desc>
	<line x1="390.80" y1="4787.17" x2="3859.02" y2="4787.17" style="stroke:#FF0000;stroke-width:8.64"/>
	<path d="M587.81 2425.82 L587.81 2425.82 L721.46 2397.24 L855.11 2302.07 L988.76 2141.81 L1122.41 1944.67 L1256.06 1740.85 L1389.84 1543.33 L1523.49 1354.86 L1657.14 1179.13 L1790.79 1028.27 L1924.44 938.67 L2058.09 899.94 L2191.74 882.61 L2325.39 877.29 L2459.04 878.78 L2592.81 883.97 L2726.46 891.03 L2860.11 898.58 L2993.76 906.00 L3127.41 912.81 L3261.06 918.75 L3394.71 923.95 L3528.36 928.40 L3662.01 932.11 L3795.66 935.08 L3795.66 164.22 L3662.01 171.65 L3528.36 181.30 L3394.71 193.55 L3261.06 209.27 L3127.41 229.32 L2993.76 254.69 L2860.11 286.74 L2726.46 327.08 L2592.81 377.33 L2459.04 439.57 L2325.39 515.56 L2191.74 607.26 L2058.09 715.30 L1924.44 836.45 L1790.79 947.83 L1657.14 1044.85 L1523.49 1166.01 L1389.84 1321.07 L1256.06 1502.50 L1122.41 1690.73 L988.76 1866.08 L855.11 2022.01 L721.46 2158.02 L587.81 2268.04 L587.81 2425.82 Z" stroke-linecap="round" style="fill:#EBEBFF;stroke:#E6E6FF;stroke-width:3.00"/>
	<path d="M587.81 2380.28 L587.81 2380.28 L721.46 2328.18 L855.11 2221.26 L988.76 2062.23 L1122.41 1871.41 L1256.06 1672.04 L1389.84 1479.23 L1523.49 1300.41 L1657.14 1140.39 L1790.79 1005.13 L1924.44 909.22 L2058.09 846.60 L2191.74 803.16 L2325.39 772.84 L2459.04 751.93 L2592.81 737.82 L2726.46 728.29 L2860.11 721.98 L2993.76 718.02 L3127.41 715.54 L3261.06 714.06 L3394.71 713.19 L3528.36 712.82 L3662.01 712.57 L3795.66 712.57 L3795.66 386.61 L3662.01 391.06 L3528.36 396.88 L3394.71 404.43 L3261.06 414.08 L3127.41 426.58 L2993.76 442.67 L2860.11 463.33 L2726.46 489.82 L2592.81 523.60 L2459.04 566.30 L2325.39 620.01 L2191.74 686.71 L2058.09 768.64 L1924.44 866.03 L1790.79 971.10 L1657.14 1083.59 L1523.49 1220.58 L1389.84 1385.30 L1256.06 1571.30 L1122.41 1763.99 L988.76 1945.66 L855.11 2102.83 L721.46 2227.07 L587.81 2313.58 L587.81 2380.28 Z" stroke-linecap="round" style="fill:#D6D6FF;stroke:#CCCCFF;stroke-width:3.00"/>
	<path d="M587.81 2372.98 L587.81 2372.98 L721.46 2317.04 L855.11 2208.14 L988.76 2049.36 L1122.41 1859.53 L1256.06 1660.90 L1389.84 1468.83 L1523.49 1291.50 L1657.14 1134.08 L1790.79 1001.42 L1924.44 904.39 L2058.09 838.06 L2191.74 790.29 L2325.39 756.01 L2459.04 731.51 L2592.81 714.06 L2726.46 701.93 L2860.11 693.39 L2993.76 687.58 L3127.41 683.62 L3261.06 680.89 L3394.71 679.04 L3528.36 677.92 L3662.01 677.06 L3795.66 676.56 L3795.66 422.62 L3662.01 426.58 L3528.36 431.78 L3394.71 438.46 L3261.06 447.12 L3127.41 458.51 L2993.76 473.11 L2860.11 491.92 L2726.46 516.18 L2592.81 547.24 L2459.04 586.84 L2325.39 636.84 L2191.74 699.58 L2058.09 777.17 L1924.44 870.73 L1790.79 974.81 L1657.14 1089.90 L1523.49 1229.37 L1389.84 1395.70 L1256.06 1582.44 L1122.41 1775.87 L988.76 1958.53 L855.11 2115.94 L721.46 2238.21 L587.81 2321.00 L587.81 2372.98 Z" stroke-linecap="round" style="fill:#C2C2FF;stroke:#B3B3FF;stroke-width:3.00"/>
	<path d="M587.81 2367.91 L587.81 2367.91 L721.46 2309.49 L855.11 2199.35 L988.76 2040.70 L1122.41 1851.48 L1256.06 1653.48 L1389.84 1461.90 L1523.49 1285.56 L1657.14 1129.87 L1790.79 998.82 L1924.44 901.18 L2058.09 832.24 L2191.74 781.63 L2325.39 744.63 L2459.04 717.65 L2592.81 698.10 L2726.46 684.11 L2860.11 674.21 L2993.76 667.03 L3127.41 662.08 L3261.06 658.49 L3394.71 656.02 L3528.36 654.29 L3662.01 653.17 L3795.66 652.31 L3795.66 447.00 L3662.01 450.59 L3528.36 455.29 L3394.71 461.48 L3261.06 469.52 L3127.41 480.04 L2993.76 493.53 L2860.11 511.23 L2726.46 533.87 L2592.81 563.20 L2459.04 600.58 L2325.39 648.22 L2191.74 708.24 L2058.09 782.99 L1924.44 873.95 L1790.79 977.41 L1657.14 1094.11 L1523.49 1235.31 L1389.84 1402.63 L1256.06 1589.99 L1122.41 1783.91 L988.76 1967.19 L855.11 2124.73 L721.46 2245.76 L587.81 2325.95 L587.81 2367.91 Z" stroke-linecap="round" style="fill:#ADADFF;stroke:#9999FF;stroke-width:3.00"/>
	<path d="M587.81 2364.07 L587.81 2364.07 L721.46 2303.55 L855.11 2192.30 L988.76 2033.77 L1122.41 1845.17 L1256.06 1647.41 L1389.84 1456.34 L1523.49 1280.85 L1657.14 1126.53 L1790.79 996.84 L1924.44 898.58 L2058.09 827.54 L2191.74 774.70 L2325.39 735.59 L2459.04 706.63 L2592.81 685.47 L2726.46 670.00 L2860.11 658.87 L2993.76 650.82 L3127.41 645.01 L3261.06 640.80 L3394.71 637.83 L3528.36 635.60 L3662.01 634.11 L3795.66 633.00 L3795.66 466.30 L3662.01 469.65 L3528.36 473.98 L3394.71 479.79 L3261.06 487.34 L3127.41 497.12 L2993.76 509.87 L2860.11 526.57 L2726.46 548.11 L2592.81 575.83 L2459.04 611.59 L2325.39 657.26 L2191.74 715.17 L2058.09 787.69 L1924.44 876.55 L1790.79 979.39 L1657.14 1097.45 L1523.49 1240.01 L1389.84 1408.20 L1256.06 1595.93 L1122.41 1790.22 L988.76 1974.12 L855.11 2131.78 L721.46 2251.83 L587.81 2329.91 L587.81 2364.07 Z" stroke-linecap="round" style="fill:#9999FF;stroke:#8080FF;stroke-width:3.00"/>
	<path d="M587.81 2360.61 L587.81 2360.61 L721.46 2298.36 L855.11 2186.36 L988.76 2027.83 L1122.41 1839.72 L1256.06 1642.34 L1389.84 1451.51 L1523.49 1276.77 L1657.14 1123.56 L1790.79 995.10 L1924.44 896.47 L2058.09 823.58 L2191.74 768.88 L2325.39 727.80 L2459.04 697.23 L2592.81 674.58 L2726.46 657.88 L2860.11 645.75 L2993.76 636.84 L3127.41 630.28 L3261.06 625.58 L3394.71 622.11 L3528.36 619.64 L3662.01 617.78 L3795.66 616.42 L3795.66 482.76 L3662.01 485.98 L3528.36 490.07 L3394.71 495.51 L3261.06 502.56 L3127.41 511.85 L2993.76 523.85 L2860.11 539.69 L2726.46 560.11 L2592.81 586.72 L2459.04 621.00 L2325.39 665.05 L2191.74 721.11 L2058.09 791.65 L1924.44 878.78 L1790.79 981.12 L1657.14 1100.30 L1523.49 1244.10 L1389.84 1413.02 L1256.06 1601.00 L1122.41 1795.67 L988.76 1980.06 L855.11 2137.72 L721.46 2256.90 L587.81 2333.26 L587.81 2360.61 Z" stroke-linecap="round" style="fill:#8585FF;stroke:#6666FF;stroke-width:3.00"/>
	<path d="M587.81 2357.63 L587.81 2357.63 L721.46 2293.78 L855.11 2180.91 L988.76 2022.51 L1122.41 1834.77 L1256.06 1637.76 L1389.84 1447.18 L1523.49 1273.18 L1657.14 1120.96 L1790.79 993.50 L1924.44 894.49 L2058.09 819.99 L2191.74 763.56 L2325.39 720.74 L2459.04 688.69 L2592.81 664.81 L2726.46 647.11 L2860.11 633.87 L2993.76 624.21 L3127.41 617.04 L3261.06 611.84 L3394.71 608.00 L3528.36 605.16 L3662.01 603.05 L3795.66 601.57 L3795.66 497.74 L3662.01 500.58 L3528.36 504.42 L3394.71 509.49 L3261.06 516.18 L3127.41 524.96 L2993.76 536.47 L2860.11 551.45 L2726.46 571.00 L2592.81 596.49 L2459.04 629.54 L2325.39 671.98 L2191.74 726.44 L2058.09 795.12 L1924.44 880.63 L1790.79 982.73 L1657.14 1102.89 L1523.49 1247.69 L1389.84 1417.23 L1256.06 1605.58 L1122.41 1800.62 L988.76 1985.38 L855.11 2143.17 L721.46 2261.48 L587.81 2336.35 L587.81 2357.63 Z" stroke-linecap="round" style="fill:#7171FF;stroke:#4D4DFF;stroke-width:3.00"/>
	<path d="M587.81 2354.79 L587.81 2354.79 L721.46 2289.45 L855.11 2175.96 L988.76 2017.56 L1122.41 1830.20 L1256.06 1633.55 L1389.84 1443.22 L1523.49 1269.84 L1657.14 1118.61 L1790.79 992.13 L1924.44 892.64 L2058.09 816.78 L2191.74 758.61 L2325.39 714.31 L2459.04 680.89 L2592.81 655.77 L2726.46 636.96 L2860.11 622.98 L2993.76 612.58 L3127.41 604.91 L3261.06 599.22 L3394.71 594.88 L3528.36 591.79 L3662.01 589.56 L3795.66 587.83 L3795.66 511.47 L3662.01 514.20 L3528.36 517.79 L3394.71 522.61 L3261.06 528.92 L3127.41 537.22 L2993.76 548.11 L2860.11 562.34 L2726.46 581.15 L2592.81 605.53 L2459.04 637.33 L2325.39 678.54 L2191.74 731.26 L2058.09 798.46 L1924.44 882.49 L1790.79 984.09 L1657.14 1105.25 L1523.49 1251.15 L1389.84 1421.19 L1256.06 1609.91 L1122.41 1805.07 L988.76 1990.33 L855.11 2148.24 L721.46 2265.81 L587.81 2339.07 L587.81 2354.79 Z" stroke-linecap="round" style="fill:#5C5CFF;stroke:#3333FF;stroke-width:3.00"/>
	<path d="M587.81 2352.07 L587.81 2352.07 L721.46 2285.49 L855.11 2171.14 L988.76 2012.86 L1122.41 1825.99 L1256.06 1629.47 L1389.84 1439.50 L1523.49 1266.62 L1657.14 1116.38 L1790.79 990.77 L1924.44 890.90 L2058.09 813.68 L2191.74 753.91 L2325.39 708.24 L2459.04 673.47 L2592.81 647.11 L2726.46 627.43 L2860.11 612.58 L2993.76 601.57 L3127.41 593.28 L3261.06 587.09 L3394.71 582.51 L3528.36 579.17 L3662.01 576.57 L3795.66 574.71 L3795.66 524.59 L3662.01 527.07 L3528.36 530.53 L3394.71 534.99 L3261.06 540.93 L3127.41 548.72 L2993.76 559.12 L2860.11 572.73 L2726.46 590.68 L2592.81 614.19 L2459.04 644.88 L2325.39 684.61 L2191.74 735.96 L2058.09 801.55 L1924.44 884.22 L1790.79 985.45 L1657.14 1107.60 L1523.49 1254.37 L1389.84 1425.03 L1256.06 1613.87 L1122.41 1809.41 L988.76 1994.91 L855.11 2152.95 L721.46 2269.89 L587.81 2341.79 L587.81 2352.07 Z" stroke-linecap="round" style="fill:#4747FF;stroke:#1919FF;stroke-width:3.00"/>
	<path d="M587.81 2349.47 L587.81 2349.47 L721.46 2281.53 L855.11 2166.56 L988.76 2008.40 L1122.41 1821.78 L1256.06 1625.51 L1389.84 1435.79 L1523.49 1263.53 L1657.14 1114.16 L1790.79 989.41 L1924.44 889.17 L2058.09 810.59 L2191.74 749.45 L2325.39 702.30 L2459.04 666.17 L2592.81 638.82 L2726.46 618.15 L2860.11 602.56 L2993.76 590.80 L3127.41 582.01 L3261.06 575.46 L3394.71 570.63 L3528.36 566.92 L3662.01 564.19 L3795.66 562.09 L3795.66 537.22 L3662.01 539.57 L3528.36 542.78 L3394.71 546.99 L3261.06 552.56 L3127.41 559.99 L2993.76 569.76 L2860.11 582.76 L2726.46 599.96 L2592.81 622.48 L2459.04 652.06 L2325.39 690.55 L2191.74 740.54 L2058.09 804.65 L1924.44 885.95 L1790.79 986.81 L1657.14 1109.82 L1523.49 1257.46 L1389.84 1428.61 L1256.06 1617.83 L1122.41 1813.61 L988.76 1999.49 L855.11 2157.52 L721.46 2273.73 L587.81 2344.39 L587.81 2349.47 Z" stroke-linecap="round" style="fill:#3333FF;stroke:#0000FF;stroke-width:3.00"/>
	<circle cx="587.69" cy="2340.93" r="22.03" style="fill:#000000;stroke:#000000;stroke-width:8.64"/>
	<circle cx="721.46" cy="2238.83" r="22.03" style="fill:#000000;stroke:#000000;stroke-width:8.64"/>
	<circle cx="855.11" cy="2136.86" r="22.03" style="fill:#000000;stroke:#000000;stroke-width:8.64"/>
	<circle cx="988.76" cy="2111.24" r="22.03" style="fill:#000000;stroke:#000000;stroke-width:8.64"/>
	<circle cx="1122.41" cy="1805.20" r="22.03" style="fill:#000000;stroke:#000000;stroke-width:8.64"/>
	<circle cx="1256.06" cy="1550.14" r="22.03" style="fill:#000000;stroke:#000000;stroke-width:8.64"/>
	<circle cx="1389.71" cy="1422.55" r="22.03" style="fill:#000000;stroke:#000000;stroke-width:8.64"/>
	<circle cx="1523.36" cy="1320.45" r="22.03" style="fill:#000000;stroke:#000000;stroke-width:8.64"/>
	<circle cx="1657.01" cy="1090.89" r="22.03" style="fill:#000000;stroke:#000000;stroke-width:8.64"/>
	<circle cx="1790.66" cy="988.92" r="22.03" style="fill:#000000;stroke:#000000;stroke-width:8.64"/>
	<circle cx="1924.31" cy="886.82" r="22.03" style="fill:#000000;stroke:#000000;stroke-width:8.64"/>
	<line x1="390.80" y1="2489.19" x2="390.80" y2="100.86" style="stroke:#000000;stroke-width:5.76"/>
	<line x1="390.80" y1="2391.79" x2="350.83" y2="2391.79" style="stroke:#000000;stroke-width:5.76"/>
	<text x="300.72" y="2391.79" style="font-family:'Helvetica';font-size:99.99px;fill:#000000" transform="rotate(-90 300.72,2391.79)" text-anchor="middle">0</text>
	<line x1="390.80" y1="1953.08" x2="350.83" y2="1953.08" style="stroke:#000000;stroke-width:5.76"/>
	<text x="300.72" y="1953.08" style="font-family:'Helvetica';font-size:99.99px;fill:#000000" transform="rotate(-90 300.72,1953.08)" text-anchor="middle">.2</text>
	<line x1="390.80" y1="1514.38" x2="350.83" y2="1514.38" style="stroke:#000000;stroke-width:5.76"/>
	<text x="300.72" y="1514.38" style="font-family:'Helvetica';font-size:99.99px;fill:#000000" transform="rotate(-90 300.72,1514.38)" text-anchor="middle">.4</text>
	<line x1="390.80" y1="1075.67" x2="350.83" y2="1075.67" style="stroke:#000000;stroke-width:5.76"/>
	<text x="300.72" y="1075.67" style="font-family:'Helvetica';font-size:99.99px;fill:#000000" transform="rotate(-90 300.72,1075.67)" text-anchor="middle">.6</text>
	<line x1="390.80" y1="636.96" x2="350.83" y2="636.96" style="stroke:#000000;stroke-width:5.76"/>
	<text x="300.72" y="636.96" style="font-family:'Helvetica';font-size:99.99px;fill:#000000" transform="rotate(-90 300.72,636.96)" text-anchor="middle">.8</text>
	<line x1="390.80" y1="198.25" x2="350.83" y2="198.25" style="stroke:#000000;stroke-width:5.76"/>
	<text x="300.72" y="198.25" style="font-family:'Helvetica';font-size:99.99px;fill:#000000" transform="rotate(-90 300.72,198.25)" text-anchor="middle">1</text>
	<text x="190.71" y="1294.96" style="font-family:'Helvetica';font-size:99.99px;fill:#000000" transform="rotate(-90 190.71,1294.96)" text-anchor="middle">Confirmed cases per 100 beds</text>
	<line x1="390.80" y1="2489.19" x2="3859.02" y2="2489.19" style="stroke:#000000;stroke-width:5.76"/>
	<line x1="454.16" y1="2489.19" x2="454.16" y2="2529.16" style="stroke:#000000;stroke-width:5.76"/>
	<text x="454.16" y="2619.14" style="font-family:'Helvetica';font-size:99.99px;fill:#000000" text-anchor="middle">0</text>
	<line x1="1122.41" y1="2489.19" x2="1122.41" y2="2529.16" style="stroke:#000000;stroke-width:5.76"/>
	<text x="1122.41" y="2619.14" style="font-family:'Helvetica';font-size:99.99px;fill:#000000" text-anchor="middle">5</text>
	<line x1="1790.79" y1="2489.19" x2="1790.79" y2="2529.16" style="stroke:#000000;stroke-width:5.76"/>
	<text x="1790.79" y="2619.14" style="font-family:'Helvetica';font-size:99.99px;fill:#000000" text-anchor="middle">10</text>
	<line x1="2459.04" y1="2489.19" x2="2459.04" y2="2529.16" style="stroke:#000000;stroke-width:5.76"/>
	<text x="2459.04" y="2619.14" style="font-family:'Helvetica';font-size:99.99px;fill:#000000" text-anchor="middle">15</text>
	<line x1="3127.41" y1="2489.19" x2="3127.41" y2="2529.16" style="stroke:#000000;stroke-width:5.76"/>
	<text x="3127.41" y="2619.14" style="font-family:'Helvetica';font-size:99.99px;fill:#000000" text-anchor="middle">20</text>
	<line x1="3795.66" y1="2489.19" x2="3795.66" y2="2529.16" style="stroke:#000000;stroke-width:5.76"/>
	<text x="3795.66" y="2619.14" style="font-family:'Helvetica';font-size:99.99px;fill:#000000" text-anchor="middle">25</text>
	<text x="2124.91" y="2729.16" style="font-family:'Helvetica';font-size:99.99px;fill:#000000" text-anchor="middle">Days since 0.01 confirmed cases per 100 beds</text>
</svg>
