<?xml version="1.0" encoding="UTF-8" standalone="no"?>
<!-- This is a Stata 14.2 generated SVG file (http://www.stata.com) -->

<svg version="1.1" width="5.50in" height="4.00in" viewBox="0 0 3960 2880" xmlns="http://www.w3.org/2000/svg">
	<desc>Stata Graph - Graph</desc>
	<line x1="390.80" y1="1068.86" x2="3859.02" y2="1068.86" style="stroke:#FF0000;stroke-width:8.64"/>
	<path d="M565.54 1521.43 L565.54 1521.43 L676.91 1521.55 L788.29 1521.55 L899.66 1521.68 L1011.04 1521.68 L1122.41 1521.68 L1233.79 1521.68 L1345.29 1521.55 L1456.66 1521.31 L1568.04 1520.81 L1679.41 1520.19 L1790.79 1519.33 L1902.16 1518.34 L2013.54 1517.84 L2124.91 1517.84 L2236.29 1518.71 L2347.66 1520.69 L2459.04 1524.03 L2570.53 1529.35 L2681.91 1537.39 L2793.28 1549.27 L2904.66 1565.98 L3016.03 1589.12 L3127.41 1620.80 L3238.78 1663.50 L3350.16 1720.18 L3461.53 1794.55 L3572.91 1891.45 L3684.28 2016.32 L3795.66 2175.96 L3795.66 193.43 L3684.28 482.89 L3572.91 714.18 L3461.53 897.83 L3350.16 1042.87 L3238.78 1156.85 L3127.41 1245.71 L3016.03 1314.51 L2904.66 1367.48 L2793.28 1407.82 L2681.91 1438.51 L2570.53 1461.41 L2459.04 1478.49 L2347.66 1491.11 L2236.29 1500.14 L2124.91 1506.58 L2013.54 1511.03 L1902.16 1513.76 L1790.79 1515.37 L1679.41 1516.36 L1568.04 1517.22 L1456.66 1517.84 L1345.29 1518.46 L1233.79 1518.95 L1122.41 1519.45 L1011.04 1519.70 L899.66 1520.07 L788.29 1520.32 L676.91 1520.44 L565.54 1520.69 L565.54 1521.43 Z" stroke-linecap="round" style="fill:#EBEBFF;stroke:#E6E6FF;stroke-width:3.00"/>
	<path d="M565.54 1521.18 L565.54 1521.18 L676.91 1521.18 L788.29 1521.18 L899.66 1521.18 L1011.04 1521.18 L1122.41 1521.06 L1233.79 1520.94 L1345.29 1520.69 L1456.66 1520.32 L1568.04 1519.82 L1679.41 1519.08 L1790.79 1518.21 L1902.16 1516.97 L2013.54 1515.86 L2124.91 1514.62 L2236.29 1513.39 L2347.66 1512.15 L2459.04 1510.91 L2570.53 1509.80 L2681.91 1508.93 L2793.28 1508.44 L2904.66 1508.68 L3016.03 1509.92 L3127.41 1512.52 L3238.78 1517.22 L3350.16 1524.65 L3461.53 1535.79 L3572.91 1551.63 L3684.28 1573.78 L3795.66 1603.85 L3795.66 765.54 L3684.28 925.43 L3572.91 1053.89 L3461.53 1156.60 L3350.16 1238.40 L3238.78 1303.00 L3127.41 1353.99 L3016.03 1393.72 L2904.66 1424.65 L2793.28 1448.66 L2681.91 1466.98 L2570.53 1481.09 L2459.04 1491.61 L2347.66 1499.65 L2236.29 1505.47 L2124.91 1509.80 L2013.54 1512.89 L1902.16 1515.12 L1790.79 1516.48 L1679.41 1517.47 L1568.04 1518.21 L1456.66 1518.83 L1345.29 1519.33 L1233.79 1519.70 L1122.41 1520.07 L1011.04 1520.32 L899.66 1520.56 L788.29 1520.69 L676.91 1520.81 L565.54 1520.94 L565.54 1521.18 Z" stroke-linecap="round" style="fill:#D6D6FF;stroke:#CCCCFF;stroke-width:3.00"/>
	<path d="M565.54 1521.18 L565.54 1521.18 L676.91 1521.18 L788.29 1521.18 L899.66 1521.06 L1011.04 1521.06 L1122.41 1520.94 L1233.79 1520.81 L1345.29 1520.56 L1456.66 1520.19 L1568.04 1519.57 L1679.41 1518.95 L1790.79 1517.96 L1902.16 1516.85 L2013.54 1515.49 L2124.91 1514.13 L2236.29 1512.52 L2347.66 1510.79 L2459.04 1508.81 L2570.53 1506.58 L2681.91 1504.23 L2793.28 1501.88 L2904.66 1499.40 L3016.03 1497.05 L3127.41 1495.07 L3238.78 1493.59 L3350.16 1493.09 L3461.53 1493.96 L3572.91 1496.68 L3684.28 1502.12 L3795.66 1511.28 L3795.66 858.11 L3684.28 997.08 L3572.91 1108.96 L3461.53 1198.56 L3350.16 1269.96 L3238.78 1326.64 L3127.41 1371.44 L3016.03 1406.59 L2904.66 1433.94 L2793.28 1455.22 L2681.91 1471.68 L2570.53 1484.18 L2459.04 1493.83 L2347.66 1501.01 L2236.29 1506.33 L2124.91 1510.42 L2013.54 1513.26 L1902.16 1515.24 L1790.79 1516.73 L1679.41 1517.72 L1568.04 1518.46 L1456.66 1519.08 L1345.29 1519.45 L1233.79 1519.82 L1122.41 1520.19 L1011.04 1520.44 L899.66 1520.56 L788.29 1520.69 L676.91 1520.81 L565.54 1520.94 L565.54 1521.18 Z" stroke-linecap="round" style="fill:#C2C2FF;stroke:#B3B3FF;stroke-width:3.00"/>
	<path d="M565.54 1521.18 L565.54 1521.18 L676.91 1521.18 L788.29 1521.06 L899.66 1521.06 L1011.04 1520.94 L1122.41 1520.81 L1233.79 1520.69 L1345.29 1520.44 L1456.66 1520.07 L1568.04 1519.57 L1679.41 1518.83 L1790.79 1517.84 L1902.16 1516.73 L2013.54 1515.24 L2124.91 1513.76 L2236.29 1511.90 L2347.66 1509.80 L2459.04 1507.32 L2570.53 1504.48 L2681.91 1501.13 L2793.28 1497.42 L2904.66 1493.09 L3016.03 1488.39 L3127.41 1483.19 L3238.78 1477.62 L3350.16 1471.68 L3461.53 1465.62 L3572.91 1459.55 L3684.28 1453.86 L3795.66 1448.79 L3795.66 920.61 L3684.28 1045.35 L3572.91 1145.96 L3461.53 1226.77 L3350.16 1291.37 L3238.78 1342.61 L3127.41 1383.32 L3016.03 1415.25 L2904.66 1440.25 L2793.28 1459.68 L2681.91 1474.77 L2570.53 1486.41 L2459.04 1495.19 L2347.66 1501.88 L2236.29 1506.95 L2124.91 1510.79 L2013.54 1513.51 L1902.16 1515.49 L1790.79 1516.85 L1679.41 1517.84 L1568.04 1518.58 L1456.66 1519.08 L1345.29 1519.57 L1233.79 1519.94 L1122.41 1520.19 L1011.04 1520.44 L899.66 1520.69 L788.29 1520.81 L676.91 1520.81 L565.54 1520.94 L565.54 1521.18 Z" stroke-linecap="round" style="fill:#ADADFF;stroke:#9999FF;stroke-width:3.00"/>
	<path d="M565.54 1521.18 L565.54 1521.18 L676.91 1521.06 L788.29 1521.06 L899.66 1521.06 L1011.04 1520.94 L1122.41 1520.81 L1233.79 1520.56 L1345.29 1520.32 L1456.66 1519.94 L1568.04 1519.45 L1679.41 1518.71 L1790.79 1517.72 L1902.16 1516.60 L2013.54 1515.12 L2124.91 1513.51 L2236.29 1511.41 L2347.66 1509.05 L2459.04 1506.21 L2570.53 1502.74 L2681.91 1498.66 L2793.28 1493.83 L2904.66 1488.14 L3016.03 1481.58 L3127.41 1473.78 L3238.78 1465.00 L3350.16 1454.73 L3461.53 1443.22 L3572.91 1430.10 L3684.28 1415.50 L3795.66 1399.16 L3795.66 970.23 L3684.28 1083.71 L3572.91 1175.41 L3461.53 1249.17 L3350.16 1308.33 L3238.78 1355.35 L3127.41 1392.60 L3016.03 1422.06 L2904.66 1445.20 L2793.28 1463.27 L2681.91 1477.25 L2570.53 1488.02 L2459.04 1496.31 L2347.66 1502.62 L2236.29 1507.45 L2124.91 1511.03 L2013.54 1513.63 L1902.16 1515.61 L1790.79 1516.85 L1679.41 1517.84 L1568.04 1518.58 L1456.66 1519.20 L1345.29 1519.70 L1233.79 1520.07 L1122.41 1520.32 L1011.04 1520.56 L899.66 1520.69 L788.29 1520.81 L676.91 1520.94 L565.54 1520.94 L565.54 1521.18 Z" stroke-linecap="round" style="fill:#9999FF;stroke:#8080FF;stroke-width:3.00"/>
	<path d="M565.54 1521.18 L565.54 1521.18 L676.91 1521.06 L788.29 1521.06 L899.66 1520.94 L1011.04 1520.94 L1122.41 1520.81 L1233.79 1520.56 L1345.29 1520.32 L1456.66 1519.94 L1568.04 1519.33 L1679.41 1518.58 L1790.79 1517.72 L1902.16 1516.48 L2013.54 1514.99 L2124.91 1513.26 L2236.29 1511.03 L2347.66 1508.44 L2459.04 1505.22 L2570.53 1501.26 L2681.91 1496.56 L2793.28 1490.74 L2904.66 1483.93 L3016.03 1475.64 L3127.41 1465.74 L3238.78 1454.11 L3350.16 1440.25 L3461.53 1423.91 L3572.91 1404.85 L3684.28 1382.58 L3795.66 1356.59 L3795.66 1012.80 L3684.28 1116.63 L3572.91 1200.78 L3461.53 1268.48 L3350.16 1322.81 L3238.78 1366.24 L3127.41 1400.77 L3016.03 1428.00 L2904.66 1449.53 L2793.28 1466.24 L2681.91 1479.35 L2570.53 1489.50 L2459.04 1497.30 L2347.66 1503.24 L2236.29 1507.82 L2124.91 1511.28 L2013.54 1513.76 L1902.16 1515.61 L1790.79 1516.97 L1679.41 1517.96 L1568.04 1518.71 L1456.66 1519.33 L1345.29 1519.70 L1233.79 1520.07 L1122.41 1520.32 L1011.04 1520.56 L899.66 1520.69 L788.29 1520.81 L676.91 1520.94 L565.54 1520.94 L565.54 1521.18 Z" stroke-linecap="round" style="fill:#8585FF;stroke:#6666FF;stroke-width:3.00"/>
	<path d="M565.54 1521.06 L565.54 1521.06 L676.91 1521.06 L788.29 1521.06 L899.66 1520.94 L1011.04 1520.81 L1122.41 1520.69 L1233.79 1520.44 L1345.29 1520.19 L1456.66 1519.82 L1568.04 1519.33 L1679.41 1518.58 L1790.79 1517.59 L1902.16 1516.36 L2013.54 1514.87 L2124.91 1513.01 L2236.29 1510.66 L2347.66 1507.82 L2459.04 1504.35 L2570.53 1500.02 L2681.91 1494.58 L2793.28 1488.02 L2904.66 1480.10 L3016.03 1470.32 L3127.41 1458.56 L3238.78 1444.33 L3350.16 1427.13 L3461.53 1406.59 L3572.91 1382.08 L3684.28 1353.00 L3795.66 1318.35 L3795.66 1051.04 L3684.28 1146.21 L3572.91 1223.43 L3461.53 1285.80 L3350.16 1335.92 L3238.78 1376.02 L3127.41 1407.95 L3016.03 1433.32 L2904.66 1453.24 L2793.28 1468.96 L2681.91 1481.33 L2570.53 1490.86 L2459.04 1498.16 L2347.66 1503.86 L2236.29 1508.19 L2124.91 1511.53 L2013.54 1513.88 L1902.16 1515.74 L1790.79 1517.10 L1679.41 1518.09 L1568.04 1518.83 L1456.66 1519.33 L1345.29 1519.82 L1233.79 1520.19 L1122.41 1520.44 L1011.04 1520.56 L899.66 1520.69 L788.29 1520.81 L676.91 1520.94 L565.54 1521.06 L565.54 1521.06 Z" stroke-linecap="round" style="fill:#7171FF;stroke:#4D4DFF;stroke-width:3.00"/>
	<path d="M565.54 1521.06 L565.54 1521.06 L676.91 1521.06 L788.29 1521.06 L899.66 1520.94 L1011.04 1520.81 L1122.41 1520.69 L1233.79 1520.44 L1345.29 1520.19 L1456.66 1519.70 L1568.04 1519.20 L1679.41 1518.46 L1790.79 1517.47 L1902.16 1516.23 L2013.54 1514.75 L2124.91 1512.77 L2236.29 1510.42 L2347.66 1507.32 L2459.04 1503.49 L2570.53 1498.78 L2681.91 1492.84 L2793.28 1485.54 L2904.66 1476.51 L3016.03 1465.37 L3127.41 1451.88 L3238.78 1435.17 L3350.16 1415.00 L3461.53 1390.62 L3572.91 1361.05 L3684.28 1325.53 L3795.66 1282.83 L3795.66 1086.56 L3684.28 1173.68 L3572.91 1244.47 L3461.53 1301.77 L3350.16 1348.05 L3238.78 1385.05 L3127.41 1414.63 L3016.03 1438.27 L2904.66 1456.83 L2793.28 1471.56 L2681.91 1483.07 L2570.53 1491.98 L2459.04 1499.03 L2347.66 1504.35 L2236.29 1508.56 L2124.91 1511.65 L2013.54 1514.00 L1902.16 1515.86 L1790.79 1517.10 L1679.41 1518.09 L1568.04 1518.83 L1456.66 1519.45 L1345.29 1519.82 L1233.79 1520.19 L1122.41 1520.44 L1011.04 1520.56 L899.66 1520.81 L788.29 1520.94 L676.91 1520.94 L565.54 1521.06 L565.54 1521.06 Z" stroke-linecap="round" style="fill:#5C5CFF;stroke:#3333FF;stroke-width:3.00"/>
	<path d="M565.54 1521.06 L565.54 1521.06 L676.91 1521.06 L788.29 1520.94 L899.66 1520.94 L1011.04 1520.81 L1122.41 1520.56 L1233.79 1520.44 L1345.29 1520.07 L1456.66 1519.70 L1568.04 1519.20 L1679.41 1518.46 L1790.79 1517.47 L1902.16 1516.23 L2013.54 1514.62 L2124.91 1512.64 L2236.29 1510.04 L2347.66 1506.83 L2459.04 1502.74 L2570.53 1497.67 L2681.91 1491.23 L2793.28 1483.19 L2904.66 1473.17 L3016.03 1460.79 L3127.41 1445.45 L3238.78 1426.63 L3350.16 1403.62 L3461.53 1375.40 L3572.91 1341.12 L3684.28 1299.54 L3795.66 1249.30 L3795.66 1120.10 L3684.28 1199.67 L3572.91 1264.52 L3461.53 1316.99 L3350.16 1359.44 L3238.78 1393.59 L3127.41 1421.07 L3016.03 1442.85 L2904.66 1460.17 L2793.28 1473.91 L2681.91 1484.68 L2570.53 1493.21 L2459.04 1499.77 L2347.66 1504.85 L2236.29 1508.81 L2124.91 1511.90 L2013.54 1514.13 L1902.16 1515.86 L1790.79 1517.22 L1679.41 1518.21 L1568.04 1518.95 L1456.66 1519.45 L1345.29 1519.94 L1233.79 1520.19 L1122.41 1520.44 L1011.04 1520.69 L899.66 1520.81 L788.29 1520.94 L676.91 1520.94 L565.54 1521.06 L565.54 1521.06 Z" stroke-linecap="round" style="fill:#4747FF;stroke:#1919FF;stroke-width:3.00"/>
	<path d="M565.54 1521.06 L565.54 1521.06 L676.91 1521.06 L788.29 1520.94 L899.66 1520.81 L1011.04 1520.81 L1122.41 1520.56 L1233.79 1520.32 L1345.29 1520.07 L1456.66 1519.70 L1568.04 1519.08 L1679.41 1518.34 L1790.79 1517.35 L1902.16 1516.11 L2013.54 1514.50 L2124.91 1512.40 L2236.29 1509.80 L2347.66 1506.33 L2459.04 1502.00 L2570.53 1496.56 L2681.91 1489.50 L2793.28 1480.84 L2904.66 1469.82 L3016.03 1456.21 L3127.41 1439.26 L3238.78 1418.34 L3350.16 1392.48 L3461.53 1360.67 L3572.91 1321.82 L3684.28 1274.42 L3795.66 1216.75 L3795.66 1152.64 L3684.28 1224.79 L3572.91 1283.82 L3461.53 1331.72 L3350.16 1370.57 L3238.78 1402.01 L3127.41 1427.13 L3016.03 1447.43 L2904.66 1463.51 L2793.28 1476.26 L2681.91 1486.41 L2570.53 1494.33 L2459.04 1500.52 L2347.66 1505.34 L2236.29 1509.18 L2124.91 1512.02 L2013.54 1514.25 L1902.16 1515.98 L1790.79 1517.22 L1679.41 1518.21 L1568.04 1518.95 L1456.66 1519.57 L1345.29 1519.94 L1233.79 1520.32 L1122.41 1520.56 L1011.04 1520.69 L899.66 1520.81 L788.29 1520.94 L676.91 1520.94 L565.54 1521.06 L565.54 1521.06 Z" stroke-linecap="round" style="fill:#3333FF;stroke:#0000FF;stroke-width:3.00"/>
	<circle cx="565.41" cy="1520.56" r="22.03" style="fill:#000000;stroke:#000000;stroke-width:8.64"/>
	<circle cx="676.79" cy="1520.56" r="22.03" style="fill:#000000;stroke:#000000;stroke-width:8.64"/>
	<circle cx="788.29" cy="1520.56" r="22.03" style="fill:#000000;stroke:#000000;stroke-width:8.64"/>
	<circle cx="899.66" cy="1520.19" r="22.03" style="fill:#000000;stroke:#000000;stroke-width:8.64"/>
	<circle cx="1011.04" cy="1519.57" r="22.03" style="fill:#000000;stroke:#000000;stroke-width:8.64"/>
	<circle cx="1122.41" cy="1519.57" r="22.03" style="fill:#000000;stroke:#000000;stroke-width:8.64"/>
	<circle cx="1233.79" cy="1519.33" r="22.03" style="fill:#000000;stroke:#000000;stroke-width:8.64"/>
	<circle cx="1345.16" cy="1519.33" r="22.03" style="fill:#000000;stroke:#000000;stroke-width:8.64"/>
	<circle cx="1456.54" cy="1518.34" r="22.03" style="fill:#000000;stroke:#000000;stroke-width:8.64"/>
	<circle cx="1567.91" cy="1518.34" r="22.03" style="fill:#000000;stroke:#000000;stroke-width:8.64"/>
	<circle cx="1679.29" cy="1518.34" r="22.03" style="fill:#000000;stroke:#000000;stroke-width:8.64"/>
	<circle cx="1790.66" cy="1517.35" r="22.03" style="fill:#000000;stroke:#000000;stroke-width:8.64"/>
	<circle cx="1902.04" cy="1516.97" r="22.03" style="fill:#000000;stroke:#000000;stroke-width:8.64"/>
	<circle cx="2013.54" cy="1516.97" r="22.03" style="fill:#000000;stroke:#000000;stroke-width:8.64"/>
	<circle cx="2124.91" cy="1514.75" r="22.03" style="fill:#000000;stroke:#000000;stroke-width:8.64"/>
	<circle cx="2236.29" cy="1506.46" r="22.03" style="fill:#000000;stroke:#000000;stroke-width:8.64"/>
	<line x1="390.80" y1="2489.19" x2="390.80" y2="100.86" style="stroke:#000000;stroke-width:5.76"/>
	<line x1="390.80" y1="2425.82" x2="350.83" y2="2425.82" style="stroke:#000000;stroke-width:5.76"/>
	<text x="300.72" y="2425.82" style="font-family:'Helvetica';font-size:99.99px;fill:#000000" transform="rotate(-90 300.72,2425.82)" text-anchor="middle">-20</text>
	<line x1="390.80" y1="1973.50" x2="350.83" y2="1973.50" style="stroke:#000000;stroke-width:5.76"/>
	<text x="300.72" y="1973.50" style="font-family:'Helvetica';font-size:99.99px;fill:#000000" transform="rotate(-90 300.72,1973.50)" text-anchor="middle">-10</text>
	<line x1="390.80" y1="1521.18" x2="350.83" y2="1521.18" style="stroke:#000000;stroke-width:5.76"/>
	<text x="300.72" y="1521.18" style="font-family:'Helvetica';font-size:99.99px;fill:#000000" transform="rotate(-90 300.72,1521.18)" text-anchor="middle">0</text>
	<line x1="390.80" y1="1068.86" x2="350.83" y2="1068.86" style="stroke:#000000;stroke-width:5.76"/>
	<text x="300.72" y="1068.86" style="font-family:'Helvetica';font-size:99.99px;fill:#000000" transform="rotate(-90 300.72,1068.86)" text-anchor="middle">10</text>
	<line x1="390.80" y1="616.54" x2="350.83" y2="616.54" style="stroke:#000000;stroke-width:5.76"/>
	<text x="300.72" y="616.54" style="font-family:'Helvetica';font-size:99.99px;fill:#000000" transform="rotate(-90 300.72,616.54)" text-anchor="middle">20</text>
	<line x1="390.80" y1="164.22" x2="350.83" y2="164.22" style="stroke:#000000;stroke-width:5.76"/>
	<text x="300.72" y="164.22" style="font-family:'Helvetica';font-size:99.99px;fill:#000000" transform="rotate(-90 300.72,164.22)" text-anchor="middle">30</text>
	<text x="190.71" y="1294.96" style="font-family:'Helvetica';font-size:99.99px;fill:#000000" transform="rotate(-90 190.71,1294.96)" text-anchor="middle">Confirmed cases per 100 beds</text>
	<line x1="390.80" y1="2489.19" x2="3859.02" y2="2489.19" style="stroke:#000000;stroke-width:5.76"/>
	<line x1="454.16" y1="2489.19" x2="454.16" y2="2529.16" style="stroke:#000000;stroke-width:5.76"/>
	<text x="454.16" y="2619.14" style="font-family:'Helvetica';font-size:99.99px;fill:#000000" text-anchor="middle">0</text>
	<line x1="1568.04" y1="2489.19" x2="1568.04" y2="2529.16" style="stroke:#000000;stroke-width:5.76"/>
	<text x="1568.04" y="2619.14" style="font-family:'Helvetica';font-size:99.99px;fill:#000000" text-anchor="middle">10</text>
	<line x1="2681.91" y1="2489.19" x2="2681.91" y2="2529.16" style="stroke:#000000;stroke-width:5.76"/>
	<text x="2681.91" y="2619.14" style="font-family:'Helvetica';font-size:99.99px;fill:#000000" text-anchor="middle">20</text>
	<line x1="3795.66" y1="2489.19" x2="3795.66" y2="2529.16" style="stroke:#000000;stroke-width:5.76"/>
	<text x="3795.66" y="2619.14" style="font-family:'Helvetica';font-size:99.99px;fill:#000000" text-anchor="middle">30</text>
	<text x="2124.91" y="2729.16" style="font-family:'Helvetica';font-size:99.99px;fill:#000000" text-anchor="middle">Days since 0.01 confirmed cases per 100 beds</text>
</svg>
