<?xml version="1.0" encoding="UTF-8" standalone="no"?>
<!-- This is a Stata 14.2 generated SVG file (http://www.stata.com) -->

<svg version="1.1" width="5.50in" height="4.00in" viewBox="0 0 3960 2880" xmlns="http://www.w3.org/2000/svg">
	<desc>Stata Graph - Graph</desc>
	<line x1="390.80" y1="1656.82" x2="3859.02" y2="1656.82" style="stroke:#FF0000;stroke-width:8.64"/>
	<path d="M606.00 1672.04 L606.00 1672.04 L757.97 1672.04 L909.81 1672.04 L1061.65 1672.04 L1213.62 1672.04 L1365.46 1671.91 L1517.42 1671.67 L1669.26 1671.54 L1821.11 1671.42 L1973.07 1671.79 L2124.91 1672.90 L2276.88 1675.26 L2428.72 1679.71 L2580.56 1687.63 L2732.52 1700.87 L2884.36 1722.53 L3036.33 1756.56 L3188.17 1808.54 L3340.01 1886.01 L3491.98 1998.87 L3643.82 2160.00 L3795.66 2386.22 L3795.66 384.87 L3643.82 770.99 L3491.98 1050.92 L3340.01 1250.78 L3188.17 1391.36 L3036.33 1488.39 L2884.36 1554.22 L2732.52 1598.16 L2580.56 1626.74 L2428.72 1645.06 L2276.88 1656.32 L2124.91 1663.25 L1973.07 1667.21 L1821.11 1669.56 L1669.26 1670.68 L1517.42 1671.17 L1365.46 1671.42 L1213.62 1671.54 L1061.65 1671.67 L909.81 1671.79 L757.97 1671.79 L606.00 1671.91 L606.00 1672.04 Z" stroke-linecap="round" style="fill:#EBEBFF;stroke:#E6E6FF;stroke-width:3.00"/>
	<path d="M606.00 1671.91 L606.00 1671.91 L757.97 1671.91 L909.81 1671.91 L1061.65 1671.91 L1213.62 1671.91 L1365.46 1671.79 L1517.42 1671.54 L1669.26 1671.30 L1821.11 1670.92 L1973.07 1670.55 L2124.91 1670.06 L2276.88 1669.81 L2428.72 1669.69 L2580.56 1670.06 L2732.52 1671.30 L2884.36 1674.02 L3036.33 1679.22 L3188.17 1688.13 L3340.01 1702.73 L3491.98 1725.25 L3643.82 1759.16 L3795.66 1808.54 L3795.66 962.43 L3643.82 1171.95 L3491.98 1324.54 L3340.01 1434.18 L3188.17 1511.78 L3036.33 1565.73 L2884.36 1602.86 L2732.52 1627.86 L2580.56 1644.32 L2428.72 1654.96 L2276.88 1661.77 L2124.91 1665.97 L1973.07 1668.57 L1821.11 1670.06 L1669.26 1670.92 L1517.42 1671.30 L1365.46 1671.54 L1213.62 1671.67 L1061.65 1671.79 L909.81 1671.79 L757.97 1671.91 L606.00 1671.91 L606.00 1671.91 Z" stroke-linecap="round" style="fill:#D6D6FF;stroke:#CCCCFF;stroke-width:3.00"/>
	<path d="M606.00 1671.91 L606.00 1671.91 L757.97 1671.91 L909.81 1671.91 L1061.65 1671.91 L1213.62 1671.79 L1365.46 1671.79 L1517.42 1671.54 L1669.26 1671.17 L1821.11 1670.80 L1973.07 1670.31 L2124.91 1669.69 L2276.88 1668.94 L2428.72 1668.08 L2580.56 1667.21 L2732.52 1666.47 L2884.36 1666.10 L3036.33 1666.72 L3188.17 1668.70 L3340.01 1673.03 L3491.98 1680.95 L3643.82 1694.31 L3795.66 1715.10 L3795.66 1055.87 L3643.82 1236.80 L3491.98 1368.72 L3340.01 1463.76 L3188.17 1531.21 L3036.33 1578.36 L2884.36 1610.66 L2732.52 1632.56 L2580.56 1647.16 L2428.72 1656.69 L2276.88 1662.63 L2124.91 1666.47 L1973.07 1668.82 L1821.11 1670.18 L1669.26 1670.92 L1517.42 1671.30 L1365.46 1671.54 L1213.62 1671.67 L1061.65 1671.79 L909.81 1671.91 L757.97 1671.91 L606.00 1671.91 L606.00 1671.91 Z" stroke-linecap="round" style="fill:#C2C2FF;stroke:#B3B3FF;stroke-width:3.00"/>
	<path d="M606.00 1671.91 L606.00 1671.91 L757.97 1671.91 L909.81 1671.91 L1061.65 1671.91 L1213.62 1671.79 L1365.46 1671.67 L1517.42 1671.54 L1669.26 1671.17 L1821.11 1670.80 L1973.07 1670.18 L2124.91 1669.32 L2276.88 1668.33 L2428.72 1666.96 L2580.56 1665.23 L2732.52 1663.25 L2884.36 1660.90 L3036.33 1658.18 L3188.17 1655.46 L3340.01 1652.98 L3491.98 1651.12 L3643.82 1650.51 L3795.66 1652.11 L3795.66 1118.98 L3643.82 1280.48 L3491.98 1398.67 L3340.01 1483.81 L3188.17 1544.32 L3036.33 1586.77 L2884.36 1615.98 L2732.52 1635.90 L2580.56 1649.02 L2428.72 1657.68 L2276.88 1663.25 L2124.91 1666.84 L1973.07 1668.94 L1821.11 1670.18 L1669.26 1670.92 L1517.42 1671.42 L1365.46 1671.54 L1213.62 1671.67 L1061.65 1671.79 L909.81 1671.91 L757.97 1671.91 L606.00 1671.91 L606.00 1671.91 Z" stroke-linecap="round" style="fill:#ADADFF;stroke:#9999FF;stroke-width:3.00"/>
	<path d="M606.00 1671.91 L606.00 1671.91 L757.97 1671.91 L909.81 1671.91 L1061.65 1671.91 L1213.62 1671.79 L1365.46 1671.67 L1517.42 1671.54 L1669.26 1671.17 L1821.11 1670.68 L1973.07 1670.06 L2124.91 1669.07 L2276.88 1667.83 L2428.72 1666.10 L2580.56 1663.75 L2732.52 1660.65 L2884.36 1656.57 L3036.33 1651.50 L3188.17 1645.06 L3340.01 1637.14 L3491.98 1627.36 L3643.82 1615.73 L3795.66 1601.99 L3795.66 1169.10 L3643.82 1315.26 L3491.98 1422.43 L3340.01 1499.65 L3188.17 1554.84 L3036.33 1593.45 L2884.36 1620.19 L2732.52 1638.38 L2580.56 1650.63 L2428.72 1658.55 L2276.88 1663.75 L2124.91 1666.96 L1973.07 1669.07 L1821.11 1670.31 L1669.26 1670.92 L1517.42 1671.42 L1365.46 1671.54 L1213.62 1671.79 L1061.65 1671.79 L909.81 1671.91 L757.97 1671.91 L606.00 1671.91 L606.00 1671.91 Z" stroke-linecap="round" style="fill:#9999FF;stroke:#8080FF;stroke-width:3.00"/>
	<path d="M606.00 1671.91 L606.00 1671.91 L757.97 1671.91 L909.81 1671.91 L1061.65 1671.91 L1213.62 1671.79 L1365.46 1671.67 L1517.42 1671.42 L1669.26 1671.17 L1821.11 1670.68 L1973.07 1669.93 L2124.91 1668.94 L2276.88 1667.46 L2428.72 1665.36 L2580.56 1662.39 L2732.52 1658.43 L2884.36 1652.98 L3036.33 1645.68 L3188.17 1636.15 L3340.01 1623.40 L3491.98 1607.07 L3643.82 1585.91 L3795.66 1559.05 L3795.66 1212.05 L3643.82 1345.08 L3491.98 1442.72 L3340.01 1513.39 L3188.17 1563.75 L3036.33 1599.27 L2884.36 1623.77 L2732.52 1640.61 L2580.56 1651.87 L2428.72 1659.29 L2276.88 1664.12 L2124.91 1667.21 L1973.07 1669.19 L1821.11 1670.31 L1669.26 1671.05 L1517.42 1671.42 L1365.46 1671.67 L1213.62 1671.79 L1061.65 1671.79 L909.81 1671.91 L757.97 1671.91 L606.00 1671.91 L606.00 1671.91 Z" stroke-linecap="round" style="fill:#8585FF;stroke:#6666FF;stroke-width:3.00"/>
	<path d="M606.00 1671.91 L606.00 1671.91 L757.97 1671.91 L909.81 1671.91 L1061.65 1671.91 L1213.62 1671.79 L1365.46 1671.67 L1517.42 1671.42 L1669.26 1671.17 L1821.11 1670.55 L1973.07 1669.81 L2124.91 1668.70 L2276.88 1667.09 L2428.72 1664.74 L2580.56 1661.27 L2732.52 1656.45 L2884.36 1649.76 L3036.33 1640.61 L3188.17 1628.11 L3340.01 1611.15 L3491.98 1588.75 L3643.82 1559.17 L3795.66 1520.44 L3795.66 1250.66 L3643.82 1371.94 L3491.98 1461.04 L3340.01 1525.64 L3188.17 1571.80 L3036.33 1604.47 L2884.36 1627.12 L2732.52 1642.59 L2580.56 1653.10 L2428.72 1660.03 L2276.88 1664.49 L2124.91 1667.46 L1973.07 1669.19 L1821.11 1670.31 L1669.26 1671.05 L1517.42 1671.42 L1365.46 1671.67 L1213.62 1671.79 L1061.65 1671.79 L909.81 1671.91 L757.97 1671.91 L606.00 1671.91 L606.00 1671.91 Z" stroke-linecap="round" style="fill:#7171FF;stroke:#4D4DFF;stroke-width:3.00"/>
	<path d="M606.00 1671.91 L606.00 1671.91 L757.97 1671.91 L909.81 1671.91 L1061.65 1671.91 L1213.62 1671.79 L1365.46 1671.67 L1517.42 1671.42 L1669.26 1671.17 L1821.11 1670.55 L1973.07 1669.81 L2124.91 1668.57 L2276.88 1666.72 L2428.72 1664.12 L2580.56 1660.16 L2732.52 1654.59 L2884.36 1646.79 L3036.33 1635.78 L3188.17 1620.56 L3340.01 1599.89 L3491.98 1571.80 L3643.82 1534.30 L3795.66 1484.68 L3795.66 1286.42 L3643.82 1396.81 L3491.98 1477.99 L3340.01 1536.90 L3188.17 1579.22 L3036.33 1609.17 L2884.36 1630.09 L2732.52 1644.44 L2580.56 1654.09 L2428.72 1660.65 L2276.88 1664.86 L2124.91 1667.58 L1973.07 1669.32 L1821.11 1670.43 L1669.26 1671.05 L1517.42 1671.42 L1365.46 1671.67 L1213.62 1671.79 L1061.65 1671.79 L909.81 1671.91 L757.97 1671.91 L606.00 1671.91 L606.00 1671.91 Z" stroke-linecap="round" style="fill:#5C5CFF;stroke:#3333FF;stroke-width:3.00"/>
	<path d="M606.00 1671.91 L606.00 1671.91 L757.97 1671.91 L909.81 1671.91 L1061.65 1671.91 L1213.62 1671.79 L1365.46 1671.67 L1517.42 1671.42 L1669.26 1671.05 L1821.11 1670.55 L1973.07 1669.69 L2124.91 1668.45 L2276.88 1666.47 L2428.72 1663.50 L2580.56 1659.17 L2732.52 1652.86 L2884.36 1643.95 L3036.33 1631.20 L3188.17 1613.50 L3340.01 1589.12 L3491.98 1555.71 L3643.82 1510.79 L3795.66 1450.64 L3795.66 1320.33 L3643.82 1420.32 L3491.98 1494.08 L3340.01 1547.67 L3188.17 1586.40 L3036.33 1613.75 L2884.36 1632.93 L2732.52 1646.17 L2580.56 1655.21 L2428.72 1661.27 L2276.88 1665.23 L2124.91 1667.71 L1973.07 1669.44 L1821.11 1670.43 L1669.26 1671.05 L1517.42 1671.42 L1365.46 1671.67 L1213.62 1671.79 L1061.65 1671.79 L909.81 1671.91 L757.97 1671.91 L606.00 1671.91 L606.00 1671.91 Z" stroke-linecap="round" style="fill:#4747FF;stroke:#1919FF;stroke-width:3.00"/>
	<path d="M606.00 1671.91 L606.00 1671.91 L757.97 1671.91 L909.81 1671.91 L1061.65 1671.91 L1213.62 1671.79 L1365.46 1671.67 L1517.42 1671.42 L1669.26 1671.05 L1821.11 1670.55 L1973.07 1669.56 L2124.91 1668.20 L2276.88 1666.10 L2428.72 1662.88 L2580.56 1658.18 L2732.52 1651.25 L2884.36 1641.10 L3036.33 1626.87 L3188.17 1606.70 L3340.01 1578.60 L3491.98 1540.24 L3643.82 1488.02 L3795.66 1417.85 L3795.66 1353.25 L3643.82 1443.09 L3491.98 1509.55 L3340.01 1558.18 L3188.17 1593.21 L3036.33 1618.21 L2884.36 1635.65 L2732.52 1647.91 L2580.56 1656.20 L2428.72 1661.77 L2276.88 1665.48 L2124.91 1667.95 L1973.07 1669.44 L1821.11 1670.43 L1669.26 1671.05 L1517.42 1671.42 L1365.46 1671.67 L1213.62 1671.79 L1061.65 1671.79 L909.81 1671.91 L757.97 1671.91 L606.00 1671.91 L606.00 1671.91 Z" stroke-linecap="round" style="fill:#3333FF;stroke:#0000FF;stroke-width:3.00"/>
	<circle cx="606.00" cy="1672.04" r="22.03" style="fill:#000000;stroke:#000000;stroke-width:8.64"/>
	<circle cx="757.85" cy="1671.91" r="22.03" style="fill:#000000;stroke:#000000;stroke-width:8.64"/>
	<circle cx="909.69" cy="1671.91" r="22.03" style="fill:#000000;stroke:#000000;stroke-width:8.64"/>
	<circle cx="1061.65" cy="1671.79" r="22.03" style="fill:#000000;stroke:#000000;stroke-width:8.64"/>
	<circle cx="1213.49" cy="1671.79" r="22.03" style="fill:#000000;stroke:#000000;stroke-width:8.64"/>
	<circle cx="1365.46" cy="1671.79" r="22.03" style="fill:#000000;stroke:#000000;stroke-width:8.64"/>
	<circle cx="1517.30" cy="1671.67" r="22.03" style="fill:#000000;stroke:#000000;stroke-width:8.64"/>
	<circle cx="1669.14" cy="1671.05" r="22.03" style="fill:#000000;stroke:#000000;stroke-width:8.64"/>
	<line x1="390.80" y1="2489.19" x2="390.80" y2="100.86" style="stroke:#000000;stroke-width:5.76"/>
	<line x1="390.80" y1="2425.82" x2="350.83" y2="2425.82" style="stroke:#000000;stroke-width:5.76"/>
	<text x="300.72" y="2425.82" style="font-family:'Helvetica';font-size:99.99px;fill:#000000" transform="rotate(-90 300.72,2425.82)" text-anchor="middle">-500</text>
	<line x1="390.80" y1="1671.91" x2="350.83" y2="1671.91" style="stroke:#000000;stroke-width:5.76"/>
	<text x="300.72" y="1671.91" style="font-family:'Helvetica';font-size:99.99px;fill:#000000" transform="rotate(-90 300.72,1671.91)" text-anchor="middle">0</text>
	<line x1="390.80" y1="918.01" x2="350.83" y2="918.01" style="stroke:#000000;stroke-width:5.76"/>
	<text x="300.72" y="918.01" style="font-family:'Helvetica';font-size:99.99px;fill:#000000" transform="rotate(-90 300.72,918.01)" text-anchor="middle">500</text>
	<line x1="390.80" y1="164.22" x2="350.83" y2="164.22" style="stroke:#000000;stroke-width:5.76"/>
	<text x="300.72" y="164.22" style="font-family:'Helvetica';font-size:99.99px;fill:#000000" transform="rotate(-90 300.72,164.22)" text-anchor="middle">1000</text>
	<text x="190.71" y="1294.96" style="font-family:'Helvetica';font-size:99.99px;fill:#000000" transform="rotate(-90 190.71,1294.96)" text-anchor="middle">Confirmed cases per 100 beds</text>
	<line x1="390.80" y1="2489.19" x2="3859.02" y2="2489.19" style="stroke:#000000;stroke-width:5.76"/>
	<line x1="454.16" y1="2489.19" x2="454.16" y2="2529.16" style="stroke:#000000;stroke-width:5.76"/>
	<text x="454.16" y="2619.14" style="font-family:'Helvetica';font-size:99.99px;fill:#000000" text-anchor="middle">0</text>
	<line x1="606.00" y1="2489.19" x2="606.00" y2="2529.16" style="stroke:#000000;stroke-width:5.76"/>
	<text x="606.00" y="2619.14" style="font-family:'Helvetica';font-size:99.99px;fill:#000000" text-anchor="middle">1</text>
	<line x1="757.97" y1="2489.19" x2="757.97" y2="2529.16" style="stroke:#000000;stroke-width:5.76"/>
	<text x="757.97" y="2619.14" style="font-family:'Helvetica';font-size:99.99px;fill:#000000" text-anchor="middle">2</text>
	<line x1="909.81" y1="2489.19" x2="909.81" y2="2529.16" style="stroke:#000000;stroke-width:5.76"/>
	<text x="909.81" y="2619.14" style="font-family:'Helvetica';font-size:99.99px;fill:#000000" text-anchor="middle">3</text>
	<line x1="1061.65" y1="2489.19" x2="1061.65" y2="2529.16" style="stroke:#000000;stroke-width:5.76"/>
	<text x="1061.65" y="2619.14" style="font-family:'Helvetica';font-size:99.99px;fill:#000000" text-anchor="middle">4</text>
	<line x1="1213.62" y1="2489.19" x2="1213.62" y2="2529.16" style="stroke:#000000;stroke-width:5.76"/>
	<text x="1213.62" y="2619.14" style="font-family:'Helvetica';font-size:99.99px;fill:#000000" text-anchor="middle">5</text>
	<line x1="1365.46" y1="2489.19" x2="1365.46" y2="2529.16" style="stroke:#000000;stroke-width:5.76"/>
	<text x="1365.46" y="2619.14" style="font-family:'Helvetica';font-size:99.99px;fill:#000000" text-anchor="middle">6</text>
	<line x1="1517.42" y1="2489.19" x2="1517.42" y2="2529.16" style="stroke:#000000;stroke-width:5.76"/>
	<text x="1517.42" y="2619.14" style="font-family:'Helvetica';font-size:99.99px;fill:#000000" text-anchor="middle">7</text>
	<line x1="1669.26" y1="2489.19" x2="1669.26" y2="2529.16" style="stroke:#000000;stroke-width:5.76"/>
	<text x="1669.26" y="2619.14" style="font-family:'Helvetica';font-size:99.99px;fill:#000000" text-anchor="middle">8</text>
	<line x1="1821.11" y1="2489.19" x2="1821.11" y2="2529.16" style="stroke:#000000;stroke-width:5.76"/>
	<text x="1821.11" y="2619.14" style="font-family:'Helvetica';font-size:99.99px;fill:#000000" text-anchor="middle">9</text>
	<line x1="1973.07" y1="2489.19" x2="1973.07" y2="2529.16" style="stroke:#000000;stroke-width:5.76"/>
	<text x="1973.07" y="2619.14" style="font-family:'Helvetica';font-size:99.99px;fill:#000000" text-anchor="middle">10</text>
	<line x1="2124.91" y1="2489.19" x2="2124.91" y2="2529.16" style="stroke:#000000;stroke-width:5.76"/>
	<text x="2124.91" y="2619.14" style="font-family:'Helvetica';font-size:99.99px;fill:#000000" text-anchor="middle">11</text>
	<line x1="2276.88" y1="2489.19" x2="2276.88" y2="2529.16" style="stroke:#000000;stroke-width:5.76"/>
	<text x="2276.88" y="2619.14" style="font-family:'Helvetica';font-size:99.99px;fill:#000000" text-anchor="middle">12</text>
	<line x1="2428.72" y1="2489.19" x2="2428.72" y2="2529.16" style="stroke:#000000;stroke-width:5.76"/>
	<text x="2428.72" y="2619.14" style="font-family:'Helvetica';font-size:99.99px;fill:#000000" text-anchor="middle">13</text>
	<line x1="2580.56" y1="2489.19" x2="2580.56" y2="2529.16" style="stroke:#000000;stroke-width:5.76"/>
	<text x="2580.56" y="2619.14" style="font-family:'Helvetica';font-size:99.99px;fill:#000000" text-anchor="middle">14</text>
	<line x1="2732.52" y1="2489.19" x2="2732.52" y2="2529.16" style="stroke:#000000;stroke-width:5.76"/>
	<text x="2732.52" y="2619.14" style="font-family:'Helvetica';font-size:99.99px;fill:#000000" text-anchor="middle">15</text>
	<line x1="2884.36" y1="2489.19" x2="2884.36" y2="2529.16" style="stroke:#000000;stroke-width:5.76"/>
	<text x="2884.36" y="2619.14" style="font-family:'Helvetica';font-size:99.99px;fill:#000000" text-anchor="middle">16</text>
	<line x1="3036.33" y1="2489.19" x2="3036.33" y2="2529.16" style="stroke:#000000;stroke-width:5.76"/>
	<text x="3036.33" y="2619.14" style="font-family:'Helvetica';font-size:99.99px;fill:#000000" text-anchor="middle">17</text>
	<line x1="3188.17" y1="2489.19" x2="3188.17" y2="2529.16" style="stroke:#000000;stroke-width:5.76"/>
	<text x="3188.17" y="2619.14" style="font-family:'Helvetica';font-size:99.99px;fill:#000000" text-anchor="middle">18</text>
	<line x1="3340.01" y1="2489.19" x2="3340.01" y2="2529.16" style="stroke:#000000;stroke-width:5.76"/>
	<text x="3340.01" y="2619.14" style="font-family:'Helvetica';font-size:99.99px;fill:#000000" text-anchor="middle">19</text>
	<line x1="3491.98" y1="2489.19" x2="3491.98" y2="2529.16" style="stroke:#000000;stroke-width:5.76"/>
	<text x="3491.98" y="2619.14" style="font-family:'Helvetica';font-size:99.99px;fill:#000000" text-anchor="middle">20</text>
	<line x1="3643.82" y1="2489.19" x2="3643.82" y2="2529.16" style="stroke:#000000;stroke-width:5.76"/>
	<text x="3643.82" y="2619.14" style="font-family:'Helvetica';font-size:99.99px;fill:#000000" text-anchor="middle">21</text>
	<line x1="3795.66" y1="2489.19" x2="3795.66" y2="2529.16" style="stroke:#000000;stroke-width:5.76"/>
	<text x="3795.66" y="2619.14" style="font-family:'Helvetica';font-size:99.99px;fill:#000000" text-anchor="middle">22</text>
	<text x="2124.91" y="2729.16" style="font-family:'Helvetica';font-size:99.99px;fill:#000000" text-anchor="middle">Days since 0.01 confirmed cases per 100 beds</text>
</svg>
