<?xml version="1.0" encoding="UTF-8" standalone="no"?>
<!-- This is a Stata 14.2 generated SVG file (http://www.stata.com) -->

<svg version="1.1" width="5.50in" height="4.00in" viewBox="0 0 3960 2880" xmlns="http://www.w3.org/2000/svg">
	<desc>Stata Graph - Graph</desc>
	<line x1="390.80" y1="1747.28" x2="3859.02" y2="1747.28" style="stroke:#FF0000;stroke-width:8.64"/>
	<path d="M606.00 1973.13 L606.00 1973.13 L757.97 1972.76 L909.81 1971.89 L1061.65 1970.41 L1213.62 1968.31 L1365.46 1964.96 L1517.42 1959.89 L1669.26 1952.84 L1821.11 1945.41 L1973.07 1937.37 L2124.91 1929.08 L2276.88 1921.90 L2428.72 1916.95 L2580.56 1916.33 L2732.52 1922.02 L2884.36 1936.50 L3036.33 1962.24 L3188.17 2002.09 L3340.01 2058.40 L3491.98 2133.89 L3643.82 2230.66 L3795.66 2350.58 L3795.66 410.49 L3643.82 688.07 L3491.98 931.00 L3340.01 1140.64 L3188.17 1318.60 L3036.33 1467.23 L2884.36 1589.00 L2732.52 1686.89 L2580.56 1763.86 L2428.72 1823.27 L2276.88 1867.94 L2124.91 1900.86 L1973.07 1924.37 L1821.11 1940.96 L1669.26 1952.22 L1517.42 1958.78 L1365.46 1963.48 L1213.62 1966.94 L1061.65 1969.42 L909.81 1970.90 L757.97 1971.89 L606.00 1972.51 L606.00 1973.13 Z" stroke-linecap="round" style="fill:#EBEBFF;stroke:#E6E6FF;stroke-width:3.00"/>
	<path d="M606.00 1973.01 L606.00 1973.01 L757.97 1972.51 L909.81 1971.52 L1061.65 1970.16 L1213.62 1967.93 L1365.46 1964.47 L1517.42 1959.52 L1669.26 1952.59 L1821.11 1944.17 L1973.07 1933.65 L2124.91 1920.91 L2276.88 1906.30 L2428.72 1889.97 L2580.56 1872.40 L2732.52 1854.08 L2884.36 1836.14 L3036.33 1819.31 L3188.17 1804.83 L3340.01 1793.56 L3491.98 1786.76 L3643.82 1785.40 L3795.66 1790.59 L3795.66 970.35 L3643.82 1133.21 L3491.98 1278.25 L3340.01 1405.60 L3188.17 1515.86 L3036.33 1610.04 L2884.36 1689.24 L2732.52 1754.71 L2580.56 1807.92 L2428.72 1850.37 L2276.88 1883.53 L2124.91 1909.03 L1973.07 1928.09 L1821.11 1942.19 L1669.26 1952.34 L1517.42 1959.15 L1365.46 1963.97 L1213.62 1967.32 L1061.65 1969.67 L909.81 1971.15 L757.97 1972.14 L606.00 1972.76 L606.00 1973.01 Z" stroke-linecap="round" style="fill:#D6D6FF;stroke:#CCCCFF;stroke-width:3.00"/>
	<path d="M606.00 1973.01 L606.00 1973.01 L757.97 1972.39 L909.81 1971.52 L1061.65 1970.04 L1213.62 1967.81 L1365.46 1964.47 L1517.42 1959.52 L1669.26 1952.59 L1821.11 1943.93 L1973.07 1933.04 L2124.91 1919.67 L2276.88 1903.83 L2428.72 1885.51 L2580.56 1865.22 L2732.52 1843.19 L2884.36 1819.92 L3036.33 1796.29 L3188.17 1772.90 L3340.01 1750.75 L3491.98 1730.57 L3643.82 1713.37 L3795.66 1700.01 L3795.66 1060.94 L3643.82 1205.24 L3491.98 1334.31 L3340.01 1448.42 L3188.17 1547.79 L3036.33 1633.18 L2884.36 1705.45 L2732.52 1765.72 L2580.56 1814.97 L2428.72 1854.70 L2276.88 1886.01 L2124.91 1910.26 L1973.07 1928.70 L1821.11 1942.44 L1669.26 1952.34 L1517.42 1959.15 L1365.46 1963.97 L1213.62 1967.44 L1061.65 1969.67 L909.81 1971.28 L757.97 1972.14 L606.00 1972.76 L606.00 1973.01 Z" stroke-linecap="round" style="fill:#C2C2FF;stroke:#B3B3FF;stroke-width:3.00"/>
	<path d="M606.00 1972.88 L606.00 1972.88 L757.97 1972.39 L909.81 1971.52 L1061.65 1970.04 L1213.62 1967.81 L1365.46 1964.47 L1517.42 1959.52 L1669.26 1952.59 L1821.11 1943.80 L1973.07 1932.54 L2124.91 1918.80 L2276.88 1902.10 L2428.72 1882.67 L2580.56 1860.39 L2732.52 1835.76 L2884.36 1809.03 L3036.33 1780.69 L3188.17 1751.36 L3340.01 1721.79 L3491.98 1692.71 L3643.82 1664.86 L3795.66 1638.87 L3795.66 1122.08 L3643.82 1253.87 L3491.98 1372.31 L3340.01 1477.37 L3188.17 1569.32 L3036.33 1648.77 L2884.36 1716.47 L2732.52 1773.15 L2580.56 1819.80 L2428.72 1857.67 L2276.88 1887.74 L2124.91 1911.25 L1973.07 1929.20 L1821.11 1942.56 L1669.26 1952.46 L1517.42 1959.15 L1365.46 1964.10 L1213.62 1967.44 L1061.65 1969.79 L909.81 1971.28 L757.97 1972.14 L606.00 1972.76 L606.00 1972.88 Z" stroke-linecap="round" style="fill:#ADADFF;stroke:#9999FF;stroke-width:3.00"/>
	<path d="M606.00 1972.88 L606.00 1972.88 L757.97 1972.39 L909.81 1971.52 L1061.65 1970.04 L1213.62 1967.81 L1365.46 1964.35 L1517.42 1959.39 L1669.26 1952.59 L1821.11 1943.68 L1973.07 1932.29 L2124.91 1918.06 L2276.88 1900.74 L2428.72 1880.32 L2580.56 1856.56 L2732.52 1829.82 L2884.36 1800.25 L3036.33 1768.32 L3188.17 1734.29 L3340.01 1698.77 L3491.98 1662.63 L3643.82 1626.25 L3795.66 1590.36 L3795.66 1170.59 L3643.82 1292.49 L3491.98 1402.38 L3340.01 1500.27 L3188.17 1586.40 L3036.33 1661.15 L2884.36 1725.13 L2732.52 1778.96 L2580.56 1823.64 L2428.72 1860.02 L2276.88 1889.10 L2124.91 1911.87 L1973.07 1929.45 L1821.11 1942.69 L1669.26 1952.46 L1517.42 1959.27 L1365.46 1964.10 L1213.62 1967.44 L1061.65 1969.79 L909.81 1971.28 L757.97 1972.27 L606.00 1972.76 L606.00 1972.88 Z" stroke-linecap="round" style="fill:#9999FF;stroke:#8080FF;stroke-width:3.00"/>
	<path d="M606.00 1972.88 L606.00 1972.88 L757.97 1972.39 L909.81 1971.40 L1061.65 1970.04 L1213.62 1967.69 L1365.46 1964.35 L1517.42 1959.39 L1669.26 1952.59 L1821.11 1943.55 L1973.07 1932.05 L2124.91 1917.44 L2276.88 1899.62 L2428.72 1878.21 L2580.56 1853.34 L2732.52 1824.75 L2884.36 1792.82 L3036.33 1757.68 L3188.17 1719.56 L3340.01 1679.09 L3491.98 1636.77 L3643.82 1593.08 L3795.66 1548.66 L3795.66 1212.29 L3643.82 1325.65 L3491.98 1428.24 L3340.01 1519.94 L3188.17 1601.13 L3036.33 1671.79 L2884.36 1732.55 L2732.52 1784.04 L2580.56 1826.85 L2428.72 1862.00 L2276.88 1890.22 L2124.91 1912.49 L1973.07 1929.82 L1821.11 1942.81 L1669.26 1952.46 L1517.42 1959.27 L1365.46 1964.10 L1213.62 1967.56 L1061.65 1969.79 L909.81 1971.28 L757.97 1972.27 L606.00 1972.76 L606.00 1972.88 Z" stroke-linecap="round" style="fill:#8585FF;stroke:#6666FF;stroke-width:3.00"/>
	<path d="M606.00 1972.88 L606.00 1972.88 L757.97 1972.39 L909.81 1971.40 L1061.65 1969.91 L1213.62 1967.69 L1365.46 1964.35 L1517.42 1959.39 L1669.26 1952.59 L1821.11 1943.43 L1973.07 1931.80 L2124.91 1916.95 L2276.88 1898.51 L2428.72 1876.48 L2580.56 1850.37 L2732.52 1820.30 L2884.36 1786.14 L3036.33 1748.02 L3188.17 1706.44 L3340.01 1661.40 L3491.98 1613.50 L3643.82 1563.26 L3795.66 1511.28 L3795.66 1249.79 L3643.82 1355.35 L3491.98 1451.39 L3340.01 1537.77 L3188.17 1614.25 L3036.33 1681.32 L2884.36 1739.24 L2732.52 1788.61 L2580.56 1829.82 L2428.72 1863.86 L2276.88 1891.33 L2124.91 1913.11 L1973.07 1930.07 L1821.11 1942.94 L1669.26 1952.46 L1517.42 1959.27 L1365.46 1964.10 L1213.62 1967.56 L1061.65 1969.79 L909.81 1971.28 L757.97 1972.27 L606.00 1972.76 L606.00 1972.88 Z" stroke-linecap="round" style="fill:#7171FF;stroke:#4D4DFF;stroke-width:3.00"/>
	<path d="M606.00 1972.88 L606.00 1972.88 L757.97 1972.39 L909.81 1971.40 L1061.65 1969.91 L1213.62 1967.69 L1365.46 1964.35 L1517.42 1959.39 L1669.26 1952.46 L1821.11 1943.43 L1973.07 1931.55 L2124.91 1916.33 L2276.88 1897.64 L2428.72 1874.75 L2580.56 1847.65 L2732.52 1816.09 L2884.36 1779.95 L3036.33 1739.24 L3188.17 1694.19 L3340.01 1645.06 L3491.98 1592.09 L3643.82 1535.79 L3795.66 1476.51 L3795.66 1284.44 L3643.82 1382.95 L3491.98 1472.92 L3340.01 1554.10 L3188.17 1626.50 L3036.33 1690.23 L2884.36 1745.55 L2732.52 1792.82 L2580.56 1832.55 L2428.72 1865.47 L2276.88 1892.20 L2124.91 1913.61 L1973.07 1930.19 L1821.11 1942.94 L1669.26 1952.46 L1517.42 1959.27 L1365.46 1964.22 L1213.62 1967.56 L1061.65 1969.79 L909.81 1971.28 L757.97 1972.27 L606.00 1972.76 L606.00 1972.88 Z" stroke-linecap="round" style="fill:#5C5CFF;stroke:#3333FF;stroke-width:3.00"/>
	<path d="M606.00 1972.88 L606.00 1972.88 L757.97 1972.27 L909.81 1971.40 L1061.65 1969.91 L1213.62 1967.69 L1365.46 1964.22 L1517.42 1959.39 L1669.26 1952.46 L1821.11 1943.31 L1973.07 1931.30 L2124.91 1915.96 L2276.88 1896.65 L2428.72 1873.14 L2580.56 1845.05 L2732.52 1812.13 L2884.36 1774.01 L3036.33 1730.82 L3188.17 1682.56 L3340.01 1629.47 L3491.98 1571.67 L3643.82 1509.55 L3795.66 1443.71 L3795.66 1317.36 L3643.82 1409.19 L3491.98 1493.34 L3340.01 1569.69 L3188.17 1638.13 L3036.33 1698.65 L2884.36 1751.36 L2732.52 1796.78 L2580.56 1835.15 L2428.72 1867.07 L2276.88 1893.19 L2124.91 1914.10 L1973.07 1930.44 L1821.11 1943.06 L1669.26 1952.46 L1517.42 1959.27 L1365.46 1964.22 L1213.62 1967.56 L1061.65 1969.91 L909.81 1971.40 L757.97 1972.27 L606.00 1972.88 L606.00 1972.88 Z" stroke-linecap="round" style="fill:#4747FF;stroke:#1919FF;stroke-width:3.00"/>
	<path d="M606.00 1972.88 L606.00 1972.88 L757.97 1972.27 L909.81 1971.40 L1061.65 1969.91 L1213.62 1967.69 L1365.46 1964.22 L1517.42 1959.39 L1669.26 1952.46 L1821.11 1943.31 L1973.07 1931.06 L2124.91 1915.46 L2276.88 1895.79 L2428.72 1871.65 L2580.56 1842.57 L2732.52 1808.17 L2884.36 1768.32 L3036.33 1722.65 L3188.17 1671.42 L3340.01 1614.37 L3491.98 1551.87 L3643.82 1484.30 L3795.66 1411.78 L3795.66 1349.16 L3643.82 1434.43 L3491.98 1513.01 L3340.01 1584.79 L3188.17 1649.27 L3036.33 1706.69 L2884.36 1757.06 L2732.52 1800.62 L2580.56 1837.62 L2428.72 1868.56 L2276.88 1894.05 L2124.91 1914.47 L1973.07 1930.68 L1821.11 1943.06 L1669.26 1952.46 L1517.42 1959.27 L1365.46 1964.22 L1213.62 1967.56 L1061.65 1969.91 L909.81 1971.40 L757.97 1972.27 L606.00 1972.88 L606.00 1972.88 Z" stroke-linecap="round" style="fill:#3333FF;stroke:#0000FF;stroke-width:3.00"/>
	<circle cx="606.00" cy="1972.88" r="22.03" style="fill:#000000;stroke:#000000;stroke-width:8.64"/>
	<circle cx="757.85" cy="1972.51" r="22.03" style="fill:#000000;stroke:#000000;stroke-width:8.64"/>
	<circle cx="909.69" cy="1971.15" r="22.03" style="fill:#000000;stroke:#000000;stroke-width:8.64"/>
	<circle cx="1061.65" cy="1969.91" r="22.03" style="fill:#000000;stroke:#000000;stroke-width:8.64"/>
	<circle cx="1213.49" cy="1968.06" r="22.03" style="fill:#000000;stroke:#000000;stroke-width:8.64"/>
	<circle cx="1365.46" cy="1964.10" r="22.03" style="fill:#000000;stroke:#000000;stroke-width:8.64"/>
	<circle cx="1517.30" cy="1959.39" r="22.03" style="fill:#000000;stroke:#000000;stroke-width:8.64"/>
	<circle cx="1669.14" cy="1952.59" r="22.03" style="fill:#000000;stroke:#000000;stroke-width:8.64"/>
	<line x1="390.80" y1="2489.19" x2="390.80" y2="100.86" style="stroke:#000000;stroke-width:5.76"/>
	<line x1="390.80" y1="2425.82" x2="350.83" y2="2425.82" style="stroke:#000000;stroke-width:5.76"/>
	<text x="300.72" y="2425.82" style="font-family:'Helvetica';font-size:99.99px;fill:#000000" transform="rotate(-90 300.72,2425.82)" text-anchor="middle">-20</text>
	<line x1="390.80" y1="1973.50" x2="350.83" y2="1973.50" style="stroke:#000000;stroke-width:5.76"/>
	<text x="300.72" y="1973.50" style="font-family:'Helvetica';font-size:99.99px;fill:#000000" transform="rotate(-90 300.72,1973.50)" text-anchor="middle">0</text>
	<line x1="390.80" y1="1521.18" x2="350.83" y2="1521.18" style="stroke:#000000;stroke-width:5.76"/>
	<text x="300.72" y="1521.18" style="font-family:'Helvetica';font-size:99.99px;fill:#000000" transform="rotate(-90 300.72,1521.18)" text-anchor="middle">20</text>
	<line x1="390.80" y1="1068.86" x2="350.83" y2="1068.86" style="stroke:#000000;stroke-width:5.76"/>
	<text x="300.72" y="1068.86" style="font-family:'Helvetica';font-size:99.99px;fill:#000000" transform="rotate(-90 300.72,1068.86)" text-anchor="middle">40</text>
	<line x1="390.80" y1="616.54" x2="350.83" y2="616.54" style="stroke:#000000;stroke-width:5.76"/>
	<text x="300.72" y="616.54" style="font-family:'Helvetica';font-size:99.99px;fill:#000000" transform="rotate(-90 300.72,616.54)" text-anchor="middle">60</text>
	<line x1="390.80" y1="164.22" x2="350.83" y2="164.22" style="stroke:#000000;stroke-width:5.76"/>
	<text x="300.72" y="164.22" style="font-family:'Helvetica';font-size:99.99px;fill:#000000" transform="rotate(-90 300.72,164.22)" text-anchor="middle">80</text>
	<text x="190.71" y="1294.96" style="font-family:'Helvetica';font-size:99.99px;fill:#000000" transform="rotate(-90 190.71,1294.96)" text-anchor="middle">Confirmed cases per 100 beds</text>
	<line x1="390.80" y1="2489.19" x2="3859.02" y2="2489.19" style="stroke:#000000;stroke-width:5.76"/>
	<line x1="454.16" y1="2489.19" x2="454.16" y2="2529.16" style="stroke:#000000;stroke-width:5.76"/>
	<text x="454.16" y="2619.14" style="font-family:'Helvetica';font-size:99.99px;fill:#000000" text-anchor="middle">0</text>
	<line x1="606.00" y1="2489.19" x2="606.00" y2="2529.16" style="stroke:#000000;stroke-width:5.76"/>
	<text x="606.00" y="2619.14" style="font-family:'Helvetica';font-size:99.99px;fill:#000000" text-anchor="middle">1</text>
	<line x1="757.97" y1="2489.19" x2="757.97" y2="2529.16" style="stroke:#000000;stroke-width:5.76"/>
	<text x="757.97" y="2619.14" style="font-family:'Helvetica';font-size:99.99px;fill:#000000" text-anchor="middle">2</text>
	<line x1="909.81" y1="2489.19" x2="909.81" y2="2529.16" style="stroke:#000000;stroke-width:5.76"/>
	<text x="909.81" y="2619.14" style="font-family:'Helvetica';font-size:99.99px;fill:#000000" text-anchor="middle">3</text>
	<line x1="1061.65" y1="2489.19" x2="1061.65" y2="2529.16" style="stroke:#000000;stroke-width:5.76"/>
	<text x="1061.65" y="2619.14" style="font-family:'Helvetica';font-size:99.99px;fill:#000000" text-anchor="middle">4</text>
	<line x1="1213.62" y1="2489.19" x2="1213.62" y2="2529.16" style="stroke:#000000;stroke-width:5.76"/>
	<text x="1213.62" y="2619.14" style="font-family:'Helvetica';font-size:99.99px;fill:#000000" text-anchor="middle">5</text>
	<line x1="1365.46" y1="2489.19" x2="1365.46" y2="2529.16" style="stroke:#000000;stroke-width:5.76"/>
	<text x="1365.46" y="2619.14" style="font-family:'Helvetica';font-size:99.99px;fill:#000000" text-anchor="middle">6</text>
	<line x1="1517.42" y1="2489.19" x2="1517.42" y2="2529.16" style="stroke:#000000;stroke-width:5.76"/>
	<text x="1517.42" y="2619.14" style="font-family:'Helvetica';font-size:99.99px;fill:#000000" text-anchor="middle">7</text>
	<line x1="1669.26" y1="2489.19" x2="1669.26" y2="2529.16" style="stroke:#000000;stroke-width:5.76"/>
	<text x="1669.26" y="2619.14" style="font-family:'Helvetica';font-size:99.99px;fill:#000000" text-anchor="middle">8</text>
	<line x1="1821.11" y1="2489.19" x2="1821.11" y2="2529.16" style="stroke:#000000;stroke-width:5.76"/>
	<text x="1821.11" y="2619.14" style="font-family:'Helvetica';font-size:99.99px;fill:#000000" text-anchor="middle">9</text>
	<line x1="1973.07" y1="2489.19" x2="1973.07" y2="2529.16" style="stroke:#000000;stroke-width:5.76"/>
	<text x="1973.07" y="2619.14" style="font-family:'Helvetica';font-size:99.99px;fill:#000000" text-anchor="middle">10</text>
	<line x1="2124.91" y1="2489.19" x2="2124.91" y2="2529.16" style="stroke:#000000;stroke-width:5.76"/>
	<text x="2124.91" y="2619.14" style="font-family:'Helvetica';font-size:99.99px;fill:#000000" text-anchor="middle">11</text>
	<line x1="2276.88" y1="2489.19" x2="2276.88" y2="2529.16" style="stroke:#000000;stroke-width:5.76"/>
	<text x="2276.88" y="2619.14" style="font-family:'Helvetica';font-size:99.99px;fill:#000000" text-anchor="middle">12</text>
	<line x1="2428.72" y1="2489.19" x2="2428.72" y2="2529.16" style="stroke:#000000;stroke-width:5.76"/>
	<text x="2428.72" y="2619.14" style="font-family:'Helvetica';font-size:99.99px;fill:#000000" text-anchor="middle">13</text>
	<line x1="2580.56" y1="2489.19" x2="2580.56" y2="2529.16" style="stroke:#000000;stroke-width:5.76"/>
	<text x="2580.56" y="2619.14" style="font-family:'Helvetica';font-size:99.99px;fill:#000000" text-anchor="middle">14</text>
	<line x1="2732.52" y1="2489.19" x2="2732.52" y2="2529.16" style="stroke:#000000;stroke-width:5.76"/>
	<text x="2732.52" y="2619.14" style="font-family:'Helvetica';font-size:99.99px;fill:#000000" text-anchor="middle">15</text>
	<line x1="2884.36" y1="2489.19" x2="2884.36" y2="2529.16" style="stroke:#000000;stroke-width:5.76"/>
	<text x="2884.36" y="2619.14" style="font-family:'Helvetica';font-size:99.99px;fill:#000000" text-anchor="middle">16</text>
	<line x1="3036.33" y1="2489.19" x2="3036.33" y2="2529.16" style="stroke:#000000;stroke-width:5.76"/>
	<text x="3036.33" y="2619.14" style="font-family:'Helvetica';font-size:99.99px;fill:#000000" text-anchor="middle">17</text>
	<line x1="3188.17" y1="2489.19" x2="3188.17" y2="2529.16" style="stroke:#000000;stroke-width:5.76"/>
	<text x="3188.17" y="2619.14" style="font-family:'Helvetica';font-size:99.99px;fill:#000000" text-anchor="middle">18</text>
	<line x1="3340.01" y1="2489.19" x2="3340.01" y2="2529.16" style="stroke:#000000;stroke-width:5.76"/>
	<text x="3340.01" y="2619.14" style="font-family:'Helvetica';font-size:99.99px;fill:#000000" text-anchor="middle">19</text>
	<line x1="3491.98" y1="2489.19" x2="3491.98" y2="2529.16" style="stroke:#000000;stroke-width:5.76"/>
	<text x="3491.98" y="2619.14" style="font-family:'Helvetica';font-size:99.99px;fill:#000000" text-anchor="middle">20</text>
	<line x1="3643.82" y1="2489.19" x2="3643.82" y2="2529.16" style="stroke:#000000;stroke-width:5.76"/>
	<text x="3643.82" y="2619.14" style="font-family:'Helvetica';font-size:99.99px;fill:#000000" text-anchor="middle">21</text>
	<line x1="3795.66" y1="2489.19" x2="3795.66" y2="2529.16" style="stroke:#000000;stroke-width:5.76"/>
	<text x="3795.66" y="2619.14" style="font-family:'Helvetica';font-size:99.99px;fill:#000000" text-anchor="middle">22</text>
	<text x="2124.91" y="2729.16" style="font-family:'Helvetica';font-size:99.99px;fill:#000000" text-anchor="middle">Days since 0.01 confirmed cases per 100 beds</text>
</svg>
