<?xml version="1.0" encoding="UTF-8" standalone="no"?>
<!-- This is a Stata 14.2 generated SVG file (http://www.stata.com) -->

<svg version="1.1" width="5.50in" height="4.00in" viewBox="0 0 3960 2880" xmlns="http://www.w3.org/2000/svg">
	<desc>Stata Graph - Graph</desc>
	<line x1="390.80" y1="1861.88" x2="3859.02" y2="1861.88" style="stroke:#FF0000;stroke-width:8.64"/>
	<path d="M537.69 2425.82 L537.69 2425.82 L621.23 2425.82 L704.76 2425.82 L788.29 2425.82 L871.82 2425.58 L955.35 2425.33 L1038.88 2424.59 L1122.41 2423.60 L1205.94 2421.86 L1289.47 2419.39 L1373.13 2415.92 L1456.66 2411.22 L1540.19 2405.16 L1623.72 2397.61 L1707.26 2388.33 L1790.79 2376.57 L1874.32 2361.72 L1957.85 2343.03 L2041.38 2319.39 L2124.91 2291.30 L2208.44 2264.45 L2291.97 2237.22 L2375.51 2209.50 L2459.04 2182.28 L2542.57 2156.53 L2626.22 2133.89 L2709.75 2115.82 L2793.28 2104.19 L2876.82 2100.85 L2960.35 2107.65 L3043.88 2126.83 L3127.41 2160.50 L3210.94 2210.49 L3294.47 2278.93 L3294.47 164.22 L3210.94 486.48 L3127.41 774.20 L3043.88 1029.01 L2960.35 1253.13 L2876.82 1448.54 L2793.28 1617.34 L2709.75 1762.01 L2626.22 1884.90 L2542.57 1988.23 L2459.04 2074.36 L2375.51 2145.40 L2291.97 2203.56 L2208.44 2250.46 L2124.91 2287.10 L2041.38 2312.84 L1957.85 2334.25 L1874.32 2352.81 L1790.79 2368.65 L1707.26 2381.77 L1623.72 2392.16 L1540.19 2400.21 L1456.66 2406.39 L1373.13 2410.97 L1289.47 2414.44 L1205.94 2417.16 L1122.41 2419.26 L1038.88 2421.00 L955.35 2422.23 L871.82 2423.10 L788.29 2423.84 L704.76 2424.46 L621.23 2424.83 L537.69 2425.08 L537.69 2425.82 Z" stroke-linecap="round" style="fill:#EBEBFF;stroke:#E6E6FF;stroke-width:3.00"/>
	<path d="M537.69 2425.58 L537.69 2425.58 L621.23 2425.58 L704.76 2425.45 L788.29 2425.20 L871.82 2424.96 L955.35 2424.34 L1038.88 2423.60 L1122.41 2422.36 L1205.94 2420.50 L1289.47 2418.03 L1373.13 2414.44 L1456.66 2409.86 L1540.19 2403.80 L1623.72 2396.12 L1707.26 2386.35 L1790.79 2374.34 L1874.32 2359.24 L1957.85 2340.43 L2041.38 2317.41 L2124.91 2290.07 L2208.44 2260.36 L2291.97 2227.57 L2375.51 2191.06 L2459.04 2151.09 L2542.57 2108.02 L2626.22 2061.99 L2709.75 2013.72 L2793.28 1963.73 L2876.82 1912.49 L2960.35 1861.01 L3043.88 1810.02 L3127.41 1760.40 L3210.94 1712.88 L3294.47 1668.57 L3294.47 774.58 L3210.94 983.97 L3127.41 1174.30 L3043.88 1345.95 L2960.35 1499.77 L2876.82 1636.77 L2793.28 1757.92 L2709.75 1864.10 L2626.22 1956.80 L2542.57 2036.86 L2459.04 2105.55 L2375.51 2163.96 L2291.97 2213.21 L2208.44 2254.55 L2124.91 2288.33 L2041.38 2314.69 L1957.85 2336.72 L1874.32 2355.41 L1790.79 2371.00 L1707.26 2383.62 L1623.72 2393.77 L1540.19 2401.69 L1456.66 2407.76 L1373.13 2412.33 L1289.47 2415.92 L1205.94 2418.52 L1122.41 2420.50 L1038.88 2421.99 L955.35 2423.10 L871.82 2423.84 L788.29 2424.46 L704.76 2424.83 L621.23 2425.08 L537.69 2425.33 L537.69 2425.58 Z" stroke-linecap="round" style="fill:#D6D6FF;stroke:#CCCCFF;stroke-width:3.00"/>
	<path d="M537.69 2425.58 L537.69 2425.58 L621.23 2425.45 L704.76 2425.33 L788.29 2425.20 L871.82 2424.83 L955.35 2424.21 L1038.88 2423.35 L1122.41 2422.11 L1205.94 2420.25 L1289.47 2417.78 L1373.13 2414.31 L1456.66 2409.61 L1540.19 2403.55 L1623.72 2395.87 L1707.26 2386.10 L1790.79 2373.97 L1874.32 2358.75 L1957.85 2340.06 L2041.38 2317.17 L2124.91 2289.82 L2208.44 2259.75 L2291.97 2225.96 L2375.51 2188.09 L2459.04 2146.02 L2542.57 2100.10 L2626.22 2050.35 L2709.75 1997.26 L2793.28 1940.96 L2876.82 1882.05 L2960.35 1821.16 L3043.88 1758.79 L3127.41 1695.68 L3210.94 1632.44 L3294.47 1569.82 L3294.47 873.21 L3210.94 1064.53 L3127.41 1239.02 L3043.88 1397.18 L2960.35 1539.62 L2876.82 1667.21 L2793.28 1780.57 L2709.75 1880.69 L2626.22 1968.43 L2542.57 2044.66 L2459.04 2110.50 L2375.51 2166.93 L2291.97 2214.82 L2208.44 2255.17 L2124.91 2288.46 L2041.38 2315.06 L1957.85 2337.22 L1874.32 2355.78 L1790.79 2371.37 L1707.26 2383.99 L1623.72 2394.02 L1540.19 2401.94 L1456.66 2408.00 L1373.13 2412.58 L1289.47 2416.17 L1205.94 2418.77 L1122.41 2420.75 L1038.88 2422.23 L955.35 2423.22 L871.82 2423.97 L788.29 2424.46 L704.76 2424.83 L621.23 2425.20 L537.69 2425.33 L537.69 2425.58 Z" stroke-linecap="round" style="fill:#C2C2FF;stroke:#B3B3FF;stroke-width:3.00"/>
	<path d="M537.69 2425.58 L537.69 2425.58 L621.23 2425.45 L704.76 2425.33 L788.29 2425.08 L871.82 2424.71 L955.35 2424.09 L1038.88 2423.22 L1122.41 2421.99 L1205.94 2420.13 L1289.47 2417.66 L1373.13 2414.07 L1456.66 2409.49 L1540.19 2403.42 L1623.72 2395.63 L1707.26 2385.85 L1790.79 2373.72 L1874.32 2358.50 L1957.85 2339.81 L2041.38 2316.92 L2124.91 2289.69 L2208.44 2259.37 L2291.97 2224.85 L2375.51 2185.99 L2459.04 2142.67 L2542.57 2094.78 L2626.22 2042.56 L2709.75 1986.13 L2793.28 1925.61 L2876.82 1861.51 L2960.35 1794.18 L3043.88 1724.26 L3127.41 1651.99 L3210.94 1578.11 L3294.47 1503.24 L3294.47 939.91 L3210.94 1118.86 L3127.41 1282.71 L3043.88 1431.71 L2960.35 1566.60 L2876.82 1687.76 L2793.28 1795.92 L2709.75 1891.83 L2626.22 1976.23 L2542.57 2049.98 L2459.04 2113.96 L2375.51 2168.91 L2291.97 2215.94 L2208.44 2255.54 L2124.91 2288.70 L2041.38 2315.19 L1957.85 2337.46 L1874.32 2356.15 L1790.79 2371.62 L1707.26 2384.12 L1623.72 2394.14 L1540.19 2402.06 L1456.66 2408.13 L1373.13 2412.83 L1289.47 2416.29 L1205.94 2418.89 L1122.41 2420.87 L1038.88 2422.36 L955.35 2423.35 L871.82 2424.09 L788.29 2424.59 L704.76 2424.96 L621.23 2425.20 L537.69 2425.33 L537.69 2425.58 Z" stroke-linecap="round" style="fill:#ADADFF;stroke:#9999FF;stroke-width:3.00"/>
	<path d="M537.69 2425.45 L537.69 2425.45 L621.23 2425.45 L704.76 2425.33 L788.29 2425.08 L871.82 2424.71 L955.35 2424.09 L1038.88 2423.22 L1122.41 2421.86 L1205.94 2420.01 L1289.47 2417.53 L1373.13 2413.94 L1456.66 2409.36 L1540.19 2403.30 L1623.72 2395.50 L1707.26 2385.73 L1790.79 2373.48 L1874.32 2358.25 L1957.85 2339.57 L2041.38 2316.80 L2124.91 2289.69 L2208.44 2259.00 L2291.97 2223.98 L2375.51 2184.38 L2459.04 2139.95 L2542.57 2090.57 L2626.22 2036.37 L2709.75 1977.22 L2793.28 1913.48 L2876.82 1845.17 L2960.35 1772.90 L3043.88 1696.67 L3127.41 1617.22 L3210.94 1534.92 L3294.47 1450.27 L3294.47 992.88 L3210.94 1162.05 L3127.41 1317.36 L3043.88 1459.18 L2960.35 1588.01 L2876.82 1704.09 L2793.28 1808.17 L2709.75 1900.74 L2626.22 1982.41 L2542.57 2054.19 L2459.04 2116.69 L2375.51 2170.52 L2291.97 2216.68 L2208.44 2255.91 L2124.91 2288.70 L2041.38 2315.31 L1957.85 2337.71 L1874.32 2356.40 L1790.79 2371.74 L1707.26 2384.37 L1623.72 2394.39 L1540.19 2402.19 L1456.66 2408.25 L1373.13 2412.95 L1289.47 2416.42 L1205.94 2419.02 L1122.41 2421.00 L1038.88 2422.36 L955.35 2423.35 L871.82 2424.09 L788.29 2424.59 L704.76 2424.96 L621.23 2425.20 L537.69 2425.33 L537.69 2425.45 Z" stroke-linecap="round" style="fill:#9999FF;stroke:#8080FF;stroke-width:3.00"/>
	<path d="M537.69 2425.45 L537.69 2425.45 L621.23 2425.45 L704.76 2425.20 L788.29 2424.96 L871.82 2424.59 L955.35 2423.97 L1038.88 2423.10 L1122.41 2421.74 L1205.94 2420.01 L1289.47 2417.41 L1373.13 2413.82 L1456.66 2409.24 L1540.19 2403.18 L1623.72 2395.38 L1707.26 2385.60 L1790.79 2373.35 L1874.32 2358.13 L1957.85 2339.44 L2041.38 2316.67 L2124.91 2289.57 L2208.44 2258.63 L2291.97 2223.36 L2375.51 2183.02 L2459.04 2137.60 L2542.57 2086.99 L2626.22 2031.05 L2709.75 1969.67 L2793.28 1902.96 L2876.82 1831.19 L2960.35 1754.46 L3043.88 1673.15 L3127.41 1587.51 L3210.94 1497.92 L3294.47 1404.85 L3294.47 1038.29 L3210.94 1199.05 L3127.41 1347.18 L3043.88 1482.82 L2960.35 1606.33 L2876.82 1718.07 L2793.28 1818.56 L2709.75 1908.28 L2626.22 1987.86 L2542.57 2057.78 L2459.04 2118.91 L2375.51 2171.88 L2291.97 2217.42 L2208.44 2256.28 L2124.91 2288.83 L2041.38 2315.56 L1957.85 2337.83 L1874.32 2356.52 L1790.79 2371.99 L1707.26 2384.49 L1623.72 2394.51 L1540.19 2402.31 L1456.66 2408.37 L1373.13 2412.95 L1289.47 2416.54 L1205.94 2419.14 L1122.41 2421.12 L1038.88 2422.48 L955.35 2423.47 L871.82 2424.21 L788.29 2424.71 L704.76 2424.96 L621.23 2425.20 L537.69 2425.33 L537.69 2425.45 Z" stroke-linecap="round" style="fill:#8585FF;stroke:#6666FF;stroke-width:3.00"/>
	<path d="M537.69 2425.45 L537.69 2425.45 L621.23 2425.33 L704.76 2425.20 L788.29 2424.96 L871.82 2424.59 L955.35 2423.97 L1038.88 2422.98 L1122.41 2421.74 L1205.94 2419.88 L1289.47 2417.28 L1373.13 2413.82 L1456.66 2409.12 L1540.19 2403.05 L1623.72 2395.26 L1707.26 2385.48 L1790.79 2373.10 L1874.32 2357.88 L1957.85 2339.20 L2041.38 2316.55 L2124.91 2289.45 L2208.44 2258.38 L2291.97 2222.62 L2375.51 2181.78 L2459.04 2135.62 L2542.57 2083.77 L2626.22 2026.22 L2709.75 1962.86 L2793.28 1893.56 L2876.82 1818.56 L2960.35 1738.00 L3043.88 1651.99 L3127.41 1560.78 L3210.94 1464.63 L3294.47 1364.14 L3294.47 1079.01 L3210.94 1232.22 L3127.41 1373.92 L3043.88 1503.98 L2960.35 1622.78 L2876.82 1730.70 L2793.28 1827.97 L2709.75 1915.09 L2626.22 1992.56 L2542.57 2061.12 L2459.04 2121.02 L2375.51 2173.12 L2291.97 2218.16 L2208.44 2256.53 L2124.91 2288.95 L2041.38 2315.68 L1957.85 2338.08 L1874.32 2356.77 L1790.79 2372.11 L1707.26 2384.61 L1623.72 2394.51 L1540.19 2402.43 L1456.66 2408.50 L1373.13 2413.08 L1289.47 2416.67 L1205.94 2419.26 L1122.41 2421.12 L1038.88 2422.48 L955.35 2423.47 L871.82 2424.21 L788.29 2424.71 L704.76 2425.08 L621.23 2425.20 L537.69 2425.33 L537.69 2425.45 Z" stroke-linecap="round" style="fill:#7171FF;stroke:#4D4DFF;stroke-width:3.00"/>
	<path d="M537.69 2425.45 L537.69 2425.45 L621.23 2425.33 L704.76 2425.20 L788.29 2424.96 L871.82 2424.46 L955.35 2423.84 L1038.88 2422.98 L1122.41 2421.62 L1205.94 2419.76 L1289.47 2417.16 L1373.13 2413.70 L1456.66 2408.99 L1540.19 2402.93 L1623.72 2395.13 L1707.26 2385.36 L1790.79 2372.98 L1874.32 2357.76 L1957.85 2339.07 L2041.38 2316.42 L2124.91 2289.45 L2208.44 2258.14 L2291.97 2222.00 L2375.51 2180.67 L2459.04 2133.64 L2542.57 2080.80 L2626.22 2021.77 L2709.75 1956.42 L2793.28 1884.90 L2876.82 1806.93 L2960.35 1722.78 L3043.88 1632.31 L3127.41 1535.91 L3210.94 1433.81 L3294.47 1326.27 L3294.47 1116.88 L3210.94 1263.16 L3127.41 1398.67 L3043.88 1523.66 L2960.35 1638.13 L2876.82 1742.33 L2793.28 1836.63 L2709.75 1921.40 L2626.22 1997.02 L2542.57 2064.09 L2459.04 2123.00 L2375.51 2174.36 L2291.97 2218.66 L2208.44 2256.78 L2124.91 2288.95 L2041.38 2315.81 L1957.85 2338.21 L1874.32 2356.89 L1790.79 2372.24 L1707.26 2384.74 L1623.72 2394.64 L1540.19 2402.43 L1456.66 2408.50 L1373.13 2413.20 L1289.47 2416.67 L1205.94 2419.26 L1122.41 2421.24 L1038.88 2422.61 L955.35 2423.60 L871.82 2424.21 L788.29 2424.71 L704.76 2425.08 L621.23 2425.20 L537.69 2425.45 L537.69 2425.45 Z" stroke-linecap="round" style="fill:#5C5CFF;stroke:#3333FF;stroke-width:3.00"/>
	<path d="M537.69 2425.45 L537.69 2425.45 L621.23 2425.33 L704.76 2425.20 L788.29 2424.96 L871.82 2424.46 L955.35 2423.84 L1038.88 2422.85 L1122.41 2421.62 L1205.94 2419.64 L1289.47 2417.16 L1373.13 2413.57 L1456.66 2408.99 L1540.19 2402.93 L1623.72 2395.13 L1707.26 2385.23 L1790.79 2372.86 L1874.32 2357.63 L1957.85 2338.95 L2041.38 2316.30 L2124.91 2289.32 L2208.44 2257.89 L2291.97 2221.51 L2375.51 2179.55 L2459.04 2131.78 L2542.57 2077.83 L2626.22 2017.56 L2709.75 1950.48 L2793.28 1876.60 L2876.82 1795.92 L2960.35 1708.30 L3043.88 1613.75 L3127.41 1512.40 L3210.94 1404.61 L3294.47 1290.38 L3294.47 1152.77 L3210.94 1292.36 L3127.41 1422.18 L3043.88 1542.22 L2960.35 1652.61 L2876.82 1753.47 L2793.28 1844.92 L2709.75 1927.47 L2626.22 2001.35 L2542.57 2066.94 L2459.04 2124.73 L2375.51 2175.35 L2291.97 2219.28 L2208.44 2257.02 L2124.91 2289.08 L2041.38 2315.81 L1957.85 2338.33 L1874.32 2357.02 L1790.79 2372.36 L1707.26 2384.86 L1623.72 2394.76 L1540.19 2402.56 L1456.66 2408.62 L1373.13 2413.32 L1289.47 2416.79 L1205.94 2419.39 L1122.41 2421.24 L1038.88 2422.73 L955.35 2423.60 L871.82 2424.34 L788.29 2424.83 L704.76 2425.08 L621.23 2425.33 L537.69 2425.45 L537.69 2425.45 Z" stroke-linecap="round" style="fill:#4747FF;stroke:#1919FF;stroke-width:3.00"/>
	<path d="M537.69 2425.45 L537.69 2425.45 L621.23 2425.33 L704.76 2425.20 L788.29 2424.83 L871.82 2424.46 L955.35 2423.84 L1038.88 2422.85 L1122.41 2421.49 L1205.94 2419.64 L1289.47 2417.04 L1373.13 2413.57 L1456.66 2408.87 L1540.19 2402.81 L1623.72 2395.01 L1707.26 2385.11 L1790.79 2372.73 L1874.32 2357.51 L1957.85 2338.82 L2041.38 2316.18 L2124.91 2289.20 L2208.44 2257.64 L2291.97 2220.89 L2375.51 2178.56 L2459.04 2130.05 L2542.57 2075.10 L2626.22 2013.48 L2709.75 1944.67 L2793.28 1868.68 L2876.82 1785.15 L2960.35 1694.19 L3043.88 1595.68 L3127.41 1489.75 L3210.94 1376.27 L3294.47 1255.73 L3294.47 1187.42 L3210.94 1320.58 L3127.41 1444.95 L3043.88 1560.29 L2960.35 1666.59 L2876.82 1764.11 L2793.28 1852.97 L2709.75 1933.28 L2626.22 2005.43 L2542.57 2069.66 L2459.04 2126.59 L2375.51 2176.46 L2291.97 2219.90 L2208.44 2257.27 L2124.91 2289.08 L2041.38 2315.93 L1957.85 2338.45 L1874.32 2357.14 L1790.79 2372.49 L1707.26 2384.86 L1623.72 2394.88 L1540.19 2402.68 L1456.66 2408.75 L1373.13 2413.32 L1289.47 2416.91 L1205.94 2419.51 L1122.41 2421.37 L1038.88 2422.73 L955.35 2423.72 L871.82 2424.34 L788.29 2424.83 L704.76 2425.08 L621.23 2425.33 L537.69 2425.45 L537.69 2425.45 Z" stroke-linecap="round" style="fill:#3333FF;stroke:#0000FF;stroke-width:3.00"/>
	<circle cx="537.57" cy="2425.08" r="22.03" style="fill:#000000;stroke:#000000;stroke-width:8.64"/>
	<circle cx="621.10" cy="2424.83" r="22.03" style="fill:#000000;stroke:#000000;stroke-width:8.64"/>
	<circle cx="704.76" cy="2424.46" r="22.03" style="fill:#000000;stroke:#000000;stroke-width:8.64"/>
	<circle cx="788.29" cy="2424.21" r="22.03" style="fill:#000000;stroke:#000000;stroke-width:8.64"/>
	<circle cx="871.82" cy="2423.72" r="22.03" style="fill:#000000;stroke:#000000;stroke-width:8.64"/>
	<circle cx="955.35" cy="2423.22" r="22.03" style="fill:#000000;stroke:#000000;stroke-width:8.64"/>
	<circle cx="1038.88" cy="2422.23" r="22.03" style="fill:#000000;stroke:#000000;stroke-width:8.64"/>
	<circle cx="1122.41" cy="2419.51" r="22.03" style="fill:#000000;stroke:#000000;stroke-width:8.64"/>
	<circle cx="1205.94" cy="2417.53" r="22.03" style="fill:#000000;stroke:#000000;stroke-width:8.64"/>
	<circle cx="1289.47" cy="2417.28" r="22.03" style="fill:#000000;stroke:#000000;stroke-width:8.64"/>
	<circle cx="1373.01" cy="2414.81" r="22.03" style="fill:#000000;stroke:#000000;stroke-width:8.64"/>
	<circle cx="1456.54" cy="2410.60" r="22.03" style="fill:#000000;stroke:#000000;stroke-width:8.64"/>
	<circle cx="1540.07" cy="2405.28" r="22.03" style="fill:#000000;stroke:#000000;stroke-width:8.64"/>
	<circle cx="1623.60" cy="2395.75" r="22.03" style="fill:#000000;stroke:#000000;stroke-width:8.64"/>
	<circle cx="1707.13" cy="2383.99" r="22.03" style="fill:#000000;stroke:#000000;stroke-width:8.64"/>
	<circle cx="1790.66" cy="2371.50" r="22.03" style="fill:#000000;stroke:#000000;stroke-width:8.64"/>
	<circle cx="1874.19" cy="2354.54" r="22.03" style="fill:#000000;stroke:#000000;stroke-width:8.64"/>
	<circle cx="1957.85" cy="2341.55" r="22.03" style="fill:#000000;stroke:#000000;stroke-width:8.64"/>
	<circle cx="2041.38" cy="2315.43" r="22.03" style="fill:#000000;stroke:#000000;stroke-width:8.64"/>
	<circle cx="2124.91" cy="2289.45" r="22.03" style="fill:#000000;stroke:#000000;stroke-width:8.64"/>
	<line x1="390.80" y1="2489.19" x2="390.80" y2="100.86" style="stroke:#000000;stroke-width:5.76"/>
	<line x1="390.80" y1="2425.58" x2="350.83" y2="2425.58" style="stroke:#000000;stroke-width:5.76"/>
	<text x="300.72" y="2425.58" style="font-family:'Helvetica';font-size:99.99px;fill:#000000" transform="rotate(-90 300.72,2425.58)" text-anchor="middle">0</text>
	<line x1="390.80" y1="1861.88" x2="350.83" y2="1861.88" style="stroke:#000000;stroke-width:5.76"/>
	<text x="300.72" y="1861.88" style="font-family:'Helvetica';font-size:99.99px;fill:#000000" transform="rotate(-90 300.72,1861.88)" text-anchor="middle">10</text>
	<line x1="390.80" y1="1298.18" x2="350.83" y2="1298.18" style="stroke:#000000;stroke-width:5.76"/>
	<text x="300.72" y="1298.18" style="font-family:'Helvetica';font-size:99.99px;fill:#000000" transform="rotate(-90 300.72,1298.18)" text-anchor="middle">20</text>
	<line x1="390.80" y1="734.36" x2="350.83" y2="734.36" style="stroke:#000000;stroke-width:5.76"/>
	<text x="300.72" y="734.36" style="font-family:'Helvetica';font-size:99.99px;fill:#000000" transform="rotate(-90 300.72,734.36)" text-anchor="middle">30</text>
	<line x1="390.80" y1="170.66" x2="350.83" y2="170.66" style="stroke:#000000;stroke-width:5.76"/>
	<text x="300.72" y="170.66" style="font-family:'Helvetica';font-size:99.99px;fill:#000000" transform="rotate(-90 300.72,170.66)" text-anchor="middle">40</text>
	<text x="190.71" y="1294.96" style="font-family:'Helvetica';font-size:99.99px;fill:#000000" transform="rotate(-90 190.71,1294.96)" text-anchor="middle">Confirmed cases per 100 beds</text>
	<line x1="390.80" y1="2489.19" x2="3859.02" y2="2489.19" style="stroke:#000000;stroke-width:5.76"/>
	<line x1="454.16" y1="2489.19" x2="454.16" y2="2529.16" style="stroke:#000000;stroke-width:5.76"/>
	<text x="454.16" y="2619.14" style="font-family:'Helvetica';font-size:99.99px;fill:#000000" text-anchor="middle">0</text>
	<line x1="1289.47" y1="2489.19" x2="1289.47" y2="2529.16" style="stroke:#000000;stroke-width:5.76"/>
	<text x="1289.47" y="2619.14" style="font-family:'Helvetica';font-size:99.99px;fill:#000000" text-anchor="middle">10</text>
	<line x1="2124.91" y1="2489.19" x2="2124.91" y2="2529.16" style="stroke:#000000;stroke-width:5.76"/>
	<text x="2124.91" y="2619.14" style="font-family:'Helvetica';font-size:99.99px;fill:#000000" text-anchor="middle">20</text>
	<line x1="2960.35" y1="2489.19" x2="2960.35" y2="2529.16" style="stroke:#000000;stroke-width:5.76"/>
	<text x="2960.35" y="2619.14" style="font-family:'Helvetica';font-size:99.99px;fill:#000000" text-anchor="middle">30</text>
	<line x1="3795.66" y1="2489.19" x2="3795.66" y2="2529.16" style="stroke:#000000;stroke-width:5.76"/>
	<text x="3795.66" y="2619.14" style="font-family:'Helvetica';font-size:99.99px;fill:#000000" text-anchor="middle">40</text>
	<text x="2124.91" y="2729.16" style="font-family:'Helvetica';font-size:99.99px;fill:#000000" text-anchor="middle">Days since 0.01 confirmed cases per 100 beds</text>
</svg>
