<?xml version="1.0" encoding="UTF-8" standalone="no"?>
<!-- This is a Stata 14.2 generated SVG file (http://www.stata.com) -->

<svg version="1.1" width="5.50in" height="4.00in" viewBox="0 0 3960 2880" xmlns="http://www.w3.org/2000/svg">
	<desc>Stata Graph - Graph</desc>
	<line x1="390.80" y1="-401.21" x2="3859.02" y2="-401.21" style="stroke:#FF0000;stroke-width:8.64"/>
	<path d="M508.86 2425.82 L508.86 2425.82 L563.68 2425.82 L618.50 2425.82 L673.20 2425.82 L728.02 2425.82 L782.84 2425.82 L837.54 2425.82 L892.36 2425.82 L947.18 2425.82 L1001.88 2425.82 L1056.70 2425.82 L1111.52 2425.82 L1166.22 2425.82 L1221.04 2425.82 L1275.86 2425.82 L1330.56 2425.82 L1385.38 2425.82 L1440.20 2425.82 L1494.90 2425.70 L1549.72 2425.70 L1604.54 2425.70 L1659.24 2425.58 L1714.06 2425.45 L1768.88 2425.33 L1823.58 2425.08 L1878.40 2424.83 L1933.22 2424.46 L1987.92 2424.09 L2042.74 2423.47 L2097.56 2422.73 L2152.26 2421.74 L2207.08 2420.50 L2261.90 2418.89 L2316.60 2416.91 L2371.42 2414.44 L2426.24 2411.22 L2480.94 2407.38 L2535.76 2402.43 L2590.58 2396.37 L2645.28 2388.94 L2700.10 2379.91 L2754.92 2368.90 L2809.62 2355.78 L2864.44 2340.43 L2919.26 2323.11 L2973.96 2303.31 L3028.78 2280.78 L3083.60 2255.04 L3138.30 2225.34 L3193.12 2191.19 L3247.94 2151.96 L3302.64 2106.91 L3357.46 2055.18 L3412.28 1996.03 L3466.98 1928.33 L3521.80 1851.23 L3576.62 1763.49 L3631.32 1663.62 L3686.14 1550.39 L3740.96 1422.06 L3795.66 1277.02 L3795.66 205.06 L3740.96 549.22 L3686.14 843.51 L3631.32 1094.60 L3576.62 1308.45 L3521.80 1490.12 L3466.98 1644.07 L3412.28 1774.14 L3357.46 1884.03 L3302.64 1976.35 L3247.94 2053.82 L3193.12 2118.79 L3138.30 2172.87 L3083.60 2217.79 L3028.78 2255.04 L2973.96 2285.61 L2919.26 2310.48 L2864.44 2330.53 L2809.62 2346.50 L2754.92 2359.61 L2700.10 2370.38 L2645.28 2379.42 L2590.58 2387.09 L2535.76 2393.40 L2480.94 2398.84 L2426.24 2403.42 L2371.42 2407.26 L2316.60 2410.48 L2261.90 2413.08 L2207.08 2415.30 L2152.26 2417.28 L2097.56 2418.77 L2042.74 2420.13 L1987.92 2421.12 L1933.22 2421.99 L1878.40 2422.73 L1823.58 2423.35 L1768.88 2423.84 L1714.06 2424.21 L1659.24 2424.59 L1604.54 2424.83 L1549.72 2424.96 L1494.90 2425.20 L1440.20 2425.33 L1385.38 2425.45 L1330.56 2425.45 L1275.86 2425.58 L1221.04 2425.70 L1166.22 2425.70 L1111.52 2425.70 L1056.70 2425.70 L1001.88 2425.82 L947.18 2425.82 L892.36 2425.82 L837.54 2425.82 L782.84 2425.82 L728.02 2425.82 L673.20 2425.82 L618.50 2425.82 L563.68 2425.82 L508.86 2425.82 L508.86 2425.82 Z" stroke-linecap="round" style="fill:#EBEBFF;stroke:#E6E6FF;stroke-width:3.00"/>
	<path d="M508.86 2425.82 L508.86 2425.82 L563.68 2425.82 L618.50 2425.82 L673.20 2425.82 L728.02 2425.82 L782.84 2425.82 L837.54 2425.82 L892.36 2425.82 L947.18 2425.82 L1001.88 2425.82 L1056.70 2425.82 L1111.52 2425.82 L1166.22 2425.82 L1221.04 2425.82 L1275.86 2425.70 L1330.56 2425.70 L1385.38 2425.70 L1440.20 2425.70 L1494.90 2425.58 L1549.72 2425.45 L1604.54 2425.45 L1659.24 2425.33 L1714.06 2425.08 L1768.88 2424.83 L1823.58 2424.59 L1878.40 2424.21 L1933.22 2423.72 L1987.92 2423.22 L2042.74 2422.48 L2097.56 2421.62 L2152.26 2420.38 L2207.08 2419.02 L2261.90 2417.28 L2316.60 2415.06 L2371.42 2412.33 L2426.24 2408.99 L2480.94 2404.91 L2535.76 2399.83 L2590.58 2393.77 L2645.28 2386.22 L2700.10 2377.19 L2754.92 2366.17 L2809.62 2353.06 L2864.44 2337.59 L2919.26 2319.39 L2973.96 2298.23 L3028.78 2273.36 L3083.60 2244.28 L3138.30 2210.24 L3193.12 2170.27 L3247.94 2123.62 L3302.64 2069.16 L3357.46 2005.80 L3412.28 1932.05 L3466.98 1846.28 L3521.80 1747.03 L3576.62 1632.07 L3631.32 1499.40 L3686.14 1346.32 L3740.96 1170.22 L3795.66 967.63 L3795.66 514.44 L3740.96 801.18 L3686.14 1047.45 L3631.32 1258.82 L3576.62 1439.75 L3521.80 1594.32 L3466.98 1726.12 L3412.28 1838.24 L3357.46 1933.41 L3302.64 2013.97 L3247.94 2082.16 L3193.12 2139.70 L3138.30 2187.97 L3083.60 2228.56 L3028.78 2262.47 L2973.96 2290.68 L2919.26 2314.07 L2864.44 2333.38 L2809.62 2349.22 L2754.92 2362.21 L2700.10 2373.10 L2645.28 2382.14 L2590.58 2389.81 L2535.76 2396.00 L2480.94 2401.32 L2426.24 2405.65 L2371.42 2409.36 L2316.60 2412.33 L2261.90 2414.81 L2207.08 2416.79 L2152.26 2418.52 L2097.56 2419.88 L2042.74 2421.00 L1987.92 2421.99 L1933.22 2422.73 L1878.40 2423.35 L1823.58 2423.84 L1768.88 2424.21 L1714.06 2424.59 L1659.24 2424.83 L1604.54 2425.08 L1549.72 2425.20 L1494.90 2425.33 L1440.20 2425.45 L1385.38 2425.58 L1330.56 2425.58 L1275.86 2425.70 L1221.04 2425.70 L1166.22 2425.70 L1111.52 2425.70 L1056.70 2425.82 L1001.88 2425.82 L947.18 2425.82 L892.36 2425.82 L837.54 2425.82 L782.84 2425.82 L728.02 2425.82 L673.20 2425.82 L618.50 2425.82 L563.68 2425.82 L508.86 2425.82 L508.86 2425.82 Z" stroke-linecap="round" style="fill:#D6D6FF;stroke:#CCCCFF;stroke-width:3.00"/>
	<path d="M508.86 2425.82 L508.86 2425.82 L563.68 2425.82 L618.50 2425.82 L673.20 2425.82 L728.02 2425.82 L782.84 2425.82 L837.54 2425.82 L892.36 2425.82 L947.18 2425.82 L1001.88 2425.82 L1056.70 2425.82 L1111.52 2425.82 L1166.22 2425.82 L1221.04 2425.82 L1275.86 2425.70 L1330.56 2425.70 L1385.38 2425.70 L1440.20 2425.58 L1494.90 2425.58 L1549.72 2425.45 L1604.54 2425.33 L1659.24 2425.20 L1714.06 2425.08 L1768.88 2424.83 L1823.58 2424.46 L1878.40 2424.09 L1933.22 2423.72 L1987.92 2423.10 L2042.74 2422.36 L2097.56 2421.37 L2152.26 2420.25 L2207.08 2418.77 L2261.90 2416.91 L2316.60 2414.81 L2371.42 2411.96 L2426.24 2408.62 L2480.94 2404.54 L2535.76 2399.46 L2590.58 2393.28 L2645.28 2385.73 L2700.10 2376.69 L2754.92 2365.80 L2809.62 2352.68 L2864.44 2337.09 L2919.26 2318.90 L2973.96 2297.37 L3028.78 2272.12 L3083.60 2242.54 L3138.30 2207.77 L3193.12 2166.93 L3247.94 2119.04 L3302.64 2063.10 L3357.46 1997.76 L3412.28 1921.65 L3466.98 1833.04 L3521.80 1730.20 L3576.62 1610.90 L3631.32 1472.79 L3686.14 1313.40 L3740.96 1129.38 L3795.66 917.63 L3795.66 564.57 L3740.96 841.90 L3686.14 1080.50 L3631.32 1285.43 L3576.62 1461.04 L3521.80 1611.15 L3466.98 1739.36 L3412.28 1848.51 L3357.46 1941.33 L3302.64 2020.16 L3247.94 2086.74 L3193.12 2143.05 L3138.30 2190.44 L3083.60 2230.29 L3028.78 2263.71 L2973.96 2291.55 L2919.26 2314.69 L2864.44 2333.87 L2809.62 2349.59 L2754.92 2362.71 L2700.10 2373.60 L2645.28 2382.63 L2590.58 2390.18 L2535.76 2396.49 L2480.94 2401.69 L2426.24 2406.02 L2371.42 2409.61 L2316.60 2412.58 L2261.90 2415.06 L2207.08 2417.04 L2152.26 2418.77 L2097.56 2420.13 L2042.74 2421.24 L1987.92 2422.11 L1933.22 2422.85 L1878.40 2423.47 L1823.58 2423.97 L1768.88 2424.34 L1714.06 2424.59 L1659.24 2424.83 L1604.54 2425.08 L1549.72 2425.20 L1494.90 2425.33 L1440.20 2425.45 L1385.38 2425.58 L1330.56 2425.58 L1275.86 2425.70 L1221.04 2425.70 L1166.22 2425.70 L1111.52 2425.70 L1056.70 2425.82 L1001.88 2425.82 L947.18 2425.82 L892.36 2425.82 L837.54 2425.82 L782.84 2425.82 L728.02 2425.82 L673.20 2425.82 L618.50 2425.82 L563.68 2425.82 L508.86 2425.82 L508.86 2425.82 Z" stroke-linecap="round" style="fill:#C2C2FF;stroke:#B3B3FF;stroke-width:3.00"/>
	<path d="M508.86 2425.82 L508.86 2425.82 L563.68 2425.82 L618.50 2425.82 L673.20 2425.82 L728.02 2425.82 L782.84 2425.82 L837.54 2425.82 L892.36 2425.82 L947.18 2425.82 L1001.88 2425.82 L1056.70 2425.82 L1111.52 2425.82 L1166.22 2425.82 L1221.04 2425.82 L1275.86 2425.70 L1330.56 2425.70 L1385.38 2425.70 L1440.20 2425.58 L1494.90 2425.58 L1549.72 2425.45 L1604.54 2425.33 L1659.24 2425.20 L1714.06 2424.96 L1768.88 2424.71 L1823.58 2424.46 L1878.40 2424.09 L1933.22 2423.60 L1987.92 2422.98 L2042.74 2422.23 L2097.56 2421.24 L2152.26 2420.13 L2207.08 2418.65 L2261.90 2416.79 L2316.60 2414.56 L2371.42 2411.84 L2426.24 2408.37 L2480.94 2404.29 L2535.76 2399.22 L2590.58 2393.03 L2645.28 2385.48 L2700.10 2376.45 L2754.92 2365.43 L2809.62 2352.44 L2864.44 2336.84 L2919.26 2318.40 L2973.96 2296.87 L3028.78 2271.38 L3083.60 2241.43 L3138.30 2206.04 L3193.12 2164.58 L3247.94 2115.94 L3302.64 2059.02 L3357.46 1992.44 L3412.28 1914.60 L3466.98 1824.13 L3521.80 1718.82 L3576.62 1596.55 L3631.32 1454.85 L3686.14 1291.12 L3740.96 1101.90 L3795.66 883.85 L3795.66 598.35 L3740.96 869.37 L3686.14 1102.77 L3631.32 1303.38 L3576.62 1475.27 L3521.80 1622.54 L3466.98 1748.27 L3412.28 1855.57 L3357.46 1946.77 L3302.64 2024.24 L3247.94 2089.83 L3193.12 2145.27 L3138.30 2192.05 L3083.60 2231.41 L3028.78 2264.45 L2973.96 2292.17 L2919.26 2315.06 L2864.44 2334.12 L2809.62 2349.96 L2754.92 2362.96 L2700.10 2373.85 L2645.28 2382.88 L2590.58 2390.43 L2535.76 2396.74 L2480.94 2401.94 L2426.24 2406.27 L2371.42 2409.86 L2316.60 2412.83 L2261.90 2415.30 L2207.08 2417.28 L2152.26 2418.89 L2097.56 2420.25 L2042.74 2421.37 L1987.92 2422.23 L1933.22 2422.98 L1878.40 2423.47 L1823.58 2423.97 L1768.88 2424.34 L1714.06 2424.71 L1659.24 2424.96 L1604.54 2425.08 L1549.72 2425.20 L1494.90 2425.33 L1440.20 2425.45 L1385.38 2425.58 L1330.56 2425.58 L1275.86 2425.70 L1221.04 2425.70 L1166.22 2425.70 L1111.52 2425.82 L1056.70 2425.82 L1001.88 2425.82 L947.18 2425.82 L892.36 2425.82 L837.54 2425.82 L782.84 2425.82 L728.02 2425.82 L673.20 2425.82 L618.50 2425.82 L563.68 2425.82 L508.86 2425.82 L508.86 2425.82 Z" stroke-linecap="round" style="fill:#ADADFF;stroke:#9999FF;stroke-width:3.00"/>
	<path d="M508.86 2425.82 L508.86 2425.82 L563.68 2425.82 L618.50 2425.82 L673.20 2425.82 L728.02 2425.82 L782.84 2425.82 L837.54 2425.82 L892.36 2425.82 L947.18 2425.82 L1001.88 2425.82 L1056.70 2425.82 L1111.52 2425.82 L1166.22 2425.82 L1221.04 2425.70 L1275.86 2425.70 L1330.56 2425.70 L1385.38 2425.70 L1440.20 2425.58 L1494.90 2425.58 L1549.72 2425.45 L1604.54 2425.33 L1659.24 2425.20 L1714.06 2424.96 L1768.88 2424.71 L1823.58 2424.46 L1878.40 2423.97 L1933.22 2423.47 L1987.92 2422.85 L2042.74 2422.11 L2097.56 2421.12 L2152.26 2420.01 L2207.08 2418.52 L2261.90 2416.67 L2316.60 2414.44 L2371.42 2411.59 L2426.24 2408.25 L2480.94 2404.04 L2535.76 2398.97 L2590.58 2392.78 L2645.28 2385.23 L2700.10 2376.20 L2754.92 2365.31 L2809.62 2352.19 L2864.44 2336.60 L2919.26 2318.16 L2973.96 2296.38 L3028.78 2270.76 L3083.60 2240.44 L3138.30 2204.80 L3193.12 2162.85 L3247.94 2113.47 L3302.64 2055.68 L3357.46 1988.11 L3412.28 1909.03 L3466.98 1816.95 L3521.80 1709.78 L3576.62 1585.16 L3631.32 1440.62 L3686.14 1273.43 L3740.96 1080.00 L3795.66 857.00 L3795.66 625.20 L3740.96 891.28 L3686.14 1120.47 L3631.32 1317.61 L3576.62 1486.78 L3521.80 1631.57 L3466.98 1755.45 L3412.28 1861.13 L3357.46 1951.10 L3302.64 2027.46 L3247.94 2092.31 L3193.12 2147.13 L3138.30 2193.41 L3083.60 2232.40 L3028.78 2265.19 L2973.96 2292.54 L2919.26 2315.43 L2864.44 2334.37 L2809.62 2350.21 L2754.92 2363.20 L2700.10 2374.09 L2645.28 2383.13 L2590.58 2390.68 L2535.76 2396.99 L2480.94 2402.19 L2426.24 2406.52 L2371.42 2410.11 L2316.60 2412.95 L2261.90 2415.43 L2207.08 2417.41 L2152.26 2419.02 L2097.56 2420.38 L2042.74 2421.37 L1987.92 2422.23 L1933.22 2422.98 L1878.40 2423.60 L1823.58 2423.97 L1768.88 2424.34 L1714.06 2424.71 L1659.24 2424.96 L1604.54 2425.08 L1549.72 2425.33 L1494.90 2425.45 L1440.20 2425.45 L1385.38 2425.58 L1330.56 2425.58 L1275.86 2425.70 L1221.04 2425.70 L1166.22 2425.70 L1111.52 2425.82 L1056.70 2425.82 L1001.88 2425.82 L947.18 2425.82 L892.36 2425.82 L837.54 2425.82 L782.84 2425.82 L728.02 2425.82 L673.20 2425.82 L618.50 2425.82 L563.68 2425.82 L508.86 2425.82 L508.86 2425.82 Z" stroke-linecap="round" style="fill:#9999FF;stroke:#8080FF;stroke-width:3.00"/>
	<path d="M508.86 2425.82 L508.86 2425.82 L563.68 2425.82 L618.50 2425.82 L673.20 2425.82 L728.02 2425.82 L782.84 2425.82 L837.54 2425.82 L892.36 2425.82 L947.18 2425.82 L1001.88 2425.82 L1056.70 2425.82 L1111.52 2425.82 L1166.22 2425.82 L1221.04 2425.70 L1275.86 2425.70 L1330.56 2425.70 L1385.38 2425.70 L1440.20 2425.58 L1494.90 2425.58 L1549.72 2425.45 L1604.54 2425.33 L1659.24 2425.08 L1714.06 2424.96 L1768.88 2424.71 L1823.58 2424.34 L1878.40 2423.97 L1933.22 2423.47 L1987.92 2422.85 L2042.74 2422.11 L2097.56 2421.12 L2152.26 2419.88 L2207.08 2418.40 L2261.90 2416.54 L2316.60 2414.19 L2371.42 2411.47 L2426.24 2408.00 L2480.94 2403.80 L2535.76 2398.72 L2590.58 2392.53 L2645.28 2384.98 L2700.10 2375.95 L2754.92 2365.06 L2809.62 2351.94 L2864.44 2336.35 L2919.26 2317.91 L2973.96 2296.01 L3028.78 2270.14 L3083.60 2239.70 L3138.30 2203.69 L3193.12 2161.24 L3247.94 2111.36 L3302.64 2052.95 L3357.46 1984.39 L3412.28 1904.32 L3466.98 1810.89 L3521.80 1701.99 L3576.62 1575.39 L3631.32 1428.49 L3686.14 1258.21 L3740.96 1061.31 L3795.66 833.98 L3795.66 648.22 L3740.96 909.96 L3686.14 1135.69 L3631.32 1329.74 L3576.62 1496.43 L3521.80 1639.37 L3466.98 1761.51 L3412.28 1865.84 L3357.46 1954.69 L3302.64 2030.31 L3247.94 2094.41 L3193.12 2148.74 L3138.30 2194.53 L3083.60 2233.14 L3028.78 2265.69 L2973.96 2292.91 L2919.26 2315.68 L2864.44 2334.62 L2809.62 2350.33 L2754.92 2363.45 L2700.10 2374.34 L2645.28 2383.38 L2590.58 2390.92 L2535.76 2397.24 L2480.94 2402.31 L2426.24 2406.64 L2371.42 2410.23 L2316.60 2413.08 L2261.90 2415.55 L2207.08 2417.53 L2152.26 2419.14 L2097.56 2420.38 L2042.74 2421.49 L1987.92 2422.36 L1933.22 2422.98 L1878.40 2423.60 L1823.58 2424.09 L1768.88 2424.46 L1714.06 2424.71 L1659.24 2424.96 L1604.54 2425.20 L1549.72 2425.33 L1494.90 2425.45 L1440.20 2425.45 L1385.38 2425.58 L1330.56 2425.70 L1275.86 2425.70 L1221.04 2425.70 L1166.22 2425.70 L1111.52 2425.82 L1056.70 2425.82 L1001.88 2425.82 L947.18 2425.82 L892.36 2425.82 L837.54 2425.82 L782.84 2425.82 L728.02 2425.82 L673.20 2425.82 L618.50 2425.82 L563.68 2425.82 L508.86 2425.82 L508.86 2425.82 Z" stroke-linecap="round" style="fill:#8585FF;stroke:#6666FF;stroke-width:3.00"/>
	<path d="M508.86 2425.82 L508.86 2425.82 L563.68 2425.82 L618.50 2425.82 L673.20 2425.82 L728.02 2425.82 L782.84 2425.82 L837.54 2425.82 L892.36 2425.82 L947.18 2425.82 L1001.88 2425.82 L1056.70 2425.82 L1111.52 2425.82 L1166.22 2425.82 L1221.04 2425.70 L1275.86 2425.70 L1330.56 2425.70 L1385.38 2425.70 L1440.20 2425.58 L1494.90 2425.45 L1549.72 2425.45 L1604.54 2425.33 L1659.24 2425.08 L1714.06 2424.96 L1768.88 2424.71 L1823.58 2424.34 L1878.40 2423.97 L1933.22 2423.47 L1987.92 2422.73 L2042.74 2421.99 L2097.56 2421.00 L2152.26 2419.76 L2207.08 2418.27 L2261.90 2416.42 L2316.60 2414.07 L2371.42 2411.34 L2426.24 2407.88 L2480.94 2403.67 L2535.76 2398.60 L2590.58 2392.41 L2645.28 2384.86 L2700.10 2375.83 L2754.92 2364.81 L2809.62 2351.82 L2864.44 2336.23 L2919.26 2317.66 L2973.96 2295.63 L3028.78 2269.65 L3083.60 2238.95 L3138.30 2202.70 L3193.12 2159.88 L3247.94 2109.51 L3302.64 2050.35 L3357.46 1981.18 L3412.28 1899.99 L3466.98 1805.32 L3521.80 1695.06 L3576.62 1566.60 L3631.32 1417.48 L3686.14 1244.59 L3740.96 1044.48 L3795.66 813.31 L3795.66 668.89 L3740.96 926.79 L3686.14 1149.30 L3631.32 1340.75 L3576.62 1505.22 L3521.80 1646.30 L3466.98 1767.08 L3412.28 1870.17 L3357.46 1958.03 L3302.64 2032.78 L3247.94 2096.27 L3193.12 2150.10 L3138.30 2195.52 L3083.60 2233.88 L3028.78 2266.18 L2973.96 2293.28 L2919.26 2315.93 L2864.44 2334.86 L2809.62 2350.58 L2754.92 2363.58 L2700.10 2374.47 L2645.28 2383.62 L2590.58 2391.05 L2535.76 2397.36 L2480.94 2402.56 L2426.24 2406.77 L2371.42 2410.35 L2316.60 2413.20 L2261.90 2415.68 L2207.08 2417.53 L2152.26 2419.14 L2097.56 2420.50 L2042.74 2421.49 L1987.92 2422.36 L1933.22 2423.10 L1878.40 2423.60 L1823.58 2424.09 L1768.88 2424.46 L1714.06 2424.71 L1659.24 2424.96 L1604.54 2425.20 L1549.72 2425.33 L1494.90 2425.45 L1440.20 2425.58 L1385.38 2425.58 L1330.56 2425.70 L1275.86 2425.70 L1221.04 2425.70 L1166.22 2425.70 L1111.52 2425.82 L1056.70 2425.82 L1001.88 2425.82 L947.18 2425.82 L892.36 2425.82 L837.54 2425.82 L782.84 2425.82 L728.02 2425.82 L673.20 2425.82 L618.50 2425.82 L563.68 2425.82 L508.86 2425.82 L508.86 2425.82 Z" stroke-linecap="round" style="fill:#7171FF;stroke:#4D4DFF;stroke-width:3.00"/>
	<path d="M508.86 2425.82 L508.86 2425.82 L563.68 2425.82 L618.50 2425.82 L673.20 2425.82 L728.02 2425.82 L782.84 2425.82 L837.54 2425.82 L892.36 2425.82 L947.18 2425.82 L1001.88 2425.82 L1056.70 2425.82 L1111.52 2425.82 L1166.22 2425.82 L1221.04 2425.70 L1275.86 2425.70 L1330.56 2425.70 L1385.38 2425.58 L1440.20 2425.58 L1494.90 2425.45 L1549.72 2425.45 L1604.54 2425.20 L1659.24 2425.08 L1714.06 2424.83 L1768.88 2424.59 L1823.58 2424.34 L1878.40 2423.84 L1933.22 2423.35 L1987.92 2422.73 L2042.74 2421.99 L2097.56 2420.87 L2152.26 2419.76 L2207.08 2418.15 L2261.90 2416.29 L2316.60 2413.94 L2371.42 2411.22 L2426.24 2407.76 L2480.94 2403.55 L2535.76 2398.35 L2590.58 2392.16 L2645.28 2384.74 L2700.10 2375.58 L2754.92 2364.69 L2809.62 2351.57 L2864.44 2335.98 L2919.26 2317.41 L2973.96 2295.39 L3028.78 2269.15 L3083.60 2238.21 L3138.30 2201.71 L3193.12 2158.51 L3247.94 2107.78 L3302.64 2048.13 L3357.46 1978.08 L3412.28 1896.03 L3466.98 1800.25 L3521.80 1688.50 L3576.62 1558.43 L3631.32 1407.33 L3686.14 1231.97 L3740.96 1028.89 L3795.66 794.13 L3795.66 687.95 L3740.96 942.39 L3686.14 1161.93 L3631.32 1350.90 L3576.62 1513.39 L3521.80 1652.73 L3466.98 1772.16 L3412.28 1874.13 L3357.46 1961.13 L3302.64 2035.13 L3247.94 2098.00 L3193.12 2151.34 L3138.30 2196.51 L3083.60 2234.62 L3028.78 2266.68 L2973.96 2293.65 L2919.26 2316.18 L2864.44 2334.99 L2809.62 2350.70 L2754.92 2363.82 L2700.10 2374.71 L2645.28 2383.75 L2590.58 2391.30 L2535.76 2397.48 L2480.94 2402.68 L2426.24 2407.01 L2371.42 2410.48 L2316.60 2413.32 L2261.90 2415.68 L2207.08 2417.66 L2152.26 2419.26 L2097.56 2420.50 L2042.74 2421.62 L1987.92 2422.48 L1933.22 2423.10 L1878.40 2423.72 L1823.58 2424.09 L1768.88 2424.46 L1714.06 2424.71 L1659.24 2424.96 L1604.54 2425.20 L1549.72 2425.33 L1494.90 2425.45 L1440.20 2425.58 L1385.38 2425.58 L1330.56 2425.70 L1275.86 2425.70 L1221.04 2425.70 L1166.22 2425.70 L1111.52 2425.82 L1056.70 2425.82 L1001.88 2425.82 L947.18 2425.82 L892.36 2425.82 L837.54 2425.82 L782.84 2425.82 L728.02 2425.82 L673.20 2425.82 L618.50 2425.82 L563.68 2425.82 L508.86 2425.82 L508.86 2425.82 Z" stroke-linecap="round" style="fill:#5C5CFF;stroke:#3333FF;stroke-width:3.00"/>
	<path d="M508.86 2425.82 L508.86 2425.82 L563.68 2425.82 L618.50 2425.82 L673.20 2425.82 L728.02 2425.82 L782.84 2425.82 L837.54 2425.82 L892.36 2425.82 L947.18 2425.82 L1001.88 2425.82 L1056.70 2425.82 L1111.52 2425.82 L1166.22 2425.82 L1221.04 2425.70 L1275.86 2425.70 L1330.56 2425.70 L1385.38 2425.58 L1440.20 2425.58 L1494.90 2425.45 L1549.72 2425.33 L1604.54 2425.20 L1659.24 2425.08 L1714.06 2424.83 L1768.88 2424.59 L1823.58 2424.21 L1878.40 2423.84 L1933.22 2423.35 L1987.92 2422.73 L2042.74 2421.86 L2097.56 2420.87 L2152.26 2419.64 L2207.08 2418.15 L2261.90 2416.17 L2316.60 2413.94 L2371.42 2411.10 L2426.24 2407.63 L2480.94 2403.42 L2535.76 2398.23 L2590.58 2392.04 L2645.28 2384.49 L2700.10 2375.46 L2754.92 2364.57 L2809.62 2351.45 L2864.44 2335.85 L2919.26 2317.17 L2973.96 2295.02 L3028.78 2268.78 L3083.60 2237.59 L3138.30 2200.84 L3193.12 2157.28 L3247.94 2106.17 L3302.64 2045.90 L3357.46 1975.11 L3412.28 1892.32 L3466.98 1795.42 L3521.80 1682.43 L3576.62 1550.76 L3631.32 1397.68 L3686.14 1219.97 L3740.96 1014.04 L3795.66 775.94 L3795.66 706.14 L3740.96 957.24 L3686.14 1173.93 L3631.32 1360.55 L3576.62 1521.06 L3521.80 1658.92 L3466.98 1776.98 L3412.28 1877.84 L3357.46 1963.97 L3302.64 2037.36 L3247.94 2099.73 L3193.12 2152.57 L3138.30 2197.37 L3083.60 2235.24 L3028.78 2267.05 L2973.96 2293.90 L2919.26 2316.42 L2864.44 2335.11 L2809.62 2350.83 L2754.92 2363.95 L2700.10 2374.84 L2645.28 2383.87 L2590.58 2391.42 L2535.76 2397.61 L2480.94 2402.81 L2426.24 2407.14 L2371.42 2410.60 L2316.60 2413.45 L2261.90 2415.80 L2207.08 2417.78 L2152.26 2419.39 L2097.56 2420.63 L2042.74 2421.62 L1987.92 2422.48 L1933.22 2423.22 L1878.40 2423.72 L1823.58 2424.21 L1768.88 2424.46 L1714.06 2424.83 L1659.24 2424.96 L1604.54 2425.20 L1549.72 2425.33 L1494.90 2425.45 L1440.20 2425.58 L1385.38 2425.58 L1330.56 2425.70 L1275.86 2425.70 L1221.04 2425.70 L1166.22 2425.70 L1111.52 2425.82 L1056.70 2425.82 L1001.88 2425.82 L947.18 2425.82 L892.36 2425.82 L837.54 2425.82 L782.84 2425.82 L728.02 2425.82 L673.20 2425.82 L618.50 2425.82 L563.68 2425.82 L508.86 2425.82 L508.86 2425.82 Z" stroke-linecap="round" style="fill:#4747FF;stroke:#1919FF;stroke-width:3.00"/>
	<path d="M508.86 2425.82 L508.86 2425.82 L563.68 2425.82 L618.50 2425.82 L673.20 2425.82 L728.02 2425.82 L782.84 2425.82 L837.54 2425.82 L892.36 2425.82 L947.18 2425.82 L1001.88 2425.82 L1056.70 2425.82 L1111.52 2425.82 L1166.22 2425.82 L1221.04 2425.70 L1275.86 2425.70 L1330.56 2425.70 L1385.38 2425.58 L1440.20 2425.58 L1494.90 2425.45 L1549.72 2425.33 L1604.54 2425.20 L1659.24 2425.08 L1714.06 2424.83 L1768.88 2424.59 L1823.58 2424.21 L1878.40 2423.84 L1933.22 2423.35 L1987.92 2422.61 L2042.74 2421.86 L2097.56 2420.75 L2152.26 2419.51 L2207.08 2418.03 L2261.90 2416.17 L2316.60 2413.82 L2371.42 2410.97 L2426.24 2407.51 L2480.94 2403.30 L2535.76 2398.10 L2590.58 2391.91 L2645.28 2384.37 L2700.10 2375.33 L2754.92 2364.44 L2809.62 2351.32 L2864.44 2335.61 L2919.26 2316.92 L2973.96 2294.77 L3028.78 2268.28 L3083.60 2236.97 L3138.30 2199.97 L3193.12 2156.16 L3247.94 2104.56 L3302.64 2043.67 L3357.46 1972.39 L3412.28 1888.73 L3466.98 1790.84 L3521.80 1676.49 L3576.62 1543.33 L3631.32 1388.27 L3686.14 1208.33 L3740.96 999.68 L3795.66 758.36 L3795.66 723.71 L3740.96 971.59 L3686.14 1185.56 L3631.32 1369.96 L3576.62 1528.61 L3521.80 1664.86 L3466.98 1781.56 L3412.28 1881.55 L3357.46 1966.82 L3302.64 2039.46 L3247.94 2101.34 L3193.12 2153.81 L3138.30 2198.24 L3083.60 2235.86 L3028.78 2267.54 L2973.96 2294.15 L2919.26 2316.55 L2864.44 2335.36 L2809.62 2350.95 L2754.92 2364.07 L2700.10 2374.96 L2645.28 2384.12 L2590.58 2391.54 L2535.76 2397.85 L2480.94 2402.93 L2426.24 2407.26 L2371.42 2410.73 L2316.60 2413.57 L2261.90 2415.92 L2207.08 2417.90 L2152.26 2419.39 L2097.56 2420.63 L2042.74 2421.74 L1987.92 2422.48 L1933.22 2423.22 L1878.40 2423.72 L1823.58 2424.21 L1768.88 2424.59 L1714.06 2424.83 L1659.24 2425.08 L1604.54 2425.20 L1549.72 2425.33 L1494.90 2425.45 L1440.20 2425.58 L1385.38 2425.58 L1330.56 2425.70 L1275.86 2425.70 L1221.04 2425.70 L1166.22 2425.70 L1111.52 2425.82 L1056.70 2425.82 L1001.88 2425.82 L947.18 2425.82 L892.36 2425.82 L837.54 2425.82 L782.84 2425.82 L728.02 2425.82 L673.20 2425.82 L618.50 2425.82 L563.68 2425.82 L508.86 2425.82 L508.86 2425.82 Z" stroke-linecap="round" style="fill:#3333FF;stroke:#0000FF;stroke-width:3.00"/>
	<circle cx="508.86" cy="2422.73" r="22.03" style="fill:#000000;stroke:#000000;stroke-width:8.64"/>
	<circle cx="563.68" cy="2422.73" r="22.03" style="fill:#000000;stroke:#000000;stroke-width:8.64"/>
	<circle cx="618.38" cy="2422.73" r="22.03" style="fill:#000000;stroke:#000000;stroke-width:8.64"/>
	<circle cx="673.20" cy="2422.48" r="22.03" style="fill:#000000;stroke:#000000;stroke-width:8.64"/>
	<circle cx="728.02" cy="2422.11" r="22.03" style="fill:#000000;stroke:#000000;stroke-width:8.64"/>
	<circle cx="782.72" cy="2421.86" r="22.03" style="fill:#000000;stroke:#000000;stroke-width:8.64"/>
	<circle cx="837.54" cy="2421.86" r="22.03" style="fill:#000000;stroke:#000000;stroke-width:8.64"/>
	<circle cx="892.36" cy="2421.86" r="22.03" style="fill:#000000;stroke:#000000;stroke-width:8.64"/>
	<circle cx="947.06" cy="2421.86" r="22.03" style="fill:#000000;stroke:#000000;stroke-width:8.64"/>
	<circle cx="1001.88" cy="2421.86" r="22.03" style="fill:#000000;stroke:#000000;stroke-width:8.64"/>
	<circle cx="1056.70" cy="2421.86" r="22.03" style="fill:#000000;stroke:#000000;stroke-width:8.64"/>
	<circle cx="1111.40" cy="2421.86" r="22.03" style="fill:#000000;stroke:#000000;stroke-width:8.64"/>
	<circle cx="1166.22" cy="2421.49" r="22.03" style="fill:#000000;stroke:#000000;stroke-width:8.64"/>
	<circle cx="1221.04" cy="2421.49" r="22.03" style="fill:#000000;stroke:#000000;stroke-width:8.64"/>
	<circle cx="1275.74" cy="2421.49" r="22.03" style="fill:#000000;stroke:#000000;stroke-width:8.64"/>
	<circle cx="1330.56" cy="2421.49" r="22.03" style="fill:#000000;stroke:#000000;stroke-width:8.64"/>
	<circle cx="1385.38" cy="2421.49" r="22.03" style="fill:#000000;stroke:#000000;stroke-width:8.64"/>
	<circle cx="1440.08" cy="2421.49" r="22.03" style="fill:#000000;stroke:#000000;stroke-width:8.64"/>
	<circle cx="1494.90" cy="2421.49" r="22.03" style="fill:#000000;stroke:#000000;stroke-width:8.64"/>
	<circle cx="1549.72" cy="2421.00" r="22.03" style="fill:#000000;stroke:#000000;stroke-width:8.64"/>
	<circle cx="1604.42" cy="2419.76" r="22.03" style="fill:#000000;stroke:#000000;stroke-width:8.64"/>
	<circle cx="1659.24" cy="2419.51" r="22.03" style="fill:#000000;stroke:#000000;stroke-width:8.64"/>
	<circle cx="1714.06" cy="2419.51" r="22.03" style="fill:#000000;stroke:#000000;stroke-width:8.64"/>
	<circle cx="1768.76" cy="2419.51" r="22.03" style="fill:#000000;stroke:#000000;stroke-width:8.64"/>
	<circle cx="1823.58" cy="2419.51" r="22.03" style="fill:#000000;stroke:#000000;stroke-width:8.64"/>
	<circle cx="1878.40" cy="2419.26" r="22.03" style="fill:#000000;stroke:#000000;stroke-width:8.64"/>
	<circle cx="1933.10" cy="2419.26" r="22.03" style="fill:#000000;stroke:#000000;stroke-width:8.64"/>
	<circle cx="1987.92" cy="2418.65" r="22.03" style="fill:#000000;stroke:#000000;stroke-width:8.64"/>
	<circle cx="2042.74" cy="2418.40" r="22.03" style="fill:#000000;stroke:#000000;stroke-width:8.64"/>
	<circle cx="2097.44" cy="2417.53" r="22.03" style="fill:#000000;stroke:#000000;stroke-width:8.64"/>
	<circle cx="2152.26" cy="2416.29" r="22.03" style="fill:#000000;stroke:#000000;stroke-width:8.64"/>
	<circle cx="2207.08" cy="2414.07" r="22.03" style="fill:#000000;stroke:#000000;stroke-width:8.64"/>
	<circle cx="2261.78" cy="2410.85" r="22.03" style="fill:#000000;stroke:#000000;stroke-width:8.64"/>
	<circle cx="2316.60" cy="2408.75" r="22.03" style="fill:#000000;stroke:#000000;stroke-width:8.64"/>
	<circle cx="2371.42" cy="2407.63" r="22.03" style="fill:#000000;stroke:#000000;stroke-width:8.64"/>
	<circle cx="2426.12" cy="2404.41" r="22.03" style="fill:#000000;stroke:#000000;stroke-width:8.64"/>
	<circle cx="2480.94" cy="2402.68" r="22.03" style="fill:#000000;stroke:#000000;stroke-width:8.64"/>
	<circle cx="2535.76" cy="2396.86" r="22.03" style="fill:#000000;stroke:#000000;stroke-width:8.64"/>
	<circle cx="2590.46" cy="2393.40" r="22.03" style="fill:#000000;stroke:#000000;stroke-width:8.64"/>
	<circle cx="2645.28" cy="2389.32" r="22.03" style="fill:#000000;stroke:#000000;stroke-width:8.64"/>
	<circle cx="2700.10" cy="2380.65" r="22.03" style="fill:#000000;stroke:#000000;stroke-width:8.64"/>
	<circle cx="2754.80" cy="2368.77" r="22.03" style="fill:#000000;stroke:#000000;stroke-width:8.64"/>
	<circle cx="2809.62" cy="2353.67" r="22.03" style="fill:#000000;stroke:#000000;stroke-width:8.64"/>
	<circle cx="2864.44" cy="2339.44" r="22.03" style="fill:#000000;stroke:#000000;stroke-width:8.64"/>
	<circle cx="2919.14" cy="2317.17" r="22.03" style="fill:#000000;stroke:#000000;stroke-width:8.64"/>
	<circle cx="2973.96" cy="2294.27" r="22.03" style="fill:#000000;stroke:#000000;stroke-width:8.64"/>
	<circle cx="3028.78" cy="2261.97" r="22.03" style="fill:#000000;stroke:#000000;stroke-width:8.64"/>
	<line x1="390.80" y1="2489.19" x2="390.80" y2="100.86" style="stroke:#000000;stroke-width:5.76"/>
	<line x1="390.80" y1="2425.82" x2="350.83" y2="2425.82" style="stroke:#000000;stroke-width:5.76"/>
	<text x="300.72" y="2425.82" style="font-family:'Helvetica';font-size:99.99px;fill:#000000" transform="rotate(-90 300.72,2425.82)" text-anchor="middle">0</text>
	<line x1="390.80" y1="1860.39" x2="350.83" y2="1860.39" style="stroke:#000000;stroke-width:5.76"/>
	<text x="300.72" y="1860.39" style="font-family:'Helvetica';font-size:99.99px;fill:#000000" transform="rotate(-90 300.72,1860.39)" text-anchor="middle">2</text>
	<line x1="390.80" y1="1294.96" x2="350.83" y2="1294.96" style="stroke:#000000;stroke-width:5.76"/>
	<text x="300.72" y="1294.96" style="font-family:'Helvetica';font-size:99.99px;fill:#000000" transform="rotate(-90 300.72,1294.96)" text-anchor="middle">4</text>
	<line x1="390.80" y1="729.53" x2="350.83" y2="729.53" style="stroke:#000000;stroke-width:5.76"/>
	<text x="300.72" y="729.53" style="font-family:'Helvetica';font-size:99.99px;fill:#000000" transform="rotate(-90 300.72,729.53)" text-anchor="middle">6</text>
	<line x1="390.80" y1="164.22" x2="350.83" y2="164.22" style="stroke:#000000;stroke-width:5.76"/>
	<text x="300.72" y="164.22" style="font-family:'Helvetica';font-size:99.99px;fill:#000000" transform="rotate(-90 300.72,164.22)" text-anchor="middle">8</text>
	<text x="190.71" y="1294.96" style="font-family:'Helvetica';font-size:99.99px;fill:#000000" transform="rotate(-90 190.71,1294.96)" text-anchor="middle">Confirmed cases per 100 beds</text>
	<line x1="390.80" y1="2489.19" x2="3859.02" y2="2489.19" style="stroke:#000000;stroke-width:5.76"/>
	<line x1="454.16" y1="2489.19" x2="454.16" y2="2529.16" style="stroke:#000000;stroke-width:5.76"/>
	<text x="454.16" y="2619.14" style="font-family:'Helvetica';font-size:99.99px;fill:#000000" text-anchor="middle">0</text>
	<line x1="1549.72" y1="2489.19" x2="1549.72" y2="2529.16" style="stroke:#000000;stroke-width:5.76"/>
	<text x="1549.72" y="2619.14" style="font-family:'Helvetica';font-size:99.99px;fill:#000000" text-anchor="middle">20</text>
	<line x1="2645.28" y1="2489.19" x2="2645.28" y2="2529.16" style="stroke:#000000;stroke-width:5.76"/>
	<text x="2645.28" y="2619.14" style="font-family:'Helvetica';font-size:99.99px;fill:#000000" text-anchor="middle">40</text>
	<line x1="3740.96" y1="2489.19" x2="3740.96" y2="2529.16" style="stroke:#000000;stroke-width:5.76"/>
	<text x="3740.96" y="2619.14" style="font-family:'Helvetica';font-size:99.99px;fill:#000000" text-anchor="middle">60</text>
	<text x="2124.91" y="2729.16" style="font-family:'Helvetica';font-size:99.99px;fill:#000000" text-anchor="middle">Days since 0.01 confirmed cases per 100 beds</text>
</svg>
