<?xml version="1.0" encoding="UTF-8" standalone="no"?>
<!-- This is a Stata 14.2 generated SVG file (http://www.stata.com) -->

<svg version="1.1" width="5.50in" height="4.00in" viewBox="0 0 3960 2880" xmlns="http://www.w3.org/2000/svg">
	<desc>Stata Graph - Graph</desc>
	<line x1="390.80" y1="1664.12" x2="3859.02" y2="1664.12" style="stroke:#FF0000;stroke-width:8.64"/>
	<path d="M537.69 2425.82 L537.69 2425.82 L621.23 2423.35 L704.76 2419.02 L788.29 2412.46 L871.82 2403.55 L955.35 2392.16 L1038.88 2378.30 L1122.41 2362.34 L1205.94 2344.52 L1289.47 2325.58 L1373.13 2305.91 L1456.66 2285.36 L1540.19 2263.71 L1623.72 2240.19 L1707.26 2214.33 L1790.79 2185.37 L1874.32 2152.82 L1957.85 2116.44 L2041.38 2076.22 L2124.91 2032.29 L2208.44 1986.13 L2291.97 1941.20 L2375.51 1903.09 L2459.04 1875.86 L2542.57 1858.41 L2626.22 1848.76 L2709.75 1845.91 L2793.28 1849.13 L2876.82 1858.16 L2960.35 1872.77 L3043.88 1892.82 L3127.41 1917.94 L3210.94 1948.01 L3294.47 1982.78 L3378.00 2021.77 L3461.53 2064.71 L3545.07 2111.36 L3628.60 2161.36 L3628.60 281.91 L3545.07 406.28 L3461.53 529.42 L3378.00 651.07 L3294.47 770.49 L3210.94 887.32 L3127.41 1001.17 L3043.88 1111.43 L2960.35 1217.86 L2876.82 1319.71 L2793.28 1416.61 L2709.75 1508.06 L2626.22 1593.45 L2542.57 1671.79 L2459.04 1741.71 L2375.51 1800.87 L2291.97 1847.89 L2208.44 1886.38 L2124.91 1921.40 L2041.38 1956.30 L1957.85 1991.94 L1874.32 2028.33 L1790.79 2065.08 L1707.26 2101.59 L1623.72 2137.11 L1540.19 2170.77 L1456.66 2202.08 L1373.13 2229.92 L1289.47 2254.18 L1205.94 2274.60 L1122.41 2291.92 L1038.88 2306.77 L955.35 2319.64 L871.82 2331.28 L788.29 2341.79 L704.76 2351.57 L621.23 2360.61 L537.69 2368.90 L537.69 2425.82 Z" stroke-linecap="round" style="fill:#EBEBFF;stroke:#E6E6FF;stroke-width:3.00"/>
	<path d="M537.69 2409.36 L537.69 2409.36 L621.23 2405.28 L704.76 2399.59 L788.29 2392.16 L871.82 2382.76 L955.35 2371.25 L1038.88 2357.63 L1122.41 2342.04 L1205.94 2324.35 L1289.47 2304.92 L1373.13 2284.00 L1456.66 2261.35 L1540.19 2236.85 L1623.72 2210.49 L1707.26 2181.78 L1790.79 2150.59 L1874.32 2116.93 L1957.85 2080.55 L2041.38 2041.57 L2124.91 2000.23 L2208.44 1957.29 L2291.97 1914.22 L2375.51 1873.63 L2459.04 1837.13 L2542.57 1804.58 L2626.22 1775.13 L2709.75 1748.39 L2793.28 1724.26 L2876.82 1702.73 L2960.35 1683.80 L3043.88 1667.34 L3127.41 1653.35 L3210.94 1641.97 L3294.47 1632.81 L3378.00 1626.13 L3461.53 1621.67 L3545.07 1619.32 L3628.60 1618.95 L3628.60 824.32 L3545.07 898.33 L3461.53 972.58 L3378.00 1046.59 L3294.47 1120.34 L3210.94 1193.48 L3127.41 1265.75 L3043.88 1337.04 L2960.35 1406.83 L2876.82 1475.02 L2793.28 1541.35 L2709.75 1605.58 L2626.22 1667.09 L2542.57 1725.62 L2459.04 1780.45 L2375.51 1830.44 L2291.97 1874.87 L2208.44 1915.09 L2124.91 1953.45 L2041.38 1990.95 L1957.85 2027.83 L1874.32 2064.21 L1790.79 2099.73 L1707.26 2134.14 L1623.72 2166.81 L1540.19 2197.62 L1456.66 2226.08 L1373.13 2251.83 L1289.47 2274.72 L1205.94 2294.77 L1122.41 2312.22 L1038.88 2327.44 L955.35 2340.68 L871.82 2352.19 L788.29 2362.21 L704.76 2371.00 L621.23 2378.67 L537.69 2385.36 L537.69 2409.36 Z" stroke-linecap="round" style="fill:#D6D6FF;stroke:#CCCCFF;stroke-width:3.00"/>
	<path d="M537.69 2406.77 L537.69 2406.77 L621.23 2402.31 L704.76 2396.37 L788.29 2388.82 L871.82 2379.42 L955.35 2367.91 L1038.88 2354.29 L1122.41 2338.70 L1205.94 2321.13 L1289.47 2301.70 L1373.13 2280.41 L1456.66 2257.39 L1540.19 2232.52 L1623.72 2205.67 L1707.26 2176.46 L1790.79 2145.03 L1874.32 2111.12 L1957.85 2074.73 L2041.38 2036.00 L2124.91 1995.16 L2208.44 1952.71 L2291.97 1909.89 L2375.51 1868.81 L2459.04 1830.94 L2542.57 1795.79 L2626.22 1763.12 L2709.75 1732.55 L2793.28 1704.09 L2876.82 1677.61 L2960.35 1653.10 L3043.88 1630.83 L3127.41 1610.53 L3210.94 1592.34 L3294.47 1576.25 L3378.00 1562.15 L3461.53 1550.02 L3545.07 1539.62 L3628.60 1531.08 L3628.60 912.07 L3545.07 978.03 L3461.53 1044.24 L3378.00 1110.57 L3294.47 1176.90 L3210.94 1242.98 L3127.41 1308.57 L3043.88 1373.42 L2960.35 1437.40 L2876.82 1500.27 L2793.28 1561.65 L2709.75 1621.30 L2626.22 1679.09 L2542.57 1734.41 L2459.04 1786.76 L2375.51 1835.15 L2291.97 1879.20 L2208.44 1919.79 L2124.91 1958.65 L2041.38 1996.52 L1957.85 2033.65 L1874.32 2070.03 L1790.79 2105.42 L1707.26 2139.33 L1623.72 2171.63 L1540.19 2201.95 L1456.66 2229.92 L1373.13 2255.41 L1289.47 2278.06 L1205.94 2298.11 L1122.41 2315.56 L1038.88 2330.78 L955.35 2344.02 L871.82 2355.53 L788.29 2365.56 L704.76 2374.22 L621.23 2381.64 L537.69 2387.95 L537.69 2406.77 Z" stroke-linecap="round" style="fill:#C2C2FF;stroke:#B3B3FF;stroke-width:3.00"/>
	<path d="M537.69 2404.91 L537.69 2404.91 L621.23 2400.33 L704.76 2394.27 L788.29 2386.59 L871.82 2377.06 L955.35 2365.56 L1038.88 2352.07 L1122.41 2336.47 L1205.94 2318.90 L1289.47 2299.35 L1373.13 2278.06 L1456.66 2254.80 L1540.19 2229.67 L1623.72 2202.45 L1707.26 2172.99 L1790.79 2141.19 L1874.32 2107.16 L1957.85 2070.77 L2041.38 2032.16 L2124.91 1991.57 L2208.44 1949.49 L2291.97 1906.92 L2375.51 1865.59 L2459.04 1826.73 L2542.57 1789.98 L2626.22 1755.08 L2709.75 1721.91 L2793.28 1690.48 L2876.82 1660.65 L2960.35 1632.56 L3043.88 1606.20 L3127.41 1581.70 L3210.94 1558.93 L3294.47 1538.01 L3378.00 1518.95 L3461.53 1501.63 L3545.07 1485.91 L3628.60 1471.93 L3628.60 971.22 L3545.07 1031.74 L3461.53 1092.62 L3378.00 1153.76 L3294.47 1215.14 L3210.94 1276.40 L3127.41 1337.41 L3043.88 1398.05 L2960.35 1458.07 L2876.82 1517.22 L2793.28 1575.26 L2709.75 1631.94 L2626.22 1687.14 L2542.57 1740.23 L2459.04 1790.97 L2375.51 1838.36 L2291.97 1882.17 L2208.44 1922.89 L2124.91 1962.12 L2041.38 2000.23 L1957.85 2037.61 L1874.32 2073.99 L1790.79 2109.14 L1707.26 2142.92 L1623.72 2174.85 L1540.19 2204.92 L1456.66 2232.64 L1373.13 2257.77 L1289.47 2280.41 L1205.94 2300.34 L1122.41 2317.79 L1038.88 2333.01 L955.35 2346.25 L871.82 2357.76 L788.29 2367.78 L704.76 2376.32 L621.23 2383.62 L537.69 2389.81 L537.69 2404.91 Z" stroke-linecap="round" style="fill:#ADADFF;stroke:#9999FF;stroke-width:3.00"/>
	<path d="M537.69 2403.55 L537.69 2403.55 L621.23 2398.72 L704.76 2392.53 L788.29 2384.86 L871.82 2375.21 L955.35 2363.82 L1038.88 2350.33 L1122.41 2334.74 L1205.94 2317.17 L1289.47 2297.61 L1373.13 2276.08 L1456.66 2252.69 L1540.19 2227.32 L1623.72 2199.85 L1707.26 2170.15 L1790.79 2138.22 L1874.32 2104.06 L1957.85 2067.68 L2041.38 2029.19 L2124.91 1988.85 L2208.44 1947.02 L2291.97 1904.70 L2375.51 1863.11 L2459.04 1823.27 L2542.57 1785.27 L2626.22 1748.77 L2709.75 1713.50 L2793.28 1679.59 L2876.82 1647.16 L2960.35 1616.10 L3043.88 1586.65 L3127.41 1558.68 L3210.94 1532.44 L3294.47 1507.69 L3378.00 1484.68 L3461.53 1463.14 L3545.07 1443.22 L3628.60 1424.90 L3628.60 1018.37 L3545.07 1074.43 L3461.53 1130.99 L3378.00 1188.16 L3294.47 1245.46 L3210.94 1303.00 L3127.41 1360.43 L3043.88 1417.60 L2960.35 1474.40 L2876.82 1530.71 L2793.28 1586.03 L2709.75 1640.36 L2626.22 1693.45 L2542.57 1744.93 L2459.04 1794.31 L2375.51 1840.96 L2291.97 1884.52 L2208.44 1925.49 L2124.91 1964.84 L2041.38 2003.33 L1957.85 2040.70 L1874.32 2077.08 L1790.79 2112.23 L1707.26 2145.77 L1623.72 2177.45 L1540.19 2207.27 L1456.66 2234.75 L1373.13 2259.75 L1289.47 2282.15 L1205.94 2302.07 L1122.41 2319.52 L1038.88 2334.86 L955.35 2348.11 L871.82 2359.61 L788.29 2369.52 L704.76 2378.05 L621.23 2385.23 L537.69 2391.17 L537.69 2403.55 Z" stroke-linecap="round" style="fill:#9999FF;stroke:#8080FF;stroke-width:3.00"/>
	<path d="M537.69 2402.31 L537.69 2402.31 L621.23 2397.36 L704.76 2391.17 L788.29 2383.25 L871.82 2373.72 L955.35 2362.21 L1038.88 2348.72 L1122.41 2333.26 L1205.94 2315.68 L1289.47 2296.01 L1373.13 2274.47 L1456.66 2250.96 L1540.19 2225.34 L1623.72 2197.62 L1707.26 2167.67 L1790.79 2135.62 L1874.32 2101.34 L1957.85 2064.96 L2041.38 2026.59 L2124.91 1986.50 L2208.44 1944.92 L2291.97 1902.59 L2375.51 1860.89 L2459.04 1820.42 L2542.57 1781.31 L2626.22 1743.20 L2709.75 1706.19 L2793.28 1670.31 L2876.82 1635.53 L2960.35 1602.12 L3043.88 1569.82 L3127.41 1539.00 L3210.94 1509.67 L3294.47 1481.71 L3378.00 1455.22 L3461.53 1430.22 L3545.07 1406.59 L3628.60 1384.56 L3628.60 1058.71 L3545.07 1111.06 L3461.53 1164.03 L3378.00 1217.61 L3294.47 1271.57 L3210.94 1325.78 L3127.41 1380.10 L3043.88 1434.43 L2960.35 1488.51 L2876.82 1542.22 L2793.28 1595.31 L2709.75 1647.66 L2626.22 1699.02 L2542.57 1748.89 L2459.04 1797.15 L2375.51 1843.19 L2291.97 1886.50 L2208.44 1927.59 L2124.91 1967.19 L2041.38 2005.80 L1957.85 2043.42 L1874.32 2079.81 L1790.79 2114.71 L1707.26 2148.12 L1623.72 2179.68 L1540.19 2209.25 L1456.66 2236.48 L1373.13 2261.35 L1289.47 2283.63 L1205.94 2303.55 L1122.41 2321.00 L1038.88 2336.35 L955.35 2349.71 L871.82 2361.22 L788.29 2371.00 L704.76 2379.42 L621.23 2386.59 L537.69 2392.41 L537.69 2402.31 Z" stroke-linecap="round" style="fill:#8585FF;stroke:#6666FF;stroke-width:3.00"/>
	<path d="M537.69 2401.20 L537.69 2401.20 L621.23 2396.25 L704.76 2389.81 L788.29 2381.89 L871.82 2372.36 L955.35 2360.85 L1038.88 2347.36 L1122.41 2331.89 L1205.94 2314.32 L1289.47 2294.64 L1373.13 2272.99 L1456.66 2249.35 L1540.19 2223.49 L1623.72 2195.64 L1707.26 2165.57 L1790.79 2133.27 L1874.32 2098.99 L1957.85 2062.61 L2041.38 2024.37 L2124.91 1984.27 L2208.44 1942.94 L2291.97 1900.86 L2375.51 1858.91 L2459.04 1817.82 L2542.57 1777.72 L2626.22 1738.37 L2709.75 1699.76 L2793.28 1662.01 L2876.82 1625.14 L2960.35 1589.37 L3043.88 1554.84 L3127.41 1521.31 L3210.94 1489.13 L3294.47 1458.32 L3378.00 1428.74 L3461.53 1400.52 L3545.07 1373.79 L3628.60 1348.30 L3628.60 1094.97 L3545.07 1143.86 L3461.53 1193.61 L3378.00 1243.97 L3294.47 1294.96 L3210.94 1346.19 L3127.41 1397.80 L3043.88 1449.53 L2960.35 1501.13 L2876.82 1552.62 L2793.28 1603.73 L2709.75 1654.22 L2626.22 1703.84 L2542.57 1752.48 L2459.04 1799.75 L2375.51 1845.17 L2291.97 1888.24 L2208.44 1929.57 L2124.91 1969.42 L2041.38 2008.15 L1957.85 2045.78 L1874.32 2082.16 L1790.79 2117.06 L1707.26 2150.35 L1623.72 2181.66 L1540.19 2210.99 L1456.66 2238.09 L1373.13 2262.84 L1289.47 2285.12 L1205.94 2304.92 L1122.41 2322.37 L1038.88 2337.71 L955.35 2351.08 L871.82 2362.59 L788.29 2372.36 L704.76 2380.78 L621.23 2387.71 L537.69 2393.52 L537.69 2401.20 Z" stroke-linecap="round" style="fill:#7171FF;stroke:#4D4DFF;stroke-width:3.00"/>
	<path d="M537.69 2400.21 L537.69 2400.21 L621.23 2395.13 L704.76 2388.70 L788.29 2380.65 L871.82 2371.00 L955.35 2359.49 L1038.88 2346.13 L1122.41 2330.66 L1205.94 2313.08 L1289.47 2293.41 L1373.13 2271.63 L1456.66 2247.87 L1540.19 2221.88 L1623.72 2193.78 L1707.26 2163.47 L1790.79 2131.17 L1874.32 2096.76 L1957.85 2060.38 L2041.38 2022.14 L2124.91 1982.29 L2208.44 1941.20 L2291.97 1899.13 L2375.51 1857.05 L2459.04 1815.47 L2542.57 1774.38 L2626.22 1733.79 L2709.75 1693.70 L2793.28 1654.22 L2876.82 1615.61 L2960.35 1577.74 L3043.88 1540.86 L3127.41 1504.97 L3210.94 1470.20 L3294.47 1436.66 L3378.00 1404.24 L3461.53 1373.17 L3545.07 1343.22 L3628.60 1314.64 L3628.60 1128.51 L3545.07 1174.42 L3461.53 1221.08 L3378.00 1268.48 L3294.47 1316.62 L3210.94 1365.13 L3127.41 1414.14 L3043.88 1463.39 L2960.35 1512.89 L2876.82 1562.27 L2793.28 1611.40 L2709.75 1660.16 L2626.22 1708.42 L2542.57 1755.82 L2459.04 1802.23 L2375.51 1847.03 L2291.97 1889.97 L2208.44 1931.30 L2124.91 1971.40 L2041.38 2010.26 L1957.85 2048.00 L1874.32 2084.39 L1790.79 2119.28 L1707.26 2152.33 L1623.72 2183.51 L1540.19 2212.72 L1456.66 2239.57 L1373.13 2264.20 L1289.47 2286.35 L1205.94 2306.15 L1122.41 2323.60 L1038.88 2339.07 L955.35 2352.31 L871.82 2363.82 L788.29 2373.72 L704.76 2382.01 L621.23 2388.82 L537.69 2394.51 L537.69 2400.21 Z" stroke-linecap="round" style="fill:#5C5CFF;stroke:#3333FF;stroke-width:3.00"/>
	<path d="M537.69 2399.22 L537.69 2399.22 L621.23 2394.02 L704.76 2387.46 L788.29 2379.42 L871.82 2369.76 L955.35 2358.25 L1038.88 2344.89 L1122.41 2329.42 L1205.94 2311.85 L1289.47 2292.17 L1373.13 2270.39 L1456.66 2246.38 L1540.19 2220.27 L1623.72 2192.05 L1707.26 2161.61 L1790.79 2129.06 L1874.32 2094.66 L1957.85 2058.27 L2041.38 2020.16 L2124.91 1980.43 L2208.44 1939.47 L2291.97 1897.64 L2375.51 1855.32 L2459.04 1813.24 L2542.57 1771.17 L2626.22 1729.46 L2709.75 1688.00 L2793.28 1646.92 L2876.82 1606.45 L2960.35 1566.60 L3043.88 1527.62 L3127.41 1489.38 L3210.94 1452.25 L3294.47 1416.12 L3378.00 1380.97 L3461.53 1347.06 L3545.07 1314.39 L3628.60 1282.83 L3628.60 1160.44 L3545.07 1203.26 L3461.53 1247.07 L3378.00 1291.74 L3294.47 1337.16 L3210.94 1383.20 L3127.41 1429.73 L3043.88 1476.75 L2960.35 1523.91 L2876.82 1571.30 L2793.28 1618.70 L2709.75 1665.97 L2626.22 1712.75 L2542.57 1759.04 L2459.04 1804.46 L2375.51 1848.76 L2291.97 1891.58 L2208.44 1933.04 L2124.91 1973.26 L2041.38 2012.36 L1957.85 2050.11 L1874.32 2086.49 L1790.79 2121.27 L1707.26 2154.31 L1623.72 2185.25 L1540.19 2214.20 L1456.66 2240.94 L1373.13 2265.44 L1289.47 2287.59 L1205.94 2307.27 L1122.41 2324.84 L1038.88 2340.19 L955.35 2353.55 L871.82 2365.06 L788.29 2374.84 L704.76 2383.13 L621.23 2389.93 L537.69 2395.50 L537.69 2399.22 Z" stroke-linecap="round" style="fill:#4747FF;stroke:#1919FF;stroke-width:3.00"/>
	<path d="M537.69 2398.35 L537.69 2398.35 L621.23 2393.03 L704.76 2386.35 L788.29 2378.30 L871.82 2368.65 L955.35 2357.14 L1038.88 2343.65 L1122.41 2328.31 L1205.94 2310.73 L1289.47 2291.06 L1373.13 2269.15 L1456.66 2245.02 L1540.19 2218.78 L1623.72 2190.32 L1707.26 2159.75 L1790.79 2127.08 L1874.32 2092.55 L1957.85 2056.17 L2041.38 2018.18 L2124.91 1978.70 L2208.44 1937.86 L2291.97 1896.03 L2375.51 1853.71 L2459.04 1811.01 L2542.57 1768.07 L2626.22 1725.25 L2709.75 1682.43 L2793.28 1639.86 L2876.82 1597.54 L2960.35 1555.83 L3043.88 1514.75 L3127.41 1474.40 L3210.94 1434.80 L3294.47 1396.19 L3378.00 1358.57 L3461.53 1321.94 L3545.07 1286.30 L3628.60 1251.89 L3628.60 1191.25 L3545.07 1231.23 L3461.53 1272.31 L3378.00 1314.27 L3294.47 1357.08 L3210.94 1400.52 L3127.41 1444.83 L3043.88 1489.50 L2960.35 1534.67 L2876.82 1580.21 L2793.28 1625.88 L2709.75 1671.54 L2626.22 1716.96 L2542.57 1762.13 L2459.04 1806.68 L2375.51 1850.37 L2291.97 1893.06 L2208.44 1934.64 L2124.91 1975.11 L2041.38 2014.34 L1957.85 2052.21 L1874.32 2088.59 L1790.79 2123.25 L1707.26 2156.16 L1623.72 2186.98 L1540.19 2215.81 L1456.66 2242.30 L1373.13 2266.68 L1289.47 2288.70 L1205.94 2308.50 L1122.41 2325.95 L1038.88 2341.42 L955.35 2354.79 L871.82 2366.30 L788.29 2376.07 L704.76 2384.24 L621.23 2390.92 L537.69 2396.49 L537.69 2398.35 Z" stroke-linecap="round" style="fill:#3333FF;stroke:#0000FF;stroke-width:3.00"/>
	<circle cx="537.57" cy="2411.84" r="22.03" style="fill:#000000;stroke:#000000;stroke-width:8.64"/>
	<circle cx="621.10" cy="2409.61" r="22.03" style="fill:#000000;stroke:#000000;stroke-width:8.64"/>
	<circle cx="704.76" cy="2361.72" r="22.03" style="fill:#000000;stroke:#000000;stroke-width:8.64"/>
	<circle cx="788.29" cy="2339.07" r="22.03" style="fill:#000000;stroke:#000000;stroke-width:8.64"/>
	<circle cx="871.82" cy="2339.07" r="22.03" style="fill:#000000;stroke:#000000;stroke-width:8.64"/>
	<circle cx="955.35" cy="2327.69" r="22.03" style="fill:#000000;stroke:#000000;stroke-width:8.64"/>
	<circle cx="1038.88" cy="2320.76" r="22.03" style="fill:#000000;stroke:#000000;stroke-width:8.64"/>
	<circle cx="1122.41" cy="2307.14" r="22.03" style="fill:#000000;stroke:#000000;stroke-width:8.64"/>
	<circle cx="1205.94" cy="2302.56" r="22.03" style="fill:#000000;stroke:#000000;stroke-width:8.64"/>
	<circle cx="1289.47" cy="2295.76" r="22.03" style="fill:#000000;stroke:#000000;stroke-width:8.64"/>
	<circle cx="1373.01" cy="2295.76" r="22.03" style="fill:#000000;stroke:#000000;stroke-width:8.64"/>
	<circle cx="1456.54" cy="2286.72" r="22.03" style="fill:#000000;stroke:#000000;stroke-width:8.64"/>
	<circle cx="1540.07" cy="2270.76" r="22.03" style="fill:#000000;stroke:#000000;stroke-width:8.64"/>
	<circle cx="1623.60" cy="2234.38" r="22.03" style="fill:#000000;stroke:#000000;stroke-width:8.64"/>
	<circle cx="1707.13" cy="2166.06" r="22.03" style="fill:#000000;stroke:#000000;stroke-width:8.64"/>
	<circle cx="1790.66" cy="2163.84" r="22.03" style="fill:#000000;stroke:#000000;stroke-width:8.64"/>
	<circle cx="1874.19" cy="2045.53" r="22.03" style="fill:#000000;stroke:#000000;stroke-width:8.64"/>
	<circle cx="1957.85" cy="2045.53" r="22.03" style="fill:#000000;stroke:#000000;stroke-width:8.64"/>
	<circle cx="2041.38" cy="1936.25" r="22.03" style="fill:#000000;stroke:#000000;stroke-width:8.64"/>
	<circle cx="2124.91" cy="1934.03" r="22.03" style="fill:#000000;stroke:#000000;stroke-width:8.64"/>
	<circle cx="2208.44" cy="1927.10" r="22.03" style="fill:#000000;stroke:#000000;stroke-width:8.64"/>
	<circle cx="2291.97" cy="1911.25" r="22.03" style="fill:#000000;stroke:#000000;stroke-width:8.64"/>
	<circle cx="2375.51" cy="1874.87" r="22.03" style="fill:#000000;stroke:#000000;stroke-width:8.64"/>
	<circle cx="2459.04" cy="1831.56" r="22.03" style="fill:#000000;stroke:#000000;stroke-width:8.64"/>
	<line x1="390.80" y1="2489.19" x2="390.80" y2="100.86" style="stroke:#000000;stroke-width:5.76"/>
	<line x1="390.80" y1="2414.07" x2="350.83" y2="2414.07" style="stroke:#000000;stroke-width:5.76"/>
	<text x="300.72" y="2414.07" style="font-family:'Helvetica';font-size:99.99px;fill:#000000" transform="rotate(-90 300.72,2414.07)" text-anchor="middle">0</text>
	<line x1="390.80" y1="1664.12" x2="350.83" y2="1664.12" style="stroke:#000000;stroke-width:5.76"/>
	<text x="300.72" y="1664.12" style="font-family:'Helvetica';font-size:99.99px;fill:#000000" transform="rotate(-90 300.72,1664.12)" text-anchor="middle">10</text>
	<line x1="390.80" y1="914.17" x2="350.83" y2="914.17" style="stroke:#000000;stroke-width:5.76"/>
	<text x="300.72" y="914.17" style="font-family:'Helvetica';font-size:99.99px;fill:#000000" transform="rotate(-90 300.72,914.17)" text-anchor="middle">20</text>
	<line x1="390.80" y1="164.22" x2="350.83" y2="164.22" style="stroke:#000000;stroke-width:5.76"/>
	<text x="300.72" y="164.22" style="font-family:'Helvetica';font-size:99.99px;fill:#000000" transform="rotate(-90 300.72,164.22)" text-anchor="middle">30</text>
	<text x="190.71" y="1294.96" style="font-family:'Helvetica';font-size:99.99px;fill:#000000" transform="rotate(-90 190.71,1294.96)" text-anchor="middle">Confirmed cases per 100 beds</text>
	<line x1="390.80" y1="2489.19" x2="3859.02" y2="2489.19" style="stroke:#000000;stroke-width:5.76"/>
	<line x1="454.16" y1="2489.19" x2="454.16" y2="2529.16" style="stroke:#000000;stroke-width:5.76"/>
	<text x="454.16" y="2619.14" style="font-family:'Helvetica';font-size:99.99px;fill:#000000" text-anchor="middle">0</text>
	<line x1="1289.47" y1="2489.19" x2="1289.47" y2="2529.16" style="stroke:#000000;stroke-width:5.76"/>
	<text x="1289.47" y="2619.14" style="font-family:'Helvetica';font-size:99.99px;fill:#000000" text-anchor="middle">10</text>
	<line x1="2124.91" y1="2489.19" x2="2124.91" y2="2529.16" style="stroke:#000000;stroke-width:5.76"/>
	<text x="2124.91" y="2619.14" style="font-family:'Helvetica';font-size:99.99px;fill:#000000" text-anchor="middle">20</text>
	<line x1="2960.35" y1="2489.19" x2="2960.35" y2="2529.16" style="stroke:#000000;stroke-width:5.76"/>
	<text x="2960.35" y="2619.14" style="font-family:'Helvetica';font-size:99.99px;fill:#000000" text-anchor="middle">30</text>
	<line x1="3795.66" y1="2489.19" x2="3795.66" y2="2529.16" style="stroke:#000000;stroke-width:5.76"/>
	<text x="3795.66" y="2619.14" style="font-family:'Helvetica';font-size:99.99px;fill:#000000" text-anchor="middle">40</text>
	<text x="2124.91" y="2729.16" style="font-family:'Helvetica';font-size:99.99px;fill:#000000" text-anchor="middle">Days since 0.01 confirmed cases per 100 beds</text>
</svg>
