<?xml version="1.0" encoding="UTF-8" standalone="no"?>
<!-- This is a Stata 14.2 generated SVG file (http://www.stata.com) -->

<svg version="1.1" width="5.50in" height="4.00in" viewBox="0 0 3960 2880" xmlns="http://www.w3.org/2000/svg">
	<desc>Stata Graph - Graph</desc>
	<line x1="390.80" y1="1376.27" x2="3859.02" y2="1376.27" style="stroke:#FF0000;stroke-width:8.64"/>
	<path d="M561.95 2425.82 L561.95 2425.82 L669.74 2425.20 L777.52 2423.84 L885.31 2421.86 L993.09 2418.89 L1100.88 2414.81 L1208.67 2409.12 L1316.45 2401.82 L1424.24 2392.78 L1532.03 2381.64 L1639.81 2368.53 L1747.60 2352.93 L1855.51 2334.37 L1963.29 2312.09 L2071.08 2285.36 L2178.87 2254.30 L2286.65 2221.63 L2394.44 2190.57 L2502.22 2160.87 L2610.01 2132.53 L2717.80 2106.54 L2825.58 2083.89 L2933.37 2066.07 L3041.16 2054.19 L3148.94 2049.74 L3256.73 2054.07 L3364.51 2068.42 L3472.30 2094.29 L3580.09 2132.90 L3687.87 2185.25 L3795.66 2252.57 L3795.66 164.22 L3687.87 438.83 L3580.09 690.05 L3472.30 918.25 L3364.51 1124.30 L3256.73 1309.07 L3148.94 1473.29 L3041.16 1618.45 L2933.37 1745.55 L2825.58 1855.94 L2717.80 1951.10 L2610.01 2032.41 L2502.22 2101.09 L2394.44 2158.64 L2286.65 2205.29 L2178.87 2241.31 L2071.08 2270.39 L1963.29 2296.01 L1855.51 2318.65 L1747.60 2338.21 L1639.81 2354.91 L1532.03 2368.53 L1424.24 2379.66 L1316.45 2388.45 L1208.67 2395.63 L1100.88 2401.44 L993.09 2406.27 L885.31 2410.23 L777.52 2413.45 L669.74 2416.05 L561.95 2418.15 L561.95 2425.82 Z" stroke-linecap="round" style="fill:#EBEBFF;stroke:#E6E6FF;stroke-width:3.00"/>
	<path d="M561.95 2423.60 L561.95 2423.60 L669.74 2422.48 L777.52 2420.87 L885.31 2418.52 L993.09 2415.30 L1100.88 2410.97 L1208.67 2405.28 L1316.45 2397.98 L1424.24 2388.94 L1532.03 2377.93 L1639.81 2364.57 L1747.60 2348.72 L1855.51 2329.79 L1963.29 2307.39 L2071.08 2281.03 L2178.87 2250.59 L2286.65 2216.93 L2394.44 2181.41 L2502.22 2143.66 L2610.01 2103.57 L2717.80 2061.62 L2825.58 2018.18 L2933.37 1973.50 L3041.16 1928.46 L3148.94 1883.41 L3256.73 1838.98 L3364.51 1795.92 L3472.30 1754.95 L3580.09 1716.47 L3687.87 1681.20 L3795.66 1649.76 L3795.66 766.90 L3687.87 942.88 L3580.09 1106.48 L3472.30 1257.71 L3364.51 1396.81 L3256.73 1524.03 L3148.94 1639.74 L3041.16 1744.19 L2933.37 1837.99 L2825.58 1921.77 L2717.80 1995.90 L2610.01 2061.24 L2502.22 2118.42 L2394.44 2167.80 L2286.65 2210.00 L2178.87 2245.02 L2071.08 2274.72 L1963.29 2300.58 L1855.51 2323.11 L1747.60 2342.54 L1639.81 2358.87 L1532.03 2372.36 L1424.24 2383.38 L1316.45 2392.29 L1208.67 2399.59 L1100.88 2405.28 L993.09 2409.86 L885.31 2413.57 L777.52 2416.42 L669.74 2418.65 L561.95 2420.38 L561.95 2423.60 Z" stroke-linecap="round" style="fill:#D6D6FF;stroke:#CCCCFF;stroke-width:3.00"/>
	<path d="M561.95 2423.22 L561.95 2423.22 L669.74 2422.11 L777.52 2420.38 L885.31 2418.03 L993.09 2414.69 L1100.88 2410.35 L1208.67 2404.66 L1316.45 2397.36 L1424.24 2388.33 L1532.03 2377.31 L1639.81 2363.95 L1747.60 2347.98 L1855.51 2329.05 L1963.29 2306.65 L2071.08 2280.29 L2178.87 2249.97 L2286.65 2216.18 L2394.44 2179.92 L2502.22 2140.82 L2610.01 2098.99 L2717.80 2054.44 L2825.58 2007.54 L2933.37 1958.53 L3041.16 1908.04 L3148.94 1856.43 L3256.73 1804.21 L3364.51 1751.86 L3472.30 1700.01 L3580.09 1649.14 L3687.87 1599.64 L3795.66 1552.24 L3795.66 864.42 L3687.87 1024.43 L3580.09 1173.81 L3472.30 1312.66 L3364.51 1440.87 L3256.73 1558.80 L3148.94 1666.59 L3041.16 1764.48 L2933.37 1852.97 L2825.58 1932.42 L2717.80 2003.20 L2610.01 2065.95 L2502.22 2121.14 L2394.44 2169.28 L2286.65 2210.74 L2178.87 2245.64 L2071.08 2275.46 L1963.29 2301.33 L1855.51 2323.85 L1747.60 2343.16 L1639.81 2359.49 L1532.03 2372.98 L1424.24 2383.99 L1316.45 2393.03 L1208.67 2400.21 L1100.88 2405.90 L993.09 2410.48 L885.31 2414.07 L777.52 2416.91 L669.74 2419.14 L561.95 2420.75 L561.95 2423.22 Z" stroke-linecap="round" style="fill:#C2C2FF;stroke:#B3B3FF;stroke-width:3.00"/>
	<path d="M561.95 2422.98 L561.95 2422.98 L669.74 2421.86 L777.52 2420.01 L885.31 2417.66 L993.09 2414.31 L1100.88 2409.86 L1208.67 2404.17 L1316.45 2396.99 L1424.24 2387.95 L1532.03 2376.82 L1639.81 2363.45 L1747.60 2347.49 L1855.51 2328.55 L1963.29 2306.15 L2071.08 2279.92 L2178.87 2249.47 L2286.65 2215.69 L2394.44 2178.81 L2502.22 2138.96 L2610.01 2095.77 L2717.80 2049.49 L2825.58 2000.36 L2933.37 1948.50 L3041.16 1894.30 L3148.94 1838.24 L3256.73 1780.69 L3364.51 1722.16 L3472.30 1663.00 L3580.09 1603.60 L3687.87 1544.70 L3795.66 1486.53 L3795.66 930.13 L3687.87 1079.38 L3580.09 1219.22 L3472.30 1349.66 L3364.51 1470.69 L3256.73 1582.32 L3148.94 1684.79 L3041.16 1778.22 L2933.37 1863.11 L2825.58 1939.59 L2717.80 2008.15 L2610.01 2069.16 L2502.22 2123.00 L2394.44 2170.40 L2286.65 2211.23 L2178.87 2246.13 L2071.08 2275.83 L1963.29 2301.82 L1855.51 2324.35 L1747.60 2343.65 L1639.81 2359.86 L1532.03 2373.35 L1424.24 2384.37 L1316.45 2393.40 L1208.67 2400.58 L1100.88 2406.39 L993.09 2410.85 L885.31 2414.44 L777.52 2417.28 L669.74 2419.39 L561.95 2421.00 L561.95 2422.98 Z" stroke-linecap="round" style="fill:#ADADFF;stroke:#9999FF;stroke-width:3.00"/>
	<path d="M561.95 2422.85 L561.95 2422.85 L669.74 2421.62 L777.52 2419.76 L885.31 2417.28 L993.09 2413.94 L1100.88 2409.61 L1208.67 2403.80 L1316.45 2396.62 L1424.24 2387.58 L1532.03 2376.57 L1639.81 2363.20 L1747.60 2347.12 L1855.51 2328.18 L1963.29 2305.78 L2071.08 2279.55 L2178.87 2249.23 L2286.65 2215.19 L2394.44 2178.07 L2502.22 2137.48 L2610.01 2093.30 L2717.80 2045.65 L2825.58 1994.54 L2933.37 1940.46 L3041.16 1883.41 L3148.94 1823.88 L3256.73 1762.13 L3364.51 1698.52 L3472.30 1633.55 L3580.09 1567.47 L3687.87 1500.89 L3795.66 1434.18 L3795.66 982.48 L3687.87 1123.19 L3580.09 1255.36 L3472.30 1379.11 L3364.51 1494.33 L3256.73 1600.88 L3148.94 1699.14 L3041.16 1789.11 L2933.37 1871.16 L2825.58 1945.29 L2717.80 2011.99 L2610.01 2071.64 L2502.22 2124.61 L2394.44 2171.14 L2286.65 2211.73 L2178.87 2246.38 L2071.08 2276.20 L1963.29 2302.32 L1855.51 2324.72 L1747.60 2344.02 L1639.81 2360.23 L1532.03 2373.72 L1424.24 2384.74 L1316.45 2393.77 L1208.67 2400.95 L1100.88 2406.64 L993.09 2411.22 L885.31 2414.81 L777.52 2417.53 L669.74 2419.64 L561.95 2421.24 L561.95 2422.85 Z" stroke-linecap="round" style="fill:#9999FF;stroke:#8080FF;stroke-width:3.00"/>
	<path d="M561.95 2422.73 L561.95 2422.73 L669.74 2421.37 L777.52 2419.51 L885.31 2417.04 L993.09 2413.70 L1100.88 2409.24 L1208.67 2403.55 L1316.45 2396.37 L1424.24 2387.34 L1532.03 2376.20 L1639.81 2362.83 L1747.60 2346.87 L1855.51 2327.81 L1963.29 2305.41 L2071.08 2279.17 L2178.87 2248.98 L2286.65 2214.82 L2394.44 2177.33 L2502.22 2136.24 L2610.01 2091.19 L2717.80 2042.31 L2825.58 1989.71 L2933.37 1933.53 L3041.16 1874.13 L3148.94 1811.51 L3256.73 1746.04 L3364.51 1678.23 L3472.30 1608.31 L3580.09 1536.53 L3687.87 1463.39 L3795.66 1389.38 L3795.66 1027.28 L3687.87 1160.69 L3580.09 1286.42 L3472.30 1404.36 L3364.51 1514.62 L3256.73 1616.97 L3148.94 1711.52 L3041.16 1798.51 L2933.37 1877.96 L2825.58 1950.11 L2717.80 2015.33 L2610.01 2073.74 L2502.22 2125.84 L2394.44 2171.88 L2286.65 2212.10 L2178.87 2246.63 L2071.08 2276.58 L1963.29 2302.56 L1855.51 2325.09 L1747.60 2344.27 L1639.81 2360.48 L1532.03 2373.97 L1424.24 2384.98 L1316.45 2394.02 L1208.67 2401.20 L1100.88 2407.01 L993.09 2411.47 L885.31 2415.06 L777.52 2417.78 L669.74 2419.76 L561.95 2421.37 L561.95 2422.73 Z" stroke-linecap="round" style="fill:#8585FF;stroke:#6666FF;stroke-width:3.00"/>
	<path d="M561.95 2422.48 L561.95 2422.48 L669.74 2421.24 L777.52 2419.39 L885.31 2416.79 L993.09 2413.45 L1100.88 2408.99 L1208.67 2403.30 L1316.45 2396.12 L1424.24 2387.09 L1532.03 2375.95 L1639.81 2362.59 L1747.60 2346.62 L1855.51 2327.56 L1963.29 2305.04 L2071.08 2278.93 L2178.87 2248.61 L2286.65 2214.58 L2394.44 2176.71 L2502.22 2135.00 L2610.01 2089.21 L2717.80 2039.34 L2825.58 1985.26 L2933.37 1927.34 L3041.16 1865.71 L3148.94 1800.37 L3256.73 1731.69 L3364.51 1660.03 L3472.30 1585.53 L3580.09 1508.68 L3687.87 1429.73 L3795.66 1349.04 L3795.66 1067.62 L3687.87 1194.35 L3580.09 1314.27 L3472.30 1427.01 L3364.51 1532.82 L3256.73 1631.32 L3148.94 1722.65 L3041.16 1806.93 L2933.37 1884.15 L2825.58 1954.57 L2717.80 2018.30 L2610.01 2075.72 L2502.22 2126.96 L2394.44 2172.50 L2286.65 2212.35 L2178.87 2246.88 L2071.08 2276.82 L1963.29 2302.94 L1855.51 2325.46 L1747.60 2344.64 L1639.81 2360.73 L1532.03 2374.22 L1424.24 2385.23 L1316.45 2394.27 L1208.67 2401.44 L1100.88 2407.26 L993.09 2411.72 L885.31 2415.30 L777.52 2417.90 L669.74 2420.01 L561.95 2421.49 L561.95 2422.48 Z" stroke-linecap="round" style="fill:#7171FF;stroke:#4D4DFF;stroke-width:3.00"/>
	<path d="M561.95 2422.36 L561.95 2422.36 L669.74 2421.00 L777.52 2419.14 L885.31 2416.67 L993.09 2413.20 L1100.88 2408.75 L1208.67 2403.05 L1316.45 2395.87 L1424.24 2386.84 L1532.03 2375.83 L1639.81 2362.34 L1747.60 2346.37 L1855.51 2327.19 L1963.29 2304.79 L2071.08 2278.68 L2178.87 2248.48 L2286.65 2214.33 L2394.44 2176.21 L2502.22 2134.01 L2610.01 2087.36 L2717.80 2036.49 L2825.58 1981.18 L2933.37 1921.65 L3041.16 1857.92 L3148.94 1790.10 L3256.73 1718.45 L3364.51 1643.20 L3472.30 1564.50 L3580.09 1482.94 L3687.87 1398.54 L3795.66 1311.79 L3795.66 1104.87 L3687.87 1225.53 L3580.09 1340.01 L3472.30 1448.04 L3364.51 1549.65 L3256.73 1644.69 L3148.94 1732.93 L3041.16 1814.73 L2933.37 1889.85 L2825.58 1958.65 L2717.80 2021.15 L2610.01 2077.46 L2502.22 2128.07 L2394.44 2172.99 L2286.65 2212.60 L2178.87 2247.12 L2071.08 2277.19 L1963.29 2303.18 L1855.51 2325.71 L1747.60 2344.89 L1639.81 2360.98 L1532.03 2374.47 L1424.24 2385.48 L1316.45 2394.51 L1208.67 2401.69 L1100.88 2407.51 L993.09 2411.96 L885.31 2415.43 L777.52 2418.15 L669.74 2420.13 L561.95 2421.62 L561.95 2422.36 Z" stroke-linecap="round" style="fill:#5C5CFF;stroke:#3333FF;stroke-width:3.00"/>
	<path d="M561.95 2422.23 L561.95 2422.23 L669.74 2420.87 L777.52 2419.02 L885.31 2416.42 L993.09 2412.95 L1100.88 2408.50 L1208.67 2402.81 L1316.45 2395.63 L1424.24 2386.59 L1532.03 2375.58 L1639.81 2362.09 L1747.60 2346.13 L1855.51 2326.94 L1963.29 2304.54 L2071.08 2278.31 L2178.87 2248.24 L2286.65 2213.96 L2394.44 2175.59 L2502.22 2132.90 L2610.01 2085.75 L2717.80 2033.89 L2825.58 1977.34 L2933.37 1916.20 L3041.16 1850.49 L3148.94 1780.32 L3256.73 1705.82 L3364.51 1627.12 L3472.30 1544.57 L3580.09 1458.44 L3687.87 1368.97 L3795.66 1276.27 L3795.66 1140.39 L3687.87 1255.24 L3580.09 1364.51 L3472.30 1467.97 L3364.51 1565.61 L3256.73 1657.31 L3148.94 1742.70 L3041.16 1822.15 L2933.37 1895.29 L2825.58 1962.49 L2717.80 2023.75 L2610.01 2079.19 L2502.22 2129.06 L2394.44 2173.61 L2286.65 2212.97 L2178.87 2247.37 L2071.08 2277.44 L1963.29 2303.43 L1855.51 2325.95 L1747.60 2345.14 L1639.81 2361.22 L1532.03 2374.71 L1424.24 2385.73 L1316.45 2394.76 L1208.67 2401.94 L1100.88 2407.63 L993.09 2412.21 L885.31 2415.68 L777.52 2418.27 L669.74 2420.25 L561.95 2421.74 L561.95 2422.23 Z" stroke-linecap="round" style="fill:#4747FF;stroke:#1919FF;stroke-width:3.00"/>
	<path d="M561.95 2422.11 L561.95 2422.11 L669.74 2420.75 L777.52 2418.77 L885.31 2416.17 L993.09 2412.83 L1100.88 2408.37 L1208.67 2402.56 L1316.45 2395.38 L1424.24 2386.35 L1532.03 2375.33 L1639.81 2361.97 L1747.60 2345.88 L1855.51 2326.70 L1963.29 2304.30 L2071.08 2278.18 L2178.87 2247.99 L2286.65 2213.71 L2394.44 2175.10 L2502.22 2131.91 L2610.01 2084.02 L2717.80 2031.30 L2825.58 1973.63 L2933.37 1911.01 L3041.16 1843.31 L3148.94 1770.79 L3256.73 1693.57 L3364.51 1611.65 L3472.30 1525.27 L3580.09 1434.80 L3687.87 1340.25 L3795.66 1242.12 L3795.66 1174.67 L3687.87 1283.82 L3580.09 1388.15 L3472.30 1487.27 L3364.51 1581.20 L3256.73 1669.44 L3148.94 1752.23 L3041.16 1829.21 L2933.37 1900.61 L2825.58 1966.20 L2717.80 2026.35 L2610.01 2080.80 L2502.22 2130.05 L2394.44 2174.11 L2286.65 2213.21 L2178.87 2247.62 L2071.08 2277.69 L1963.29 2303.80 L1855.51 2326.20 L1747.60 2345.38 L1639.81 2361.47 L1532.03 2374.96 L1424.24 2385.97 L1316.45 2395.01 L1208.67 2402.19 L1100.88 2407.88 L993.09 2412.33 L885.31 2415.80 L777.52 2418.52 L669.74 2420.50 L561.95 2421.86 L561.95 2422.11 Z" stroke-linecap="round" style="fill:#3333FF;stroke:#0000FF;stroke-width:3.00"/>
	<circle cx="561.83" cy="2424.09" r="22.03" style="fill:#000000;stroke:#000000;stroke-width:8.64"/>
	<circle cx="669.61" cy="2423.47" r="22.03" style="fill:#000000;stroke:#000000;stroke-width:8.64"/>
	<circle cx="777.40" cy="2421.99" r="22.03" style="fill:#000000;stroke:#000000;stroke-width:8.64"/>
	<circle cx="885.31" cy="2418.15" r="22.03" style="fill:#000000;stroke:#000000;stroke-width:8.64"/>
	<circle cx="993.09" cy="2409.86" r="22.03" style="fill:#000000;stroke:#000000;stroke-width:8.64"/>
	<circle cx="1100.88" cy="2401.44" r="22.03" style="fill:#000000;stroke:#000000;stroke-width:8.64"/>
	<circle cx="1208.67" cy="2396.99" r="22.03" style="fill:#000000;stroke:#000000;stroke-width:8.64"/>
	<circle cx="1316.45" cy="2391.54" r="22.03" style="fill:#000000;stroke:#000000;stroke-width:8.64"/>
	<circle cx="1424.24" cy="2387.58" r="22.03" style="fill:#000000;stroke:#000000;stroke-width:8.64"/>
	<circle cx="1532.03" cy="2380.90" r="22.03" style="fill:#000000;stroke:#000000;stroke-width:8.64"/>
	<circle cx="1639.81" cy="2368.90" r="22.03" style="fill:#000000;stroke:#000000;stroke-width:8.64"/>
	<circle cx="1747.60" cy="2346.25" r="22.03" style="fill:#000000;stroke:#000000;stroke-width:8.64"/>
	<circle cx="1855.38" cy="2327.93" r="22.03" style="fill:#000000;stroke:#000000;stroke-width:8.64"/>
	<circle cx="1963.17" cy="2300.09" r="22.03" style="fill:#000000;stroke:#000000;stroke-width:8.64"/>
	<circle cx="2070.96" cy="2272.00" r="22.03" style="fill:#000000;stroke:#000000;stroke-width:8.64"/>
	<circle cx="2178.74" cy="2249.72" r="22.03" style="fill:#000000;stroke:#000000;stroke-width:8.64"/>
	<circle cx="2286.53" cy="2215.32" r="22.03" style="fill:#000000;stroke:#000000;stroke-width:8.64"/>
	<line x1="390.80" y1="2489.19" x2="390.80" y2="100.86" style="stroke:#000000;stroke-width:5.76"/>
	<line x1="390.80" y1="2425.20" x2="350.83" y2="2425.20" style="stroke:#000000;stroke-width:5.76"/>
	<text x="300.72" y="2425.20" style="font-family:'Helvetica';font-size:99.99px;fill:#000000" transform="rotate(-90 300.72,2425.20)" text-anchor="middle">0</text>
	<line x1="390.80" y1="1900.74" x2="350.83" y2="1900.74" style="stroke:#000000;stroke-width:5.76"/>
	<text x="300.72" y="1900.74" style="font-family:'Helvetica';font-size:99.99px;fill:#000000" transform="rotate(-90 300.72,1900.74)" text-anchor="middle">5</text>
	<line x1="390.80" y1="1376.27" x2="350.83" y2="1376.27" style="stroke:#000000;stroke-width:5.76"/>
	<text x="300.72" y="1376.27" style="font-family:'Helvetica';font-size:99.99px;fill:#000000" transform="rotate(-90 300.72,1376.27)" text-anchor="middle">10</text>
	<line x1="390.80" y1="851.80" x2="350.83" y2="851.80" style="stroke:#000000;stroke-width:5.76"/>
	<text x="300.72" y="851.80" style="font-family:'Helvetica';font-size:99.99px;fill:#000000" transform="rotate(-90 300.72,851.80)" text-anchor="middle">15</text>
	<line x1="390.80" y1="327.45" x2="350.83" y2="327.45" style="stroke:#000000;stroke-width:5.76"/>
	<text x="300.72" y="327.45" style="font-family:'Helvetica';font-size:99.99px;fill:#000000" transform="rotate(-90 300.72,327.45)" text-anchor="middle">20</text>
	<text x="190.71" y="1294.96" style="font-family:'Helvetica';font-size:99.99px;fill:#000000" transform="rotate(-90 190.71,1294.96)" text-anchor="middle">Confirmed cases per 100 beds</text>
	<line x1="390.80" y1="2489.19" x2="3859.02" y2="2489.19" style="stroke:#000000;stroke-width:5.76"/>
	<line x1="454.16" y1="2489.19" x2="454.16" y2="2529.16" style="stroke:#000000;stroke-width:5.76"/>
	<text x="454.16" y="2619.14" style="font-family:'Helvetica';font-size:99.99px;fill:#000000" text-anchor="middle">0</text>
	<line x1="1532.03" y1="2489.19" x2="1532.03" y2="2529.16" style="stroke:#000000;stroke-width:5.76"/>
	<text x="1532.03" y="2619.14" style="font-family:'Helvetica';font-size:99.99px;fill:#000000" text-anchor="middle">10</text>
	<line x1="2610.01" y1="2489.19" x2="2610.01" y2="2529.16" style="stroke:#000000;stroke-width:5.76"/>
	<text x="2610.01" y="2619.14" style="font-family:'Helvetica';font-size:99.99px;fill:#000000" text-anchor="middle">20</text>
	<line x1="3687.87" y1="2489.19" x2="3687.87" y2="2529.16" style="stroke:#000000;stroke-width:5.76"/>
	<text x="3687.87" y="2619.14" style="font-family:'Helvetica';font-size:99.99px;fill:#000000" text-anchor="middle">30</text>
	<text x="2124.91" y="2729.16" style="font-family:'Helvetica';font-size:99.99px;fill:#000000" text-anchor="middle">Days since 0.01 confirmed cases per 100 beds</text>
</svg>
