<?xml version="1.0" encoding="UTF-8" standalone="no"?>
<!-- This is a Stata 14.2 generated SVG file (http://www.stata.com) -->

<svg version="1.1" width="5.50in" height="4.00in" viewBox="0 0 3960 2880" xmlns="http://www.w3.org/2000/svg">
	<desc>Stata Graph - Graph</desc>
	<line x1="390.80" y1="1866.83" x2="3859.02" y2="1866.83" style="stroke:#FF0000;stroke-width:8.64"/>
	<path d="M565.54 2425.58 L565.54 2425.58 L676.91 2425.20 L788.29 2424.83 L899.66 2424.09 L1011.04 2423.22 L1122.41 2421.99 L1233.79 2420.25 L1345.29 2417.90 L1456.66 2414.81 L1568.04 2410.97 L1679.41 2406.15 L1790.79 2400.58 L1902.16 2394.51 L2013.54 2387.95 L2124.91 2380.90 L2236.29 2373.35 L2347.66 2365.18 L2459.04 2356.52 L2570.53 2347.24 L2681.91 2337.71 L2793.28 2328.06 L2904.66 2318.53 L3016.03 2309.62 L3127.41 2301.82 L3238.78 2296.01 L3350.16 2293.04 L3461.53 2294.15 L3572.91 2300.71 L3684.28 2314.57 L3795.66 2337.96 L3795.66 164.22 L3684.28 576.07 L3572.91 918.25 L3461.53 1201.40 L3350.16 1435.17 L3238.78 1627.24 L3127.41 1784.65 L3016.03 1912.99 L2904.66 2017.31 L2793.28 2101.84 L2681.91 2170.02 L2570.53 2224.60 L2459.04 2268.28 L2347.66 2302.94 L2236.29 2330.41 L2124.91 2351.82 L2013.54 2368.40 L1902.16 2381.02 L1790.79 2390.31 L1679.41 2397.24 L1568.04 2402.56 L1456.66 2406.64 L1345.29 2410.11 L1233.79 2412.83 L1122.41 2415.18 L1011.04 2417.16 L899.66 2418.77 L788.29 2420.13 L676.91 2421.12 L565.54 2422.11 L565.54 2425.58 Z" stroke-linecap="round" style="fill:#EBEBFF;stroke:#E6E6FF;stroke-width:3.00"/>
	<path d="M565.54 2424.59 L565.54 2424.59 L676.91 2424.09 L788.29 2423.47 L899.66 2422.61 L1011.04 2421.49 L1122.41 2420.01 L1233.79 2418.03 L1345.29 2415.68 L1456.66 2412.46 L1568.04 2408.50 L1679.41 2403.55 L1790.79 2397.61 L1902.16 2390.55 L2013.54 2382.26 L2124.91 2372.49 L2236.29 2360.98 L2347.66 2347.24 L2459.04 2331.03 L2570.53 2311.85 L2681.91 2289.32 L2793.28 2262.72 L2904.66 2231.53 L3016.03 2195.15 L3127.41 2152.57 L3238.78 2103.07 L3350.16 2045.40 L3461.53 1978.82 L3572.91 1901.73 L3684.28 1812.87 L3795.66 1710.65 L3795.66 791.53 L3684.28 1077.77 L3572.91 1317.24 L3461.53 1516.85 L3350.16 1682.81 L3238.78 1820.30 L3127.41 1933.90 L3016.03 2027.46 L2904.66 2104.31 L2793.28 2167.18 L2681.91 2218.41 L2570.53 2259.99 L2459.04 2293.78 L2347.66 2321.00 L2236.29 2342.78 L2124.91 2360.23 L2013.54 2373.97 L1902.16 2384.86 L1790.79 2393.28 L1679.41 2399.83 L1568.04 2404.91 L1456.66 2408.99 L1345.29 2412.33 L1233.79 2414.93 L1122.41 2417.16 L1011.04 2418.89 L899.66 2420.25 L788.29 2421.49 L676.91 2422.36 L565.54 2423.10 L565.54 2424.59 Z" stroke-linecap="round" style="fill:#D6D6FF;stroke:#CCCCFF;stroke-width:3.00"/>
	<path d="M565.54 2424.34 L565.54 2424.34 L676.91 2423.84 L788.29 2423.22 L899.66 2422.36 L1011.04 2421.12 L1122.41 2419.64 L1233.79 2417.78 L1345.29 2415.30 L1456.66 2412.09 L1568.04 2408.13 L1679.41 2403.18 L1790.79 2397.11 L1902.16 2389.93 L2013.54 2381.40 L2124.91 2371.12 L2236.29 2359.00 L2347.66 2344.39 L2459.04 2326.94 L2570.53 2306.15 L2681.91 2281.53 L2793.28 2252.20 L2904.66 2217.55 L3016.03 2176.58 L3127.41 2128.44 L3238.78 2071.76 L3350.16 2005.43 L3461.53 1927.71 L3572.91 1837.13 L3684.28 1731.69 L3795.66 1609.05 L3795.66 893.01 L3684.28 1158.95 L3572.91 1381.71 L3461.53 1567.84 L3350.16 1722.78 L3238.78 1851.48 L3127.41 1958.03 L3016.03 2046.02 L2904.66 2118.29 L2793.28 2177.70 L2681.91 2226.21 L2570.53 2265.81 L2459.04 2297.86 L2347.66 2323.85 L2236.29 2344.76 L2124.91 2361.60 L2013.54 2374.96 L1902.16 2385.48 L1790.79 2393.77 L1679.41 2400.21 L1568.04 2405.28 L1456.66 2409.36 L1345.29 2412.71 L1233.79 2415.30 L1122.41 2417.41 L1011.04 2419.14 L899.66 2420.50 L788.29 2421.62 L676.91 2422.61 L565.54 2423.22 L565.54 2424.34 Z" stroke-linecap="round" style="fill:#C2C2FF;stroke:#B3B3FF;stroke-width:3.00"/>
	<path d="M565.54 2424.34 L565.54 2424.34 L676.91 2423.72 L788.29 2423.10 L899.66 2422.11 L1011.04 2421.00 L1122.41 2419.51 L1233.79 2417.53 L1345.29 2415.06 L1456.66 2411.84 L1568.04 2407.88 L1679.41 2402.93 L1790.79 2396.86 L1902.16 2389.56 L2013.54 2380.78 L2124.91 2370.26 L2236.29 2357.63 L2347.66 2342.41 L2459.04 2324.10 L2570.53 2302.32 L2681.91 2276.20 L2793.28 2245.02 L2904.66 2208.02 L3016.03 2164.08 L3127.41 2112.11 L3238.78 2050.73 L3350.16 1978.33 L3461.53 1893.31 L3572.91 1793.56 L3684.28 1676.86 L3795.66 1540.61 L3795.66 961.57 L3684.28 1213.78 L3572.91 1425.27 L3461.53 1602.24 L3350.16 1749.88 L3238.78 1872.52 L3127.41 1974.37 L3016.03 2058.52 L2904.66 2127.82 L2793.28 2184.87 L2681.91 2231.53 L2570.53 2269.65 L2459.04 2300.71 L2347.66 2325.83 L2236.29 2346.13 L2124.91 2362.46 L2013.54 2375.58 L1902.16 2385.97 L1790.79 2394.14 L1679.41 2400.58 L1568.04 2405.65 L1456.66 2409.61 L1345.29 2412.95 L1233.79 2415.55 L1122.41 2417.66 L1011.04 2419.39 L899.66 2420.75 L788.29 2421.86 L676.91 2422.73 L565.54 2423.35 L565.54 2424.34 Z" stroke-linecap="round" style="fill:#ADADFF;stroke:#9999FF;stroke-width:3.00"/>
	<path d="M565.54 2424.21 L565.54 2424.21 L676.91 2423.60 L788.29 2422.98 L899.66 2421.99 L1011.04 2420.87 L1122.41 2419.26 L1233.79 2417.28 L1345.29 2414.81 L1456.66 2411.59 L1568.04 2407.63 L1679.41 2402.68 L1790.79 2396.62 L1902.16 2389.19 L2013.54 2380.28 L2124.91 2369.52 L2236.29 2356.52 L2347.66 2340.80 L2459.04 2321.99 L2570.53 2299.22 L2681.91 2272.00 L2793.28 2239.45 L2904.66 2200.47 L3016.03 2154.18 L3127.41 2099.11 L3238.78 2034.02 L3350.16 1956.92 L3461.53 1865.96 L3572.91 1759.04 L3684.28 1633.43 L3795.66 1486.16 L3795.66 1015.90 L3684.28 1257.34 L3572.91 1459.92 L3461.53 1629.59 L3350.16 1771.29 L3238.78 1889.35 L3127.41 1987.24 L3016.03 2068.42 L2904.66 2135.37 L2793.28 2190.44 L2681.91 2235.74 L2570.53 2272.74 L2459.04 2302.81 L2347.66 2327.32 L2236.29 2347.24 L2124.91 2363.20 L2013.54 2376.07 L1902.16 2386.22 L1790.79 2394.39 L1679.41 2400.70 L1568.04 2405.78 L1456.66 2409.86 L1345.29 2413.08 L1233.79 2415.68 L1122.41 2417.78 L1011.04 2419.51 L899.66 2420.87 L788.29 2421.86 L676.91 2422.73 L565.54 2423.47 L565.54 2424.21 Z" stroke-linecap="round" style="fill:#9999FF;stroke:#8080FF;stroke-width:3.00"/>
	<path d="M565.54 2424.09 L565.54 2424.09 L676.91 2423.60 L788.29 2422.85 L899.66 2421.86 L1011.04 2420.75 L1122.41 2419.14 L1233.79 2417.16 L1345.29 2414.69 L1456.66 2411.47 L1568.04 2407.51 L1679.41 2402.43 L1790.79 2396.37 L1902.16 2388.94 L2013.54 2379.91 L2124.91 2368.90 L2236.29 2355.53 L2347.66 2339.44 L2459.04 2320.01 L2570.53 2296.62 L2681.91 2268.41 L2793.28 2234.50 L2904.66 2194.03 L3016.03 2145.64 L3127.41 2088.10 L3238.78 2019.66 L3350.16 1938.48 L3461.53 1842.57 L3572.91 1729.34 L3684.28 1596.05 L3795.66 1439.50 L3795.66 1062.67 L3684.28 1294.59 L3572.91 1489.63 L3461.53 1653.10 L3350.16 1789.73 L3238.78 1903.71 L3127.41 1998.38 L3016.03 2076.96 L2904.66 2141.81 L2793.28 2195.39 L2681.91 2239.33 L2570.53 2275.34 L2459.04 2304.79 L2347.66 2328.68 L2236.29 2348.11 L2124.91 2363.82 L2013.54 2376.45 L1902.16 2386.59 L1790.79 2394.64 L1679.41 2400.95 L1568.04 2406.02 L1456.66 2410.11 L1345.29 2413.32 L1233.79 2415.92 L1122.41 2418.03 L1011.04 2419.64 L899.66 2421.00 L788.29 2421.99 L676.91 2422.85 L565.54 2423.47 L565.54 2424.09 Z" stroke-linecap="round" style="fill:#8585FF;stroke:#6666FF;stroke-width:3.00"/>
	<path d="M565.54 2424.09 L565.54 2424.09 L676.91 2423.47 L788.29 2422.73 L899.66 2421.86 L1011.04 2420.63 L1122.41 2419.02 L1233.79 2417.04 L1345.29 2414.44 L1456.66 2411.34 L1568.04 2407.26 L1679.41 2402.31 L1790.79 2396.12 L1902.16 2388.57 L2013.54 2379.42 L2124.91 2368.28 L2236.29 2354.79 L2347.66 2338.33 L2459.04 2318.40 L2570.53 2294.27 L2681.91 2265.19 L2793.28 2230.17 L2904.66 2188.22 L3016.03 2137.97 L3127.41 2078.07 L3238.78 2006.67 L3350.16 1921.90 L3461.53 1821.41 L3572.91 1702.61 L3684.28 1562.52 L3795.66 1397.55 L3795.66 1104.63 L3684.28 1328.13 L3572.91 1516.23 L3461.53 1674.14 L3350.16 1806.31 L3238.78 1916.58 L3127.41 2008.40 L3016.03 2084.51 L2904.66 2147.62 L2793.28 2199.72 L2681.91 2242.54 L2570.53 2277.69 L2459.04 2306.40 L2347.66 2329.91 L2236.29 2348.97 L2124.91 2364.44 L2013.54 2376.82 L1902.16 2386.84 L1790.79 2394.76 L1679.41 2401.07 L1568.04 2406.15 L1456.66 2410.23 L1345.29 2413.45 L1233.79 2416.05 L1122.41 2418.15 L1011.04 2419.76 L899.66 2421.12 L788.29 2422.11 L676.91 2422.98 L565.54 2423.60 L565.54 2424.09 Z" stroke-linecap="round" style="fill:#7171FF;stroke:#4D4DFF;stroke-width:3.00"/>
	<path d="M565.54 2423.97 L565.54 2423.97 L676.91 2423.47 L788.29 2422.61 L899.66 2421.74 L1011.04 2420.50 L1122.41 2418.89 L1233.79 2416.91 L1345.29 2414.31 L1456.66 2411.22 L1568.04 2407.14 L1679.41 2402.19 L1790.79 2396.00 L1902.16 2388.45 L2013.54 2379.17 L2124.91 2367.78 L2236.29 2354.05 L2347.66 2337.22 L2459.04 2316.80 L2570.53 2292.05 L2681.91 2262.10 L2793.28 2226.08 L2904.66 2182.89 L3016.03 2130.92 L3127.41 2068.79 L3238.78 1994.79 L3350.16 1906.55 L3461.53 1801.86 L3572.91 1677.98 L3684.28 1531.45 L3795.66 1358.69 L3795.66 1143.49 L3684.28 1359.19 L3572.91 1540.98 L3461.53 1693.70 L3350.16 1821.66 L3238.78 1928.46 L3127.41 2017.56 L3016.03 2091.69 L2904.66 2153.07 L2793.28 2203.69 L2681.91 2245.51 L2570.53 2279.92 L2459.04 2308.01 L2347.66 2331.03 L2236.29 2349.71 L2124.91 2364.94 L2013.54 2377.19 L1902.16 2387.09 L1790.79 2395.01 L1679.41 2401.32 L1568.04 2406.27 L1456.66 2410.35 L1345.29 2413.57 L1233.79 2416.17 L1122.41 2418.27 L1011.04 2419.88 L899.66 2421.12 L788.29 2422.23 L676.91 2422.98 L565.54 2423.60 L565.54 2423.97 Z" stroke-linecap="round" style="fill:#5C5CFF;stroke:#3333FF;stroke-width:3.00"/>
	<path d="M565.54 2423.97 L565.54 2423.97 L676.91 2423.35 L788.29 2422.61 L899.66 2421.62 L1011.04 2420.38 L1122.41 2418.77 L1233.79 2416.79 L1345.29 2414.19 L1456.66 2410.97 L1568.04 2407.01 L1679.41 2402.06 L1790.79 2395.75 L1902.16 2388.20 L2013.54 2378.80 L2124.91 2367.29 L2236.29 2353.30 L2347.66 2336.10 L2459.04 2315.31 L2570.53 2289.94 L2681.91 2259.25 L2793.28 2222.25 L2904.66 2177.70 L3016.03 2124.24 L3127.41 2060.01 L3238.78 1983.40 L3350.16 1892.07 L3461.53 1783.42 L3572.91 1654.47 L3684.28 1502.00 L3795.66 1321.82 L3795.66 1180.24 L3684.28 1388.77 L3572.91 1564.50 L3461.53 1712.26 L3350.16 1836.14 L3238.78 1939.84 L3127.41 2026.35 L3016.03 2098.37 L2904.66 2158.14 L2793.28 2207.52 L2681.91 2248.36 L2570.53 2282.02 L2459.04 2309.49 L2347.66 2332.02 L2236.29 2350.46 L2124.91 2365.43 L2013.54 2377.56 L1902.16 2387.34 L1790.79 2395.13 L1679.41 2401.44 L1568.04 2406.52 L1456.66 2410.48 L1345.29 2413.70 L1233.79 2416.29 L1122.41 2418.40 L1011.04 2420.01 L899.66 2421.24 L788.29 2422.23 L676.91 2423.10 L565.54 2423.72 L565.54 2423.97 Z" stroke-linecap="round" style="fill:#4747FF;stroke:#1919FF;stroke-width:3.00"/>
	<path d="M565.54 2423.84 L565.54 2423.84 L676.91 2423.22 L788.29 2422.48 L899.66 2421.49 L1011.04 2420.25 L1122.41 2418.65 L1233.79 2416.67 L1345.29 2414.07 L1456.66 2410.85 L1568.04 2406.89 L1679.41 2401.82 L1790.79 2395.63 L1902.16 2387.95 L2013.54 2378.43 L2124.91 2366.79 L2236.29 2352.56 L2347.66 2335.11 L2459.04 2313.83 L2570.53 2287.96 L2681.91 2256.53 L2793.28 2218.54 L2904.66 2172.75 L3016.03 2117.68 L3127.41 2051.59 L3238.78 1972.39 L3350.16 1877.96 L3461.53 1765.47 L3572.91 1631.82 L3684.28 1473.41 L3795.66 1286.17 L3795.66 1216.01 L3684.28 1417.23 L3572.91 1587.14 L3461.53 1730.20 L3350.16 1850.24 L3238.78 1950.86 L3127.41 2034.88 L3016.03 2104.93 L2904.66 2163.09 L2793.28 2211.23 L2681.91 2251.08 L2570.53 2284.00 L2459.04 2310.98 L2347.66 2333.13 L2236.29 2351.20 L2124.91 2365.93 L2013.54 2377.81 L1902.16 2387.46 L1790.79 2395.26 L1679.41 2401.57 L1568.04 2406.64 L1456.66 2410.60 L1345.29 2413.82 L1233.79 2416.42 L1122.41 2418.40 L1011.04 2420.13 L899.66 2421.37 L788.29 2422.36 L676.91 2423.10 L565.54 2423.72 L565.54 2423.84 Z" stroke-linecap="round" style="fill:#3333FF;stroke:#0000FF;stroke-width:3.00"/>
	<circle cx="565.41" cy="2422.73" r="22.03" style="fill:#000000;stroke:#000000;stroke-width:8.64"/>
	<circle cx="676.79" cy="2421.86" r="22.03" style="fill:#000000;stroke:#000000;stroke-width:8.64"/>
	<circle cx="788.29" cy="2421.24" r="22.03" style="fill:#000000;stroke:#000000;stroke-width:8.64"/>
	<circle cx="899.66" cy="2419.76" r="22.03" style="fill:#000000;stroke:#000000;stroke-width:8.64"/>
	<circle cx="1011.04" cy="2418.15" r="22.03" style="fill:#000000;stroke:#000000;stroke-width:8.64"/>
	<circle cx="1122.41" cy="2417.16" r="22.03" style="fill:#000000;stroke:#000000;stroke-width:8.64"/>
	<circle cx="1233.79" cy="2412.83" r="22.03" style="fill:#000000;stroke:#000000;stroke-width:8.64"/>
	<circle cx="1345.16" cy="2411.96" r="22.03" style="fill:#000000;stroke:#000000;stroke-width:8.64"/>
	<circle cx="1456.54" cy="2410.11" r="22.03" style="fill:#000000;stroke:#000000;stroke-width:8.64"/>
	<circle cx="1567.91" cy="2406.15" r="22.03" style="fill:#000000;stroke:#000000;stroke-width:8.64"/>
	<circle cx="1679.29" cy="2401.20" r="22.03" style="fill:#000000;stroke:#000000;stroke-width:8.64"/>
	<circle cx="1790.66" cy="2396.25" r="22.03" style="fill:#000000;stroke:#000000;stroke-width:8.64"/>
	<circle cx="1902.04" cy="2388.57" r="22.03" style="fill:#000000;stroke:#000000;stroke-width:8.64"/>
	<circle cx="2013.54" cy="2388.57" r="22.03" style="fill:#000000;stroke:#000000;stroke-width:8.64"/>
	<circle cx="2124.91" cy="2369.14" r="22.03" style="fill:#000000;stroke:#000000;stroke-width:8.64"/>
	<circle cx="2236.29" cy="2344.15" r="22.03" style="fill:#000000;stroke:#000000;stroke-width:8.64"/>
	<line x1="390.80" y1="2489.19" x2="390.80" y2="100.86" style="stroke:#000000;stroke-width:5.76"/>
	<line x1="390.80" y1="2425.82" x2="350.83" y2="2425.82" style="stroke:#000000;stroke-width:5.76"/>
	<text x="300.72" y="2425.82" style="font-family:'Helvetica';font-size:99.99px;fill:#000000" transform="rotate(-90 300.72,2425.82)" text-anchor="middle">0</text>
	<line x1="390.80" y1="1866.83" x2="350.83" y2="1866.83" style="stroke:#000000;stroke-width:5.76"/>
	<text x="300.72" y="1866.83" style="font-family:'Helvetica';font-size:99.99px;fill:#000000" transform="rotate(-90 300.72,1866.83)" text-anchor="middle">10</text>
	<line x1="390.80" y1="1307.95" x2="350.83" y2="1307.95" style="stroke:#000000;stroke-width:5.76"/>
	<text x="300.72" y="1307.95" style="font-family:'Helvetica';font-size:99.99px;fill:#000000" transform="rotate(-90 300.72,1307.95)" text-anchor="middle">20</text>
	<line x1="390.80" y1="748.96" x2="350.83" y2="748.96" style="stroke:#000000;stroke-width:5.76"/>
	<text x="300.72" y="748.96" style="font-family:'Helvetica';font-size:99.99px;fill:#000000" transform="rotate(-90 300.72,748.96)" text-anchor="middle">30</text>
	<line x1="390.80" y1="189.96" x2="350.83" y2="189.96" style="stroke:#000000;stroke-width:5.76"/>
	<text x="300.72" y="189.96" style="font-family:'Helvetica';font-size:99.99px;fill:#000000" transform="rotate(-90 300.72,189.96)" text-anchor="middle">40</text>
	<text x="190.71" y="1294.96" style="font-family:'Helvetica';font-size:99.99px;fill:#000000" transform="rotate(-90 190.71,1294.96)" text-anchor="middle">Confirmed cases per 100 beds</text>
	<line x1="390.80" y1="2489.19" x2="3859.02" y2="2489.19" style="stroke:#000000;stroke-width:5.76"/>
	<line x1="454.16" y1="2489.19" x2="454.16" y2="2529.16" style="stroke:#000000;stroke-width:5.76"/>
	<text x="454.16" y="2619.14" style="font-family:'Helvetica';font-size:99.99px;fill:#000000" text-anchor="middle">0</text>
	<line x1="1568.04" y1="2489.19" x2="1568.04" y2="2529.16" style="stroke:#000000;stroke-width:5.76"/>
	<text x="1568.04" y="2619.14" style="font-family:'Helvetica';font-size:99.99px;fill:#000000" text-anchor="middle">10</text>
	<line x1="2681.91" y1="2489.19" x2="2681.91" y2="2529.16" style="stroke:#000000;stroke-width:5.76"/>
	<text x="2681.91" y="2619.14" style="font-family:'Helvetica';font-size:99.99px;fill:#000000" text-anchor="middle">20</text>
	<line x1="3795.66" y1="2489.19" x2="3795.66" y2="2529.16" style="stroke:#000000;stroke-width:5.76"/>
	<text x="3795.66" y="2619.14" style="font-family:'Helvetica';font-size:99.99px;fill:#000000" text-anchor="middle">30</text>
	<text x="2124.91" y="2729.16" style="font-family:'Helvetica';font-size:99.99px;fill:#000000" text-anchor="middle">Days since 0.01 confirmed cases per 100 beds</text>
</svg>
