<?xml version="1.0" encoding="UTF-8" standalone="no"?>
<!-- This is a Stata 14.2 generated SVG file (http://www.stata.com) -->

<svg version="1.1" width="5.50in" height="4.00in" viewBox="0 0 3960 2880" xmlns="http://www.w3.org/2000/svg">
	<desc>Stata Graph - Graph</desc>
	<line x1="390.80" y1="1294.96" x2="3859.02" y2="1294.96" style="stroke:#FF0000;stroke-width:8.64"/>
	<path d="M537.69 2425.82 L537.69 2425.82 L621.23 2425.82 L704.76 2425.82 L788.29 2425.70 L871.82 2425.70 L955.35 2425.58 L1038.88 2425.45 L1122.41 2425.33 L1205.94 2425.08 L1289.47 2424.71 L1373.13 2424.34 L1456.66 2423.72 L1540.19 2422.85 L1623.72 2421.62 L1707.26 2420.01 L1790.79 2417.90 L1874.32 2415.06 L1957.85 2411.34 L2041.38 2406.27 L2124.91 2399.83 L2208.44 2391.54 L2291.97 2381.02 L2375.51 2368.15 L2459.04 2352.56 L2542.57 2333.75 L2626.22 2311.23 L2709.75 2283.75 L2793.28 2250.71 L2876.82 2210.74 L2960.35 2162.60 L3043.88 2104.81 L3127.41 2035.50 L3210.94 1952.84 L3294.47 1854.45 L3378.00 1737.63 L3461.53 1599.39 L3545.07 1436.04 L3628.60 1243.73 L3628.60 198.01 L3545.07 622.73 L3461.53 971.47 L3378.00 1256.97 L3294.47 1489.87 L3210.94 1679.09 L3127.41 1832.18 L3043.88 1955.81 L2960.35 2055.06 L2876.82 2134.38 L2793.28 2197.74 L2709.75 2247.87 L2626.22 2287.47 L2542.57 2318.40 L2459.04 2342.54 L2375.51 2360.98 L2291.97 2375.08 L2208.44 2385.97 L2124.91 2394.39 L2041.38 2401.07 L1957.85 2406.39 L1874.32 2410.60 L1790.79 2413.94 L1707.26 2416.67 L1623.72 2418.65 L1540.19 2420.38 L1456.66 2421.62 L1373.13 2422.61 L1289.47 2423.35 L1205.94 2423.97 L1122.41 2424.46 L1038.88 2424.83 L955.35 2425.08 L871.82 2425.20 L788.29 2425.45 L704.76 2425.58 L621.23 2425.58 L537.69 2425.70 L537.69 2425.82 Z" stroke-linecap="round" style="fill:#EBEBFF;stroke:#E6E6FF;stroke-width:3.00"/>
	<path d="M537.69 2425.82 L537.69 2425.82 L621.23 2425.70 L704.76 2425.70 L788.29 2425.70 L871.82 2425.58 L955.35 2425.45 L1038.88 2425.33 L1122.41 2425.08 L1205.94 2424.83 L1289.47 2424.34 L1373.13 2423.84 L1456.66 2423.10 L1540.19 2422.11 L1623.72 2420.75 L1707.26 2419.02 L1790.79 2416.79 L1874.32 2413.82 L1957.85 2409.86 L2041.38 2404.79 L2124.91 2398.23 L2208.44 2389.93 L2291.97 2379.29 L2375.51 2366.05 L2459.04 2349.59 L2542.57 2329.42 L2626.22 2304.30 L2709.75 2273.48 L2793.28 2235.37 L2876.82 2188.71 L2960.35 2131.54 L3043.88 2061.74 L3127.41 1976.84 L3210.94 1873.88 L3294.47 1749.26 L3378.00 1598.90 L3461.53 1418.10 L3545.07 1201.28 L3628.60 941.89 L3628.60 499.84 L3545.07 857.49 L3461.53 1152.77 L3378.00 1395.70 L3294.47 1595.06 L3210.94 1758.05 L3127.41 1890.96 L3043.88 1998.75 L2960.35 2086.12 L2876.82 2156.41 L2793.28 2212.97 L2709.75 2258.26 L2626.22 2294.27 L2542.57 2322.86 L2459.04 2345.38 L2375.51 2363.08 L2291.97 2376.82 L2208.44 2387.58 L2124.91 2396.00 L2041.38 2402.56 L1957.85 2407.88 L1874.32 2411.96 L1790.79 2415.06 L1707.26 2417.66 L1623.72 2419.51 L1540.19 2421.00 L1456.66 2422.23 L1373.13 2423.10 L1289.47 2423.72 L1205.94 2424.34 L1122.41 2424.71 L1038.88 2424.96 L955.35 2425.20 L871.82 2425.33 L788.29 2425.45 L704.76 2425.58 L621.23 2425.70 L537.69 2425.70 L537.69 2425.82 Z" stroke-linecap="round" style="fill:#D6D6FF;stroke:#CCCCFF;stroke-width:3.00"/>
	<path d="M537.69 2425.82 L537.69 2425.82 L621.23 2425.70 L704.76 2425.70 L788.29 2425.58 L871.82 2425.58 L955.35 2425.45 L1038.88 2425.20 L1122.41 2425.08 L1205.94 2424.71 L1289.47 2424.34 L1373.13 2423.72 L1456.66 2422.98 L1540.19 2421.99 L1623.72 2420.63 L1707.26 2418.89 L1790.79 2416.54 L1874.32 2413.57 L1957.85 2409.61 L2041.38 2404.54 L2124.91 2397.98 L2208.44 2389.69 L2291.97 2379.04 L2375.51 2365.80 L2459.04 2349.22 L2542.57 2328.68 L2626.22 2303.18 L2709.75 2271.75 L2793.28 2232.89 L2876.82 2185.12 L2960.35 2126.46 L3043.88 2054.81 L3127.41 1967.32 L3210.94 1861.01 L3294.47 1732.18 L3378.00 1576.50 L3461.53 1388.89 L3545.07 1163.29 L3628.60 893.13 L3628.60 548.60 L3545.07 895.36 L3461.53 1181.97 L3378.00 1418.22 L3294.47 1612.14 L3210.94 1770.92 L3127.41 1900.36 L3043.88 2005.68 L2960.35 2091.07 L2876.82 2160.00 L2793.28 2215.44 L2709.75 2259.87 L2626.22 2295.39 L2542.57 2323.60 L2459.04 2345.88 L2375.51 2363.45 L2291.97 2377.06 L2208.44 2387.83 L2124.91 2396.25 L2041.38 2402.81 L1957.85 2408.00 L1874.32 2412.09 L1790.79 2415.30 L1707.26 2417.78 L1623.72 2419.64 L1540.19 2421.12 L1456.66 2422.36 L1373.13 2423.22 L1289.47 2423.84 L1205.94 2424.34 L1122.41 2424.71 L1038.88 2425.08 L955.35 2425.20 L871.82 2425.45 L788.29 2425.58 L704.76 2425.58 L621.23 2425.70 L537.69 2425.70 L537.69 2425.82 Z" stroke-linecap="round" style="fill:#C2C2FF;stroke:#B3B3FF;stroke-width:3.00"/>
	<path d="M537.69 2425.82 L537.69 2425.82 L621.23 2425.70 L704.76 2425.70 L788.29 2425.58 L871.82 2425.58 L955.35 2425.45 L1038.88 2425.20 L1122.41 2424.96 L1205.94 2424.71 L1289.47 2424.21 L1373.13 2423.72 L1456.66 2422.98 L1540.19 2421.86 L1623.72 2420.50 L1707.26 2418.77 L1790.79 2416.42 L1874.32 2413.45 L1957.85 2409.49 L2041.38 2404.41 L2124.91 2397.85 L2208.44 2389.44 L2291.97 2378.92 L2375.51 2365.56 L2459.04 2348.85 L2542.57 2328.18 L2626.22 2302.44 L2709.75 2270.64 L2793.28 2231.28 L2876.82 2182.77 L2960.35 2123.12 L3043.88 2050.11 L3127.41 1961.00 L3210.94 1852.47 L3294.47 1720.67 L3378.00 1561.40 L3461.53 1369.09 L3545.07 1137.67 L3628.60 860.21 L3628.60 581.64 L3545.07 920.98 L3461.53 1201.77 L3378.00 1433.32 L3294.47 1623.65 L3210.94 1779.46 L3127.41 1906.80 L3043.88 2010.38 L2960.35 2094.41 L2876.82 2162.35 L2793.28 2217.17 L2709.75 2260.98 L2626.22 2296.13 L2542.57 2324.10 L2459.04 2346.25 L2375.51 2363.58 L2291.97 2377.31 L2208.44 2387.95 L2124.91 2396.37 L2041.38 2403.05 L1957.85 2408.25 L1874.32 2412.21 L1790.79 2415.43 L1707.26 2417.90 L1623.72 2419.76 L1540.19 2421.24 L1456.66 2422.36 L1373.13 2423.22 L1289.47 2423.84 L1205.94 2424.34 L1122.41 2424.71 L1038.88 2425.08 L955.35 2425.20 L871.82 2425.45 L788.29 2425.58 L704.76 2425.58 L621.23 2425.70 L537.69 2425.70 L537.69 2425.82 Z" stroke-linecap="round" style="fill:#ADADFF;stroke:#9999FF;stroke-width:3.00"/>
	<path d="M537.69 2425.82 L537.69 2425.82 L621.23 2425.70 L704.76 2425.70 L788.29 2425.58 L871.82 2425.58 L955.35 2425.45 L1038.88 2425.20 L1122.41 2424.96 L1205.94 2424.71 L1289.47 2424.21 L1373.13 2423.60 L1456.66 2422.85 L1540.19 2421.86 L1623.72 2420.50 L1707.26 2418.65 L1790.79 2416.42 L1874.32 2413.32 L1957.85 2409.36 L2041.38 2404.29 L2124.91 2397.73 L2208.44 2389.32 L2291.97 2378.67 L2375.51 2365.31 L2459.04 2348.60 L2542.57 2327.81 L2626.22 2301.82 L2709.75 2269.77 L2793.28 2229.92 L2876.82 2180.79 L2960.35 2120.40 L3043.88 2046.39 L3127.41 1955.93 L3210.94 1845.54 L3294.47 1711.64 L3378.00 1549.27 L3461.53 1353.37 L3545.07 1117.37 L3628.60 833.98 L3628.60 607.76 L3545.07 941.40 L3461.53 1217.49 L3378.00 1445.32 L3294.47 1632.68 L3210.94 1786.39 L3127.41 1911.87 L3043.88 2014.09 L2960.35 2097.13 L2876.82 2164.33 L2793.28 2218.41 L2709.75 2261.97 L2626.22 2296.75 L2542.57 2324.47 L2459.04 2346.50 L2375.51 2363.82 L2291.97 2377.44 L2208.44 2388.08 L2124.91 2396.49 L2041.38 2403.18 L1957.85 2408.37 L1874.32 2412.33 L1790.79 2415.55 L1707.26 2417.90 L1623.72 2419.88 L1540.19 2421.24 L1456.66 2422.48 L1373.13 2423.22 L1289.47 2423.97 L1205.94 2424.46 L1122.41 2424.83 L1038.88 2425.08 L955.35 2425.33 L871.82 2425.45 L788.29 2425.58 L704.76 2425.58 L621.23 2425.70 L537.69 2425.70 L537.69 2425.82 Z" stroke-linecap="round" style="fill:#9999FF;stroke:#8080FF;stroke-width:3.00"/>
	<path d="M537.69 2425.70 L537.69 2425.70 L621.23 2425.70 L704.76 2425.70 L788.29 2425.58 L871.82 2425.45 L955.35 2425.33 L1038.88 2425.20 L1122.41 2424.96 L1205.94 2424.59 L1289.47 2424.21 L1373.13 2423.60 L1456.66 2422.85 L1540.19 2421.74 L1623.72 2420.38 L1707.26 2418.65 L1790.79 2416.29 L1874.32 2413.20 L1957.85 2409.24 L2041.38 2404.17 L2124.91 2397.61 L2208.44 2389.19 L2291.97 2378.55 L2375.51 2365.18 L2459.04 2348.35 L2542.57 2327.44 L2626.22 2301.33 L2709.75 2268.90 L2793.28 2228.81 L2876.82 2179.18 L2960.35 2118.17 L3043.88 2043.18 L3127.41 1951.47 L3210.94 1839.72 L3294.47 1703.72 L3378.00 1539.00 L3461.53 1339.88 L3545.07 1099.92 L3628.60 811.58 L3628.60 630.28 L3545.07 958.84 L3461.53 1230.98 L3378.00 1455.72 L3294.47 1640.61 L3210.94 1792.20 L3127.41 1916.20 L3043.88 2017.31 L2960.35 2099.48 L2876.82 2165.94 L2793.28 2219.65 L2709.75 2262.72 L2626.22 2297.24 L2542.57 2324.84 L2459.04 2346.62 L2375.51 2363.95 L2291.97 2377.56 L2208.44 2388.20 L2124.91 2396.62 L2041.38 2403.30 L1957.85 2408.37 L1874.32 2412.46 L1790.79 2415.55 L1707.26 2418.03 L1623.72 2419.88 L1540.19 2421.37 L1456.66 2422.48 L1373.13 2423.35 L1289.47 2423.97 L1205.94 2424.46 L1122.41 2424.83 L1038.88 2425.08 L955.35 2425.33 L871.82 2425.45 L788.29 2425.58 L704.76 2425.58 L621.23 2425.70 L537.69 2425.70 L537.69 2425.70 Z" stroke-linecap="round" style="fill:#8585FF;stroke:#6666FF;stroke-width:3.00"/>
	<path d="M537.69 2425.70 L537.69 2425.70 L621.23 2425.70 L704.76 2425.70 L788.29 2425.58 L871.82 2425.45 L955.35 2425.33 L1038.88 2425.20 L1122.41 2424.96 L1205.94 2424.59 L1289.47 2424.21 L1373.13 2423.60 L1456.66 2422.73 L1540.19 2421.74 L1623.72 2420.38 L1707.26 2418.52 L1790.79 2416.17 L1874.32 2413.20 L1957.85 2409.24 L2041.38 2404.04 L2124.91 2397.48 L2208.44 2389.07 L2291.97 2378.43 L2375.51 2365.06 L2459.04 2348.23 L2542.57 2327.19 L2626.22 2300.96 L2709.75 2268.28 L2793.28 2227.69 L2876.82 2177.70 L2960.35 2116.07 L3043.88 2040.33 L3127.41 1947.64 L3210.94 1834.40 L3294.47 1696.79 L3378.00 1529.72 L3461.53 1327.76 L3545.07 1084.21 L3628.60 791.41 L3628.60 650.45 L3545.07 974.56 L3461.53 1243.11 L3378.00 1465.00 L3294.47 1647.54 L3210.94 1797.52 L3127.41 1920.17 L3043.88 2020.28 L2960.35 2101.59 L2876.82 2167.43 L2793.28 2220.64 L2709.75 2263.46 L2626.22 2297.74 L2542.57 2325.09 L2459.04 2346.87 L2375.51 2364.07 L2291.97 2377.68 L2208.44 2388.33 L2124.91 2396.74 L2041.38 2403.42 L1957.85 2408.50 L1874.32 2412.58 L1790.79 2415.68 L1707.26 2418.15 L1623.72 2420.01 L1540.19 2421.37 L1456.66 2422.48 L1373.13 2423.35 L1289.47 2423.97 L1205.94 2424.46 L1122.41 2424.83 L1038.88 2425.08 L955.35 2425.33 L871.82 2425.45 L788.29 2425.58 L704.76 2425.58 L621.23 2425.70 L537.69 2425.70 L537.69 2425.70 Z" stroke-linecap="round" style="fill:#7171FF;stroke:#4D4DFF;stroke-width:3.00"/>
	<path d="M537.69 2425.70 L537.69 2425.70 L621.23 2425.70 L704.76 2425.70 L788.29 2425.58 L871.82 2425.45 L955.35 2425.33 L1038.88 2425.20 L1122.41 2424.96 L1205.94 2424.59 L1289.47 2424.09 L1373.13 2423.60 L1456.66 2422.73 L1540.19 2421.74 L1623.72 2420.25 L1707.26 2418.52 L1790.79 2416.17 L1874.32 2413.08 L1957.85 2409.12 L2041.38 2403.92 L2124.91 2397.36 L2208.44 2389.07 L2291.97 2378.43 L2375.51 2364.94 L2459.04 2347.98 L2542.57 2326.94 L2626.22 2300.46 L2709.75 2267.54 L2793.28 2226.83 L2876.82 2176.34 L2960.35 2114.09 L3043.88 2037.61 L3127.41 1943.93 L3210.94 1829.58 L3294.47 1690.23 L3378.00 1521.18 L3461.53 1316.49 L3545.07 1069.60 L3628.60 772.72 L3628.60 669.14 L3545.07 989.04 L3461.53 1254.37 L3378.00 1473.54 L3294.47 1654.09 L3210.94 1802.35 L3127.41 1923.75 L3043.88 2022.88 L2960.35 2103.44 L2876.82 2168.79 L2793.28 2221.51 L2709.75 2264.08 L2626.22 2298.11 L2542.57 2325.34 L2459.04 2346.99 L2375.51 2364.19 L2291.97 2377.81 L2208.44 2388.45 L2124.91 2396.86 L2041.38 2403.42 L1957.85 2408.62 L1874.32 2412.58 L1790.79 2415.80 L1707.26 2418.15 L1623.72 2420.01 L1540.19 2421.49 L1456.66 2422.48 L1373.13 2423.35 L1289.47 2423.97 L1205.94 2424.46 L1122.41 2424.83 L1038.88 2425.08 L955.35 2425.33 L871.82 2425.45 L788.29 2425.58 L704.76 2425.70 L621.23 2425.70 L537.69 2425.70 L537.69 2425.70 Z" stroke-linecap="round" style="fill:#5C5CFF;stroke:#3333FF;stroke-width:3.00"/>
	<path d="M537.69 2425.70 L537.69 2425.70 L621.23 2425.70 L704.76 2425.70 L788.29 2425.58 L871.82 2425.45 L955.35 2425.33 L1038.88 2425.20 L1122.41 2424.96 L1205.94 2424.59 L1289.47 2424.09 L1373.13 2423.47 L1456.66 2422.73 L1540.19 2421.62 L1623.72 2420.25 L1707.26 2418.40 L1790.79 2416.05 L1874.32 2412.95 L1957.85 2408.99 L2041.38 2403.92 L2124.91 2397.36 L2208.44 2388.94 L2291.97 2378.30 L2375.51 2364.81 L2459.04 2347.86 L2542.57 2326.57 L2626.22 2300.09 L2709.75 2267.05 L2793.28 2225.96 L2876.82 2175.10 L2960.35 2112.23 L3043.88 2035.13 L3127.41 1940.46 L3210.94 1824.87 L3294.47 1684.04 L3378.00 1513.01 L3461.53 1305.85 L3545.07 1055.87 L3628.60 754.90 L3628.60 686.83 L3545.07 1002.90 L3461.53 1265.01 L3378.00 1481.71 L3294.47 1660.28 L3210.94 1807.05 L3127.41 1927.22 L3043.88 2025.36 L2960.35 2105.30 L2876.82 2170.02 L2793.28 2222.50 L2709.75 2264.70 L2626.22 2298.48 L2542.57 2325.58 L2459.04 2347.24 L2375.51 2364.32 L2291.97 2377.93 L2208.44 2388.57 L2124.91 2396.99 L2041.38 2403.55 L1957.85 2408.75 L1874.32 2412.71 L1790.79 2415.80 L1707.26 2418.27 L1623.72 2420.13 L1540.19 2421.49 L1456.66 2422.61 L1373.13 2423.35 L1289.47 2423.97 L1205.94 2424.46 L1122.41 2424.83 L1038.88 2425.08 L955.35 2425.33 L871.82 2425.45 L788.29 2425.58 L704.76 2425.70 L621.23 2425.70 L537.69 2425.70 L537.69 2425.70 Z" stroke-linecap="round" style="fill:#4747FF;stroke:#1919FF;stroke-width:3.00"/>
	<path d="M537.69 2425.70 L537.69 2425.70 L621.23 2425.70 L704.76 2425.70 L788.29 2425.58 L871.82 2425.45 L955.35 2425.33 L1038.88 2425.20 L1122.41 2424.83 L1205.94 2424.59 L1289.47 2424.09 L1373.13 2423.47 L1456.66 2422.73 L1540.19 2421.62 L1623.72 2420.25 L1707.26 2418.40 L1790.79 2416.05 L1874.32 2412.95 L1957.85 2408.87 L2041.38 2403.80 L2124.91 2397.24 L2208.44 2388.82 L2291.97 2378.18 L2375.51 2364.69 L2459.04 2347.73 L2542.57 2326.33 L2626.22 2299.72 L2709.75 2266.43 L2793.28 2225.09 L2876.82 2173.74 L2960.35 2110.50 L3043.88 2032.66 L3127.41 1937.12 L3210.94 1820.42 L3294.47 1678.10 L3378.00 1505.09 L3461.53 1295.58 L3545.07 1042.50 L3628.60 737.82 L3628.60 704.04 L3545.07 1016.27 L3461.53 1275.28 L3378.00 1489.63 L3294.47 1666.22 L3210.94 1811.51 L3127.41 1930.56 L3043.88 2027.83 L2960.35 2107.03 L2876.82 2171.39 L2793.28 2223.36 L2709.75 2265.19 L2626.22 2298.98 L2542.57 2325.83 L2459.04 2347.36 L2375.51 2364.44 L2291.97 2377.93 L2208.44 2388.70 L2124.91 2396.99 L2041.38 2403.67 L1957.85 2408.75 L1874.32 2412.83 L1790.79 2415.92 L1707.26 2418.27 L1623.72 2420.13 L1540.19 2421.49 L1456.66 2422.61 L1373.13 2423.47 L1289.47 2424.09 L1205.94 2424.46 L1122.41 2424.83 L1038.88 2425.08 L955.35 2425.33 L871.82 2425.45 L788.29 2425.58 L704.76 2425.70 L621.23 2425.70 L537.69 2425.70 L537.69 2425.70 Z" stroke-linecap="round" style="fill:#3333FF;stroke:#0000FF;stroke-width:3.00"/>
	<circle cx="537.57" cy="2424.71" r="22.03" style="fill:#000000;stroke:#000000;stroke-width:8.64"/>
	<circle cx="621.10" cy="2424.71" r="22.03" style="fill:#000000;stroke:#000000;stroke-width:8.64"/>
	<circle cx="704.76" cy="2424.59" r="22.03" style="fill:#000000;stroke:#000000;stroke-width:8.64"/>
	<circle cx="788.29" cy="2424.34" r="22.03" style="fill:#000000;stroke:#000000;stroke-width:8.64"/>
	<circle cx="871.82" cy="2424.09" r="22.03" style="fill:#000000;stroke:#000000;stroke-width:8.64"/>
	<circle cx="955.35" cy="2423.60" r="22.03" style="fill:#000000;stroke:#000000;stroke-width:8.64"/>
	<circle cx="1038.88" cy="2423.22" r="22.03" style="fill:#000000;stroke:#000000;stroke-width:8.64"/>
	<circle cx="1122.41" cy="2422.85" r="22.03" style="fill:#000000;stroke:#000000;stroke-width:8.64"/>
	<circle cx="1205.94" cy="2422.48" r="22.03" style="fill:#000000;stroke:#000000;stroke-width:8.64"/>
	<circle cx="1289.47" cy="2422.23" r="22.03" style="fill:#000000;stroke:#000000;stroke-width:8.64"/>
	<circle cx="1373.01" cy="2420.87" r="22.03" style="fill:#000000;stroke:#000000;stroke-width:8.64"/>
	<circle cx="1456.54" cy="2420.13" r="22.03" style="fill:#000000;stroke:#000000;stroke-width:8.64"/>
	<circle cx="1540.07" cy="2419.51" r="22.03" style="fill:#000000;stroke:#000000;stroke-width:8.64"/>
	<circle cx="1623.60" cy="2418.89" r="22.03" style="fill:#000000;stroke:#000000;stroke-width:8.64"/>
	<circle cx="1707.13" cy="2417.16" r="22.03" style="fill:#000000;stroke:#000000;stroke-width:8.64"/>
	<circle cx="1790.66" cy="2415.43" r="22.03" style="fill:#000000;stroke:#000000;stroke-width:8.64"/>
	<circle cx="1874.19" cy="2414.31" r="22.03" style="fill:#000000;stroke:#000000;stroke-width:8.64"/>
	<circle cx="1957.85" cy="2410.35" r="22.03" style="fill:#000000;stroke:#000000;stroke-width:8.64"/>
	<circle cx="2041.38" cy="2406.02" r="22.03" style="fill:#000000;stroke:#000000;stroke-width:8.64"/>
	<circle cx="2124.91" cy="2398.35" r="22.03" style="fill:#000000;stroke:#000000;stroke-width:8.64"/>
	<circle cx="2208.44" cy="2391.54" r="22.03" style="fill:#000000;stroke:#000000;stroke-width:8.64"/>
	<circle cx="2291.97" cy="2377.93" r="22.03" style="fill:#000000;stroke:#000000;stroke-width:8.64"/>
	<circle cx="2375.51" cy="2361.60" r="22.03" style="fill:#000000;stroke:#000000;stroke-width:8.64"/>
	<circle cx="2459.04" cy="2347.98" r="22.03" style="fill:#000000;stroke:#000000;stroke-width:8.64"/>
	<line x1="390.80" y1="2489.19" x2="390.80" y2="100.86" style="stroke:#000000;stroke-width:5.76"/>
	<line x1="390.80" y1="2425.82" x2="350.83" y2="2425.82" style="stroke:#000000;stroke-width:5.76"/>
	<text x="300.72" y="2425.82" style="font-family:'Helvetica';font-size:99.99px;fill:#000000" transform="rotate(-90 300.72,2425.82)" text-anchor="middle">0</text>
	<line x1="390.80" y1="1860.39" x2="350.83" y2="1860.39" style="stroke:#000000;stroke-width:5.76"/>
	<text x="300.72" y="1860.39" style="font-family:'Helvetica';font-size:99.99px;fill:#000000" transform="rotate(-90 300.72,1860.39)" text-anchor="middle">5</text>
	<line x1="390.80" y1="1294.96" x2="350.83" y2="1294.96" style="stroke:#000000;stroke-width:5.76"/>
	<text x="300.72" y="1294.96" style="font-family:'Helvetica';font-size:99.99px;fill:#000000" transform="rotate(-90 300.72,1294.96)" text-anchor="middle">10</text>
	<line x1="390.80" y1="729.53" x2="350.83" y2="729.53" style="stroke:#000000;stroke-width:5.76"/>
	<text x="300.72" y="729.53" style="font-family:'Helvetica';font-size:99.99px;fill:#000000" transform="rotate(-90 300.72,729.53)" text-anchor="middle">15</text>
	<line x1="390.80" y1="164.22" x2="350.83" y2="164.22" style="stroke:#000000;stroke-width:5.76"/>
	<text x="300.72" y="164.22" style="font-family:'Helvetica';font-size:99.99px;fill:#000000" transform="rotate(-90 300.72,164.22)" text-anchor="middle">20</text>
	<text x="190.71" y="1294.96" style="font-family:'Helvetica';font-size:99.99px;fill:#000000" transform="rotate(-90 190.71,1294.96)" text-anchor="middle">Confirmed cases per 100 beds</text>
	<line x1="390.80" y1="2489.19" x2="3859.02" y2="2489.19" style="stroke:#000000;stroke-width:5.76"/>
	<line x1="454.16" y1="2489.19" x2="454.16" y2="2529.16" style="stroke:#000000;stroke-width:5.76"/>
	<text x="454.16" y="2619.14" style="font-family:'Helvetica';font-size:99.99px;fill:#000000" text-anchor="middle">0</text>
	<line x1="1289.47" y1="2489.19" x2="1289.47" y2="2529.16" style="stroke:#000000;stroke-width:5.76"/>
	<text x="1289.47" y="2619.14" style="font-family:'Helvetica';font-size:99.99px;fill:#000000" text-anchor="middle">10</text>
	<line x1="2124.91" y1="2489.19" x2="2124.91" y2="2529.16" style="stroke:#000000;stroke-width:5.76"/>
	<text x="2124.91" y="2619.14" style="font-family:'Helvetica';font-size:99.99px;fill:#000000" text-anchor="middle">20</text>
	<line x1="2960.35" y1="2489.19" x2="2960.35" y2="2529.16" style="stroke:#000000;stroke-width:5.76"/>
	<text x="2960.35" y="2619.14" style="font-family:'Helvetica';font-size:99.99px;fill:#000000" text-anchor="middle">30</text>
	<line x1="3795.66" y1="2489.19" x2="3795.66" y2="2529.16" style="stroke:#000000;stroke-width:5.76"/>
	<text x="3795.66" y="2619.14" style="font-family:'Helvetica';font-size:99.99px;fill:#000000" text-anchor="middle">40</text>
	<text x="2124.91" y="2729.16" style="font-family:'Helvetica';font-size:99.99px;fill:#000000" text-anchor="middle">Days since 0.01 confirmed cases per 100 beds</text>
</svg>
