<?xml version="1.0" encoding="UTF-8" standalone="no"?>
<!-- This is a Stata 14.2 generated SVG file (http://www.stata.com) -->

<svg version="1.1" width="5.50in" height="4.00in" viewBox="0 0 3960 2880" xmlns="http://www.w3.org/2000/svg">
	<desc>Stata Graph - Graph</desc>
	<line x1="390.80" y1="1012.31" x2="3859.02" y2="1012.31" style="stroke:#FF0000;stroke-width:8.64"/>
	<path d="M582.62 1295.33 L582.62 1295.33 L711.19 1295.46 L839.77 1295.33 L968.22 1295.08 L1096.80 1294.47 L1225.25 1293.72 L1353.83 1293.10 L1482.28 1292.36 L1610.85 1291.00 L1739.31 1288.65 L1867.88 1284.81 L1996.46 1281.10 L2124.91 1281.47 L2253.49 1285.93 L2381.94 1295.58 L2510.52 1311.54 L2638.97 1335.43 L2767.55 1368.59 L2896.12 1412.53 L3024.57 1468.09 L3153.15 1536.16 L3281.60 1617.59 L3410.18 1712.51 L3538.63 1820.79 L3667.21 1942.44 L3795.66 2076.71 L3795.66 168.80 L3667.21 334.01 L3538.63 485.98 L3410.18 623.97 L3281.60 747.35 L3153.15 855.88 L3024.57 949.93 L2896.12 1029.63 L2767.55 1095.72 L2638.97 1149.30 L2510.52 1191.63 L2381.94 1223.80 L2253.49 1247.56 L2124.91 1264.27 L1996.46 1274.91 L1867.88 1279.49 L1739.31 1282.46 L1610.85 1285.43 L1482.28 1288.28 L1353.83 1290.51 L1225.25 1292.11 L1096.80 1292.86 L968.22 1293.35 L839.77 1293.72 L711.19 1294.09 L582.62 1294.34 L582.62 1295.33 Z" stroke-linecap="round" style="fill:#EBEBFF;stroke:#E6E6FF;stroke-width:3.00"/>
	<path d="M582.62 1295.08 L582.62 1295.08 L711.19 1295.08 L839.77 1294.84 L968.22 1294.59 L1096.80 1293.97 L1225.25 1293.23 L1353.83 1292.36 L1482.28 1291.12 L1610.85 1289.39 L1739.31 1286.92 L1867.88 1283.33 L1996.46 1279.24 L2124.91 1276.52 L2253.49 1274.91 L2381.94 1274.79 L2510.52 1276.89 L2638.97 1281.72 L2767.55 1289.89 L2896.12 1302.01 L3024.57 1318.47 L3153.15 1339.88 L3281.60 1366.37 L3410.18 1398.29 L3538.63 1435.54 L3667.21 1478.24 L3795.66 1526.13 L3795.66 719.38 L3667.21 798.21 L3538.63 871.23 L3410.18 938.05 L3281.60 998.45 L3153.15 1052.28 L3024.57 1099.43 L2896.12 1140.14 L2767.55 1174.55 L2638.97 1203.01 L2510.52 1226.15 L2381.94 1244.59 L2253.49 1258.70 L2124.91 1269.22 L1996.46 1276.64 L1867.88 1281.10 L1739.31 1284.32 L1610.85 1287.04 L1482.28 1289.39 L1353.83 1291.25 L1225.25 1292.61 L1096.80 1293.35 L968.22 1293.85 L839.77 1294.22 L711.19 1294.47 L582.62 1294.59 L582.62 1295.08 Z" stroke-linecap="round" style="fill:#D6D6FF;stroke:#CCCCFF;stroke-width:3.00"/>
	<path d="M582.62 1295.08 L582.62 1295.08 L711.19 1294.96 L839.77 1294.84 L968.22 1294.47 L1096.80 1293.97 L1225.25 1293.23 L1353.83 1292.24 L1482.28 1291.00 L1610.85 1289.14 L1739.31 1286.67 L1867.88 1283.08 L1996.46 1279.00 L2124.91 1275.65 L2253.49 1273.06 L2381.94 1271.45 L2510.52 1271.32 L2638.97 1273.06 L2767.55 1277.14 L2896.12 1284.07 L3024.57 1294.34 L3153.15 1308.08 L3281.60 1325.78 L3410.18 1347.43 L3538.63 1373.30 L3667.21 1403.12 L3795.66 1437.03 L3795.66 808.48 L3667.21 873.33 L3538.63 933.60 L3410.18 988.92 L3281.60 1039.16 L3153.15 1084.08 L3024.57 1123.69 L2896.12 1157.96 L2767.55 1187.29 L2638.97 1211.80 L2510.52 1231.85 L2381.94 1247.93 L2253.49 1260.43 L2124.91 1270.09 L1996.46 1277.02 L1867.88 1281.35 L1739.31 1284.57 L1610.85 1287.29 L1482.28 1289.64 L1353.83 1291.37 L1225.25 1292.61 L1096.80 1293.48 L968.22 1293.97 L839.77 1294.22 L711.19 1294.47 L582.62 1294.71 L582.62 1295.08 Z" stroke-linecap="round" style="fill:#C2C2FF;stroke:#B3B3FF;stroke-width:3.00"/>
	<path d="M582.62 1294.96 L582.62 1294.96 L711.19 1294.96 L839.77 1294.71 L968.22 1294.47 L1096.80 1293.85 L1225.25 1293.10 L1353.83 1292.11 L1482.28 1290.88 L1610.85 1289.02 L1739.31 1286.42 L1867.88 1282.96 L1996.46 1278.75 L2124.91 1275.16 L2253.49 1271.94 L2381.94 1269.22 L2510.52 1267.49 L2638.97 1267.12 L2767.55 1268.60 L2896.12 1272.07 L3024.57 1278.01 L3153.15 1286.67 L3281.60 1298.43 L3410.18 1313.15 L3538.63 1331.22 L3667.21 1352.51 L3795.66 1376.89 L3795.66 868.63 L3667.21 923.95 L3538.63 975.55 L3410.18 1023.20 L3281.60 1066.51 L3153.15 1105.49 L3024.57 1139.90 L2896.12 1170.09 L2767.55 1195.83 L2638.97 1217.61 L2510.52 1235.56 L2381.94 1250.16 L2253.49 1261.67 L2124.91 1270.58 L1996.46 1277.14 L1867.88 1281.47 L1739.31 1284.69 L1610.85 1287.54 L1482.28 1289.76 L1353.83 1291.50 L1225.25 1292.73 L1096.80 1293.48 L968.22 1293.97 L839.77 1294.34 L711.19 1294.59 L582.62 1294.71 L582.62 1294.96 Z" stroke-linecap="round" style="fill:#ADADFF;stroke:#9999FF;stroke-width:3.00"/>
	<path d="M582.62 1294.96 L582.62 1294.96 L711.19 1294.84 L839.77 1294.71 L968.22 1294.34 L1096.80 1293.85 L1225.25 1293.10 L1353.83 1292.11 L1482.28 1290.75 L1610.85 1288.90 L1739.31 1286.30 L1867.88 1282.71 L1996.46 1278.62 L2124.91 1274.66 L2253.49 1270.95 L2381.94 1267.49 L2510.52 1264.52 L2638.97 1262.54 L2767.55 1261.67 L2896.12 1262.41 L3024.57 1265.01 L3153.15 1269.71 L3281.60 1276.52 L3410.18 1285.93 L3538.63 1297.81 L3667.21 1312.16 L3795.66 1329.12 L3795.66 916.40 L3667.21 964.29 L3538.63 1009.09 L3410.18 1050.42 L3281.60 1088.29 L3153.15 1122.45 L3024.57 1152.89 L2896.12 1179.62 L2767.55 1202.64 L2638.97 1222.32 L2510.52 1238.53 L2381.94 1251.89 L2253.49 1262.66 L2124.91 1271.08 L1996.46 1277.26 L1867.88 1281.60 L1739.31 1284.94 L1610.85 1287.66 L1482.28 1289.89 L1353.83 1291.50 L1225.25 1292.73 L1096.80 1293.48 L968.22 1293.97 L839.77 1294.34 L711.19 1294.59 L582.62 1294.71 L582.62 1294.96 Z" stroke-linecap="round" style="fill:#9999FF;stroke:#8080FF;stroke-width:3.00"/>
	<path d="M582.62 1294.96 L582.62 1294.96 L711.19 1294.84 L839.77 1294.71 L968.22 1294.34 L1096.80 1293.85 L1225.25 1293.10 L1353.83 1291.99 L1482.28 1290.63 L1610.85 1288.77 L1739.31 1286.17 L1867.88 1282.71 L1996.46 1278.50 L2124.91 1274.29 L2253.49 1270.09 L2381.94 1265.88 L2510.52 1261.92 L2638.97 1258.58 L2767.55 1255.85 L2896.12 1254.25 L3024.57 1253.87 L3153.15 1254.99 L3281.60 1257.83 L3410.18 1262.54 L3538.63 1269.10 L3667.21 1277.63 L3795.66 1288.15 L3795.66 957.36 L3667.21 998.82 L3538.63 1037.68 L3410.18 1073.81 L3281.60 1106.98 L3153.15 1137.05 L3024.57 1164.03 L2896.12 1187.91 L2767.55 1208.58 L2638.97 1226.28 L2510.52 1241.13 L2381.94 1253.50 L2253.49 1263.40 L2124.91 1271.32 L1996.46 1277.39 L1867.88 1281.72 L1739.31 1285.06 L1610.85 1287.78 L1482.28 1289.89 L1353.83 1291.62 L1225.25 1292.73 L1096.80 1293.60 L968.22 1294.09 L839.77 1294.34 L711.19 1294.59 L582.62 1294.71 L582.62 1294.96 Z" stroke-linecap="round" style="fill:#8585FF;stroke:#6666FF;stroke-width:3.00"/>
	<path d="M582.62 1294.96 L582.62 1294.96 L711.19 1294.84 L839.77 1294.59 L968.22 1294.34 L1096.80 1293.72 L1225.25 1292.98 L1353.83 1291.99 L1482.28 1290.63 L1610.85 1288.65 L1739.31 1286.05 L1867.88 1282.59 L1996.46 1278.38 L2124.91 1274.05 L2253.49 1269.34 L2381.94 1264.52 L2510.52 1259.69 L2638.97 1254.99 L2767.55 1250.53 L2896.12 1246.82 L3024.57 1243.85 L3153.15 1241.87 L3281.60 1241.13 L3410.18 1241.50 L3538.63 1243.36 L3667.21 1246.57 L3795.66 1251.40 L3795.66 994.11 L3667.21 1029.88 L3538.63 1063.42 L3410.18 1094.85 L3281.60 1123.81 L3153.15 1150.29 L3024.57 1174.05 L2896.12 1195.21 L2767.55 1213.78 L2638.97 1229.87 L2510.52 1243.48 L2381.94 1254.86 L2253.49 1264.15 L2124.91 1271.69 L1996.46 1277.51 L1867.88 1281.84 L1739.31 1285.18 L1610.85 1287.91 L1482.28 1290.01 L1353.83 1291.62 L1225.25 1292.86 L1096.80 1293.60 L968.22 1294.09 L839.77 1294.47 L711.19 1294.59 L582.62 1294.84 L582.62 1294.96 Z" stroke-linecap="round" style="fill:#7171FF;stroke:#4D4DFF;stroke-width:3.00"/>
	<path d="M582.62 1294.96 L582.62 1294.96 L711.19 1294.84 L839.77 1294.59 L968.22 1294.22 L1096.80 1293.72 L1225.25 1292.98 L1353.83 1291.99 L1482.28 1290.51 L1610.85 1288.53 L1739.31 1285.93 L1867.88 1282.46 L1996.46 1278.25 L2124.91 1273.67 L2253.49 1268.72 L2381.94 1263.28 L2510.52 1257.46 L2638.97 1251.65 L2767.55 1245.71 L2896.12 1240.01 L3024.57 1234.57 L3153.15 1229.74 L3281.60 1225.53 L3410.18 1222.07 L3538.63 1219.47 L3667.21 1217.86 L3795.66 1217.24 L3795.66 1028.27 L3667.21 1058.59 L3538.63 1087.30 L3410.18 1114.28 L3281.60 1139.40 L3153.15 1162.42 L3024.57 1183.33 L2896.12 1202.02 L2767.55 1218.73 L2638.97 1233.21 L2510.52 1245.58 L2381.94 1256.10 L2253.49 1264.89 L2124.91 1272.07 L1996.46 1277.63 L1867.88 1281.97 L1739.31 1285.31 L1610.85 1288.03 L1482.28 1290.13 L1353.83 1291.74 L1225.25 1292.86 L1096.80 1293.60 L968.22 1294.09 L839.77 1294.47 L711.19 1294.71 L582.62 1294.84 L582.62 1294.96 Z" stroke-linecap="round" style="fill:#5C5CFF;stroke:#3333FF;stroke-width:3.00"/>
	<path d="M582.62 1294.84 L582.62 1294.84 L711.19 1294.84 L839.77 1294.59 L968.22 1294.22 L1096.80 1293.72 L1225.25 1292.98 L1353.83 1291.87 L1482.28 1290.38 L1610.85 1288.40 L1739.31 1285.80 L1867.88 1282.34 L1996.46 1278.13 L2124.91 1273.43 L2253.49 1267.98 L2381.94 1262.04 L2510.52 1255.48 L2638.97 1248.43 L2767.55 1241.13 L2896.12 1233.45 L3024.57 1225.78 L3153.15 1218.23 L3281.60 1210.81 L3410.18 1203.63 L3538.63 1196.82 L3667.21 1190.64 L3795.66 1184.94 L3795.66 1060.69 L3667.21 1085.82 L3538.63 1109.95 L3410.18 1132.72 L3281.60 1154.13 L3153.15 1173.93 L3024.57 1192.12 L2896.12 1208.58 L2767.55 1223.31 L2638.97 1236.30 L2510.52 1247.69 L2381.94 1257.34 L2253.49 1265.51 L2124.91 1272.31 L1996.46 1277.76 L1867.88 1281.97 L1739.31 1285.43 L1610.85 1288.03 L1482.28 1290.13 L1353.83 1291.74 L1225.25 1292.86 L1096.80 1293.60 L968.22 1294.09 L839.77 1294.47 L711.19 1294.71 L582.62 1294.84 L582.62 1294.84 Z" stroke-linecap="round" style="fill:#4747FF;stroke:#1919FF;stroke-width:3.00"/>
	<path d="M582.62 1294.84 L582.62 1294.84 L711.19 1294.71 L839.77 1294.59 L968.22 1294.22 L1096.80 1293.72 L1225.25 1292.98 L1353.83 1291.87 L1482.28 1290.38 L1610.85 1288.40 L1739.31 1285.68 L1867.88 1282.34 L1996.46 1278.13 L2124.91 1273.18 L2253.49 1267.36 L2381.94 1260.80 L2510.52 1253.50 L2638.97 1245.34 L2767.55 1236.55 L2896.12 1227.27 L3024.57 1217.37 L3153.15 1207.10 L3281.60 1196.45 L3410.18 1185.81 L3538.63 1174.92 L3667.21 1164.15 L3795.66 1153.63 L3795.66 1092.00 L3667.21 1112.30 L3538.63 1131.85 L3410.18 1150.66 L3281.60 1168.36 L3153.15 1185.07 L3024.57 1200.66 L2896.12 1214.89 L2767.55 1227.76 L2638.97 1239.39 L2510.52 1249.67 L2381.94 1258.58 L2253.49 1266.13 L2124.91 1272.56 L1996.46 1277.88 L1867.88 1282.09 L1739.31 1285.43 L1610.85 1288.15 L1482.28 1290.26 L1353.83 1291.74 L1225.25 1292.86 L1096.80 1293.60 L968.22 1294.22 L839.77 1294.47 L711.19 1294.71 L582.62 1294.84 L582.62 1294.84 Z" stroke-linecap="round" style="fill:#3333FF;stroke:#0000FF;stroke-width:3.00"/>
	<circle cx="582.62" cy="1294.71" r="22.03" style="fill:#000000;stroke:#000000;stroke-width:8.64"/>
	<circle cx="711.07" cy="1294.34" r="22.03" style="fill:#000000;stroke:#000000;stroke-width:8.64"/>
	<circle cx="839.64" cy="1294.22" r="22.03" style="fill:#000000;stroke:#000000;stroke-width:8.64"/>
	<circle cx="968.22" cy="1293.85" r="22.03" style="fill:#000000;stroke:#000000;stroke-width:8.64"/>
	<circle cx="1096.67" cy="1293.48" r="22.03" style="fill:#000000;stroke:#000000;stroke-width:8.64"/>
	<circle cx="1225.25" cy="1292.86" r="22.03" style="fill:#000000;stroke:#000000;stroke-width:8.64"/>
	<circle cx="1353.70" cy="1292.11" r="22.03" style="fill:#000000;stroke:#000000;stroke-width:8.64"/>
	<circle cx="1482.28" cy="1290.88" r="22.03" style="fill:#000000;stroke:#000000;stroke-width:8.64"/>
	<circle cx="1610.73" cy="1289.89" r="22.03" style="fill:#000000;stroke:#000000;stroke-width:8.64"/>
	<circle cx="1739.31" cy="1284.32" r="22.03" style="fill:#000000;stroke:#000000;stroke-width:8.64"/>
	<circle cx="1867.88" cy="1281.22" r="22.03" style="fill:#000000;stroke:#000000;stroke-width:8.64"/>
	<circle cx="1996.34" cy="1278.75" r="22.03" style="fill:#000000;stroke:#000000;stroke-width:8.64"/>
	<line x1="390.80" y1="2489.19" x2="390.80" y2="100.86" style="stroke:#000000;stroke-width:5.76"/>
	<line x1="390.80" y1="2425.82" x2="350.83" y2="2425.82" style="stroke:#000000;stroke-width:5.76"/>
	<text x="300.72" y="2425.82" style="font-family:'Helvetica';font-size:99.99px;fill:#000000" transform="rotate(-90 300.72,2425.82)" text-anchor="middle">-40</text>
	<line x1="390.80" y1="1860.39" x2="350.83" y2="1860.39" style="stroke:#000000;stroke-width:5.76"/>
	<text x="300.72" y="1860.39" style="font-family:'Helvetica';font-size:99.99px;fill:#000000" transform="rotate(-90 300.72,1860.39)" text-anchor="middle">-20</text>
	<line x1="390.80" y1="1294.96" x2="350.83" y2="1294.96" style="stroke:#000000;stroke-width:5.76"/>
	<text x="300.72" y="1294.96" style="font-family:'Helvetica';font-size:99.99px;fill:#000000" transform="rotate(-90 300.72,1294.96)" text-anchor="middle">0</text>
	<line x1="390.80" y1="729.53" x2="350.83" y2="729.53" style="stroke:#000000;stroke-width:5.76"/>
	<text x="300.72" y="729.53" style="font-family:'Helvetica';font-size:99.99px;fill:#000000" transform="rotate(-90 300.72,729.53)" text-anchor="middle">20</text>
	<line x1="390.80" y1="164.22" x2="350.83" y2="164.22" style="stroke:#000000;stroke-width:5.76"/>
	<text x="300.72" y="164.22" style="font-family:'Helvetica';font-size:99.99px;fill:#000000" transform="rotate(-90 300.72,164.22)" text-anchor="middle">40</text>
	<text x="190.71" y="1294.96" style="font-family:'Helvetica';font-size:99.99px;fill:#000000" transform="rotate(-90 190.71,1294.96)" text-anchor="middle">Confirmed cases per 100 beds</text>
	<line x1="390.80" y1="2489.19" x2="3859.02" y2="2489.19" style="stroke:#000000;stroke-width:5.76"/>
	<line x1="454.16" y1="2489.19" x2="454.16" y2="2529.16" style="stroke:#000000;stroke-width:5.76"/>
	<text x="454.16" y="2619.14" style="font-family:'Helvetica';font-size:99.99px;fill:#000000" text-anchor="middle">0</text>
	<line x1="1096.80" y1="2489.19" x2="1096.80" y2="2529.16" style="stroke:#000000;stroke-width:5.76"/>
	<text x="1096.80" y="2619.14" style="font-family:'Helvetica';font-size:99.99px;fill:#000000" text-anchor="middle">5</text>
	<line x1="1739.31" y1="2489.19" x2="1739.31" y2="2529.16" style="stroke:#000000;stroke-width:5.76"/>
	<text x="1739.31" y="2619.14" style="font-family:'Helvetica';font-size:99.99px;fill:#000000" text-anchor="middle">10</text>
	<line x1="2381.94" y1="2489.19" x2="2381.94" y2="2529.16" style="stroke:#000000;stroke-width:5.76"/>
	<text x="2381.94" y="2619.14" style="font-family:'Helvetica';font-size:99.99px;fill:#000000" text-anchor="middle">15</text>
	<line x1="3024.57" y1="2489.19" x2="3024.57" y2="2529.16" style="stroke:#000000;stroke-width:5.76"/>
	<text x="3024.57" y="2619.14" style="font-family:'Helvetica';font-size:99.99px;fill:#000000" text-anchor="middle">20</text>
	<line x1="3667.21" y1="2489.19" x2="3667.21" y2="2529.16" style="stroke:#000000;stroke-width:5.76"/>
	<text x="3667.21" y="2619.14" style="font-family:'Helvetica';font-size:99.99px;fill:#000000" text-anchor="middle">25</text>
	<text x="2124.91" y="2729.16" style="font-family:'Helvetica';font-size:99.99px;fill:#000000" text-anchor="middle">Days since 0.01 confirmed cases per 100 beds</text>
</svg>
