<?xml version="1.0" encoding="UTF-8" standalone="no"?>
<!-- This is a Stata 14.2 generated SVG file (http://www.stata.com) -->

<svg version="1.1" width="5.50in" height="4.00in" viewBox="0 0 3960 2880" xmlns="http://www.w3.org/2000/svg">
	<desc>Stata Graph - Graph</desc>
	<line x1="390.80" y1="1294.96" x2="3859.02" y2="1294.96" style="stroke:#FF0000;stroke-width:5.76"/>
	<path d="M520.99 2425.70 L520.99 2425.70 L621.23 2425.70 L654.64 2425.70 L688.05 2425.70 L721.46 2425.70 L754.88 2425.70 L788.29 2425.70 L821.70 2425.70 L855.11 2425.70 L888.52 2425.70 L921.94 2425.70 L955.35 2425.70 L988.76 2425.70 L1022.18 2425.70 L1055.59 2425.70 L1089.00 2425.70 L1122.41 2425.82 L1155.83 2425.82 L1189.24 2425.70 L1222.65 2424.83 L1256.06 2422.11 L1289.47 2415.43 L1323.01 2402.31 L1356.42 2379.42 L1389.84 2344.15 L1423.25 2294.15 L1456.66 2228.68 L1490.07 2148.12 L1523.49 2054.19 L1556.90 1949.62 L1590.31 1837.74 L1623.72 1721.79 L1657.14 1605.21 L1690.55 1490.74 L1723.96 1380.35 L1757.37 1275.41 L1790.79 1176.90 L1824.20 1085.20 L1857.61 1000.55 L1891.02 922.96 L1924.44 852.29 L1957.85 788.44 L1991.26 730.89 L2024.67 679.41 L2058.09 633.50 L2091.50 592.90 L2124.91 557.02 L2158.32 525.46 L2191.74 497.86 L2225.15 473.98 L2258.56 453.19 L2291.97 435.24 L2325.39 419.77 L2358.80 406.53 L2392.21 395.15 L2425.62 385.37 L2459.04 377.08 L2492.45 370.02 L2525.86 363.96 L2559.40 358.76 L2592.81 354.31 L2626.22 350.47 L2659.64 347.25 L2693.05 344.53 L2726.46 342.18 L2759.87 340.08 L2793.28 338.34 L2826.70 336.86 L2860.11 335.62 L2893.52 334.63 L2926.93 333.64 L2960.35 332.90 L2993.76 332.16 L3027.17 331.66 L3060.59 331.17 L3094.00 330.67 L3127.41 330.30 L3160.82 330.05 L3194.24 329.80 L3227.65 329.56 L3261.06 329.31 L3294.47 329.19 L3327.89 329.06 L3361.30 328.94 L3394.71 328.81 L3428.12 328.69 L3461.53 328.69 L3494.95 328.57 L3494.95 272.38 L3461.53 272.51 L3428.12 272.63 L3394.71 272.75 L3361.30 273.00 L3327.89 273.25 L3294.47 273.50 L3261.06 273.74 L3227.65 274.11 L3194.24 274.49 L3160.82 274.98 L3127.41 275.48 L3094.00 275.97 L3060.59 276.71 L3027.17 277.46 L2993.76 278.32 L2960.35 279.44 L2926.93 280.55 L2893.52 281.91 L2860.11 283.52 L2826.70 285.38 L2793.28 287.36 L2759.87 289.83 L2726.46 292.55 L2693.05 295.65 L2659.64 299.24 L2626.22 303.44 L2592.81 308.15 L2559.40 313.47 L2525.86 319.66 L2492.45 326.71 L2459.04 334.88 L2425.62 344.04 L2392.21 354.43 L2358.80 366.31 L2325.39 379.80 L2291.97 395.15 L2258.56 412.60 L2225.15 432.40 L2191.74 454.92 L2158.32 480.54 L2124.91 509.74 L2091.50 542.91 L2058.09 580.78 L2024.67 623.84 L1991.26 672.60 L1957.85 727.67 L1924.44 789.55 L1891.02 858.73 L1857.61 935.58 L1824.20 1020.10 L1790.79 1112.18 L1757.37 1211.06 L1723.96 1316.12 L1690.55 1425.64 L1657.14 1538.01 L1623.72 1651.25 L1590.31 1763.12 L1556.90 1871.65 L1523.49 1974.25 L1490.07 2068.92 L1456.66 2153.44 L1423.25 2226.21 L1389.84 2286.48 L1356.42 2333.75 L1323.01 2368.77 L1289.47 2393.15 L1256.06 2408.62 L1222.65 2417.66 L1189.24 2422.36 L1155.83 2424.46 L1122.41 2425.33 L1089.00 2425.58 L1055.59 2425.70 L1022.18 2425.70 L988.76 2425.70 L955.35 2425.70 L921.94 2425.70 L888.52 2425.70 L855.11 2425.70 L821.70 2425.70 L788.29 2425.70 L754.88 2425.70 L721.46 2425.70 L688.05 2425.70 L654.64 2425.70 L621.23 2425.70 L520.99 2425.70 L520.99 2425.70 Z" stroke-linecap="round" style="fill:#C2C2FF;stroke:#B3B3FF;stroke-width:3.00"/>
	<path d="M520.99 2425.70 L520.99 2425.70 L621.23 2425.70 L654.64 2425.70 L688.05 2425.70 L721.46 2425.70 L754.88 2425.70 L788.29 2425.70 L821.70 2425.70 L855.11 2425.70 L888.52 2425.70 L921.94 2425.70 L955.35 2425.70 L988.76 2425.70 L1022.18 2425.70 L1055.59 2425.70 L1089.00 2425.70 L1122.41 2425.70 L1155.83 2425.58 L1189.24 2425.08 L1222.65 2423.35 L1256.06 2419.39 L1289.47 2410.85 L1323.01 2395.38 L1356.42 2370.01 L1389.84 2332.14 L1423.25 2280.17 L1456.66 2213.21 L1490.07 2131.78 L1523.49 2037.73 L1556.90 1933.53 L1590.31 1822.28 L1623.72 1707.18 L1657.14 1591.35 L1690.55 1477.25 L1723.96 1366.99 L1757.37 1262.17 L1790.79 1163.53 L1824.20 1071.71 L1857.61 987.06 L1891.02 909.71 L1924.44 839.30 L1957.85 775.81 L1991.26 718.89 L2024.67 667.90 L2058.09 622.61 L2091.50 582.51 L2124.91 547.24 L2158.32 516.18 L2191.74 489.08 L2225.15 465.31 L2258.56 444.77 L2291.97 426.95 L2325.39 411.48 L2358.80 398.24 L2392.21 386.73 L2425.62 376.83 L2459.04 368.42 L2492.45 361.11 L2525.86 354.80 L2559.40 349.36 L2592.81 344.78 L2626.22 340.82 L2659.64 337.35 L2693.05 334.38 L2726.46 331.91 L2759.87 329.68 L2793.28 327.82 L2826.70 326.22 L2860.11 324.85 L2893.52 323.74 L2926.93 322.75 L2960.35 321.76 L2993.76 321.02 L3027.17 320.40 L3060.59 319.90 L3094.00 319.41 L3127.41 319.04 L3160.82 318.67 L3194.24 318.29 L3227.65 318.05 L3261.06 317.80 L3294.47 317.68 L3327.89 317.55 L3361.30 317.30 L3394.71 317.18 L3428.12 317.18 L3461.53 317.06 L3494.95 316.93 L3494.95 284.02 L3461.53 284.14 L3428.12 284.26 L3394.71 284.39 L3361.30 284.51 L3327.89 284.76 L3294.47 285.01 L3261.06 285.25 L3227.65 285.50 L3194.24 285.87 L3160.82 286.24 L3127.41 286.74 L3094.00 287.36 L3060.59 287.98 L3027.17 288.59 L2993.76 289.46 L2960.35 290.45 L2926.93 291.56 L2893.52 292.80 L2860.11 294.29 L2826.70 296.02 L2793.28 297.88 L2759.87 300.23 L2726.46 302.83 L2693.05 305.80 L2659.64 309.14 L2626.22 313.10 L2592.81 317.68 L2559.40 322.87 L2525.86 328.81 L2492.45 335.74 L2459.04 343.54 L2425.62 352.57 L2392.21 362.85 L2358.80 374.60 L2325.39 388.09 L2291.97 403.44 L2258.56 421.01 L2225.15 440.94 L2191.74 463.83 L2158.32 489.82 L2124.91 519.52 L2091.50 553.30 L2058.09 591.67 L2024.67 635.23 L1991.26 684.61 L1957.85 740.17 L1924.44 802.54 L1891.02 871.97 L1857.61 948.94 L1824.20 1033.47 L1790.79 1125.54 L1757.37 1224.42 L1723.96 1329.36 L1690.55 1439.13 L1657.14 1551.87 L1623.72 1665.85 L1590.31 1778.59 L1556.90 1887.74 L1523.49 1990.83 L1490.07 2085.25 L1456.66 2168.91 L1423.25 2240.32 L1389.84 2298.36 L1356.42 2343.16 L1323.01 2375.70 L1289.47 2397.73 L1256.06 2411.47 L1222.65 2419.14 L1189.24 2423.10 L1155.83 2424.83 L1122.41 2425.45 L1089.00 2425.70 L1055.59 2425.70 L1022.18 2425.70 L988.76 2425.70 L955.35 2425.70 L921.94 2425.70 L888.52 2425.70 L855.11 2425.70 L821.70 2425.70 L788.29 2425.70 L754.88 2425.70 L721.46 2425.70 L688.05 2425.70 L654.64 2425.70 L621.23 2425.70 L520.99 2425.70 L520.99 2425.70 Z" stroke-linecap="round" style="fill:#8585FF;stroke:#6666FF;stroke-width:3.00"/>
	<path d="M520.99 2425.70 L520.99 2425.70 L621.23 2425.70 L654.64 2425.70 L688.05 2425.70 L721.46 2425.70 L754.88 2425.70 L788.29 2425.70 L821.70 2425.70 L855.11 2425.70 L888.52 2425.70 L921.94 2425.70 L955.35 2425.70 L988.76 2425.70 L1022.18 2425.70 L1055.59 2425.70 L1089.00 2425.70 L1122.41 2425.70 L1155.83 2425.45 L1189.24 2424.59 L1222.65 2422.48 L1256.06 2417.66 L1289.47 2408.13 L1323.01 2391.30 L1356.42 2364.44 L1389.84 2325.21 L1423.25 2271.87 L1456.66 2204.06 L1490.07 2122.13 L1523.49 2027.95 L1556.90 1924.00 L1590.31 1813.24 L1623.72 1698.65 L1657.14 1583.18 L1690.55 1469.33 L1723.96 1359.19 L1757.37 1254.37 L1790.79 1155.61 L1824.20 1063.79 L1857.61 979.14 L1891.02 901.92 L1924.44 831.75 L1957.85 768.51 L1991.26 711.71 L2024.67 661.22 L2058.09 616.29 L2091.50 576.45 L2124.91 541.55 L2158.32 510.73 L2191.74 483.75 L2225.15 460.36 L2258.56 439.82 L2291.97 422.12 L2325.39 406.66 L2358.80 393.29 L2392.21 381.78 L2425.62 371.88 L2459.04 363.22 L2492.45 355.79 L2525.86 349.36 L2559.40 343.91 L2592.81 339.09 L2626.22 335.00 L2659.64 331.54 L2693.05 328.44 L2726.46 325.84 L2759.87 323.62 L2793.28 321.64 L2826.70 320.03 L2860.11 318.54 L2893.52 317.30 L2926.93 316.19 L2960.35 315.32 L2993.76 314.58 L3027.17 313.84 L3060.59 313.22 L3094.00 312.73 L3127.41 312.35 L3160.82 311.98 L3194.24 311.61 L3227.65 311.36 L3261.06 311.12 L3294.47 310.87 L3327.89 310.75 L3361.30 310.62 L3394.71 310.50 L3428.12 310.37 L3461.53 310.25 L3494.95 310.13 L3494.95 290.82 L3461.53 290.95 L3428.12 291.07 L3394.71 291.19 L3361.30 291.32 L3327.89 291.56 L3294.47 291.69 L3261.06 291.94 L3227.65 292.31 L3194.24 292.55 L3160.82 293.05 L3127.41 293.42 L3094.00 293.92 L3060.59 294.53 L3027.17 295.28 L2993.76 296.02 L2960.35 296.89 L2926.93 298.00 L2893.52 299.24 L2860.11 300.60 L2826.70 302.21 L2793.28 304.19 L2759.87 306.29 L2726.46 308.77 L2693.05 311.74 L2659.64 314.95 L2626.22 318.79 L2592.81 323.25 L2559.40 328.32 L2525.86 334.26 L2492.45 340.94 L2459.04 348.74 L2425.62 357.52 L2392.21 367.80 L2358.80 379.55 L2325.39 392.92 L2291.97 408.26 L2258.56 425.84 L2225.15 446.01 L2191.74 469.03 L2158.32 495.26 L2124.91 525.21 L2091.50 559.37 L2058.09 598.10 L2024.67 642.04 L1991.26 691.66 L1957.85 747.60 L1924.44 810.09 L1891.02 879.77 L1857.61 956.86 L1824.20 1041.39 L1790.79 1133.34 L1757.37 1232.22 L1723.96 1337.16 L1690.55 1446.93 L1657.14 1560.04 L1623.72 1674.39 L1590.31 1787.62 L1556.90 1897.15 L1523.49 2000.48 L1490.07 2094.91 L1456.66 2178.07 L1423.25 2248.48 L1389.84 2305.41 L1356.42 2348.72 L1323.01 2379.79 L1289.47 2400.45 L1256.06 2413.08 L1222.65 2420.01 L1189.24 2423.47 L1155.83 2424.96 L1122.41 2425.45 L1089.00 2425.70 L1055.59 2425.70 L1022.18 2425.70 L988.76 2425.70 L955.35 2425.70 L921.94 2425.70 L888.52 2425.70 L855.11 2425.70 L821.70 2425.70 L788.29 2425.70 L754.88 2425.70 L721.46 2425.70 L688.05 2425.70 L654.64 2425.70 L621.23 2425.70 L520.99 2425.70 L520.99 2425.70 Z" stroke-linecap="round" style="fill:#4747FF;stroke:#1919FF;stroke-width:3.00"/>
	<circle cx="487.45" cy="2424.59" r="22.03" style="fill:#000000;stroke:#000000;stroke-width:8.64"/>
	<circle cx="520.86" cy="2424.59" r="22.03" style="fill:#000000;stroke:#000000;stroke-width:8.64"/>
	<circle cx="554.28" cy="2424.21" r="22.03" style="fill:#000000;stroke:#000000;stroke-width:8.64"/>
	<circle cx="587.69" cy="2424.21" r="22.03" style="fill:#000000;stroke:#000000;stroke-width:8.64"/>
	<circle cx="621.10" cy="2424.21" r="22.03" style="fill:#000000;stroke:#000000;stroke-width:8.64"/>
	<circle cx="654.51" cy="2424.21" r="22.03" style="fill:#000000;stroke:#000000;stroke-width:8.64"/>
	<circle cx="687.93" cy="2424.21" r="22.03" style="fill:#000000;stroke:#000000;stroke-width:8.64"/>
	<circle cx="721.46" cy="2424.21" r="22.03" style="fill:#000000;stroke:#000000;stroke-width:8.64"/>
	<circle cx="754.88" cy="2424.21" r="22.03" style="fill:#000000;stroke:#000000;stroke-width:8.64"/>
	<circle cx="788.29" cy="2424.21" r="22.03" style="fill:#000000;stroke:#000000;stroke-width:8.64"/>
	<circle cx="821.70" cy="2424.21" r="22.03" style="fill:#000000;stroke:#000000;stroke-width:8.64"/>
	<circle cx="855.11" cy="2424.21" r="22.03" style="fill:#000000;stroke:#000000;stroke-width:8.64"/>
	<circle cx="888.52" cy="2424.21" r="22.03" style="fill:#000000;stroke:#000000;stroke-width:8.64"/>
	<circle cx="921.94" cy="2424.21" r="22.03" style="fill:#000000;stroke:#000000;stroke-width:8.64"/>
	<circle cx="955.35" cy="2424.21" r="22.03" style="fill:#000000;stroke:#000000;stroke-width:8.64"/>
	<circle cx="988.76" cy="2423.72" r="22.03" style="fill:#000000;stroke:#000000;stroke-width:8.64"/>
	<circle cx="1022.18" cy="2420.25" r="22.03" style="fill:#000000;stroke:#000000;stroke-width:8.64"/>
	<circle cx="1055.59" cy="2419.76" r="22.03" style="fill:#000000;stroke:#000000;stroke-width:8.64"/>
	<circle cx="1089.00" cy="2415.80" r="22.03" style="fill:#000000;stroke:#000000;stroke-width:8.64"/>
	<circle cx="1122.41" cy="2412.21" r="22.03" style="fill:#000000;stroke:#000000;stroke-width:8.64"/>
	<circle cx="1155.83" cy="2409.74" r="22.03" style="fill:#000000;stroke:#000000;stroke-width:8.64"/>
	<circle cx="1189.24" cy="2403.05" r="22.03" style="fill:#000000;stroke:#000000;stroke-width:8.64"/>
	<circle cx="1222.65" cy="2391.67" r="22.03" style="fill:#000000;stroke:#000000;stroke-width:8.64"/>
	<circle cx="1256.06" cy="2374.47" r="22.03" style="fill:#000000;stroke:#000000;stroke-width:8.64"/>
	<circle cx="1289.47" cy="2354.17" r="22.03" style="fill:#000000;stroke:#000000;stroke-width:8.64"/>
	<circle cx="1322.89" cy="2309.00" r="22.03" style="fill:#000000;stroke:#000000;stroke-width:8.64"/>
	<circle cx="1356.30" cy="2271.13" r="22.03" style="fill:#000000;stroke:#000000;stroke-width:8.64"/>
	<circle cx="1389.71" cy="2226.33" r="22.03" style="fill:#000000;stroke:#000000;stroke-width:8.64"/>
	<circle cx="1423.13" cy="2175.22" r="22.03" style="fill:#000000;stroke:#000000;stroke-width:8.64"/>
	<circle cx="1456.54" cy="2121.14" r="22.03" style="fill:#000000;stroke:#000000;stroke-width:8.64"/>
	<circle cx="1489.95" cy="2054.31" r="22.03" style="fill:#000000;stroke:#000000;stroke-width:8.64"/>
	<circle cx="1523.36" cy="1981.79" r="22.03" style="fill:#000000;stroke:#000000;stroke-width:8.64"/>
	<circle cx="1556.78" cy="1898.38" r="22.03" style="fill:#000000;stroke:#000000;stroke-width:8.64"/>
	<circle cx="1590.19" cy="1798.39" r="22.03" style="fill:#000000;stroke:#000000;stroke-width:8.64"/>
	<circle cx="1623.60" cy="1702.36" r="22.03" style="fill:#000000;stroke:#000000;stroke-width:8.64"/>
	<circle cx="1657.01" cy="1620.80" r="22.03" style="fill:#000000;stroke:#000000;stroke-width:8.64"/>
	<circle cx="1690.43" cy="1532.69" r="22.03" style="fill:#000000;stroke:#000000;stroke-width:8.64"/>
	<circle cx="1723.84" cy="1465.37" r="22.03" style="fill:#000000;stroke:#000000;stroke-width:8.64"/>
	<circle cx="1757.25" cy="1388.64" r="22.03" style="fill:#000000;stroke:#000000;stroke-width:8.64"/>
	<circle cx="1790.66" cy="1324.41" r="22.03" style="fill:#000000;stroke:#000000;stroke-width:8.64"/>
	<circle cx="1824.08" cy="1272.19" r="22.03" style="fill:#000000;stroke:#000000;stroke-width:8.64"/>
	<circle cx="1857.49" cy="881.62" r="22.03" style="fill:#000000;stroke:#000000;stroke-width:8.64"/>
	<circle cx="1890.90" cy="774.33" r="22.03" style="fill:#000000;stroke:#000000;stroke-width:8.64"/>
	<circle cx="1924.31" cy="708.86" r="22.03" style="fill:#000000;stroke:#000000;stroke-width:8.64"/>
	<circle cx="1957.85" cy="657.13" r="22.03" style="fill:#000000;stroke:#000000;stroke-width:8.64"/>
	<circle cx="1991.26" cy="604.17" r="22.03" style="fill:#000000;stroke:#000000;stroke-width:8.64"/>
	<circle cx="2024.67" cy="555.41" r="22.03" style="fill:#000000;stroke:#000000;stroke-width:8.64"/>
	<circle cx="2058.09" cy="510.36" r="22.03" style="fill:#000000;stroke:#000000;stroke-width:8.64"/>
	<circle cx="2091.50" cy="500.09" r="22.03" style="fill:#000000;stroke:#000000;stroke-width:8.64"/>
	<circle cx="2124.91" cy="477.19" r="22.03" style="fill:#000000;stroke:#000000;stroke-width:8.64"/>
	<circle cx="2158.32" cy="455.91" r="22.03" style="fill:#000000;stroke:#000000;stroke-width:8.64"/>
	<circle cx="2191.74" cy="439.20" r="22.03" style="fill:#000000;stroke:#000000;stroke-width:8.64"/>
	<circle cx="2225.15" cy="433.51" r="22.03" style="fill:#000000;stroke:#000000;stroke-width:8.64"/>
	<circle cx="2258.56" cy="420.27" r="22.03" style="fill:#000000;stroke:#000000;stroke-width:8.64"/>
	<circle cx="2291.97" cy="409.63" r="22.03" style="fill:#000000;stroke:#000000;stroke-width:8.64"/>
	<circle cx="2325.39" cy="398.36" r="22.03" style="fill:#000000;stroke:#000000;stroke-width:8.64"/>
	<circle cx="2358.80" cy="389.82" r="22.03" style="fill:#000000;stroke:#000000;stroke-width:8.64"/>
	<circle cx="2392.21" cy="378.81" r="22.03" style="fill:#000000;stroke:#000000;stroke-width:8.64"/>
	<circle cx="2425.62" cy="364.08" r="22.03" style="fill:#000000;stroke:#000000;stroke-width:8.64"/>
	<circle cx="2459.04" cy="358.76" r="22.03" style="fill:#000000;stroke:#000000;stroke-width:8.64"/>
	<circle cx="2492.45" cy="355.42" r="22.03" style="fill:#000000;stroke:#000000;stroke-width:8.64"/>
	<circle cx="2525.86" cy="352.45" r="22.03" style="fill:#000000;stroke:#000000;stroke-width:8.64"/>
	<circle cx="2559.27" cy="349.36" r="22.03" style="fill:#000000;stroke:#000000;stroke-width:8.64"/>
	<circle cx="2592.69" cy="345.03" r="22.03" style="fill:#000000;stroke:#000000;stroke-width:8.64"/>
	<circle cx="2626.10" cy="342.43" r="22.03" style="fill:#000000;stroke:#000000;stroke-width:8.64"/>
	<circle cx="2659.51" cy="341.19" r="22.03" style="fill:#000000;stroke:#000000;stroke-width:8.64"/>
	<circle cx="2692.92" cy="340.08" r="22.03" style="fill:#000000;stroke:#000000;stroke-width:8.64"/>
	<circle cx="2726.34" cy="339.46" r="22.03" style="fill:#000000;stroke:#000000;stroke-width:8.64"/>
	<circle cx="2759.75" cy="338.71" r="22.03" style="fill:#000000;stroke:#000000;stroke-width:8.64"/>
	<circle cx="2793.16" cy="338.10" r="22.03" style="fill:#000000;stroke:#000000;stroke-width:8.64"/>
	<circle cx="2826.57" cy="337.60" r="22.03" style="fill:#000000;stroke:#000000;stroke-width:8.64"/>
	<circle cx="2859.99" cy="337.11" r="22.03" style="fill:#000000;stroke:#000000;stroke-width:8.64"/>
	<circle cx="2893.40" cy="336.49" r="22.03" style="fill:#000000;stroke:#000000;stroke-width:8.64"/>
	<circle cx="2926.81" cy="335.87" r="22.03" style="fill:#000000;stroke:#000000;stroke-width:8.64"/>
	<circle cx="2960.22" cy="333.02" r="22.03" style="fill:#000000;stroke:#000000;stroke-width:8.64"/>
	<circle cx="2993.64" cy="332.16" r="22.03" style="fill:#000000;stroke:#000000;stroke-width:8.64"/>
	<circle cx="3027.05" cy="330.30" r="22.03" style="fill:#000000;stroke:#000000;stroke-width:8.64"/>
	<line x1="390.80" y1="2489.19" x2="390.80" y2="100.86" style="stroke:#000000;stroke-width:5.76"/>
	<line x1="390.80" y1="2425.70" x2="350.83" y2="2425.70" style="stroke:#000000;stroke-width:5.76"/>
	<text x="300.72" y="2425.70" style="font-family:'Helvetica';font-size:99.99px;fill:#000000" transform="rotate(-90 300.72,2425.70)" text-anchor="middle">0</text>
	<line x1="390.80" y1="1860.39" x2="350.83" y2="1860.39" style="stroke:#000000;stroke-width:5.76"/>
	<text x="300.72" y="1860.39" style="font-family:'Helvetica';font-size:99.99px;fill:#000000" transform="rotate(-90 300.72,1860.39)" text-anchor="middle">5</text>
	<line x1="390.80" y1="1294.96" x2="350.83" y2="1294.96" style="stroke:#000000;stroke-width:5.76"/>
	<text x="300.72" y="1294.96" style="font-family:'Helvetica';font-size:99.99px;fill:#000000" transform="rotate(-90 300.72,1294.96)" text-anchor="middle">10</text>
	<line x1="390.80" y1="729.53" x2="350.83" y2="729.53" style="stroke:#000000;stroke-width:5.76"/>
	<text x="300.72" y="729.53" style="font-family:'Helvetica';font-size:99.99px;fill:#000000" transform="rotate(-90 300.72,729.53)" text-anchor="middle">15</text>
	<line x1="390.80" y1="164.22" x2="350.83" y2="164.22" style="stroke:#000000;stroke-width:5.76"/>
	<text x="300.72" y="164.22" style="font-family:'Helvetica';font-size:99.99px;fill:#000000" transform="rotate(-90 300.72,164.22)" text-anchor="middle">20</text>
	<text x="190.71" y="1294.96" style="font-family:'Helvetica';font-size:99.99px;fill:#000000" transform="rotate(-90 190.71,1294.96)" text-anchor="middle">Confirmed cases per 100 beds</text>
	<line x1="390.80" y1="2489.19" x2="3859.02" y2="2489.19" style="stroke:#000000;stroke-width:5.76"/>
	<line x1="454.16" y1="2489.19" x2="454.16" y2="2529.16" style="stroke:#000000;stroke-width:5.76"/>
	<text x="454.16" y="2619.14" style="font-family:'Helvetica';font-size:99.99px;fill:#000000" text-anchor="middle">0</text>
	<line x1="1122.41" y1="2489.19" x2="1122.41" y2="2529.16" style="stroke:#000000;stroke-width:5.76"/>
	<text x="1122.41" y="2619.14" style="font-family:'Helvetica';font-size:99.99px;fill:#000000" text-anchor="middle">20</text>
	<line x1="1790.79" y1="2489.19" x2="1790.79" y2="2529.16" style="stroke:#000000;stroke-width:5.76"/>
	<text x="1790.79" y="2619.14" style="font-family:'Helvetica';font-size:99.99px;fill:#000000" text-anchor="middle">40</text>
	<line x1="2459.04" y1="2489.19" x2="2459.04" y2="2529.16" style="stroke:#000000;stroke-width:5.76"/>
	<text x="2459.04" y="2619.14" style="font-family:'Helvetica';font-size:99.99px;fill:#000000" text-anchor="middle">60</text>
	<line x1="3127.41" y1="2489.19" x2="3127.41" y2="2529.16" style="stroke:#000000;stroke-width:5.76"/>
	<text x="3127.41" y="2619.14" style="font-family:'Helvetica';font-size:99.99px;fill:#000000" text-anchor="middle">80</text>
	<line x1="3795.66" y1="2489.19" x2="3795.66" y2="2529.16" style="stroke:#000000;stroke-width:5.76"/>
	<text x="3795.66" y="2619.14" style="font-family:'Helvetica';font-size:99.99px;fill:#000000" text-anchor="middle">100</text>
	<text x="2124.91" y="2729.16" style="font-family:'Helvetica';font-size:99.99px;fill:#000000" text-anchor="middle">Days since 0.01 confirmed cases per 100 beds</text>
</svg>
