<?xml version="1.0" encoding="UTF-8" standalone="no"?>
<!-- This is a Stata 14.2 generated SVG file (http://www.stata.com) -->

<svg version="1.1" width="5.50in" height="4.00in" viewBox="0 0 3960 2880" xmlns="http://www.w3.org/2000/svg">
	<desc>Stata Graph - Graph</desc>
	<line x1="390.80" y1="1475.89" x2="3859.02" y2="1475.89" style="stroke:#FF0000;stroke-width:8.64"/>
	<path d="M565.54 1521.43 L565.54 1521.43 L676.91 1521.31 L788.29 1521.18 L899.66 1520.94 L1011.04 1520.56 L1122.41 1520.19 L1233.79 1519.82 L1345.29 1519.33 L1456.66 1518.71 L1568.04 1517.84 L1679.41 1516.36 L1790.79 1514.50 L1902.16 1512.77 L2013.54 1512.52 L2124.91 1514.00 L2236.29 1518.21 L2347.66 1526.13 L2459.04 1539.13 L2570.53 1559.42 L2681.91 1589.12 L2793.28 1631.32 L2904.66 1689.49 L3016.03 1767.70 L3127.41 1871.03 L3238.78 2004.94 L3350.16 2176.09 L3461.53 2391.67 L3461.53 275.23 L3350.16 547.36 L3238.78 767.89 L3127.41 944.98 L3016.03 1085.57 L2904.66 1195.96 L2793.28 1281.47 L2681.91 1347.06 L2570.53 1396.44 L2459.04 1433.19 L2347.66 1460.05 L2236.29 1479.23 L2124.91 1492.84 L2013.54 1502.00 L1902.16 1507.82 L1790.79 1511.16 L1679.41 1513.14 L1568.04 1514.75 L1456.66 1516.23 L1345.29 1517.47 L1233.79 1518.46 L1122.41 1519.20 L1011.04 1519.57 L899.66 1519.82 L788.29 1520.07 L676.91 1520.19 L565.54 1520.44 L565.54 1521.43 Z" stroke-linecap="round" style="fill:#EBEBFF;stroke:#E6E6FF;stroke-width:3.00"/>
	<path d="M565.54 1521.18 L565.54 1521.18 L676.91 1521.06 L788.29 1520.81 L899.66 1520.69 L1011.04 1520.32 L1122.41 1519.94 L1233.79 1519.45 L1345.29 1518.83 L1456.66 1517.96 L1568.04 1516.97 L1679.41 1515.49 L1790.79 1513.51 L1902.16 1511.41 L2013.54 1509.43 L2124.91 1507.94 L2236.29 1506.95 L2347.66 1506.95 L2459.04 1508.56 L2570.53 1512.40 L2681.91 1519.20 L2793.28 1530.34 L2904.66 1547.05 L3016.03 1570.81 L3127.41 1603.73 L3238.78 1647.91 L3350.16 1706.07 L3461.53 1780.82 L3461.53 886.08 L3350.16 1017.38 L3238.78 1124.92 L3127.41 1212.29 L3016.03 1282.46 L2904.66 1338.40 L2793.28 1382.45 L2681.91 1416.86 L2570.53 1443.47 L2459.04 1463.76 L2347.66 1479.11 L2236.29 1490.49 L2124.91 1498.91 L2013.54 1504.97 L1902.16 1509.30 L1790.79 1512.02 L1679.41 1514.00 L1568.04 1515.61 L1456.66 1516.97 L1345.29 1518.09 L1233.79 1518.83 L1122.41 1519.45 L1011.04 1519.94 L899.66 1520.19 L788.29 1520.44 L676.91 1520.56 L565.54 1520.69 L565.54 1521.18 Z" stroke-linecap="round" style="fill:#D6D6FF;stroke:#CCCCFF;stroke-width:3.00"/>
	<path d="M565.54 1521.06 L565.54 1521.06 L676.91 1520.94 L788.29 1520.81 L899.66 1520.56 L1011.04 1520.32 L1122.41 1519.82 L1233.79 1519.33 L1345.29 1518.71 L1456.66 1517.96 L1568.04 1516.85 L1679.41 1515.24 L1790.79 1513.39 L1902.16 1511.16 L2013.54 1508.93 L2124.91 1506.95 L2236.29 1505.09 L2347.66 1503.98 L2459.04 1503.61 L2570.53 1504.72 L2681.91 1507.94 L2793.28 1514.00 L2904.66 1523.91 L3016.03 1539.00 L3127.41 1560.54 L3238.78 1590.24 L3350.16 1629.96 L3461.53 1682.06 L3461.53 984.83 L3350.16 1093.49 L3238.78 1182.72 L3127.41 1255.48 L3016.03 1314.27 L2904.66 1361.42 L2793.28 1398.79 L2681.91 1428.24 L2570.53 1451.01 L2459.04 1468.71 L2347.66 1482.20 L2236.29 1492.35 L2124.91 1499.90 L2013.54 1505.47 L1902.16 1509.55 L1790.79 1512.27 L1679.41 1514.13 L1568.04 1515.74 L1456.66 1517.10 L1345.29 1518.09 L1233.79 1518.95 L1122.41 1519.57 L1011.04 1519.94 L899.66 1520.19 L788.29 1520.44 L676.91 1520.56 L565.54 1520.69 L565.54 1521.06 Z" stroke-linecap="round" style="fill:#C2C2FF;stroke:#B3B3FF;stroke-width:3.00"/>
	<path d="M565.54 1521.06 L565.54 1521.06 L676.91 1520.94 L788.29 1520.81 L899.66 1520.56 L1011.04 1520.19 L1122.41 1519.82 L1233.79 1519.33 L1345.29 1518.71 L1456.66 1517.84 L1568.04 1516.73 L1679.41 1515.12 L1790.79 1513.26 L1902.16 1510.91 L2013.54 1508.68 L2124.91 1506.21 L2236.29 1503.98 L2347.66 1501.88 L2459.04 1500.27 L2570.53 1499.65 L2681.91 1500.27 L2793.28 1502.99 L2904.66 1508.44 L3016.03 1517.47 L3127.41 1531.33 L3238.78 1551.25 L3350.16 1578.60 L3461.53 1615.36 L3461.53 1051.54 L3350.16 1144.72 L3238.78 1221.70 L3127.41 1284.69 L3016.03 1335.80 L2904.66 1376.89 L2793.28 1409.80 L2681.91 1435.79 L2570.53 1456.21 L2459.04 1472.05 L2347.66 1484.30 L2236.29 1493.59 L2124.91 1500.64 L2013.54 1505.84 L1902.16 1509.67 L1790.79 1512.27 L1679.41 1514.25 L1568.04 1515.86 L1456.66 1517.10 L1345.29 1518.21 L1233.79 1518.95 L1122.41 1519.57 L1011.04 1519.94 L899.66 1520.32 L788.29 1520.44 L676.91 1520.69 L565.54 1520.81 L565.54 1521.06 Z" stroke-linecap="round" style="fill:#ADADFF;stroke:#9999FF;stroke-width:3.00"/>
	<path d="M565.54 1521.06 L565.54 1521.06 L676.91 1520.94 L788.29 1520.81 L899.66 1520.56 L1011.04 1520.19 L1122.41 1519.82 L1233.79 1519.33 L1345.29 1518.58 L1456.66 1517.72 L1568.04 1516.60 L1679.41 1515.12 L1790.79 1513.14 L1902.16 1510.79 L2013.54 1508.31 L2124.91 1505.71 L2236.29 1502.99 L2347.66 1500.14 L2459.04 1497.67 L2570.53 1495.57 L2681.91 1494.20 L2793.28 1494.20 L2904.66 1496.06 L3016.03 1500.39 L3127.41 1508.19 L3238.78 1520.32 L3350.16 1537.89 L3461.53 1562.39 L3461.53 1104.50 L3350.16 1185.56 L3238.78 1252.64 L3127.41 1307.83 L3016.03 1352.88 L2904.66 1389.26 L2793.28 1418.59 L2681.91 1441.86 L2570.53 1460.30 L2459.04 1474.65 L2347.66 1485.91 L2236.29 1494.58 L2124.91 1501.13 L2013.54 1506.08 L1902.16 1509.80 L1790.79 1512.40 L1679.41 1514.38 L1568.04 1515.98 L1456.66 1517.22 L1345.29 1518.21 L1233.79 1518.95 L1122.41 1519.57 L1011.04 1519.94 L899.66 1520.32 L788.29 1520.56 L676.91 1520.69 L565.54 1520.81 L565.54 1521.06 Z" stroke-linecap="round" style="fill:#9999FF;stroke:#8080FF;stroke-width:3.00"/>
	<path d="M565.54 1521.06 L565.54 1521.06 L676.91 1520.94 L788.29 1520.69 L899.66 1520.44 L1011.04 1520.19 L1122.41 1519.82 L1233.79 1519.20 L1345.29 1518.58 L1456.66 1517.72 L1568.04 1516.60 L1679.41 1514.99 L1790.79 1513.01 L1902.16 1510.79 L2013.54 1508.19 L2124.91 1505.22 L2236.29 1502.12 L2347.66 1498.78 L2459.04 1495.32 L2570.53 1491.98 L2681.91 1489.01 L2793.28 1486.66 L2904.66 1485.42 L3016.03 1485.79 L3127.41 1488.26 L3238.78 1493.71 L3350.16 1502.87 L3461.53 1516.85 L3461.53 1150.04 L3350.16 1220.58 L3238.78 1279.24 L3127.41 1327.76 L3016.03 1367.48 L2904.66 1399.90 L2793.28 1426.02 L2681.91 1447.05 L2570.53 1463.76 L2459.04 1477.00 L2347.66 1487.27 L2236.29 1495.32 L2124.91 1501.63 L2013.54 1506.33 L1902.16 1509.92 L1790.79 1512.52 L1679.41 1514.50 L1568.04 1515.98 L1456.66 1517.22 L1345.29 1518.21 L1233.79 1519.08 L1122.41 1519.57 L1011.04 1520.07 L899.66 1520.32 L788.29 1520.56 L676.91 1520.69 L565.54 1520.81 L565.54 1521.06 Z" stroke-linecap="round" style="fill:#8585FF;stroke:#6666FF;stroke-width:3.00"/>
	<path d="M565.54 1520.94 L565.54 1520.94 L676.91 1520.81 L788.29 1520.69 L899.66 1520.44 L1011.04 1520.19 L1122.41 1519.70 L1233.79 1519.20 L1345.29 1518.58 L1456.66 1517.72 L1568.04 1516.48 L1679.41 1514.99 L1790.79 1513.01 L1902.16 1510.66 L2013.54 1507.94 L2124.91 1504.85 L2236.29 1501.38 L2347.66 1497.55 L2459.04 1493.34 L2570.53 1488.88 L2681.91 1484.43 L2793.28 1479.97 L2904.66 1475.89 L3016.03 1472.55 L3127.41 1470.44 L3238.78 1469.82 L3350.16 1471.43 L3461.53 1476.14 L3461.53 1190.88 L3350.16 1251.89 L3238.78 1303.13 L3127.41 1345.58 L3016.03 1380.72 L2904.66 1409.43 L2793.28 1432.82 L2681.91 1451.76 L2570.53 1466.98 L2459.04 1478.98 L2347.66 1488.64 L2236.29 1496.06 L2124.91 1502.00 L2013.54 1506.46 L1902.16 1509.92 L1790.79 1512.52 L1679.41 1514.50 L1568.04 1516.11 L1456.66 1517.35 L1345.29 1518.34 L1233.79 1519.08 L1122.41 1519.57 L1011.04 1520.07 L899.66 1520.32 L788.29 1520.56 L676.91 1520.69 L565.54 1520.81 L565.54 1520.94 Z" stroke-linecap="round" style="fill:#7171FF;stroke:#4D4DFF;stroke-width:3.00"/>
	<path d="M565.54 1520.94 L565.54 1520.94 L676.91 1520.81 L788.29 1520.69 L899.66 1520.44 L1011.04 1520.19 L1122.41 1519.70 L1233.79 1519.20 L1345.29 1518.46 L1456.66 1517.59 L1568.04 1516.48 L1679.41 1514.87 L1790.79 1512.89 L1902.16 1510.54 L2013.54 1507.69 L2124.91 1504.48 L2236.29 1500.64 L2347.66 1496.31 L2459.04 1491.36 L2570.53 1485.91 L2681.91 1480.10 L2793.28 1473.66 L2904.66 1467.10 L3016.03 1460.42 L3127.41 1453.86 L3238.78 1447.67 L3350.16 1442.35 L3461.53 1438.27 L3461.53 1228.63 L3350.16 1281.10 L3238.78 1325.16 L3127.41 1362.16 L3016.03 1392.85 L2904.66 1418.22 L2793.28 1439.13 L2681.91 1456.09 L2570.53 1469.82 L2459.04 1480.96 L2347.66 1489.75 L2236.29 1496.80 L2124.91 1502.37 L2013.54 1506.70 L1902.16 1510.04 L1790.79 1512.64 L1679.41 1514.62 L1568.04 1516.11 L1456.66 1517.35 L1345.29 1518.34 L1233.79 1519.08 L1122.41 1519.70 L1011.04 1520.07 L899.66 1520.32 L788.29 1520.56 L676.91 1520.69 L565.54 1520.81 L565.54 1520.94 Z" stroke-linecap="round" style="fill:#5C5CFF;stroke:#3333FF;stroke-width:3.00"/>
	<path d="M565.54 1520.94 L565.54 1520.94 L676.91 1520.81 L788.29 1520.69 L899.66 1520.44 L1011.04 1520.19 L1122.41 1519.70 L1233.79 1519.20 L1345.29 1518.46 L1456.66 1517.59 L1568.04 1516.36 L1679.41 1514.87 L1790.79 1512.89 L1902.16 1510.42 L2013.54 1507.57 L2124.91 1504.10 L2236.29 1500.02 L2347.66 1495.19 L2459.04 1489.63 L2570.53 1483.19 L2681.91 1475.89 L2793.28 1467.84 L2904.66 1458.69 L3016.03 1448.79 L3127.41 1438.14 L3238.78 1426.76 L3350.16 1414.75 L3461.53 1402.38 L3461.53 1264.52 L3350.16 1308.70 L3238.78 1346.19 L3127.41 1377.88 L3016.03 1404.48 L2904.66 1426.63 L2793.28 1444.95 L2681.91 1460.17 L2570.53 1472.55 L2459.04 1482.70 L2347.66 1490.86 L2236.29 1497.42 L2124.91 1502.74 L2013.54 1506.83 L1902.16 1510.17 L1790.79 1512.64 L1679.41 1514.62 L1568.04 1516.23 L1456.66 1517.47 L1345.29 1518.34 L1233.79 1519.08 L1122.41 1519.70 L1011.04 1520.07 L899.66 1520.32 L788.29 1520.56 L676.91 1520.81 L565.54 1520.94 L565.54 1520.94 Z" stroke-linecap="round" style="fill:#4747FF;stroke:#1919FF;stroke-width:3.00"/>
	<path d="M565.54 1520.94 L565.54 1520.94 L676.91 1520.81 L788.29 1520.69 L899.66 1520.44 L1011.04 1520.07 L1122.41 1519.70 L1233.79 1519.20 L1345.29 1518.46 L1456.66 1517.59 L1568.04 1516.36 L1679.41 1514.75 L1790.79 1512.77 L1902.16 1510.42 L2013.54 1507.45 L2124.91 1503.73 L2236.29 1499.40 L2347.66 1494.08 L2459.04 1487.89 L2570.53 1480.59 L2681.91 1471.93 L2793.28 1462.03 L2904.66 1450.64 L3016.03 1437.65 L3127.41 1422.92 L3238.78 1406.46 L3350.16 1388.02 L3461.53 1367.60 L3461.53 1299.29 L3350.16 1335.43 L3238.78 1366.49 L3127.41 1393.10 L3016.03 1415.62 L2904.66 1434.68 L2793.28 1450.77 L2681.91 1464.13 L2570.53 1475.27 L2459.04 1484.43 L2347.66 1491.98 L2236.29 1498.16 L2124.91 1503.11 L2013.54 1507.07 L1902.16 1510.17 L1790.79 1512.77 L1679.41 1514.62 L1568.04 1516.23 L1456.66 1517.47 L1345.29 1518.46 L1233.79 1519.08 L1122.41 1519.70 L1011.04 1520.07 L899.66 1520.44 L788.29 1520.56 L676.91 1520.81 L565.54 1520.94 L565.54 1520.94 Z" stroke-linecap="round" style="fill:#3333FF;stroke:#0000FF;stroke-width:3.00"/>
	<circle cx="565.41" cy="1520.94" r="22.03" style="fill:#000000;stroke:#000000;stroke-width:8.64"/>
	<circle cx="676.79" cy="1520.94" r="22.03" style="fill:#000000;stroke:#000000;stroke-width:8.64"/>
	<circle cx="788.29" cy="1520.94" r="22.03" style="fill:#000000;stroke:#000000;stroke-width:8.64"/>
	<circle cx="899.66" cy="1520.69" r="22.03" style="fill:#000000;stroke:#000000;stroke-width:8.64"/>
	<circle cx="1011.04" cy="1520.56" r="22.03" style="fill:#000000;stroke:#000000;stroke-width:8.64"/>
	<circle cx="1122.41" cy="1519.82" r="22.03" style="fill:#000000;stroke:#000000;stroke-width:8.64"/>
	<circle cx="1233.79" cy="1519.20" r="22.03" style="fill:#000000;stroke:#000000;stroke-width:8.64"/>
	<circle cx="1345.16" cy="1518.09" r="22.03" style="fill:#000000;stroke:#000000;stroke-width:8.64"/>
	<circle cx="1456.54" cy="1516.97" r="22.03" style="fill:#000000;stroke:#000000;stroke-width:8.64"/>
	<circle cx="1567.91" cy="1515.61" r="22.03" style="fill:#000000;stroke:#000000;stroke-width:8.64"/>
	<circle cx="1679.29" cy="1515.61" r="22.03" style="fill:#000000;stroke:#000000;stroke-width:8.64"/>
	<circle cx="1790.66" cy="1513.63" r="22.03" style="fill:#000000;stroke:#000000;stroke-width:8.64"/>
	<circle cx="1902.04" cy="1509.80" r="22.03" style="fill:#000000;stroke:#000000;stroke-width:8.64"/>
	<line x1="390.80" y1="2489.19" x2="390.80" y2="100.86" style="stroke:#000000;stroke-width:5.76"/>
	<line x1="390.80" y1="2425.82" x2="350.83" y2="2425.82" style="stroke:#000000;stroke-width:5.76"/>
	<text x="300.72" y="2425.82" style="font-family:'Helvetica';font-size:99.99px;fill:#000000" transform="rotate(-90 300.72,2425.82)" text-anchor="middle">-200</text>
	<line x1="390.80" y1="1973.50" x2="350.83" y2="1973.50" style="stroke:#000000;stroke-width:5.76"/>
	<text x="300.72" y="1973.50" style="font-family:'Helvetica';font-size:99.99px;fill:#000000" transform="rotate(-90 300.72,1973.50)" text-anchor="middle">-100</text>
	<line x1="390.80" y1="1521.18" x2="350.83" y2="1521.18" style="stroke:#000000;stroke-width:5.76"/>
	<text x="300.72" y="1521.18" style="font-family:'Helvetica';font-size:99.99px;fill:#000000" transform="rotate(-90 300.72,1521.18)" text-anchor="middle">0</text>
	<line x1="390.80" y1="1068.86" x2="350.83" y2="1068.86" style="stroke:#000000;stroke-width:5.76"/>
	<text x="300.72" y="1068.86" style="font-family:'Helvetica';font-size:99.99px;fill:#000000" transform="rotate(-90 300.72,1068.86)" text-anchor="middle">100</text>
	<line x1="390.80" y1="616.54" x2="350.83" y2="616.54" style="stroke:#000000;stroke-width:5.76"/>
	<text x="300.72" y="616.54" style="font-family:'Helvetica';font-size:99.99px;fill:#000000" transform="rotate(-90 300.72,616.54)" text-anchor="middle">200</text>
	<line x1="390.80" y1="164.22" x2="350.83" y2="164.22" style="stroke:#000000;stroke-width:5.76"/>
	<text x="300.72" y="164.22" style="font-family:'Helvetica';font-size:99.99px;fill:#000000" transform="rotate(-90 300.72,164.22)" text-anchor="middle">300</text>
	<text x="190.71" y="1294.96" style="font-family:'Helvetica';font-size:99.99px;fill:#000000" transform="rotate(-90 190.71,1294.96)" text-anchor="middle">Confirmed cases per 100 beds</text>
	<line x1="390.80" y1="2489.19" x2="3859.02" y2="2489.19" style="stroke:#000000;stroke-width:5.76"/>
	<line x1="454.16" y1="2489.19" x2="454.16" y2="2529.16" style="stroke:#000000;stroke-width:5.76"/>
	<text x="454.16" y="2619.14" style="font-family:'Helvetica';font-size:99.99px;fill:#000000" text-anchor="middle">0</text>
	<line x1="1568.04" y1="2489.19" x2="1568.04" y2="2529.16" style="stroke:#000000;stroke-width:5.76"/>
	<text x="1568.04" y="2619.14" style="font-family:'Helvetica';font-size:99.99px;fill:#000000" text-anchor="middle">10</text>
	<line x1="2681.91" y1="2489.19" x2="2681.91" y2="2529.16" style="stroke:#000000;stroke-width:5.76"/>
	<text x="2681.91" y="2619.14" style="font-family:'Helvetica';font-size:99.99px;fill:#000000" text-anchor="middle">20</text>
	<line x1="3795.66" y1="2489.19" x2="3795.66" y2="2529.16" style="stroke:#000000;stroke-width:5.76"/>
	<text x="3795.66" y="2619.14" style="font-family:'Helvetica';font-size:99.99px;fill:#000000" text-anchor="middle">30</text>
	<text x="2124.91" y="2729.16" style="font-family:'Helvetica';font-size:99.99px;fill:#000000" text-anchor="middle">Days since 0.01 confirmed cases per 100 beds</text>
</svg>
