<?xml version="1.0" encoding="UTF-8" standalone="no"?>
<!-- This is a Stata 14.2 generated SVG file (http://www.stata.com) -->

<svg version="1.1" width="5.50in" height="4.00in" viewBox="0 0 3960 2880" xmlns="http://www.w3.org/2000/svg">
	<desc>Stata Graph - Graph</desc>
	<line x1="390.80" y1="1714.11" x2="3859.02" y2="1714.11" style="stroke:#FF0000;stroke-width:8.64"/>
	<path d="M587.81 1715.48 L587.81 1715.48 L721.46 1715.48 L855.11 1715.48 L988.76 1715.48 L1122.41 1715.48 L1256.06 1715.48 L1389.84 1715.48 L1523.49 1715.48 L1657.14 1715.48 L1790.79 1715.35 L1924.44 1715.23 L2058.09 1715.10 L2191.74 1714.98 L2325.39 1715.23 L2459.04 1715.85 L2592.81 1717.58 L2726.46 1721.42 L2860.11 1729.09 L2993.76 1743.20 L3127.41 1767.45 L3261.06 1807.67 L3394.71 1871.78 L3528.36 1970.29 L3662.01 2117.18 L3795.66 2329.91 L3795.66 164.22 L3662.01 671.98 L3528.36 1028.89 L3394.71 1274.29 L3261.06 1438.89 L3127.41 1546.80 L2993.76 1615.48 L2860.11 1658.05 L2726.46 1683.55 L2592.81 1698.40 L2459.04 1706.81 L2325.39 1711.27 L2191.74 1713.50 L2058.09 1714.61 L1924.44 1715.10 L1790.79 1715.23 L1657.14 1715.35 L1523.49 1715.48 L1389.84 1715.48 L1256.06 1715.48 L1122.41 1715.48 L988.76 1715.48 L855.11 1715.48 L721.46 1715.48 L587.81 1715.48 L587.81 1715.48 Z" stroke-linecap="round" style="fill:#EBEBFF;stroke:#E6E6FF;stroke-width:3.00"/>
	<path d="M587.81 1715.48 L587.81 1715.48 L721.46 1715.48 L855.11 1715.48 L988.76 1715.48 L1122.41 1715.48 L1256.06 1715.48 L1389.84 1715.48 L1523.49 1715.48 L1657.14 1715.48 L1790.79 1715.35 L1924.44 1715.23 L2058.09 1714.98 L2191.74 1714.61 L2325.39 1713.99 L2459.04 1713.25 L2592.81 1712.01 L2726.46 1710.53 L2860.11 1708.55 L2993.76 1706.32 L3127.41 1703.72 L3261.06 1701.24 L3394.71 1699.39 L3528.36 1698.65 L3662.01 1700.01 L3795.66 1704.83 L3795.66 789.18 L3662.01 1089.03 L3528.36 1300.65 L3394.71 1446.68 L3261.06 1545.31 L3127.41 1610.41 L2993.76 1652.36 L2860.11 1678.60 L2726.46 1694.56 L2592.81 1703.97 L2459.04 1709.41 L2325.39 1712.38 L2191.74 1713.99 L2058.09 1714.73 L1924.44 1715.10 L1790.79 1715.35 L1657.14 1715.35 L1523.49 1715.48 L1389.84 1715.48 L1256.06 1715.48 L1122.41 1715.48 L988.76 1715.48 L855.11 1715.48 L721.46 1715.48 L587.81 1715.48 L587.81 1715.48 Z" stroke-linecap="round" style="fill:#D6D6FF;stroke:#CCCCFF;stroke-width:3.00"/>
	<path d="M587.81 1715.48 L587.81 1715.48 L721.46 1715.48 L855.11 1715.48 L988.76 1715.48 L1122.41 1715.48 L1256.06 1715.48 L1389.84 1715.48 L1523.49 1715.48 L1657.14 1715.48 L1790.79 1715.35 L1924.44 1715.23 L2058.09 1714.98 L2191.74 1714.49 L2325.39 1713.87 L2459.04 1712.75 L2592.81 1711.14 L2726.46 1708.79 L2860.11 1705.33 L2993.76 1700.38 L3127.41 1693.45 L3261.06 1684.04 L3394.71 1671.42 L3528.36 1654.71 L3662.01 1632.56 L3795.66 1603.73 L3795.66 890.29 L3662.01 1156.60 L3528.36 1344.59 L3394.71 1474.65 L3261.06 1562.64 L3127.41 1620.80 L2993.76 1658.30 L2860.11 1681.82 L2726.46 1696.29 L2592.81 1704.83 L2459.04 1709.78 L2325.39 1712.51 L2191.74 1713.99 L2058.09 1714.73 L1924.44 1715.10 L1790.79 1715.35 L1657.14 1715.35 L1523.49 1715.48 L1389.84 1715.48 L1256.06 1715.48 L1122.41 1715.48 L988.76 1715.48 L855.11 1715.48 L721.46 1715.48 L587.81 1715.48 L587.81 1715.48 Z" stroke-linecap="round" style="fill:#C2C2FF;stroke:#B3B3FF;stroke-width:3.00"/>
	<path d="M587.81 1715.48 L587.81 1715.48 L721.46 1715.48 L855.11 1715.48 L988.76 1715.48 L1122.41 1715.48 L1256.06 1715.48 L1389.84 1715.48 L1523.49 1715.48 L1657.14 1715.48 L1790.79 1715.35 L1924.44 1715.23 L2058.09 1714.86 L2191.74 1714.49 L2325.39 1713.74 L2459.04 1712.51 L2592.81 1710.53 L2726.46 1707.56 L2860.11 1703.10 L2993.76 1696.29 L3127.41 1686.52 L3261.06 1672.41 L3394.71 1652.61 L3528.36 1625.01 L3662.01 1587.02 L3795.66 1535.54 L3795.66 958.60 L3662.01 1202.02 L3528.36 1374.16 L3394.71 1493.46 L3261.06 1574.15 L3127.41 1627.73 L2993.76 1662.26 L2860.11 1684.17 L2726.46 1697.53 L2592.81 1705.45 L2459.04 1710.03 L2325.39 1712.63 L2191.74 1714.11 L2058.09 1714.86 L1924.44 1715.10 L1790.79 1715.35 L1657.14 1715.35 L1523.49 1715.48 L1389.84 1715.48 L1256.06 1715.48 L1122.41 1715.48 L988.76 1715.48 L855.11 1715.48 L721.46 1715.48 L587.81 1715.48 L587.81 1715.48 Z" stroke-linecap="round" style="fill:#ADADFF;stroke:#9999FF;stroke-width:3.00"/>
	<path d="M587.81 1715.48 L587.81 1715.48 L721.46 1715.48 L855.11 1715.48 L988.76 1715.48 L1122.41 1715.48 L1256.06 1715.48 L1389.84 1715.48 L1523.49 1715.48 L1657.14 1715.48 L1790.79 1715.35 L1924.44 1715.23 L2058.09 1714.86 L2191.74 1714.49 L2325.39 1713.62 L2459.04 1712.26 L2592.81 1710.15 L2726.46 1706.69 L2860.11 1701.24 L2993.76 1693.08 L3127.41 1680.95 L3261.06 1663.25 L3394.71 1637.63 L3528.36 1601.38 L3662.01 1550.88 L3795.66 1481.21 L3795.66 1012.80 L3662.01 1238.28 L3528.36 1397.80 L3394.71 1508.44 L3261.06 1583.43 L3127.41 1633.18 L2993.76 1665.48 L2860.11 1685.90 L2726.46 1698.40 L2592.81 1705.95 L2459.04 1710.28 L2325.39 1712.75 L2191.74 1714.11 L2058.09 1714.86 L1924.44 1715.10 L1790.79 1715.35 L1657.14 1715.35 L1523.49 1715.48 L1389.84 1715.48 L1256.06 1715.48 L1122.41 1715.48 L988.76 1715.48 L855.11 1715.48 L721.46 1715.48 L587.81 1715.48 L587.81 1715.48 Z" stroke-linecap="round" style="fill:#9999FF;stroke:#8080FF;stroke-width:3.00"/>
	<path d="M587.81 1715.48 L587.81 1715.48 L721.46 1715.48 L855.11 1715.48 L988.76 1715.48 L1122.41 1715.48 L1256.06 1715.48 L1389.84 1715.48 L1523.49 1715.48 L1657.14 1715.48 L1790.79 1715.35 L1924.44 1715.23 L2058.09 1714.86 L2191.74 1714.36 L2325.39 1713.50 L2459.04 1712.13 L2592.81 1709.66 L2726.46 1705.82 L2860.11 1699.76 L2993.76 1690.35 L3127.41 1676.25 L3261.06 1655.33 L3394.71 1624.76 L3528.36 1581.20 L3662.01 1519.82 L3795.66 1434.80 L3795.66 1059.33 L3662.01 1269.34 L3528.36 1417.97 L3394.71 1521.18 L3261.06 1591.35 L3127.41 1638.01 L2993.76 1668.20 L2860.11 1687.38 L2726.46 1699.26 L2592.81 1706.32 L2459.04 1710.53 L2325.39 1712.88 L2191.74 1714.11 L2058.09 1714.86 L1924.44 1715.10 L1790.79 1715.35 L1657.14 1715.35 L1523.49 1715.48 L1389.84 1715.48 L1256.06 1715.48 L1122.41 1715.48 L988.76 1715.48 L855.11 1715.48 L721.46 1715.48 L587.81 1715.48 L587.81 1715.48 Z" stroke-linecap="round" style="fill:#8585FF;stroke:#6666FF;stroke-width:3.00"/>
	<path d="M587.81 1715.48 L587.81 1715.48 L721.46 1715.48 L855.11 1715.48 L988.76 1715.48 L1122.41 1715.48 L1256.06 1715.48 L1389.84 1715.48 L1523.49 1715.48 L1657.14 1715.48 L1790.79 1715.35 L1924.44 1715.23 L2058.09 1714.86 L2191.74 1714.36 L2325.39 1713.50 L2459.04 1711.89 L2592.81 1709.29 L2726.46 1705.08 L2860.11 1698.40 L2993.76 1687.88 L3127.41 1672.04 L3261.06 1648.15 L3394.71 1613.26 L3528.36 1563.01 L3662.01 1491.98 L3795.66 1392.97 L3795.66 1101.04 L3662.01 1297.19 L3528.36 1436.16 L3394.71 1532.69 L3261.06 1598.53 L3127.41 1642.21 L2993.76 1670.68 L2860.11 1688.75 L2726.46 1700.01 L2592.81 1706.69 L2459.04 1710.65 L2325.39 1712.88 L2191.74 1714.11 L2058.09 1714.86 L1924.44 1715.23 L1790.79 1715.35 L1657.14 1715.35 L1523.49 1715.48 L1389.84 1715.48 L1256.06 1715.48 L1122.41 1715.48 L988.76 1715.48 L855.11 1715.48 L721.46 1715.48 L587.81 1715.48 L587.81 1715.48 Z" stroke-linecap="round" style="fill:#7171FF;stroke:#4D4DFF;stroke-width:3.00"/>
	<path d="M587.81 1715.48 L587.81 1715.48 L721.46 1715.48 L855.11 1715.48 L988.76 1715.48 L1122.41 1715.48 L1256.06 1715.48 L1389.84 1715.48 L1523.49 1715.48 L1657.14 1715.48 L1790.79 1715.35 L1924.44 1715.23 L2058.09 1714.86 L2191.74 1714.36 L2325.39 1713.37 L2459.04 1711.76 L2592.81 1708.92 L2726.46 1704.46 L2860.11 1697.16 L2993.76 1685.65 L3127.41 1668.08 L3261.06 1641.60 L3394.71 1602.61 L3528.36 1546.18 L3662.01 1466.11 L3795.66 1354.24 L3795.66 1139.77 L3662.01 1323.05 L3528.36 1452.99 L3394.71 1543.46 L3261.06 1605.09 L3127.41 1646.17 L2993.76 1673.03 L2860.11 1690.11 L2726.46 1700.63 L2592.81 1707.06 L2459.04 1710.90 L2325.39 1713.00 L2191.74 1714.24 L2058.09 1714.86 L1924.44 1715.23 L1790.79 1715.35 L1657.14 1715.35 L1523.49 1715.48 L1389.84 1715.48 L1256.06 1715.48 L1122.41 1715.48 L988.76 1715.48 L855.11 1715.48 L721.46 1715.48 L587.81 1715.48 L587.81 1715.48 Z" stroke-linecap="round" style="fill:#5C5CFF;stroke:#3333FF;stroke-width:3.00"/>
	<path d="M587.81 1715.48 L587.81 1715.48 L721.46 1715.48 L855.11 1715.48 L988.76 1715.48 L1122.41 1715.48 L1256.06 1715.48 L1389.84 1715.48 L1523.49 1715.48 L1657.14 1715.48 L1790.79 1715.35 L1924.44 1715.23 L2058.09 1714.86 L2191.74 1714.36 L2325.39 1713.37 L2459.04 1711.64 L2592.81 1708.67 L2726.46 1703.72 L2860.11 1695.92 L2993.76 1683.42 L3127.41 1664.24 L3261.06 1635.28 L3394.71 1592.46 L3528.36 1530.22 L3662.01 1441.61 L3795.66 1317.48 L3795.66 1176.53 L3662.01 1347.56 L3528.36 1468.96 L3394.71 1553.61 L3261.06 1611.28 L3127.41 1649.89 L2993.76 1675.13 L2860.11 1691.22 L2726.46 1701.24 L2592.81 1707.43 L2459.04 1711.02 L2325.39 1713.12 L2191.74 1714.24 L2058.09 1714.86 L1924.44 1715.23 L1790.79 1715.35 L1657.14 1715.35 L1523.49 1715.48 L1389.84 1715.48 L1256.06 1715.48 L1122.41 1715.48 L988.76 1715.48 L855.11 1715.48 L721.46 1715.48 L587.81 1715.48 L587.81 1715.48 Z" stroke-linecap="round" style="fill:#4747FF;stroke:#1919FF;stroke-width:3.00"/>
	<path d="M587.81 1715.48 L587.81 1715.48 L721.46 1715.48 L855.11 1715.48 L988.76 1715.48 L1122.41 1715.48 L1256.06 1715.48 L1389.84 1715.48 L1523.49 1715.48 L1657.14 1715.35 L1790.79 1715.35 L1924.44 1715.23 L2058.09 1714.86 L2191.74 1714.24 L2325.39 1713.25 L2459.04 1711.39 L2592.81 1708.30 L2726.46 1703.10 L2860.11 1694.69 L2993.76 1681.32 L3127.41 1660.65 L3261.06 1629.34 L3394.71 1582.69 L3528.36 1514.87 L3662.01 1417.85 L3795.66 1281.97 L3795.66 1212.05 L3662.01 1371.19 L3528.36 1484.43 L3394.71 1563.38 L3261.06 1617.34 L3127.41 1653.60 L2993.76 1677.24 L2860.11 1692.46 L2726.46 1701.99 L2592.81 1707.68 L2459.04 1711.14 L2325.39 1713.12 L2191.74 1714.24 L2058.09 1714.86 L1924.44 1715.23 L1790.79 1715.35 L1657.14 1715.35 L1523.49 1715.48 L1389.84 1715.48 L1256.06 1715.48 L1122.41 1715.48 L988.76 1715.48 L855.11 1715.48 L721.46 1715.48 L587.81 1715.48 L587.81 1715.48 Z" stroke-linecap="round" style="fill:#3333FF;stroke:#0000FF;stroke-width:3.00"/>
	<circle cx="587.69" cy="1715.60" r="22.03" style="fill:#000000;stroke:#000000;stroke-width:8.64"/>
	<circle cx="721.46" cy="1715.60" r="22.03" style="fill:#000000;stroke:#000000;stroke-width:8.64"/>
	<circle cx="855.11" cy="1715.60" r="22.03" style="fill:#000000;stroke:#000000;stroke-width:8.64"/>
	<circle cx="988.76" cy="1715.48" r="22.03" style="fill:#000000;stroke:#000000;stroke-width:8.64"/>
	<circle cx="1122.41" cy="1715.48" r="22.03" style="fill:#000000;stroke:#000000;stroke-width:8.64"/>
	<circle cx="1256.06" cy="1715.48" r="22.03" style="fill:#000000;stroke:#000000;stroke-width:8.64"/>
	<circle cx="1389.71" cy="1715.48" r="22.03" style="fill:#000000;stroke:#000000;stroke-width:8.64"/>
	<circle cx="1523.36" cy="1715.48" r="22.03" style="fill:#000000;stroke:#000000;stroke-width:8.64"/>
	<circle cx="1657.01" cy="1715.48" r="22.03" style="fill:#000000;stroke:#000000;stroke-width:8.64"/>
	<circle cx="1790.66" cy="1715.35" r="22.03" style="fill:#000000;stroke:#000000;stroke-width:8.64"/>
	<circle cx="1924.31" cy="1715.23" r="22.03" style="fill:#000000;stroke:#000000;stroke-width:8.64"/>
	<line x1="390.80" y1="2489.19" x2="390.80" y2="100.86" style="stroke:#000000;stroke-width:5.76"/>
	<line x1="390.80" y1="2425.82" x2="350.83" y2="2425.82" style="stroke:#000000;stroke-width:5.76"/>
	<text x="300.72" y="2425.82" style="font-family:'Helvetica';font-size:99.99px;fill:#000000" transform="rotate(-90 300.72,2425.82)" text-anchor="middle">-5000</text>
	<line x1="390.80" y1="1715.48" x2="350.83" y2="1715.48" style="stroke:#000000;stroke-width:5.76"/>
	<text x="300.72" y="1715.48" style="font-family:'Helvetica';font-size:99.99px;fill:#000000" transform="rotate(-90 300.72,1715.48)" text-anchor="middle">0</text>
	<line x1="390.80" y1="1005.13" x2="350.83" y2="1005.13" style="stroke:#000000;stroke-width:5.76"/>
	<text x="300.72" y="1005.13" style="font-family:'Helvetica';font-size:99.99px;fill:#000000" transform="rotate(-90 300.72,1005.13)" text-anchor="middle">5000</text>
	<line x1="390.80" y1="294.78" x2="350.83" y2="294.78" style="stroke:#000000;stroke-width:5.76"/>
	<text x="300.72" y="294.78" style="font-family:'Helvetica';font-size:99.99px;fill:#000000" transform="rotate(-90 300.72,294.78)" text-anchor="middle">10000</text>
	<text x="190.71" y="1294.96" style="font-family:'Helvetica';font-size:99.99px;fill:#000000" transform="rotate(-90 190.71,1294.96)" text-anchor="middle">Confirmed cases per 100 beds</text>
	<line x1="390.80" y1="2489.19" x2="3859.02" y2="2489.19" style="stroke:#000000;stroke-width:5.76"/>
	<line x1="454.16" y1="2489.19" x2="454.16" y2="2529.16" style="stroke:#000000;stroke-width:5.76"/>
	<text x="454.16" y="2619.14" style="font-family:'Helvetica';font-size:99.99px;fill:#000000" text-anchor="middle">0</text>
	<line x1="1122.41" y1="2489.19" x2="1122.41" y2="2529.16" style="stroke:#000000;stroke-width:5.76"/>
	<text x="1122.41" y="2619.14" style="font-family:'Helvetica';font-size:99.99px;fill:#000000" text-anchor="middle">5</text>
	<line x1="1790.79" y1="2489.19" x2="1790.79" y2="2529.16" style="stroke:#000000;stroke-width:5.76"/>
	<text x="1790.79" y="2619.14" style="font-family:'Helvetica';font-size:99.99px;fill:#000000" text-anchor="middle">10</text>
	<line x1="2459.04" y1="2489.19" x2="2459.04" y2="2529.16" style="stroke:#000000;stroke-width:5.76"/>
	<text x="2459.04" y="2619.14" style="font-family:'Helvetica';font-size:99.99px;fill:#000000" text-anchor="middle">15</text>
	<line x1="3127.41" y1="2489.19" x2="3127.41" y2="2529.16" style="stroke:#000000;stroke-width:5.76"/>
	<text x="3127.41" y="2619.14" style="font-family:'Helvetica';font-size:99.99px;fill:#000000" text-anchor="middle">20</text>
	<line x1="3795.66" y1="2489.19" x2="3795.66" y2="2529.16" style="stroke:#000000;stroke-width:5.76"/>
	<text x="3795.66" y="2619.14" style="font-family:'Helvetica';font-size:99.99px;fill:#000000" text-anchor="middle">25</text>
	<text x="2124.91" y="2729.16" style="font-family:'Helvetica';font-size:99.99px;fill:#000000" text-anchor="middle">Days since 0.01 confirmed cases per 100 beds</text>
</svg>
