<?xml version="1.0" encoding="UTF-8" standalone="no"?>
<!-- This is a Stata 14.2 generated SVG file (http://www.stata.com) -->

<svg version="1.1" width="5.50in" height="4.00in" viewBox="0 0 3960 2880" xmlns="http://www.w3.org/2000/svg">
	<desc>Stata Graph - Graph</desc>
	<line x1="390.80" y1="1482.82" x2="3859.02" y2="1482.82" style="stroke:#FF0000;stroke-width:8.64"/>
	<path d="M582.62 1629.84 L582.62 1629.84 L711.19 1629.34 L839.77 1628.72 L968.22 1627.98 L1096.80 1627.12 L1225.25 1626.00 L1353.83 1624.89 L1482.28 1623.65 L1610.85 1622.04 L1739.31 1620.19 L1867.88 1618.21 L1996.46 1616.97 L2124.91 1616.84 L2253.49 1618.45 L2381.94 1622.41 L2510.52 1629.47 L2638.97 1641.22 L2767.55 1659.04 L2896.12 1685.28 L3024.57 1722.28 L3153.15 1773.76 L3281.60 1843.44 L3410.18 1936.62 L3538.63 2059.51 L3667.21 2219.53 L3795.66 2425.82 L3795.66 449.23 L3667.21 712.82 L3538.63 922.21 L3410.18 1087.55 L3281.60 1217.24 L3153.15 1318.10 L3024.57 1396.07 L2896.12 1455.84 L2767.55 1501.26 L2638.97 1535.41 L2510.52 1560.91 L2381.94 1579.72 L2253.49 1593.33 L2124.91 1603.11 L1996.46 1609.91 L1867.88 1614.37 L1739.31 1617.09 L1610.85 1619.07 L1482.28 1620.80 L1353.83 1622.29 L1225.25 1623.28 L1096.80 1624.15 L968.22 1624.64 L839.77 1625.14 L711.19 1625.51 L582.62 1625.75 L582.62 1629.84 Z" stroke-linecap="round" style="fill:#EBEBFF;stroke:#E6E6FF;stroke-width:3.00"/>
	<path d="M582.62 1628.72 L582.62 1628.72 L711.19 1628.23 L839.77 1627.73 L968.22 1626.99 L1096.80 1626.25 L1225.25 1625.26 L1353.83 1624.15 L1482.28 1622.78 L1610.85 1621.18 L1739.31 1619.32 L1867.88 1617.09 L1996.46 1614.86 L2124.91 1612.88 L2253.49 1611.28 L2381.94 1610.04 L2510.52 1609.67 L2638.97 1610.66 L2767.55 1613.50 L2896.12 1619.07 L3024.57 1628.23 L3153.15 1642.21 L3281.60 1662.76 L3410.18 1691.59 L3538.63 1731.32 L3667.21 1784.65 L3795.66 1855.44 L3795.66 1019.73 L3667.21 1147.69 L3538.63 1250.53 L3410.18 1332.58 L3281.60 1397.92 L3153.15 1449.65 L3024.57 1490.24 L2896.12 1522.05 L2767.55 1546.80 L2638.97 1565.98 L2510.52 1580.71 L2381.94 1591.97 L2253.49 1600.63 L2124.91 1607.07 L1996.46 1611.89 L1867.88 1615.48 L1739.31 1617.96 L1610.85 1619.94 L1482.28 1621.67 L1353.83 1623.03 L1225.25 1624.15 L1096.80 1625.01 L968.22 1625.63 L839.77 1626.13 L711.19 1626.62 L582.62 1626.99 L582.62 1628.72 Z" stroke-linecap="round" style="fill:#D6D6FF;stroke:#CCCCFF;stroke-width:3.00"/>
	<path d="M582.62 1628.48 L582.62 1628.48 L711.19 1628.11 L839.77 1627.49 L968.22 1626.87 L1096.80 1626.13 L1225.25 1625.14 L1353.83 1624.02 L1482.28 1622.66 L1610.85 1621.05 L1739.31 1619.20 L1867.88 1616.84 L1996.46 1614.62 L2124.91 1612.27 L2253.49 1610.04 L2381.94 1608.06 L2510.52 1606.45 L2638.97 1605.71 L2767.55 1606.20 L2896.12 1608.31 L3024.57 1613.01 L3153.15 1620.93 L3281.60 1633.43 L3410.18 1651.99 L3538.63 1678.23 L3667.21 1714.36 L3795.66 1763.12 L3795.66 1112.05 L3667.21 1218.11 L3538.63 1303.62 L3410.18 1372.31 L3281.60 1427.25 L3153.15 1470.94 L3024.57 1505.47 L2896.12 1532.82 L2767.55 1554.22 L2638.97 1570.93 L2510.52 1583.93 L2381.94 1593.95 L2253.49 1601.75 L2124.91 1607.69 L1996.46 1612.27 L1867.88 1615.61 L1739.31 1618.21 L1610.85 1620.06 L1482.28 1621.79 L1353.83 1623.16 L1225.25 1624.27 L1096.80 1625.14 L968.22 1625.75 L839.77 1626.37 L711.19 1626.74 L582.62 1627.12 L582.62 1628.48 Z" stroke-linecap="round" style="fill:#C2C2FF;stroke:#B3B3FF;stroke-width:3.00"/>
	<path d="M582.62 1628.35 L582.62 1628.35 L711.19 1627.98 L839.77 1627.36 L968.22 1626.74 L1096.80 1626.00 L1225.25 1625.01 L1353.83 1623.90 L1482.28 1622.66 L1610.85 1621.05 L1739.31 1619.07 L1867.88 1616.72 L1996.46 1614.37 L2124.91 1611.89 L2253.49 1609.30 L2381.94 1606.70 L2510.52 1604.35 L2638.97 1602.37 L2767.55 1601.13 L2896.12 1601.13 L3024.57 1602.61 L3153.15 1606.57 L3281.60 1613.75 L3410.18 1625.26 L3538.63 1642.34 L3667.21 1666.84 L3795.66 1700.87 L3795.66 1174.30 L3667.21 1265.51 L3538.63 1339.39 L3410.18 1399.04 L3281.60 1446.93 L3153.15 1485.29 L3024.57 1515.74 L2896.12 1539.99 L2767.55 1559.17 L2638.97 1574.27 L2510.52 1586.03 L2381.94 1595.31 L2253.49 1602.49 L2124.91 1608.18 L1996.46 1612.51 L1867.88 1615.73 L1739.31 1618.21 L1610.85 1620.19 L1482.28 1621.92 L1353.83 1623.28 L1225.25 1624.27 L1096.80 1625.14 L968.22 1625.88 L839.77 1626.50 L711.19 1626.87 L582.62 1627.24 L582.62 1628.35 Z" stroke-linecap="round" style="fill:#ADADFF;stroke:#9999FF;stroke-width:3.00"/>
	<path d="M582.62 1628.23 L582.62 1628.23 L711.19 1627.86 L839.77 1627.36 L968.22 1626.62 L1096.80 1625.88 L1225.25 1625.01 L1353.83 1623.90 L1482.28 1622.54 L1610.85 1620.93 L1739.31 1618.95 L1867.88 1616.72 L1996.46 1614.12 L2124.91 1611.52 L2253.49 1608.68 L2381.94 1605.58 L2510.52 1602.61 L2638.97 1599.77 L2767.55 1597.29 L2896.12 1595.31 L3024.57 1594.44 L3153.15 1595.19 L3281.60 1598.03 L3410.18 1603.97 L3538.63 1613.87 L3667.21 1629.22 L3795.66 1651.37 L3795.66 1223.80 L3667.21 1303.25 L3538.63 1367.85 L3410.18 1420.32 L3281.60 1462.65 L3153.15 1496.68 L3024.57 1523.91 L2896.12 1545.69 L2767.55 1563.14 L2638.97 1576.87 L2510.52 1587.76 L2381.94 1596.42 L2253.49 1603.23 L2124.91 1608.55 L1996.46 1612.64 L1867.88 1615.85 L1739.31 1618.33 L1610.85 1620.31 L1482.28 1621.92 L1353.83 1623.28 L1225.25 1624.39 L1096.80 1625.26 L968.22 1626.00 L839.77 1626.50 L711.19 1626.99 L582.62 1627.36 L582.62 1628.23 Z" stroke-linecap="round" style="fill:#9999FF;stroke:#8080FF;stroke-width:3.00"/>
	<path d="M582.62 1628.11 L582.62 1628.11 L711.19 1627.73 L839.77 1627.24 L968.22 1626.62 L1096.80 1625.88 L1225.25 1624.89 L1353.83 1623.77 L1482.28 1622.54 L1610.85 1620.80 L1739.31 1618.95 L1867.88 1616.60 L1996.46 1614.00 L2124.91 1611.15 L2253.49 1608.06 L2381.94 1604.72 L2510.52 1601.13 L2638.97 1597.54 L2767.55 1593.83 L2896.12 1590.48 L3024.57 1587.51 L3153.15 1585.41 L3281.60 1584.67 L3410.18 1585.78 L3538.63 1589.49 L3667.21 1596.80 L3795.66 1608.92 L3795.66 1266.25 L3667.21 1335.55 L3538.63 1392.35 L3410.18 1438.51 L3281.60 1476.01 L3153.15 1506.46 L3024.57 1530.96 L2896.12 1550.64 L2767.55 1566.48 L2638.97 1579.10 L2510.52 1589.25 L2381.94 1597.29 L2253.49 1603.73 L2124.91 1608.80 L1996.46 1612.76 L1867.88 1615.98 L1739.31 1618.33 L1610.85 1620.31 L1482.28 1622.04 L1353.83 1623.40 L1225.25 1624.39 L1096.80 1625.38 L968.22 1626.00 L839.77 1626.62 L711.19 1627.12 L582.62 1627.49 L582.62 1628.11 Z" stroke-linecap="round" style="fill:#8585FF;stroke:#6666FF;stroke-width:3.00"/>
	<path d="M582.62 1628.11 L582.62 1628.11 L711.19 1627.73 L839.77 1627.12 L968.22 1626.50 L1096.80 1625.75 L1225.25 1624.89 L1353.83 1623.77 L1482.28 1622.41 L1610.85 1620.80 L1739.31 1618.82 L1867.88 1616.47 L1996.46 1613.87 L2124.91 1610.90 L2253.49 1607.56 L2381.94 1603.85 L2510.52 1599.89 L2638.97 1595.43 L2767.55 1590.86 L2896.12 1586.03 L3024.57 1581.20 L3153.15 1576.62 L3281.60 1572.54 L3410.18 1569.32 L3538.63 1567.59 L3667.21 1567.71 L3795.66 1570.81 L3795.66 1304.37 L3667.21 1364.63 L3538.63 1414.26 L3410.18 1454.85 L3281.60 1488.14 L3153.15 1515.24 L3024.57 1537.27 L2896.12 1555.09 L2767.55 1569.57 L2638.97 1581.20 L2510.52 1590.61 L2381.94 1598.16 L2253.49 1604.22 L2124.91 1609.05 L1996.46 1612.88 L1867.88 1615.98 L1739.31 1618.45 L1610.85 1620.43 L1482.28 1622.04 L1353.83 1623.40 L1225.25 1624.52 L1096.80 1625.38 L968.22 1626.13 L839.77 1626.62 L711.19 1627.12 L582.62 1627.49 L582.62 1628.11 Z" stroke-linecap="round" style="fill:#7171FF;stroke:#4D4DFF;stroke-width:3.00"/>
	<path d="M582.62 1627.98 L582.62 1627.98 L711.19 1627.61 L839.77 1627.12 L968.22 1626.50 L1096.80 1625.75 L1225.25 1624.76 L1353.83 1623.65 L1482.28 1622.41 L1610.85 1620.80 L1739.31 1618.82 L1867.88 1616.47 L1996.46 1613.75 L2124.91 1610.66 L2253.49 1607.19 L2381.94 1603.11 L2510.52 1598.65 L2638.97 1593.58 L2767.55 1588.01 L2896.12 1581.95 L3024.57 1575.39 L3153.15 1568.46 L3281.60 1561.40 L3410.18 1554.22 L3538.63 1547.17 L3667.21 1540.86 L3795.66 1535.41 L3795.66 1339.64 L3667.21 1391.61 L3538.63 1434.55 L3410.18 1470.07 L3281.60 1499.28 L3153.15 1523.41 L3024.57 1543.09 L2896.12 1559.17 L2767.55 1572.42 L2638.97 1583.06 L2510.52 1591.85 L2381.94 1598.90 L2253.49 1604.59 L2124.91 1609.30 L1996.46 1613.01 L1867.88 1616.10 L1739.31 1618.45 L1610.85 1620.43 L1482.28 1622.04 L1353.83 1623.40 L1225.25 1624.52 L1096.80 1625.38 L968.22 1626.13 L839.77 1626.74 L711.19 1627.24 L582.62 1627.61 L582.62 1627.98 Z" stroke-linecap="round" style="fill:#5C5CFF;stroke:#3333FF;stroke-width:3.00"/>
	<path d="M582.62 1627.98 L582.62 1627.98 L711.19 1627.49 L839.77 1626.99 L968.22 1626.37 L1096.80 1625.63 L1225.25 1624.76 L1353.83 1623.65 L1482.28 1622.29 L1610.85 1620.68 L1739.31 1618.70 L1867.88 1616.35 L1996.46 1613.63 L2124.91 1610.41 L2253.49 1606.70 L2381.94 1602.37 L2510.52 1597.41 L2638.97 1591.72 L2767.55 1585.29 L2896.12 1577.99 L3024.57 1569.82 L3153.15 1560.78 L3281.60 1550.76 L3410.18 1539.75 L3538.63 1527.99 L3667.21 1515.24 L3795.66 1501.88 L3795.66 1373.17 L3667.21 1417.11 L3538.63 1453.86 L3410.18 1484.43 L3281.60 1509.92 L3153.15 1531.08 L3024.57 1548.66 L2896.12 1563.14 L2767.55 1575.02 L2638.97 1584.92 L2510.52 1592.96 L2381.94 1599.64 L2253.49 1605.09 L2124.91 1609.54 L1996.46 1613.13 L1867.88 1616.10 L1739.31 1618.58 L1610.85 1620.56 L1482.28 1622.17 L1353.83 1623.53 L1225.25 1624.64 L1096.80 1625.51 L968.22 1626.25 L839.77 1626.74 L711.19 1627.24 L582.62 1627.73 L582.62 1627.98 Z" stroke-linecap="round" style="fill:#4747FF;stroke:#1919FF;stroke-width:3.00"/>
	<path d="M582.62 1627.86 L582.62 1627.86 L711.19 1627.49 L839.77 1626.99 L968.22 1626.37 L1096.80 1625.63 L1225.25 1624.76 L1353.83 1623.65 L1482.28 1622.29 L1610.85 1620.68 L1739.31 1618.70 L1867.88 1616.35 L1996.46 1613.50 L2124.91 1610.16 L2253.49 1606.33 L2381.94 1601.75 L2510.52 1596.30 L2638.97 1589.99 L2767.55 1582.69 L2896.12 1574.27 L3024.57 1564.50 L3153.15 1553.23 L3281.60 1540.49 L3410.18 1525.89 L3538.63 1509.30 L3667.21 1490.49 L3795.66 1469.45 L3795.66 1405.60 L3667.21 1441.86 L3538.63 1472.55 L3410.18 1498.41 L3281.60 1520.19 L3153.15 1538.51 L3024.57 1553.98 L2896.12 1566.85 L2767.55 1577.61 L2638.97 1586.65 L2510.52 1594.07 L2381.94 1600.39 L2253.49 1605.46 L2124.91 1609.79 L1996.46 1613.26 L1867.88 1616.23 L1739.31 1618.58 L1610.85 1620.56 L1482.28 1622.17 L1353.83 1623.53 L1225.25 1624.64 L1096.80 1625.51 L968.22 1626.25 L839.77 1626.87 L711.19 1627.36 L582.62 1627.73 L582.62 1627.86 Z" stroke-linecap="round" style="fill:#3333FF;stroke:#0000FF;stroke-width:3.00"/>
	<circle cx="582.62" cy="1629.22" r="22.03" style="fill:#000000;stroke:#000000;stroke-width:8.64"/>
	<circle cx="711.07" cy="1628.23" r="22.03" style="fill:#000000;stroke:#000000;stroke-width:8.64"/>
	<circle cx="839.64" cy="1627.24" r="22.03" style="fill:#000000;stroke:#000000;stroke-width:8.64"/>
	<circle cx="968.22" cy="1626.25" r="22.03" style="fill:#000000;stroke:#000000;stroke-width:8.64"/>
	<circle cx="1096.67" cy="1624.02" r="22.03" style="fill:#000000;stroke:#000000;stroke-width:8.64"/>
	<circle cx="1225.25" cy="1623.77" r="22.03" style="fill:#000000;stroke:#000000;stroke-width:8.64"/>
	<circle cx="1353.70" cy="1623.03" r="22.03" style="fill:#000000;stroke:#000000;stroke-width:8.64"/>
	<circle cx="1482.28" cy="1622.78" r="22.03" style="fill:#000000;stroke:#000000;stroke-width:8.64"/>
	<circle cx="1610.73" cy="1620.93" r="22.03" style="fill:#000000;stroke:#000000;stroke-width:8.64"/>
	<circle cx="1739.31" cy="1619.44" r="22.03" style="fill:#000000;stroke:#000000;stroke-width:8.64"/>
	<circle cx="1867.88" cy="1617.22" r="22.03" style="fill:#000000;stroke:#000000;stroke-width:8.64"/>
	<circle cx="1996.34" cy="1612.51" r="22.03" style="fill:#000000;stroke:#000000;stroke-width:8.64"/>
	<line x1="390.80" y1="2489.19" x2="390.80" y2="100.86" style="stroke:#000000;stroke-width:5.76"/>
	<line x1="390.80" y1="2361.97" x2="350.83" y2="2361.97" style="stroke:#000000;stroke-width:5.76"/>
	<text x="300.72" y="2361.97" style="font-family:'Helvetica';font-size:99.99px;fill:#000000" transform="rotate(-90 300.72,2361.97)" text-anchor="middle">-50</text>
	<line x1="390.80" y1="1629.34" x2="350.83" y2="1629.34" style="stroke:#000000;stroke-width:5.76"/>
	<text x="300.72" y="1629.34" style="font-family:'Helvetica';font-size:99.99px;fill:#000000" transform="rotate(-90 300.72,1629.34)" text-anchor="middle">0</text>
	<line x1="390.80" y1="896.72" x2="350.83" y2="896.72" style="stroke:#000000;stroke-width:5.76"/>
	<text x="300.72" y="896.72" style="font-family:'Helvetica';font-size:99.99px;fill:#000000" transform="rotate(-90 300.72,896.72)" text-anchor="middle">50</text>
	<line x1="390.80" y1="164.22" x2="350.83" y2="164.22" style="stroke:#000000;stroke-width:5.76"/>
	<text x="300.72" y="164.22" style="font-family:'Helvetica';font-size:99.99px;fill:#000000" transform="rotate(-90 300.72,164.22)" text-anchor="middle">100</text>
	<text x="190.71" y="1294.96" style="font-family:'Helvetica';font-size:99.99px;fill:#000000" transform="rotate(-90 190.71,1294.96)" text-anchor="middle">Confirmed cases per 100 beds</text>
	<line x1="390.80" y1="2489.19" x2="3859.02" y2="2489.19" style="stroke:#000000;stroke-width:5.76"/>
	<line x1="454.16" y1="2489.19" x2="454.16" y2="2529.16" style="stroke:#000000;stroke-width:5.76"/>
	<text x="454.16" y="2619.14" style="font-family:'Helvetica';font-size:99.99px;fill:#000000" text-anchor="middle">0</text>
	<line x1="1096.80" y1="2489.19" x2="1096.80" y2="2529.16" style="stroke:#000000;stroke-width:5.76"/>
	<text x="1096.80" y="2619.14" style="font-family:'Helvetica';font-size:99.99px;fill:#000000" text-anchor="middle">5</text>
	<line x1="1739.31" y1="2489.19" x2="1739.31" y2="2529.16" style="stroke:#000000;stroke-width:5.76"/>
	<text x="1739.31" y="2619.14" style="font-family:'Helvetica';font-size:99.99px;fill:#000000" text-anchor="middle">10</text>
	<line x1="2381.94" y1="2489.19" x2="2381.94" y2="2529.16" style="stroke:#000000;stroke-width:5.76"/>
	<text x="2381.94" y="2619.14" style="font-family:'Helvetica';font-size:99.99px;fill:#000000" text-anchor="middle">15</text>
	<line x1="3024.57" y1="2489.19" x2="3024.57" y2="2529.16" style="stroke:#000000;stroke-width:5.76"/>
	<text x="3024.57" y="2619.14" style="font-family:'Helvetica';font-size:99.99px;fill:#000000" text-anchor="middle">20</text>
	<line x1="3667.21" y1="2489.19" x2="3667.21" y2="2529.16" style="stroke:#000000;stroke-width:5.76"/>
	<text x="3667.21" y="2619.14" style="font-family:'Helvetica';font-size:99.99px;fill:#000000" text-anchor="middle">25</text>
	<text x="2124.91" y="2729.16" style="font-family:'Helvetica';font-size:99.99px;fill:#000000" text-anchor="middle">Days since 0.01 confirmed cases per 100 beds</text>
</svg>
