<?xml version="1.0" encoding="UTF-8" standalone="no"?>
<!-- This is a Stata 14.2 generated SVG file (http://www.stata.com) -->

<svg version="1.1" width="5.50in" height="4.00in" viewBox="0 0 3960 2880" xmlns="http://www.w3.org/2000/svg">
	<desc>Stata Graph - Graph</desc>
	<line x1="390.80" y1="-2029.07" x2="3859.02" y2="-2029.07" style="stroke:#FF0000;stroke-width:8.64"/>
	<path d="M558.61 2423.47 L558.61 2423.47 L662.93 2422.73 L767.37 2421.74 L871.82 2420.38 L976.26 2418.77 L1080.71 2416.54 L1185.15 2413.82 L1289.47 2410.35 L1393.92 2405.90 L1498.37 2400.45 L1602.81 2393.65 L1707.26 2384.98 L1811.70 2374.47 L1916.02 2361.47 L2020.47 2345.63 L2124.91 2326.82 L2229.36 2305.29 L2333.80 2281.28 L2438.25 2254.18 L2542.57 2222.99 L2647.01 2186.98 L2751.46 2145.15 L2855.90 2097.01 L2960.35 2041.44 L3064.79 1977.46 L3169.11 1903.95 L3273.56 1819.68 L3378.00 1723.27 L3482.45 1613.26 L3586.89 1487.77 L3691.34 1344.96 L3795.66 1182.84 L3795.66 164.22 L3691.34 523.73 L3586.89 830.02 L3482.45 1090.40 L3378.00 1311.17 L3273.56 1497.79 L3169.11 1655.33 L3064.79 1787.75 L2960.35 1898.88 L2855.90 1991.94 L2751.46 2069.54 L2647.01 2134.01 L2542.57 2187.35 L2438.25 2231.41 L2333.80 2267.42 L2229.36 2296.38 L2124.91 2318.90 L2020.47 2336.84 L1916.02 2351.57 L1811.70 2363.82 L1707.26 2374.22 L1602.81 2382.88 L1498.37 2390.18 L1393.92 2396.37 L1289.47 2401.44 L1185.15 2405.78 L1080.71 2409.36 L976.26 2412.33 L871.82 2414.81 L767.37 2416.91 L662.93 2418.52 L558.61 2419.88 L558.61 2423.47 Z" stroke-linecap="round" style="fill:#EBEBFF;stroke:#E6E6FF;stroke-width:3.00"/>
	<path d="M558.61 2422.48 L558.61 2422.48 L662.93 2421.49 L767.37 2420.25 L871.82 2418.77 L976.26 2416.91 L1080.71 2414.44 L1185.15 2411.47 L1289.47 2407.76 L1393.92 2403.18 L1498.37 2397.48 L1602.81 2390.55 L1707.26 2381.89 L1811.70 2371.37 L1916.02 2358.62 L2020.47 2343.03 L2124.91 2324.47 L2229.36 2302.69 L2333.80 2277.32 L2438.25 2247.62 L2542.57 2212.72 L2647.01 2171.63 L2751.46 2123.37 L2855.90 2066.69 L2960.35 2000.36 L3064.79 1922.76 L3169.11 1832.18 L3273.56 1726.86 L3378.00 1604.35 L3482.45 1462.40 L3586.89 1297.93 L3691.34 1107.97 L3795.66 888.80 L3795.66 458.14 L3691.34 760.72 L3586.89 1019.86 L3482.45 1241.25 L3378.00 1430.10 L3273.56 1590.73 L3169.11 1727.11 L3064.79 1842.57 L2960.35 1940.09 L2855.90 2022.26 L2751.46 2091.32 L2647.01 2149.23 L2542.57 2197.62 L2438.25 2237.96 L2333.80 2271.50 L2229.36 2298.98 L2124.91 2321.25 L2020.47 2339.32 L1916.02 2354.42 L1811.70 2366.92 L1707.26 2377.31 L1602.81 2385.97 L1498.37 2393.15 L1393.92 2399.09 L1289.47 2404.04 L1185.15 2408.13 L1080.71 2411.47 L976.26 2414.19 L871.82 2416.42 L767.37 2418.27 L662.93 2419.76 L558.61 2421.00 L558.61 2422.48 Z" stroke-linecap="round" style="fill:#D6D6FF;stroke:#CCCCFF;stroke-width:3.00"/>
	<path d="M558.61 2422.36 L558.61 2422.36 L662.93 2421.37 L767.37 2420.13 L871.82 2418.52 L976.26 2416.54 L1080.71 2414.19 L1185.15 2411.10 L1289.47 2407.38 L1393.92 2402.68 L1498.37 2396.99 L1602.81 2389.93 L1707.26 2381.40 L1811.70 2370.88 L1916.02 2358.13 L2020.47 2342.66 L2124.91 2324.10 L2229.36 2302.32 L2333.80 2276.70 L2438.25 2246.63 L2542.57 2211.11 L2647.01 2169.16 L2751.46 2119.78 L2855.90 2061.74 L2960.35 1993.67 L3064.79 1913.85 L3169.11 1820.54 L3273.56 1711.76 L3378.00 1585.16 L3482.45 1437.90 L3586.89 1267.24 L3691.34 1069.60 L3795.66 841.28 L3795.66 505.66 L3691.34 799.08 L3586.89 1050.55 L3482.45 1265.75 L3378.00 1449.41 L3273.56 1605.83 L3169.11 1738.74 L3064.79 1851.36 L2960.35 1946.77 L2855.90 2027.21 L2751.46 2094.91 L2647.01 2151.71 L2542.57 2199.35 L2438.25 2239.08 L2333.80 2272.12 L2229.36 2299.35 L2124.91 2321.62 L2020.47 2339.81 L1916.02 2354.91 L1811.70 2367.41 L1707.26 2377.81 L1602.81 2386.47 L1498.37 2393.65 L1393.92 2399.59 L1289.47 2404.41 L1185.15 2408.50 L1080.71 2411.84 L976.26 2414.44 L871.82 2416.67 L767.37 2418.52 L662.93 2420.01 L558.61 2421.12 L558.61 2422.36 Z" stroke-linecap="round" style="fill:#C2C2FF;stroke:#B3B3FF;stroke-width:3.00"/>
	<path d="M558.61 2422.23 L558.61 2422.23 L662.93 2421.24 L767.37 2419.88 L871.82 2418.40 L976.26 2416.42 L1080.71 2413.94 L1185.15 2410.85 L1289.47 2407.14 L1393.92 2402.43 L1498.37 2396.74 L1602.81 2389.69 L1707.26 2381.02 L1811.70 2370.51 L1916.02 2357.76 L2020.47 2342.41 L2124.91 2323.85 L2229.36 2301.95 L2333.80 2276.20 L2438.25 2245.89 L2542.57 2210.00 L2647.01 2167.55 L2751.46 2117.43 L2855.90 2058.40 L2960.35 1989.22 L3064.79 1907.91 L3169.11 1812.75 L3273.56 1701.62 L3378.00 1572.17 L3482.45 1421.44 L3586.89 1246.45 L3691.34 1043.74 L3795.66 809.10 L3795.66 537.83 L3691.34 824.94 L3586.89 1071.34 L3482.45 1282.21 L3378.00 1462.40 L3273.56 1615.98 L3169.11 1746.54 L3064.79 1857.42 L2960.35 1951.23 L2855.90 2030.43 L2751.46 2097.26 L2647.01 2153.44 L2542.57 2200.47 L2438.25 2239.82 L2333.80 2272.49 L2229.36 2299.59 L2124.91 2321.87 L2020.47 2340.06 L1916.02 2355.16 L1811.70 2367.78 L1707.26 2378.18 L1602.81 2386.84 L1498.37 2393.89 L1393.92 2399.83 L1289.47 2404.79 L1185.15 2408.75 L1080.71 2411.96 L976.26 2414.69 L871.82 2416.91 L767.37 2418.65 L662.93 2420.13 L558.61 2421.24 L558.61 2422.23 Z" stroke-linecap="round" style="fill:#ADADFF;stroke:#9999FF;stroke-width:3.00"/>
	<path d="M558.61 2422.11 L558.61 2422.11 L662.93 2421.12 L767.37 2419.76 L871.82 2418.27 L976.26 2416.17 L1080.71 2413.70 L1185.15 2410.73 L1289.47 2406.89 L1393.92 2402.19 L1498.37 2396.49 L1602.81 2389.44 L1707.26 2380.78 L1811.70 2370.26 L1916.02 2357.51 L2020.47 2342.17 L2124.91 2323.73 L2229.36 2301.82 L2333.80 2275.83 L2438.25 2245.27 L2542.57 2209.01 L2647.01 2166.19 L2751.46 2115.57 L2855.90 2055.80 L2960.35 1985.63 L3064.79 1903.09 L3169.11 1806.56 L3273.56 1693.57 L3378.00 1561.77 L3482.45 1408.32 L3586.89 1229.99 L3691.34 1023.20 L3795.66 783.61 L3795.66 563.33 L3691.34 845.49 L3586.89 1087.80 L3482.45 1295.21 L3378.00 1472.67 L3273.56 1624.02 L3169.11 1752.73 L3064.79 1862.12 L2960.35 1954.82 L2855.90 2033.15 L2751.46 2099.11 L2647.01 2154.68 L2542.57 2201.33 L2438.25 2240.32 L2333.80 2272.86 L2229.36 2299.84 L2124.91 2321.99 L2020.47 2340.31 L1916.02 2355.41 L1811.70 2368.03 L1707.26 2378.43 L1602.81 2387.09 L1498.37 2394.27 L1393.92 2400.08 L1289.47 2404.91 L1185.15 2408.87 L1080.71 2412.21 L976.26 2414.81 L871.82 2417.04 L767.37 2418.77 L662.93 2420.13 L558.61 2421.37 L558.61 2422.11 Z" stroke-linecap="round" style="fill:#9999FF;stroke:#8080FF;stroke-width:3.00"/>
	<path d="M558.61 2421.99 L558.61 2421.99 L662.93 2421.00 L767.37 2419.76 L871.82 2418.15 L976.26 2416.05 L1080.71 2413.57 L1185.15 2410.48 L1289.47 2406.64 L1393.92 2401.94 L1498.37 2396.25 L1602.81 2389.19 L1707.26 2380.53 L1811.70 2370.01 L1916.02 2357.39 L2020.47 2342.04 L2124.91 2323.48 L2229.36 2301.57 L2333.80 2275.59 L2438.25 2244.77 L2542.57 2208.26 L2647.01 2165.07 L2751.46 2113.84 L2855.90 2053.57 L2960.35 1982.54 L3064.79 1899.13 L3169.11 1801.24 L3273.56 1686.64 L3378.00 1552.99 L3482.45 1397.18 L3586.89 1215.88 L3691.34 1005.50 L3795.66 761.83 L3795.66 585.23 L3691.34 863.18 L3586.89 1101.90 L3482.45 1306.47 L3378.00 1481.46 L3273.56 1630.83 L3169.11 1758.05 L3064.79 1866.21 L2960.35 1957.79 L2855.90 2035.38 L2751.46 2100.72 L2647.01 2155.79 L2542.57 2202.08 L2438.25 2240.81 L2333.80 2273.23 L2229.36 2300.09 L2124.91 2322.24 L2020.47 2340.43 L1916.02 2355.65 L1811.70 2368.28 L1707.26 2378.67 L1602.81 2387.34 L1498.37 2394.39 L1393.92 2400.33 L1289.47 2405.16 L1185.15 2409.12 L1080.71 2412.33 L976.26 2414.93 L871.82 2417.16 L767.37 2418.89 L662.93 2420.25 L558.61 2421.37 L558.61 2421.99 Z" stroke-linecap="round" style="fill:#8585FF;stroke:#6666FF;stroke-width:3.00"/>
	<path d="M558.61 2421.99 L558.61 2421.99 L662.93 2420.87 L767.37 2419.64 L871.82 2418.03 L976.26 2415.92 L1080.71 2413.45 L1185.15 2410.35 L1289.47 2406.52 L1393.92 2401.82 L1498.37 2396.00 L1602.81 2388.94 L1707.26 2380.28 L1811.70 2369.89 L1916.02 2357.14 L2020.47 2341.79 L2124.91 2323.36 L2229.36 2301.45 L2333.80 2275.34 L2438.25 2244.40 L2542.57 2207.65 L2647.01 2163.96 L2751.46 2112.48 L2855.90 2051.59 L2960.35 1979.81 L3064.79 1895.41 L3169.11 1796.41 L3273.56 1680.45 L3378.00 1545.07 L3482.45 1387.03 L3586.89 1203.26 L3691.34 989.66 L3795.66 742.15 L3795.66 604.79 L3691.34 879.02 L3586.89 1114.53 L3482.45 1316.62 L3378.00 1489.50 L3273.56 1637.14 L3169.11 1762.87 L3064.79 1869.80 L2960.35 1960.63 L2855.90 2037.36 L2751.46 2102.21 L2647.01 2156.91 L2542.57 2202.82 L2438.25 2241.31 L2333.80 2273.48 L2229.36 2300.21 L2124.91 2322.37 L2020.47 2340.68 L1916.02 2355.78 L1811.70 2368.40 L1707.26 2378.92 L1602.81 2387.46 L1498.37 2394.64 L1393.92 2400.45 L1289.47 2405.28 L1185.15 2409.24 L1080.71 2412.46 L976.26 2415.06 L871.82 2417.28 L767.37 2419.02 L662.93 2420.38 L558.61 2421.49 L558.61 2421.99 Z" stroke-linecap="round" style="fill:#7171FF;stroke:#4D4DFF;stroke-width:3.00"/>
	<path d="M558.61 2421.86 L558.61 2421.86 L662.93 2420.87 L767.37 2419.51 L871.82 2417.90 L976.26 2415.80 L1080.71 2413.32 L1185.15 2410.23 L1289.47 2406.39 L1393.92 2401.57 L1498.37 2395.87 L1602.81 2388.70 L1707.26 2380.16 L1811.70 2369.64 L1916.02 2357.02 L2020.47 2341.67 L2124.91 2323.23 L2229.36 2301.20 L2333.80 2275.09 L2438.25 2243.91 L2542.57 2206.90 L2647.01 2163.09 L2751.46 2111.12 L2855.90 2049.61 L2960.35 1977.22 L3064.79 1892.07 L3169.11 1791.96 L3273.56 1674.76 L3378.00 1537.64 L3482.45 1377.75 L3586.89 1191.50 L3691.34 974.93 L3795.66 723.96 L3795.66 622.98 L3691.34 893.63 L3586.89 1126.28 L3482.45 1325.90 L3378.00 1496.80 L3273.56 1642.83 L3169.11 1767.33 L3064.79 1873.26 L2960.35 1963.11 L2855.90 2039.22 L2751.46 2103.57 L2647.01 2157.77 L2542.57 2203.44 L2438.25 2241.68 L2333.80 2273.73 L2229.36 2300.34 L2124.91 2322.49 L2020.47 2340.80 L1916.02 2356.03 L1811.70 2368.65 L1707.26 2379.04 L1602.81 2387.71 L1498.37 2394.76 L1393.92 2400.70 L1289.47 2405.53 L1185.15 2409.36 L1080.71 2412.58 L976.26 2415.18 L871.82 2417.28 L767.37 2419.02 L662.93 2420.38 L558.61 2421.49 L558.61 2421.86 Z" stroke-linecap="round" style="fill:#5C5CFF;stroke:#3333FF;stroke-width:3.00"/>
	<path d="M558.61 2421.86 L558.61 2421.86 L662.93 2420.75 L767.37 2419.39 L871.82 2417.78 L976.26 2415.80 L1080.71 2413.20 L1185.15 2410.11 L1289.47 2406.15 L1393.92 2401.44 L1498.37 2395.63 L1602.81 2388.57 L1707.26 2379.91 L1811.70 2369.52 L1916.02 2356.77 L2020.47 2341.55 L2124.91 2323.11 L2229.36 2301.08 L2333.80 2274.84 L2438.25 2243.53 L2542.57 2206.41 L2647.01 2162.23 L2751.46 2109.76 L2855.90 2047.88 L2960.35 1974.86 L3064.79 1888.86 L3169.11 1787.75 L3273.56 1669.32 L3378.00 1530.71 L3482.45 1368.84 L3586.89 1180.24 L3691.34 961.07 L3795.66 706.63 L3795.66 640.30 L3691.34 907.61 L3586.89 1137.42 L3482.45 1334.81 L3378.00 1503.86 L3273.56 1648.28 L3169.11 1771.54 L3064.79 1876.48 L2960.35 1965.58 L2855.90 2041.07 L2751.46 2104.93 L2647.01 2158.76 L2542.57 2204.06 L2438.25 2242.05 L2333.80 2273.98 L2229.36 2300.46 L2124.91 2322.61 L2020.47 2340.93 L1916.02 2356.15 L1811.70 2368.77 L1707.26 2379.29 L1602.81 2387.83 L1498.37 2395.01 L1393.92 2400.83 L1289.47 2405.65 L1185.15 2409.49 L1080.71 2412.71 L976.26 2415.30 L871.82 2417.41 L767.37 2419.14 L662.93 2420.50 L558.61 2421.62 L558.61 2421.86 Z" stroke-linecap="round" style="fill:#4747FF;stroke:#1919FF;stroke-width:3.00"/>
	<path d="M558.61 2421.74 L558.61 2421.74 L662.93 2420.75 L767.37 2419.39 L871.82 2417.66 L976.26 2415.68 L1080.71 2413.08 L1185.15 2409.98 L1289.47 2406.02 L1393.92 2401.32 L1498.37 2395.50 L1602.81 2388.45 L1707.26 2379.79 L1811.70 2369.27 L1916.02 2356.64 L2020.47 2341.42 L2124.91 2322.98 L2229.36 2300.96 L2333.80 2274.60 L2438.25 2243.16 L2542.57 2205.79 L2647.01 2161.24 L2751.46 2108.52 L2855.90 2046.15 L2960.35 1972.51 L3064.79 1885.64 L3169.11 1783.66 L3273.56 1663.99 L3378.00 1523.91 L3482.45 1360.30 L3586.89 1169.47 L3691.34 947.58 L3795.66 689.93 L3795.66 657.01 L3691.34 921.10 L3586.89 1148.31 L3482.45 1343.35 L3378.00 1510.54 L3273.56 1653.60 L3169.11 1775.62 L3064.79 1879.57 L2960.35 1967.93 L2855.90 2042.81 L2751.46 2106.17 L2647.01 2159.63 L2542.57 2204.68 L2438.25 2242.42 L2333.80 2274.22 L2229.36 2300.71 L2124.91 2322.74 L2020.47 2341.05 L1916.02 2356.27 L1811.70 2369.02 L1707.26 2379.42 L1602.81 2388.08 L1498.37 2395.13 L1393.92 2400.95 L1289.47 2405.78 L1185.15 2409.61 L1080.71 2412.83 L976.26 2415.43 L871.82 2417.53 L767.37 2419.26 L662.93 2420.63 L558.61 2421.62 L558.61 2421.74 Z" stroke-linecap="round" style="fill:#3333FF;stroke:#0000FF;stroke-width:3.00"/>
	<circle cx="558.48" cy="2420.38" r="22.03" style="fill:#000000;stroke:#000000;stroke-width:8.64"/>
	<circle cx="662.93" cy="2416.67" r="22.03" style="fill:#000000;stroke:#000000;stroke-width:8.64"/>
	<circle cx="767.37" cy="2416.67" r="22.03" style="fill:#000000;stroke:#000000;stroke-width:8.64"/>
	<circle cx="871.82" cy="2412.95" r="22.03" style="fill:#000000;stroke:#000000;stroke-width:8.64"/>
	<circle cx="976.14" cy="2411.10" r="22.03" style="fill:#000000;stroke:#000000;stroke-width:8.64"/>
	<circle cx="1080.59" cy="2409.24" r="22.03" style="fill:#000000;stroke:#000000;stroke-width:8.64"/>
	<circle cx="1185.03" cy="2407.38" r="22.03" style="fill:#000000;stroke:#000000;stroke-width:8.64"/>
	<circle cx="1289.47" cy="2405.65" r="22.03" style="fill:#000000;stroke:#000000;stroke-width:8.64"/>
	<circle cx="1393.92" cy="2403.80" r="22.03" style="fill:#000000;stroke:#000000;stroke-width:8.64"/>
	<circle cx="1498.37" cy="2401.94" r="22.03" style="fill:#000000;stroke:#000000;stroke-width:8.64"/>
	<circle cx="1602.69" cy="2396.37" r="22.03" style="fill:#000000;stroke:#000000;stroke-width:8.64"/>
	<circle cx="1707.13" cy="2379.79" r="22.03" style="fill:#000000;stroke:#000000;stroke-width:8.64"/>
	<circle cx="1811.58" cy="2368.65" r="22.03" style="fill:#000000;stroke:#000000;stroke-width:8.64"/>
	<circle cx="1916.02" cy="2357.63" r="22.03" style="fill:#000000;stroke:#000000;stroke-width:8.64"/>
	<circle cx="2020.47" cy="2337.34" r="22.03" style="fill:#000000;stroke:#000000;stroke-width:8.64"/>
	<circle cx="2124.91" cy="2322.49" r="22.03" style="fill:#000000;stroke:#000000;stroke-width:8.64"/>
	<circle cx="2229.23" cy="2298.48" r="22.03" style="fill:#000000;stroke:#000000;stroke-width:8.64"/>
	<circle cx="2333.68" cy="2276.33" r="22.03" style="fill:#000000;stroke:#000000;stroke-width:8.64"/>
	<line x1="390.80" y1="2489.19" x2="390.80" y2="100.86" style="stroke:#000000;stroke-width:5.76"/>
	<line x1="390.80" y1="2425.82" x2="350.83" y2="2425.82" style="stroke:#000000;stroke-width:5.76"/>
	<text x="300.72" y="2425.82" style="font-family:'Helvetica';font-size:99.99px;fill:#000000" transform="rotate(-90 300.72,2425.82)" text-anchor="middle">0</text>
	<line x1="390.80" y1="1980.31" x2="350.83" y2="1980.31" style="stroke:#000000;stroke-width:5.76"/>
	<text x="300.72" y="1980.31" style="font-family:'Helvetica';font-size:99.99px;fill:#000000" transform="rotate(-90 300.72,1980.31)" text-anchor="middle">1</text>
	<line x1="390.80" y1="1534.92" x2="350.83" y2="1534.92" style="stroke:#000000;stroke-width:5.76"/>
	<text x="300.72" y="1534.92" style="font-family:'Helvetica';font-size:99.99px;fill:#000000" transform="rotate(-90 300.72,1534.92)" text-anchor="middle">2</text>
	<line x1="390.80" y1="1089.41" x2="350.83" y2="1089.41" style="stroke:#000000;stroke-width:5.76"/>
	<text x="300.72" y="1089.41" style="font-family:'Helvetica';font-size:99.99px;fill:#000000" transform="rotate(-90 300.72,1089.41)" text-anchor="middle">3</text>
	<line x1="390.80" y1="643.89" x2="350.83" y2="643.89" style="stroke:#000000;stroke-width:5.76"/>
	<text x="300.72" y="643.89" style="font-family:'Helvetica';font-size:99.99px;fill:#000000" transform="rotate(-90 300.72,643.89)" text-anchor="middle">4</text>
	<line x1="390.80" y1="198.38" x2="350.83" y2="198.38" style="stroke:#000000;stroke-width:5.76"/>
	<text x="300.72" y="198.38" style="font-family:'Helvetica';font-size:99.99px;fill:#000000" transform="rotate(-90 300.72,198.38)" text-anchor="middle">5</text>
	<text x="190.71" y="1294.96" style="font-family:'Helvetica';font-size:99.99px;fill:#000000" transform="rotate(-90 190.71,1294.96)" text-anchor="middle">Confirmed cases per 100 beds</text>
	<line x1="390.80" y1="2489.19" x2="3859.02" y2="2489.19" style="stroke:#000000;stroke-width:5.76"/>
	<line x1="454.16" y1="2489.19" x2="454.16" y2="2529.16" style="stroke:#000000;stroke-width:5.76"/>
	<text x="454.16" y="2619.14" style="font-family:'Helvetica';font-size:99.99px;fill:#000000" text-anchor="middle">0</text>
	<line x1="1498.37" y1="2489.19" x2="1498.37" y2="2529.16" style="stroke:#000000;stroke-width:5.76"/>
	<text x="1498.37" y="2619.14" style="font-family:'Helvetica';font-size:99.99px;fill:#000000" text-anchor="middle">10</text>
	<line x1="2542.57" y1="2489.19" x2="2542.57" y2="2529.16" style="stroke:#000000;stroke-width:5.76"/>
	<text x="2542.57" y="2619.14" style="font-family:'Helvetica';font-size:99.99px;fill:#000000" text-anchor="middle">20</text>
	<line x1="3586.89" y1="2489.19" x2="3586.89" y2="2529.16" style="stroke:#000000;stroke-width:5.76"/>
	<text x="3586.89" y="2619.14" style="font-family:'Helvetica';font-size:99.99px;fill:#000000" text-anchor="middle">30</text>
	<text x="2124.91" y="2729.16" style="font-family:'Helvetica';font-size:99.99px;fill:#000000" text-anchor="middle">Days since 0.01 confirmed cases per 100 beds</text>
</svg>
