<?xml version="1.0" encoding="UTF-8" standalone="no"?>
<!-- This is a Stata 14.2 generated SVG file (http://www.stata.com) -->

<svg version="1.1" width="5.50in" height="4.00in" viewBox="0 0 3960 2880" xmlns="http://www.w3.org/2000/svg">
	<desc>Stata Graph - Graph</desc>
	<line x1="390.80" y1="-1225.66" x2="3859.02" y2="-1225.66" style="stroke:#FF0000;stroke-width:8.64"/>
	<path d="M606.00 2259.87 L606.00 2259.87 L757.97 2225.59 L909.81 2165.82 L1061.65 2111.74 L1213.62 2062.48 L1365.46 2006.67 L1517.42 1958.16 L1669.26 1935.88 L1821.11 1944.17 L1973.07 1975.36 L2124.91 2020.78 L2276.88 2073.12 L2428.72 2127.08 L2580.56 2179.31 L2732.52 2227.45 L2884.36 2270.51 L3036.33 2308.13 L3188.17 2340.56 L3340.01 2368.03 L3491.98 2390.92 L3643.82 2410.11 L3795.66 2425.82 L3795.66 538.21 L3643.82 560.23 L3491.98 587.46 L3340.01 621.00 L3188.17 661.96 L3036.33 711.58 L2884.36 771.61 L2732.52 843.01 L2580.56 927.29 L2428.72 1024.81 L2276.88 1135.69 L2124.91 1258.21 L1973.07 1389.14 L1821.11 1522.54 L1669.26 1649.76 L1517.42 1762.01 L1365.46 1858.66 L1213.62 1951.97 L1061.65 2045.03 L909.81 2115.08 L757.97 2151.83 L606.00 2181.78 L606.00 2259.87 Z" stroke-linecap="round" style="fill:#EBEBFF;stroke:#E6E6FF;stroke-width:3.00"/>
	<path d="M606.00 2237.35 L606.00 2237.35 L757.97 2204.30 L909.81 2151.21 L1061.65 2092.43 L1213.62 2030.55 L1365.46 1963.97 L1517.42 1901.48 L1669.26 1853.34 L1821.11 1822.52 L1973.07 1806.19 L2124.91 1800.74 L2276.88 1802.60 L2428.72 1809.03 L2580.56 1817.94 L2732.52 1827.84 L2884.36 1837.87 L3036.33 1847.40 L3188.17 1856.06 L3340.01 1863.73 L3491.98 1870.42 L3643.82 1876.23 L3795.66 1881.06 L3795.66 1082.97 L3643.82 1094.11 L3491.98 1107.97 L3340.01 1125.17 L3188.17 1146.33 L3036.33 1172.44 L2884.36 1204.13 L2732.52 1242.61 L2580.56 1288.65 L2428.72 1342.98 L2276.88 1406.22 L2124.91 1478.36 L1973.07 1558.31 L1821.11 1644.19 L1669.26 1732.43 L1517.42 1818.56 L1365.46 1901.35 L1213.62 1983.77 L1061.65 2064.21 L909.81 2129.80 L757.97 2173.12 L606.00 2204.30 L606.00 2237.35 Z" stroke-linecap="round" style="fill:#D6D6FF;stroke:#CCCCFF;stroke-width:3.00"/>
	<path d="M606.00 2233.76 L606.00 2233.76 L757.97 2200.84 L909.81 2148.86 L1061.65 2089.34 L1213.62 2025.36 L1365.46 1957.04 L1517.42 1892.32 L1669.26 1839.97 L1821.11 1802.85 L1973.07 1778.84 L2124.91 1765.10 L2276.88 1758.79 L2428.72 1757.55 L2580.56 1759.41 L2732.52 1763.25 L2884.36 1767.95 L3036.33 1772.90 L3188.17 1777.72 L3340.01 1782.18 L3491.98 1786.26 L3643.82 1789.85 L3795.66 1792.95 L3795.66 1171.08 L3643.82 1180.49 L3491.98 1192.12 L3340.01 1206.72 L3188.17 1224.79 L3036.33 1246.94 L2884.36 1274.17 L2732.52 1307.21 L2580.56 1347.06 L2428.72 1394.46 L2276.88 1450.02 L2124.91 1513.88 L1973.07 1585.66 L1821.11 1663.87 L1669.26 1745.80 L1517.42 1827.72 L1365.46 1908.28 L1213.62 1988.97 L1061.65 2067.43 L909.81 2132.16 L757.97 2176.58 L606.00 2208.02 L606.00 2233.76 Z" stroke-linecap="round" style="fill:#C2C2FF;stroke:#B3B3FF;stroke-width:3.00"/>
	<path d="M606.00 2231.28 L606.00 2231.28 L757.97 2198.49 L909.81 2147.25 L1061.65 2087.23 L1213.62 2021.89 L1365.46 1952.46 L1517.42 1886.13 L1669.26 1830.94 L1821.11 1789.48 L1973.07 1760.40 L2124.91 1741.09 L2276.88 1729.21 L2428.72 1722.78 L2580.56 1720.06 L2732.52 1719.56 L2884.36 1720.67 L3036.33 1722.53 L3188.17 1724.76 L3340.01 1727.11 L3491.98 1729.46 L3643.82 1731.56 L3795.66 1733.42 L3795.66 1230.61 L3643.82 1238.78 L3491.98 1249.05 L3340.01 1261.79 L3188.17 1277.63 L3036.33 1297.19 L2884.36 1321.32 L2732.52 1350.90 L2580.56 1386.54 L2428.72 1429.11 L2276.88 1479.48 L2124.91 1537.89 L1973.07 1604.22 L1821.11 1677.24 L1669.26 1754.71 L1517.42 1833.91 L1365.46 1912.99 L1213.62 1992.44 L1061.65 2069.54 L909.81 2133.76 L757.97 2178.81 L606.00 2210.49 L606.00 2231.28 Z" stroke-linecap="round" style="fill:#ADADFF;stroke:#9999FF;stroke-width:3.00"/>
	<path d="M606.00 2229.30 L606.00 2229.30 L757.97 2196.63 L909.81 2146.02 L1061.65 2085.62 L1213.62 2019.17 L1365.46 1948.75 L1517.42 1881.18 L1669.26 1823.76 L1821.11 1778.96 L1973.07 1745.67 L2124.91 1722.04 L2276.88 1705.82 L2428.72 1695.18 L2580.56 1688.62 L2732.52 1684.91 L2884.36 1683.18 L3036.33 1682.56 L3188.17 1682.81 L3340.01 1683.42 L3491.98 1684.29 L3643.82 1685.28 L3795.66 1686.15 L3795.66 1277.88 L3643.82 1285.06 L3491.98 1294.09 L3340.01 1305.48 L3188.17 1319.71 L3036.33 1337.16 L2884.36 1358.94 L2732.52 1385.55 L2580.56 1417.85 L2428.72 1456.71 L2276.88 1502.99 L2124.91 1557.07 L1973.07 1618.82 L1821.11 1687.76 L1669.26 1761.88 L1517.42 1838.86 L1365.46 1916.70 L1213.62 1995.28 L1061.65 2071.14 L909.81 2135.00 L757.97 2180.67 L606.00 2212.35 L606.00 2229.30 Z" stroke-linecap="round" style="fill:#9999FF;stroke:#8080FF;stroke-width:3.00"/>
	<path d="M606.00 2227.57 L606.00 2227.57 L757.97 2195.02 L909.81 2144.90 L1061.65 2084.14 L1213.62 2016.82 L1365.46 1945.53 L1517.42 1876.97 L1669.26 1817.70 L1821.11 1769.93 L1973.07 1733.05 L2124.91 1705.58 L2276.88 1685.65 L2428.72 1671.54 L2580.56 1661.77 L2732.52 1655.21 L2884.36 1651.00 L3036.33 1648.28 L3188.17 1646.67 L3340.01 1645.93 L3491.98 1645.56 L3643.82 1645.56 L3795.66 1645.68 L3795.66 1318.35 L3643.82 1324.79 L3491.98 1332.83 L3340.01 1342.98 L3188.17 1355.72 L3036.33 1371.56 L2884.36 1391.12 L2732.52 1415.25 L2580.56 1444.70 L2428.72 1480.47 L2276.88 1523.16 L2124.91 1573.41 L1973.07 1631.45 L1821.11 1696.79 L1669.26 1768.07 L1517.42 1843.07 L1365.46 1919.92 L1213.62 1997.63 L1061.65 2072.63 L909.81 2136.12 L757.97 2182.28 L606.00 2214.08 L606.00 2227.57 Z" stroke-linecap="round" style="fill:#8585FF;stroke:#6666FF;stroke-width:3.00"/>
	<path d="M606.00 2226.08 L606.00 2226.08 L757.97 2193.66 L909.81 2143.91 L1061.65 2082.90 L1213.62 2014.59 L1365.46 1942.69 L1517.42 1873.26 L1669.26 1812.13 L1821.11 1761.76 L1973.07 1721.79 L2124.91 1690.85 L2276.88 1667.58 L2428.72 1650.26 L2580.56 1637.63 L2732.52 1628.48 L2884.36 1622.04 L3036.33 1617.46 L3188.17 1614.37 L3340.01 1612.14 L3491.98 1610.78 L3643.82 1609.79 L3795.66 1609.17 L3795.66 1354.73 L3643.82 1360.43 L3491.98 1367.73 L3340.01 1376.76 L3188.17 1388.15 L3036.33 1402.26 L2884.36 1419.95 L2732.52 1441.98 L2580.56 1468.83 L2428.72 1501.75 L2276.88 1541.23 L2124.91 1588.13 L1973.07 1642.71 L1821.11 1704.96 L1669.26 1773.64 L1517.42 1846.78 L1365.46 1922.76 L1213.62 1999.74 L1061.65 2073.87 L909.81 2137.11 L757.97 2183.76 L606.00 2215.57 L606.00 2226.08 Z" stroke-linecap="round" style="fill:#7171FF;stroke:#4D4DFF;stroke-width:3.00"/>
	<path d="M606.00 2224.72 L606.00 2224.72 L757.97 2192.30 L909.81 2143.05 L1061.65 2081.66 L1213.62 2012.61 L1365.46 1940.09 L1517.42 1869.80 L1669.26 1807.05 L1821.11 1754.21 L1973.07 1711.27 L2124.91 1677.24 L2276.88 1650.88 L2428.72 1630.58 L2580.56 1615.24 L2732.52 1603.73 L2884.36 1595.31 L3036.33 1589.00 L3188.17 1584.30 L3340.01 1580.96 L3491.98 1578.48 L3643.82 1576.75 L3795.66 1575.51 L3795.66 1388.52 L3643.82 1393.59 L3491.98 1399.90 L3340.01 1407.95 L3188.17 1418.10 L3036.33 1430.84 L2884.36 1446.81 L2732.52 1466.73 L2580.56 1491.23 L2428.72 1521.43 L2276.88 1557.94 L2124.91 1601.75 L1973.07 1653.23 L1821.11 1712.51 L1669.26 1778.71 L1517.42 1850.37 L1365.46 1925.36 L1213.62 2001.72 L1061.65 2075.10 L909.81 2137.97 L757.97 2185.00 L606.00 2216.93 L606.00 2224.72 Z" stroke-linecap="round" style="fill:#5C5CFF;stroke:#3333FF;stroke-width:3.00"/>
	<path d="M606.00 2223.36 L606.00 2223.36 L757.97 2191.06 L909.81 2142.18 L1061.65 2080.55 L1213.62 2010.75 L1365.46 1937.49 L1517.42 1866.46 L1669.26 1802.23 L1821.11 1747.03 L1973.07 1701.37 L2124.91 1664.37 L2276.88 1634.91 L2428.72 1611.89 L2580.56 1594.07 L2732.52 1580.34 L2884.36 1569.82 L3036.33 1561.90 L3188.17 1555.83 L3340.01 1551.38 L3491.98 1547.91 L3643.82 1545.44 L3795.66 1543.46 L3795.66 1420.57 L3643.82 1424.90 L3491.98 1430.47 L3340.01 1437.52 L3188.17 1446.56 L3036.33 1457.94 L2884.36 1472.18 L2732.52 1490.12 L2580.56 1512.52 L2428.72 1540.12 L2276.88 1573.90 L2124.91 1614.74 L1973.07 1663.13 L1821.11 1719.56 L1669.26 1783.54 L1517.42 1853.59 L1365.46 1927.84 L1213.62 2003.58 L1061.65 2076.22 L909.81 2138.84 L757.97 2186.24 L606.00 2218.29 L606.00 2223.36 Z" stroke-linecap="round" style="fill:#4747FF;stroke:#1919FF;stroke-width:3.00"/>
	<path d="M606.00 2222.12 L606.00 2222.12 L757.97 2189.82 L909.81 2141.31 L1061.65 2079.44 L1213.62 2009.02 L1365.46 1935.14 L1517.42 1863.24 L1669.26 1797.52 L1821.11 1740.10 L1973.07 1691.72 L2124.91 1651.87 L2276.88 1619.57 L2428.72 1593.83 L2580.56 1573.53 L2732.52 1557.57 L2884.36 1545.19 L3036.33 1535.66 L3188.17 1528.36 L3340.01 1522.67 L3491.98 1518.34 L3643.82 1514.99 L3795.66 1512.52 L3795.66 1451.51 L3643.82 1455.22 L3491.98 1460.05 L3340.01 1466.24 L3188.17 1474.16 L3036.33 1484.18 L2884.36 1496.80 L2732.52 1512.89 L2580.56 1533.06 L2428.72 1558.18 L2276.88 1589.25 L2124.91 1627.24 L1973.07 1672.78 L1821.11 1726.49 L1669.26 1788.24 L1517.42 1856.80 L1365.46 1930.31 L1213.62 2005.43 L1061.65 2077.33 L909.81 2139.70 L757.97 2187.47 L606.00 2219.53 L606.00 2222.12 Z" stroke-linecap="round" style="fill:#3333FF;stroke:#0000FF;stroke-width:3.00"/>
	<circle cx="606.00" cy="2232.27" r="22.03" style="fill:#000000;stroke:#000000;stroke-width:8.64"/>
	<circle cx="757.85" cy="2198.86" r="22.03" style="fill:#000000;stroke:#000000;stroke-width:8.64"/>
	<circle cx="909.69" cy="2132.03" r="22.03" style="fill:#000000;stroke:#000000;stroke-width:8.64"/>
	<circle cx="1061.65" cy="2073.62" r="22.03" style="fill:#000000;stroke:#000000;stroke-width:8.64"/>
	<circle cx="1213.49" cy="1998.50" r="22.03" style="fill:#000000;stroke:#000000;stroke-width:8.64"/>
	<circle cx="1365.46" cy="1915.09" r="22.03" style="fill:#000000;stroke:#000000;stroke-width:8.64"/>
	<circle cx="1517.30" cy="1915.09" r="22.03" style="fill:#000000;stroke:#000000;stroke-width:8.64"/>
	<circle cx="1669.14" cy="1764.73" r="22.03" style="fill:#000000;stroke:#000000;stroke-width:8.64"/>
	<line x1="390.80" y1="2489.19" x2="390.80" y2="100.86" style="stroke:#000000;stroke-width:5.76"/>
	<line x1="390.80" y1="2248.86" x2="350.83" y2="2248.86" style="stroke:#000000;stroke-width:5.76"/>
	<text x="300.72" y="2248.86" style="font-family:'Helvetica';font-size:99.99px;fill:#000000" transform="rotate(-90 300.72,2248.86)" text-anchor="middle">0</text>
	<line x1="390.80" y1="1553.98" x2="350.83" y2="1553.98" style="stroke:#000000;stroke-width:5.76"/>
	<text x="300.72" y="1553.98" style="font-family:'Helvetica';font-size:99.99px;fill:#000000" transform="rotate(-90 300.72,1553.98)" text-anchor="middle">2</text>
	<line x1="390.80" y1="859.10" x2="350.83" y2="859.10" style="stroke:#000000;stroke-width:5.76"/>
	<text x="300.72" y="859.10" style="font-family:'Helvetica';font-size:99.99px;fill:#000000" transform="rotate(-90 300.72,859.10)" text-anchor="middle">4</text>
	<line x1="390.80" y1="164.22" x2="350.83" y2="164.22" style="stroke:#000000;stroke-width:5.76"/>
	<text x="300.72" y="164.22" style="font-family:'Helvetica';font-size:99.99px;fill:#000000" transform="rotate(-90 300.72,164.22)" text-anchor="middle">6</text>
	<text x="190.71" y="1294.96" style="font-family:'Helvetica';font-size:99.99px;fill:#000000" transform="rotate(-90 190.71,1294.96)" text-anchor="middle">Confirmed cases per 100 beds</text>
	<line x1="390.80" y1="2489.19" x2="3859.02" y2="2489.19" style="stroke:#000000;stroke-width:5.76"/>
	<line x1="454.16" y1="2489.19" x2="454.16" y2="2529.16" style="stroke:#000000;stroke-width:5.76"/>
	<text x="454.16" y="2619.14" style="font-family:'Helvetica';font-size:99.99px;fill:#000000" text-anchor="middle">0</text>
	<line x1="606.00" y1="2489.19" x2="606.00" y2="2529.16" style="stroke:#000000;stroke-width:5.76"/>
	<text x="606.00" y="2619.14" style="font-family:'Helvetica';font-size:99.99px;fill:#000000" text-anchor="middle">1</text>
	<line x1="757.97" y1="2489.19" x2="757.97" y2="2529.16" style="stroke:#000000;stroke-width:5.76"/>
	<text x="757.97" y="2619.14" style="font-family:'Helvetica';font-size:99.99px;fill:#000000" text-anchor="middle">2</text>
	<line x1="909.81" y1="2489.19" x2="909.81" y2="2529.16" style="stroke:#000000;stroke-width:5.76"/>
	<text x="909.81" y="2619.14" style="font-family:'Helvetica';font-size:99.99px;fill:#000000" text-anchor="middle">3</text>
	<line x1="1061.65" y1="2489.19" x2="1061.65" y2="2529.16" style="stroke:#000000;stroke-width:5.76"/>
	<text x="1061.65" y="2619.14" style="font-family:'Helvetica';font-size:99.99px;fill:#000000" text-anchor="middle">4</text>
	<line x1="1213.62" y1="2489.19" x2="1213.62" y2="2529.16" style="stroke:#000000;stroke-width:5.76"/>
	<text x="1213.62" y="2619.14" style="font-family:'Helvetica';font-size:99.99px;fill:#000000" text-anchor="middle">5</text>
	<line x1="1365.46" y1="2489.19" x2="1365.46" y2="2529.16" style="stroke:#000000;stroke-width:5.76"/>
	<text x="1365.46" y="2619.14" style="font-family:'Helvetica';font-size:99.99px;fill:#000000" text-anchor="middle">6</text>
	<line x1="1517.42" y1="2489.19" x2="1517.42" y2="2529.16" style="stroke:#000000;stroke-width:5.76"/>
	<text x="1517.42" y="2619.14" style="font-family:'Helvetica';font-size:99.99px;fill:#000000" text-anchor="middle">7</text>
	<line x1="1669.26" y1="2489.19" x2="1669.26" y2="2529.16" style="stroke:#000000;stroke-width:5.76"/>
	<text x="1669.26" y="2619.14" style="font-family:'Helvetica';font-size:99.99px;fill:#000000" text-anchor="middle">8</text>
	<line x1="1821.11" y1="2489.19" x2="1821.11" y2="2529.16" style="stroke:#000000;stroke-width:5.76"/>
	<text x="1821.11" y="2619.14" style="font-family:'Helvetica';font-size:99.99px;fill:#000000" text-anchor="middle">9</text>
	<line x1="1973.07" y1="2489.19" x2="1973.07" y2="2529.16" style="stroke:#000000;stroke-width:5.76"/>
	<text x="1973.07" y="2619.14" style="font-family:'Helvetica';font-size:99.99px;fill:#000000" text-anchor="middle">10</text>
	<line x1="2124.91" y1="2489.19" x2="2124.91" y2="2529.16" style="stroke:#000000;stroke-width:5.76"/>
	<text x="2124.91" y="2619.14" style="font-family:'Helvetica';font-size:99.99px;fill:#000000" text-anchor="middle">11</text>
	<line x1="2276.88" y1="2489.19" x2="2276.88" y2="2529.16" style="stroke:#000000;stroke-width:5.76"/>
	<text x="2276.88" y="2619.14" style="font-family:'Helvetica';font-size:99.99px;fill:#000000" text-anchor="middle">12</text>
	<line x1="2428.72" y1="2489.19" x2="2428.72" y2="2529.16" style="stroke:#000000;stroke-width:5.76"/>
	<text x="2428.72" y="2619.14" style="font-family:'Helvetica';font-size:99.99px;fill:#000000" text-anchor="middle">13</text>
	<line x1="2580.56" y1="2489.19" x2="2580.56" y2="2529.16" style="stroke:#000000;stroke-width:5.76"/>
	<text x="2580.56" y="2619.14" style="font-family:'Helvetica';font-size:99.99px;fill:#000000" text-anchor="middle">14</text>
	<line x1="2732.52" y1="2489.19" x2="2732.52" y2="2529.16" style="stroke:#000000;stroke-width:5.76"/>
	<text x="2732.52" y="2619.14" style="font-family:'Helvetica';font-size:99.99px;fill:#000000" text-anchor="middle">15</text>
	<line x1="2884.36" y1="2489.19" x2="2884.36" y2="2529.16" style="stroke:#000000;stroke-width:5.76"/>
	<text x="2884.36" y="2619.14" style="font-family:'Helvetica';font-size:99.99px;fill:#000000" text-anchor="middle">16</text>
	<line x1="3036.33" y1="2489.19" x2="3036.33" y2="2529.16" style="stroke:#000000;stroke-width:5.76"/>
	<text x="3036.33" y="2619.14" style="font-family:'Helvetica';font-size:99.99px;fill:#000000" text-anchor="middle">17</text>
	<line x1="3188.17" y1="2489.19" x2="3188.17" y2="2529.16" style="stroke:#000000;stroke-width:5.76"/>
	<text x="3188.17" y="2619.14" style="font-family:'Helvetica';font-size:99.99px;fill:#000000" text-anchor="middle">18</text>
	<line x1="3340.01" y1="2489.19" x2="3340.01" y2="2529.16" style="stroke:#000000;stroke-width:5.76"/>
	<text x="3340.01" y="2619.14" style="font-family:'Helvetica';font-size:99.99px;fill:#000000" text-anchor="middle">19</text>
	<line x1="3491.98" y1="2489.19" x2="3491.98" y2="2529.16" style="stroke:#000000;stroke-width:5.76"/>
	<text x="3491.98" y="2619.14" style="font-family:'Helvetica';font-size:99.99px;fill:#000000" text-anchor="middle">20</text>
	<line x1="3643.82" y1="2489.19" x2="3643.82" y2="2529.16" style="stroke:#000000;stroke-width:5.76"/>
	<text x="3643.82" y="2619.14" style="font-family:'Helvetica';font-size:99.99px;fill:#000000" text-anchor="middle">21</text>
	<line x1="3795.66" y1="2489.19" x2="3795.66" y2="2529.16" style="stroke:#000000;stroke-width:5.76"/>
	<text x="3795.66" y="2619.14" style="font-family:'Helvetica';font-size:99.99px;fill:#000000" text-anchor="middle">22</text>
	<text x="2124.91" y="2729.16" style="font-family:'Helvetica';font-size:99.99px;fill:#000000" text-anchor="middle">Days since 0.01 confirmed cases per 100 beds</text>
</svg>
