<?xml version="1.0" encoding="UTF-8" standalone="no"?>
<!-- This is a Stata 14.2 generated SVG file (http://www.stata.com) -->

<svg version="1.1" width="5.50in" height="4.00in" viewBox="0 0 3960 2880" xmlns="http://www.w3.org/2000/svg">
	<desc>Stata Graph - Graph</desc>
	<line x1="390.80" y1="1837.99" x2="3859.02" y2="1837.99" style="stroke:#FF0000;stroke-width:8.64"/>
	<path d="M606.00 1849.25 L606.00 1849.25 L757.97 1849.25 L909.81 1849.25 L1061.65 1849.13 L1213.62 1849.13 L1365.46 1848.88 L1517.42 1848.51 L1669.26 1847.89 L1821.11 1847.52 L1973.07 1847.27 L2124.91 1847.52 L2276.88 1848.64 L2428.72 1851.23 L2580.56 1856.43 L2732.52 1865.84 L2884.36 1882.05 L3036.33 1908.28 L3188.17 1949.37 L3340.01 2011.74 L3491.98 2103.94 L3643.82 2237.22 L3795.66 2425.82 L3795.66 339.58 L3643.82 787.07 L3491.98 1112.92 L3340.01 1346.69 L3188.17 1511.78 L3036.33 1626.62 L2884.36 1705.08 L2732.52 1757.80 L2580.56 1792.57 L2428.72 1814.85 L2276.88 1828.96 L2124.91 1837.62 L1973.07 1842.82 L1821.11 1845.79 L1669.26 1847.40 L1517.42 1848.02 L1365.46 1848.39 L1213.62 1848.64 L1061.65 1848.76 L909.81 1849.01 L757.97 1849.01 L606.00 1849.13 L606.00 1849.25 Z" stroke-linecap="round" style="fill:#EBEBFF;stroke:#E6E6FF;stroke-width:3.00"/>
	<path d="M606.00 1849.13 L606.00 1849.13 L757.97 1849.13 L909.81 1849.13 L1061.65 1849.13 L1213.62 1849.01 L1365.46 1848.76 L1517.42 1848.39 L1669.26 1847.77 L1821.11 1847.03 L1973.07 1846.04 L2124.91 1844.68 L2276.88 1842.94 L2428.72 1840.72 L2580.56 1837.99 L2732.52 1834.65 L2884.36 1830.94 L3036.33 1826.98 L3188.17 1823.02 L3340.01 1819.80 L3491.98 1817.94 L3643.82 1818.69 L3795.66 1823.76 L3795.66 941.64 L3643.82 1205.61 L3491.98 1398.91 L3340.01 1538.63 L3188.17 1638.13 L3036.33 1707.93 L2884.36 1756.19 L2732.52 1788.99 L2580.56 1811.01 L2428.72 1825.37 L2276.88 1834.65 L2124.91 1840.47 L1973.07 1844.18 L1821.11 1846.28 L1669.26 1847.52 L1517.42 1848.14 L1365.46 1848.51 L1213.62 1848.76 L1061.65 1848.88 L909.81 1849.01 L757.97 1849.13 L606.00 1849.13 L606.00 1849.13 Z" stroke-linecap="round" style="fill:#D6D6FF;stroke:#CCCCFF;stroke-width:3.00"/>
	<path d="M606.00 1849.13 L606.00 1849.13 L757.97 1849.13 L909.81 1849.13 L1061.65 1849.01 L1213.62 1849.01 L1365.46 1848.76 L1517.42 1848.39 L1669.26 1847.77 L1821.11 1846.90 L1973.07 1845.79 L2124.91 1844.18 L2276.88 1842.08 L2428.72 1838.98 L2580.56 1835.02 L2732.52 1829.70 L2884.36 1822.77 L3036.33 1813.86 L3188.17 1802.60 L3340.01 1788.74 L3491.98 1771.66 L3643.82 1750.99 L3795.66 1726.37 L3795.66 1039.16 L3643.82 1273.30 L3491.98 1445.20 L3340.01 1569.69 L3188.17 1658.55 L3036.33 1721.05 L2884.36 1764.48 L2732.52 1794.06 L2580.56 1813.98 L2428.72 1827.10 L2276.88 1835.52 L2124.91 1840.96 L1973.07 1844.30 L1821.11 1846.41 L1669.26 1847.52 L1517.42 1848.14 L1365.46 1848.51 L1213.62 1848.76 L1061.65 1848.88 L909.81 1849.01 L757.97 1849.13 L606.00 1849.13 L606.00 1849.13 Z" stroke-linecap="round" style="fill:#C2C2FF;stroke:#B3B3FF;stroke-width:3.00"/>
	<path d="M606.00 1849.13 L606.00 1849.13 L757.97 1849.13 L909.81 1849.13 L1061.65 1849.01 L1213.62 1848.88 L1365.46 1848.76 L1517.42 1848.39 L1669.26 1847.77 L1821.11 1846.90 L1973.07 1845.67 L2124.91 1843.93 L2276.88 1841.46 L2428.72 1837.87 L2580.56 1832.92 L2732.52 1826.24 L2884.36 1817.20 L3036.33 1804.95 L3188.17 1788.86 L3340.01 1767.82 L3491.98 1740.47 L3643.82 1705.33 L3795.66 1660.65 L3795.66 1104.87 L3643.82 1318.97 L3491.98 1476.38 L3340.01 1590.61 L3188.17 1672.29 L3036.33 1729.96 L2884.36 1770.05 L2732.52 1797.52 L2580.56 1815.96 L2428.72 1828.22 L2276.88 1836.14 L2124.91 1841.33 L1973.07 1844.43 L1821.11 1846.41 L1669.26 1847.65 L1517.42 1848.26 L1365.46 1848.64 L1213.62 1848.76 L1061.65 1849.01 L909.81 1849.01 L757.97 1849.13 L606.00 1849.13 L606.00 1849.13 Z" stroke-linecap="round" style="fill:#ADADFF;stroke:#9999FF;stroke-width:3.00"/>
	<path d="M606.00 1849.13 L606.00 1849.13 L757.97 1849.13 L909.81 1849.13 L1061.65 1849.01 L1213.62 1848.88 L1365.46 1848.76 L1517.42 1848.26 L1669.26 1847.77 L1821.11 1846.90 L1973.07 1845.54 L2124.91 1843.69 L2276.88 1840.96 L2428.72 1837.00 L2580.56 1831.43 L2732.52 1823.51 L2884.36 1812.75 L3036.33 1797.90 L3188.17 1777.85 L3340.01 1751.12 L3491.98 1715.60 L3643.82 1669.07 L3795.66 1608.31 L3795.66 1157.10 L3643.82 1355.35 L3491.98 1501.26 L3340.01 1607.19 L3188.17 1683.30 L3036.33 1737.01 L2884.36 1774.51 L2732.52 1800.12 L2580.56 1817.57 L2428.72 1829.08 L2276.88 1836.63 L2124.91 1841.58 L1973.07 1844.55 L1821.11 1846.53 L1669.26 1847.65 L1517.42 1848.26 L1365.46 1848.64 L1213.62 1848.88 L1061.65 1849.01 L909.81 1849.01 L757.97 1849.13 L606.00 1849.13 L606.00 1849.13 Z" stroke-linecap="round" style="fill:#9999FF;stroke:#8080FF;stroke-width:3.00"/>
	<path d="M606.00 1849.13 L606.00 1849.13 L757.97 1849.13 L909.81 1849.13 L1061.65 1849.01 L1213.62 1848.88 L1365.46 1848.64 L1517.42 1848.26 L1669.26 1847.65 L1821.11 1846.78 L1973.07 1845.42 L2124.91 1843.44 L2276.88 1840.47 L2428.72 1836.14 L2580.56 1829.95 L2732.52 1821.16 L2884.36 1808.91 L3036.33 1791.83 L3188.17 1768.44 L3340.01 1736.89 L3491.98 1694.31 L3643.82 1637.88 L3795.66 1563.51 L3795.66 1201.90 L3643.82 1386.41 L3491.98 1522.54 L3340.01 1621.55 L3188.17 1692.71 L3036.33 1743.07 L2884.36 1778.22 L2732.52 1802.48 L2580.56 1818.93 L2428.72 1829.95 L2276.88 1837.13 L2124.91 1841.71 L1973.07 1844.68 L1821.11 1846.53 L1669.26 1847.65 L1517.42 1848.26 L1365.46 1848.64 L1213.62 1848.88 L1061.65 1849.01 L909.81 1849.01 L757.97 1849.13 L606.00 1849.13 L606.00 1849.13 Z" stroke-linecap="round" style="fill:#8585FF;stroke:#6666FF;stroke-width:3.00"/>
	<path d="M606.00 1849.13 L606.00 1849.13 L757.97 1849.13 L909.81 1849.13 L1061.65 1849.01 L1213.62 1848.88 L1365.46 1848.64 L1517.42 1848.26 L1669.26 1847.65 L1821.11 1846.78 L1973.07 1845.42 L2124.91 1843.31 L2276.88 1840.10 L2428.72 1835.52 L2580.56 1828.71 L2732.52 1819.18 L2884.36 1805.45 L3036.33 1786.39 L3188.17 1760.03 L3340.01 1724.02 L3491.98 1675.26 L3643.82 1609.91 L3795.66 1523.29 L3795.66 1242.12 L3643.82 1414.51 L3491.98 1541.60 L3340.01 1634.42 L3188.17 1701.12 L3036.33 1748.52 L2884.36 1781.68 L2732.52 1804.58 L2580.56 1820.17 L2428.72 1830.57 L2276.88 1837.50 L2124.91 1841.95 L1973.07 1844.80 L1821.11 1846.53 L1669.26 1847.65 L1517.42 1848.26 L1365.46 1848.64 L1213.62 1848.88 L1061.65 1849.01 L909.81 1849.01 L757.97 1849.13 L606.00 1849.13 L606.00 1849.13 Z" stroke-linecap="round" style="fill:#7171FF;stroke:#4D4DFF;stroke-width:3.00"/>
	<path d="M606.00 1849.13 L606.00 1849.13 L757.97 1849.13 L909.81 1849.13 L1061.65 1849.01 L1213.62 1848.88 L1365.46 1848.64 L1517.42 1848.26 L1669.26 1847.65 L1821.11 1846.78 L1973.07 1845.29 L2124.91 1843.07 L2276.88 1839.72 L2428.72 1834.90 L2580.56 1827.60 L2732.52 1817.20 L2884.36 1802.35 L3036.33 1781.44 L3188.17 1752.23 L3340.01 1712.13 L3491.98 1657.56 L3643.82 1584.05 L3795.66 1486.04 L3795.66 1279.37 L3643.82 1440.37 L3491.98 1559.30 L3340.01 1646.30 L3188.17 1708.92 L3036.33 1753.47 L2884.36 1784.78 L2732.52 1806.56 L2580.56 1821.29 L2428.72 1831.19 L2276.88 1837.87 L2124.91 1842.08 L1973.07 1844.80 L1821.11 1846.53 L1669.26 1847.65 L1517.42 1848.26 L1365.46 1848.64 L1213.62 1848.88 L1061.65 1849.01 L909.81 1849.01 L757.97 1849.13 L606.00 1849.13 L606.00 1849.13 Z" stroke-linecap="round" style="fill:#5C5CFF;stroke:#3333FF;stroke-width:3.00"/>
	<path d="M606.00 1849.13 L606.00 1849.13 L757.97 1849.13 L909.81 1849.13 L1061.65 1849.01 L1213.62 1848.88 L1365.46 1848.64 L1517.42 1848.26 L1669.26 1847.65 L1821.11 1846.66 L1973.07 1845.17 L2124.91 1842.94 L2276.88 1839.48 L2428.72 1834.28 L2580.56 1826.61 L2732.52 1815.35 L2884.36 1799.38 L3036.33 1776.61 L3188.17 1744.81 L3340.01 1700.87 L3491.98 1640.73 L3643.82 1559.42 L3795.66 1450.64 L3795.66 1314.76 L3643.82 1465.00 L3491.98 1576.13 L3340.01 1657.56 L3188.17 1716.34 L3036.33 1758.29 L2884.36 1787.87 L2732.52 1808.29 L2580.56 1822.40 L2428.72 1831.80 L2276.88 1838.12 L2124.91 1842.32 L1973.07 1844.92 L1821.11 1846.66 L1669.26 1847.65 L1517.42 1848.26 L1365.46 1848.64 L1213.62 1848.88 L1061.65 1849.01 L909.81 1849.13 L757.97 1849.13 L606.00 1849.13 L606.00 1849.13 Z" stroke-linecap="round" style="fill:#4747FF;stroke:#1919FF;stroke-width:3.00"/>
	<path d="M606.00 1849.13 L606.00 1849.13 L757.97 1849.13 L909.81 1849.13 L1061.65 1849.01 L1213.62 1848.88 L1365.46 1848.64 L1517.42 1848.26 L1669.26 1847.65 L1821.11 1846.66 L1973.07 1845.17 L2124.91 1842.82 L2276.88 1839.11 L2428.72 1833.66 L2580.56 1825.49 L2732.52 1813.61 L2884.36 1796.41 L3036.33 1772.03 L3188.17 1737.63 L3340.01 1689.98 L3491.98 1624.39 L3643.82 1535.54 L3795.66 1416.36 L3795.66 1349.04 L3643.82 1488.76 L3491.98 1592.46 L3340.01 1668.45 L3188.17 1723.52 L3036.33 1762.87 L2884.36 1790.72 L2732.52 1810.15 L2580.56 1823.39 L2428.72 1832.42 L2276.88 1838.49 L2124.91 1842.45 L1973.07 1845.05 L1821.11 1846.66 L1669.26 1847.65 L1517.42 1848.26 L1365.46 1848.64 L1213.62 1848.88 L1061.65 1849.01 L909.81 1849.13 L757.97 1849.13 L606.00 1849.13 L606.00 1849.13 Z" stroke-linecap="round" style="fill:#3333FF;stroke:#0000FF;stroke-width:3.00"/>
	<circle cx="606.00" cy="1849.13" r="22.03" style="fill:#000000;stroke:#000000;stroke-width:8.64"/>
	<circle cx="757.85" cy="1849.01" r="22.03" style="fill:#000000;stroke:#000000;stroke-width:8.64"/>
	<circle cx="909.69" cy="1849.01" r="22.03" style="fill:#000000;stroke:#000000;stroke-width:8.64"/>
	<circle cx="1061.65" cy="1849.01" r="22.03" style="fill:#000000;stroke:#000000;stroke-width:8.64"/>
	<circle cx="1213.49" cy="1848.88" r="22.03" style="fill:#000000;stroke:#000000;stroke-width:8.64"/>
	<circle cx="1365.46" cy="1848.88" r="22.03" style="fill:#000000;stroke:#000000;stroke-width:8.64"/>
	<circle cx="1517.30" cy="1848.39" r="22.03" style="fill:#000000;stroke:#000000;stroke-width:8.64"/>
	<circle cx="1669.14" cy="1847.65" r="22.03" style="fill:#000000;stroke:#000000;stroke-width:8.64"/>
	<line x1="390.80" y1="2489.19" x2="390.80" y2="100.86" style="stroke:#000000;stroke-width:5.76"/>
	<line x1="390.80" y1="2410.85" x2="350.83" y2="2410.85" style="stroke:#000000;stroke-width:5.76"/>
	<text x="300.72" y="2410.85" style="font-family:'Helvetica';font-size:99.99px;fill:#000000" transform="rotate(-90 300.72,2410.85)" text-anchor="middle">-500</text>
	<line x1="390.80" y1="1849.13" x2="350.83" y2="1849.13" style="stroke:#000000;stroke-width:5.76"/>
	<text x="300.72" y="1849.13" style="font-family:'Helvetica';font-size:99.99px;fill:#000000" transform="rotate(-90 300.72,1849.13)" text-anchor="middle">0</text>
	<line x1="390.80" y1="1287.54" x2="350.83" y2="1287.54" style="stroke:#000000;stroke-width:5.76"/>
	<text x="300.72" y="1287.54" style="font-family:'Helvetica';font-size:99.99px;fill:#000000" transform="rotate(-90 300.72,1287.54)" text-anchor="middle">500</text>
	<line x1="390.80" y1="725.82" x2="350.83" y2="725.82" style="stroke:#000000;stroke-width:5.76"/>
	<text x="300.72" y="725.82" style="font-family:'Helvetica';font-size:99.99px;fill:#000000" transform="rotate(-90 300.72,725.82)" text-anchor="middle">1000</text>
	<line x1="390.80" y1="164.22" x2="350.83" y2="164.22" style="stroke:#000000;stroke-width:5.76"/>
	<text x="300.72" y="164.22" style="font-family:'Helvetica';font-size:99.99px;fill:#000000" transform="rotate(-90 300.72,164.22)" text-anchor="middle">1500</text>
	<text x="190.71" y="1294.96" style="font-family:'Helvetica';font-size:99.99px;fill:#000000" transform="rotate(-90 190.71,1294.96)" text-anchor="middle">Confirmed cases per 100 beds</text>
	<line x1="390.80" y1="2489.19" x2="3859.02" y2="2489.19" style="stroke:#000000;stroke-width:5.76"/>
	<line x1="454.16" y1="2489.19" x2="454.16" y2="2529.16" style="stroke:#000000;stroke-width:5.76"/>
	<text x="454.16" y="2619.14" style="font-family:'Helvetica';font-size:99.99px;fill:#000000" text-anchor="middle">0</text>
	<line x1="606.00" y1="2489.19" x2="606.00" y2="2529.16" style="stroke:#000000;stroke-width:5.76"/>
	<text x="606.00" y="2619.14" style="font-family:'Helvetica';font-size:99.99px;fill:#000000" text-anchor="middle">1</text>
	<line x1="757.97" y1="2489.19" x2="757.97" y2="2529.16" style="stroke:#000000;stroke-width:5.76"/>
	<text x="757.97" y="2619.14" style="font-family:'Helvetica';font-size:99.99px;fill:#000000" text-anchor="middle">2</text>
	<line x1="909.81" y1="2489.19" x2="909.81" y2="2529.16" style="stroke:#000000;stroke-width:5.76"/>
	<text x="909.81" y="2619.14" style="font-family:'Helvetica';font-size:99.99px;fill:#000000" text-anchor="middle">3</text>
	<line x1="1061.65" y1="2489.19" x2="1061.65" y2="2529.16" style="stroke:#000000;stroke-width:5.76"/>
	<text x="1061.65" y="2619.14" style="font-family:'Helvetica';font-size:99.99px;fill:#000000" text-anchor="middle">4</text>
	<line x1="1213.62" y1="2489.19" x2="1213.62" y2="2529.16" style="stroke:#000000;stroke-width:5.76"/>
	<text x="1213.62" y="2619.14" style="font-family:'Helvetica';font-size:99.99px;fill:#000000" text-anchor="middle">5</text>
	<line x1="1365.46" y1="2489.19" x2="1365.46" y2="2529.16" style="stroke:#000000;stroke-width:5.76"/>
	<text x="1365.46" y="2619.14" style="font-family:'Helvetica';font-size:99.99px;fill:#000000" text-anchor="middle">6</text>
	<line x1="1517.42" y1="2489.19" x2="1517.42" y2="2529.16" style="stroke:#000000;stroke-width:5.76"/>
	<text x="1517.42" y="2619.14" style="font-family:'Helvetica';font-size:99.99px;fill:#000000" text-anchor="middle">7</text>
	<line x1="1669.26" y1="2489.19" x2="1669.26" y2="2529.16" style="stroke:#000000;stroke-width:5.76"/>
	<text x="1669.26" y="2619.14" style="font-family:'Helvetica';font-size:99.99px;fill:#000000" text-anchor="middle">8</text>
	<line x1="1821.11" y1="2489.19" x2="1821.11" y2="2529.16" style="stroke:#000000;stroke-width:5.76"/>
	<text x="1821.11" y="2619.14" style="font-family:'Helvetica';font-size:99.99px;fill:#000000" text-anchor="middle">9</text>
	<line x1="1973.07" y1="2489.19" x2="1973.07" y2="2529.16" style="stroke:#000000;stroke-width:5.76"/>
	<text x="1973.07" y="2619.14" style="font-family:'Helvetica';font-size:99.99px;fill:#000000" text-anchor="middle">10</text>
	<line x1="2124.91" y1="2489.19" x2="2124.91" y2="2529.16" style="stroke:#000000;stroke-width:5.76"/>
	<text x="2124.91" y="2619.14" style="font-family:'Helvetica';font-size:99.99px;fill:#000000" text-anchor="middle">11</text>
	<line x1="2276.88" y1="2489.19" x2="2276.88" y2="2529.16" style="stroke:#000000;stroke-width:5.76"/>
	<text x="2276.88" y="2619.14" style="font-family:'Helvetica';font-size:99.99px;fill:#000000" text-anchor="middle">12</text>
	<line x1="2428.72" y1="2489.19" x2="2428.72" y2="2529.16" style="stroke:#000000;stroke-width:5.76"/>
	<text x="2428.72" y="2619.14" style="font-family:'Helvetica';font-size:99.99px;fill:#000000" text-anchor="middle">13</text>
	<line x1="2580.56" y1="2489.19" x2="2580.56" y2="2529.16" style="stroke:#000000;stroke-width:5.76"/>
	<text x="2580.56" y="2619.14" style="font-family:'Helvetica';font-size:99.99px;fill:#000000" text-anchor="middle">14</text>
	<line x1="2732.52" y1="2489.19" x2="2732.52" y2="2529.16" style="stroke:#000000;stroke-width:5.76"/>
	<text x="2732.52" y="2619.14" style="font-family:'Helvetica';font-size:99.99px;fill:#000000" text-anchor="middle">15</text>
	<line x1="2884.36" y1="2489.19" x2="2884.36" y2="2529.16" style="stroke:#000000;stroke-width:5.76"/>
	<text x="2884.36" y="2619.14" style="font-family:'Helvetica';font-size:99.99px;fill:#000000" text-anchor="middle">16</text>
	<line x1="3036.33" y1="2489.19" x2="3036.33" y2="2529.16" style="stroke:#000000;stroke-width:5.76"/>
	<text x="3036.33" y="2619.14" style="font-family:'Helvetica';font-size:99.99px;fill:#000000" text-anchor="middle">17</text>
	<line x1="3188.17" y1="2489.19" x2="3188.17" y2="2529.16" style="stroke:#000000;stroke-width:5.76"/>
	<text x="3188.17" y="2619.14" style="font-family:'Helvetica';font-size:99.99px;fill:#000000" text-anchor="middle">18</text>
	<line x1="3340.01" y1="2489.19" x2="3340.01" y2="2529.16" style="stroke:#000000;stroke-width:5.76"/>
	<text x="3340.01" y="2619.14" style="font-family:'Helvetica';font-size:99.99px;fill:#000000" text-anchor="middle">19</text>
	<line x1="3491.98" y1="2489.19" x2="3491.98" y2="2529.16" style="stroke:#000000;stroke-width:5.76"/>
	<text x="3491.98" y="2619.14" style="font-family:'Helvetica';font-size:99.99px;fill:#000000" text-anchor="middle">20</text>
	<line x1="3643.82" y1="2489.19" x2="3643.82" y2="2529.16" style="stroke:#000000;stroke-width:5.76"/>
	<text x="3643.82" y="2619.14" style="font-family:'Helvetica';font-size:99.99px;fill:#000000" text-anchor="middle">21</text>
	<line x1="3795.66" y1="2489.19" x2="3795.66" y2="2529.16" style="stroke:#000000;stroke-width:5.76"/>
	<text x="3795.66" y="2619.14" style="font-family:'Helvetica';font-size:99.99px;fill:#000000" text-anchor="middle">22</text>
	<text x="2124.91" y="2729.16" style="font-family:'Helvetica';font-size:99.99px;fill:#000000" text-anchor="middle">Days since 0.01 confirmed cases per 100 beds</text>
</svg>
