<?xml version="1.0" encoding="UTF-8" standalone="no"?>
<!-- This is a Stata 14.2 generated SVG file (http://www.stata.com) -->

<svg version="1.1" width="5.50in" height="4.00in" viewBox="0 0 3960 2880" xmlns="http://www.w3.org/2000/svg">
	<desc>Stata Graph - Graph</desc>
	<line x1="390.80" y1="-1140.64" x2="3859.02" y2="-1140.64" style="stroke:#FF0000;stroke-width:8.64"/>
	<path d="M537.69 2396.25 L537.69 2396.25 L621.23 2396.25 L704.76 2396.25 L788.29 2396.25 L871.82 2396.25 L955.35 2396.37 L1038.88 2399.34 L1122.41 2420.13 L1205.94 2425.82 L1289.47 2292.79 L1373.13 2011.00 L1456.66 1714.11 L1540.19 1441.86 L1623.72 1198.80 L1707.26 1014.78 L1790.79 912.44 L1874.32 872.84 L1957.85 864.17 L2041.38 868.01 L2124.91 875.68 L2208.44 883.73 L2291.97 890.66 L2375.51 896.23 L2459.04 900.43 L2542.57 903.40 L2626.22 905.63 L2709.75 907.24 L2793.28 908.35 L2876.82 909.10 L2960.35 909.59 L3043.88 909.96 L3127.41 910.09 L3210.94 910.33 L3210.94 164.22 L3127.41 164.47 L3043.88 164.84 L2960.35 165.46 L2876.82 166.45 L2793.28 167.81 L2709.75 170.04 L2626.22 173.38 L2542.57 178.33 L2459.04 185.75 L2375.51 196.89 L2291.97 213.35 L2208.44 237.61 L2124.91 273.00 L2041.38 323.62 L1957.85 394.40 L1874.32 489.57 L1790.79 608.37 L1707.26 742.28 L1623.72 898.70 L1540.19 1118.73 L1456.66 1423.54 L1373.13 1751.74 L1289.47 2014.47 L1205.94 2219.53 L1122.41 2350.33 L1038.88 2392.16 L955.35 2396.25 L871.82 2396.25 L788.29 2396.25 L704.76 2396.25 L621.23 2396.25 L537.69 2396.25 L537.69 2396.25 Z" stroke-linecap="round" style="fill:#EBEBFF;stroke:#E6E6FF;stroke-width:3.00"/>
	<path d="M537.69 2396.25 L537.69 2396.25 L621.23 2396.25 L704.76 2396.25 L788.29 2396.25 L871.82 2396.25 L955.35 2396.25 L1038.88 2397.24 L1122.41 2399.96 L1205.94 2366.30 L1289.47 2212.47 L1373.13 1936.25 L1456.66 1630.21 L1540.19 1348.67 L1623.72 1112.18 L1707.26 936.20 L1790.79 824.70 L1874.32 762.20 L1957.85 728.66 L2041.38 710.84 L2124.91 701.81 L2208.44 697.23 L2291.97 695.25 L2375.51 694.38 L2459.04 694.14 L2542.57 694.14 L2626.22 694.26 L2709.75 694.51 L2793.28 694.63 L2876.82 694.75 L2960.35 694.75 L3043.88 694.88 L3127.41 694.88 L3210.94 695.00 L3210.94 379.55 L3127.41 379.68 L3043.88 379.92 L2960.35 380.17 L2876.82 380.79 L2793.28 381.53 L2709.75 382.77 L2626.22 384.75 L2542.57 387.60 L2459.04 392.05 L2375.51 398.73 L2291.97 408.88 L2208.44 424.10 L2124.91 447.00 L2041.38 480.78 L1957.85 530.04 L1874.32 600.21 L1790.79 696.12 L1707.26 820.98 L1623.72 985.20 L1540.19 1212.05 L1456.66 1507.45 L1373.13 1826.61 L1289.47 2094.78 L1205.94 2279.05 L1122.41 2370.38 L1038.88 2394.14 L955.35 2396.25 L871.82 2396.25 L788.29 2396.25 L704.76 2396.25 L621.23 2396.25 L537.69 2396.25 L537.69 2396.25 Z" stroke-linecap="round" style="fill:#D6D6FF;stroke:#CCCCFF;stroke-width:3.00"/>
	<path d="M537.69 2396.25 L537.69 2396.25 L621.23 2396.25 L704.76 2396.25 L788.29 2396.25 L871.82 2396.25 L955.35 2396.25 L1038.88 2396.86 L1122.41 2396.74 L1205.94 2356.64 L1289.47 2199.48 L1373.13 1924.13 L1456.66 1616.72 L1540.19 1333.57 L1623.72 1098.07 L1707.26 923.45 L1790.79 810.46 L1874.32 744.38 L1957.85 706.63 L2041.38 685.47 L2124.91 673.59 L2208.44 667.03 L2291.97 663.57 L2375.51 661.71 L2459.04 660.72 L2542.57 660.35 L2626.22 660.10 L2709.75 659.98 L2793.28 659.98 L2876.82 660.10 L2960.35 660.10 L3043.88 660.10 L3127.41 660.10 L3210.94 660.10 L3210.94 414.33 L3127.41 414.45 L3043.88 414.70 L2960.35 414.95 L2876.82 415.44 L2793.28 416.18 L2709.75 417.17 L2626.22 418.91 L2542.57 421.51 L2459.04 425.34 L2375.51 431.41 L2291.97 440.44 L2208.44 454.30 L2124.91 475.09 L2041.38 506.15 L1957.85 551.94 L1874.32 618.03 L1790.79 710.35 L1707.26 833.61 L1623.72 999.31 L1540.19 1227.14 L1456.66 1520.94 L1373.13 1838.73 L1289.47 2107.78 L1205.94 2288.70 L1122.41 2373.72 L1038.88 2394.51 L955.35 2396.25 L871.82 2396.25 L788.29 2396.25 L704.76 2396.25 L621.23 2396.25 L537.69 2396.25 L537.69 2396.25 Z" stroke-linecap="round" style="fill:#C2C2FF;stroke:#B3B3FF;stroke-width:3.00"/>
	<path d="M537.69 2396.25 L537.69 2396.25 L621.23 2396.25 L704.76 2396.25 L788.29 2396.25 L871.82 2396.25 L955.35 2396.25 L1038.88 2396.74 L1122.41 2394.51 L1205.94 2350.21 L1289.47 2190.69 L1373.13 1915.96 L1456.66 1607.56 L1540.19 1323.30 L1623.72 1088.66 L1707.26 914.79 L1790.79 800.94 L1874.32 732.25 L1957.85 691.91 L2041.38 668.27 L2124.91 654.66 L2208.44 646.74 L2291.97 642.28 L2375.51 639.68 L2459.04 638.20 L2542.57 637.46 L2626.22 637.08 L2709.75 636.84 L2793.28 636.71 L2876.82 636.59 L2960.35 636.59 L3043.88 636.59 L3127.41 636.59 L3210.94 636.59 L3210.94 437.84 L3127.41 437.96 L3043.88 438.09 L2960.35 438.46 L2876.82 438.83 L2793.28 439.45 L2709.75 440.44 L2626.22 441.93 L2542.57 444.28 L2459.04 447.87 L2375.51 453.43 L2291.97 461.85 L2208.44 474.60 L2124.91 494.03 L2041.38 523.36 L1957.85 566.79 L1874.32 630.15 L1790.79 719.88 L1707.26 842.27 L1623.72 1008.72 L1540.19 1237.29 L1456.66 1530.09 L1373.13 1846.90 L1289.47 2116.56 L1205.94 2295.26 L1122.41 2375.95 L1038.88 2394.76 L955.35 2396.25 L871.82 2396.25 L788.29 2396.25 L704.76 2396.25 L621.23 2396.25 L537.69 2396.25 L537.69 2396.25 Z" stroke-linecap="round" style="fill:#ADADFF;stroke:#9999FF;stroke-width:3.00"/>
	<path d="M537.69 2396.25 L537.69 2396.25 L621.23 2396.25 L704.76 2396.25 L788.29 2396.25 L871.82 2396.25 L955.35 2396.25 L1038.88 2396.49 L1122.41 2392.78 L1205.94 2345.01 L1289.47 2183.76 L1373.13 1909.40 L1456.66 1600.26 L1540.19 1315.26 L1623.72 1081.11 L1707.26 907.98 L1790.79 793.26 L1874.32 722.60 L1957.85 680.15 L2041.38 654.66 L2124.91 639.56 L2208.44 630.53 L2291.97 625.33 L2375.51 622.23 L2459.04 620.38 L2542.57 619.26 L2626.22 618.77 L2709.75 618.40 L2793.28 618.15 L2876.82 618.03 L2960.35 618.03 L3043.88 617.90 L3127.41 617.90 L3210.94 617.90 L3210.94 456.53 L3127.41 456.65 L3043.88 456.78 L2960.35 457.02 L2876.82 457.39 L2793.28 458.01 L2709.75 458.88 L2626.22 460.24 L2542.57 462.47 L2459.04 465.81 L2375.51 470.88 L2291.97 478.80 L2208.44 490.81 L2124.91 509.12 L2041.38 536.97 L1957.85 578.55 L1874.32 639.81 L1790.79 727.55 L1707.26 849.08 L1623.72 1016.27 L1540.19 1245.34 L1456.66 1537.39 L1373.13 1853.34 L1289.47 2123.49 L1205.94 2300.46 L1122.41 2377.68 L1038.88 2394.88 L955.35 2396.25 L871.82 2396.25 L788.29 2396.25 L704.76 2396.25 L621.23 2396.25 L537.69 2396.25 L537.69 2396.25 Z" stroke-linecap="round" style="fill:#9999FF;stroke:#8080FF;stroke-width:3.00"/>
	<path d="M537.69 2396.25 L537.69 2396.25 L621.23 2396.25 L704.76 2396.25 L788.29 2396.25 L871.82 2396.25 L955.35 2396.25 L1038.88 2396.37 L1122.41 2391.30 L1205.94 2340.56 L1289.47 2177.82 L1373.13 1903.83 L1456.66 1593.95 L1540.19 1308.33 L1623.72 1074.68 L1707.26 902.17 L1790.79 786.70 L1874.32 714.43 L1957.85 670.00 L2041.38 643.03 L2124.91 626.57 L2208.44 616.67 L2291.97 610.73 L2375.51 607.14 L2459.04 605.03 L2542.57 603.80 L2626.22 602.93 L2709.75 602.56 L2793.28 602.31 L2876.82 602.06 L2960.35 602.06 L3043.88 601.94 L3127.41 601.94 L3210.94 601.94 L3210.94 472.62 L3127.41 472.62 L3043.88 472.74 L2960.35 472.99 L2876.82 473.36 L2793.28 473.85 L2709.75 474.72 L2626.22 475.96 L2542.57 478.06 L2459.04 481.16 L2375.51 485.86 L2291.97 493.28 L2208.44 504.67 L2124.91 522.12 L2041.38 548.60 L1957.85 588.57 L1874.32 647.98 L1790.79 733.98 L1707.26 854.89 L1623.72 1022.70 L1540.19 1252.27 L1456.66 1543.58 L1373.13 1858.91 L1289.47 2129.56 L1205.94 2304.79 L1122.41 2379.17 L1038.88 2395.13 L955.35 2396.25 L871.82 2396.25 L788.29 2396.25 L704.76 2396.25 L621.23 2396.25 L537.69 2396.25 L537.69 2396.25 Z" stroke-linecap="round" style="fill:#8585FF;stroke:#6666FF;stroke-width:3.00"/>
	<path d="M537.69 2396.25 L537.69 2396.25 L621.23 2396.25 L704.76 2396.25 L788.29 2396.25 L871.82 2396.25 L955.35 2396.25 L1038.88 2396.25 L1122.41 2389.93 L1205.94 2336.60 L1289.47 2172.38 L1373.13 1898.88 L1456.66 1588.38 L1540.19 1302.14 L1623.72 1068.86 L1707.26 896.97 L1790.79 780.89 L1874.32 707.01 L1957.85 660.97 L2041.38 632.51 L2124.91 614.93 L2208.44 604.17 L2291.97 597.61 L2375.51 593.65 L2459.04 591.17 L2542.57 589.81 L2626.22 588.82 L2709.75 588.33 L2793.28 587.95 L2876.82 587.83 L2960.35 587.71 L3043.88 587.58 L3127.41 587.58 L3210.94 587.46 L3210.94 486.97 L3127.41 486.97 L3043.88 487.22 L2960.35 487.34 L2876.82 487.71 L2793.28 488.21 L2709.75 488.95 L2626.22 490.19 L2542.57 492.05 L2459.04 494.89 L2375.51 499.35 L2291.97 506.40 L2208.44 517.17 L2124.91 533.75 L2041.38 559.12 L1957.85 597.61 L1874.32 655.40 L1790.79 739.92 L1707.26 860.21 L1623.72 1028.52 L1540.19 1258.58 L1456.66 1549.27 L1373.13 1863.86 L1289.47 2134.88 L1205.94 2308.75 L1122.41 2380.53 L1038.88 2395.26 L955.35 2396.25 L871.82 2396.25 L788.29 2396.25 L704.76 2396.25 L621.23 2396.25 L537.69 2396.25 L537.69 2396.25 Z" stroke-linecap="round" style="fill:#7171FF;stroke:#4D4DFF;stroke-width:3.00"/>
	<path d="M537.69 2396.25 L537.69 2396.25 L621.23 2396.25 L704.76 2396.25 L788.29 2396.25 L871.82 2396.25 L955.35 2396.25 L1038.88 2396.12 L1122.41 2388.70 L1205.94 2332.88 L1289.47 2167.43 L1373.13 1894.18 L1456.66 1583.18 L1540.19 1296.32 L1623.72 1063.54 L1707.26 892.02 L1790.79 775.44 L1874.32 700.20 L1957.85 652.55 L2041.38 622.73 L2124.91 604.17 L2208.44 592.66 L2291.97 585.60 L2375.51 581.15 L2459.04 578.43 L2542.57 576.82 L2626.22 575.70 L2709.75 575.08 L2793.28 574.71 L2876.82 574.47 L2960.35 574.34 L3043.88 574.22 L3127.41 574.22 L3210.94 574.22 L3210.94 500.34 L3127.41 500.34 L3043.88 500.46 L2960.35 500.71 L2876.82 500.96 L2793.28 501.45 L2709.75 502.07 L2626.22 503.18 L2542.57 504.92 L2459.04 507.64 L2375.51 511.85 L2291.97 518.53 L2208.44 528.68 L2124.91 544.52 L2041.38 568.90 L1957.85 606.02 L1874.32 662.21 L1790.79 745.37 L1707.26 865.04 L1623.72 1033.84 L1540.19 1264.27 L1456.66 1554.47 L1373.13 1868.56 L1289.47 2139.83 L1205.94 2312.46 L1122.41 2381.77 L1038.88 2395.38 L955.35 2396.25 L871.82 2396.25 L788.29 2396.25 L704.76 2396.25 L621.23 2396.25 L537.69 2396.25 L537.69 2396.25 Z" stroke-linecap="round" style="fill:#5C5CFF;stroke:#3333FF;stroke-width:3.00"/>
	<path d="M537.69 2396.25 L537.69 2396.25 L621.23 2396.25 L704.76 2396.25 L788.29 2396.25 L871.82 2396.25 L955.35 2396.25 L1038.88 2396.00 L1122.41 2387.46 L1205.94 2329.42 L1289.47 2162.72 L1373.13 1889.85 L1456.66 1578.23 L1540.19 1290.88 L1623.72 1058.47 L1707.26 887.44 L1790.79 770.24 L1874.32 693.64 L1957.85 644.63 L2041.38 613.57 L2124.91 594.02 L2208.44 581.77 L2291.97 574.09 L2375.51 569.27 L2459.04 566.30 L2542.57 564.44 L2626.22 563.33 L2709.75 562.59 L2793.28 562.21 L2876.82 561.97 L2960.35 561.72 L3043.88 561.60 L3127.41 561.60 L3210.94 561.47 L3210.94 512.96 L3127.41 512.96 L3043.88 513.08 L2960.35 513.33 L2876.82 513.58 L2793.28 513.95 L2709.75 514.57 L2626.22 515.68 L2542.57 517.29 L2459.04 519.77 L2375.51 523.73 L2291.97 529.91 L2208.44 539.69 L2124.91 554.66 L2041.38 578.05 L1957.85 614.07 L1874.32 668.77 L1790.79 750.44 L1707.26 869.62 L1623.72 1038.91 L1540.19 1269.84 L1456.66 1559.30 L1373.13 1872.89 L1289.47 2144.53 L1205.94 2316.05 L1122.41 2382.88 L1038.88 2395.50 L955.35 2396.25 L871.82 2396.25 L788.29 2396.25 L704.76 2396.25 L621.23 2396.25 L537.69 2396.25 L537.69 2396.25 Z" stroke-linecap="round" style="fill:#4747FF;stroke:#1919FF;stroke-width:3.00"/>
	<path d="M537.69 2396.25 L537.69 2396.25 L621.23 2396.25 L704.76 2396.25 L788.29 2396.25 L871.82 2396.25 L955.35 2396.25 L1038.88 2395.87 L1122.41 2386.35 L1205.94 2326.08 L1289.47 2158.14 L1373.13 1885.51 L1456.66 1573.53 L1540.19 1285.56 L1623.72 1053.52 L1707.26 882.98 L1790.79 765.29 L1874.32 687.45 L1957.85 636.96 L2041.38 604.54 L2124.91 584.12 L2208.44 571.12 L2291.97 562.96 L2375.51 557.88 L2459.04 554.66 L2542.57 552.56 L2626.22 551.32 L2709.75 550.58 L2793.28 550.09 L2876.82 549.71 L2960.35 549.59 L3043.88 549.47 L3127.41 549.34 L3210.94 549.34 L3210.94 525.21 L3127.41 525.21 L3043.88 525.34 L2960.35 525.46 L2876.82 525.71 L2793.28 526.08 L2709.75 526.70 L2626.22 527.69 L2542.57 529.17 L2459.04 531.52 L2375.51 535.24 L2291.97 541.05 L2208.44 550.21 L2124.91 564.57 L2041.38 586.96 L1957.85 621.74 L1874.32 674.95 L1790.79 755.52 L1707.26 874.20 L1623.72 1043.86 L1540.19 1275.04 L1456.66 1564.13 L1373.13 1877.22 L1289.47 2149.11 L1205.94 2319.39 L1122.41 2384.12 L1038.88 2395.63 L955.35 2396.25 L871.82 2396.25 L788.29 2396.25 L704.76 2396.25 L621.23 2396.25 L537.69 2396.25 L537.69 2396.25 Z" stroke-linecap="round" style="fill:#3333FF;stroke:#0000FF;stroke-width:3.00"/>
	<circle cx="537.57" cy="2391.05" r="22.03" style="fill:#000000;stroke:#000000;stroke-width:8.64"/>
	<circle cx="621.10" cy="2389.32" r="22.03" style="fill:#000000;stroke:#000000;stroke-width:8.64"/>
	<circle cx="704.76" cy="2387.58" r="22.03" style="fill:#000000;stroke:#000000;stroke-width:8.64"/>
	<circle cx="788.29" cy="2382.39" r="22.03" style="fill:#000000;stroke:#000000;stroke-width:8.64"/>
	<circle cx="871.82" cy="2378.92" r="22.03" style="fill:#000000;stroke:#000000;stroke-width:8.64"/>
	<circle cx="955.35" cy="2361.47" r="22.03" style="fill:#000000;stroke:#000000;stroke-width:8.64"/>
	<circle cx="1038.88" cy="2356.27" r="22.03" style="fill:#000000;stroke:#000000;stroke-width:8.64"/>
	<circle cx="1122.41" cy="2342.29" r="22.03" style="fill:#000000;stroke:#000000;stroke-width:8.64"/>
	<circle cx="1205.94" cy="2330.04" r="22.03" style="fill:#000000;stroke:#000000;stroke-width:8.64"/>
	<circle cx="1289.47" cy="2199.35" r="22.03" style="fill:#000000;stroke:#000000;stroke-width:8.64"/>
	<circle cx="1373.01" cy="1936.13" r="22.03" style="fill:#000000;stroke:#000000;stroke-width:8.64"/>
	<circle cx="1456.54" cy="1496.93" r="22.03" style="fill:#000000;stroke:#000000;stroke-width:8.64"/>
	<circle cx="1540.07" cy="1217.99" r="22.03" style="fill:#000000;stroke:#000000;stroke-width:8.64"/>
	<circle cx="1623.60" cy="994.86" r="22.03" style="fill:#000000;stroke:#000000;stroke-width:8.64"/>
	<circle cx="1707.13" cy="954.76" r="22.03" style="fill:#000000;stroke:#000000;stroke-width:8.64"/>
	<circle cx="1790.66" cy="871.10" r="22.03" style="fill:#000000;stroke:#000000;stroke-width:8.64"/>
	<circle cx="1874.19" cy="771.73" r="22.03" style="fill:#000000;stroke:#000000;stroke-width:8.64"/>
	<circle cx="1957.85" cy="611.34" r="22.03" style="fill:#000000;stroke:#000000;stroke-width:8.64"/>
	<circle cx="2041.38" cy="452.82" r="22.03" style="fill:#000000;stroke:#000000;stroke-width:8.64"/>
	<line x1="390.80" y1="2489.19" x2="390.80" y2="100.86" style="stroke:#000000;stroke-width:5.76"/>
	<line x1="390.80" y1="2396.25" x2="350.83" y2="2396.25" style="stroke:#000000;stroke-width:5.76"/>
	<text x="300.72" y="2396.25" style="font-family:'Helvetica';font-size:99.99px;fill:#000000" transform="rotate(-90 300.72,2396.25)" text-anchor="middle">0</text>
	<line x1="390.80" y1="1688.87" x2="350.83" y2="1688.87" style="stroke:#000000;stroke-width:5.76"/>
	<text x="300.72" y="1688.87" style="font-family:'Helvetica';font-size:99.99px;fill:#000000" transform="rotate(-90 300.72,1688.87)" text-anchor="middle">2</text>
	<line x1="390.80" y1="981.49" x2="350.83" y2="981.49" style="stroke:#000000;stroke-width:5.76"/>
	<text x="300.72" y="981.49" style="font-family:'Helvetica';font-size:99.99px;fill:#000000" transform="rotate(-90 300.72,981.49)" text-anchor="middle">4</text>
	<line x1="390.80" y1="274.11" x2="350.83" y2="274.11" style="stroke:#000000;stroke-width:5.76"/>
	<text x="300.72" y="274.11" style="font-family:'Helvetica';font-size:99.99px;fill:#000000" transform="rotate(-90 300.72,274.11)" text-anchor="middle">6</text>
	<text x="190.71" y="1294.96" style="font-family:'Helvetica';font-size:99.99px;fill:#000000" transform="rotate(-90 190.71,1294.96)" text-anchor="middle">Confirmed cases per 100 beds</text>
	<line x1="390.80" y1="2489.19" x2="3859.02" y2="2489.19" style="stroke:#000000;stroke-width:5.76"/>
	<line x1="454.16" y1="2489.19" x2="454.16" y2="2529.16" style="stroke:#000000;stroke-width:5.76"/>
	<text x="454.16" y="2619.14" style="font-family:'Helvetica';font-size:99.99px;fill:#000000" text-anchor="middle">0</text>
	<line x1="1289.47" y1="2489.19" x2="1289.47" y2="2529.16" style="stroke:#000000;stroke-width:5.76"/>
	<text x="1289.47" y="2619.14" style="font-family:'Helvetica';font-size:99.99px;fill:#000000" text-anchor="middle">10</text>
	<line x1="2124.91" y1="2489.19" x2="2124.91" y2="2529.16" style="stroke:#000000;stroke-width:5.76"/>
	<text x="2124.91" y="2619.14" style="font-family:'Helvetica';font-size:99.99px;fill:#000000" text-anchor="middle">20</text>
	<line x1="2960.35" y1="2489.19" x2="2960.35" y2="2529.16" style="stroke:#000000;stroke-width:5.76"/>
	<text x="2960.35" y="2619.14" style="font-family:'Helvetica';font-size:99.99px;fill:#000000" text-anchor="middle">30</text>
	<line x1="3795.66" y1="2489.19" x2="3795.66" y2="2529.16" style="stroke:#000000;stroke-width:5.76"/>
	<text x="3795.66" y="2619.14" style="font-family:'Helvetica';font-size:99.99px;fill:#000000" text-anchor="middle">40</text>
	<text x="2124.91" y="2729.16" style="font-family:'Helvetica';font-size:99.99px;fill:#000000" text-anchor="middle">Days since 0.01 confirmed cases per 100 beds</text>
</svg>
