<?xml version="1.0" encoding="UTF-8" standalone="no"?>
<!-- This is a Stata 14.2 generated SVG file (http://www.stata.com) -->

<svg version="1.1" width="5.50in" height="4.00in" viewBox="0 0 3960 2880" xmlns="http://www.w3.org/2000/svg">
	<desc>Stata Graph - Graph</desc>
	<line x1="390.80" y1="2255.66" x2="3859.02" y2="2255.66" style="stroke:#FF0000;stroke-width:8.64"/>
	<path d="M565.54 2365.80 L565.54 2365.80 L676.91 2365.80 L788.29 2365.80 L899.66 2365.80 L1011.04 2365.80 L1122.41 2365.68 L1233.79 2365.68 L1345.29 2365.43 L1456.66 2365.18 L1568.04 2364.57 L1679.41 2363.58 L1790.79 2361.97 L1902.16 2359.61 L2013.54 2357.26 L2124.91 2354.42 L2236.29 2350.95 L2347.66 2346.99 L2459.04 2342.41 L2570.53 2337.71 L2681.91 2333.01 L2793.28 2329.30 L2904.66 2327.32 L3016.03 2328.80 L3127.41 2335.98 L3238.78 2351.69 L3350.16 2379.91 L3461.53 2425.82 L3461.53 563.82 L3350.16 1047.70 L3238.78 1411.66 L3127.41 1682.43 L3016.03 1881.93 L2904.66 2027.21 L2793.28 2131.91 L2681.91 2206.28 L2570.53 2258.51 L2459.04 2294.77 L2347.66 2319.52 L2236.29 2336.10 L2124.91 2347.12 L2013.54 2354.17 L1902.16 2358.62 L1790.79 2360.85 L1679.41 2362.34 L1568.04 2363.33 L1456.66 2364.07 L1345.29 2364.57 L1233.79 2364.94 L1122.41 2365.31 L1011.04 2365.43 L899.66 2365.56 L788.29 2365.68 L676.91 2365.68 L565.54 2365.68 L565.54 2365.80 Z" stroke-linecap="round" style="fill:#EBEBFF;stroke:#E6E6FF;stroke-width:3.00"/>
	<path d="M565.54 2365.80 L565.54 2365.80 L676.91 2365.80 L788.29 2365.68 L899.66 2365.68 L1011.04 2365.68 L1122.41 2365.56 L1233.79 2365.43 L1345.29 2365.18 L1456.66 2364.81 L1568.04 2364.19 L1679.41 2363.20 L1790.79 2361.60 L1902.16 2359.37 L2013.54 2356.40 L2124.91 2352.31 L2236.29 2346.62 L2347.66 2339.07 L2459.04 2328.68 L2570.53 2314.82 L2681.91 2296.50 L2793.28 2272.24 L2904.66 2240.69 L3016.03 2199.85 L3127.41 2147.38 L3238.78 2080.30 L3350.16 1995.41 L3461.53 1888.48 L3461.53 1101.29 L3350.16 1432.20 L3238.78 1682.93 L3127.41 1871.03 L3016.03 2011.00 L2904.66 2113.84 L2793.28 2188.83 L2681.91 2242.92 L2570.53 2281.40 L2459.04 2308.50 L2347.66 2327.44 L2236.29 2340.43 L2124.91 2349.22 L2013.54 2355.04 L1902.16 2358.87 L1790.79 2361.22 L1679.41 2362.71 L1568.04 2363.70 L1456.66 2364.44 L1345.29 2364.81 L1233.79 2365.18 L1122.41 2365.43 L1011.04 2365.56 L899.66 2365.56 L788.29 2365.68 L676.91 2365.68 L565.54 2365.68 L565.54 2365.80 Z" stroke-linecap="round" style="fill:#D6D6FF;stroke:#CCCCFF;stroke-width:3.00"/>
	<path d="M565.54 2365.80 L565.54 2365.80 L676.91 2365.68 L788.29 2365.68 L899.66 2365.68 L1011.04 2365.68 L1122.41 2365.56 L1233.79 2365.43 L1345.29 2365.18 L1456.66 2364.81 L1568.04 2364.19 L1679.41 2363.20 L1790.79 2361.60 L1902.16 2359.24 L2013.54 2356.15 L2124.91 2351.94 L2236.29 2346.00 L2347.66 2337.71 L2459.04 2326.45 L2570.53 2311.10 L2681.91 2290.56 L2793.28 2263.09 L2904.66 2226.70 L3016.03 2179.06 L3127.41 2116.81 L3238.78 2036.49 L3350.16 1933.16 L3461.53 1801.49 L3461.53 1188.16 L3350.16 1494.45 L3238.78 1726.86 L3127.41 1901.60 L3016.03 2031.79 L2904.66 2127.95 L2793.28 2198.12 L2681.91 2248.86 L2570.53 2285.12 L2459.04 2310.73 L2347.66 2328.68 L2236.29 2341.05 L2124.91 2349.47 L2013.54 2355.16 L1902.16 2359.00 L1790.79 2361.22 L1679.41 2362.71 L1568.04 2363.82 L1456.66 2364.44 L1345.29 2364.94 L1233.79 2365.18 L1122.41 2365.43 L1011.04 2365.56 L899.66 2365.68 L788.29 2365.68 L676.91 2365.68 L565.54 2365.68 L565.54 2365.80 Z" stroke-linecap="round" style="fill:#C2C2FF;stroke:#B3B3FF;stroke-width:3.00"/>
	<path d="M565.54 2365.80 L565.54 2365.80 L676.91 2365.68 L788.29 2365.68 L899.66 2365.68 L1011.04 2365.68 L1122.41 2365.56 L1233.79 2365.43 L1345.29 2365.18 L1456.66 2364.81 L1568.04 2364.07 L1679.41 2363.08 L1790.79 2361.60 L1902.16 2359.24 L2013.54 2356.15 L2124.91 2351.69 L2236.29 2345.51 L2347.66 2336.84 L2459.04 2324.96 L2570.53 2308.63 L2681.91 2286.60 L2793.28 2256.90 L2904.66 2217.30 L3016.03 2164.95 L3127.41 2096.27 L3238.78 2006.79 L3350.16 1891.21 L3461.53 1742.83 L3461.53 1246.82 L3350.16 1536.40 L3238.78 1756.44 L3127.41 1922.15 L3016.03 2045.90 L2904.66 2137.35 L2793.28 2204.30 L2681.91 2252.82 L2570.53 2287.59 L2459.04 2312.22 L2347.66 2329.54 L2236.29 2341.55 L2124.91 2349.71 L2013.54 2355.28 L1902.16 2359.00 L1790.79 2361.22 L1679.41 2362.83 L1568.04 2363.82 L1456.66 2364.44 L1345.29 2364.94 L1233.79 2365.18 L1122.41 2365.43 L1011.04 2365.56 L899.66 2365.68 L788.29 2365.68 L676.91 2365.68 L565.54 2365.68 L565.54 2365.80 Z" stroke-linecap="round" style="fill:#ADADFF;stroke:#9999FF;stroke-width:3.00"/>
	<path d="M565.54 2365.80 L565.54 2365.80 L676.91 2365.68 L788.29 2365.68 L899.66 2365.68 L1011.04 2365.68 L1122.41 2365.56 L1233.79 2365.43 L1345.29 2365.18 L1456.66 2364.69 L1568.04 2364.07 L1679.41 2363.08 L1790.79 2361.47 L1902.16 2359.24 L2013.54 2356.03 L2124.91 2351.57 L2236.29 2345.14 L2347.66 2336.23 L2459.04 2323.73 L2570.53 2306.65 L2681.91 2283.38 L2793.28 2251.95 L2904.66 2209.75 L3016.03 2153.69 L3127.41 2079.93 L3238.78 1983.28 L3350.16 1857.92 L3461.53 1696.29 L3461.53 1293.48 L3350.16 1569.69 L3238.78 1779.95 L3127.41 1938.48 L3016.03 2057.04 L2904.66 2144.90 L2793.28 2209.25 L2681.91 2255.91 L2570.53 2289.57 L2459.04 2313.45 L2347.66 2330.29 L2236.29 2341.92 L2124.91 2349.96 L2013.54 2355.41 L1902.16 2359.00 L1790.79 2361.35 L1679.41 2362.83 L1568.04 2363.82 L1456.66 2364.57 L1345.29 2364.94 L1233.79 2365.31 L1122.41 2365.43 L1011.04 2365.56 L899.66 2365.68 L788.29 2365.68 L676.91 2365.68 L565.54 2365.68 L565.54 2365.80 Z" stroke-linecap="round" style="fill:#9999FF;stroke:#8080FF;stroke-width:3.00"/>
	<path d="M565.54 2365.80 L565.54 2365.80 L676.91 2365.68 L788.29 2365.68 L899.66 2365.68 L1011.04 2365.68 L1122.41 2365.56 L1233.79 2365.43 L1345.29 2365.18 L1456.66 2364.69 L1568.04 2364.07 L1679.41 2363.08 L1790.79 2361.47 L1902.16 2359.24 L2013.54 2356.03 L2124.91 2351.32 L2236.29 2344.76 L2347.66 2335.61 L2459.04 2322.74 L2570.53 2304.92 L2681.91 2280.66 L2793.28 2247.74 L2904.66 2203.31 L3016.03 2144.16 L3127.41 2065.82 L3238.78 1963.11 L3350.16 1829.33 L3461.53 1656.20 L3461.53 1333.45 L3350.16 1598.28 L3238.78 1800.12 L3127.41 1952.59 L3016.03 2066.69 L2904.66 2151.34 L2793.28 2213.46 L2681.91 2258.63 L2570.53 2291.30 L2459.04 2314.44 L2347.66 2330.78 L2236.29 2342.29 L2124.91 2350.09 L2013.54 2355.41 L1902.16 2359.00 L1790.79 2361.35 L1679.41 2362.83 L1568.04 2363.82 L1456.66 2364.57 L1345.29 2364.94 L1233.79 2365.31 L1122.41 2365.43 L1011.04 2365.56 L899.66 2365.68 L788.29 2365.68 L676.91 2365.68 L565.54 2365.68 L565.54 2365.80 Z" stroke-linecap="round" style="fill:#8585FF;stroke:#6666FF;stroke-width:3.00"/>
	<path d="M565.54 2365.68 L565.54 2365.68 L676.91 2365.68 L788.29 2365.68 L899.66 2365.68 L1011.04 2365.68 L1122.41 2365.56 L1233.79 2365.31 L1345.29 2365.06 L1456.66 2364.69 L1568.04 2364.07 L1679.41 2363.08 L1790.79 2361.47 L1902.16 2359.12 L2013.54 2355.90 L2124.91 2351.20 L2236.29 2344.52 L2347.66 2335.11 L2459.04 2321.87 L2570.53 2303.43 L2681.91 2278.18 L2793.28 2243.91 L2904.66 2197.50 L3016.03 2135.50 L3127.41 2053.32 L3238.78 1945.04 L3350.16 1803.59 L3461.53 1620.31 L3461.53 1369.34 L3350.16 1624.02 L3238.78 1818.32 L3127.41 1965.21 L3016.03 2075.35 L2904.66 2157.03 L2793.28 2217.30 L2681.91 2261.11 L2570.53 2292.79 L2459.04 2315.43 L2347.66 2331.40 L2236.29 2342.54 L2124.91 2350.21 L2013.54 2355.53 L1902.16 2359.00 L1790.79 2361.35 L1679.41 2362.83 L1568.04 2363.82 L1456.66 2364.57 L1345.29 2364.94 L1233.79 2365.31 L1122.41 2365.43 L1011.04 2365.56 L899.66 2365.68 L788.29 2365.68 L676.91 2365.68 L565.54 2365.68 L565.54 2365.68 Z" stroke-linecap="round" style="fill:#7171FF;stroke:#4D4DFF;stroke-width:3.00"/>
	<path d="M565.54 2365.68 L565.54 2365.68 L676.91 2365.68 L788.29 2365.68 L899.66 2365.68 L1011.04 2365.56 L1122.41 2365.56 L1233.79 2365.31 L1345.29 2365.06 L1456.66 2364.69 L1568.04 2364.07 L1679.41 2362.96 L1790.79 2361.47 L1902.16 2359.12 L2013.54 2355.90 L2124.91 2351.08 L2236.29 2344.27 L2347.66 2334.62 L2459.04 2321.00 L2570.53 2302.07 L2681.91 2275.96 L2793.28 2240.32 L2904.66 2192.18 L3016.03 2127.58 L3127.41 2041.57 L3238.78 1928.21 L3350.16 1779.83 L3461.53 1587.02 L3461.53 1402.63 L3350.16 1647.78 L3238.78 1835.02 L3127.41 1976.84 L3016.03 2083.27 L2904.66 2162.48 L2793.28 2220.76 L2681.91 2263.33 L2570.53 2294.15 L2459.04 2316.18 L2347.66 2331.89 L2236.29 2342.78 L2124.91 2350.33 L2013.54 2355.53 L1902.16 2359.00 L1790.79 2361.35 L1679.41 2362.83 L1568.04 2363.95 L1456.66 2364.57 L1345.29 2365.06 L1233.79 2365.31 L1122.41 2365.43 L1011.04 2365.56 L899.66 2365.68 L788.29 2365.68 L676.91 2365.68 L565.54 2365.68 L565.54 2365.68 Z" stroke-linecap="round" style="fill:#5C5CFF;stroke:#3333FF;stroke-width:3.00"/>
	<path d="M565.54 2365.68 L565.54 2365.68 L676.91 2365.68 L788.29 2365.68 L899.66 2365.68 L1011.04 2365.56 L1122.41 2365.56 L1233.79 2365.31 L1345.29 2365.06 L1456.66 2364.69 L1568.04 2363.95 L1679.41 2362.96 L1790.79 2361.47 L1902.16 2359.12 L2013.54 2355.78 L2124.91 2350.95 L2236.29 2344.02 L2347.66 2334.12 L2459.04 2320.14 L2570.53 2300.71 L2681.91 2273.85 L2793.28 2236.97 L2904.66 2187.10 L3016.03 2119.90 L3127.41 2030.55 L3238.78 1912.24 L3350.16 1757.18 L3461.53 1555.46 L3461.53 1434.18 L3350.16 1670.43 L3238.78 1850.99 L3127.41 1987.98 L3016.03 2090.82 L2904.66 2167.55 L2793.28 2224.10 L2681.91 2265.56 L2570.53 2295.51 L2459.04 2317.04 L2347.66 2332.27 L2236.29 2343.03 L2124.91 2350.46 L2013.54 2355.65 L1902.16 2359.12 L1790.79 2361.35 L1679.41 2362.96 L1568.04 2363.95 L1456.66 2364.57 L1345.29 2365.06 L1233.79 2365.31 L1122.41 2365.43 L1011.04 2365.56 L899.66 2365.68 L788.29 2365.68 L676.91 2365.68 L565.54 2365.68 L565.54 2365.68 Z" stroke-linecap="round" style="fill:#4747FF;stroke:#1919FF;stroke-width:3.00"/>
	<path d="M565.54 2365.68 L565.54 2365.68 L676.91 2365.68 L788.29 2365.68 L899.66 2365.68 L1011.04 2365.56 L1122.41 2365.56 L1233.79 2365.31 L1345.29 2365.06 L1456.66 2364.69 L1568.04 2363.95 L1679.41 2362.96 L1790.79 2361.47 L1902.16 2359.12 L2013.54 2355.78 L2124.91 2350.83 L2236.29 2343.77 L2347.66 2333.63 L2459.04 2319.39 L2570.53 2299.35 L2681.91 2271.75 L2793.28 2233.76 L2904.66 2182.15 L3016.03 2112.60 L3127.41 2019.79 L3238.78 1896.78 L3350.16 1735.28 L3461.53 1524.90 L3461.53 1464.75 L3350.16 1692.33 L3238.78 1866.46 L3127.41 1998.62 L3016.03 2098.25 L2904.66 2172.50 L2793.28 2227.45 L2681.91 2267.67 L2570.53 2296.87 L2459.04 2317.79 L2347.66 2332.76 L2236.29 2343.28 L2124.91 2350.58 L2013.54 2355.65 L1902.16 2359.12 L1790.79 2361.35 L1679.41 2362.96 L1568.04 2363.95 L1456.66 2364.57 L1345.29 2365.06 L1233.79 2365.31 L1122.41 2365.43 L1011.04 2365.56 L899.66 2365.68 L788.29 2365.68 L676.91 2365.68 L565.54 2365.68 L565.54 2365.68 Z" stroke-linecap="round" style="fill:#3333FF;stroke:#0000FF;stroke-width:3.00"/>
	<circle cx="565.41" cy="2365.56" r="22.03" style="fill:#000000;stroke:#000000;stroke-width:8.64"/>
	<circle cx="676.79" cy="2365.56" r="22.03" style="fill:#000000;stroke:#000000;stroke-width:8.64"/>
	<circle cx="788.29" cy="2365.43" r="22.03" style="fill:#000000;stroke:#000000;stroke-width:8.64"/>
	<circle cx="899.66" cy="2365.31" r="22.03" style="fill:#000000;stroke:#000000;stroke-width:8.64"/>
	<circle cx="1011.04" cy="2365.31" r="22.03" style="fill:#000000;stroke:#000000;stroke-width:8.64"/>
	<circle cx="1122.41" cy="2365.18" r="22.03" style="fill:#000000;stroke:#000000;stroke-width:8.64"/>
	<circle cx="1233.79" cy="2365.18" r="22.03" style="fill:#000000;stroke:#000000;stroke-width:8.64"/>
	<circle cx="1345.16" cy="2364.94" r="22.03" style="fill:#000000;stroke:#000000;stroke-width:8.64"/>
	<circle cx="1456.54" cy="2364.69" r="22.03" style="fill:#000000;stroke:#000000;stroke-width:8.64"/>
	<circle cx="1567.91" cy="2364.32" r="22.03" style="fill:#000000;stroke:#000000;stroke-width:8.64"/>
	<circle cx="1679.29" cy="2363.45" r="22.03" style="fill:#000000;stroke:#000000;stroke-width:8.64"/>
	<circle cx="1790.66" cy="2361.35" r="22.03" style="fill:#000000;stroke:#000000;stroke-width:8.64"/>
	<circle cx="1902.04" cy="2359.00" r="22.03" style="fill:#000000;stroke:#000000;stroke-width:8.64"/>
	<line x1="390.80" y1="2489.19" x2="390.80" y2="100.86" style="stroke:#000000;stroke-width:5.76"/>
	<line x1="390.80" y1="2365.80" x2="350.83" y2="2365.80" style="stroke:#000000;stroke-width:5.76"/>
	<text x="300.72" y="2365.80" style="font-family:'Helvetica';font-size:99.99px;fill:#000000" transform="rotate(-90 300.72,2365.80)" text-anchor="middle">0</text>
	<line x1="390.80" y1="1815.35" x2="350.83" y2="1815.35" style="stroke:#000000;stroke-width:5.76"/>
	<text x="300.72" y="1815.35" style="font-family:'Helvetica';font-size:99.99px;fill:#000000" transform="rotate(-90 300.72,1815.35)" text-anchor="middle">50</text>
	<line x1="390.80" y1="1265.01" x2="350.83" y2="1265.01" style="stroke:#000000;stroke-width:5.76"/>
	<text x="300.72" y="1265.01" style="font-family:'Helvetica';font-size:99.99px;fill:#000000" transform="rotate(-90 300.72,1265.01)" text-anchor="middle">100</text>
	<line x1="390.80" y1="714.55" x2="350.83" y2="714.55" style="stroke:#000000;stroke-width:5.76"/>
	<text x="300.72" y="714.55" style="font-family:'Helvetica';font-size:99.99px;fill:#000000" transform="rotate(-90 300.72,714.55)" text-anchor="middle">150</text>
	<line x1="390.80" y1="164.22" x2="350.83" y2="164.22" style="stroke:#000000;stroke-width:5.76"/>
	<text x="300.72" y="164.22" style="font-family:'Helvetica';font-size:99.99px;fill:#000000" transform="rotate(-90 300.72,164.22)" text-anchor="middle">200</text>
	<text x="190.71" y="1294.96" style="font-family:'Helvetica';font-size:99.99px;fill:#000000" transform="rotate(-90 190.71,1294.96)" text-anchor="middle">Confirmed cases per 100 beds</text>
	<line x1="390.80" y1="2489.19" x2="3859.02" y2="2489.19" style="stroke:#000000;stroke-width:5.76"/>
	<line x1="454.16" y1="2489.19" x2="454.16" y2="2529.16" style="stroke:#000000;stroke-width:5.76"/>
	<text x="454.16" y="2619.14" style="font-family:'Helvetica';font-size:99.99px;fill:#000000" text-anchor="middle">0</text>
	<line x1="1568.04" y1="2489.19" x2="1568.04" y2="2529.16" style="stroke:#000000;stroke-width:5.76"/>
	<text x="1568.04" y="2619.14" style="font-family:'Helvetica';font-size:99.99px;fill:#000000" text-anchor="middle">10</text>
	<line x1="2681.91" y1="2489.19" x2="2681.91" y2="2529.16" style="stroke:#000000;stroke-width:5.76"/>
	<text x="2681.91" y="2619.14" style="font-family:'Helvetica';font-size:99.99px;fill:#000000" text-anchor="middle">20</text>
	<line x1="3795.66" y1="2489.19" x2="3795.66" y2="2529.16" style="stroke:#000000;stroke-width:5.76"/>
	<text x="3795.66" y="2619.14" style="font-family:'Helvetica';font-size:99.99px;fill:#000000" text-anchor="middle">30</text>
	<text x="2124.91" y="2729.16" style="font-family:'Helvetica';font-size:99.99px;fill:#000000" text-anchor="middle">Days since 0.01 confirmed cases per 100 beds</text>
</svg>
