<?xml version="1.0" encoding="UTF-8" standalone="no"?>
<!-- This is a Stata 14.2 generated SVG file (http://www.stata.com) -->

<svg version="1.1" width="5.50in" height="4.00in" viewBox="0 0 3960 2880" xmlns="http://www.w3.org/2000/svg">
	<desc>Stata Graph - Graph</desc>
	<line x1="390.80" y1="-2042.56" x2="3859.02" y2="-2042.56" style="stroke:#FF0000;stroke-width:8.64"/>
	<path d="M565.54 2404.29 L565.54 2404.29 L676.91 2404.29 L788.29 2404.29 L899.66 2404.29 L1011.04 2404.29 L1122.41 2404.54 L1233.79 2408.62 L1345.29 2425.82 L1456.66 2421.24 L1568.04 2302.07 L1679.41 2046.27 L1790.79 1748.15 L1902.16 1479.48 L2013.54 1240.76 L2124.91 1055.62 L2236.29 951.54 L2347.66 906.25 L2459.04 891.03 L2570.53 890.16 L2681.91 895.61 L2793.28 903.03 L2904.66 910.46 L3016.03 916.89 L3127.41 922.09 L3238.78 926.30 L3350.16 929.39 L3461.53 931.74 L3572.91 933.48 L3684.28 934.84 L3795.66 935.70 L3795.66 164.22 L3684.28 166.08 L3572.91 168.80 L3461.53 172.76 L3350.16 178.45 L3238.78 186.74 L3127.41 198.62 L3016.03 215.70 L2904.66 239.96 L2793.28 274.11 L2681.91 321.88 L2570.53 387.72 L2459.04 476.82 L2347.66 593.65 L2236.29 739.31 L2124.91 904.39 L2013.54 1084.08 L1902.16 1312.04 L1790.79 1589.99 L1679.41 1852.22 L1568.04 2067.43 L1456.66 2242.17 L1345.29 2355.78 L1233.79 2397.85 L1122.41 2404.04 L1011.04 2404.29 L899.66 2404.29 L788.29 2404.29 L676.91 2404.29 L565.54 2404.29 L565.54 2404.29 Z" stroke-linecap="round" style="fill:#EBEBFF;stroke:#E6E6FF;stroke-width:3.00"/>
	<path d="M565.54 2404.29 L565.54 2404.29 L676.91 2404.29 L788.29 2404.29 L899.66 2404.29 L1011.04 2404.29 L1122.41 2404.41 L1233.79 2405.53 L1345.29 2405.65 L1456.66 2369.52 L1568.04 2234.38 L1679.41 1990.33 L1790.79 1702.48 L1902.16 1431.21 L2013.54 1195.59 L2124.91 1011.94 L2236.29 890.29 L2347.66 816.03 L2459.04 771.48 L2570.53 745.25 L2681.91 730.02 L2793.28 721.49 L2904.66 716.91 L3016.03 714.43 L3127.41 713.32 L3238.78 712.82 L3350.16 712.70 L3461.53 712.70 L3572.91 712.82 L3684.28 712.95 L3795.66 713.07 L3795.66 386.85 L3684.28 387.97 L3572.91 389.45 L3461.53 391.80 L3350.16 395.15 L3238.78 400.22 L3127.41 407.40 L3016.03 418.04 L2904.66 433.39 L2793.28 455.66 L2681.91 487.47 L2570.53 532.76 L2459.04 596.37 L2347.66 683.86 L2236.29 800.56 L2124.91 947.95 L2013.54 1129.38 L1902.16 1360.43 L1790.79 1635.65 L1679.41 1908.28 L1568.04 2135.13 L1456.66 2293.90 L1345.29 2375.95 L1233.79 2400.95 L1122.41 2404.17 L1011.04 2404.29 L899.66 2404.29 L788.29 2404.29 L676.91 2404.29 L565.54 2404.29 L565.54 2404.29 Z" stroke-linecap="round" style="fill:#D6D6FF;stroke:#CCCCFF;stroke-width:3.00"/>
	<path d="M565.54 2404.29 L565.54 2404.29 L676.91 2404.29 L788.29 2404.29 L899.66 2404.29 L1011.04 2404.29 L1122.41 2404.41 L1233.79 2405.03 L1345.29 2402.31 L1456.66 2361.22 L1568.04 2223.36 L1679.41 1981.30 L1790.79 1695.06 L1902.16 1423.29 L2013.54 1188.16 L2124.91 1004.88 L2236.29 880.39 L2347.66 801.43 L2459.04 752.18 L2570.53 721.73 L2681.91 703.29 L2793.28 692.16 L2904.66 685.60 L3016.03 681.76 L3127.41 679.53 L3238.78 678.29 L3350.16 677.68 L3461.53 677.30 L3572.91 677.06 L3684.28 677.06 L3795.66 677.06 L3795.66 422.87 L3684.28 423.86 L3572.91 425.22 L3461.53 427.20 L3350.16 430.29 L3238.78 434.75 L3127.41 441.18 L3016.03 450.84 L2904.66 464.70 L2793.28 484.99 L2681.91 514.32 L2570.53 556.27 L2459.04 615.68 L2347.66 698.47 L2236.29 810.46 L2124.91 955.13 L2013.54 1136.68 L1902.16 1368.22 L1790.79 1642.96 L1679.41 1917.32 L1568.04 2146.14 L1456.66 2302.19 L1345.29 2379.29 L1233.79 2401.44 L1122.41 2404.29 L1011.04 2404.29 L899.66 2404.29 L788.29 2404.29 L676.91 2404.29 L565.54 2404.29 L565.54 2404.29 Z" stroke-linecap="round" style="fill:#C2C2FF;stroke:#B3B3FF;stroke-width:3.00"/>
	<path d="M565.54 2404.29 L565.54 2404.29 L676.91 2404.29 L788.29 2404.29 L899.66 2404.29 L1011.04 2404.29 L1122.41 2404.41 L1233.79 2404.66 L1345.29 2400.08 L1456.66 2355.53 L1568.04 2216.06 L1679.41 1975.11 L1790.79 1690.11 L1902.16 1418.10 L2013.54 1183.33 L2124.91 1000.18 L2236.29 873.70 L2347.66 791.65 L2459.04 739.06 L2570.53 705.89 L2681.91 685.23 L2793.28 672.35 L2904.66 664.43 L3016.03 659.61 L3127.41 656.76 L3238.78 655.03 L3350.16 653.92 L3461.53 653.42 L3572.91 653.05 L3684.28 652.80 L3795.66 652.68 L3795.66 447.12 L3684.28 447.99 L3572.91 449.23 L3461.53 451.21 L3350.16 453.93 L3238.78 458.01 L3127.41 464.08 L3016.03 472.86 L2904.66 485.86 L2793.28 504.79 L2681.91 532.39 L2570.53 572.11 L2459.04 628.79 L2347.66 708.37 L2236.29 817.15 L2124.91 959.83 L2013.54 1141.51 L1902.16 1373.42 L1790.79 1648.03 L1679.41 1923.51 L1568.04 2153.56 L1456.66 2307.89 L1345.29 2381.40 L1233.79 2401.82 L1122.41 2404.29 L1011.04 2404.29 L899.66 2404.29 L788.29 2404.29 L676.91 2404.29 L565.54 2404.29 L565.54 2404.29 Z" stroke-linecap="round" style="fill:#ADADFF;stroke:#9999FF;stroke-width:3.00"/>
	<path d="M565.54 2404.29 L565.54 2404.29 L676.91 2404.29 L788.29 2404.29 L899.66 2404.29 L1011.04 2404.29 L1122.41 2404.29 L1233.79 2404.41 L1345.29 2398.35 L1456.66 2351.08 L1568.04 2210.12 L1679.41 1970.29 L1790.79 1686.15 L1902.16 1413.89 L2013.54 1179.37 L2124.91 996.34 L2236.29 868.38 L2347.66 783.73 L2459.04 728.66 L2570.53 693.39 L2681.91 670.87 L2793.28 656.64 L2904.66 647.73 L3016.03 642.16 L3127.41 638.69 L3238.78 636.47 L3350.16 635.23 L3461.53 634.36 L3572.91 633.87 L3684.28 633.62 L3795.66 633.37 L3795.66 466.43 L3684.28 467.29 L3572.91 468.41 L3461.53 470.14 L3350.16 472.74 L3238.78 476.58 L3127.41 482.15 L3016.03 490.44 L2904.66 502.69 L2793.28 520.51 L2681.91 546.74 L2570.53 584.61 L2459.04 639.19 L2347.66 716.16 L2236.29 822.47 L2124.91 963.67 L2013.54 1145.47 L1902.16 1377.63 L1790.79 1651.99 L1679.41 1928.33 L1568.04 2159.38 L1456.66 2312.34 L1345.29 2383.25 L1233.79 2402.06 L1122.41 2404.29 L1011.04 2404.29 L899.66 2404.29 L788.29 2404.29 L676.91 2404.29 L565.54 2404.29 L565.54 2404.29 Z" stroke-linecap="round" style="fill:#9999FF;stroke:#8080FF;stroke-width:3.00"/>
	<path d="M565.54 2404.29 L565.54 2404.29 L676.91 2404.29 L788.29 2404.29 L899.66 2404.29 L1011.04 2404.29 L1122.41 2404.29 L1233.79 2404.17 L1345.29 2396.86 L1456.66 2347.24 L1568.04 2205.05 L1679.41 1966.08 L1790.79 1682.81 L1902.16 1410.30 L2013.54 1176.03 L2124.91 993.12 L2236.29 863.80 L2347.66 777.05 L2459.04 719.88 L2570.53 682.50 L2681.91 658.49 L2793.28 643.15 L2904.66 633.25 L3016.03 627.06 L3127.41 623.10 L3238.78 620.63 L3350.16 619.02 L3461.53 618.03 L3572.91 617.41 L3684.28 617.04 L3795.66 616.79 L3795.66 483.01 L3684.28 483.75 L3572.91 484.87 L3461.53 486.48 L3350.16 488.83 L3238.78 492.42 L3127.41 497.74 L3016.03 505.53 L2904.66 517.04 L2793.28 534.00 L2681.91 559.00 L2570.53 595.50 L2459.04 647.98 L2347.66 722.85 L2236.29 827.05 L2124.91 966.89 L2013.54 1148.81 L1902.16 1381.22 L1790.79 1655.33 L1679.41 1932.42 L1568.04 2164.46 L1456.66 2316.18 L1345.29 2384.74 L1233.79 2402.31 L1122.41 2404.29 L1011.04 2404.29 L899.66 2404.29 L788.29 2404.29 L676.91 2404.29 L565.54 2404.29 L565.54 2404.29 Z" stroke-linecap="round" style="fill:#8585FF;stroke:#6666FF;stroke-width:3.00"/>
	<path d="M565.54 2404.29 L565.54 2404.29 L676.91 2404.29 L788.29 2404.29 L899.66 2404.29 L1011.04 2404.29 L1122.41 2404.29 L1233.79 2404.04 L1345.29 2395.50 L1456.66 2343.77 L1568.04 2200.59 L1679.41 1962.37 L1790.79 1679.71 L1902.16 1407.08 L2013.54 1172.94 L2124.91 990.15 L2236.29 859.72 L2347.66 770.99 L2459.04 711.83 L2570.53 672.85 L2681.91 647.48 L2793.28 631.02 L2904.66 620.38 L3016.03 613.57 L3127.41 609.12 L3238.78 606.39 L3350.16 604.54 L3461.53 603.42 L3572.91 602.68 L3684.28 602.19 L3795.66 601.94 L3795.66 497.99 L3684.28 498.60 L3572.91 499.59 L3461.53 501.08 L3350.16 503.31 L3238.78 506.65 L3127.41 511.60 L3016.03 519.02 L2904.66 529.91 L2793.28 546.25 L2681.91 570.13 L2570.53 605.16 L2459.04 656.02 L2347.66 728.91 L2236.29 831.13 L2124.91 969.74 L2013.54 1151.90 L1902.16 1384.43 L1790.79 1658.43 L1679.41 1936.25 L1568.04 2168.91 L1456.66 2319.64 L1345.29 2386.10 L1233.79 2402.56 L1122.41 2404.29 L1011.04 2404.29 L899.66 2404.29 L788.29 2404.29 L676.91 2404.29 L565.54 2404.29 L565.54 2404.29 Z" stroke-linecap="round" style="fill:#7171FF;stroke:#4D4DFF;stroke-width:3.00"/>
	<path d="M565.54 2404.29 L565.54 2404.29 L676.91 2404.29 L788.29 2404.29 L899.66 2404.29 L1011.04 2404.29 L1122.41 2404.29 L1233.79 2403.80 L1345.29 2394.27 L1456.66 2340.56 L1568.04 2196.38 L1679.41 1958.90 L1790.79 1676.86 L1902.16 1404.11 L2013.54 1170.22 L2124.91 987.43 L2236.29 856.01 L2347.66 765.42 L2459.04 704.41 L2570.53 663.82 L2681.91 637.21 L2793.28 619.76 L2904.66 608.37 L3016.03 600.95 L3127.41 596.25 L3238.78 593.15 L3350.16 591.17 L3461.53 589.81 L3572.91 589.07 L3684.28 588.45 L3795.66 588.08 L3795.66 511.72 L3684.28 512.34 L3572.91 513.33 L3461.53 514.69 L3350.16 516.80 L3238.78 519.89 L3127.41 524.59 L3016.03 531.52 L2904.66 541.92 L2793.28 557.39 L2681.91 580.41 L2570.53 614.07 L2459.04 663.44 L2347.66 734.48 L2236.29 834.97 L2124.91 972.46 L2013.54 1154.62 L1902.16 1387.53 L1790.79 1661.27 L1679.41 1939.72 L1568.04 2173.12 L1456.66 2322.86 L1345.29 2387.34 L1233.79 2402.68 L1122.41 2404.29 L1011.04 2404.29 L899.66 2404.29 L788.29 2404.29 L676.91 2404.29 L565.54 2404.29 L565.54 2404.29 Z" stroke-linecap="round" style="fill:#5C5CFF;stroke:#3333FF;stroke-width:3.00"/>
	<path d="M565.54 2404.29 L565.54 2404.29 L676.91 2404.29 L788.29 2404.29 L899.66 2404.29 L1011.04 2404.29 L1122.41 2404.29 L1233.79 2403.67 L1345.29 2393.03 L1456.66 2337.59 L1568.04 2192.42 L1679.41 1955.56 L1790.79 1674.14 L1902.16 1401.27 L2013.54 1167.49 L2124.91 984.96 L2236.29 852.42 L2347.66 760.10 L2459.04 697.35 L2570.53 655.40 L2681.91 627.43 L2793.28 609.12 L2904.66 596.99 L3016.03 589.07 L3127.41 583.99 L3238.78 580.53 L3350.16 578.43 L3461.53 576.94 L3572.91 576.07 L3684.28 575.46 L3795.66 575.08 L3795.66 524.84 L3684.28 525.34 L3572.91 526.20 L3461.53 527.56 L3350.16 529.54 L3238.78 532.39 L3127.41 536.84 L3016.03 543.40 L2904.66 553.30 L2793.28 568.15 L2681.91 590.06 L2570.53 622.61 L2459.04 670.50 L2347.66 739.80 L2236.29 838.56 L2124.91 975.06 L2013.54 1157.35 L1902.16 1390.37 L1790.79 1663.87 L1679.41 1942.94 L1568.04 2177.08 L1456.66 2325.83 L1345.29 2388.45 L1233.79 2402.93 L1122.41 2404.29 L1011.04 2404.29 L899.66 2404.29 L788.29 2404.29 L676.91 2404.29 L565.54 2404.29 L565.54 2404.29 Z" stroke-linecap="round" style="fill:#4747FF;stroke:#1919FF;stroke-width:3.00"/>
	<path d="M565.54 2404.29 L565.54 2404.29 L676.91 2404.29 L788.29 2404.29 L899.66 2404.29 L1011.04 2404.29 L1122.41 2404.29 L1233.79 2403.42 L1345.29 2391.91 L1456.66 2334.62 L1568.04 2188.59 L1679.41 1952.46 L1790.79 1671.67 L1902.16 1398.42 L2013.54 1164.90 L2124.91 982.48 L2236.29 848.83 L2347.66 755.02 L2459.04 690.67 L2570.53 647.11 L2681.91 618.03 L2793.28 598.72 L2904.66 585.97 L3016.03 577.56 L3127.41 572.11 L3238.78 568.40 L3350.16 566.05 L3461.53 564.57 L3572.91 563.45 L3684.28 562.83 L3795.66 562.34 L3795.66 537.46 L3684.28 537.96 L3572.91 538.82 L3461.53 539.94 L3350.16 541.79 L3238.78 544.52 L3127.41 548.72 L3016.03 554.91 L2904.66 564.32 L2793.28 578.43 L2681.91 599.46 L2570.53 630.90 L2459.04 677.18 L2347.66 744.87 L2236.29 842.02 L2124.91 977.53 L2013.54 1159.94 L1902.16 1393.10 L1790.79 1666.47 L1679.41 1946.15 L1568.04 2180.91 L1456.66 2328.80 L1345.29 2389.69 L1233.79 2403.05 L1122.41 2404.29 L1011.04 2404.29 L899.66 2404.29 L788.29 2404.29 L676.91 2404.29 L565.54 2404.29 L565.54 2404.29 Z" stroke-linecap="round" style="fill:#3333FF;stroke:#0000FF;stroke-width:3.00"/>
	<circle cx="565.41" cy="2398.23" r="22.03" style="fill:#000000;stroke:#000000;stroke-width:8.64"/>
	<circle cx="676.79" cy="2398.23" r="22.03" style="fill:#000000;stroke:#000000;stroke-width:8.64"/>
	<circle cx="788.29" cy="2398.23" r="22.03" style="fill:#000000;stroke:#000000;stroke-width:8.64"/>
	<circle cx="899.66" cy="2398.23" r="22.03" style="fill:#000000;stroke:#000000;stroke-width:8.64"/>
	<circle cx="1011.04" cy="2392.16" r="22.03" style="fill:#000000;stroke:#000000;stroke-width:8.64"/>
	<circle cx="1122.41" cy="2373.72" r="22.03" style="fill:#000000;stroke:#000000;stroke-width:8.64"/>
	<circle cx="1233.79" cy="2343.16" r="22.03" style="fill:#000000;stroke:#000000;stroke-width:8.64"/>
	<circle cx="1345.16" cy="2324.84" r="22.03" style="fill:#000000;stroke:#000000;stroke-width:8.64"/>
	<circle cx="1456.54" cy="2306.40" r="22.03" style="fill:#000000;stroke:#000000;stroke-width:8.64"/>
	<circle cx="1567.91" cy="2239.08" r="22.03" style="fill:#000000;stroke:#000000;stroke-width:8.64"/>
	<circle cx="1679.29" cy="1920.78" r="22.03" style="fill:#000000;stroke:#000000;stroke-width:8.64"/>
	<circle cx="1790.66" cy="1700.50" r="22.03" style="fill:#000000;stroke:#000000;stroke-width:8.64"/>
	<circle cx="1902.04" cy="1357.70" r="22.03" style="fill:#000000;stroke:#000000;stroke-width:8.64"/>
	<circle cx="2013.54" cy="1149.55" r="22.03" style="fill:#000000;stroke:#000000;stroke-width:8.64"/>
	<circle cx="2124.91" cy="1027.16" r="22.03" style="fill:#000000;stroke:#000000;stroke-width:8.64"/>
	<circle cx="2236.29" cy="825.19" r="22.03" style="fill:#000000;stroke:#000000;stroke-width:8.64"/>
	<line x1="390.80" y1="2489.19" x2="390.80" y2="100.86" style="stroke:#000000;stroke-width:5.76"/>
	<line x1="390.80" y1="2404.29" x2="350.83" y2="2404.29" style="stroke:#000000;stroke-width:5.76"/>
	<text x="300.72" y="2404.29" style="font-family:'Helvetica';font-size:99.99px;fill:#000000" transform="rotate(-90 300.72,2404.29)" text-anchor="middle">0</text>
	<line x1="390.80" y1="1959.64" x2="350.83" y2="1959.64" style="stroke:#000000;stroke-width:5.76"/>
	<text x="300.72" y="1959.64" style="font-family:'Helvetica';font-size:99.99px;fill:#000000" transform="rotate(-90 300.72,1959.64)" text-anchor="middle">1</text>
	<line x1="390.80" y1="1514.99" x2="350.83" y2="1514.99" style="stroke:#000000;stroke-width:5.76"/>
	<text x="300.72" y="1514.99" style="font-family:'Helvetica';font-size:99.99px;fill:#000000" transform="rotate(-90 300.72,1514.99)" text-anchor="middle">2</text>
	<line x1="390.80" y1="1070.22" x2="350.83" y2="1070.22" style="stroke:#000000;stroke-width:5.76"/>
	<text x="300.72" y="1070.22" style="font-family:'Helvetica';font-size:99.99px;fill:#000000" transform="rotate(-90 300.72,1070.22)" text-anchor="middle">3</text>
	<line x1="390.80" y1="625.58" x2="350.83" y2="625.58" style="stroke:#000000;stroke-width:5.76"/>
	<text x="300.72" y="625.58" style="font-family:'Helvetica';font-size:99.99px;fill:#000000" transform="rotate(-90 300.72,625.58)" text-anchor="middle">4</text>
	<line x1="390.80" y1="180.93" x2="350.83" y2="180.93" style="stroke:#000000;stroke-width:5.76"/>
	<text x="300.72" y="180.93" style="font-family:'Helvetica';font-size:99.99px;fill:#000000" transform="rotate(-90 300.72,180.93)" text-anchor="middle">5</text>
	<text x="190.71" y="1294.96" style="font-family:'Helvetica';font-size:99.99px;fill:#000000" transform="rotate(-90 190.71,1294.96)" text-anchor="middle">Confirmed cases per 100 beds</text>
	<line x1="390.80" y1="2489.19" x2="3859.02" y2="2489.19" style="stroke:#000000;stroke-width:5.76"/>
	<line x1="454.16" y1="2489.19" x2="454.16" y2="2529.16" style="stroke:#000000;stroke-width:5.76"/>
	<text x="454.16" y="2619.14" style="font-family:'Helvetica';font-size:99.99px;fill:#000000" text-anchor="middle">0</text>
	<line x1="1568.04" y1="2489.19" x2="1568.04" y2="2529.16" style="stroke:#000000;stroke-width:5.76"/>
	<text x="1568.04" y="2619.14" style="font-family:'Helvetica';font-size:99.99px;fill:#000000" text-anchor="middle">10</text>
	<line x1="2681.91" y1="2489.19" x2="2681.91" y2="2529.16" style="stroke:#000000;stroke-width:5.76"/>
	<text x="2681.91" y="2619.14" style="font-family:'Helvetica';font-size:99.99px;fill:#000000" text-anchor="middle">20</text>
	<line x1="3795.66" y1="2489.19" x2="3795.66" y2="2529.16" style="stroke:#000000;stroke-width:5.76"/>
	<text x="3795.66" y="2619.14" style="font-family:'Helvetica';font-size:99.99px;fill:#000000" text-anchor="middle">30</text>
	<text x="2124.91" y="2729.16" style="font-family:'Helvetica';font-size:99.99px;fill:#000000" text-anchor="middle">Days since 0.01 confirmed cases per 100 beds</text>
</svg>
