<?xml version="1.0" encoding="UTF-8" standalone="no"?>
<!-- This is a Stata 14.2 generated SVG file (http://www.stata.com) -->

<svg version="1.1" width="5.50in" height="4.00in" viewBox="0 0 3960 2880" xmlns="http://www.w3.org/2000/svg">
	<desc>Stata Graph - Graph</desc>
	<line x1="390.80" y1="-528.68" x2="3859.02" y2="-528.68" style="stroke:#FF0000;stroke-width:8.64"/>
	<path d="M565.54 2364.94 L565.54 2364.94 L676.91 2365.68 L788.29 2373.97 L899.66 2402.19 L1011.04 2425.82 L1122.41 2375.58 L1233.79 2221.88 L1345.29 2017.19 L1456.66 1822.28 L1568.04 1643.70 L1679.41 1484.55 L1790.79 1370.70 L1902.16 1317.73 L2013.54 1306.72 L2124.91 1316.00 L2236.29 1333.32 L2347.66 1352.51 L2459.04 1370.57 L2570.53 1386.29 L2681.91 1399.16 L2793.28 1409.56 L2904.66 1417.72 L3016.03 1424.04 L3127.41 1428.74 L3238.78 1432.45 L3350.16 1435.05 L3461.53 1437.15 L3461.53 442.67 L3350.16 445.89 L3238.78 450.34 L3127.41 456.53 L3016.03 465.07 L2904.66 476.58 L2793.28 492.54 L2681.91 514.07 L2570.53 543.03 L2459.04 581.77 L2347.66 633.00 L2236.29 699.46 L2124.91 783.86 L2013.54 887.32 L1902.16 1006.74 L1790.79 1130.99 L1679.41 1250.90 L1568.04 1387.65 L1456.66 1561.40 L1345.29 1751.61 L1233.79 1917.94 L1122.41 2063.22 L1011.04 2199.48 L899.66 2304.05 L788.29 2353.18 L676.91 2364.07 L565.54 2364.94 L565.54 2364.94 Z" stroke-linecap="round" style="fill:#EBEBFF;stroke:#E6E6FF;stroke-width:3.00"/>
	<path d="M565.54 2364.94 L565.54 2364.94 L676.91 2365.18 L788.29 2368.03 L899.66 2373.85 L1011.04 2360.48 L1122.41 2285.49 L1233.79 2134.14 L1345.29 1940.46 L1456.66 1747.03 L1568.04 1569.82 L1679.41 1417.11 L1790.79 1301.52 L1902.16 1228.01 L2013.54 1185.69 L2124.91 1162.42 L2236.29 1150.42 L2347.66 1144.85 L2459.04 1142.87 L2570.53 1142.87 L2681.91 1143.73 L2793.28 1144.85 L2904.66 1146.08 L3016.03 1147.20 L3127.41 1148.19 L3238.78 1148.93 L3350.16 1149.67 L3461.53 1150.17 L3461.53 729.65 L3350.16 731.39 L3238.78 733.86 L3127.41 737.20 L3016.03 741.78 L2904.66 748.22 L2793.28 757.13 L2681.91 769.50 L2570.53 786.46 L2459.04 809.47 L2347.66 840.66 L2236.29 882.37 L2124.91 937.44 L2013.54 1008.35 L1902.16 1096.46 L1790.79 1200.17 L1679.41 1318.35 L1568.04 1461.53 L1456.66 1636.77 L1345.29 1828.22 L1233.79 2005.68 L1122.41 2153.44 L1011.04 2264.82 L899.66 2332.39 L788.29 2359.12 L676.91 2364.57 L565.54 2364.94 L565.54 2364.94 Z" stroke-linecap="round" style="fill:#D6D6FF;stroke:#CCCCFF;stroke-width:3.00"/>
	<path d="M565.54 2364.94 L565.54 2364.94 L676.91 2365.18 L788.29 2367.04 L899.66 2369.27 L1011.04 2349.96 L1122.41 2270.88 L1233.79 2120.03 L1345.29 1928.09 L1456.66 1734.78 L1568.04 1557.81 L1679.41 1406.22 L1790.79 1290.26 L1902.16 1213.41 L2013.54 1166.13 L2124.91 1137.55 L2236.29 1120.84 L2347.66 1111.31 L2459.04 1106.11 L2570.53 1103.51 L2681.91 1102.40 L2793.28 1102.03 L2904.66 1102.15 L3016.03 1102.40 L3127.41 1102.77 L3238.78 1103.14 L3350.16 1103.39 L3461.53 1103.64 L3461.53 776.18 L3350.16 777.55 L3238.78 779.65 L3127.41 782.50 L3016.03 786.58 L2904.66 792.15 L2793.28 799.94 L2681.91 810.84 L2570.53 825.81 L2459.04 846.23 L2347.66 874.20 L2236.29 912.07 L2124.91 962.31 L2013.54 1027.90 L1902.16 1111.06 L1790.79 1211.30 L1679.41 1329.24 L1568.04 1473.41 L1456.66 1648.90 L1345.29 1840.59 L1233.79 2019.91 L1122.41 2168.04 L1011.04 2275.46 L899.66 2336.97 L788.29 2360.11 L676.91 2364.69 L565.54 2364.94 L565.54 2364.94 Z" stroke-linecap="round" style="fill:#C2C2FF;stroke:#B3B3FF;stroke-width:3.00"/>
	<path d="M565.54 2364.94 L565.54 2364.94 L676.91 2365.06 L788.29 2366.30 L899.66 2366.17 L1011.04 2342.78 L1122.41 2261.11 L1233.79 2110.37 L1345.29 1919.79 L1456.66 1726.61 L1568.04 1549.77 L1679.41 1398.79 L1790.79 1282.71 L1902.16 1203.63 L2013.54 1152.89 L2124.91 1120.84 L2236.29 1100.79 L2347.66 1088.54 L2459.04 1081.24 L2570.53 1076.91 L2681.91 1074.55 L2793.28 1073.19 L2904.66 1072.57 L3016.03 1072.20 L3127.41 1072.20 L3238.78 1072.20 L3350.16 1072.33 L3461.53 1072.33 L3461.53 807.49 L3350.16 808.73 L3238.78 810.59 L3127.41 813.19 L3016.03 816.78 L2904.66 821.85 L2793.28 828.90 L2681.91 838.68 L2570.53 852.29 L2459.04 871.10 L2347.66 896.97 L2236.29 931.99 L2124.91 979.02 L2013.54 1041.14 L1902.16 1120.84 L1790.79 1218.98 L1679.41 1336.54 L1568.04 1481.58 L1456.66 1657.06 L1345.29 1849.01 L1233.79 2029.44 L1122.41 2177.82 L1011.04 2282.52 L899.66 2340.06 L788.29 2360.85 L676.91 2364.69 L565.54 2364.94 L565.54 2364.94 Z" stroke-linecap="round" style="fill:#ADADFF;stroke:#9999FF;stroke-width:3.00"/>
	<path d="M565.54 2364.94 L565.54 2364.94 L676.91 2365.06 L788.29 2365.80 L899.66 2363.70 L1011.04 2337.22 L1122.41 2253.19 L1233.79 2102.83 L1345.29 1913.11 L1456.66 1720.06 L1568.04 1543.33 L1679.41 1392.97 L1790.79 1276.77 L1902.16 1195.83 L2013.54 1142.37 L2124.91 1107.47 L2236.29 1084.95 L2347.66 1070.59 L2459.04 1061.56 L2570.53 1055.87 L2681.91 1052.40 L2793.28 1050.18 L2904.66 1048.94 L3016.03 1048.20 L3127.41 1047.82 L3238.78 1047.58 L3350.16 1047.45 L3461.53 1047.45 L3461.53 832.37 L3350.16 833.48 L3238.78 835.21 L3127.41 837.57 L3016.03 840.78 L2904.66 845.36 L2793.28 851.80 L2681.91 860.83 L2570.53 873.45 L2459.04 890.90 L2347.66 914.91 L2236.29 947.83 L2124.91 992.38 L2013.54 1051.66 L1902.16 1128.64 L1790.79 1224.92 L1679.41 1342.48 L1568.04 1487.89 L1456.66 1663.62 L1345.29 1855.69 L1233.79 2037.11 L1122.41 2185.62 L1011.04 2288.21 L899.66 2342.54 L788.29 2361.35 L676.91 2364.69 L565.54 2364.94 L565.54 2364.94 Z" stroke-linecap="round" style="fill:#9999FF;stroke:#8080FF;stroke-width:3.00"/>
	<path d="M565.54 2364.94 L565.54 2364.94 L676.91 2365.06 L788.29 2365.43 L899.66 2361.60 L1011.04 2332.27 L1122.41 2246.50 L1233.79 2096.27 L1345.29 1907.42 L1456.66 1714.49 L1568.04 1537.89 L1679.41 1388.02 L1790.79 1271.57 L1902.16 1189.15 L2013.54 1133.34 L2124.91 1096.09 L2236.29 1071.34 L2347.66 1055.13 L2459.04 1044.61 L2570.53 1037.68 L2681.91 1033.34 L2793.28 1030.50 L2904.66 1028.77 L3016.03 1027.65 L3127.41 1026.91 L3238.78 1026.54 L3350.16 1026.29 L3461.53 1026.04 L3461.53 853.65 L3350.16 854.77 L3238.78 856.25 L3127.41 858.36 L3016.03 861.33 L2904.66 865.66 L2793.28 871.60 L2681.91 879.89 L2570.53 891.52 L2459.04 907.86 L2347.66 930.38 L2236.29 961.44 L2124.91 1003.77 L2013.54 1060.69 L1902.16 1135.32 L1790.79 1230.11 L1679.41 1347.43 L1568.04 1493.46 L1456.66 1669.19 L1345.29 1861.38 L1233.79 2043.55 L1122.41 2192.42 L1011.04 2293.04 L899.66 2344.64 L788.29 2361.72 L676.91 2364.81 L565.54 2364.94 L565.54 2364.94 Z" stroke-linecap="round" style="fill:#8585FF;stroke:#6666FF;stroke-width:3.00"/>
	<path d="M565.54 2364.94 L565.54 2364.94 L676.91 2365.06 L788.29 2364.94 L899.66 2359.74 L1011.04 2327.93 L1122.41 2240.44 L1233.79 2090.45 L1345.29 1902.22 L1456.66 1709.41 L1568.04 1532.94 L1679.41 1383.44 L1790.79 1266.99 L1902.16 1183.21 L2013.54 1125.29 L2124.91 1085.82 L2236.29 1059.09 L2347.66 1041.27 L2459.04 1029.38 L2570.53 1021.46 L2681.91 1016.27 L2793.28 1012.80 L2904.66 1010.57 L3016.03 1009.09 L3127.41 1008.22 L3238.78 1007.60 L3350.16 1007.23 L3461.53 1006.86 L3461.53 872.84 L3350.16 873.83 L3238.78 875.19 L3127.41 877.17 L3016.03 879.89 L2904.66 883.73 L2793.28 889.30 L2681.91 896.97 L2570.53 907.86 L2459.04 923.08 L2347.66 944.24 L2236.29 973.70 L2124.91 1014.04 L2013.54 1068.74 L1902.16 1141.26 L1790.79 1234.69 L1679.41 1352.01 L1568.04 1498.41 L1456.66 1674.27 L1345.29 1866.46 L1233.79 2049.49 L1122.41 2198.36 L1011.04 2297.49 L899.66 2346.50 L788.29 2362.21 L676.91 2364.81 L565.54 2364.94 L565.54 2364.94 Z" stroke-linecap="round" style="fill:#7171FF;stroke:#4D4DFF;stroke-width:3.00"/>
	<path d="M565.54 2364.94 L565.54 2364.94 L676.91 2364.94 L788.29 2364.57 L899.66 2358.01 L1011.04 2323.85 L1122.41 2234.87 L1233.79 2085.01 L1345.29 1897.52 L1456.66 1704.83 L1568.04 1528.36 L1679.41 1379.24 L1790.79 1262.66 L1902.16 1177.64 L2013.54 1117.74 L2124.91 1076.29 L2236.29 1047.82 L2347.66 1028.39 L2459.04 1015.28 L2570.53 1006.37 L2681.91 1000.43 L2793.28 996.47 L2904.66 993.74 L3016.03 992.01 L3127.41 990.77 L3238.78 990.03 L3350.16 989.54 L3461.53 989.16 L3461.53 890.66 L3350.16 891.52 L3238.78 892.76 L3127.41 894.49 L3016.03 896.97 L2904.66 900.56 L2793.28 905.63 L2681.91 912.81 L2570.53 922.83 L2459.04 937.19 L2347.66 957.11 L2236.29 984.96 L2124.91 1023.57 L2013.54 1076.29 L1902.16 1146.83 L1790.79 1239.02 L1679.41 1356.09 L1568.04 1502.99 L1456.66 1678.97 L1345.29 1871.16 L1233.79 2054.93 L1122.41 2203.93 L1011.04 2301.45 L899.66 2348.23 L788.29 2362.59 L676.91 2364.81 L565.54 2364.94 L565.54 2364.94 Z" stroke-linecap="round" style="fill:#5C5CFF;stroke:#3333FF;stroke-width:3.00"/>
	<path d="M565.54 2364.94 L565.54 2364.94 L676.91 2364.94 L788.29 2364.32 L899.66 2356.27 L1011.04 2320.01 L1122.41 2229.67 L1233.79 2079.81 L1345.29 1893.06 L1456.66 1700.38 L1568.04 1524.03 L1679.41 1375.28 L1790.79 1258.70 L1902.16 1172.32 L2013.54 1110.69 L2124.91 1067.25 L2236.29 1037.06 L2347.66 1016.14 L2459.04 1001.91 L2570.53 992.13 L2681.91 985.45 L2793.28 980.87 L2904.66 977.78 L3016.03 975.80 L3127.41 974.31 L3238.78 973.32 L3350.16 972.71 L3461.53 972.33 L3461.53 907.49 L3350.16 908.35 L3238.78 909.47 L3127.41 910.95 L3016.03 913.30 L2904.66 916.52 L2793.28 921.22 L2681.91 927.78 L2570.53 937.19 L2459.04 950.55 L2347.66 969.36 L2236.29 995.72 L2124.91 1032.60 L2013.54 1083.34 L1902.16 1152.15 L1790.79 1242.98 L1679.41 1360.06 L1568.04 1507.32 L1456.66 1683.42 L1345.29 1875.74 L1233.79 2060.01 L1122.41 2209.25 L1011.04 2305.29 L899.66 2349.96 L788.29 2362.96 L676.91 2364.81 L565.54 2364.94 L565.54 2364.94 Z" stroke-linecap="round" style="fill:#4747FF;stroke:#1919FF;stroke-width:3.00"/>
	<path d="M565.54 2364.94 L565.54 2364.94 L676.91 2364.94 L788.29 2363.95 L899.66 2354.66 L1011.04 2316.30 L1122.41 2224.48 L1233.79 2074.86 L1345.29 1888.61 L1456.66 1696.05 L1568.04 1519.82 L1679.41 1371.44 L1790.79 1254.74 L1902.16 1167.25 L2013.54 1103.76 L2124.91 1058.47 L2236.29 1026.66 L2347.66 1004.39 L2459.04 988.92 L2570.53 978.27 L2681.91 970.85 L2793.28 965.90 L2904.66 962.43 L3016.03 959.96 L3127.41 958.35 L3238.78 957.24 L3350.16 956.49 L3461.53 956.00 L3461.53 923.82 L3350.16 924.57 L3238.78 925.56 L3127.41 926.92 L3016.03 929.02 L2904.66 931.99 L2793.28 936.20 L2681.91 942.26 L2570.53 951.05 L2459.04 963.42 L2347.66 981.12 L2236.29 1006.12 L2124.91 1041.39 L2013.54 1090.27 L1902.16 1157.22 L1790.79 1246.94 L1679.41 1363.89 L1568.04 1511.53 L1456.66 1687.63 L1345.29 1880.07 L1233.79 2065.08 L1122.41 2214.45 L1011.04 2309.00 L899.66 2351.57 L788.29 2363.20 L676.91 2364.81 L565.54 2364.94 L565.54 2364.94 Z" stroke-linecap="round" style="fill:#3333FF;stroke:#0000FF;stroke-width:3.00"/>
	<circle cx="565.41" cy="2344.76" r="22.03" style="fill:#000000;stroke:#000000;stroke-width:8.64"/>
	<circle cx="676.79" cy="2341.42" r="22.03" style="fill:#000000;stroke:#000000;stroke-width:8.64"/>
	<circle cx="788.29" cy="2324.47" r="22.03" style="fill:#000000;stroke:#000000;stroke-width:8.64"/>
	<circle cx="899.66" cy="2300.83" r="22.03" style="fill:#000000;stroke:#000000;stroke-width:8.64"/>
	<circle cx="1011.04" cy="2263.58" r="22.03" style="fill:#000000;stroke:#000000;stroke-width:8.64"/>
	<circle cx="1122.41" cy="2229.80" r="22.03" style="fill:#000000;stroke:#000000;stroke-width:8.64"/>
	<circle cx="1233.79" cy="2165.57" r="22.03" style="fill:#000000;stroke:#000000;stroke-width:8.64"/>
	<circle cx="1345.16" cy="1841.09" r="22.03" style="fill:#000000;stroke:#000000;stroke-width:8.64"/>
	<circle cx="1456.54" cy="1655.21" r="22.03" style="fill:#000000;stroke:#000000;stroke-width:8.64"/>
	<circle cx="1567.91" cy="1462.52" r="22.03" style="fill:#000000;stroke:#000000;stroke-width:8.64"/>
	<circle cx="1679.29" cy="1445.69" r="22.03" style="fill:#000000;stroke:#000000;stroke-width:8.64"/>
	<circle cx="1790.66" cy="1286.79" r="22.03" style="fill:#000000;stroke:#000000;stroke-width:8.64"/>
	<circle cx="1902.04" cy="1117.87" r="22.03" style="fill:#000000;stroke:#000000;stroke-width:8.64"/>
	<line x1="390.80" y1="2489.19" x2="390.80" y2="100.86" style="stroke:#000000;stroke-width:5.76"/>
	<line x1="390.80" y1="2364.94" x2="350.83" y2="2364.94" style="stroke:#000000;stroke-width:5.76"/>
	<text x="300.72" y="2364.94" style="font-family:'Helvetica';font-size:99.99px;fill:#000000" transform="rotate(-90 300.72,2364.94)" text-anchor="middle">0</text>
	<line x1="390.80" y1="1814.73" x2="350.83" y2="1814.73" style="stroke:#000000;stroke-width:5.76"/>
	<text x="300.72" y="1814.73" style="font-family:'Helvetica';font-size:99.99px;fill:#000000" transform="rotate(-90 300.72,1814.73)" text-anchor="middle">.5</text>
	<line x1="390.80" y1="1264.52" x2="350.83" y2="1264.52" style="stroke:#000000;stroke-width:5.76"/>
	<text x="300.72" y="1264.52" style="font-family:'Helvetica';font-size:99.99px;fill:#000000" transform="rotate(-90 300.72,1264.52)" text-anchor="middle">1</text>
	<line x1="390.80" y1="714.31" x2="350.83" y2="714.31" style="stroke:#000000;stroke-width:5.76"/>
	<text x="300.72" y="714.31" style="font-family:'Helvetica';font-size:99.99px;fill:#000000" transform="rotate(-90 300.72,714.31)" text-anchor="middle">1.5</text>
	<line x1="390.80" y1="164.22" x2="350.83" y2="164.22" style="stroke:#000000;stroke-width:5.76"/>
	<text x="300.72" y="164.22" style="font-family:'Helvetica';font-size:99.99px;fill:#000000" transform="rotate(-90 300.72,164.22)" text-anchor="middle">2</text>
	<text x="190.71" y="1294.96" style="font-family:'Helvetica';font-size:99.99px;fill:#000000" transform="rotate(-90 190.71,1294.96)" text-anchor="middle">Confirmed cases per 100 beds</text>
	<line x1="390.80" y1="2489.19" x2="3859.02" y2="2489.19" style="stroke:#000000;stroke-width:5.76"/>
	<line x1="454.16" y1="2489.19" x2="454.16" y2="2529.16" style="stroke:#000000;stroke-width:5.76"/>
	<text x="454.16" y="2619.14" style="font-family:'Helvetica';font-size:99.99px;fill:#000000" text-anchor="middle">0</text>
	<line x1="1568.04" y1="2489.19" x2="1568.04" y2="2529.16" style="stroke:#000000;stroke-width:5.76"/>
	<text x="1568.04" y="2619.14" style="font-family:'Helvetica';font-size:99.99px;fill:#000000" text-anchor="middle">10</text>
	<line x1="2681.91" y1="2489.19" x2="2681.91" y2="2529.16" style="stroke:#000000;stroke-width:5.76"/>
	<text x="2681.91" y="2619.14" style="font-family:'Helvetica';font-size:99.99px;fill:#000000" text-anchor="middle">20</text>
	<line x1="3795.66" y1="2489.19" x2="3795.66" y2="2529.16" style="stroke:#000000;stroke-width:5.76"/>
	<text x="3795.66" y="2619.14" style="font-family:'Helvetica';font-size:99.99px;fill:#000000" text-anchor="middle">30</text>
	<text x="2124.91" y="2729.16" style="font-family:'Helvetica';font-size:99.99px;fill:#000000" text-anchor="middle">Days since 0.01 confirmed cases per 100 beds</text>
</svg>
