<?xml version="1.0" encoding="UTF-8" standalone="no"?>
<!-- This is a Stata 14.2 generated SVG file (http://www.stata.com) -->

<svg version="1.1" width="5.50in" height="4.00in" viewBox="0 0 3960 2880" xmlns="http://www.w3.org/2000/svg">
	<desc>Stata Graph - Graph</desc>
	<line x1="390.80" y1="1788.86" x2="3859.02" y2="1788.86" style="stroke:#FF0000;stroke-width:8.64"/>
	<path d="M565.54 1813.24 L565.54 1813.24 L676.91 1813.24 L788.29 1813.24 L899.66 1813.24 L1011.04 1813.24 L1122.41 1813.24 L1233.79 1813.24 L1345.29 1813.24 L1456.66 1813.24 L1568.04 1813.12 L1679.41 1812.87 L1790.79 1812.50 L1902.16 1811.88 L2013.54 1811.39 L2124.91 1811.14 L2236.29 1811.39 L2347.66 1812.50 L2459.04 1815.10 L2570.53 1820.54 L2681.91 1830.44 L2793.28 1847.40 L2904.66 1874.87 L3016.03 1918.18 L3127.41 1984.15 L3238.78 2081.91 L3350.16 2223.98 L3461.53 2425.82 L3461.53 164.22 L3350.16 653.92 L3238.78 1009.58 L3127.41 1264.27 L3016.03 1443.96 L2904.66 1568.95 L2793.28 1654.47 L2681.91 1712.01 L2570.53 1750.00 L2459.04 1774.63 L2347.66 1790.22 L2236.29 1799.88 L2124.91 1805.69 L2013.54 1809.16 L1902.16 1811.01 L1790.79 1811.88 L1679.41 1812.25 L1568.04 1812.62 L1456.66 1812.75 L1345.29 1812.99 L1233.79 1813.12 L1122.41 1813.12 L1011.04 1813.12 L899.66 1813.24 L788.29 1813.24 L676.91 1813.24 L565.54 1813.24 L565.54 1813.24 Z" stroke-linecap="round" style="fill:#EBEBFF;stroke:#E6E6FF;stroke-width:3.00"/>
	<path d="M565.54 1813.24 L565.54 1813.24 L676.91 1813.24 L788.29 1813.24 L899.66 1813.24 L1011.04 1813.24 L1122.41 1813.24 L1233.79 1813.24 L1345.29 1813.24 L1456.66 1813.12 L1568.04 1812.99 L1679.41 1812.75 L1790.79 1812.25 L1902.16 1811.63 L2013.54 1810.77 L2124.91 1809.65 L2236.29 1808.04 L2347.66 1806.06 L2459.04 1803.47 L2570.53 1800.25 L2681.91 1796.29 L2793.28 1791.71 L2904.66 1786.63 L3016.03 1781.31 L3127.41 1776.36 L3238.78 1772.40 L3350.16 1770.79 L3461.53 1773.15 L3461.53 816.90 L3350.16 1107.10 L3238.78 1319.09 L3127.41 1472.05 L3016.03 1580.83 L2904.66 1657.31 L2793.28 1710.15 L2681.91 1746.17 L2570.53 1770.42 L2459.04 1786.39 L2347.66 1796.66 L2236.29 1803.22 L2124.91 1807.30 L2013.54 1809.78 L1902.16 1811.26 L1790.79 1812.00 L1679.41 1812.50 L1568.04 1812.75 L1456.66 1812.87 L1345.29 1812.99 L1233.79 1813.12 L1122.41 1813.12 L1011.04 1813.24 L899.66 1813.24 L788.29 1813.24 L676.91 1813.24 L565.54 1813.24 L565.54 1813.24 Z" stroke-linecap="round" style="fill:#D6D6FF;stroke:#CCCCFF;stroke-width:3.00"/>
	<path d="M565.54 1813.24 L565.54 1813.24 L676.91 1813.24 L788.29 1813.24 L899.66 1813.24 L1011.04 1813.24 L1122.41 1813.24 L1233.79 1813.24 L1345.29 1813.12 L1456.66 1813.12 L1568.04 1812.99 L1679.41 1812.75 L1790.79 1812.25 L1902.16 1811.63 L2013.54 1810.64 L2124.91 1809.41 L2236.29 1807.55 L2347.66 1805.07 L2459.04 1801.61 L2570.53 1796.91 L2681.91 1790.72 L2793.28 1782.67 L2904.66 1772.40 L3016.03 1759.16 L3127.41 1742.70 L3238.78 1722.41 L3350.16 1697.53 L3461.53 1667.46 L3461.53 922.46 L3350.16 1180.36 L3238.78 1369.09 L3127.41 1505.59 L3016.03 1602.98 L2904.66 1671.54 L2793.28 1719.19 L2681.91 1751.74 L2570.53 1773.64 L2459.04 1788.24 L2347.66 1797.65 L2236.29 1803.71 L2124.91 1807.55 L2013.54 1809.90 L1902.16 1811.26 L1790.79 1812.00 L1679.41 1812.50 L1568.04 1812.75 L1456.66 1812.99 L1345.29 1813.12 L1233.79 1813.12 L1122.41 1813.12 L1011.04 1813.24 L899.66 1813.24 L788.29 1813.24 L676.91 1813.24 L565.54 1813.24 L565.54 1813.24 Z" stroke-linecap="round" style="fill:#C2C2FF;stroke:#B3B3FF;stroke-width:3.00"/>
	<path d="M565.54 1813.24 L565.54 1813.24 L676.91 1813.24 L788.29 1813.24 L899.66 1813.24 L1011.04 1813.24 L1122.41 1813.24 L1233.79 1813.24 L1345.29 1813.12 L1456.66 1813.12 L1568.04 1812.99 L1679.41 1812.62 L1790.79 1812.25 L1902.16 1811.51 L2013.54 1810.52 L2124.91 1809.16 L2236.29 1807.18 L2347.66 1804.33 L2459.04 1800.25 L2570.53 1794.68 L2681.91 1787.01 L2793.28 1776.61 L2904.66 1762.75 L3016.03 1744.31 L3127.41 1720.06 L3238.78 1688.62 L3350.16 1648.03 L3461.53 1596.30 L3461.53 993.74 L3350.16 1229.87 L3238.78 1402.87 L3127.41 1528.24 L3016.03 1617.96 L2904.66 1681.20 L2793.28 1725.25 L2681.91 1755.45 L2570.53 1775.87 L2459.04 1789.48 L2347.66 1798.39 L2236.29 1804.08 L2124.91 1807.67 L2013.54 1810.02 L1902.16 1811.26 L1790.79 1812.13 L1679.41 1812.50 L1568.04 1812.75 L1456.66 1812.99 L1345.29 1813.12 L1233.79 1813.12 L1122.41 1813.12 L1011.04 1813.24 L899.66 1813.24 L788.29 1813.24 L676.91 1813.24 L565.54 1813.24 L565.54 1813.24 Z" stroke-linecap="round" style="fill:#ADADFF;stroke:#9999FF;stroke-width:3.00"/>
	<path d="M565.54 1813.24 L565.54 1813.24 L676.91 1813.24 L788.29 1813.24 L899.66 1813.24 L1011.04 1813.24 L1122.41 1813.24 L1233.79 1813.24 L1345.29 1813.12 L1456.66 1813.12 L1568.04 1812.87 L1679.41 1812.62 L1790.79 1812.25 L1902.16 1811.51 L2013.54 1810.52 L2124.91 1809.03 L2236.29 1806.93 L2347.66 1803.71 L2459.04 1799.26 L2570.53 1792.95 L2681.91 1784.04 L2793.28 1771.78 L2904.66 1755.08 L3016.03 1732.43 L3127.41 1701.99 L3238.78 1661.77 L3350.16 1608.80 L3461.53 1539.62 L3461.53 1050.42 L3350.16 1269.10 L3238.78 1429.73 L3127.41 1546.30 L3016.03 1629.84 L2904.66 1688.87 L2793.28 1730.08 L2681.91 1758.42 L2570.53 1777.72 L2459.04 1790.47 L2347.66 1799.01 L2236.29 1804.46 L2124.91 1807.92 L2013.54 1810.02 L1902.16 1811.39 L1790.79 1812.13 L1679.41 1812.50 L1568.04 1812.75 L1456.66 1812.99 L1345.29 1813.12 L1233.79 1813.12 L1122.41 1813.24 L1011.04 1813.24 L899.66 1813.24 L788.29 1813.24 L676.91 1813.24 L565.54 1813.24 L565.54 1813.24 Z" stroke-linecap="round" style="fill:#9999FF;stroke:#8080FF;stroke-width:3.00"/>
	<path d="M565.54 1813.24 L565.54 1813.24 L676.91 1813.24 L788.29 1813.24 L899.66 1813.24 L1011.04 1813.24 L1122.41 1813.24 L1233.79 1813.24 L1345.29 1813.12 L1456.66 1813.12 L1568.04 1812.87 L1679.41 1812.62 L1790.79 1812.25 L1902.16 1811.51 L2013.54 1810.52 L2124.91 1808.91 L2236.29 1806.68 L2347.66 1803.34 L2459.04 1798.39 L2570.53 1791.46 L2681.91 1781.56 L2793.28 1767.70 L2904.66 1748.52 L3016.03 1722.16 L3127.41 1686.52 L3238.78 1638.75 L3350.16 1575.02 L3461.53 1491.11 L3461.53 1098.93 L3350.16 1302.88 L3238.78 1452.75 L3127.41 1561.77 L3016.03 1639.99 L2904.66 1695.43 L2793.28 1734.29 L2681.91 1761.02 L2570.53 1779.21 L2459.04 1791.34 L2347.66 1799.38 L2236.29 1804.70 L2124.91 1808.04 L2013.54 1810.02 L1902.16 1811.39 L1790.79 1812.13 L1679.41 1812.50 L1568.04 1812.87 L1456.66 1812.99 L1345.29 1813.12 L1233.79 1813.12 L1122.41 1813.24 L1011.04 1813.24 L899.66 1813.24 L788.29 1813.24 L676.91 1813.24 L565.54 1813.24 L565.54 1813.24 Z" stroke-linecap="round" style="fill:#8585FF;stroke:#6666FF;stroke-width:3.00"/>
	<path d="M565.54 1813.24 L565.54 1813.24 L676.91 1813.24 L788.29 1813.24 L899.66 1813.24 L1011.04 1813.24 L1122.41 1813.24 L1233.79 1813.24 L1345.29 1813.12 L1456.66 1812.99 L1568.04 1812.87 L1679.41 1812.62 L1790.79 1812.25 L1902.16 1811.51 L2013.54 1810.40 L2124.91 1808.79 L2236.29 1806.44 L2347.66 1802.85 L2459.04 1797.65 L2570.53 1790.10 L2681.91 1779.21 L2793.28 1763.99 L2904.66 1742.58 L3016.03 1713.12 L3127.41 1672.66 L3238.78 1618.08 L3350.16 1544.70 L3461.53 1447.43 L3461.53 1142.62 L3350.16 1333.20 L3238.78 1473.54 L3127.41 1575.63 L3016.03 1649.14 L2904.66 1701.37 L2793.28 1738.00 L2681.91 1763.25 L2570.53 1780.57 L2459.04 1792.20 L2347.66 1799.88 L2236.29 1804.83 L2124.91 1808.04 L2013.54 1810.15 L1902.16 1811.39 L1790.79 1812.13 L1679.41 1812.50 L1568.04 1812.87 L1456.66 1812.99 L1345.29 1813.12 L1233.79 1813.12 L1122.41 1813.24 L1011.04 1813.24 L899.66 1813.24 L788.29 1813.24 L676.91 1813.24 L565.54 1813.24 L565.54 1813.24 Z" stroke-linecap="round" style="fill:#7171FF;stroke:#4D4DFF;stroke-width:3.00"/>
	<path d="M565.54 1813.24 L565.54 1813.24 L676.91 1813.24 L788.29 1813.24 L899.66 1813.24 L1011.04 1813.24 L1122.41 1813.24 L1233.79 1813.12 L1345.29 1813.12 L1456.66 1812.99 L1568.04 1812.87 L1679.41 1812.62 L1790.79 1812.13 L1902.16 1811.51 L2013.54 1810.40 L2124.91 1808.79 L2236.29 1806.19 L2347.66 1802.48 L2459.04 1796.91 L2570.53 1788.74 L2681.91 1777.11 L2793.28 1760.52 L2904.66 1737.13 L3016.03 1704.59 L3127.41 1659.79 L3238.78 1598.90 L3350.16 1516.73 L3461.53 1406.96 L3461.53 1182.96 L3350.16 1361.17 L3238.78 1492.72 L3127.41 1588.50 L3016.03 1657.68 L2904.66 1706.81 L2793.28 1741.34 L2681.91 1765.35 L2570.53 1781.81 L2459.04 1792.95 L2347.66 1800.25 L2236.29 1805.07 L2124.91 1808.17 L2013.54 1810.15 L1902.16 1811.39 L1790.79 1812.13 L1679.41 1812.62 L1568.04 1812.87 L1456.66 1812.99 L1345.29 1813.12 L1233.79 1813.12 L1122.41 1813.24 L1011.04 1813.24 L899.66 1813.24 L788.29 1813.24 L676.91 1813.24 L565.54 1813.24 L565.54 1813.24 Z" stroke-linecap="round" style="fill:#5C5CFF;stroke:#3333FF;stroke-width:3.00"/>
	<path d="M565.54 1813.24 L565.54 1813.24 L676.91 1813.24 L788.29 1813.24 L899.66 1813.24 L1011.04 1813.24 L1122.41 1813.24 L1233.79 1813.12 L1345.29 1813.12 L1456.66 1812.99 L1568.04 1812.87 L1679.41 1812.62 L1790.79 1812.13 L1902.16 1811.51 L2013.54 1810.40 L2124.91 1808.66 L2236.29 1806.06 L2347.66 1802.10 L2459.04 1796.16 L2570.53 1787.62 L2681.91 1775.13 L2793.28 1757.18 L2904.66 1731.94 L3016.03 1696.54 L3127.41 1647.66 L3238.78 1580.71 L3350.16 1490.12 L3461.53 1368.59 L3461.53 1221.33 L3350.16 1387.78 L3238.78 1510.79 L3127.41 1600.76 L3016.03 1665.73 L2904.66 1712.01 L2793.28 1744.68 L2681.91 1767.45 L2570.53 1783.05 L2459.04 1793.56 L2347.66 1800.62 L2236.29 1805.32 L2124.91 1808.29 L2013.54 1810.15 L1902.16 1811.39 L1790.79 1812.13 L1679.41 1812.62 L1568.04 1812.87 L1456.66 1812.99 L1345.29 1813.12 L1233.79 1813.12 L1122.41 1813.24 L1011.04 1813.24 L899.66 1813.24 L788.29 1813.24 L676.91 1813.24 L565.54 1813.24 L565.54 1813.24 Z" stroke-linecap="round" style="fill:#4747FF;stroke:#1919FF;stroke-width:3.00"/>
	<path d="M565.54 1813.24 L565.54 1813.24 L676.91 1813.24 L788.29 1813.24 L899.66 1813.24 L1011.04 1813.24 L1122.41 1813.24 L1233.79 1813.12 L1345.29 1813.12 L1456.66 1812.99 L1568.04 1812.87 L1679.41 1812.62 L1790.79 1812.13 L1902.16 1811.39 L2013.54 1810.27 L2124.91 1808.54 L2236.29 1805.82 L2347.66 1801.73 L2459.04 1795.54 L2570.53 1786.39 L2681.91 1773.15 L2793.28 1754.09 L2904.66 1726.86 L3016.03 1688.75 L3127.41 1635.78 L3238.78 1563.14 L3350.16 1464.26 L3461.53 1331.47 L3461.53 1258.45 L3350.16 1413.64 L3238.78 1528.48 L3127.41 1612.51 L3016.03 1673.40 L2904.66 1717.08 L2793.28 1747.78 L2681.91 1769.31 L2570.53 1784.16 L2459.04 1794.18 L2347.66 1800.99 L2236.29 1805.45 L2124.91 1808.42 L2013.54 1810.27 L1902.16 1811.39 L1790.79 1812.13 L1679.41 1812.62 L1568.04 1812.87 L1456.66 1812.99 L1345.29 1813.12 L1233.79 1813.12 L1122.41 1813.24 L1011.04 1813.24 L899.66 1813.24 L788.29 1813.24 L676.91 1813.24 L565.54 1813.24 L565.54 1813.24 Z" stroke-linecap="round" style="fill:#3333FF;stroke:#0000FF;stroke-width:3.00"/>
	<circle cx="565.41" cy="1813.24" r="22.03" style="fill:#000000;stroke:#000000;stroke-width:8.64"/>
	<circle cx="676.79" cy="1813.24" r="22.03" style="fill:#000000;stroke:#000000;stroke-width:8.64"/>
	<circle cx="788.29" cy="1813.24" r="22.03" style="fill:#000000;stroke:#000000;stroke-width:8.64"/>
	<circle cx="899.66" cy="1813.24" r="22.03" style="fill:#000000;stroke:#000000;stroke-width:8.64"/>
	<circle cx="1011.04" cy="1813.24" r="22.03" style="fill:#000000;stroke:#000000;stroke-width:8.64"/>
	<circle cx="1122.41" cy="1813.24" r="22.03" style="fill:#000000;stroke:#000000;stroke-width:8.64"/>
	<circle cx="1233.79" cy="1813.12" r="22.03" style="fill:#000000;stroke:#000000;stroke-width:8.64"/>
	<circle cx="1345.16" cy="1813.12" r="22.03" style="fill:#000000;stroke:#000000;stroke-width:8.64"/>
	<circle cx="1456.54" cy="1812.99" r="22.03" style="fill:#000000;stroke:#000000;stroke-width:8.64"/>
	<circle cx="1567.91" cy="1812.87" r="22.03" style="fill:#000000;stroke:#000000;stroke-width:8.64"/>
	<circle cx="1679.29" cy="1812.87" r="22.03" style="fill:#000000;stroke:#000000;stroke-width:8.64"/>
	<circle cx="1790.66" cy="1812.38" r="22.03" style="fill:#000000;stroke:#000000;stroke-width:8.64"/>
	<circle cx="1902.04" cy="1811.39" r="22.03" style="fill:#000000;stroke:#000000;stroke-width:8.64"/>
	<line x1="390.80" y1="2489.19" x2="390.80" y2="100.86" style="stroke:#000000;stroke-width:5.76"/>
	<line x1="390.80" y1="2300.96" x2="350.83" y2="2300.96" style="stroke:#000000;stroke-width:5.76"/>
	<text x="300.72" y="2300.96" style="font-family:'Helvetica';font-size:99.99px;fill:#000000" transform="rotate(-90 300.72,2300.96)" text-anchor="middle">-200</text>
	<line x1="390.80" y1="1813.24" x2="350.83" y2="1813.24" style="stroke:#000000;stroke-width:5.76"/>
	<text x="300.72" y="1813.24" style="font-family:'Helvetica';font-size:99.99px;fill:#000000" transform="rotate(-90 300.72,1813.24)" text-anchor="middle">0</text>
	<line x1="390.80" y1="1325.53" x2="350.83" y2="1325.53" style="stroke:#000000;stroke-width:5.76"/>
	<text x="300.72" y="1325.53" style="font-family:'Helvetica';font-size:99.99px;fill:#000000" transform="rotate(-90 300.72,1325.53)" text-anchor="middle">200</text>
	<line x1="390.80" y1="837.81" x2="350.83" y2="837.81" style="stroke:#000000;stroke-width:5.76"/>
	<text x="300.72" y="837.81" style="font-family:'Helvetica';font-size:99.99px;fill:#000000" transform="rotate(-90 300.72,837.81)" text-anchor="middle">400</text>
	<line x1="390.80" y1="350.10" x2="350.83" y2="350.10" style="stroke:#000000;stroke-width:5.76"/>
	<text x="300.72" y="350.10" style="font-family:'Helvetica';font-size:99.99px;fill:#000000" transform="rotate(-90 300.72,350.10)" text-anchor="middle">600</text>
	<text x="190.71" y="1294.96" style="font-family:'Helvetica';font-size:99.99px;fill:#000000" transform="rotate(-90 190.71,1294.96)" text-anchor="middle">Confirmed cases per 100 beds</text>
	<line x1="390.80" y1="2489.19" x2="3859.02" y2="2489.19" style="stroke:#000000;stroke-width:5.76"/>
	<line x1="454.16" y1="2489.19" x2="454.16" y2="2529.16" style="stroke:#000000;stroke-width:5.76"/>
	<text x="454.16" y="2619.14" style="font-family:'Helvetica';font-size:99.99px;fill:#000000" text-anchor="middle">0</text>
	<line x1="1568.04" y1="2489.19" x2="1568.04" y2="2529.16" style="stroke:#000000;stroke-width:5.76"/>
	<text x="1568.04" y="2619.14" style="font-family:'Helvetica';font-size:99.99px;fill:#000000" text-anchor="middle">10</text>
	<line x1="2681.91" y1="2489.19" x2="2681.91" y2="2529.16" style="stroke:#000000;stroke-width:5.76"/>
	<text x="2681.91" y="2619.14" style="font-family:'Helvetica';font-size:99.99px;fill:#000000" text-anchor="middle">20</text>
	<line x1="3795.66" y1="2489.19" x2="3795.66" y2="2529.16" style="stroke:#000000;stroke-width:5.76"/>
	<text x="3795.66" y="2619.14" style="font-family:'Helvetica';font-size:99.99px;fill:#000000" text-anchor="middle">30</text>
	<text x="2124.91" y="2729.16" style="font-family:'Helvetica';font-size:99.99px;fill:#000000" text-anchor="middle">Days since 0.01 confirmed cases per 100 beds</text>
</svg>
