<?xml version="1.0" encoding="UTF-8" standalone="no"?>
<!-- This is a Stata 14.2 generated SVG file (http://www.stata.com) -->

<svg version="1.1" width="5.50in" height="4.00in" viewBox="0 0 3960 2880" xmlns="http://www.w3.org/2000/svg">
	<desc>Stata Graph - Graph</desc>
	<line x1="390.80" y1="370.64" x2="3859.02" y2="370.64" style="stroke:#FF0000;stroke-width:8.64"/>
	<path d="M537.69 2424.96 L537.69 2424.96 L621.23 2424.21 L704.76 2423.10 L788.29 2421.24 L871.82 2418.52 L955.35 2414.69 L1038.88 2409.24 L1122.41 2401.82 L1205.94 2392.16 L1289.47 2379.54 L1373.13 2363.70 L1456.66 2344.27 L1540.19 2320.63 L1623.72 2292.66 L1707.26 2259.87 L1790.79 2221.63 L1874.32 2177.33 L1957.85 2126.46 L2041.38 2069.04 L2124.91 2005.43 L2208.44 1936.87 L2291.97 1863.98 L2375.51 1786.76 L2459.04 1705.70 L2542.57 1621.18 L2626.22 1533.68 L2709.75 1443.96 L2793.28 1352.63 L2876.82 1260.31 L2960.35 1167.49 L3043.88 1075.05 L3127.41 983.35 L3210.94 893.13 L3294.47 804.77 L3294.47 164.22 L3210.94 346.26 L3127.41 522.24 L3043.88 691.41 L2960.35 853.28 L2876.82 1007.23 L2793.28 1153.01 L2709.75 1290.13 L2626.22 1418.34 L2542.57 1537.52 L2459.04 1647.54 L2375.51 1748.39 L2291.97 1839.97 L2208.44 1922.27 L2124.91 1995.53 L2041.38 2060.13 L1957.85 2117.68 L1874.32 2168.79 L1790.79 2213.83 L1707.26 2253.19 L1623.72 2286.85 L1540.19 2315.19 L1456.66 2338.70 L1373.13 2357.88 L1289.47 2373.48 L1205.94 2385.97 L1122.41 2395.87 L1038.88 2403.67 L955.35 2409.61 L871.82 2414.19 L788.29 2417.66 L704.76 2420.13 L621.23 2421.99 L537.69 2423.35 L537.69 2424.96 Z" stroke-linecap="round" style="fill:#EBEBFF;stroke:#E6E6FF;stroke-width:3.00"/>
	<path d="M537.69 2424.46 L537.69 2424.46 L621.23 2423.60 L704.76 2422.23 L788.29 2420.25 L871.82 2417.28 L955.35 2413.20 L1038.88 2407.63 L1122.41 2400.08 L1205.94 2390.31 L1289.47 2377.81 L1373.13 2362.09 L1456.66 2342.66 L1540.19 2319.15 L1623.72 2291.06 L1707.26 2257.89 L1790.79 2219.40 L1874.32 2174.85 L1957.85 2123.86 L2041.38 2066.44 L2124.91 2002.59 L2208.44 1932.66 L2291.97 1857.05 L2375.51 1775.74 L2459.04 1688.87 L2542.57 1597.04 L2626.22 1500.39 L2709.75 1399.53 L2793.28 1294.96 L2876.82 1187.29 L2960.35 1076.78 L3043.88 964.29 L3127.41 850.31 L3210.94 735.35 L3294.47 619.88 L3294.47 348.99 L3210.94 504.17 L3127.41 655.40 L3043.88 802.17 L2960.35 943.99 L2876.82 1080.25 L2793.28 1210.68 L2709.75 1334.56 L2626.22 1451.63 L2542.57 1561.65 L2459.04 1664.37 L2375.51 1759.41 L2291.97 1846.90 L2208.44 1926.48 L2124.91 1998.38 L2041.38 2062.73 L1957.85 2120.15 L1874.32 2171.26 L1790.79 2216.06 L1707.26 2255.04 L1623.72 2288.58 L1540.19 2316.80 L1456.66 2340.31 L1373.13 2359.61 L1289.47 2375.21 L1205.94 2387.71 L1122.41 2397.61 L1038.88 2405.28 L955.35 2411.10 L871.82 2415.43 L788.29 2418.65 L704.76 2421.00 L621.23 2422.61 L537.69 2423.84 L537.69 2424.46 Z" stroke-linecap="round" style="fill:#D6D6FF;stroke:#CCCCFF;stroke-width:3.00"/>
	<path d="M537.69 2424.46 L537.69 2424.46 L621.23 2423.47 L704.76 2422.11 L788.29 2420.01 L871.82 2417.04 L955.35 2412.95 L1038.88 2407.38 L1122.41 2399.83 L1205.94 2390.06 L1289.47 2377.56 L1373.13 2361.72 L1456.66 2342.41 L1540.19 2318.90 L1623.72 2290.81 L1707.26 2257.64 L1790.79 2219.03 L1874.32 2174.36 L1957.85 2123.49 L2041.38 2066.07 L2124.91 2002.09 L2208.44 1932.05 L2291.97 1855.94 L2375.51 1773.89 L2459.04 1686.15 L2542.57 1593.08 L2626.22 1495.07 L2709.75 1392.35 L2793.28 1285.68 L2876.82 1175.41 L2960.35 1062.18 L3043.88 946.47 L3127.41 828.78 L3210.94 709.73 L3294.47 589.93 L3294.47 378.93 L3210.94 529.67 L3127.41 676.93 L3043.88 819.99 L2960.35 958.60 L2876.82 1092.13 L2793.28 1219.97 L2709.75 1341.74 L2626.22 1457.08 L2542.57 1565.61 L2459.04 1667.09 L2375.51 1761.27 L2291.97 1848.02 L2208.44 1927.22 L2124.91 1998.87 L2041.38 2063.10 L1957.85 2120.65 L1874.32 2171.63 L1790.79 2216.43 L1707.26 2255.41 L1623.72 2288.83 L1540.19 2317.04 L1456.66 2340.56 L1373.13 2359.86 L1289.47 2375.46 L1205.94 2387.95 L1122.41 2397.85 L1038.88 2405.53 L955.35 2411.34 L871.82 2415.68 L788.29 2418.89 L704.76 2421.12 L621.23 2422.73 L537.69 2423.84 L537.69 2424.46 Z" stroke-linecap="round" style="fill:#C2C2FF;stroke:#B3B3FF;stroke-width:3.00"/>
	<path d="M537.69 2424.34 L537.69 2424.34 L621.23 2423.47 L704.76 2421.99 L788.29 2419.88 L871.82 2416.91 L955.35 2412.83 L1038.88 2407.14 L1122.41 2399.59 L1205.94 2389.81 L1289.47 2377.31 L1373.13 2361.60 L1456.66 2342.17 L1540.19 2318.65 L1623.72 2290.56 L1707.26 2257.39 L1790.79 2218.78 L1874.32 2174.11 L1957.85 2123.25 L2041.38 2065.82 L2124.91 2001.84 L2208.44 1931.55 L2291.97 1855.19 L2375.51 1772.65 L2459.04 1684.41 L2542.57 1590.48 L2626.22 1491.36 L2709.75 1387.53 L2793.28 1279.37 L2876.82 1167.49 L2960.35 1052.28 L3043.88 934.34 L3127.41 814.30 L3210.94 692.53 L3294.47 569.76 L3294.47 399.11 L3210.94 546.87 L3127.41 691.41 L3043.88 832.12 L2960.35 968.50 L2876.82 1100.05 L2793.28 1226.28 L2709.75 1346.57 L2626.22 1460.67 L2542.57 1568.21 L2459.04 1668.94 L2375.51 1762.50 L2291.97 1848.76 L2208.44 1927.71 L2124.91 1999.12 L2041.38 2063.47 L1957.85 2120.89 L1874.32 2171.88 L1790.79 2216.68 L1707.26 2255.66 L1623.72 2288.95 L1540.19 2317.17 L1456.66 2340.68 L1373.13 2359.99 L1289.47 2375.70 L1205.94 2388.20 L1122.41 2398.10 L1038.88 2405.65 L955.35 2411.47 L871.82 2415.80 L788.29 2419.02 L704.76 2421.24 L621.23 2422.85 L537.69 2423.97 L537.69 2424.34 Z" stroke-linecap="round" style="fill:#ADADFF;stroke:#9999FF;stroke-width:3.00"/>
	<path d="M537.69 2424.34 L537.69 2424.34 L621.23 2423.35 L704.76 2421.99 L788.29 2419.88 L871.82 2416.79 L955.35 2412.71 L1038.88 2407.01 L1122.41 2399.46 L1205.94 2389.69 L1289.47 2377.19 L1373.13 2361.47 L1456.66 2342.04 L1540.19 2318.53 L1623.72 2290.44 L1707.26 2257.27 L1790.79 2218.54 L1874.32 2173.98 L1957.85 2123.00 L2041.38 2065.58 L2124.91 2001.60 L2208.44 1931.18 L2291.97 1854.58 L2375.51 1771.78 L2459.04 1682.93 L2542.57 1588.38 L2626.22 1488.51 L2709.75 1383.69 L2793.28 1274.42 L2876.82 1161.18 L2960.35 1044.36 L3043.88 924.69 L3127.41 802.67 L3210.94 678.79 L3294.47 553.67 L3294.47 415.19 L3210.94 560.61 L3127.41 702.92 L3043.88 841.77 L2960.35 976.42 L2876.82 1106.36 L2793.28 1231.23 L2709.75 1350.40 L2626.22 1463.64 L2542.57 1570.31 L2459.04 1670.31 L2375.51 1763.37 L2291.97 1849.38 L2208.44 1928.09 L2124.91 1999.37 L2041.38 2063.60 L1957.85 2121.14 L1874.32 2172.13 L1790.79 2216.93 L1707.26 2255.79 L1623.72 2289.20 L1540.19 2317.29 L1456.66 2340.80 L1373.13 2360.11 L1289.47 2375.83 L1205.94 2388.33 L1122.41 2398.23 L1038.88 2405.78 L955.35 2411.59 L871.82 2415.92 L788.29 2419.02 L704.76 2421.37 L621.23 2422.85 L537.69 2423.97 L537.69 2424.34 Z" stroke-linecap="round" style="fill:#9999FF;stroke:#8080FF;stroke-width:3.00"/>
	<path d="M537.69 2424.34 L537.69 2424.34 L621.23 2423.35 L704.76 2421.86 L788.29 2419.76 L871.82 2416.79 L955.35 2412.58 L1038.88 2406.89 L1122.41 2399.34 L1205.94 2389.56 L1289.47 2377.06 L1373.13 2361.35 L1456.66 2341.92 L1540.19 2318.40 L1623.72 2290.31 L1707.26 2257.15 L1790.79 2218.41 L1874.32 2173.74 L1957.85 2122.87 L2041.38 2065.33 L2124.91 2001.35 L2208.44 1930.81 L2291.97 1854.08 L2375.51 1770.92 L2459.04 1681.69 L2542.57 1586.65 L2626.22 1486.04 L2709.75 1380.35 L2793.28 1270.09 L2876.82 1155.74 L2960.35 1037.68 L3043.88 916.52 L3127.41 792.77 L3210.94 667.16 L3294.47 539.94 L3294.47 428.93 L3210.94 572.36 L3127.41 712.82 L3043.88 849.94 L2960.35 983.10 L2876.82 1111.80 L2793.28 1235.56 L2709.75 1353.74 L2626.22 1466.11 L2542.57 1572.17 L2459.04 1671.54 L2375.51 1764.24 L2291.97 1849.87 L2208.44 1928.33 L2124.91 1999.61 L2041.38 2063.84 L1957.85 2121.27 L1874.32 2172.25 L1790.79 2217.05 L1707.26 2255.91 L1623.72 2289.32 L1540.19 2317.41 L1456.66 2340.93 L1373.13 2360.36 L1289.47 2375.95 L1205.94 2388.45 L1122.41 2398.35 L1038.88 2405.90 L955.35 2411.72 L871.82 2416.05 L788.29 2419.14 L704.76 2421.37 L621.23 2422.98 L537.69 2423.97 L537.69 2424.34 Z" stroke-linecap="round" style="fill:#8585FF;stroke:#6666FF;stroke-width:3.00"/>
	<path d="M537.69 2424.21 L537.69 2424.21 L621.23 2423.22 L704.76 2421.86 L788.29 2419.64 L871.82 2416.67 L955.35 2412.46 L1038.88 2406.77 L1122.41 2399.22 L1205.94 2389.44 L1289.47 2376.94 L1373.13 2361.22 L1456.66 2341.79 L1540.19 2318.28 L1623.72 2290.19 L1707.26 2257.02 L1790.79 2218.29 L1874.32 2173.61 L1957.85 2122.63 L2041.38 2065.20 L2124.91 2001.10 L2208.44 1930.56 L2291.97 1853.59 L2375.51 1770.18 L2459.04 1680.58 L2542.57 1585.04 L2626.22 1483.81 L2709.75 1377.38 L2793.28 1266.25 L2876.82 1150.79 L2960.35 1031.61 L3043.88 909.10 L3127.41 783.86 L3210.94 656.51 L3294.47 527.56 L3294.47 441.31 L3210.94 582.88 L3127.41 721.73 L3043.88 857.37 L2960.35 989.16 L2876.82 1116.75 L2793.28 1239.39 L2709.75 1356.71 L2626.22 1468.34 L2542.57 1573.78 L2459.04 1672.66 L2375.51 1764.98 L2291.97 1850.37 L2208.44 1928.58 L2124.91 1999.86 L2041.38 2063.97 L1957.85 2121.51 L1874.32 2172.38 L1790.79 2217.17 L1707.26 2256.03 L1623.72 2289.45 L1540.19 2317.54 L1456.66 2341.05 L1373.13 2360.36 L1289.47 2376.07 L1205.94 2388.57 L1122.41 2398.47 L1038.88 2406.02 L955.35 2411.84 L871.82 2416.05 L788.29 2419.26 L704.76 2421.37 L621.23 2422.98 L537.69 2424.09 L537.69 2424.21 Z" stroke-linecap="round" style="fill:#7171FF;stroke:#4D4DFF;stroke-width:3.00"/>
	<path d="M537.69 2424.21 L537.69 2424.21 L621.23 2423.22 L704.76 2421.74 L788.29 2419.64 L871.82 2416.54 L955.35 2412.33 L1038.88 2406.64 L1122.41 2399.09 L1205.94 2389.32 L1289.47 2376.82 L1373.13 2361.10 L1456.66 2341.67 L1540.19 2318.16 L1623.72 2290.07 L1707.26 2256.90 L1790.79 2218.16 L1874.32 2173.49 L1957.85 2122.50 L2041.38 2065.08 L2124.91 2000.98 L2208.44 1930.31 L2291.97 1853.09 L2375.51 1769.43 L2459.04 1679.46 L2542.57 1583.55 L2626.22 1481.83 L2709.75 1374.66 L2793.28 1262.66 L2876.82 1146.33 L2960.35 1025.92 L3043.88 902.29 L3127.41 775.69 L3210.94 646.74 L3294.47 516.18 L3294.47 452.69 L3210.94 592.66 L3127.41 730.02 L3043.88 864.30 L2960.35 994.86 L2876.82 1121.21 L2793.28 1242.98 L2709.75 1359.44 L2626.22 1470.32 L2542.57 1575.26 L2459.04 1673.77 L2375.51 1765.72 L2291.97 1850.74 L2208.44 1928.83 L2124.91 1999.99 L2041.38 2064.21 L1957.85 2121.64 L1874.32 2172.62 L1790.79 2217.30 L1707.26 2256.16 L1623.72 2289.45 L1540.19 2317.66 L1456.66 2341.18 L1373.13 2360.48 L1289.47 2376.20 L1205.94 2388.70 L1122.41 2398.60 L1038.88 2406.15 L955.35 2411.84 L871.82 2416.17 L788.29 2419.26 L704.76 2421.49 L621.23 2422.98 L537.69 2424.09 L537.69 2424.21 Z" stroke-linecap="round" style="fill:#5C5CFF;stroke:#3333FF;stroke-width:3.00"/>
	<path d="M537.69 2424.21 L537.69 2424.21 L621.23 2423.22 L704.76 2421.74 L788.29 2419.51 L871.82 2416.54 L955.35 2412.33 L1038.88 2406.64 L1122.41 2399.09 L1205.94 2389.19 L1289.47 2376.69 L1373.13 2360.98 L1456.66 2341.67 L1540.19 2318.16 L1623.72 2289.94 L1707.26 2256.78 L1790.79 2217.92 L1874.32 2173.24 L1957.85 2122.38 L2041.38 2064.96 L2124.91 2000.85 L2208.44 1930.07 L2291.97 1852.72 L2375.51 1768.81 L2459.04 1678.47 L2542.57 1582.07 L2626.22 1479.85 L2709.75 1372.06 L2793.28 1259.32 L2876.82 1142.00 L2960.35 1020.60 L3043.88 895.73 L3127.41 767.89 L3210.94 637.46 L3294.47 505.29 L3294.47 463.58 L3210.94 601.94 L3127.41 737.82 L3043.88 870.73 L2960.35 1000.18 L2876.82 1125.54 L2793.28 1246.33 L2709.75 1362.04 L2626.22 1472.30 L2542.57 1576.62 L2459.04 1674.76 L2375.51 1766.34 L2291.97 1851.11 L2208.44 1929.08 L2124.91 2000.11 L2041.38 2064.34 L1957.85 2121.76 L1874.32 2172.75 L1790.79 2217.42 L1707.26 2256.28 L1623.72 2289.57 L1540.19 2317.79 L1456.66 2341.30 L1373.13 2360.61 L1289.47 2376.32 L1205.94 2388.82 L1122.41 2398.60 L1038.88 2406.27 L955.35 2411.96 L871.82 2416.29 L788.29 2419.39 L704.76 2421.49 L621.23 2423.10 L537.69 2424.09 L537.69 2424.21 Z" stroke-linecap="round" style="fill:#4747FF;stroke:#1919FF;stroke-width:3.00"/>
	<path d="M537.69 2424.21 L537.69 2424.21 L621.23 2423.10 L704.76 2421.62 L788.29 2419.51 L871.82 2416.42 L955.35 2412.21 L1038.88 2406.52 L1122.41 2398.97 L1205.94 2389.07 L1289.47 2376.57 L1373.13 2360.85 L1456.66 2341.55 L1540.19 2318.03 L1623.72 2289.94 L1707.26 2256.65 L1790.79 2217.79 L1874.32 2173.12 L1957.85 2122.26 L2041.38 2064.71 L2124.91 2000.61 L2208.44 1929.82 L2291.97 1852.35 L2375.51 1768.20 L2459.04 1677.61 L2542.57 1580.71 L2626.22 1477.87 L2709.75 1369.58 L2793.28 1256.10 L2876.82 1137.79 L2960.35 1015.52 L3043.88 889.42 L3127.41 760.22 L3210.94 628.55 L3294.47 494.77 L3294.47 474.10 L3210.94 610.85 L3127.41 745.37 L3043.88 877.04 L2960.35 1005.38 L2876.82 1129.63 L2793.28 1249.54 L2709.75 1364.63 L2626.22 1474.16 L2542.57 1577.99 L2459.04 1675.75 L2375.51 1766.96 L2291.97 1851.61 L2208.44 1929.32 L2124.91 2000.36 L2041.38 2064.46 L1957.85 2121.88 L1874.32 2172.87 L1790.79 2217.55 L1707.26 2256.40 L1623.72 2289.69 L1540.19 2317.91 L1456.66 2341.30 L1373.13 2360.73 L1289.47 2376.45 L1205.94 2388.94 L1122.41 2398.72 L1038.88 2406.27 L955.35 2412.09 L871.82 2416.29 L788.29 2419.39 L704.76 2421.62 L621.23 2423.10 L537.69 2424.09 L537.69 2424.21 Z" stroke-linecap="round" style="fill:#3333FF;stroke:#0000FF;stroke-width:3.00"/>
	<circle cx="537.57" cy="2423.22" r="22.03" style="fill:#000000;stroke:#000000;stroke-width:8.64"/>
	<circle cx="621.10" cy="2421.24" r="22.03" style="fill:#000000;stroke:#000000;stroke-width:8.64"/>
	<circle cx="704.76" cy="2419.88" r="22.03" style="fill:#000000;stroke:#000000;stroke-width:8.64"/>
	<circle cx="788.29" cy="2417.66" r="22.03" style="fill:#000000;stroke:#000000;stroke-width:8.64"/>
	<circle cx="871.82" cy="2416.05" r="22.03" style="fill:#000000;stroke:#000000;stroke-width:8.64"/>
	<circle cx="955.35" cy="2412.71" r="22.03" style="fill:#000000;stroke:#000000;stroke-width:8.64"/>
	<circle cx="1038.88" cy="2406.27" r="22.03" style="fill:#000000;stroke:#000000;stroke-width:8.64"/>
	<circle cx="1122.41" cy="2397.36" r="22.03" style="fill:#000000;stroke:#000000;stroke-width:8.64"/>
	<circle cx="1205.94" cy="2392.66" r="22.03" style="fill:#000000;stroke:#000000;stroke-width:8.64"/>
	<circle cx="1289.47" cy="2373.60" r="22.03" style="fill:#000000;stroke:#000000;stroke-width:8.64"/>
	<circle cx="1373.01" cy="2360.23" r="22.03" style="fill:#000000;stroke:#000000;stroke-width:8.64"/>
	<circle cx="1456.54" cy="2343.03" r="22.03" style="fill:#000000;stroke:#000000;stroke-width:8.64"/>
	<circle cx="1540.07" cy="2319.89" r="22.03" style="fill:#000000;stroke:#000000;stroke-width:8.64"/>
	<circle cx="1623.60" cy="2292.17" r="22.03" style="fill:#000000;stroke:#000000;stroke-width:8.64"/>
	<circle cx="1707.13" cy="2255.79" r="22.03" style="fill:#000000;stroke:#000000;stroke-width:8.64"/>
	<circle cx="1790.66" cy="2216.80" r="22.03" style="fill:#000000;stroke:#000000;stroke-width:8.64"/>
	<circle cx="1874.19" cy="2173.86" r="22.03" style="fill:#000000;stroke:#000000;stroke-width:8.64"/>
	<circle cx="1957.85" cy="2117.55" r="22.03" style="fill:#000000;stroke:#000000;stroke-width:8.64"/>
	<circle cx="2041.38" cy="2066.57" r="22.03" style="fill:#000000;stroke:#000000;stroke-width:8.64"/>
	<circle cx="2124.91" cy="2001.35" r="22.03" style="fill:#000000;stroke:#000000;stroke-width:8.64"/>
	<line x1="390.80" y1="2489.19" x2="390.80" y2="100.86" style="stroke:#000000;stroke-width:5.76"/>
	<line x1="390.80" y1="2425.82" x2="350.83" y2="2425.82" style="stroke:#000000;stroke-width:5.76"/>
	<text x="300.72" y="2425.82" style="font-family:'Helvetica';font-size:99.99px;fill:#000000" transform="rotate(-90 300.72,2425.82)" text-anchor="middle">0</text>
	<line x1="390.80" y1="1398.29" x2="350.83" y2="1398.29" style="stroke:#000000;stroke-width:5.76"/>
	<text x="300.72" y="1398.29" style="font-family:'Helvetica';font-size:99.99px;fill:#000000" transform="rotate(-90 300.72,1398.29)" text-anchor="middle">5</text>
	<line x1="390.80" y1="370.64" x2="350.83" y2="370.64" style="stroke:#000000;stroke-width:5.76"/>
	<text x="300.72" y="370.64" style="font-family:'Helvetica';font-size:99.99px;fill:#000000" transform="rotate(-90 300.72,370.64)" text-anchor="middle">10</text>
	<text x="190.71" y="1294.96" style="font-family:'Helvetica';font-size:99.99px;fill:#000000" transform="rotate(-90 190.71,1294.96)" text-anchor="middle">Confirmed cases per 100 beds</text>
	<line x1="390.80" y1="2489.19" x2="3859.02" y2="2489.19" style="stroke:#000000;stroke-width:5.76"/>
	<line x1="454.16" y1="2489.19" x2="454.16" y2="2529.16" style="stroke:#000000;stroke-width:5.76"/>
	<text x="454.16" y="2619.14" style="font-family:'Helvetica';font-size:99.99px;fill:#000000" text-anchor="middle">0</text>
	<line x1="1289.47" y1="2489.19" x2="1289.47" y2="2529.16" style="stroke:#000000;stroke-width:5.76"/>
	<text x="1289.47" y="2619.14" style="font-family:'Helvetica';font-size:99.99px;fill:#000000" text-anchor="middle">10</text>
	<line x1="2124.91" y1="2489.19" x2="2124.91" y2="2529.16" style="stroke:#000000;stroke-width:5.76"/>
	<text x="2124.91" y="2619.14" style="font-family:'Helvetica';font-size:99.99px;fill:#000000" text-anchor="middle">20</text>
	<line x1="2960.35" y1="2489.19" x2="2960.35" y2="2529.16" style="stroke:#000000;stroke-width:5.76"/>
	<text x="2960.35" y="2619.14" style="font-family:'Helvetica';font-size:99.99px;fill:#000000" text-anchor="middle">30</text>
	<line x1="3795.66" y1="2489.19" x2="3795.66" y2="2529.16" style="stroke:#000000;stroke-width:5.76"/>
	<text x="3795.66" y="2619.14" style="font-family:'Helvetica';font-size:99.99px;fill:#000000" text-anchor="middle">40</text>
	<text x="2124.91" y="2729.16" style="font-family:'Helvetica';font-size:99.99px;fill:#000000" text-anchor="middle">Days since 0.01 confirmed cases per 100 beds</text>
</svg>
