<?xml version="1.0" encoding="UTF-8" standalone="no"?>
<!-- This is a Stata 14.2 generated SVG file (http://www.stata.com) -->

<svg version="1.1" width="5.50in" height="4.00in" viewBox="0 0 3960 2880" xmlns="http://www.w3.org/2000/svg">
	<desc>Stata Graph - Graph</desc>
	<line x1="390.80" y1="1803.71" x2="3859.02" y2="1803.71" style="stroke:#FF0000;stroke-width:8.64"/>
	<path d="M530.14 1907.42 L530.14 1907.42 L606.00 1907.42 L681.99 1907.42 L757.97 1907.42 L833.83 1907.42 L909.81 1907.42 L985.79 1907.42 L1061.65 1907.42 L1137.63 1907.42 L1213.62 1907.42 L1289.47 1907.42 L1365.46 1907.42 L1441.44 1907.42 L1517.42 1907.42 L1593.28 1907.42 L1669.26 1907.42 L1745.25 1907.54 L1821.11 1907.54 L1897.09 1907.54 L1973.07 1907.54 L2048.93 1907.54 L2124.91 1907.42 L2200.89 1907.29 L2276.88 1907.17 L2352.74 1906.68 L2428.72 1906.06 L2504.70 1905.07 L2580.56 1903.83 L2656.54 1902.59 L2732.52 1901.48 L2808.38 1900.74 L2884.36 1900.49 L2960.35 1901.11 L3036.33 1903.09 L3112.19 1907.17 L3188.17 1914.60 L3264.15 1926.60 L3340.01 1945.29 L3415.99 1973.13 L3491.98 2013.48 L3567.84 2070.77 L3643.82 2150.22 L3719.80 2259.00 L3795.66 2405.40 L3795.66 164.22 L3719.80 588.82 L3643.82 917.76 L3567.84 1170.59 L3491.98 1363.40 L3415.99 1509.30 L3340.01 1618.82 L3264.15 1700.25 L3188.17 1760.28 L3112.19 1803.96 L3036.33 1835.52 L2960.35 1858.04 L2884.36 1874.00 L2808.38 1885.02 L2732.52 1892.44 L2656.54 1897.52 L2580.56 1900.61 L2504.70 1902.59 L2428.72 1903.83 L2352.74 1904.70 L2276.88 1905.31 L2200.89 1905.93 L2124.91 1906.30 L2048.93 1906.55 L1973.07 1906.80 L1897.09 1907.05 L1821.11 1907.17 L1745.25 1907.17 L1669.26 1907.29 L1593.28 1907.29 L1517.42 1907.42 L1441.44 1907.42 L1365.46 1907.42 L1289.47 1907.42 L1213.62 1907.42 L1137.63 1907.42 L1061.65 1907.42 L985.79 1907.42 L909.81 1907.42 L833.83 1907.42 L757.97 1907.42 L681.99 1907.42 L606.00 1907.42 L530.14 1907.42 L530.14 1907.42 Z" stroke-linecap="round" style="fill:#EBEBFF;stroke:#E6E6FF;stroke-width:3.00"/>
	<path d="M530.14 1907.42 L530.14 1907.42 L606.00 1907.42 L681.99 1907.42 L757.97 1907.42 L833.83 1907.42 L909.81 1907.42 L985.79 1907.42 L1061.65 1907.42 L1137.63 1907.42 L1213.62 1907.42 L1289.47 1907.42 L1365.46 1907.42 L1441.44 1907.42 L1517.42 1907.42 L1593.28 1907.42 L1669.26 1907.42 L1745.25 1907.42 L1821.11 1907.42 L1897.09 1907.42 L1973.07 1907.29 L2048.93 1907.29 L2124.91 1907.17 L2200.89 1906.92 L2276.88 1906.55 L2352.74 1906.06 L2428.72 1905.31 L2504.70 1904.32 L2580.56 1902.84 L2656.54 1901.11 L2732.52 1898.88 L2808.38 1896.16 L2884.36 1892.82 L2960.35 1888.73 L3036.33 1883.53 L3112.19 1877.47 L3188.17 1870.04 L3264.15 1861.26 L3340.01 1851.11 L3415.99 1839.23 L3491.98 1825.86 L3567.84 1810.89 L3643.82 1794.55 L3719.80 1776.98 L3795.66 1758.54 L3795.66 810.96 L3719.80 1070.84 L3643.82 1273.43 L3567.84 1430.35 L3491.98 1551.01 L3415.99 1643.20 L3340.01 1713.00 L3264.15 1765.60 L3188.17 1804.83 L3112.19 1833.78 L3036.33 1855.07 L2960.35 1870.54 L2884.36 1881.68 L2808.38 1889.60 L2732.52 1895.17 L2656.54 1899.00 L2580.56 1901.60 L2504.70 1903.21 L2428.72 1904.45 L2352.74 1905.31 L2276.88 1905.81 L2200.89 1906.30 L2124.91 1906.68 L2048.93 1906.92 L1973.07 1907.05 L1897.09 1907.17 L1821.11 1907.29 L1745.25 1907.29 L1669.26 1907.29 L1593.28 1907.42 L1517.42 1907.42 L1441.44 1907.42 L1365.46 1907.42 L1289.47 1907.42 L1213.62 1907.42 L1137.63 1907.42 L1061.65 1907.42 L985.79 1907.42 L909.81 1907.42 L833.83 1907.42 L757.97 1907.42 L681.99 1907.42 L606.00 1907.42 L530.14 1907.42 L530.14 1907.42 Z" stroke-linecap="round" style="fill:#D6D6FF;stroke:#CCCCFF;stroke-width:3.00"/>
	<path d="M530.14 1907.42 L530.14 1907.42 L606.00 1907.42 L681.99 1907.42 L757.97 1907.42 L833.83 1907.42 L909.81 1907.42 L985.79 1907.42 L1061.65 1907.42 L1137.63 1907.42 L1213.62 1907.42 L1289.47 1907.42 L1365.46 1907.42 L1441.44 1907.42 L1517.42 1907.42 L1593.28 1907.42 L1669.26 1907.42 L1745.25 1907.42 L1821.11 1907.42 L1897.09 1907.29 L1973.07 1907.29 L2048.93 1907.17 L2124.91 1907.05 L2200.89 1906.80 L2276.88 1906.55 L2352.74 1906.06 L2428.72 1905.31 L2504.70 1904.20 L2580.56 1902.72 L2656.54 1900.86 L2732.52 1898.51 L2808.38 1895.41 L2884.36 1891.58 L2960.35 1886.63 L3036.33 1880.44 L3112.19 1872.64 L3188.17 1862.87 L3264.15 1850.74 L3340.01 1835.76 L3415.99 1817.57 L3491.98 1795.54 L3567.84 1768.94 L3643.82 1737.01 L3719.80 1699.02 L3795.66 1653.97 L3795.66 915.65 L3719.80 1148.81 L3643.82 1330.97 L3567.84 1472.42 L3491.98 1581.45 L3415.99 1664.86 L3340.01 1728.35 L3264.15 1776.12 L3188.17 1812.00 L3112.19 1838.61 L3036.33 1858.16 L2960.35 1872.52 L2884.36 1882.92 L2808.38 1890.22 L2732.52 1895.54 L2656.54 1899.25 L2580.56 1901.73 L2504.70 1903.33 L2428.72 1904.57 L2352.74 1905.31 L2276.88 1905.93 L2200.89 1906.43 L2124.91 1906.68 L2048.93 1906.92 L1973.07 1907.05 L1897.09 1907.17 L1821.11 1907.29 L1745.25 1907.29 L1669.26 1907.29 L1593.28 1907.42 L1517.42 1907.42 L1441.44 1907.42 L1365.46 1907.42 L1289.47 1907.42 L1213.62 1907.42 L1137.63 1907.42 L1061.65 1907.42 L985.79 1907.42 L909.81 1907.42 L833.83 1907.42 L757.97 1907.42 L681.99 1907.42 L606.00 1907.42 L530.14 1907.42 L530.14 1907.42 Z" stroke-linecap="round" style="fill:#C2C2FF;stroke:#B3B3FF;stroke-width:3.00"/>
	<path d="M530.14 1907.42 L530.14 1907.42 L606.00 1907.42 L681.99 1907.42 L757.97 1907.42 L833.83 1907.42 L909.81 1907.42 L985.79 1907.42 L1061.65 1907.42 L1137.63 1907.42 L1213.62 1907.42 L1289.47 1907.42 L1365.46 1907.42 L1441.44 1907.42 L1517.42 1907.42 L1593.28 1907.42 L1669.26 1907.42 L1745.25 1907.42 L1821.11 1907.42 L1897.09 1907.29 L1973.07 1907.29 L2048.93 1907.17 L2124.91 1907.05 L2200.89 1906.80 L2276.88 1906.43 L2352.74 1905.93 L2428.72 1905.19 L2504.70 1904.08 L2580.56 1902.59 L2656.54 1900.74 L2732.52 1898.26 L2808.38 1894.92 L2884.36 1890.71 L2960.35 1885.27 L3036.33 1878.34 L3112.19 1869.30 L3188.17 1857.92 L3264.15 1843.56 L3340.01 1825.49 L3415.99 1802.97 L3491.98 1775.13 L3567.84 1740.60 L3643.82 1698.15 L3719.80 1646.30 L3795.66 1583.31 L3795.66 986.32 L3719.80 1201.40 L3643.82 1369.83 L3567.84 1500.76 L3491.98 1601.87 L3415.99 1679.46 L3340.01 1738.62 L3264.15 1783.29 L3188.17 1816.83 L3112.19 1841.83 L3036.33 1860.27 L2960.35 1873.88 L2884.36 1883.66 L2808.38 1890.84 L2732.52 1895.79 L2656.54 1899.37 L2580.56 1901.85 L2504.70 1903.46 L2428.72 1904.57 L2352.74 1905.44 L2276.88 1906.06 L2200.89 1906.43 L2124.91 1906.68 L2048.93 1906.92 L1973.07 1907.05 L1897.09 1907.17 L1821.11 1907.29 L1745.25 1907.29 L1669.26 1907.29 L1593.28 1907.42 L1517.42 1907.42 L1441.44 1907.42 L1365.46 1907.42 L1289.47 1907.42 L1213.62 1907.42 L1137.63 1907.42 L1061.65 1907.42 L985.79 1907.42 L909.81 1907.42 L833.83 1907.42 L757.97 1907.42 L681.99 1907.42 L606.00 1907.42 L530.14 1907.42 L530.14 1907.42 Z" stroke-linecap="round" style="fill:#ADADFF;stroke:#9999FF;stroke-width:3.00"/>
	<path d="M530.14 1907.42 L530.14 1907.42 L606.00 1907.42 L681.99 1907.42 L757.97 1907.42 L833.83 1907.42 L909.81 1907.42 L985.79 1907.42 L1061.65 1907.42 L1137.63 1907.42 L1213.62 1907.42 L1289.47 1907.42 L1365.46 1907.42 L1441.44 1907.42 L1517.42 1907.42 L1593.28 1907.42 L1669.26 1907.42 L1745.25 1907.42 L1821.11 1907.42 L1897.09 1907.29 L1973.07 1907.29 L2048.93 1907.17 L2124.91 1907.05 L2200.89 1906.80 L2276.88 1906.43 L2352.74 1905.93 L2428.72 1905.19 L2504.70 1904.08 L2580.56 1902.59 L2656.54 1900.61 L2732.52 1898.01 L2808.38 1894.55 L2884.36 1890.09 L2960.35 1884.28 L3036.33 1876.60 L3112.19 1866.70 L3188.17 1854.08 L3264.15 1837.87 L3340.01 1817.33 L3415.99 1791.46 L3491.98 1758.79 L3567.84 1718.07 L3643.82 1667.34 L3719.80 1604.59 L3795.66 1527.25 L3795.66 1042.38 L3719.80 1243.23 L3643.82 1400.65 L3567.84 1523.29 L3491.98 1618.21 L3415.99 1691.10 L3340.01 1746.79 L3264.15 1788.99 L3188.17 1820.67 L3112.19 1844.43 L3036.33 1862.00 L2960.35 1874.87 L2884.36 1884.40 L2808.38 1891.21 L2732.52 1896.03 L2656.54 1899.50 L2580.56 1901.85 L2504.70 1903.46 L2428.72 1904.70 L2352.74 1905.44 L2276.88 1906.06 L2200.89 1906.43 L2124.91 1906.80 L2048.93 1906.92 L1973.07 1907.05 L1897.09 1907.17 L1821.11 1907.29 L1745.25 1907.29 L1669.26 1907.42 L1593.28 1907.42 L1517.42 1907.42 L1441.44 1907.42 L1365.46 1907.42 L1289.47 1907.42 L1213.62 1907.42 L1137.63 1907.42 L1061.65 1907.42 L985.79 1907.42 L909.81 1907.42 L833.83 1907.42 L757.97 1907.42 L681.99 1907.42 L606.00 1907.42 L530.14 1907.42 L530.14 1907.42 Z" stroke-linecap="round" style="fill:#9999FF;stroke:#8080FF;stroke-width:3.00"/>
	<path d="M530.14 1907.42 L530.14 1907.42 L606.00 1907.42 L681.99 1907.42 L757.97 1907.42 L833.83 1907.42 L909.81 1907.42 L985.79 1907.42 L1061.65 1907.42 L1137.63 1907.42 L1213.62 1907.42 L1289.47 1907.42 L1365.46 1907.42 L1441.44 1907.42 L1517.42 1907.42 L1593.28 1907.42 L1669.26 1907.42 L1745.25 1907.42 L1821.11 1907.29 L1897.09 1907.29 L1973.07 1907.29 L2048.93 1907.17 L2124.91 1907.05 L2200.89 1906.80 L2276.88 1906.43 L2352.74 1905.81 L2428.72 1905.07 L2504.70 1903.95 L2580.56 1902.47 L2656.54 1900.49 L2732.52 1897.77 L2808.38 1894.30 L2884.36 1889.47 L2960.35 1883.29 L3036.33 1875.12 L3112.19 1864.48 L3188.17 1850.74 L3264.15 1833.04 L3340.01 1810.40 L3415.99 1781.44 L3491.98 1744.81 L3567.84 1698.65 L3643.82 1640.85 L3719.80 1568.70 L3795.66 1479.11 L3795.66 1090.52 L3719.80 1279.12 L3643.82 1427.13 L3567.84 1542.59 L3491.98 1632.07 L3415.99 1701.00 L3340.01 1753.72 L3264.15 1793.81 L3188.17 1824.01 L3112.19 1846.66 L3036.33 1863.49 L2960.35 1875.86 L2884.36 1884.90 L2808.38 1891.45 L2732.52 1896.28 L2656.54 1899.62 L2580.56 1901.97 L2504.70 1903.58 L2428.72 1904.70 L2352.74 1905.56 L2276.88 1906.06 L2200.89 1906.55 L2124.91 1906.80 L2048.93 1906.92 L1973.07 1907.17 L1897.09 1907.17 L1821.11 1907.29 L1745.25 1907.29 L1669.26 1907.42 L1593.28 1907.42 L1517.42 1907.42 L1441.44 1907.42 L1365.46 1907.42 L1289.47 1907.42 L1213.62 1907.42 L1137.63 1907.42 L1061.65 1907.42 L985.79 1907.42 L909.81 1907.42 L833.83 1907.42 L757.97 1907.42 L681.99 1907.42 L606.00 1907.42 L530.14 1907.42 L530.14 1907.42 Z" stroke-linecap="round" style="fill:#8585FF;stroke:#6666FF;stroke-width:3.00"/>
	<path d="M530.14 1907.42 L530.14 1907.42 L606.00 1907.42 L681.99 1907.42 L757.97 1907.42 L833.83 1907.42 L909.81 1907.42 L985.79 1907.42 L1061.65 1907.42 L1137.63 1907.42 L1213.62 1907.42 L1289.47 1907.42 L1365.46 1907.42 L1441.44 1907.42 L1517.42 1907.42 L1593.28 1907.42 L1669.26 1907.42 L1745.25 1907.42 L1821.11 1907.29 L1897.09 1907.29 L1973.07 1907.29 L2048.93 1907.17 L2124.91 1906.92 L2200.89 1906.68 L2276.88 1906.30 L2352.74 1905.81 L2428.72 1905.07 L2504.70 1903.95 L2580.56 1902.47 L2656.54 1900.36 L2732.52 1897.64 L2808.38 1893.93 L2884.36 1888.98 L2960.35 1882.42 L3036.33 1873.88 L3112.19 1862.50 L3188.17 1847.77 L3264.15 1828.71 L3340.01 1804.08 L3415.99 1772.53 L3491.98 1732.31 L3567.84 1681.32 L3643.82 1617.09 L3719.80 1536.40 L3795.66 1435.79 L3795.66 1133.71 L3719.80 1311.30 L3643.82 1450.89 L3567.84 1560.04 L3491.98 1644.69 L3415.99 1710.03 L3340.01 1760.03 L3264.15 1798.14 L3188.17 1826.98 L3112.19 1848.64 L3036.33 1864.72 L2960.35 1876.73 L2884.36 1885.39 L2808.38 1891.83 L2732.52 1896.40 L2656.54 1899.75 L2580.56 1901.97 L2504.70 1903.58 L2428.72 1904.70 L2352.74 1905.56 L2276.88 1906.06 L2200.89 1906.55 L2124.91 1906.80 L2048.93 1907.05 L1973.07 1907.17 L1897.09 1907.17 L1821.11 1907.29 L1745.25 1907.29 L1669.26 1907.42 L1593.28 1907.42 L1517.42 1907.42 L1441.44 1907.42 L1365.46 1907.42 L1289.47 1907.42 L1213.62 1907.42 L1137.63 1907.42 L1061.65 1907.42 L985.79 1907.42 L909.81 1907.42 L833.83 1907.42 L757.97 1907.42 L681.99 1907.42 L606.00 1907.42 L530.14 1907.42 L530.14 1907.42 Z" stroke-linecap="round" style="fill:#7171FF;stroke:#4D4DFF;stroke-width:3.00"/>
	<path d="M530.14 1907.42 L530.14 1907.42 L606.00 1907.42 L681.99 1907.42 L757.97 1907.42 L833.83 1907.42 L909.81 1907.42 L985.79 1907.42 L1061.65 1907.42 L1137.63 1907.42 L1213.62 1907.42 L1289.47 1907.42 L1365.46 1907.42 L1441.44 1907.42 L1517.42 1907.42 L1593.28 1907.42 L1669.26 1907.42 L1745.25 1907.42 L1821.11 1907.29 L1897.09 1907.29 L1973.07 1907.17 L2048.93 1907.17 L2124.91 1906.92 L2200.89 1906.68 L2276.88 1906.30 L2352.74 1905.81 L2428.72 1905.07 L2504.70 1903.95 L2580.56 1902.34 L2656.54 1900.24 L2732.52 1897.52 L2808.38 1893.68 L2884.36 1888.48 L2960.35 1881.68 L3036.33 1872.64 L3112.19 1860.64 L3188.17 1845.05 L3264.15 1824.63 L3340.01 1798.27 L3415.99 1764.24 L3491.98 1720.67 L3567.84 1665.23 L3643.82 1595.06 L3719.80 1506.58 L3795.66 1395.82 L3795.66 1173.81 L3719.80 1341.12 L3643.82 1472.92 L3567.84 1576.13 L3491.98 1656.32 L3415.99 1718.32 L3340.01 1765.84 L3264.15 1802.23 L3188.17 1829.70 L3112.19 1850.49 L3036.33 1865.96 L2960.35 1877.47 L2884.36 1885.89 L2808.38 1892.07 L2732.52 1896.53 L2656.54 1899.75 L2580.56 1902.10 L2504.70 1903.71 L2428.72 1904.82 L2352.74 1905.56 L2276.88 1906.18 L2200.89 1906.55 L2124.91 1906.80 L2048.93 1907.05 L1973.07 1907.17 L1897.09 1907.29 L1821.11 1907.29 L1745.25 1907.29 L1669.26 1907.42 L1593.28 1907.42 L1517.42 1907.42 L1441.44 1907.42 L1365.46 1907.42 L1289.47 1907.42 L1213.62 1907.42 L1137.63 1907.42 L1061.65 1907.42 L985.79 1907.42 L909.81 1907.42 L833.83 1907.42 L757.97 1907.42 L681.99 1907.42 L606.00 1907.42 L530.14 1907.42 L530.14 1907.42 Z" stroke-linecap="round" style="fill:#5C5CFF;stroke:#3333FF;stroke-width:3.00"/>
	<path d="M530.14 1907.42 L530.14 1907.42 L606.00 1907.42 L681.99 1907.42 L757.97 1907.42 L833.83 1907.42 L909.81 1907.42 L985.79 1907.42 L1061.65 1907.42 L1137.63 1907.42 L1213.62 1907.42 L1289.47 1907.42 L1365.46 1907.42 L1441.44 1907.42 L1517.42 1907.42 L1593.28 1907.42 L1669.26 1907.42 L1745.25 1907.42 L1821.11 1907.29 L1897.09 1907.29 L1973.07 1907.17 L2048.93 1907.05 L2124.91 1906.92 L2200.89 1906.68 L2276.88 1906.30 L2352.74 1905.81 L2428.72 1904.94 L2504.70 1903.83 L2580.56 1902.34 L2656.54 1900.24 L2732.52 1897.27 L2808.38 1893.43 L2884.36 1888.11 L2960.35 1880.94 L3036.33 1871.53 L3112.19 1858.91 L3188.17 1842.45 L3264.15 1820.79 L3340.01 1792.70 L3415.99 1756.31 L3491.98 1709.66 L3567.84 1650.01 L3643.82 1574.15 L3719.80 1478.24 L3795.66 1357.70 L3795.66 1211.80 L3719.80 1369.46 L3643.82 1493.83 L3567.84 1591.35 L3491.98 1667.34 L3415.99 1726.12 L3340.01 1771.41 L3264.15 1806.06 L3188.17 1832.42 L3112.19 1852.22 L3036.33 1867.07 L2960.35 1878.21 L2884.36 1886.38 L2808.38 1892.32 L2732.52 1896.78 L2656.54 1899.87 L2580.56 1902.10 L2504.70 1903.71 L2428.72 1904.82 L2352.74 1905.56 L2276.88 1906.18 L2200.89 1906.55 L2124.91 1906.80 L2048.93 1907.05 L1973.07 1907.17 L1897.09 1907.29 L1821.11 1907.29 L1745.25 1907.29 L1669.26 1907.42 L1593.28 1907.42 L1517.42 1907.42 L1441.44 1907.42 L1365.46 1907.42 L1289.47 1907.42 L1213.62 1907.42 L1137.63 1907.42 L1061.65 1907.42 L985.79 1907.42 L909.81 1907.42 L833.83 1907.42 L757.97 1907.42 L681.99 1907.42 L606.00 1907.42 L530.14 1907.42 L530.14 1907.42 Z" stroke-linecap="round" style="fill:#4747FF;stroke:#1919FF;stroke-width:3.00"/>
	<path d="M530.14 1907.42 L530.14 1907.42 L606.00 1907.42 L681.99 1907.42 L757.97 1907.42 L833.83 1907.42 L909.81 1907.42 L985.79 1907.42 L1061.65 1907.42 L1137.63 1907.42 L1213.62 1907.42 L1289.47 1907.42 L1365.46 1907.42 L1441.44 1907.42 L1517.42 1907.42 L1593.28 1907.42 L1669.26 1907.42 L1745.25 1907.42 L1821.11 1907.29 L1897.09 1907.29 L1973.07 1907.17 L2048.93 1907.05 L2124.91 1906.92 L2200.89 1906.68 L2276.88 1906.30 L2352.74 1905.69 L2428.72 1904.94 L2504.70 1903.83 L2580.56 1902.22 L2656.54 1900.12 L2732.52 1897.15 L2808.38 1893.19 L2884.36 1887.62 L2960.35 1880.32 L3036.33 1870.42 L3112.19 1857.30 L3188.17 1839.85 L3264.15 1817.08 L3340.01 1787.38 L3415.99 1748.77 L3491.98 1699.02 L3567.84 1635.16 L3643.82 1553.85 L3719.80 1450.89 L3795.66 1320.95 L3795.66 1248.55 L3719.80 1396.93 L3643.82 1514.13 L3567.84 1606.08 L3491.98 1677.98 L3415.99 1733.79 L3340.01 1776.73 L3264.15 1809.78 L3188.17 1834.90 L3112.19 1853.96 L3036.33 1868.19 L2960.35 1878.83 L2884.36 1886.75 L2808.38 1892.57 L2732.52 1896.90 L2656.54 1899.99 L2580.56 1902.22 L2504.70 1903.71 L2428.72 1904.82 L2352.74 1905.69 L2276.88 1906.18 L2200.89 1906.55 L2124.91 1906.92 L2048.93 1907.05 L1973.07 1907.17 L1897.09 1907.29 L1821.11 1907.29 L1745.25 1907.29 L1669.26 1907.42 L1593.28 1907.42 L1517.42 1907.42 L1441.44 1907.42 L1365.46 1907.42 L1289.47 1907.42 L1213.62 1907.42 L1137.63 1907.42 L1061.65 1907.42 L985.79 1907.42 L909.81 1907.42 L833.83 1907.42 L757.97 1907.42 L681.99 1907.42 L606.00 1907.42 L530.14 1907.42 L530.14 1907.42 Z" stroke-linecap="round" style="fill:#3333FF;stroke:#0000FF;stroke-width:3.00"/>
	<circle cx="530.02" cy="1907.29" r="22.03" style="fill:#000000;stroke:#000000;stroke-width:8.64"/>
	<circle cx="606.00" cy="1907.17" r="22.03" style="fill:#000000;stroke:#000000;stroke-width:8.64"/>
	<circle cx="681.86" cy="1907.17" r="22.03" style="fill:#000000;stroke:#000000;stroke-width:8.64"/>
	<circle cx="757.85" cy="1907.17" r="22.03" style="fill:#000000;stroke:#000000;stroke-width:8.64"/>
	<circle cx="833.83" cy="1906.68" r="22.03" style="fill:#000000;stroke:#000000;stroke-width:8.64"/>
	<circle cx="909.69" cy="1906.43" r="22.03" style="fill:#000000;stroke:#000000;stroke-width:8.64"/>
	<circle cx="985.67" cy="1906.30" r="22.03" style="fill:#000000;stroke:#000000;stroke-width:8.64"/>
	<circle cx="1061.65" cy="1906.06" r="22.03" style="fill:#000000;stroke:#000000;stroke-width:8.64"/>
	<circle cx="1137.63" cy="1905.31" r="22.03" style="fill:#000000;stroke:#000000;stroke-width:8.64"/>
	<circle cx="1213.49" cy="1905.31" r="22.03" style="fill:#000000;stroke:#000000;stroke-width:8.64"/>
	<circle cx="1289.47" cy="1905.19" r="22.03" style="fill:#000000;stroke:#000000;stroke-width:8.64"/>
	<circle cx="1365.46" cy="1904.70" r="22.03" style="fill:#000000;stroke:#000000;stroke-width:8.64"/>
	<circle cx="1441.32" cy="1904.70" r="22.03" style="fill:#000000;stroke:#000000;stroke-width:8.64"/>
	<circle cx="1517.30" cy="1904.70" r="22.03" style="fill:#000000;stroke:#000000;stroke-width:8.64"/>
	<circle cx="1593.28" cy="1904.45" r="22.03" style="fill:#000000;stroke:#000000;stroke-width:8.64"/>
	<circle cx="1669.14" cy="1904.32" r="22.03" style="fill:#000000;stroke:#000000;stroke-width:8.64"/>
	<circle cx="1745.12" cy="1904.32" r="22.03" style="fill:#000000;stroke:#000000;stroke-width:8.64"/>
	<circle cx="1821.11" cy="1907.42" r="22.03" style="fill:#000000;stroke:#000000;stroke-width:8.64"/>
	<circle cx="1897.09" cy="1907.17" r="22.03" style="fill:#000000;stroke:#000000;stroke-width:8.64"/>
	<circle cx="1972.95" cy="1907.05" r="22.03" style="fill:#000000;stroke:#000000;stroke-width:8.64"/>
	<circle cx="2048.93" cy="1906.80" r="22.03" style="fill:#000000;stroke:#000000;stroke-width:8.64"/>
	<circle cx="2124.91" cy="1906.55" r="22.03" style="fill:#000000;stroke:#000000;stroke-width:8.64"/>
	<circle cx="2200.77" cy="1906.18" r="22.03" style="fill:#000000;stroke:#000000;stroke-width:8.64"/>
	<circle cx="2276.75" cy="1906.18" r="22.03" style="fill:#000000;stroke:#000000;stroke-width:8.64"/>
	<circle cx="2352.74" cy="1905.81" r="22.03" style="fill:#000000;stroke:#000000;stroke-width:8.64"/>
	<circle cx="2428.59" cy="1904.82" r="22.03" style="fill:#000000;stroke:#000000;stroke-width:8.64"/>
	<circle cx="2504.58" cy="1903.46" r="22.03" style="fill:#000000;stroke:#000000;stroke-width:8.64"/>
	<circle cx="2580.56" cy="1903.46" r="22.03" style="fill:#000000;stroke:#000000;stroke-width:8.64"/>
	<circle cx="2656.54" cy="1901.60" r="22.03" style="fill:#000000;stroke:#000000;stroke-width:8.64"/>
	<circle cx="2732.40" cy="1895.79" r="22.03" style="fill:#000000;stroke:#000000;stroke-width:8.64"/>
	<line x1="390.80" y1="2489.19" x2="390.80" y2="100.86" style="stroke:#000000;stroke-width:5.76"/>
	<line x1="390.80" y1="2425.82" x2="350.83" y2="2425.82" style="stroke:#000000;stroke-width:5.76"/>
	<text x="300.72" y="2425.82" style="font-family:'Helvetica';font-size:99.99px;fill:#000000" transform="rotate(-90 300.72,2425.82)" text-anchor="middle">-50</text>
	<line x1="390.80" y1="1907.42" x2="350.83" y2="1907.42" style="stroke:#000000;stroke-width:5.76"/>
	<text x="300.72" y="1907.42" style="font-family:'Helvetica';font-size:99.99px;fill:#000000" transform="rotate(-90 300.72,1907.42)" text-anchor="middle">0</text>
	<line x1="390.80" y1="1389.01" x2="350.83" y2="1389.01" style="stroke:#000000;stroke-width:5.76"/>
	<text x="300.72" y="1389.01" style="font-family:'Helvetica';font-size:99.99px;fill:#000000" transform="rotate(-90 300.72,1389.01)" text-anchor="middle">50</text>
	<line x1="390.80" y1="870.61" x2="350.83" y2="870.61" style="stroke:#000000;stroke-width:5.76"/>
	<text x="300.72" y="870.61" style="font-family:'Helvetica';font-size:99.99px;fill:#000000" transform="rotate(-90 300.72,870.61)" text-anchor="middle">100</text>
	<line x1="390.80" y1="352.20" x2="350.83" y2="352.20" style="stroke:#000000;stroke-width:5.76"/>
	<text x="300.72" y="352.20" style="font-family:'Helvetica';font-size:99.99px;fill:#000000" transform="rotate(-90 300.72,352.20)" text-anchor="middle">150</text>
	<text x="190.71" y="1294.96" style="font-family:'Helvetica';font-size:99.99px;fill:#000000" transform="rotate(-90 190.71,1294.96)" text-anchor="middle">Confirmed cases per 100 beds</text>
	<line x1="390.80" y1="2489.19" x2="3859.02" y2="2489.19" style="stroke:#000000;stroke-width:5.76"/>
	<line x1="454.16" y1="2489.19" x2="454.16" y2="2529.16" style="stroke:#000000;stroke-width:5.76"/>
	<text x="454.16" y="2619.14" style="font-family:'Helvetica';font-size:99.99px;fill:#000000" text-anchor="middle">0</text>
	<line x1="1213.62" y1="2489.19" x2="1213.62" y2="2529.16" style="stroke:#000000;stroke-width:5.76"/>
	<text x="1213.62" y="2619.14" style="font-family:'Helvetica';font-size:99.99px;fill:#000000" text-anchor="middle">10</text>
	<line x1="1973.07" y1="2489.19" x2="1973.07" y2="2529.16" style="stroke:#000000;stroke-width:5.76"/>
	<text x="1973.07" y="2619.14" style="font-family:'Helvetica';font-size:99.99px;fill:#000000" text-anchor="middle">20</text>
	<line x1="2732.52" y1="2489.19" x2="2732.52" y2="2529.16" style="stroke:#000000;stroke-width:5.76"/>
	<text x="2732.52" y="2619.14" style="font-family:'Helvetica';font-size:99.99px;fill:#000000" text-anchor="middle">30</text>
	<line x1="3491.98" y1="2489.19" x2="3491.98" y2="2529.16" style="stroke:#000000;stroke-width:5.76"/>
	<text x="3491.98" y="2619.14" style="font-family:'Helvetica';font-size:99.99px;fill:#000000" text-anchor="middle">40</text>
	<text x="2124.91" y="2729.16" style="font-family:'Helvetica';font-size:99.99px;fill:#000000" text-anchor="middle">Days since 0.01 confirmed cases per 100 beds</text>
</svg>
