<?xml version="1.0" encoding="UTF-8" standalone="no"?>
<!-- This is a Stata 14.2 generated SVG file (http://www.stata.com) -->

<svg version="1.1" width="5.50in" height="4.00in" viewBox="0 0 3960 2880" xmlns="http://www.w3.org/2000/svg">
	<desc>Stata Graph - Graph</desc>
	<line x1="390.80" y1="933.35" x2="3859.02" y2="933.35" style="stroke:#FF0000;stroke-width:8.64"/>
	<path d="M537.69 2425.82 L537.69 2425.82 L621.23 2425.70 L704.76 2425.45 L788.29 2424.83 L871.82 2423.72 L955.35 2421.99 L1038.88 2419.64 L1122.41 2416.17 L1205.94 2411.59 L1289.47 2405.65 L1373.13 2398.23 L1456.66 2388.94 L1540.19 2377.81 L1623.72 2364.32 L1707.26 2347.98 L1790.79 2328.55 L1874.32 2306.15 L1957.85 2282.39 L2041.38 2258.51 L2124.91 2234.75 L2208.44 2211.73 L2291.97 2190.32 L2375.51 2171.39 L2459.04 2156.16 L2542.57 2145.89 L2626.22 2141.93 L2709.75 2145.77 L2793.28 2158.89 L2876.82 2182.65 L2960.35 2218.54 L3043.88 2268.04 L3127.41 2332.39 L3210.94 2412.71 L3210.94 164.22 L3127.41 449.35 L3043.88 708.74 L2960.35 942.88 L2876.82 1152.89 L2793.28 1340.01 L2709.75 1505.47 L2626.22 1650.51 L2542.57 1776.86 L2459.04 1886.01 L2375.51 1979.44 L2291.97 2058.89 L2208.44 2125.60 L2124.91 2181.29 L2041.38 2227.07 L1957.85 2264.20 L1874.32 2293.41 L1790.79 2316.67 L1707.26 2336.23 L1623.72 2352.81 L1540.19 2366.92 L1456.66 2378.55 L1373.13 2387.95 L1289.47 2395.50 L1205.94 2401.57 L1122.41 2406.39 L1038.88 2410.35 L955.35 2413.57 L871.82 2416.17 L788.29 2418.27 L704.76 2419.88 L621.23 2421.24 L537.69 2422.23 L537.69 2425.82 Z" stroke-linecap="round" style="fill:#EBEBFF;stroke:#E6E6FF;stroke-width:3.00"/>
	<path d="M537.69 2424.83 L537.69 2424.83 L621.23 2424.46 L704.76 2423.84 L788.29 2422.85 L871.82 2421.49 L955.35 2419.64 L1038.88 2416.91 L1122.41 2413.32 L1205.94 2408.75 L1289.47 2402.68 L1373.13 2395.26 L1456.66 2385.97 L1540.19 2374.59 L1623.72 2360.98 L1707.26 2344.64 L1790.79 2325.09 L1874.32 2302.44 L1957.85 2277.07 L2041.38 2249.47 L2124.91 2219.28 L2208.44 2186.85 L2291.97 2152.33 L2375.51 2115.94 L2459.04 2078.20 L2542.57 2039.34 L2626.22 2000.11 L2709.75 1961.00 L2793.28 1922.52 L2876.82 1885.51 L2960.35 1850.37 L3043.88 1817.94 L3127.41 1788.86 L3210.94 1763.74 L3210.94 813.06 L3127.41 992.88 L3043.88 1158.71 L2960.35 1311.05 L2876.82 1450.15 L2793.28 1576.38 L2709.75 1690.23 L2626.22 1792.33 L2542.57 1883.41 L2459.04 1963.97 L2375.51 2034.88 L2291.97 2096.76 L2208.44 2150.47 L2124.91 2196.75 L2041.38 2236.11 L1957.85 2269.40 L1874.32 2297.12 L1790.79 2320.14 L1707.26 2339.57 L1623.72 2356.15 L1540.19 2370.01 L1456.66 2381.52 L1373.13 2390.92 L1289.47 2398.47 L1205.94 2404.41 L1122.41 2409.24 L1038.88 2413.08 L955.35 2416.05 L871.82 2418.27 L788.29 2420.13 L704.76 2421.49 L621.23 2422.48 L537.69 2423.35 L537.69 2424.83 Z" stroke-linecap="round" style="fill:#D6D6FF;stroke:#CCCCFF;stroke-width:3.00"/>
	<path d="M537.69 2424.59 L537.69 2424.59 L621.23 2424.21 L704.76 2423.60 L788.29 2422.61 L871.82 2421.12 L955.35 2419.26 L1038.88 2416.54 L1122.41 2412.95 L1205.94 2408.25 L1289.47 2402.31 L1373.13 2394.76 L1456.66 2385.48 L1540.19 2374.09 L1623.72 2360.48 L1707.26 2344.02 L1790.79 2324.59 L1874.32 2301.82 L1957.85 2276.33 L2041.38 2247.99 L2124.91 2216.80 L2208.44 2182.89 L2291.97 2146.26 L2375.51 2107.03 L2459.04 2065.58 L2542.57 2022.14 L2626.22 1977.22 L2709.75 1931.06 L2793.28 1884.28 L2876.82 1837.37 L2960.35 1790.84 L3043.88 1745.18 L3127.41 1701.00 L3210.94 1658.80 L3210.94 918.13 L3127.41 1080.74 L3043.88 1231.60 L2960.35 1370.57 L2876.82 1498.16 L2793.28 1614.62 L2709.75 1720.18 L2626.22 1815.35 L2542.57 1900.61 L2459.04 1976.60 L2375.51 2043.80 L2291.97 2102.95 L2208.44 2154.55 L2124.91 2199.23 L2041.38 2237.59 L1957.85 2270.26 L1874.32 2297.74 L1790.79 2320.63 L1707.26 2340.19 L1623.72 2356.64 L1540.19 2370.51 L1456.66 2382.01 L1373.13 2391.42 L1289.47 2398.97 L1205.94 2404.91 L1122.41 2409.74 L1038.88 2413.45 L955.35 2416.42 L871.82 2418.65 L788.29 2420.38 L704.76 2421.74 L621.23 2422.73 L537.69 2423.47 L537.69 2424.59 Z" stroke-linecap="round" style="fill:#C2C2FF;stroke:#B3B3FF;stroke-width:3.00"/>
	<path d="M537.69 2424.59 L537.69 2424.59 L621.23 2424.09 L704.76 2423.35 L788.29 2422.36 L871.82 2421.00 L955.35 2418.89 L1038.88 2416.17 L1122.41 2412.58 L1205.94 2407.88 L1289.47 2401.94 L1373.13 2394.39 L1456.66 2385.11 L1540.19 2373.85 L1623.72 2360.11 L1707.26 2343.65 L1790.79 2324.22 L1874.32 2301.45 L1957.85 2275.71 L2041.38 2247.00 L2124.91 2215.19 L2208.44 2180.17 L2291.97 2142.06 L2375.51 2100.97 L2459.04 2057.04 L2542.57 2010.51 L2626.22 1961.75 L2709.75 1910.88 L2793.28 1858.54 L2876.82 1804.95 L2960.35 1750.62 L3043.88 1696.05 L3127.41 1641.72 L3210.94 1587.89 L3210.94 988.92 L3127.41 1140.02 L3043.88 1280.73 L2960.35 1410.79 L2876.82 1530.59 L2793.28 1640.36 L2709.75 1740.35 L2626.22 1830.81 L2542.57 1912.24 L2459.04 1985.14 L2375.51 2049.86 L2291.97 2107.03 L2208.44 2157.28 L2124.91 2200.84 L2041.38 2238.58 L1957.85 2270.88 L1874.32 2298.11 L1790.79 2321.00 L1707.26 2340.56 L1623.72 2357.02 L1540.19 2370.88 L1456.66 2382.39 L1373.13 2391.67 L1289.47 2399.22 L1205.94 2405.28 L1122.41 2409.98 L1038.88 2413.82 L955.35 2416.67 L871.82 2418.89 L788.29 2420.63 L704.76 2421.86 L621.23 2422.85 L537.69 2423.60 L537.69 2424.59 Z" stroke-linecap="round" style="fill:#ADADFF;stroke:#9999FF;stroke-width:3.00"/>
	<path d="M537.69 2424.46 L537.69 2424.46 L621.23 2423.97 L704.76 2423.22 L788.29 2422.23 L871.82 2420.75 L955.35 2418.77 L1038.88 2416.05 L1122.41 2412.33 L1205.94 2407.63 L1289.47 2401.69 L1373.13 2394.14 L1456.66 2384.86 L1540.19 2373.48 L1623.72 2359.86 L1707.26 2343.40 L1790.79 2323.85 L1874.32 2301.20 L1957.85 2275.21 L2041.38 2246.13 L2124.91 2213.83 L2208.44 2178.07 L2291.97 2138.84 L2375.51 2096.14 L2459.04 2050.35 L2542.57 2001.35 L2626.22 1949.37 L2709.75 1894.92 L2793.28 1837.99 L2876.82 1779.21 L2960.35 1718.69 L3043.88 1657.06 L3127.41 1594.57 L3210.94 1531.58 L3210.94 1045.23 L3127.41 1187.17 L3043.88 1319.71 L2960.35 1442.72 L2876.82 1556.45 L2793.28 1660.90 L2709.75 1756.31 L2626.22 1843.07 L2542.57 1921.53 L2459.04 1991.82 L2375.51 2054.69 L2291.97 2110.37 L2208.44 2159.38 L2124.91 2202.20 L2041.38 2239.33 L1957.85 2271.25 L1874.32 2298.36 L1790.79 2321.38 L1707.26 2340.80 L1623.72 2357.39 L1540.19 2371.12 L1456.66 2382.63 L1373.13 2391.91 L1289.47 2399.46 L1205.94 2405.53 L1122.41 2410.23 L1038.88 2413.94 L955.35 2416.91 L871.82 2419.14 L788.29 2420.75 L704.76 2422.11 L621.23 2422.98 L537.69 2423.72 L537.69 2424.46 Z" stroke-linecap="round" style="fill:#9999FF;stroke:#8080FF;stroke-width:3.00"/>
	<path d="M537.69 2424.34 L537.69 2424.34 L621.23 2423.84 L704.76 2423.10 L788.29 2422.11 L871.82 2420.63 L955.35 2418.52 L1038.88 2415.80 L1122.41 2412.21 L1205.94 2407.51 L1289.47 2401.44 L1373.13 2393.89 L1456.66 2384.61 L1540.19 2373.23 L1623.72 2359.61 L1707.26 2343.16 L1790.79 2323.60 L1874.32 2300.83 L1957.85 2274.84 L2041.38 2245.51 L2124.91 2212.60 L2208.44 2176.21 L2291.97 2135.99 L2375.51 2092.06 L2459.04 2044.54 L2542.57 1993.43 L2626.22 1938.85 L2709.75 1881.06 L2793.28 1820.42 L2876.82 1757.06 L2960.35 1691.34 L3043.88 1623.53 L3127.41 1554.10 L3210.94 1483.31 L3210.94 1093.49 L3127.41 1227.64 L3043.88 1353.25 L2960.35 1470.20 L2876.82 1578.48 L2793.28 1678.47 L2709.75 1770.05 L2626.22 1853.71 L2542.57 1929.45 L2459.04 1997.63 L2375.51 2058.77 L2291.97 2113.22 L2208.44 2161.24 L2124.91 2203.44 L2041.38 2240.07 L1957.85 2271.75 L1874.32 2298.73 L1790.79 2321.62 L1707.26 2341.05 L1623.72 2357.63 L1540.19 2371.37 L1456.66 2382.88 L1373.13 2392.16 L1289.47 2399.71 L1205.94 2405.78 L1122.41 2410.48 L1038.88 2414.19 L955.35 2417.04 L871.82 2419.26 L788.29 2420.87 L704.76 2422.11 L621.23 2423.10 L537.69 2423.72 L537.69 2424.34 Z" stroke-linecap="round" style="fill:#8585FF;stroke:#6666FF;stroke-width:3.00"/>
	<path d="M537.69 2424.34 L537.69 2424.34 L621.23 2423.72 L704.76 2422.98 L788.29 2421.99 L871.82 2420.38 L955.35 2418.40 L1038.88 2415.68 L1122.41 2411.96 L1205.94 2407.26 L1289.47 2401.32 L1373.13 2393.77 L1456.66 2384.49 L1540.19 2373.10 L1623.72 2359.37 L1707.26 2342.91 L1790.79 2323.36 L1874.32 2300.58 L1957.85 2274.47 L2041.38 2244.90 L2124.91 2211.61 L2208.44 2174.48 L2291.97 2133.39 L2375.51 2088.35 L2459.04 2039.34 L2542.57 1986.25 L2626.22 1929.32 L2709.75 1868.81 L2793.28 1804.58 L2876.82 1737.13 L2960.35 1666.72 L3043.88 1593.45 L3127.41 1517.72 L3210.94 1440.00 L3210.94 1136.93 L3127.41 1264.02 L3043.88 1383.32 L2960.35 1494.70 L2876.82 1598.40 L2793.28 1694.31 L2709.75 1782.43 L2626.22 1863.11 L2542.57 1936.50 L2459.04 2002.83 L2375.51 2062.48 L2291.97 2115.70 L2208.44 2162.85 L2124.91 2204.43 L2041.38 2240.69 L1957.85 2272.00 L1874.32 2298.98 L1790.79 2321.87 L1707.26 2341.30 L1623.72 2357.76 L1540.19 2371.62 L1456.66 2383.00 L1373.13 2392.41 L1289.47 2399.83 L1205.94 2405.90 L1122.41 2410.60 L1038.88 2414.31 L955.35 2417.28 L871.82 2419.39 L788.29 2421.12 L704.76 2422.23 L621.23 2423.22 L537.69 2423.84 L537.69 2424.34 Z" stroke-linecap="round" style="fill:#7171FF;stroke:#4D4DFF;stroke-width:3.00"/>
	<path d="M537.69 2424.21 L537.69 2424.21 L621.23 2423.72 L704.76 2422.98 L788.29 2421.86 L871.82 2420.25 L955.35 2418.27 L1038.88 2415.43 L1122.41 2411.84 L1205.94 2407.14 L1289.47 2401.07 L1373.13 2393.52 L1456.66 2384.24 L1540.19 2372.86 L1623.72 2359.12 L1707.26 2342.66 L1790.79 2323.23 L1874.32 2300.46 L1957.85 2274.22 L2041.38 2244.28 L2124.91 2210.62 L2208.44 2172.99 L2291.97 2131.04 L2375.51 2084.88 L2459.04 2034.51 L2542.57 1979.69 L2626.22 1920.54 L2709.75 1857.30 L2793.28 1789.98 L2876.82 1718.82 L2960.35 1643.95 L3043.88 1565.61 L3127.41 1484.06 L3210.94 1399.78 L3210.94 1177.02 L3127.41 1297.68 L3043.88 1411.17 L2960.35 1517.59 L2876.82 1616.84 L2793.28 1708.92 L2709.75 1793.94 L2626.22 1871.90 L2542.57 1943.06 L2459.04 2007.66 L2375.51 2065.95 L2291.97 2118.05 L2208.44 2164.46 L2124.91 2205.42 L2041.38 2241.18 L1957.85 2272.37 L1874.32 2299.10 L1790.79 2321.99 L1707.26 2341.55 L1623.72 2358.01 L1540.19 2371.74 L1456.66 2383.25 L1373.13 2392.53 L1289.47 2400.08 L1205.94 2406.15 L1122.41 2410.85 L1038.88 2414.56 L955.35 2417.41 L871.82 2419.51 L788.29 2421.12 L704.76 2422.36 L621.23 2423.22 L537.69 2423.84 L537.69 2424.21 Z" stroke-linecap="round" style="fill:#5C5CFF;stroke:#3333FF;stroke-width:3.00"/>
	<path d="M537.69 2424.21 L537.69 2424.21 L621.23 2423.60 L704.76 2422.85 L788.29 2421.74 L871.82 2420.13 L955.35 2418.03 L1038.88 2415.30 L1122.41 2411.59 L1205.94 2406.89 L1289.47 2400.95 L1373.13 2393.40 L1456.66 2384.12 L1540.19 2372.73 L1623.72 2359.00 L1707.26 2342.54 L1790.79 2322.98 L1874.32 2300.21 L1957.85 2273.85 L2041.38 2243.78 L2124.91 2209.75 L2208.44 2171.51 L2291.97 2128.81 L2375.51 2081.66 L2459.04 2029.93 L2542.57 1973.38 L2626.22 1912.24 L2709.75 1846.41 L2793.28 1776.12 L2876.82 1701.37 L2960.35 1622.29 L3043.88 1539.13 L3127.41 1452.13 L3210.94 1361.66 L3210.94 1215.26 L3127.41 1329.61 L3043.88 1437.65 L2960.35 1539.25 L2876.82 1634.29 L2793.28 1722.78 L2709.75 1804.70 L2626.22 1880.19 L2542.57 1949.37 L2459.04 2012.24 L2375.51 2069.16 L2291.97 2120.28 L2208.44 2165.94 L2124.91 2206.28 L2041.38 2241.80 L1957.85 2272.62 L1874.32 2299.35 L1790.79 2322.24 L1707.26 2341.67 L1623.72 2358.25 L1540.19 2371.99 L1456.66 2383.38 L1373.13 2392.66 L1289.47 2400.21 L1205.94 2406.27 L1122.41 2410.97 L1038.88 2414.69 L955.35 2417.53 L871.82 2419.64 L788.29 2421.24 L704.76 2422.48 L621.23 2423.35 L537.69 2423.97 L537.69 2424.21 Z" stroke-linecap="round" style="fill:#4747FF;stroke:#1919FF;stroke-width:3.00"/>
	<path d="M537.69 2424.09 L537.69 2424.09 L621.23 2423.60 L704.76 2422.73 L788.29 2421.62 L871.82 2420.01 L955.35 2417.90 L1038.88 2415.18 L1122.41 2411.47 L1205.94 2406.77 L1289.47 2400.70 L1373.13 2393.28 L1456.66 2383.87 L1540.19 2372.49 L1623.72 2358.75 L1707.26 2342.29 L1790.79 2322.86 L1874.32 2299.97 L1957.85 2273.61 L2041.38 2243.29 L2124.91 2208.88 L2208.44 2170.15 L2291.97 2126.71 L2375.51 2078.57 L2459.04 2025.48 L2542.57 1967.32 L2626.22 1904.20 L2709.75 1835.89 L2793.28 1762.63 L2876.82 1684.41 L2960.35 1601.38 L3043.88 1513.51 L3127.41 1421.31 L3210.94 1324.79 L3210.94 1252.14 L3127.41 1360.43 L3043.88 1463.14 L2960.35 1560.17 L2876.82 1651.12 L2793.28 1736.27 L2709.75 1815.22 L2626.22 1888.36 L2542.57 1955.43 L2459.04 2016.69 L2375.51 2072.38 L2291.97 2122.50 L2208.44 2167.30 L2124.91 2207.15 L2041.38 2242.30 L1957.85 2272.99 L1874.32 2299.59 L1790.79 2322.37 L1707.26 2341.92 L1623.72 2358.38 L1540.19 2372.11 L1456.66 2383.62 L1373.13 2392.90 L1289.47 2400.45 L1205.94 2406.39 L1122.41 2411.22 L1038.88 2414.81 L955.35 2417.66 L871.82 2419.76 L788.29 2421.37 L704.76 2422.61 L621.23 2423.35 L537.69 2423.97 L537.69 2424.09 Z" stroke-linecap="round" style="fill:#3333FF;stroke:#0000FF;stroke-width:3.00"/>
	<circle cx="537.57" cy="2422.85" r="22.03" style="fill:#000000;stroke:#000000;stroke-width:8.64"/>
	<circle cx="621.10" cy="2422.48" r="22.03" style="fill:#000000;stroke:#000000;stroke-width:8.64"/>
	<circle cx="704.76" cy="2421.86" r="22.03" style="fill:#000000;stroke:#000000;stroke-width:8.64"/>
	<circle cx="788.29" cy="2421.00" r="22.03" style="fill:#000000;stroke:#000000;stroke-width:8.64"/>
	<circle cx="871.82" cy="2419.64" r="22.03" style="fill:#000000;stroke:#000000;stroke-width:8.64"/>
	<circle cx="955.35" cy="2416.54" r="22.03" style="fill:#000000;stroke:#000000;stroke-width:8.64"/>
	<circle cx="1038.88" cy="2410.48" r="22.03" style="fill:#000000;stroke:#000000;stroke-width:8.64"/>
	<circle cx="1122.41" cy="2406.89" r="22.03" style="fill:#000000;stroke:#000000;stroke-width:8.64"/>
	<circle cx="1205.94" cy="2405.78" r="22.03" style="fill:#000000;stroke:#000000;stroke-width:8.64"/>
	<circle cx="1289.47" cy="2400.58" r="22.03" style="fill:#000000;stroke:#000000;stroke-width:8.64"/>
	<circle cx="1373.01" cy="2397.24" r="22.03" style="fill:#000000;stroke:#000000;stroke-width:8.64"/>
	<circle cx="1456.54" cy="2391.30" r="22.03" style="fill:#000000;stroke:#000000;stroke-width:8.64"/>
	<circle cx="1540.07" cy="2373.97" r="22.03" style="fill:#000000;stroke:#000000;stroke-width:8.64"/>
	<circle cx="1623.60" cy="2358.87" r="22.03" style="fill:#000000;stroke:#000000;stroke-width:8.64"/>
	<circle cx="1707.13" cy="2343.03" r="22.03" style="fill:#000000;stroke:#000000;stroke-width:8.64"/>
	<circle cx="1790.66" cy="2320.39" r="22.03" style="fill:#000000;stroke:#000000;stroke-width:8.64"/>
	<circle cx="1874.19" cy="2295.02" r="22.03" style="fill:#000000;stroke:#000000;stroke-width:8.64"/>
	<circle cx="1957.85" cy="2270.14" r="22.03" style="fill:#000000;stroke:#000000;stroke-width:8.64"/>
	<circle cx="2041.38" cy="2247.62" r="22.03" style="fill:#000000;stroke:#000000;stroke-width:8.64"/>
	<line x1="390.80" y1="2489.19" x2="390.80" y2="100.86" style="stroke:#000000;stroke-width:5.76"/>
	<line x1="390.80" y1="2425.20" x2="350.83" y2="2425.20" style="stroke:#000000;stroke-width:5.76"/>
	<text x="300.72" y="2425.20" style="font-family:'Helvetica';font-size:99.99px;fill:#000000" transform="rotate(-90 300.72,2425.20)" text-anchor="middle">0</text>
	<line x1="390.80" y1="1679.22" x2="350.83" y2="1679.22" style="stroke:#000000;stroke-width:5.76"/>
	<text x="300.72" y="1679.22" style="font-family:'Helvetica';font-size:99.99px;fill:#000000" transform="rotate(-90 300.72,1679.22)" text-anchor="middle">5</text>
	<line x1="390.80" y1="933.35" x2="350.83" y2="933.35" style="stroke:#000000;stroke-width:5.76"/>
	<text x="300.72" y="933.35" style="font-family:'Helvetica';font-size:99.99px;fill:#000000" transform="rotate(-90 300.72,933.35)" text-anchor="middle">10</text>
	<line x1="390.80" y1="187.36" x2="350.83" y2="187.36" style="stroke:#000000;stroke-width:5.76"/>
	<text x="300.72" y="187.36" style="font-family:'Helvetica';font-size:99.99px;fill:#000000" transform="rotate(-90 300.72,187.36)" text-anchor="middle">15</text>
	<text x="190.71" y="1294.96" style="font-family:'Helvetica';font-size:99.99px;fill:#000000" transform="rotate(-90 190.71,1294.96)" text-anchor="middle">Confirmed cases per 100 beds</text>
	<line x1="390.80" y1="2489.19" x2="3859.02" y2="2489.19" style="stroke:#000000;stroke-width:5.76"/>
	<line x1="454.16" y1="2489.19" x2="454.16" y2="2529.16" style="stroke:#000000;stroke-width:5.76"/>
	<text x="454.16" y="2619.14" style="font-family:'Helvetica';font-size:99.99px;fill:#000000" text-anchor="middle">0</text>
	<line x1="1289.47" y1="2489.19" x2="1289.47" y2="2529.16" style="stroke:#000000;stroke-width:5.76"/>
	<text x="1289.47" y="2619.14" style="font-family:'Helvetica';font-size:99.99px;fill:#000000" text-anchor="middle">10</text>
	<line x1="2124.91" y1="2489.19" x2="2124.91" y2="2529.16" style="stroke:#000000;stroke-width:5.76"/>
	<text x="2124.91" y="2619.14" style="font-family:'Helvetica';font-size:99.99px;fill:#000000" text-anchor="middle">20</text>
	<line x1="2960.35" y1="2489.19" x2="2960.35" y2="2529.16" style="stroke:#000000;stroke-width:5.76"/>
	<text x="2960.35" y="2619.14" style="font-family:'Helvetica';font-size:99.99px;fill:#000000" text-anchor="middle">30</text>
	<line x1="3795.66" y1="2489.19" x2="3795.66" y2="2529.16" style="stroke:#000000;stroke-width:5.76"/>
	<text x="3795.66" y="2619.14" style="font-family:'Helvetica';font-size:99.99px;fill:#000000" text-anchor="middle">40</text>
	<text x="2124.91" y="2729.16" style="font-family:'Helvetica';font-size:99.99px;fill:#000000" text-anchor="middle">Days since 0.01 confirmed cases per 100 beds</text>
</svg>
