<?xml version="1.0" encoding="UTF-8" standalone="no"?>
<!-- This is a Stata 14.2 generated SVG file (http://www.stata.com) -->

<svg version="1.1" width="5.50in" height="4.00in" viewBox="0 0 3960 2880" xmlns="http://www.w3.org/2000/svg">
	<desc>Stata Graph - Graph</desc>
	<line x1="390.80" y1="-731.01" x2="3859.02" y2="-731.01" style="stroke:#FF0000;stroke-width:8.64"/>
	<path d="M561.95 1904.45 L561.95 1904.45 L669.74 1904.32 L777.52 1903.21 L885.31 1900.61 L993.09 1896.16 L1100.88 1889.85 L1208.67 1881.68 L1316.45 1872.40 L1424.24 1862.25 L1532.03 1851.23 L1639.81 1838.36 L1747.60 1822.77 L1855.51 1803.47 L1963.29 1779.95 L2071.08 1753.10 L2178.87 1727.23 L2286.65 1709.41 L2394.44 1701.24 L2502.22 1701.49 L2610.01 1709.78 L2717.80 1726.12 L2825.58 1750.37 L2933.37 1782.80 L3041.16 1823.02 L3148.94 1870.79 L3256.73 1925.73 L3364.51 1987.24 L3472.30 2054.81 L3580.09 2127.58 L3687.87 2205.05 L3795.66 2286.35 L3795.66 164.22 L3687.87 303.69 L3580.09 441.43 L3472.30 576.45 L3364.51 707.75 L3256.73 834.47 L3148.94 955.75 L3041.16 1070.72 L2933.37 1178.38 L2825.58 1278.25 L2717.80 1369.58 L2610.01 1451.88 L2502.22 1524.77 L2394.44 1587.64 L2286.65 1639.61 L2178.87 1678.97 L2071.08 1706.94 L1963.29 1730.08 L1855.51 1752.48 L1747.60 1774.75 L1639.81 1796.16 L1532.03 1815.96 L1424.24 1832.92 L1316.45 1846.53 L1208.67 1856.80 L1100.88 1864.60 L993.09 1870.79 L885.31 1876.11 L777.52 1880.81 L669.74 1884.90 L561.95 1888.48 L561.95 1904.45 Z" stroke-linecap="round" style="fill:#EBEBFF;stroke:#E6E6FF;stroke-width:3.00"/>
	<path d="M561.95 1899.87 L561.95 1899.87 L669.74 1898.76 L777.52 1896.65 L885.31 1893.56 L993.09 1888.86 L1100.88 1882.54 L1208.67 1874.50 L1316.45 1864.85 L1424.24 1853.71 L1532.03 1840.96 L1639.81 1826.24 L1747.60 1808.91 L1855.51 1788.74 L1963.29 1765.60 L2071.08 1739.73 L2178.87 1713.37 L2286.65 1689.24 L2394.44 1668.45 L2502.22 1650.51 L2610.01 1635.41 L2717.80 1623.16 L2825.58 1614.12 L2933.37 1608.31 L3041.16 1605.83 L3148.94 1606.70 L3256.73 1610.78 L3364.51 1617.96 L3472.30 1628.11 L3580.09 1640.98 L3687.87 1656.32 L3795.66 1673.89 L3795.66 776.68 L3687.87 852.42 L3580.09 928.03 L3472.30 1003.15 L3364.51 1077.03 L3256.73 1149.43 L3148.94 1219.84 L3041.16 1287.78 L2933.37 1352.88 L2825.58 1414.51 L2717.80 1472.42 L2610.01 1526.26 L2502.22 1575.76 L2394.44 1620.43 L2286.65 1659.79 L2178.87 1692.83 L2071.08 1720.18 L1963.29 1744.43 L1855.51 1767.21 L1747.60 1788.61 L1639.81 1808.42 L1532.03 1826.11 L1424.24 1841.33 L1316.45 1853.96 L1208.67 1863.98 L1100.88 1871.90 L993.09 1878.09 L885.31 1883.16 L777.52 1887.25 L669.74 1890.46 L561.95 1893.06 L561.95 1899.87 Z" stroke-linecap="round" style="fill:#D6D6FF;stroke:#CCCCFF;stroke-width:3.00"/>
	<path d="M561.95 1899.13 L561.95 1899.13 L669.74 1897.77 L777.52 1895.66 L885.31 1892.32 L993.09 1887.74 L1100.88 1881.43 L1208.67 1873.39 L1316.45 1863.73 L1424.24 1852.35 L1532.03 1839.35 L1639.81 1824.26 L1747.60 1806.68 L1855.51 1786.39 L1963.29 1763.25 L2071.08 1737.63 L2178.87 1711.02 L2286.65 1686.02 L2394.44 1663.13 L2502.22 1642.21 L2610.01 1623.28 L2717.80 1606.57 L2825.58 1592.09 L2933.37 1580.09 L3041.16 1570.81 L3148.94 1564.00 L3256.73 1559.92 L3364.51 1558.31 L3472.30 1559.05 L3580.09 1562.27 L3687.87 1567.47 L3795.66 1574.77 L3795.66 875.68 L3687.87 941.27 L3580.09 1006.86 L3472.30 1072.08 L3364.51 1136.80 L3256.73 1200.41 L3148.94 1262.54 L3041.16 1322.93 L2933.37 1381.09 L2825.58 1436.53 L2717.80 1489.13 L2610.01 1538.38 L2502.22 1584.05 L2394.44 1625.75 L2286.65 1663.00 L2178.87 1695.18 L2071.08 1722.41 L1963.29 1746.79 L1855.51 1769.56 L1747.60 1790.84 L1639.81 1810.40 L1532.03 1827.72 L1424.24 1842.70 L1316.45 1855.19 L1208.67 1865.09 L1100.88 1873.01 L993.09 1879.33 L885.31 1884.28 L777.52 1888.24 L669.74 1891.45 L561.95 1893.81 L561.95 1899.13 Z" stroke-linecap="round" style="fill:#C2C2FF;stroke:#B3B3FF;stroke-width:3.00"/>
	<path d="M561.95 1898.63 L561.95 1898.63 L669.74 1897.15 L777.52 1894.92 L885.31 1891.58 L993.09 1886.88 L1100.88 1880.56 L1208.67 1872.52 L1316.45 1862.87 L1424.24 1851.48 L1532.03 1838.24 L1639.81 1822.89 L1747.60 1805.20 L1855.51 1784.78 L1963.29 1761.64 L2071.08 1736.14 L2178.87 1709.54 L2286.65 1683.80 L2394.44 1659.54 L2502.22 1636.64 L2610.01 1615.24 L2717.80 1595.31 L2825.58 1577.24 L2933.37 1561.16 L3041.16 1547.05 L3148.94 1535.17 L3256.73 1525.51 L3364.51 1517.96 L3472.30 1512.52 L3580.09 1509.18 L3687.87 1507.57 L3795.66 1507.94 L3795.66 942.51 L3687.87 1001.17 L3580.09 1059.95 L3472.30 1118.73 L3364.51 1177.15 L3256.73 1234.82 L3148.94 1291.37 L3041.16 1346.69 L2933.37 1400.15 L2825.58 1451.39 L2717.80 1500.39 L2610.01 1546.43 L2502.22 1589.62 L2394.44 1629.34 L2286.65 1665.23 L2178.87 1696.67 L2071.08 1723.89 L1963.29 1748.39 L1855.51 1771.17 L1747.60 1792.33 L1639.81 1811.63 L1532.03 1828.83 L1424.24 1843.69 L1316.45 1855.94 L1208.67 1865.96 L1100.88 1873.88 L993.09 1880.07 L885.31 1885.14 L777.52 1888.98 L669.74 1892.07 L561.95 1894.30 L561.95 1898.63 Z" stroke-linecap="round" style="fill:#ADADFF;stroke:#9999FF;stroke-width:3.00"/>
	<path d="M561.95 1898.14 L561.95 1898.14 L669.74 1896.65 L777.52 1894.42 L885.31 1890.96 L993.09 1886.26 L1100.88 1879.94 L1208.67 1871.90 L1316.45 1862.25 L1424.24 1850.74 L1532.03 1837.37 L1639.81 1821.90 L1747.60 1803.96 L1855.51 1783.54 L1963.29 1760.40 L2071.08 1735.03 L2178.87 1708.30 L2286.65 1682.06 L2394.44 1656.69 L2502.22 1632.31 L2610.01 1608.80 L2717.80 1586.40 L2825.58 1565.36 L2933.37 1545.93 L3041.16 1528.24 L3148.94 1512.27 L3256.73 1498.16 L3364.51 1485.91 L3472.30 1475.52 L3580.09 1466.85 L3687.87 1460.05 L3795.66 1454.73 L3795.66 995.72 L3687.87 1048.69 L3580.09 1102.15 L3472.30 1155.74 L3364.51 1209.08 L3256.73 1262.17 L3148.94 1314.39 L3041.16 1365.50 L2933.37 1415.25 L2825.58 1463.27 L2717.80 1509.30 L2610.01 1552.99 L2502.22 1593.95 L2394.44 1632.19 L2286.65 1666.96 L2178.87 1697.90 L2071.08 1725.01 L1963.29 1749.63 L1855.51 1772.53 L1747.60 1793.56 L1639.81 1812.75 L1532.03 1829.70 L1424.24 1844.43 L1316.45 1856.68 L1208.67 1866.58 L1100.88 1874.50 L993.09 1880.81 L885.31 1885.76 L777.52 1889.60 L669.74 1892.57 L561.95 1894.80 L561.95 1898.14 Z" stroke-linecap="round" style="fill:#9999FF;stroke:#8080FF;stroke-width:3.00"/>
	<path d="M561.95 1897.89 L561.95 1897.89 L669.74 1896.28 L777.52 1893.93 L885.31 1890.46 L993.09 1885.76 L1100.88 1879.45 L1208.67 1871.41 L1316.45 1861.63 L1424.24 1850.12 L1532.03 1836.63 L1639.81 1820.91 L1747.60 1802.97 L1855.51 1782.43 L1963.29 1759.28 L2071.08 1734.04 L2178.87 1707.31 L2286.65 1680.58 L2394.44 1654.34 L2502.22 1628.48 L2610.01 1603.23 L2717.80 1578.73 L2825.58 1555.21 L2933.37 1532.94 L3041.16 1512.02 L3148.94 1492.60 L3256.73 1474.77 L3364.51 1458.44 L3472.30 1443.71 L3580.09 1430.72 L3687.87 1419.21 L3795.66 1409.19 L3795.66 1041.27 L3687.87 1089.53 L3580.09 1138.41 L3472.30 1187.42 L3364.51 1236.55 L3256.73 1285.56 L3148.94 1333.94 L3041.16 1381.59 L2933.37 1428.24 L2825.58 1473.41 L2717.80 1516.97 L2610.01 1558.43 L2502.22 1597.79 L2394.44 1634.54 L2286.65 1668.45 L2178.87 1698.89 L2071.08 1726.00 L1963.29 1750.75 L1855.51 1773.52 L1747.60 1794.55 L1639.81 1813.61 L1532.03 1830.44 L1424.24 1845.05 L1316.45 1857.17 L1208.67 1867.07 L1100.88 1874.99 L993.09 1881.31 L885.31 1886.26 L777.52 1890.09 L669.74 1892.94 L561.95 1895.04 L561.95 1897.89 Z" stroke-linecap="round" style="fill:#8585FF;stroke:#6666FF;stroke-width:3.00"/>
	<path d="M561.95 1897.52 L561.95 1897.52 L669.74 1895.91 L777.52 1893.43 L885.31 1889.97 L993.09 1885.27 L1100.88 1878.95 L1208.67 1870.91 L1316.45 1861.13 L1424.24 1849.50 L1532.03 1835.89 L1639.81 1820.17 L1747.60 1801.98 L1855.51 1781.44 L1963.29 1758.42 L2071.08 1733.17 L2178.87 1706.32 L2286.65 1679.22 L2394.44 1652.11 L2502.22 1625.01 L2610.01 1598.28 L2717.80 1571.80 L2825.58 1546.18 L2933.37 1521.31 L3041.16 1497.55 L3148.94 1475.02 L3256.73 1453.74 L3364.51 1433.81 L3472.30 1415.25 L3580.09 1398.17 L3687.87 1382.45 L3795.66 1368.22 L3795.66 1082.23 L3687.87 1126.28 L3580.09 1170.84 L3472.30 1216.01 L3364.51 1261.30 L3256.73 1306.59 L3148.94 1351.64 L3041.16 1396.19 L2933.37 1439.88 L2825.58 1482.57 L2717.80 1523.78 L2610.01 1563.51 L2502.22 1601.25 L2394.44 1636.77 L2286.65 1669.81 L2178.87 1699.88 L2071.08 1726.86 L1963.29 1751.61 L1855.51 1774.51 L1747.60 1795.54 L1639.81 1814.48 L1532.03 1831.19 L1424.24 1845.54 L1316.45 1857.67 L1208.67 1867.57 L1100.88 1875.49 L993.09 1881.80 L885.31 1886.75 L777.52 1890.46 L669.74 1893.31 L561.95 1895.41 L561.95 1897.52 Z" stroke-linecap="round" style="fill:#7171FF;stroke:#4D4DFF;stroke-width:3.00"/>
	<path d="M561.95 1897.27 L561.95 1897.27 L669.74 1895.54 L777.52 1893.06 L885.31 1889.60 L993.09 1884.77 L1100.88 1878.46 L1208.67 1870.54 L1316.45 1860.76 L1424.24 1849.01 L1532.03 1835.27 L1639.81 1819.43 L1747.60 1801.11 L1855.51 1780.45 L1963.29 1757.43 L2071.08 1732.31 L2178.87 1705.45 L2286.65 1677.98 L2394.44 1650.01 L2502.22 1621.92 L2610.01 1593.58 L2717.80 1565.49 L2825.58 1537.77 L2933.37 1510.54 L3041.16 1484.06 L3148.94 1458.56 L3256.73 1434.18 L3364.51 1410.92 L3472.30 1388.77 L3580.09 1367.98 L3687.87 1348.55 L3795.66 1330.35 L3795.66 1120.10 L3687.87 1160.19 L3580.09 1201.03 L3472.30 1242.37 L3364.51 1284.19 L3256.73 1326.15 L3148.94 1367.98 L3041.16 1409.56 L2933.37 1450.64 L2825.58 1490.99 L2717.80 1530.22 L2610.01 1568.09 L2502.22 1604.35 L2394.44 1638.75 L2286.65 1671.05 L2178.87 1700.75 L2071.08 1727.73 L1963.29 1752.60 L1855.51 1775.50 L1747.60 1796.41 L1639.81 1815.22 L1532.03 1831.80 L1424.24 1846.16 L1316.45 1858.16 L1208.67 1868.06 L1100.88 1875.98 L993.09 1882.30 L885.31 1887.12 L777.52 1890.84 L669.74 1893.68 L561.95 1895.66 L561.95 1897.27 Z" stroke-linecap="round" style="fill:#5C5CFF;stroke:#3333FF;stroke-width:3.00"/>
	<path d="M561.95 1897.02 L561.95 1897.02 L669.74 1895.29 L777.52 1892.69 L885.31 1889.10 L993.09 1884.28 L1100.88 1878.09 L1208.67 1870.04 L1316.45 1860.27 L1424.24 1848.51 L1532.03 1834.65 L1639.81 1818.69 L1747.60 1800.37 L1855.51 1779.58 L1963.29 1756.69 L2071.08 1731.56 L2178.87 1704.71 L2286.65 1676.74 L2394.44 1648.15 L2502.22 1618.95 L2610.01 1589.25 L2717.80 1559.42 L2825.58 1529.72 L2933.37 1500.27 L3041.16 1471.31 L3148.94 1443.09 L3256.73 1415.62 L3364.51 1389.14 L3472.30 1363.77 L3580.09 1339.39 L3687.87 1316.25 L3795.66 1294.34 L3795.66 1156.11 L3687.87 1192.49 L3580.09 1229.62 L3472.30 1267.49 L3364.51 1305.85 L3256.73 1344.59 L3148.94 1383.57 L3041.16 1422.30 L2933.37 1460.91 L2825.58 1498.91 L2717.80 1536.28 L2610.01 1572.42 L2502.22 1607.32 L2394.44 1640.73 L2286.65 1672.29 L2178.87 1701.49 L2071.08 1728.47 L1963.29 1753.34 L1855.51 1776.36 L1747.60 1797.15 L1639.81 1815.96 L1532.03 1832.42 L1424.24 1846.66 L1316.45 1858.54 L1208.67 1868.44 L1100.88 1876.36 L993.09 1882.67 L885.31 1887.49 L777.52 1891.21 L669.74 1893.93 L561.95 1895.91 L561.95 1897.02 Z" stroke-linecap="round" style="fill:#4747FF;stroke:#1919FF;stroke-width:3.00"/>
	<path d="M561.95 1896.78 L561.95 1896.78 L669.74 1894.92 L777.52 1892.32 L885.31 1888.73 L993.09 1883.91 L1100.88 1877.59 L1208.67 1869.67 L1316.45 1859.90 L1424.24 1848.02 L1532.03 1834.16 L1639.81 1817.94 L1747.60 1799.50 L1855.51 1778.84 L1963.29 1755.82 L2071.08 1730.70 L2178.87 1703.84 L2286.65 1675.63 L2394.44 1646.30 L2502.22 1615.98 L2610.01 1585.04 L2717.80 1553.61 L2825.58 1521.93 L2933.37 1490.37 L3041.16 1459.06 L3148.94 1428.12 L3256.73 1397.80 L3364.51 1368.22 L3472.30 1339.51 L3580.09 1311.79 L3687.87 1285.06 L3795.66 1259.57 L3795.66 1191.01 L3687.87 1223.68 L3580.09 1257.34 L3472.30 1291.74 L3364.51 1326.89 L3256.73 1362.53 L3148.94 1398.54 L3041.16 1434.68 L2933.37 1470.81 L2825.58 1506.70 L2717.80 1542.10 L2610.01 1576.62 L2502.22 1610.29 L2394.44 1642.59 L2286.65 1673.40 L2178.87 1702.36 L2071.08 1729.21 L1963.29 1754.21 L1855.51 1777.11 L1747.60 1798.02 L1639.81 1816.58 L1532.03 1833.04 L1424.24 1847.15 L1316.45 1859.03 L1208.67 1868.81 L1100.88 1876.85 L993.09 1883.04 L885.31 1887.99 L777.52 1891.58 L669.74 1894.30 L561.95 1896.16 L561.95 1896.78 Z" stroke-linecap="round" style="fill:#3333FF;stroke:#0000FF;stroke-width:3.00"/>
	<circle cx="561.83" cy="1896.16" r="22.03" style="fill:#000000;stroke:#000000;stroke-width:8.64"/>
	<circle cx="669.61" cy="1896.16" r="22.03" style="fill:#000000;stroke:#000000;stroke-width:8.64"/>
	<circle cx="777.40" cy="1894.67" r="22.03" style="fill:#000000;stroke:#000000;stroke-width:8.64"/>
	<circle cx="885.31" cy="1883.41" r="22.03" style="fill:#000000;stroke:#000000;stroke-width:8.64"/>
	<circle cx="993.09" cy="1876.73" r="22.03" style="fill:#000000;stroke:#000000;stroke-width:8.64"/>
	<circle cx="1100.88" cy="1866.08" r="22.03" style="fill:#000000;stroke:#000000;stroke-width:8.64"/>
	<circle cx="1208.67" cy="1862.50" r="22.03" style="fill:#000000;stroke:#000000;stroke-width:8.64"/>
	<circle cx="1316.45" cy="1856.80" r="22.03" style="fill:#000000;stroke:#000000;stroke-width:8.64"/>
	<circle cx="1424.24" cy="1853.83" r="22.03" style="fill:#000000;stroke:#000000;stroke-width:8.64"/>
	<circle cx="1532.03" cy="1849.13" r="22.03" style="fill:#000000;stroke:#000000;stroke-width:8.64"/>
	<circle cx="1639.81" cy="1831.80" r="22.03" style="fill:#000000;stroke:#000000;stroke-width:8.64"/>
	<circle cx="1747.60" cy="1802.72" r="22.03" style="fill:#000000;stroke:#000000;stroke-width:8.64"/>
	<circle cx="1855.38" cy="1783.29" r="22.03" style="fill:#000000;stroke:#000000;stroke-width:8.64"/>
	<circle cx="1963.17" cy="1730.70" r="22.03" style="fill:#000000;stroke:#000000;stroke-width:8.64"/>
	<circle cx="2070.96" cy="1719.93" r="22.03" style="fill:#000000;stroke:#000000;stroke-width:8.64"/>
	<circle cx="2178.74" cy="1701.99" r="22.03" style="fill:#000000;stroke:#000000;stroke-width:8.64"/>
	<circle cx="2286.53" cy="1686.15" r="22.03" style="fill:#000000;stroke:#000000;stroke-width:8.64"/>
	<line x1="390.80" y1="2489.19" x2="390.80" y2="100.86" style="stroke:#000000;stroke-width:5.76"/>
	<line x1="390.80" y1="2425.82" x2="350.83" y2="2425.82" style="stroke:#000000;stroke-width:5.76"/>
	<text x="300.72" y="2425.82" style="font-family:'Helvetica';font-size:99.99px;fill:#000000" transform="rotate(-90 300.72,2425.82)" text-anchor="middle">-2</text>
	<line x1="390.80" y1="1899.75" x2="350.83" y2="1899.75" style="stroke:#000000;stroke-width:5.76"/>
	<text x="300.72" y="1899.75" style="font-family:'Helvetica';font-size:99.99px;fill:#000000" transform="rotate(-90 300.72,1899.75)" text-anchor="middle">0</text>
	<line x1="390.80" y1="1373.54" x2="350.83" y2="1373.54" style="stroke:#000000;stroke-width:5.76"/>
	<text x="300.72" y="1373.54" style="font-family:'Helvetica';font-size:99.99px;fill:#000000" transform="rotate(-90 300.72,1373.54)" text-anchor="middle">2</text>
	<line x1="390.80" y1="847.34" x2="350.83" y2="847.34" style="stroke:#000000;stroke-width:5.76"/>
	<text x="300.72" y="847.34" style="font-family:'Helvetica';font-size:99.99px;fill:#000000" transform="rotate(-90 300.72,847.34)" text-anchor="middle">4</text>
	<line x1="390.80" y1="321.27" x2="350.83" y2="321.27" style="stroke:#000000;stroke-width:5.76"/>
	<text x="300.72" y="321.27" style="font-family:'Helvetica';font-size:99.99px;fill:#000000" transform="rotate(-90 300.72,321.27)" text-anchor="middle">6</text>
	<text x="190.71" y="1294.96" style="font-family:'Helvetica';font-size:99.99px;fill:#000000" transform="rotate(-90 190.71,1294.96)" text-anchor="middle">Confirmed cases per 100 beds</text>
	<line x1="390.80" y1="2489.19" x2="3859.02" y2="2489.19" style="stroke:#000000;stroke-width:5.76"/>
	<line x1="454.16" y1="2489.19" x2="454.16" y2="2529.16" style="stroke:#000000;stroke-width:5.76"/>
	<text x="454.16" y="2619.14" style="font-family:'Helvetica';font-size:99.99px;fill:#000000" text-anchor="middle">0</text>
	<line x1="1532.03" y1="2489.19" x2="1532.03" y2="2529.16" style="stroke:#000000;stroke-width:5.76"/>
	<text x="1532.03" y="2619.14" style="font-family:'Helvetica';font-size:99.99px;fill:#000000" text-anchor="middle">10</text>
	<line x1="2610.01" y1="2489.19" x2="2610.01" y2="2529.16" style="stroke:#000000;stroke-width:5.76"/>
	<text x="2610.01" y="2619.14" style="font-family:'Helvetica';font-size:99.99px;fill:#000000" text-anchor="middle">20</text>
	<line x1="3687.87" y1="2489.19" x2="3687.87" y2="2529.16" style="stroke:#000000;stroke-width:5.76"/>
	<text x="3687.87" y="2619.14" style="font-family:'Helvetica';font-size:99.99px;fill:#000000" text-anchor="middle">30</text>
	<text x="2124.91" y="2729.16" style="font-family:'Helvetica';font-size:99.99px;fill:#000000" text-anchor="middle">Days since 0.01 confirmed cases per 100 beds</text>
</svg>
