<?xml version="1.0" encoding="UTF-8" standalone="no"?>
<!-- This is a Stata 14.2 generated SVG file (http://www.stata.com) -->

<svg version="1.1" width="5.50in" height="4.00in" viewBox="0 0 3960 2880" xmlns="http://www.w3.org/2000/svg">
	<desc>Stata Graph - Graph</desc>
	<line x1="390.80" y1="-1842.32" x2="3859.02" y2="-1842.32" style="stroke:#FF0000;stroke-width:8.64"/>
	<path d="M621.23 2425.82 L621.23 2425.82 L788.29 1333.08 L955.35 1627.98 L1122.41 1717.83 L1289.47 1727.48 L1456.66 1728.35 L1623.72 1728.47 L1790.79 1689.61 L1957.85 1728.47 L2124.91 1728.47 L2291.97 1728.47 L2459.04 1728.47 L2626.22 1728.47 L2793.28 1728.47 L2960.35 1728.47 L3127.41 1728.47 L3294.47 1728.47 L3461.53 1728.47 L3628.60 1728.47 L3628.60 201.60 L3461.53 201.60 L3294.47 201.60 L3127.41 201.60 L2960.35 201.60 L2793.28 201.60 L2626.22 201.60 L2459.04 201.60 L2291.97 201.60 L2124.91 201.60 L1957.85 201.60 L1790.79 240.33 L1623.72 201.60 L1456.66 201.72 L1289.47 202.71 L1122.41 213.85 L955.35 327.33 L788.29 951.79 L621.23 2373.85 L621.23 2425.82 Z" stroke-linecap="round" style="fill:#EBEBFF;stroke:#E6E6FF;stroke-width:3.00"/>
	<path d="M621.23 2410.85 L621.23 2410.85 L788.29 1223.06 L955.35 1252.64 L1122.41 1283.82 L1289.47 1287.41 L1456.66 1287.78 L1623.72 1287.78 L1790.79 1271.32 L1957.85 1287.78 L2124.91 1287.78 L2291.97 1287.78 L2459.04 1287.78 L2626.22 1287.78 L2793.28 1287.78 L2960.35 1287.78 L3127.41 1287.78 L3294.47 1287.78 L3461.53 1287.78 L3628.60 1287.78 L3628.60 642.28 L3461.53 642.28 L3294.47 642.28 L3127.41 642.28 L2960.35 642.28 L2793.28 642.28 L2626.22 642.28 L2459.04 642.28 L2291.97 642.28 L2124.91 642.28 L1957.85 642.28 L1790.79 658.62 L1623.72 642.28 L1456.66 642.28 L1289.47 642.78 L1122.41 647.98 L955.35 702.80 L788.29 1061.81 L621.23 2388.82 L621.23 2410.85 Z" stroke-linecap="round" style="fill:#D6D6FF;stroke:#CCCCFF;stroke-width:3.00"/>
	<path d="M621.23 2408.37 L621.23 2408.37 L788.29 1205.24 L955.35 1191.87 L1122.41 1213.53 L1289.47 1216.25 L1456.66 1216.50 L1623.72 1216.50 L1790.79 1203.75 L1957.85 1216.50 L2124.91 1216.50 L2291.97 1216.50 L2459.04 1216.50 L2626.22 1216.50 L2793.28 1216.50 L2960.35 1216.50 L3127.41 1216.50 L3294.47 1216.50 L3461.53 1216.50 L3628.60 1216.50 L3628.60 713.56 L3461.53 713.56 L3294.47 713.56 L3127.41 713.56 L2960.35 713.56 L2793.28 713.56 L2626.22 713.56 L2459.04 713.56 L2291.97 713.56 L2124.91 713.56 L1957.85 713.56 L1790.79 726.31 L1623.72 713.56 L1456.66 713.56 L1289.47 713.94 L1122.41 718.14 L955.35 763.44 L788.29 1079.63 L621.23 2391.30 L621.23 2408.37 Z" stroke-linecap="round" style="fill:#C2C2FF;stroke:#B3B3FF;stroke-width:3.00"/>
	<path d="M621.23 2406.77 L621.23 2406.77 L788.29 1193.23 L955.35 1150.91 L1122.41 1166.26 L1289.47 1168.11 L1456.66 1168.36 L1623.72 1168.36 L1790.79 1158.09 L1957.85 1168.36 L2124.91 1168.36 L2291.97 1168.36 L2459.04 1168.36 L2626.22 1168.36 L2793.28 1168.36 L2960.35 1168.36 L3127.41 1168.36 L3294.47 1168.36 L3461.53 1168.36 L3628.60 1168.36 L3628.60 761.71 L3461.53 761.71 L3294.47 761.71 L3127.41 761.71 L2960.35 761.71 L2793.28 761.71 L2626.22 761.71 L2459.04 761.71 L2291.97 761.71 L2124.91 761.71 L1957.85 761.71 L1790.79 771.98 L1623.72 761.71 L1456.66 761.71 L1289.47 761.95 L1122.41 765.54 L955.35 804.40 L788.29 1091.63 L621.23 2392.90 L621.23 2406.77 Z" stroke-linecap="round" style="fill:#ADADFF;stroke:#9999FF;stroke-width:3.00"/>
	<path d="M621.23 2405.40 L621.23 2405.40 L788.29 1183.71 L955.35 1118.36 L1122.41 1128.51 L1289.47 1130.00 L1456.66 1130.12 L1623.72 1130.12 L1790.79 1121.83 L1957.85 1130.12 L2124.91 1130.12 L2291.97 1130.12 L2459.04 1130.12 L2626.22 1130.12 L2793.28 1130.12 L2960.35 1130.12 L3127.41 1130.12 L3294.47 1130.12 L3461.53 1130.12 L3628.60 1130.12 L3628.60 799.82 L3461.53 799.82 L3294.47 799.82 L3127.41 799.82 L2960.35 799.82 L2793.28 799.82 L2626.22 799.82 L2459.04 799.82 L2291.97 799.82 L2124.91 799.82 L1957.85 799.82 L1790.79 808.24 L1623.72 799.82 L1456.66 799.94 L1289.47 800.19 L1122.41 803.16 L955.35 837.07 L788.29 1101.16 L621.23 2394.27 L621.23 2405.40 Z" stroke-linecap="round" style="fill:#9999FF;stroke:#8080FF;stroke-width:3.00"/>
	<path d="M621.23 2404.29 L621.23 2404.29 L788.29 1175.54 L955.35 1090.40 L1122.41 1096.21 L1289.47 1097.20 L1456.66 1097.33 L1623.72 1097.33 L1790.79 1090.64 L1957.85 1097.33 L2124.91 1097.33 L2291.97 1097.33 L2459.04 1097.33 L2626.22 1097.33 L2793.28 1097.33 L2960.35 1097.33 L3127.41 1097.33 L3294.47 1097.33 L3461.53 1097.33 L3628.60 1097.33 L3628.60 832.62 L3461.53 832.62 L3294.47 832.62 L3127.41 832.62 L2960.35 832.62 L2793.28 832.62 L2626.22 832.62 L2459.04 832.62 L2291.97 832.62 L2124.91 832.62 L1957.85 832.62 L1790.79 839.42 L1623.72 832.62 L1456.66 832.74 L1289.47 832.86 L1122.41 835.46 L955.35 864.92 L788.29 1109.45 L621.23 2395.38 L621.23 2404.29 Z" stroke-linecap="round" style="fill:#8585FF;stroke:#6666FF;stroke-width:3.00"/>
	<path d="M621.23 2403.30 L621.23 2403.30 L788.29 1168.11 L955.35 1065.40 L1122.41 1067.25 L1289.47 1067.87 L1456.66 1067.87 L1623.72 1067.87 L1790.79 1062.67 L1957.85 1067.87 L2124.91 1067.87 L2291.97 1067.87 L2459.04 1067.87 L2626.22 1067.87 L2793.28 1067.87 L2960.35 1067.87 L3127.41 1067.87 L3294.47 1067.87 L3461.53 1067.87 L3628.60 1067.87 L3628.60 862.07 L3461.53 862.07 L3294.47 862.07 L3127.41 862.07 L2960.35 862.07 L2793.28 862.07 L2626.22 862.07 L2459.04 862.07 L2291.97 862.07 L2124.91 862.07 L1957.85 862.07 L1790.79 867.39 L1623.72 862.07 L1456.66 862.19 L1289.47 862.32 L1122.41 864.54 L955.35 890.04 L788.29 1116.75 L621.23 2396.37 L621.23 2403.30 Z" stroke-linecap="round" style="fill:#7171FF;stroke:#4D4DFF;stroke-width:3.00"/>
	<path d="M621.23 2402.43 L621.23 2402.43 L788.29 1161.31 L955.35 1042.13 L1122.41 1040.40 L1289.47 1040.52 L1456.66 1040.65 L1623.72 1040.65 L1790.79 1036.81 L1957.85 1040.65 L2124.91 1040.65 L2291.97 1040.65 L2459.04 1040.65 L2626.22 1040.65 L2793.28 1040.65 L2960.35 1040.65 L3127.41 1040.65 L3294.47 1040.65 L3461.53 1040.65 L3628.60 1040.65 L3628.60 889.42 L3461.53 889.42 L3294.47 889.42 L3127.41 889.42 L2960.35 889.42 L2793.28 889.42 L2626.22 889.42 L2459.04 889.42 L2291.97 889.42 L2124.91 889.42 L1957.85 889.42 L1790.79 893.26 L1623.72 889.42 L1456.66 889.42 L1289.47 889.54 L1122.41 891.40 L955.35 913.30 L788.29 1123.56 L621.23 2397.24 L621.23 2402.43 Z" stroke-linecap="round" style="fill:#5C5CFF;stroke:#3333FF;stroke-width:3.00"/>
	<path d="M621.23 2401.57 L621.23 2401.57 L788.29 1154.87 L955.35 1019.98 L1122.41 1014.91 L1289.47 1014.78 L1456.66 1014.78 L1623.72 1014.78 L1790.79 1012.18 L1957.85 1014.78 L2124.91 1014.78 L2291.97 1014.78 L2459.04 1014.78 L2626.22 1014.78 L2793.28 1014.78 L2960.35 1014.78 L3127.41 1014.78 L3294.47 1014.78 L3461.53 1014.78 L3628.60 1014.78 L3628.60 915.28 L3461.53 915.28 L3294.47 915.28 L3127.41 915.28 L2960.35 915.28 L2793.28 915.28 L2626.22 915.28 L2459.04 915.28 L2291.97 915.28 L2124.91 915.28 L1957.85 915.28 L1790.79 917.88 L1623.72 915.28 L1456.66 915.28 L1289.47 915.41 L1122.41 916.89 L955.35 935.33 L788.29 1130.00 L621.23 2398.10 L621.23 2401.57 Z" stroke-linecap="round" style="fill:#4747FF;stroke:#1919FF;stroke-width:3.00"/>
	<path d="M621.23 2400.70 L621.23 2400.70 L788.29 1148.56 L955.35 998.69 L1122.41 990.15 L1289.47 989.66 L1456.66 989.66 L1623.72 989.66 L1790.79 988.42 L1957.85 989.66 L2124.91 989.66 L2291.97 989.66 L2459.04 989.66 L2626.22 989.66 L2793.28 989.66 L2960.35 989.66 L3127.41 989.66 L3294.47 989.66 L3461.53 989.66 L3628.60 989.66 L3628.60 940.41 L3461.53 940.41 L3294.47 940.41 L3127.41 940.41 L2960.35 940.41 L2793.28 940.41 L2626.22 940.41 L2459.04 940.41 L2291.97 940.41 L2124.91 940.41 L1957.85 940.41 L1790.79 941.64 L1623.72 940.41 L1456.66 940.41 L1289.47 940.41 L1122.41 941.64 L955.35 956.74 L788.29 1136.31 L621.23 2398.97 L621.23 2400.70 Z" stroke-linecap="round" style="fill:#3333FF;stroke:#0000FF;stroke-width:3.00"/>
	<circle cx="621.10" cy="2403.05" r="22.03" style="fill:#000000;stroke:#000000;stroke-width:8.64"/>
	<circle cx="788.29" cy="1119.35" r="22.03" style="fill:#000000;stroke:#000000;stroke-width:8.64"/>
	<circle cx="955.35" cy="1119.35" r="22.03" style="fill:#000000;stroke:#000000;stroke-width:8.64"/>
	<circle cx="1122.41" cy="1119.35" r="22.03" style="fill:#000000;stroke:#000000;stroke-width:8.64"/>
	<circle cx="1289.47" cy="691.41" r="22.03" style="fill:#000000;stroke:#000000;stroke-width:8.64"/>
	<line x1="390.80" y1="2489.19" x2="390.80" y2="100.86" style="stroke:#000000;stroke-width:5.76"/>
	<line x1="390.80" y1="2297.61" x2="350.83" y2="2297.61" style="stroke:#000000;stroke-width:5.76"/>
	<text x="300.72" y="2297.61" style="font-family:'Helvetica';font-size:99.99px;fill:#000000" transform="rotate(-90 300.72,2297.61)" text-anchor="middle">.1</text>
	<line x1="390.80" y1="1764.24" x2="350.83" y2="1764.24" style="stroke:#000000;stroke-width:5.76"/>
	<text x="300.72" y="1764.24" style="font-family:'Helvetica';font-size:99.99px;fill:#000000" transform="rotate(-90 300.72,1764.24)" text-anchor="middle">.2</text>
	<line x1="390.80" y1="1230.86" x2="350.83" y2="1230.86" style="stroke:#000000;stroke-width:5.76"/>
	<text x="300.72" y="1230.86" style="font-family:'Helvetica';font-size:99.99px;fill:#000000" transform="rotate(-90 300.72,1230.86)" text-anchor="middle">.3</text>
	<line x1="390.80" y1="697.48" x2="350.83" y2="697.48" style="stroke:#000000;stroke-width:5.76"/>
	<text x="300.72" y="697.48" style="font-family:'Helvetica';font-size:99.99px;fill:#000000" transform="rotate(-90 300.72,697.48)" text-anchor="middle">.4</text>
	<line x1="390.80" y1="164.22" x2="350.83" y2="164.22" style="stroke:#000000;stroke-width:5.76"/>
	<text x="300.72" y="164.22" style="font-family:'Helvetica';font-size:99.99px;fill:#000000" transform="rotate(-90 300.72,164.22)" text-anchor="middle">.5</text>
	<text x="190.71" y="1294.96" style="font-family:'Helvetica';font-size:99.99px;fill:#000000" transform="rotate(-90 190.71,1294.96)" text-anchor="middle">Confirmed cases per 100 beds</text>
	<line x1="390.80" y1="2489.19" x2="3859.02" y2="2489.19" style="stroke:#000000;stroke-width:5.76"/>
	<line x1="454.16" y1="2489.19" x2="454.16" y2="2529.16" style="stroke:#000000;stroke-width:5.76"/>
	<text x="454.16" y="2619.14" style="font-family:'Helvetica';font-size:99.99px;fill:#000000" text-anchor="middle">0</text>
	<line x1="3795.66" y1="2489.19" x2="3795.66" y2="2529.16" style="stroke:#000000;stroke-width:5.76"/>
	<text x="3795.66" y="2619.14" style="font-family:'Helvetica';font-size:99.99px;fill:#000000" text-anchor="middle">20</text>
	<line x1="621.23" y1="2489.19" x2="621.23" y2="2529.16" style="stroke:#000000;stroke-width:5.76"/>
	<text x="621.23" y="2619.14" style="font-family:'Helvetica';font-size:99.99px;fill:#000000" text-anchor="middle">1</text>
	<line x1="788.29" y1="2489.19" x2="788.29" y2="2529.16" style="stroke:#000000;stroke-width:5.76"/>
	<text x="788.29" y="2619.14" style="font-family:'Helvetica';font-size:99.99px;fill:#000000" text-anchor="middle">2</text>
	<line x1="955.35" y1="2489.19" x2="955.35" y2="2529.16" style="stroke:#000000;stroke-width:5.76"/>
	<text x="955.35" y="2619.14" style="font-family:'Helvetica';font-size:99.99px;fill:#000000" text-anchor="middle">3</text>
	<line x1="1122.41" y1="2489.19" x2="1122.41" y2="2529.16" style="stroke:#000000;stroke-width:5.76"/>
	<text x="1122.41" y="2619.14" style="font-family:'Helvetica';font-size:99.99px;fill:#000000" text-anchor="middle">4</text>
	<line x1="1289.47" y1="2489.19" x2="1289.47" y2="2529.16" style="stroke:#000000;stroke-width:5.76"/>
	<text x="1289.47" y="2619.14" style="font-family:'Helvetica';font-size:99.99px;fill:#000000" text-anchor="middle">5</text>
	<line x1="1456.66" y1="2489.19" x2="1456.66" y2="2529.16" style="stroke:#000000;stroke-width:5.76"/>
	<text x="1456.66" y="2619.14" style="font-family:'Helvetica';font-size:99.99px;fill:#000000" text-anchor="middle">6</text>
	<line x1="1623.72" y1="2489.19" x2="1623.72" y2="2529.16" style="stroke:#000000;stroke-width:5.76"/>
	<text x="1623.72" y="2619.14" style="font-family:'Helvetica';font-size:99.99px;fill:#000000" text-anchor="middle">7</text>
	<line x1="1790.79" y1="2489.19" x2="1790.79" y2="2529.16" style="stroke:#000000;stroke-width:5.76"/>
	<text x="1790.79" y="2619.14" style="font-family:'Helvetica';font-size:99.99px;fill:#000000" text-anchor="middle">8</text>
	<line x1="1957.85" y1="2489.19" x2="1957.85" y2="2529.16" style="stroke:#000000;stroke-width:5.76"/>
	<text x="1957.85" y="2619.14" style="font-family:'Helvetica';font-size:99.99px;fill:#000000" text-anchor="middle">9</text>
	<line x1="2124.91" y1="2489.19" x2="2124.91" y2="2529.16" style="stroke:#000000;stroke-width:5.76"/>
	<text x="2124.91" y="2619.14" style="font-family:'Helvetica';font-size:99.99px;fill:#000000" text-anchor="middle">10</text>
	<line x1="2291.97" y1="2489.19" x2="2291.97" y2="2529.16" style="stroke:#000000;stroke-width:5.76"/>
	<text x="2291.97" y="2619.14" style="font-family:'Helvetica';font-size:99.99px;fill:#000000" text-anchor="middle">11</text>
	<line x1="2459.04" y1="2489.19" x2="2459.04" y2="2529.16" style="stroke:#000000;stroke-width:5.76"/>
	<text x="2459.04" y="2619.14" style="font-family:'Helvetica';font-size:99.99px;fill:#000000" text-anchor="middle">12</text>
	<line x1="2626.22" y1="2489.19" x2="2626.22" y2="2529.16" style="stroke:#000000;stroke-width:5.76"/>
	<text x="2626.22" y="2619.14" style="font-family:'Helvetica';font-size:99.99px;fill:#000000" text-anchor="middle">13</text>
	<line x1="2793.28" y1="2489.19" x2="2793.28" y2="2529.16" style="stroke:#000000;stroke-width:5.76"/>
	<text x="2793.28" y="2619.14" style="font-family:'Helvetica';font-size:99.99px;fill:#000000" text-anchor="middle">14</text>
	<line x1="2960.35" y1="2489.19" x2="2960.35" y2="2529.16" style="stroke:#000000;stroke-width:5.76"/>
	<text x="2960.35" y="2619.14" style="font-family:'Helvetica';font-size:99.99px;fill:#000000" text-anchor="middle">15</text>
	<line x1="3127.41" y1="2489.19" x2="3127.41" y2="2529.16" style="stroke:#000000;stroke-width:5.76"/>
	<text x="3127.41" y="2619.14" style="font-family:'Helvetica';font-size:99.99px;fill:#000000" text-anchor="middle">16</text>
	<line x1="3294.47" y1="2489.19" x2="3294.47" y2="2529.16" style="stroke:#000000;stroke-width:5.76"/>
	<text x="3294.47" y="2619.14" style="font-family:'Helvetica';font-size:99.99px;fill:#000000" text-anchor="middle">17</text>
	<line x1="3461.53" y1="2489.19" x2="3461.53" y2="2529.16" style="stroke:#000000;stroke-width:5.76"/>
	<text x="3461.53" y="2619.14" style="font-family:'Helvetica';font-size:99.99px;fill:#000000" text-anchor="middle">18</text>
	<line x1="3628.60" y1="2489.19" x2="3628.60" y2="2529.16" style="stroke:#000000;stroke-width:5.76"/>
	<text x="3628.60" y="2619.14" style="font-family:'Helvetica';font-size:99.99px;fill:#000000" text-anchor="middle">19</text>
	<text x="2124.91" y="2729.16" style="font-family:'Helvetica';font-size:99.99px;fill:#000000" text-anchor="middle">Days since 0.01 confirmed cases per 100 beds</text>
</svg>
