<?xml version="1.0" encoding="UTF-8" standalone="no"?>
<!-- This is a Stata 14.2 generated SVG file (http://www.stata.com) -->

<svg version="1.1" width="5.50in" height="4.00in" viewBox="0 0 3960 2880" xmlns="http://www.w3.org/2000/svg">
	<desc>Stata Graph - Graph</desc>
	<line x1="390.80" y1="1804.21" x2="3859.02" y2="1804.21" style="stroke:#FF0000;stroke-width:8.64"/>
	<path d="M565.54 1860.76 L565.54 1860.76 L676.91 1860.76 L788.29 1860.76 L899.66 1860.76 L1011.04 1860.76 L1122.41 1860.76 L1233.79 1860.76 L1345.29 1860.64 L1456.66 1860.52 L1568.04 1860.14 L1679.41 1859.40 L1790.79 1858.29 L1902.16 1856.56 L2013.54 1855.19 L2124.91 1853.83 L2236.29 1852.60 L2347.66 1851.73 L2459.04 1851.61 L2570.53 1853.21 L2681.91 1857.55 L2793.28 1866.33 L2904.66 1881.93 L3016.03 1907.67 L3127.41 1947.76 L3238.78 2008.15 L3350.16 2096.39 L3461.53 2222.25 L3461.53 164.22 L3350.16 631.02 L3238.78 979.39 L3127.41 1236.55 L3016.03 1424.16 L2904.66 1559.42 L2793.28 1655.70 L2681.91 1723.27 L2570.53 1770.05 L2459.04 1801.98 L2347.66 1823.39 L2236.29 1837.50 L2124.91 1846.66 L2013.54 1852.35 L1902.16 1855.81 L1790.79 1857.30 L1679.41 1858.29 L1568.04 1859.03 L1456.66 1859.53 L1345.29 1859.90 L1233.79 1860.14 L1122.41 1860.39 L1011.04 1860.52 L899.66 1860.52 L788.29 1860.64 L676.91 1860.64 L565.54 1860.64 L565.54 1860.76 Z" stroke-linecap="round" style="fill:#EBEBFF;stroke:#E6E6FF;stroke-width:3.00"/>
	<path d="M565.54 1860.76 L565.54 1860.76 L676.91 1860.76 L788.29 1860.76 L899.66 1860.76 L1011.04 1860.64 L1122.41 1860.64 L1233.79 1860.64 L1345.29 1860.39 L1456.66 1860.27 L1568.04 1859.77 L1679.41 1859.15 L1790.79 1858.04 L1902.16 1856.31 L2013.54 1854.45 L2124.91 1851.73 L2236.29 1848.26 L2347.66 1843.56 L2459.04 1837.25 L2570.53 1829.21 L2681.91 1818.81 L2793.28 1805.57 L2904.66 1788.86 L3016.03 1768.07 L3127.41 1742.45 L3238.78 1711.27 L3350.16 1673.52 L3461.53 1628.23 L3461.53 758.12 L3350.16 1053.89 L3238.78 1276.27 L3127.41 1441.86 L3016.03 1563.75 L2904.66 1652.49 L2793.28 1716.47 L2681.91 1762.01 L2570.53 1794.06 L2459.04 1816.34 L2347.66 1831.56 L2236.29 1841.83 L2124.91 1848.76 L2013.54 1853.21 L1902.16 1856.06 L1790.79 1857.67 L1679.41 1858.66 L1568.04 1859.28 L1456.66 1859.77 L1345.29 1860.14 L1233.79 1860.27 L1122.41 1860.52 L1011.04 1860.52 L899.66 1860.64 L788.29 1860.64 L676.91 1860.64 L565.54 1860.76 L565.54 1860.76 Z" stroke-linecap="round" style="fill:#D6D6FF;stroke:#CCCCFF;stroke-width:3.00"/>
	<path d="M565.54 1860.76 L565.54 1860.76 L676.91 1860.76 L788.29 1860.76 L899.66 1860.76 L1011.04 1860.64 L1122.41 1860.64 L1233.79 1860.52 L1345.29 1860.39 L1456.66 1860.14 L1568.04 1859.77 L1679.41 1859.03 L1790.79 1857.92 L1902.16 1856.31 L2013.54 1854.20 L2124.91 1851.48 L2236.29 1847.52 L2347.66 1842.20 L2459.04 1835.02 L2570.53 1825.37 L2681.91 1812.50 L2793.28 1795.67 L2904.66 1773.76 L3016.03 1745.55 L3127.41 1709.29 L3238.78 1663.25 L3350.16 1605.09 L3461.53 1532.20 L3461.53 854.27 L3350.16 1122.32 L3238.78 1324.41 L3127.41 1475.02 L3016.03 1586.28 L2904.66 1667.58 L2793.28 1726.37 L2681.91 1768.32 L2570.53 1798.02 L2459.04 1818.69 L2347.66 1832.92 L2236.29 1842.57 L2124.91 1849.01 L2013.54 1853.34 L1902.16 1856.06 L1790.79 1857.67 L1679.41 1858.66 L1568.04 1859.40 L1456.66 1859.77 L1345.29 1860.14 L1233.79 1860.39 L1122.41 1860.52 L1011.04 1860.64 L899.66 1860.64 L788.29 1860.64 L676.91 1860.64 L565.54 1860.76 L565.54 1860.76 Z" stroke-linecap="round" style="fill:#C2C2FF;stroke:#B3B3FF;stroke-width:3.00"/>
	<path d="M565.54 1860.76 L565.54 1860.76 L676.91 1860.76 L788.29 1860.76 L899.66 1860.64 L1011.04 1860.64 L1122.41 1860.64 L1233.79 1860.52 L1345.29 1860.39 L1456.66 1860.14 L1568.04 1859.65 L1679.41 1859.03 L1790.79 1857.92 L1902.16 1856.31 L2013.54 1854.20 L2124.91 1851.23 L2236.29 1847.03 L2347.66 1841.33 L2459.04 1833.41 L2570.53 1822.77 L2681.91 1808.29 L2793.28 1789.11 L2904.66 1763.62 L3016.03 1730.33 L3127.41 1686.89 L3238.78 1630.83 L3350.16 1558.93 L3461.53 1467.35 L3461.53 919.12 L3350.16 1168.48 L3238.78 1356.71 L3127.41 1497.42 L3016.03 1601.50 L2904.66 1677.73 L2793.28 1732.93 L2681.91 1772.53 L2570.53 1800.62 L2459.04 1820.17 L2347.66 1833.78 L2236.29 1843.07 L2124.91 1849.25 L2013.54 1853.46 L1902.16 1856.06 L1790.79 1857.67 L1679.41 1858.66 L1568.04 1859.40 L1456.66 1859.90 L1345.29 1860.14 L1233.79 1860.39 L1122.41 1860.52 L1011.04 1860.64 L899.66 1860.64 L788.29 1860.64 L676.91 1860.64 L565.54 1860.76 L565.54 1860.76 Z" stroke-linecap="round" style="fill:#ADADFF;stroke:#9999FF;stroke-width:3.00"/>
	<path d="M565.54 1860.76 L565.54 1860.76 L676.91 1860.76 L788.29 1860.76 L899.66 1860.64 L1011.04 1860.64 L1122.41 1860.64 L1233.79 1860.52 L1345.29 1860.39 L1456.66 1860.14 L1568.04 1859.65 L1679.41 1859.03 L1790.79 1857.92 L1902.16 1856.31 L2013.54 1854.08 L2124.91 1850.99 L2236.29 1846.66 L2347.66 1840.59 L2459.04 1832.18 L2570.53 1820.67 L2681.91 1804.95 L2793.28 1783.79 L2904.66 1755.57 L3016.03 1718.20 L3127.41 1669.07 L3238.78 1605.09 L3350.16 1522.17 L3461.53 1415.74 L3461.53 970.60 L3350.16 1205.24 L3238.78 1382.58 L3127.41 1515.24 L3016.03 1613.63 L2904.66 1685.78 L2793.28 1738.25 L2681.91 1775.87 L2570.53 1802.60 L2459.04 1821.41 L2347.66 1834.53 L2236.29 1843.44 L2124.91 1849.50 L2013.54 1853.46 L1902.16 1856.06 L1790.79 1857.67 L1679.41 1858.78 L1568.04 1859.40 L1456.66 1859.90 L1345.29 1860.14 L1233.79 1860.39 L1122.41 1860.52 L1011.04 1860.64 L899.66 1860.64 L788.29 1860.64 L676.91 1860.64 L565.54 1860.76 L565.54 1860.76 Z" stroke-linecap="round" style="fill:#9999FF;stroke:#8080FF;stroke-width:3.00"/>
	<path d="M565.54 1860.76 L565.54 1860.76 L676.91 1860.76 L788.29 1860.76 L899.66 1860.64 L1011.04 1860.64 L1122.41 1860.64 L1233.79 1860.52 L1345.29 1860.39 L1456.66 1860.02 L1568.04 1859.65 L1679.41 1858.91 L1790.79 1857.92 L1902.16 1856.31 L2013.54 1854.08 L2124.91 1850.86 L2236.29 1846.41 L2347.66 1839.97 L2459.04 1831.06 L2570.53 1818.81 L2681.91 1802.10 L2793.28 1779.33 L2904.66 1748.64 L3016.03 1707.80 L3127.41 1653.85 L3238.78 1582.94 L3350.16 1490.74 L3461.53 1371.56 L3461.53 1014.78 L3350.16 1236.67 L3238.78 1404.61 L3127.41 1530.46 L3016.03 1624.02 L2904.66 1692.71 L2793.28 1742.83 L2681.91 1778.84 L2570.53 1804.46 L2459.04 1822.52 L2347.66 1835.15 L2236.29 1843.69 L2124.91 1849.63 L2013.54 1853.59 L1902.16 1856.18 L1790.79 1857.67 L1679.41 1858.78 L1568.04 1859.40 L1456.66 1859.90 L1345.29 1860.27 L1233.79 1860.39 L1122.41 1860.52 L1011.04 1860.64 L899.66 1860.64 L788.29 1860.64 L676.91 1860.64 L565.54 1860.76 L565.54 1860.76 Z" stroke-linecap="round" style="fill:#8585FF;stroke:#6666FF;stroke-width:3.00"/>
	<path d="M565.54 1860.76 L565.54 1860.76 L676.91 1860.76 L788.29 1860.76 L899.66 1860.64 L1011.04 1860.64 L1122.41 1860.64 L1233.79 1860.52 L1345.29 1860.39 L1456.66 1860.02 L1568.04 1859.65 L1679.41 1858.91 L1790.79 1857.92 L1902.16 1856.31 L2013.54 1853.96 L2124.91 1850.74 L2236.29 1846.04 L2347.66 1839.48 L2459.04 1830.20 L2570.53 1817.20 L2681.91 1799.50 L2793.28 1775.25 L2904.66 1742.45 L3016.03 1698.52 L3127.41 1640.11 L3238.78 1563.14 L3350.16 1462.52 L3461.53 1331.84 L3461.53 1054.51 L3350.16 1265.01 L3238.78 1424.41 L3127.41 1544.20 L3016.03 1633.30 L2904.66 1699.02 L2793.28 1746.79 L2681.91 1781.44 L2570.53 1806.06 L2459.04 1823.51 L2347.66 1835.64 L2236.29 1844.06 L2124.91 1849.75 L2013.54 1853.59 L1902.16 1856.18 L1790.79 1857.79 L1679.41 1858.78 L1568.04 1859.53 L1456.66 1859.90 L1345.29 1860.27 L1233.79 1860.39 L1122.41 1860.52 L1011.04 1860.64 L899.66 1860.64 L788.29 1860.64 L676.91 1860.64 L565.54 1860.76 L565.54 1860.76 Z" stroke-linecap="round" style="fill:#7171FF;stroke:#4D4DFF;stroke-width:3.00"/>
	<path d="M565.54 1860.76 L565.54 1860.76 L676.91 1860.76 L788.29 1860.64 L899.66 1860.64 L1011.04 1860.64 L1122.41 1860.64 L1233.79 1860.52 L1345.29 1860.27 L1456.66 1860.02 L1568.04 1859.65 L1679.41 1858.91 L1790.79 1857.79 L1902.16 1856.18 L2013.54 1853.96 L2124.91 1850.62 L2236.29 1845.79 L2347.66 1838.98 L2459.04 1829.33 L2570.53 1815.72 L2681.91 1797.03 L2793.28 1771.41 L2904.66 1736.64 L3016.03 1689.86 L3127.41 1627.36 L3238.78 1544.70 L3350.16 1436.29 L3461.53 1295.08 L3461.53 1091.26 L3350.16 1291.12 L3238.78 1442.85 L3127.41 1556.95 L3016.03 1641.97 L2904.66 1704.71 L2793.28 1750.62 L2681.91 1783.79 L2570.53 1807.55 L2459.04 1824.38 L2347.66 1836.14 L2236.29 1844.30 L2124.91 1849.87 L2013.54 1853.71 L1902.16 1856.18 L1790.79 1857.79 L1679.41 1858.78 L1568.04 1859.53 L1456.66 1859.90 L1345.29 1860.27 L1233.79 1860.39 L1122.41 1860.52 L1011.04 1860.64 L899.66 1860.64 L788.29 1860.64 L676.91 1860.76 L565.54 1860.76 L565.54 1860.76 Z" stroke-linecap="round" style="fill:#5C5CFF;stroke:#3333FF;stroke-width:3.00"/>
	<path d="M565.54 1860.76 L565.54 1860.76 L676.91 1860.76 L788.29 1860.64 L899.66 1860.64 L1011.04 1860.64 L1122.41 1860.52 L1233.79 1860.52 L1345.29 1860.27 L1456.66 1860.02 L1568.04 1859.65 L1679.41 1858.91 L1790.79 1857.79 L1902.16 1856.18 L2013.54 1853.83 L2124.91 1850.49 L2236.29 1845.54 L2347.66 1838.49 L2459.04 1828.46 L2570.53 1814.36 L2681.91 1794.80 L2793.28 1767.82 L2904.66 1731.19 L3016.03 1681.69 L3127.41 1615.36 L3238.78 1527.25 L3350.16 1411.41 L3461.53 1260.19 L3461.53 1126.16 L3350.16 1316.00 L3238.78 1460.30 L3127.41 1568.95 L3016.03 1650.13 L2904.66 1710.15 L2793.28 1754.21 L2681.91 1786.02 L2570.53 1808.91 L2459.04 1825.25 L2347.66 1836.63 L2236.29 1844.55 L2124.91 1850.00 L2013.54 1853.71 L1902.16 1856.18 L1790.79 1857.79 L1679.41 1858.78 L1568.04 1859.53 L1456.66 1860.02 L1345.29 1860.27 L1233.79 1860.39 L1122.41 1860.52 L1011.04 1860.64 L899.66 1860.64 L788.29 1860.64 L676.91 1860.76 L565.54 1860.76 L565.54 1860.76 Z" stroke-linecap="round" style="fill:#4747FF;stroke:#1919FF;stroke-width:3.00"/>
	<path d="M565.54 1860.76 L565.54 1860.76 L676.91 1860.76 L788.29 1860.64 L899.66 1860.64 L1011.04 1860.64 L1122.41 1860.52 L1233.79 1860.52 L1345.29 1860.27 L1456.66 1860.02 L1568.04 1859.53 L1679.41 1858.91 L1790.79 1857.79 L1902.16 1856.18 L2013.54 1853.83 L2124.91 1850.37 L2236.29 1845.29 L2347.66 1837.99 L2459.04 1827.60 L2570.53 1812.99 L2681.91 1792.57 L2793.28 1764.48 L2904.66 1725.87 L3016.03 1673.77 L3127.41 1603.60 L3238.78 1510.42 L3350.16 1387.40 L3461.53 1226.40 L3461.53 1159.94 L3350.16 1340.01 L3238.78 1477.13 L3127.41 1580.71 L3016.03 1658.05 L2904.66 1715.48 L2793.28 1757.68 L2681.91 1788.24 L2570.53 1810.27 L2459.04 1825.99 L2347.66 1837.13 L2236.29 1844.80 L2124.91 1850.12 L2013.54 1853.71 L1902.16 1856.18 L1790.79 1857.79 L1679.41 1858.78 L1568.04 1859.53 L1456.66 1860.02 L1345.29 1860.27 L1233.79 1860.39 L1122.41 1860.52 L1011.04 1860.64 L899.66 1860.64 L788.29 1860.64 L676.91 1860.76 L565.54 1860.76 L565.54 1860.76 Z" stroke-linecap="round" style="fill:#3333FF;stroke:#0000FF;stroke-width:3.00"/>
	<circle cx="565.41" cy="1860.52" r="22.03" style="fill:#000000;stroke:#000000;stroke-width:8.64"/>
	<circle cx="676.79" cy="1860.52" r="22.03" style="fill:#000000;stroke:#000000;stroke-width:8.64"/>
	<circle cx="788.29" cy="1860.39" r="22.03" style="fill:#000000;stroke:#000000;stroke-width:8.64"/>
	<circle cx="899.66" cy="1860.39" r="22.03" style="fill:#000000;stroke:#000000;stroke-width:8.64"/>
	<circle cx="1011.04" cy="1860.39" r="22.03" style="fill:#000000;stroke:#000000;stroke-width:8.64"/>
	<circle cx="1122.41" cy="1860.39" r="22.03" style="fill:#000000;stroke:#000000;stroke-width:8.64"/>
	<circle cx="1233.79" cy="1860.39" r="22.03" style="fill:#000000;stroke:#000000;stroke-width:8.64"/>
	<circle cx="1345.16" cy="1860.39" r="22.03" style="fill:#000000;stroke:#000000;stroke-width:8.64"/>
	<circle cx="1456.54" cy="1860.39" r="22.03" style="fill:#000000;stroke:#000000;stroke-width:8.64"/>
	<circle cx="1567.91" cy="1859.28" r="22.03" style="fill:#000000;stroke:#000000;stroke-width:8.64"/>
	<circle cx="1679.29" cy="1859.28" r="22.03" style="fill:#000000;stroke:#000000;stroke-width:8.64"/>
	<circle cx="1790.66" cy="1857.79" r="22.03" style="fill:#000000;stroke:#000000;stroke-width:8.64"/>
	<circle cx="1902.04" cy="1856.18" r="22.03" style="fill:#000000;stroke:#000000;stroke-width:8.64"/>
	<line x1="390.80" y1="2489.19" x2="390.80" y2="100.86" style="stroke:#000000;stroke-width:5.76"/>
	<line x1="390.80" y1="2425.82" x2="350.83" y2="2425.82" style="stroke:#000000;stroke-width:5.76"/>
	<text x="300.72" y="2425.82" style="font-family:'Helvetica';font-size:99.99px;fill:#000000" transform="rotate(-90 300.72,2425.82)" text-anchor="middle">-100</text>
	<line x1="390.80" y1="1860.76" x2="350.83" y2="1860.76" style="stroke:#000000;stroke-width:5.76"/>
	<text x="300.72" y="1860.76" style="font-family:'Helvetica';font-size:99.99px;fill:#000000" transform="rotate(-90 300.72,1860.76)" text-anchor="middle">0</text>
	<line x1="390.80" y1="1295.58" x2="350.83" y2="1295.58" style="stroke:#000000;stroke-width:5.76"/>
	<text x="300.72" y="1295.58" style="font-family:'Helvetica';font-size:99.99px;fill:#000000" transform="rotate(-90 300.72,1295.58)" text-anchor="middle">100</text>
	<line x1="390.80" y1="730.52" x2="350.83" y2="730.52" style="stroke:#000000;stroke-width:5.76"/>
	<text x="300.72" y="730.52" style="font-family:'Helvetica';font-size:99.99px;fill:#000000" transform="rotate(-90 300.72,730.52)" text-anchor="middle">200</text>
	<line x1="390.80" y1="165.34" x2="350.83" y2="165.34" style="stroke:#000000;stroke-width:5.76"/>
	<text x="300.72" y="165.34" style="font-family:'Helvetica';font-size:99.99px;fill:#000000" transform="rotate(-90 300.72,165.34)" text-anchor="middle">300</text>
	<text x="190.71" y="1294.96" style="font-family:'Helvetica';font-size:99.99px;fill:#000000" transform="rotate(-90 190.71,1294.96)" text-anchor="middle">Confirmed cases per 100 beds</text>
	<line x1="390.80" y1="2489.19" x2="3859.02" y2="2489.19" style="stroke:#000000;stroke-width:5.76"/>
	<line x1="454.16" y1="2489.19" x2="454.16" y2="2529.16" style="stroke:#000000;stroke-width:5.76"/>
	<text x="454.16" y="2619.14" style="font-family:'Helvetica';font-size:99.99px;fill:#000000" text-anchor="middle">0</text>
	<line x1="1568.04" y1="2489.19" x2="1568.04" y2="2529.16" style="stroke:#000000;stroke-width:5.76"/>
	<text x="1568.04" y="2619.14" style="font-family:'Helvetica';font-size:99.99px;fill:#000000" text-anchor="middle">10</text>
	<line x1="2681.91" y1="2489.19" x2="2681.91" y2="2529.16" style="stroke:#000000;stroke-width:5.76"/>
	<text x="2681.91" y="2619.14" style="font-family:'Helvetica';font-size:99.99px;fill:#000000" text-anchor="middle">20</text>
	<line x1="3795.66" y1="2489.19" x2="3795.66" y2="2529.16" style="stroke:#000000;stroke-width:5.76"/>
	<text x="3795.66" y="2619.14" style="font-family:'Helvetica';font-size:99.99px;fill:#000000" text-anchor="middle">30</text>
	<text x="2124.91" y="2729.16" style="font-family:'Helvetica';font-size:99.99px;fill:#000000" text-anchor="middle">Days since 0.01 confirmed cases per 100 beds</text>
</svg>
