<?xml version="1.0" encoding="UTF-8" standalone="no"?>
<!-- This is a Stata 14.2 generated SVG file (http://www.stata.com) -->

<svg version="1.1" width="5.50in" height="4.00in" viewBox="0 0 3960 2880" xmlns="http://www.w3.org/2000/svg">
	<desc>Stata Graph - Graph</desc>
	<line x1="390.80" y1="1292.36" x2="3859.02" y2="1292.36" style="stroke:#FF0000;stroke-width:8.64"/>
	<path d="M520.99 2420.50 L520.99 2420.50 L621.23 2420.50 L654.64 2420.50 L688.05 2420.50 L721.46 2420.50 L754.88 2420.50 L788.29 2420.50 L821.70 2420.50 L855.11 2420.50 L888.52 2420.50 L921.94 2420.50 L955.35 2420.50 L988.76 2420.50 L1022.18 2420.50 L1055.59 2420.50 L1089.00 2420.63 L1122.41 2420.87 L1155.83 2421.62 L1189.24 2422.85 L1222.65 2424.59 L1256.06 2425.82 L1289.47 2424.71 L1323.01 2417.90 L1356.42 2401.57 L1389.84 2371.99 L1423.25 2326.33 L1456.66 2263.58 L1490.07 2184.63 L1523.49 2092.43 L1556.90 1991.08 L1590.31 1884.90 L1623.72 1777.23 L1657.14 1670.18 L1690.55 1565.36 L1723.96 1463.27 L1757.37 1364.63 L1790.79 1270.09 L1824.20 1180.24 L1857.61 1095.35 L1891.02 1015.90 L1924.44 941.77 L1957.85 873.21 L1991.26 810.22 L2024.67 752.55 L2058.09 700.08 L2091.50 652.55 L2124.91 609.61 L2158.32 571.12 L2191.74 536.60 L2225.15 505.78 L2258.56 478.43 L2291.97 454.42 L2325.39 433.26 L2358.80 415.07 L2392.21 399.48 L2425.62 386.48 L2459.04 375.84 L2492.45 367.55 L2525.86 361.24 L2559.40 356.53 L2592.81 352.95 L2626.22 350.22 L2659.64 348.24 L2693.05 346.63 L2726.46 345.40 L2759.87 344.53 L2793.28 343.79 L2826.70 343.29 L2860.11 342.80 L2893.52 342.55 L2926.93 342.30 L2960.35 342.18 L2993.76 342.06 L3027.17 341.93 L3060.59 341.93 L3094.00 341.93 L3127.41 341.93 L3160.82 341.93 L3194.24 341.93 L3227.65 341.93 L3261.06 341.93 L3294.47 341.93 L3327.89 342.06 L3361.30 342.06 L3394.71 342.06 L3428.12 342.06 L3461.53 342.18 L3494.95 342.18 L3494.95 258.15 L3461.53 258.40 L3428.12 258.65 L3394.71 258.89 L3361.30 259.26 L3327.89 259.64 L3294.47 260.01 L3261.06 260.50 L3227.65 261.00 L3194.24 261.62 L3160.82 262.36 L3127.41 263.22 L3094.00 264.21 L3060.59 265.20 L3027.17 266.44 L2993.76 267.80 L2960.35 269.41 L2926.93 271.27 L2893.52 273.25 L2860.11 275.60 L2826.70 278.32 L2793.28 281.29 L2759.87 284.76 L2726.46 288.47 L2693.05 292.80 L2659.64 297.63 L2626.22 302.95 L2592.81 308.64 L2559.40 314.95 L2525.86 321.51 L2492.45 328.32 L2459.04 335.13 L2425.62 342.06 L2392.21 349.11 L2358.80 356.78 L2325.39 365.20 L2291.97 374.85 L2258.56 385.99 L2225.15 399.23 L2191.74 414.82 L2158.32 433.39 L2124.91 455.41 L2091.50 481.40 L2058.09 512.22 L2024.67 548.35 L1991.26 590.68 L1957.85 639.93 L1924.44 696.98 L1891.02 762.45 L1857.61 836.95 L1824.20 920.85 L1790.79 1014.29 L1757.37 1116.88 L1723.96 1227.76 L1690.55 1345.08 L1657.14 1466.48 L1623.72 1588.75 L1590.31 1708.42 L1556.90 1822.03 L1523.49 1927.47 L1490.07 2023.38 L1456.66 2109.14 L1423.25 2184.38 L1389.84 2248.61 L1356.42 2301.45 L1323.01 2342.91 L1289.47 2373.60 L1256.06 2394.51 L1222.65 2407.51 L1189.24 2414.81 L1155.83 2418.27 L1122.41 2419.76 L1089.00 2420.25 L1055.59 2420.50 L1022.18 2420.50 L988.76 2420.50 L955.35 2420.50 L921.94 2420.50 L888.52 2420.50 L855.11 2420.50 L821.70 2420.50 L788.29 2420.50 L754.88 2420.50 L721.46 2420.50 L688.05 2420.50 L654.64 2420.50 L621.23 2420.50 L520.99 2420.50 L520.99 2420.50 Z" stroke-linecap="round" style="fill:#EBEBFF;stroke:#E6E6FF;stroke-width:3.00"/>
	<path d="M520.99 2420.50 L520.99 2420.50 L621.23 2420.50 L654.64 2420.50 L688.05 2420.50 L721.46 2420.50 L754.88 2420.50 L788.29 2420.50 L821.70 2420.50 L855.11 2420.50 L888.52 2420.50 L921.94 2420.50 L955.35 2420.50 L988.76 2420.50 L1022.18 2420.50 L1055.59 2420.50 L1089.00 2420.50 L1122.41 2420.63 L1155.83 2420.63 L1189.24 2420.50 L1222.65 2419.64 L1256.06 2416.79 L1289.47 2409.86 L1323.01 2396.25 L1356.42 2372.73 L1389.84 2336.35 L1423.25 2285.36 L1456.66 2219.03 L1490.07 2138.10 L1523.49 2044.91 L1556.90 1942.32 L1590.31 1833.91 L1623.72 1722.78 L1657.14 1611.40 L1690.55 1501.75 L1723.96 1395.20 L1757.37 1293.10 L1790.79 1196.33 L1824.20 1105.37 L1857.61 1020.85 L1891.02 942.76 L1924.44 871.10 L1957.85 805.89 L1991.26 746.85 L2024.67 693.64 L2058.09 645.87 L2091.50 603.18 L2124.91 565.06 L2158.32 531.28 L2191.74 501.45 L2225.15 474.97 L2258.56 451.83 L2291.97 431.41 L2325.39 413.71 L2358.80 398.24 L2392.21 384.87 L2425.62 373.61 L2459.04 364.08 L2492.45 356.29 L2525.86 349.85 L2559.40 344.53 L2592.81 340.20 L2626.22 336.61 L2659.64 333.64 L2693.05 331.04 L2726.46 329.06 L2759.87 327.21 L2793.28 325.72 L2826.70 324.48 L2860.11 323.49 L2893.52 322.63 L2926.93 321.76 L2960.35 321.14 L2993.76 320.65 L3027.17 320.15 L3060.59 319.78 L3094.00 319.41 L3127.41 319.16 L3160.82 318.91 L3194.24 318.79 L3227.65 318.54 L3261.06 318.42 L3294.47 318.29 L3327.89 318.17 L3361.30 318.17 L3394.71 318.05 L3428.12 318.05 L3461.53 317.92 L3494.95 317.92 L3494.95 282.41 L3461.53 282.53 L3428.12 282.78 L3394.71 282.90 L3361.30 283.15 L3327.89 283.40 L3294.47 283.64 L3261.06 284.02 L3227.65 284.39 L3194.24 284.88 L3160.82 285.38 L3127.41 285.87 L3094.00 286.61 L3060.59 287.36 L3027.17 288.22 L2993.76 289.21 L2960.35 290.45 L2926.93 291.81 L2893.52 293.30 L2860.11 295.03 L2826.70 297.01 L2793.28 299.36 L2759.87 301.96 L2726.46 304.93 L2693.05 308.39 L2659.64 312.23 L2626.22 316.56 L2592.81 321.51 L2559.40 326.96 L2525.86 333.02 L2492.45 339.58 L2459.04 346.88 L2425.62 354.80 L2392.21 363.71 L2358.80 373.61 L2325.39 384.87 L2291.97 397.74 L2258.56 412.72 L2225.15 429.92 L2191.74 449.97 L2158.32 473.11 L2124.91 499.84 L2091.50 530.78 L2058.09 566.42 L2024.67 607.26 L1991.26 654.04 L1957.85 707.25 L1924.44 767.65 L1891.02 835.59 L1857.61 911.57 L1824.20 995.72 L1790.79 1088.17 L1757.37 1188.41 L1723.96 1295.70 L1690.55 1408.57 L1657.14 1525.27 L1623.72 1643.20 L1590.31 1759.28 L1556.90 1870.91 L1523.49 1975.11 L1490.07 2069.91 L1456.66 2153.69 L1423.25 2225.34 L1389.84 2284.25 L1356.42 2330.41 L1323.01 2364.57 L1289.47 2388.33 L1256.06 2403.55 L1222.65 2412.46 L1189.24 2417.16 L1155.83 2419.26 L1122.41 2420.13 L1089.00 2420.38 L1055.59 2420.50 L1022.18 2420.50 L988.76 2420.50 L955.35 2420.50 L921.94 2420.50 L888.52 2420.50 L855.11 2420.50 L821.70 2420.50 L788.29 2420.50 L754.88 2420.50 L721.46 2420.50 L688.05 2420.50 L654.64 2420.50 L621.23 2420.50 L520.99 2420.50 L520.99 2420.50 Z" stroke-linecap="round" style="fill:#D6D6FF;stroke:#CCCCFF;stroke-width:3.00"/>
	<path d="M520.99 2420.50 L520.99 2420.50 L621.23 2420.50 L654.64 2420.50 L688.05 2420.50 L721.46 2420.50 L754.88 2420.50 L788.29 2420.50 L821.70 2420.50 L855.11 2420.50 L888.52 2420.50 L921.94 2420.50 L955.35 2420.50 L988.76 2420.50 L1022.18 2420.50 L1055.59 2420.50 L1089.00 2420.50 L1122.41 2420.50 L1155.83 2420.50 L1189.24 2420.13 L1222.65 2418.89 L1256.06 2415.30 L1289.47 2407.51 L1323.01 2392.78 L1356.42 2368.03 L1389.84 2330.66 L1423.25 2278.80 L1456.66 2211.85 L1490.07 2130.55 L1523.49 2037.11 L1556.90 1934.40 L1590.31 1825.74 L1623.72 1713.99 L1657.14 1601.87 L1690.55 1491.48 L1723.96 1384.19 L1757.37 1281.60 L1790.79 1184.32 L1824.20 1093.24 L1857.61 1008.72 L1891.02 930.88 L1924.44 859.72 L1957.85 794.99 L1991.26 736.58 L2024.67 684.11 L2058.09 637.08 L2091.50 595.13 L2124.91 557.88 L2158.32 524.84 L2191.74 495.76 L2225.15 470.02 L2258.56 447.49 L2291.97 427.69 L2325.39 410.49 L2358.80 395.52 L2392.21 382.52 L2425.62 371.51 L2459.04 362.23 L2492.45 354.43 L2525.86 348.00 L2559.40 342.55 L2592.81 338.10 L2626.22 334.38 L2659.64 331.29 L2693.05 328.57 L2726.46 326.34 L2759.87 324.48 L2793.28 322.87 L2826.70 321.51 L2860.11 320.28 L2893.52 319.28 L2926.93 318.54 L2960.35 317.80 L2993.76 317.18 L3027.17 316.69 L3060.59 316.19 L3094.00 315.82 L3127.41 315.57 L3160.82 315.20 L3194.24 314.95 L3227.65 314.83 L3261.06 314.71 L3294.47 314.46 L3327.89 314.33 L3361.30 314.33 L3394.71 314.21 L3428.12 314.09 L3461.53 314.09 L3494.95 313.96 L3494.95 286.37 L3461.53 286.49 L3428.12 286.61 L3394.71 286.74 L3361.30 286.99 L3327.89 287.23 L3294.47 287.48 L3261.06 287.85 L3227.65 288.22 L3194.24 288.59 L3160.82 289.09 L3127.41 289.58 L3094.00 290.20 L3060.59 290.95 L3027.17 291.81 L2993.76 292.68 L2960.35 293.79 L2926.93 295.03 L2893.52 296.51 L2860.11 298.12 L2826.70 300.10 L2793.28 302.21 L2759.87 304.81 L2726.46 307.65 L2693.05 310.87 L2659.64 314.58 L2626.22 318.79 L2592.81 323.49 L2559.40 328.81 L2525.86 334.88 L2492.45 341.44 L2459.04 348.74 L2425.62 356.91 L2392.21 366.06 L2358.80 376.34 L2325.39 387.97 L2291.97 401.46 L2258.56 417.05 L2225.15 434.99 L2191.74 455.66 L2158.32 479.55 L2124.91 507.14 L2091.50 538.82 L2058.09 575.21 L2024.67 616.79 L1991.26 664.31 L1957.85 718.27 L1924.44 779.03 L1891.02 847.47 L1857.61 923.58 L1824.20 1007.85 L1790.79 1100.05 L1757.37 1199.92 L1723.96 1306.72 L1690.55 1418.96 L1657.14 1534.80 L1623.72 1651.99 L1590.31 1767.58 L1556.90 1878.71 L1523.49 1982.78 L1490.07 2077.46 L1456.66 2160.87 L1423.25 2232.02 L1389.84 2289.94 L1356.42 2334.99 L1323.01 2368.03 L1289.47 2390.68 L1256.06 2405.03 L1222.65 2413.20 L1189.24 2417.53 L1155.83 2419.39 L1122.41 2420.13 L1089.00 2420.38 L1055.59 2420.50 L1022.18 2420.50 L988.76 2420.50 L955.35 2420.50 L921.94 2420.50 L888.52 2420.50 L855.11 2420.50 L821.70 2420.50 L788.29 2420.50 L754.88 2420.50 L721.46 2420.50 L688.05 2420.50 L654.64 2420.50 L621.23 2420.50 L520.99 2420.50 L520.99 2420.50 Z" stroke-linecap="round" style="fill:#C2C2FF;stroke:#B3B3FF;stroke-width:3.00"/>
	<path d="M520.99 2420.50 L520.99 2420.50 L621.23 2420.50 L654.64 2420.50 L688.05 2420.50 L721.46 2420.50 L754.88 2420.50 L788.29 2420.50 L821.70 2420.50 L855.11 2420.50 L888.52 2420.50 L921.94 2420.50 L955.35 2420.50 L988.76 2420.50 L1022.18 2420.50 L1055.59 2420.50 L1089.00 2420.50 L1122.41 2420.50 L1155.83 2420.38 L1189.24 2419.88 L1222.65 2418.27 L1256.06 2414.31 L1289.47 2405.90 L1323.01 2390.43 L1356.42 2364.81 L1389.84 2326.70 L1423.25 2274.22 L1456.66 2206.90 L1490.07 2125.47 L1523.49 2031.91 L1556.90 1929.08 L1590.31 1820.17 L1623.72 1708.05 L1657.14 1595.56 L1690.55 1484.55 L1723.96 1376.89 L1757.37 1273.80 L1790.79 1176.28 L1824.20 1085.07 L1857.61 1000.55 L1891.02 922.96 L1924.44 852.05 L1957.85 787.69 L1991.26 729.65 L2024.67 677.68 L2058.09 631.14 L2091.50 589.81 L2124.91 553.06 L2158.32 520.51 L2191.74 491.92 L2225.15 466.68 L2258.56 444.52 L2291.97 425.22 L2325.39 408.26 L2358.80 393.66 L2392.21 381.04 L2425.62 370.15 L2459.04 360.99 L2492.45 353.19 L2525.86 346.63 L2559.40 341.31 L2592.81 336.73 L2626.22 332.90 L2659.64 329.68 L2693.05 326.83 L2726.46 324.61 L2759.87 322.63 L2793.28 320.89 L2826.70 319.41 L2860.11 318.17 L2893.52 317.18 L2926.93 316.31 L2960.35 315.45 L2993.76 314.83 L3027.17 314.33 L3060.59 313.84 L3094.00 313.34 L3127.41 313.10 L3160.82 312.73 L3194.24 312.48 L3227.65 312.23 L3261.06 312.11 L3294.47 311.86 L3327.89 311.74 L3361.30 311.61 L3394.71 311.61 L3428.12 311.49 L3461.53 311.36 L3494.95 311.36 L3494.95 288.97 L3461.53 289.09 L3428.12 289.21 L3394.71 289.46 L3361.30 289.58 L3327.89 289.83 L3294.47 290.08 L3261.06 290.33 L3227.65 290.70 L3194.24 291.07 L3160.82 291.56 L3127.41 292.06 L3094.00 292.68 L3060.59 293.42 L3027.17 294.16 L2993.76 295.03 L2960.35 296.14 L2926.93 297.38 L2893.52 298.74 L2860.11 300.35 L2826.70 302.08 L2793.28 304.19 L2759.87 306.66 L2726.46 309.38 L2693.05 312.60 L2659.64 316.19 L2626.22 320.28 L2592.81 324.98 L2559.40 330.18 L2525.86 336.12 L2492.45 342.67 L2459.04 350.10 L2425.62 358.27 L2392.21 367.55 L2358.80 378.19 L2325.39 390.20 L2291.97 404.06 L2258.56 419.90 L2225.15 438.34 L2191.74 459.50 L2158.32 483.88 L2124.91 511.97 L2091.50 544.15 L2058.09 581.15 L2024.67 623.22 L1991.26 671.24 L1957.85 725.57 L1924.44 786.83 L1891.02 855.39 L1857.61 931.74 L1824.20 1016.02 L1790.79 1108.09 L1757.37 1207.71 L1723.96 1314.14 L1690.55 1425.89 L1657.14 1541.23 L1623.72 1657.93 L1590.31 1773.15 L1556.90 1884.03 L1523.49 1987.98 L1490.07 2082.53 L1456.66 2165.82 L1423.25 2236.48 L1389.84 2293.90 L1356.42 2338.21 L1323.01 2370.38 L1289.47 2392.29 L1256.06 2406.02 L1222.65 2413.82 L1189.24 2417.78 L1155.83 2419.51 L1122.41 2420.25 L1089.00 2420.38 L1055.59 2420.50 L1022.18 2420.50 L988.76 2420.50 L955.35 2420.50 L921.94 2420.50 L888.52 2420.50 L855.11 2420.50 L821.70 2420.50 L788.29 2420.50 L754.88 2420.50 L721.46 2420.50 L688.05 2420.50 L654.64 2420.50 L621.23 2420.50 L520.99 2420.50 L520.99 2420.50 Z" stroke-linecap="round" style="fill:#ADADFF;stroke:#9999FF;stroke-width:3.00"/>
	<path d="M520.99 2420.50 L520.99 2420.50 L621.23 2420.50 L654.64 2420.50 L688.05 2420.50 L721.46 2420.50 L754.88 2420.50 L788.29 2420.50 L821.70 2420.50 L855.11 2420.50 L888.52 2420.50 L921.94 2420.50 L955.35 2420.50 L988.76 2420.50 L1022.18 2420.50 L1055.59 2420.50 L1089.00 2420.50 L1122.41 2420.50 L1155.83 2420.25 L1189.24 2419.64 L1222.65 2417.90 L1256.06 2413.57 L1289.47 2404.66 L1323.01 2388.45 L1356.42 2362.34 L1389.84 2323.60 L1423.25 2270.76 L1456.66 2203.07 L1490.07 2121.51 L1523.49 2027.83 L1556.90 1924.87 L1590.31 1815.72 L1623.72 1703.35 L1657.14 1590.36 L1690.55 1478.98 L1723.96 1370.95 L1757.37 1267.61 L1790.79 1169.85 L1824.20 1078.64 L1857.61 994.11 L1891.02 916.52 L1924.44 845.86 L1957.85 781.88 L1991.26 724.21 L2024.67 672.60 L2058.09 626.44 L2091.50 585.48 L2124.91 549.22 L2158.32 517.17 L2191.74 488.83 L2225.15 464.08 L2258.56 442.30 L2291.97 423.24 L2325.39 406.66 L2358.80 392.18 L2392.21 379.68 L2425.62 369.03 L2459.04 359.88 L2492.45 352.20 L2525.86 345.64 L2559.40 340.20 L2592.81 335.62 L2626.22 331.66 L2659.64 328.32 L2693.05 325.60 L2726.46 323.12 L2759.87 321.02 L2793.28 319.28 L2826.70 317.80 L2860.11 316.56 L2893.52 315.45 L2926.93 314.46 L2960.35 313.72 L2993.76 312.97 L3027.17 312.35 L3060.59 311.86 L3094.00 311.49 L3127.41 311.12 L3160.82 310.75 L3194.24 310.50 L3227.65 310.25 L3261.06 310.00 L3294.47 309.88 L3327.89 309.76 L3361.30 309.63 L3394.71 309.51 L3428.12 309.38 L3461.53 309.26 L3494.95 309.26 L3494.95 291.07 L3461.53 291.19 L3428.12 291.32 L3394.71 291.44 L3361.30 291.69 L3327.89 291.94 L3294.47 292.18 L3261.06 292.43 L3227.65 292.80 L3194.24 293.17 L3160.82 293.54 L3127.41 294.04 L3094.00 294.66 L3060.59 295.28 L3027.17 296.02 L2993.76 296.89 L2960.35 297.88 L2926.93 299.11 L2893.52 300.47 L2860.11 301.96 L2826.70 303.82 L2793.28 305.80 L2759.87 308.15 L2726.46 310.87 L2693.05 313.84 L2659.64 317.43 L2626.22 321.39 L2592.81 325.97 L2559.40 331.17 L2525.86 337.11 L2492.45 343.66 L2459.04 351.09 L2425.62 359.38 L2392.21 368.91 L2358.80 379.55 L2325.39 391.93 L2291.97 406.04 L2258.56 422.25 L2225.15 440.94 L2191.74 462.47 L2158.32 487.34 L2124.91 515.81 L2091.50 548.48 L2058.09 585.85 L2024.67 628.42 L1991.26 676.69 L1957.85 731.39 L1924.44 792.89 L1891.02 861.70 L1857.61 938.18 L1824.20 1022.45 L1790.79 1114.53 L1757.37 1214.03 L1723.96 1319.96 L1690.55 1431.34 L1657.14 1546.30 L1623.72 1662.63 L1590.31 1777.60 L1556.90 1888.36 L1523.49 1992.07 L1490.07 2086.61 L1456.66 2169.65 L1423.25 2239.94 L1389.84 2297.00 L1356.42 2340.68 L1323.01 2372.24 L1289.47 2393.52 L1256.06 2406.77 L1222.65 2414.19 L1189.24 2417.90 L1155.83 2419.64 L1122.41 2420.25 L1089.00 2420.38 L1055.59 2420.50 L1022.18 2420.50 L988.76 2420.50 L955.35 2420.50 L921.94 2420.50 L888.52 2420.50 L855.11 2420.50 L821.70 2420.50 L788.29 2420.50 L754.88 2420.50 L721.46 2420.50 L688.05 2420.50 L654.64 2420.50 L621.23 2420.50 L520.99 2420.50 L520.99 2420.50 Z" stroke-linecap="round" style="fill:#9999FF;stroke:#8080FF;stroke-width:3.00"/>
	<path d="M520.99 2420.50 L520.99 2420.50 L621.23 2420.50 L654.64 2420.50 L688.05 2420.50 L721.46 2420.50 L754.88 2420.50 L788.29 2420.50 L821.70 2420.50 L855.11 2420.50 L888.52 2420.50 L921.94 2420.50 L955.35 2420.50 L988.76 2420.50 L1022.18 2420.50 L1055.59 2420.50 L1089.00 2420.50 L1122.41 2420.38 L1155.83 2420.25 L1189.24 2419.51 L1222.65 2417.53 L1256.06 2412.83 L1289.47 2403.55 L1323.01 2386.84 L1356.42 2360.23 L1389.84 2321.00 L1423.25 2267.67 L1456.66 2199.72 L1490.07 2118.05 L1523.49 2024.24 L1556.90 1921.28 L1590.31 1811.88 L1623.72 1699.26 L1657.14 1586.03 L1690.55 1474.28 L1723.96 1365.87 L1757.37 1262.29 L1790.79 1164.40 L1824.20 1073.07 L1857.61 988.55 L1891.02 911.08 L1924.44 840.66 L1957.85 776.80 L1991.26 719.50 L2024.67 668.15 L2058.09 622.48 L2091.50 581.77 L2124.91 545.88 L2158.32 514.20 L2191.74 486.23 L2225.15 461.73 L2258.56 440.32 L2291.97 421.51 L2325.39 405.17 L2358.80 390.94 L2392.21 378.69 L2425.62 368.04 L2459.04 359.01 L2492.45 351.34 L2525.86 344.90 L2559.40 339.33 L2592.81 334.63 L2626.22 330.67 L2659.64 327.33 L2693.05 324.36 L2726.46 321.88 L2759.87 319.78 L2793.28 317.92 L2826.70 316.44 L2860.11 315.08 L2893.52 313.96 L2926.93 312.97 L2960.35 312.11 L2993.76 311.36 L3027.17 310.75 L3060.59 310.25 L3094.00 309.76 L3127.41 309.38 L3160.82 309.01 L3194.24 308.77 L3227.65 308.52 L3261.06 308.27 L3294.47 308.15 L3327.89 307.90 L3361.30 307.78 L3394.71 307.65 L3428.12 307.65 L3461.53 307.53 L3494.95 307.40 L3494.95 292.93 L3461.53 293.05 L3428.12 293.17 L3394.71 293.30 L3361.30 293.42 L3327.89 293.67 L3294.47 293.92 L3261.06 294.16 L3227.65 294.53 L3194.24 294.78 L3160.82 295.28 L3127.41 295.77 L3094.00 296.27 L3060.59 296.89 L3027.17 297.63 L2993.76 298.49 L2960.35 299.48 L2926.93 300.60 L2893.52 301.96 L2860.11 303.44 L2826.70 305.18 L2793.28 307.16 L2759.87 309.38 L2726.46 311.98 L2693.05 315.08 L2659.64 318.54 L2626.22 322.50 L2592.81 326.96 L2559.40 332.16 L2525.86 337.97 L2492.45 344.53 L2459.04 351.96 L2425.62 360.37 L2392.21 369.90 L2358.80 380.79 L2325.39 393.29 L2291.97 407.65 L2258.56 424.23 L2225.15 443.29 L2191.74 465.19 L2158.32 490.31 L2124.91 519.15 L2091.50 552.19 L2058.09 589.81 L2024.67 632.75 L1991.26 681.39 L1957.85 736.46 L1924.44 798.21 L1891.02 867.14 L1857.61 943.75 L1824.20 1028.02 L1790.79 1120.10 L1757.37 1219.35 L1723.96 1325.03 L1690.55 1436.04 L1657.14 1550.76 L1623.72 1666.72 L1590.31 1781.31 L1556.90 1891.95 L1523.49 1995.65 L1490.07 2090.08 L1456.66 2172.99 L1423.25 2243.04 L1389.84 2299.59 L1356.42 2342.78 L1323.01 2373.85 L1289.47 2394.64 L1256.06 2407.51 L1222.65 2414.56 L1189.24 2418.15 L1155.83 2419.64 L1122.41 2420.25 L1089.00 2420.38 L1055.59 2420.50 L1022.18 2420.50 L988.76 2420.50 L955.35 2420.50 L921.94 2420.50 L888.52 2420.50 L855.11 2420.50 L821.70 2420.50 L788.29 2420.50 L754.88 2420.50 L721.46 2420.50 L688.05 2420.50 L654.64 2420.50 L621.23 2420.50 L520.99 2420.50 L520.99 2420.50 Z" stroke-linecap="round" style="fill:#8585FF;stroke:#6666FF;stroke-width:3.00"/>
	<path d="M520.99 2420.50 L520.99 2420.50 L621.23 2420.50 L654.64 2420.50 L688.05 2420.50 L721.46 2420.50 L754.88 2420.50 L788.29 2420.50 L821.70 2420.50 L855.11 2420.50 L888.52 2420.50 L921.94 2420.50 L955.35 2420.50 L988.76 2420.50 L1022.18 2420.50 L1055.59 2420.50 L1089.00 2420.50 L1122.41 2420.38 L1155.83 2420.13 L1189.24 2419.39 L1222.65 2417.16 L1256.06 2412.33 L1289.47 2402.56 L1323.01 2385.48 L1356.42 2358.25 L1389.84 2318.65 L1423.25 2264.94 L1456.66 2196.75 L1490.07 2114.83 L1523.49 2021.15 L1556.90 1917.94 L1590.31 1808.54 L1623.72 1695.68 L1657.14 1582.07 L1690.55 1470.07 L1723.96 1361.29 L1757.37 1257.46 L1790.79 1159.45 L1824.20 1068.00 L1857.61 983.60 L1891.02 906.25 L1924.44 835.83 L1957.85 772.35 L1991.26 715.30 L2024.67 664.19 L2058.09 618.77 L2091.50 578.55 L2124.91 542.91 L2158.32 511.47 L2191.74 483.88 L2225.15 459.62 L2258.56 438.46 L2291.97 420.02 L2325.39 403.81 L2358.80 389.82 L2392.21 377.70 L2425.62 367.18 L2459.04 358.27 L2492.45 350.59 L2525.86 344.04 L2559.40 338.47 L2592.81 333.76 L2626.22 329.80 L2659.64 326.34 L2693.05 323.37 L2726.46 320.77 L2759.87 318.67 L2793.28 316.81 L2826.70 315.20 L2860.11 313.84 L2893.52 312.60 L2926.93 311.61 L2960.35 310.75 L2993.76 310.00 L3027.17 309.26 L3060.59 308.77 L3094.00 308.27 L3127.41 307.90 L3160.82 307.53 L3194.24 307.16 L3227.65 306.91 L3261.06 306.66 L3294.47 306.54 L3327.89 306.41 L3361.30 306.17 L3394.71 306.04 L3428.12 306.04 L3461.53 305.92 L3494.95 305.80 L3494.95 294.53 L3461.53 294.66 L3428.12 294.78 L3394.71 294.91 L3361.30 295.03 L3327.89 295.28 L3294.47 295.52 L3261.06 295.77 L3227.65 296.02 L3194.24 296.39 L3160.82 296.76 L3127.41 297.26 L3094.00 297.75 L3060.59 298.37 L3027.17 299.11 L2993.76 299.98 L2960.35 300.85 L2926.93 301.96 L2893.52 303.32 L2860.11 304.68 L2826.70 306.41 L2793.28 308.39 L2759.87 310.62 L2726.46 313.10 L2693.05 316.07 L2659.64 319.53 L2626.22 323.37 L2592.81 327.82 L2559.40 332.90 L2525.86 338.71 L2492.45 345.27 L2459.04 352.82 L2425.62 361.24 L2392.21 370.89 L2358.80 382.03 L2325.39 394.65 L2291.97 409.25 L2258.56 425.96 L2225.15 445.27 L2191.74 467.54 L2158.32 492.91 L2124.91 522.12 L2091.50 555.41 L2058.09 593.52 L2024.67 636.71 L1991.26 685.72 L1957.85 740.91 L1924.44 802.92 L1891.02 872.09 L1857.61 948.70 L1824.20 1033.10 L1790.79 1124.92 L1757.37 1224.05 L1723.96 1329.61 L1690.55 1440.37 L1657.14 1554.60 L1623.72 1670.31 L1590.31 1784.78 L1556.90 1895.17 L1523.49 1998.87 L1490.07 2093.17 L1456.66 2175.96 L1423.25 2245.76 L1389.84 2301.95 L1356.42 2344.76 L1323.01 2375.33 L1289.47 2395.63 L1256.06 2408.00 L1222.65 2414.93 L1189.24 2418.27 L1155.83 2419.76 L1122.41 2420.25 L1089.00 2420.38 L1055.59 2420.50 L1022.18 2420.50 L988.76 2420.50 L955.35 2420.50 L921.94 2420.50 L888.52 2420.50 L855.11 2420.50 L821.70 2420.50 L788.29 2420.50 L754.88 2420.50 L721.46 2420.50 L688.05 2420.50 L654.64 2420.50 L621.23 2420.50 L520.99 2420.50 L520.99 2420.50 Z" stroke-linecap="round" style="fill:#7171FF;stroke:#4D4DFF;stroke-width:3.00"/>
	<path d="M520.99 2420.50 L520.99 2420.50 L621.23 2420.50 L654.64 2420.50 L688.05 2420.50 L721.46 2420.50 L754.88 2420.50 L788.29 2420.50 L821.70 2420.50 L855.11 2420.50 L888.52 2420.50 L921.94 2420.50 L955.35 2420.50 L988.76 2420.50 L1022.18 2420.50 L1055.59 2420.50 L1089.00 2420.50 L1122.41 2420.38 L1155.83 2420.13 L1189.24 2419.26 L1222.65 2416.91 L1256.06 2411.72 L1289.47 2401.69 L1323.01 2384.12 L1356.42 2356.52 L1389.84 2316.42 L1423.25 2262.34 L1456.66 2194.03 L1490.07 2111.98 L1523.49 2018.18 L1556.90 1914.97 L1590.31 1805.32 L1623.72 1692.33 L1657.14 1578.48 L1690.55 1466.11 L1723.96 1357.08 L1757.37 1253.01 L1790.79 1154.87 L1824.20 1063.42 L1857.61 979.02 L1891.02 901.67 L1924.44 831.50 L1957.85 768.14 L1991.26 711.34 L2024.67 660.60 L2058.09 615.43 L2091.50 575.46 L2124.91 540.19 L2158.32 509.00 L2191.74 481.77 L2225.15 457.77 L2258.56 436.85 L2291.97 418.54 L2325.39 402.57 L2358.80 388.83 L2392.21 376.83 L2425.62 366.44 L2459.04 357.52 L2492.45 349.85 L2525.86 343.42 L2559.40 337.72 L2592.81 333.02 L2626.22 328.94 L2659.64 325.35 L2693.05 322.38 L2726.46 319.78 L2759.87 317.55 L2793.28 315.70 L2826.70 313.96 L2860.11 312.60 L2893.52 311.36 L2926.93 310.25 L2960.35 309.38 L2993.76 308.64 L3027.17 307.90 L3060.59 307.40 L3094.00 306.91 L3127.41 306.41 L3160.82 306.04 L3194.24 305.80 L3227.65 305.55 L3261.06 305.30 L3294.47 305.05 L3327.89 304.93 L3361.30 304.68 L3394.71 304.56 L3428.12 304.56 L3461.53 304.43 L3494.95 304.31 L3494.95 296.02 L3461.53 296.14 L3428.12 296.27 L3394.71 296.39 L3361.30 296.51 L3327.89 296.76 L3294.47 296.89 L3261.06 297.13 L3227.65 297.50 L3194.24 297.88 L3160.82 298.25 L3127.41 298.62 L3094.00 299.24 L3060.59 299.73 L3027.17 300.47 L2993.76 301.22 L2960.35 302.21 L2926.93 303.32 L2893.52 304.56 L2860.11 305.92 L2826.70 307.53 L2793.28 309.51 L2759.87 311.61 L2726.46 314.21 L2693.05 317.06 L2659.64 320.40 L2626.22 324.24 L2592.81 328.57 L2559.40 333.64 L2525.86 339.46 L2492.45 346.02 L2459.04 353.44 L2425.62 361.98 L2392.21 371.76 L2358.80 383.02 L2325.39 395.89 L2291.97 410.62 L2258.56 427.69 L2225.15 447.25 L2191.74 469.65 L2158.32 495.39 L2124.91 524.84 L2091.50 558.50 L2058.09 596.86 L2024.67 640.30 L1991.26 689.56 L1957.85 745.12 L1924.44 807.25 L1891.02 876.55 L1857.61 953.40 L1824.20 1037.68 L1790.79 1129.50 L1757.37 1228.50 L1723.96 1333.82 L1690.55 1444.33 L1657.14 1558.31 L1623.72 1673.65 L1590.31 1787.87 L1556.90 1898.26 L1523.49 2001.84 L1490.07 2096.02 L1456.66 2178.69 L1423.25 2248.36 L1389.84 2304.17 L1356.42 2346.50 L1323.01 2376.69 L1289.47 2396.62 L1256.06 2408.62 L1222.65 2415.18 L1189.24 2418.40 L1155.83 2419.76 L1122.41 2420.25 L1089.00 2420.38 L1055.59 2420.50 L1022.18 2420.50 L988.76 2420.50 L955.35 2420.50 L921.94 2420.50 L888.52 2420.50 L855.11 2420.50 L821.70 2420.50 L788.29 2420.50 L754.88 2420.50 L721.46 2420.50 L688.05 2420.50 L654.64 2420.50 L621.23 2420.50 L520.99 2420.50 L520.99 2420.50 Z" stroke-linecap="round" style="fill:#5C5CFF;stroke:#3333FF;stroke-width:3.00"/>
	<path d="M520.99 2420.50 L520.99 2420.50 L621.23 2420.50 L654.64 2420.50 L688.05 2420.50 L721.46 2420.50 L754.88 2420.50 L788.29 2420.50 L821.70 2420.50 L855.11 2420.50 L888.52 2420.50 L921.94 2420.50 L955.35 2420.50 L988.76 2420.50 L1022.18 2420.50 L1055.59 2420.50 L1089.00 2420.50 L1122.41 2420.38 L1155.83 2420.01 L1189.24 2419.02 L1222.65 2416.54 L1256.06 2411.22 L1289.47 2400.83 L1323.01 2382.88 L1356.42 2354.79 L1389.84 2314.32 L1423.25 2259.99 L1456.66 2191.43 L1490.07 2109.26 L1523.49 2015.33 L1556.90 1912.12 L1590.31 1802.35 L1623.72 1689.12 L1657.14 1575.02 L1690.55 1462.40 L1723.96 1353.12 L1757.37 1248.80 L1790.79 1150.54 L1824.20 1058.96 L1857.61 974.56 L1891.02 897.34 L1924.44 827.42 L1957.85 764.18 L1991.26 707.62 L2024.67 657.13 L2058.09 612.21 L2091.50 572.61 L2124.91 537.46 L2158.32 506.65 L2191.74 479.67 L2225.15 455.91 L2258.56 435.24 L2291.97 417.17 L2325.39 401.46 L2358.80 387.84 L2392.21 375.96 L2425.62 365.69 L2459.04 356.78 L2492.45 349.23 L2525.86 342.67 L2559.40 337.11 L2592.81 332.28 L2626.22 328.07 L2659.64 324.48 L2693.05 321.51 L2726.46 318.79 L2759.87 316.56 L2793.28 314.58 L2826.70 312.85 L2860.11 311.49 L2893.52 310.13 L2926.93 309.14 L2960.35 308.15 L2993.76 307.40 L3027.17 306.66 L3060.59 306.04 L3094.00 305.55 L3127.41 305.18 L3160.82 304.68 L3194.24 304.43 L3227.65 304.06 L3261.06 303.94 L3294.47 303.69 L3327.89 303.44 L3361.30 303.32 L3394.71 303.20 L3428.12 303.07 L3461.53 302.95 L3494.95 302.95 L3494.95 297.38 L3461.53 297.50 L3428.12 297.63 L3394.71 297.75 L3361.30 298.00 L3327.89 298.12 L3294.47 298.37 L3261.06 298.62 L3227.65 298.87 L3194.24 299.24 L3160.82 299.61 L3127.41 299.98 L3094.00 300.47 L3060.59 301.09 L3027.17 301.71 L2993.76 302.58 L2960.35 303.44 L2926.93 304.43 L2893.52 305.67 L2860.11 307.03 L2826.70 308.64 L2793.28 310.50 L2759.87 312.60 L2726.46 315.08 L2693.05 317.92 L2659.64 321.27 L2626.22 324.98 L2592.81 329.43 L2559.40 334.38 L2525.86 340.08 L2492.45 346.63 L2459.04 354.18 L2425.62 362.85 L2392.21 372.62 L2358.80 384.01 L2325.39 397.00 L2291.97 411.98 L2258.56 429.18 L2225.15 448.98 L2191.74 471.75 L2158.32 497.74 L2124.91 527.44 L2091.50 561.47 L2058.09 600.08 L2024.67 643.77 L1991.26 693.27 L1957.85 749.08 L1924.44 811.45 L1891.02 880.88 L1857.61 957.73 L1824.20 1042.13 L1790.79 1133.83 L1757.37 1232.71 L1723.96 1337.78 L1690.55 1448.04 L1657.14 1561.77 L1623.72 1676.86 L1590.31 1790.84 L1556.90 1901.11 L1523.49 2004.57 L1490.07 2098.74 L1456.66 2181.29 L1423.25 2250.71 L1389.84 2306.28 L1356.42 2348.23 L1323.01 2377.93 L1289.47 2397.48 L1256.06 2409.12 L1222.65 2415.55 L1189.24 2418.52 L1155.83 2419.88 L1122.41 2420.25 L1089.00 2420.50 L1055.59 2420.50 L1022.18 2420.50 L988.76 2420.50 L955.35 2420.50 L921.94 2420.50 L888.52 2420.50 L855.11 2420.50 L821.70 2420.50 L788.29 2420.50 L754.88 2420.50 L721.46 2420.50 L688.05 2420.50 L654.64 2420.50 L621.23 2420.50 L520.99 2420.50 L520.99 2420.50 Z" stroke-linecap="round" style="fill:#4747FF;stroke:#1919FF;stroke-width:3.00"/>
	<path d="M520.99 2420.50 L520.99 2420.50 L621.23 2420.50 L654.64 2420.50 L688.05 2420.50 L721.46 2420.50 L754.88 2420.50 L788.29 2420.50 L821.70 2420.50 L855.11 2420.50 L888.52 2420.50 L921.94 2420.50 L955.35 2420.50 L988.76 2420.50 L1022.18 2420.50 L1055.59 2420.50 L1089.00 2420.50 L1122.41 2420.38 L1155.83 2420.01 L1189.24 2418.89 L1222.65 2416.29 L1256.06 2410.73 L1289.47 2399.96 L1323.01 2381.64 L1356.42 2353.18 L1389.84 2312.34 L1423.25 2257.64 L1456.66 2188.83 L1490.07 2106.66 L1523.49 2012.61 L1556.90 1909.27 L1590.31 1799.50 L1623.72 1686.02 L1657.14 1571.67 L1690.55 1458.69 L1723.96 1349.29 L1757.37 1244.72 L1790.79 1146.33 L1824.20 1054.75 L1857.61 970.35 L1891.02 893.26 L1924.44 823.33 L1957.85 760.34 L1991.26 704.04 L2024.67 653.79 L2058.09 609.12 L2091.50 569.76 L2124.91 534.99 L2158.32 504.42 L2191.74 477.69 L2225.15 454.18 L2258.56 433.76 L2291.97 415.94 L2325.39 400.34 L2358.80 386.85 L2392.21 375.10 L2425.62 364.95 L2459.04 356.16 L2492.45 348.61 L2525.86 342.06 L2559.40 336.36 L2592.81 331.54 L2626.22 327.33 L2659.64 323.74 L2693.05 320.65 L2726.46 317.92 L2759.87 315.57 L2793.28 313.59 L2826.70 311.86 L2860.11 310.37 L2893.52 309.01 L2926.93 307.90 L2960.35 307.03 L2993.76 306.17 L3027.17 305.42 L3060.59 304.81 L3094.00 304.31 L3127.41 303.82 L3160.82 303.44 L3194.24 303.07 L3227.65 302.83 L3261.06 302.58 L3294.47 302.33 L3327.89 302.08 L3361.30 301.96 L3394.71 301.84 L3428.12 301.71 L3461.53 301.59 L3494.95 301.46 L3494.95 298.87 L3461.53 298.87 L3428.12 298.99 L3394.71 299.11 L3361.30 299.24 L3327.89 299.48 L3294.47 299.73 L3261.06 299.86 L3227.65 300.23 L3194.24 300.47 L3160.82 300.85 L3127.41 301.34 L3094.00 301.84 L3060.59 302.33 L3027.17 302.95 L2993.76 303.69 L2960.35 304.68 L2926.93 305.67 L2893.52 306.79 L2860.11 308.15 L2826.70 309.76 L2793.28 311.49 L2759.87 313.59 L2726.46 316.07 L2693.05 318.79 L2659.64 322.13 L2626.22 325.84 L2592.81 330.05 L2559.40 335.00 L2525.86 340.69 L2492.45 347.25 L2459.04 354.80 L2425.62 363.47 L2392.21 373.49 L2358.80 385.00 L2325.39 398.12 L2291.97 413.34 L2258.56 430.79 L2225.15 450.71 L2191.74 473.73 L2158.32 499.97 L2124.91 530.04 L2091.50 564.19 L2058.09 603.05 L2024.67 647.11 L1991.26 696.98 L1957.85 752.92 L1924.44 815.41 L1891.02 885.09 L1857.61 961.94 L1824.20 1046.34 L1790.79 1138.04 L1757.37 1236.80 L1723.96 1341.62 L1690.55 1451.63 L1657.14 1565.12 L1623.72 1679.96 L1590.31 1793.81 L1556.90 1903.83 L1523.49 2007.29 L1490.07 2101.46 L1456.66 2183.88 L1423.25 2253.06 L1389.84 2308.26 L1356.42 2349.84 L1323.01 2379.17 L1289.47 2398.23 L1256.06 2409.61 L1222.65 2415.80 L1189.24 2418.65 L1155.83 2419.88 L1122.41 2420.38 L1089.00 2420.50 L1055.59 2420.50 L1022.18 2420.50 L988.76 2420.50 L955.35 2420.50 L921.94 2420.50 L888.52 2420.50 L855.11 2420.50 L821.70 2420.50 L788.29 2420.50 L754.88 2420.50 L721.46 2420.50 L688.05 2420.50 L654.64 2420.50 L621.23 2420.50 L520.99 2420.50 L520.99 2420.50 Z" stroke-linecap="round" style="fill:#3333FF;stroke:#0000FF;stroke-width:3.00"/>
	<circle cx="487.45" cy="2419.39" r="22.03" style="fill:#000000;stroke:#000000;stroke-width:8.64"/>
	<circle cx="520.86" cy="2419.39" r="22.03" style="fill:#000000;stroke:#000000;stroke-width:8.64"/>
	<circle cx="554.28" cy="2419.02" r="22.03" style="fill:#000000;stroke:#000000;stroke-width:8.64"/>
	<circle cx="587.69" cy="2419.02" r="22.03" style="fill:#000000;stroke:#000000;stroke-width:8.64"/>
	<circle cx="621.10" cy="2419.02" r="22.03" style="fill:#000000;stroke:#000000;stroke-width:8.64"/>
	<circle cx="654.51" cy="2419.02" r="22.03" style="fill:#000000;stroke:#000000;stroke-width:8.64"/>
	<circle cx="687.93" cy="2419.02" r="22.03" style="fill:#000000;stroke:#000000;stroke-width:8.64"/>
	<circle cx="721.46" cy="2419.02" r="22.03" style="fill:#000000;stroke:#000000;stroke-width:8.64"/>
	<circle cx="754.88" cy="2419.02" r="22.03" style="fill:#000000;stroke:#000000;stroke-width:8.64"/>
	<circle cx="788.29" cy="2419.02" r="22.03" style="fill:#000000;stroke:#000000;stroke-width:8.64"/>
	<circle cx="821.70" cy="2419.02" r="22.03" style="fill:#000000;stroke:#000000;stroke-width:8.64"/>
	<circle cx="855.11" cy="2419.02" r="22.03" style="fill:#000000;stroke:#000000;stroke-width:8.64"/>
	<circle cx="888.52" cy="2419.02" r="22.03" style="fill:#000000;stroke:#000000;stroke-width:8.64"/>
	<circle cx="921.94" cy="2419.02" r="22.03" style="fill:#000000;stroke:#000000;stroke-width:8.64"/>
	<circle cx="955.35" cy="2418.89" r="22.03" style="fill:#000000;stroke:#000000;stroke-width:8.64"/>
	<circle cx="988.76" cy="2418.52" r="22.03" style="fill:#000000;stroke:#000000;stroke-width:8.64"/>
	<circle cx="1022.18" cy="2414.93" r="22.03" style="fill:#000000;stroke:#000000;stroke-width:8.64"/>
	<circle cx="1055.59" cy="2414.44" r="22.03" style="fill:#000000;stroke:#000000;stroke-width:8.64"/>
	<circle cx="1089.00" cy="2410.60" r="22.03" style="fill:#000000;stroke:#000000;stroke-width:8.64"/>
	<circle cx="1122.41" cy="2407.01" r="22.03" style="fill:#000000;stroke:#000000;stroke-width:8.64"/>
	<circle cx="1155.83" cy="2404.54" r="22.03" style="fill:#000000;stroke:#000000;stroke-width:8.64"/>
	<circle cx="1189.24" cy="2397.85" r="22.03" style="fill:#000000;stroke:#000000;stroke-width:8.64"/>
	<circle cx="1222.65" cy="2386.47" r="22.03" style="fill:#000000;stroke:#000000;stroke-width:8.64"/>
	<circle cx="1256.06" cy="2369.39" r="22.03" style="fill:#000000;stroke:#000000;stroke-width:8.64"/>
	<circle cx="1289.47" cy="2349.10" r="22.03" style="fill:#000000;stroke:#000000;stroke-width:8.64"/>
	<circle cx="1322.89" cy="2304.05" r="22.03" style="fill:#000000;stroke:#000000;stroke-width:8.64"/>
	<circle cx="1356.30" cy="2266.30" r="22.03" style="fill:#000000;stroke:#000000;stroke-width:8.64"/>
	<circle cx="1389.71" cy="2221.51" r="22.03" style="fill:#000000;stroke:#000000;stroke-width:8.64"/>
	<circle cx="1423.13" cy="2170.52" r="22.03" style="fill:#000000;stroke:#000000;stroke-width:8.64"/>
	<circle cx="1456.54" cy="2116.69" r="22.03" style="fill:#000000;stroke:#000000;stroke-width:8.64"/>
	<circle cx="1489.95" cy="2049.98" r="22.03" style="fill:#000000;stroke:#000000;stroke-width:8.64"/>
	<circle cx="1523.36" cy="1977.59" r="22.03" style="fill:#000000;stroke:#000000;stroke-width:8.64"/>
	<circle cx="1556.78" cy="1894.30" r="22.03" style="fill:#000000;stroke:#000000;stroke-width:8.64"/>
	<circle cx="1590.19" cy="1794.68" r="22.03" style="fill:#000000;stroke:#000000;stroke-width:8.64"/>
	<circle cx="1623.60" cy="1698.77" r="22.03" style="fill:#000000;stroke:#000000;stroke-width:8.64"/>
	<circle cx="1657.01" cy="1617.46" r="22.03" style="fill:#000000;stroke:#000000;stroke-width:8.64"/>
	<circle cx="1690.43" cy="1529.47" r="22.03" style="fill:#000000;stroke:#000000;stroke-width:8.64"/>
	<circle cx="1723.84" cy="1462.40" r="22.03" style="fill:#000000;stroke:#000000;stroke-width:8.64"/>
	<circle cx="1757.25" cy="1385.80" r="22.03" style="fill:#000000;stroke:#000000;stroke-width:8.64"/>
	<circle cx="1790.66" cy="1321.82" r="22.03" style="fill:#000000;stroke:#000000;stroke-width:8.64"/>
	<circle cx="1824.08" cy="1269.59" r="22.03" style="fill:#000000;stroke:#000000;stroke-width:8.64"/>
	<circle cx="1857.49" cy="879.89" r="22.03" style="fill:#000000;stroke:#000000;stroke-width:8.64"/>
	<circle cx="1890.90" cy="772.97" r="22.03" style="fill:#000000;stroke:#000000;stroke-width:8.64"/>
	<circle cx="1924.31" cy="707.62" r="22.03" style="fill:#000000;stroke:#000000;stroke-width:8.64"/>
	<circle cx="1957.85" cy="656.02" r="22.03" style="fill:#000000;stroke:#000000;stroke-width:8.64"/>
	<circle cx="1991.26" cy="603.18" r="22.03" style="fill:#000000;stroke:#000000;stroke-width:8.64"/>
	<circle cx="2024.67" cy="554.54" r="22.03" style="fill:#000000;stroke:#000000;stroke-width:8.64"/>
	<circle cx="2058.09" cy="509.49" r="22.03" style="fill:#000000;stroke:#000000;stroke-width:8.64"/>
	<circle cx="2091.50" cy="499.35" r="22.03" style="fill:#000000;stroke:#000000;stroke-width:8.64"/>
	<circle cx="2124.91" cy="476.45" r="22.03" style="fill:#000000;stroke:#000000;stroke-width:8.64"/>
	<circle cx="2158.32" cy="455.17" r="22.03" style="fill:#000000;stroke:#000000;stroke-width:8.64"/>
	<circle cx="2191.74" cy="438.58" r="22.03" style="fill:#000000;stroke:#000000;stroke-width:8.64"/>
	<circle cx="2225.15" cy="432.89" r="22.03" style="fill:#000000;stroke:#000000;stroke-width:8.64"/>
	<circle cx="2258.56" cy="419.65" r="22.03" style="fill:#000000;stroke:#000000;stroke-width:8.64"/>
	<circle cx="2291.97" cy="409.13" r="22.03" style="fill:#000000;stroke:#000000;stroke-width:8.64"/>
	<circle cx="2325.39" cy="397.87" r="22.03" style="fill:#000000;stroke:#000000;stroke-width:8.64"/>
	<circle cx="2358.80" cy="389.33" r="22.03" style="fill:#000000;stroke:#000000;stroke-width:8.64"/>
	<circle cx="2392.21" cy="378.32" r="22.03" style="fill:#000000;stroke:#000000;stroke-width:8.64"/>
	<circle cx="2425.62" cy="363.59" r="22.03" style="fill:#000000;stroke:#000000;stroke-width:8.64"/>
	<circle cx="2459.04" cy="358.27" r="22.03" style="fill:#000000;stroke:#000000;stroke-width:8.64"/>
	<circle cx="2492.45" cy="355.05" r="22.03" style="fill:#000000;stroke:#000000;stroke-width:8.64"/>
	<circle cx="2525.86" cy="351.96" r="22.03" style="fill:#000000;stroke:#000000;stroke-width:8.64"/>
	<circle cx="2559.27" cy="348.99" r="22.03" style="fill:#000000;stroke:#000000;stroke-width:8.64"/>
	<circle cx="2592.69" cy="344.53" r="22.03" style="fill:#000000;stroke:#000000;stroke-width:8.64"/>
	<circle cx="2626.10" cy="341.93" r="22.03" style="fill:#000000;stroke:#000000;stroke-width:8.64"/>
	<circle cx="2659.51" cy="340.82" r="22.03" style="fill:#000000;stroke:#000000;stroke-width:8.64"/>
	<circle cx="2692.92" cy="339.58" r="22.03" style="fill:#000000;stroke:#000000;stroke-width:8.64"/>
	<circle cx="2726.34" cy="339.09" r="22.03" style="fill:#000000;stroke:#000000;stroke-width:8.64"/>
	<circle cx="2759.75" cy="338.34" r="22.03" style="fill:#000000;stroke:#000000;stroke-width:8.64"/>
	<circle cx="2793.16" cy="337.72" r="22.03" style="fill:#000000;stroke:#000000;stroke-width:8.64"/>
	<circle cx="2826.57" cy="337.23" r="22.03" style="fill:#000000;stroke:#000000;stroke-width:8.64"/>
	<circle cx="2859.99" cy="336.73" r="22.03" style="fill:#000000;stroke:#000000;stroke-width:8.64"/>
	<circle cx="2893.40" cy="336.12" r="22.03" style="fill:#000000;stroke:#000000;stroke-width:8.64"/>
	<circle cx="2926.81" cy="335.50" r="22.03" style="fill:#000000;stroke:#000000;stroke-width:8.64"/>
	<circle cx="2960.22" cy="332.65" r="22.03" style="fill:#000000;stroke:#000000;stroke-width:8.64"/>
	<circle cx="2993.64" cy="331.78" r="22.03" style="fill:#000000;stroke:#000000;stroke-width:8.64"/>
	<circle cx="3027.05" cy="329.93" r="22.03" style="fill:#000000;stroke:#000000;stroke-width:8.64"/>
	<line x1="390.80" y1="2489.19" x2="390.80" y2="100.86" style="stroke:#000000;stroke-width:5.76"/>
	<line x1="390.80" y1="2420.50" x2="350.83" y2="2420.50" style="stroke:#000000;stroke-width:5.76"/>
	<text x="300.72" y="2420.50" style="font-family:'Helvetica';font-size:99.99px;fill:#000000" transform="rotate(-90 300.72,2420.50)" text-anchor="middle">0</text>
	<line x1="390.80" y1="1856.43" x2="350.83" y2="1856.43" style="stroke:#000000;stroke-width:5.76"/>
	<text x="300.72" y="1856.43" style="font-family:'Helvetica';font-size:99.99px;fill:#000000" transform="rotate(-90 300.72,1856.43)" text-anchor="middle">5</text>
	<line x1="390.80" y1="1292.36" x2="350.83" y2="1292.36" style="stroke:#000000;stroke-width:5.76"/>
	<text x="300.72" y="1292.36" style="font-family:'Helvetica';font-size:99.99px;fill:#000000" transform="rotate(-90 300.72,1292.36)" text-anchor="middle">10</text>
	<line x1="390.80" y1="728.29" x2="350.83" y2="728.29" style="stroke:#000000;stroke-width:5.76"/>
	<text x="300.72" y="728.29" style="font-family:'Helvetica';font-size:99.99px;fill:#000000" transform="rotate(-90 300.72,728.29)" text-anchor="middle">15</text>
	<line x1="390.80" y1="164.22" x2="350.83" y2="164.22" style="stroke:#000000;stroke-width:5.76"/>
	<text x="300.72" y="164.22" style="font-family:'Helvetica';font-size:99.99px;fill:#000000" transform="rotate(-90 300.72,164.22)" text-anchor="middle">20</text>
	<text x="190.71" y="1294.96" style="font-family:'Helvetica';font-size:99.99px;fill:#000000" transform="rotate(-90 190.71,1294.96)" text-anchor="middle">Confirmed cases per 100 beds</text>
	<line x1="390.80" y1="2489.19" x2="3859.02" y2="2489.19" style="stroke:#000000;stroke-width:5.76"/>
	<line x1="454.16" y1="2489.19" x2="454.16" y2="2529.16" style="stroke:#000000;stroke-width:5.76"/>
	<text x="454.16" y="2619.14" style="font-family:'Helvetica';font-size:99.99px;fill:#000000" text-anchor="middle">0</text>
	<line x1="1122.41" y1="2489.19" x2="1122.41" y2="2529.16" style="stroke:#000000;stroke-width:5.76"/>
	<text x="1122.41" y="2619.14" style="font-family:'Helvetica';font-size:99.99px;fill:#000000" text-anchor="middle">20</text>
	<line x1="1790.79" y1="2489.19" x2="1790.79" y2="2529.16" style="stroke:#000000;stroke-width:5.76"/>
	<text x="1790.79" y="2619.14" style="font-family:'Helvetica';font-size:99.99px;fill:#000000" text-anchor="middle">40</text>
	<line x1="2459.04" y1="2489.19" x2="2459.04" y2="2529.16" style="stroke:#000000;stroke-width:5.76"/>
	<text x="2459.04" y="2619.14" style="font-family:'Helvetica';font-size:99.99px;fill:#000000" text-anchor="middle">60</text>
	<line x1="3127.41" y1="2489.19" x2="3127.41" y2="2529.16" style="stroke:#000000;stroke-width:5.76"/>
	<text x="3127.41" y="2619.14" style="font-family:'Helvetica';font-size:99.99px;fill:#000000" text-anchor="middle">80</text>
	<line x1="3795.66" y1="2489.19" x2="3795.66" y2="2529.16" style="stroke:#000000;stroke-width:5.76"/>
	<text x="3795.66" y="2619.14" style="font-family:'Helvetica';font-size:99.99px;fill:#000000" text-anchor="middle">100</text>
	<text x="2124.91" y="2729.16" style="font-family:'Helvetica';font-size:99.99px;fill:#000000" text-anchor="middle">Days since 0.01 confirmed cases per 100 beds</text>
</svg>
