<?xml version="1.0" encoding="UTF-8" standalone="no"?>
<!-- This is a Stata 14.2 generated SVG file (http://www.stata.com) -->

<svg version="1.1" width="5.50in" height="4.00in" viewBox="0 0 3960 2880" xmlns="http://www.w3.org/2000/svg">
	<desc>Stata Graph - Graph</desc>
	<line x1="390.80" y1="1533.93" x2="3859.02" y2="1533.93" style="stroke:#FF0000;stroke-width:8.64"/>
	<path d="M621.23 1538.38 L621.23 1538.38 L788.29 1538.38 L955.35 1538.38 L1122.41 1538.38 L1289.47 1538.26 L1456.66 1538.14 L1623.72 1538.14 L1790.79 1538.14 L1957.85 1538.63 L2124.91 1539.87 L2291.97 1542.47 L2459.04 1547.91 L2626.22 1557.81 L2793.28 1575.39 L2960.35 1604.72 L3127.41 1652.11 L3294.47 1726.00 L3461.53 1837.74 L3628.60 2001.97 L3795.66 2237.35 L3795.66 164.22 L3628.60 607.88 L3461.53 921.60 L3294.47 1138.78 L3127.41 1285.80 L2960.35 1382.83 L2793.28 1445.32 L2626.22 1484.30 L2459.04 1508.06 L2291.97 1522.05 L2124.91 1529.97 L1957.85 1534.18 L1790.79 1536.53 L1623.72 1537.52 L1456.66 1538.01 L1289.47 1538.14 L1122.41 1538.26 L955.35 1538.26 L788.29 1538.38 L621.23 1538.38 L621.23 1538.38 Z" stroke-linecap="round" style="fill:#EBEBFF;stroke:#E6E6FF;stroke-width:3.00"/>
	<path d="M621.23 1538.38 L621.23 1538.38 L788.29 1538.38 L955.35 1538.38 L1122.41 1538.38 L1289.47 1538.26 L1456.66 1538.14 L1623.72 1537.89 L1790.79 1537.64 L1957.85 1537.39 L2124.91 1537.02 L2291.97 1536.65 L2459.04 1536.40 L2626.22 1536.65 L2793.28 1537.77 L2960.35 1540.74 L3127.41 1546.43 L3294.47 1556.58 L3461.53 1573.28 L3628.60 1599.64 L3795.66 1639.00 L3795.66 762.57 L3628.60 1010.20 L3461.53 1186.06 L3294.47 1308.33 L3127.41 1391.49 L2960.35 1446.93 L2793.28 1482.82 L2626.22 1505.59 L2459.04 1519.57 L2291.97 1527.99 L2124.91 1532.82 L1957.85 1535.54 L1790.79 1537.02 L1623.72 1537.77 L1456.66 1538.14 L1289.47 1538.26 L1122.41 1538.26 L955.35 1538.38 L788.29 1538.38 L621.23 1538.38 L621.23 1538.38 Z" stroke-linecap="round" style="fill:#D6D6FF;stroke:#CCCCFF;stroke-width:3.00"/>
	<path d="M621.23 1538.38 L621.23 1538.38 L788.29 1538.38 L955.35 1538.38 L1122.41 1538.38 L1289.47 1538.26 L1456.66 1538.14 L1623.72 1537.89 L1790.79 1537.64 L1957.85 1537.15 L2124.91 1536.53 L2291.97 1535.66 L2459.04 1534.55 L2626.22 1533.19 L2793.28 1531.70 L2960.35 1530.34 L3127.41 1529.35 L3294.47 1529.10 L3461.53 1530.59 L3628.60 1534.55 L3795.66 1542.22 L3795.66 859.35 L3628.60 1075.30 L3461.53 1228.75 L3294.47 1335.68 L3127.41 1408.57 L2960.35 1457.20 L2793.28 1488.88 L2626.22 1509.05 L2459.04 1521.43 L2291.97 1528.86 L2124.91 1533.31 L1957.85 1535.66 L1790.79 1537.02 L1623.72 1537.77 L1456.66 1538.14 L1289.47 1538.26 L1122.41 1538.26 L955.35 1538.38 L788.29 1538.38 L621.23 1538.38 L621.23 1538.38 Z" stroke-linecap="round" style="fill:#C2C2FF;stroke:#B3B3FF;stroke-width:3.00"/>
	<path d="M621.23 1538.38 L621.23 1538.38 L788.29 1538.38 L955.35 1538.38 L1122.41 1538.38 L1289.47 1538.26 L1456.66 1538.14 L1623.72 1537.89 L1790.79 1537.52 L1957.85 1537.02 L2124.91 1536.16 L2291.97 1535.04 L2459.04 1533.31 L2626.22 1530.84 L2793.28 1527.62 L2960.35 1523.29 L3127.41 1517.72 L3294.47 1510.66 L3461.53 1501.63 L3628.60 1490.62 L3795.66 1476.88 L3795.66 924.57 L3628.60 1119.23 L3461.53 1257.71 L3294.47 1354.24 L3127.41 1420.20 L2960.35 1464.26 L2793.28 1492.97 L2626.22 1511.28 L2459.04 1522.67 L2291.97 1529.60 L2124.91 1533.56 L1957.85 1535.79 L1790.79 1537.15 L1623.72 1537.77 L1456.66 1538.14 L1289.47 1538.26 L1122.41 1538.26 L955.35 1538.38 L788.29 1538.38 L621.23 1538.38 L621.23 1538.38 Z" stroke-linecap="round" style="fill:#ADADFF;stroke:#9999FF;stroke-width:3.00"/>
	<path d="M621.23 1538.38 L621.23 1538.38 L788.29 1538.38 L955.35 1538.38 L1122.41 1538.38 L1289.47 1538.26 L1456.66 1538.14 L1623.72 1537.89 L1790.79 1537.52 L1957.85 1536.90 L2124.91 1535.91 L2291.97 1534.55 L2459.04 1532.32 L2626.22 1529.10 L2793.28 1524.40 L2960.35 1517.84 L3127.41 1508.56 L3294.47 1495.94 L3461.53 1478.73 L3628.60 1455.72 L3795.66 1425.03 L3795.66 976.54 L3628.60 1154.13 L3461.53 1280.61 L3294.47 1368.97 L3127.41 1429.36 L2960.35 1469.82 L2793.28 1496.18 L2626.22 1513.14 L2459.04 1523.66 L2291.97 1530.09 L2124.91 1533.81 L1957.85 1535.91 L1790.79 1537.15 L1623.72 1537.77 L1456.66 1538.14 L1289.47 1538.26 L1122.41 1538.26 L955.35 1538.38 L788.29 1538.38 L621.23 1538.38 L621.23 1538.38 Z" stroke-linecap="round" style="fill:#9999FF;stroke:#8080FF;stroke-width:3.00"/>
	<path d="M621.23 1538.38 L621.23 1538.38 L788.29 1538.38 L955.35 1538.38 L1122.41 1538.38 L1289.47 1538.26 L1456.66 1538.14 L1623.72 1537.89 L1790.79 1537.52 L1957.85 1536.78 L2124.91 1535.79 L2291.97 1534.05 L2459.04 1531.45 L2626.22 1527.49 L2793.28 1521.55 L2960.35 1513.01 L3127.41 1500.76 L3294.47 1483.31 L3461.53 1459.06 L3628.60 1425.77 L3795.66 1380.47 L3795.66 1021.09 L3628.60 1184.08 L3461.53 1300.28 L3294.47 1381.46 L3127.41 1437.15 L2960.35 1474.53 L2793.28 1499.03 L2626.22 1514.75 L2459.04 1524.52 L2291.97 1530.46 L2124.91 1534.05 L1957.85 1536.03 L1790.79 1537.15 L1623.72 1537.77 L1456.66 1538.14 L1289.47 1538.26 L1122.41 1538.26 L955.35 1538.38 L788.29 1538.38 L621.23 1538.38 L621.23 1538.38 Z" stroke-linecap="round" style="fill:#8585FF;stroke:#6666FF;stroke-width:3.00"/>
	<path d="M621.23 1538.38 L621.23 1538.38 L788.29 1538.38 L955.35 1538.38 L1122.41 1538.38 L1289.47 1538.26 L1456.66 1538.14 L1623.72 1537.89 L1790.79 1537.39 L1957.85 1536.78 L2124.91 1535.54 L2291.97 1533.68 L2459.04 1530.71 L2626.22 1526.01 L2793.28 1519.08 L2960.35 1508.68 L3127.41 1493.59 L3294.47 1471.93 L3461.53 1441.36 L3628.60 1398.91 L3795.66 1340.50 L3795.66 1061.07 L3628.60 1210.93 L3461.53 1317.98 L3294.47 1392.85 L3127.41 1444.21 L2960.35 1478.86 L2793.28 1501.51 L2626.22 1516.11 L2459.04 1525.27 L2291.97 1530.84 L2124.91 1534.18 L1957.85 1536.16 L1790.79 1537.27 L1623.72 1537.77 L1456.66 1538.14 L1289.47 1538.26 L1122.41 1538.26 L955.35 1538.38 L788.29 1538.38 L621.23 1538.38 L621.23 1538.38 Z" stroke-linecap="round" style="fill:#7171FF;stroke:#4D4DFF;stroke-width:3.00"/>
	<path d="M621.23 1538.38 L621.23 1538.38 L788.29 1538.38 L955.35 1538.38 L1122.41 1538.38 L1289.47 1538.26 L1456.66 1538.14 L1623.72 1537.89 L1790.79 1537.39 L1957.85 1536.65 L2124.91 1535.41 L2291.97 1533.31 L2459.04 1529.97 L2626.22 1524.77 L2793.28 1516.73 L2960.35 1504.72 L3127.41 1487.15 L3294.47 1461.53 L3461.53 1425.03 L3628.60 1373.92 L3795.66 1303.38 L3795.66 1098.07 L3628.60 1235.93 L3461.53 1334.31 L3294.47 1403.37 L3127.41 1450.77 L2960.35 1482.82 L2793.28 1503.86 L2626.22 1517.47 L2459.04 1526.01 L2291.97 1531.21 L2124.91 1534.42 L1957.85 1536.16 L1790.79 1537.27 L1623.72 1537.77 L1456.66 1538.14 L1289.47 1538.26 L1122.41 1538.26 L955.35 1538.38 L788.29 1538.38 L621.23 1538.38 L621.23 1538.38 Z" stroke-linecap="round" style="fill:#5C5CFF;stroke:#3333FF;stroke-width:3.00"/>
	<path d="M621.23 1538.38 L621.23 1538.38 L788.29 1538.38 L955.35 1538.38 L1122.41 1538.38 L1289.47 1538.26 L1456.66 1538.14 L1623.72 1537.89 L1790.79 1537.39 L1957.85 1536.53 L2124.91 1535.17 L2291.97 1532.94 L2459.04 1529.23 L2626.22 1523.53 L2793.28 1514.50 L2960.35 1501.01 L3127.41 1480.84 L3294.47 1451.51 L3461.53 1409.56 L3628.60 1350.28 L3795.66 1268.23 L3795.66 1133.21 L3628.60 1259.57 L3461.53 1349.91 L3294.47 1413.27 L3127.41 1457.08 L2960.35 1486.53 L2793.28 1506.08 L2626.22 1518.71 L2459.04 1526.63 L2291.97 1531.58 L2124.91 1534.55 L1957.85 1536.28 L1790.79 1537.27 L1623.72 1537.77 L1456.66 1538.14 L1289.47 1538.26 L1122.41 1538.38 L955.35 1538.38 L788.29 1538.38 L621.23 1538.38 L621.23 1538.38 Z" stroke-linecap="round" style="fill:#4747FF;stroke:#1919FF;stroke-width:3.00"/>
	<path d="M621.23 1538.38 L621.23 1538.38 L788.29 1538.38 L955.35 1538.38 L1122.41 1538.38 L1289.47 1538.26 L1456.66 1538.14 L1623.72 1537.89 L1790.79 1537.39 L1957.85 1536.53 L2124.91 1535.04 L2291.97 1532.57 L2459.04 1528.61 L2626.22 1522.30 L2793.28 1512.40 L2960.35 1497.42 L3127.41 1474.90 L3294.47 1441.86 L3461.53 1394.46 L3628.60 1327.38 L3795.66 1234.20 L3795.66 1167.25 L3628.60 1282.34 L3461.53 1364.88 L3294.47 1422.92 L3127.41 1463.02 L2960.35 1490.24 L2793.28 1508.19 L2626.22 1519.94 L2459.04 1527.37 L2291.97 1531.95 L2124.91 1534.67 L1957.85 1536.40 L1790.79 1537.27 L1623.72 1537.77 L1456.66 1538.14 L1289.47 1538.26 L1122.41 1538.38 L955.35 1538.38 L788.29 1538.38 L621.23 1538.38 L621.23 1538.38 Z" stroke-linecap="round" style="fill:#3333FF;stroke:#0000FF;stroke-width:3.00"/>
	<circle cx="621.10" cy="1538.38" r="22.03" style="fill:#000000;stroke:#000000;stroke-width:8.64"/>
	<circle cx="788.29" cy="1538.38" r="22.03" style="fill:#000000;stroke:#000000;stroke-width:8.64"/>
	<circle cx="955.35" cy="1538.38" r="22.03" style="fill:#000000;stroke:#000000;stroke-width:8.64"/>
	<circle cx="1122.41" cy="1538.38" r="22.03" style="fill:#000000;stroke:#000000;stroke-width:8.64"/>
	<circle cx="1289.47" cy="1538.38" r="22.03" style="fill:#000000;stroke:#000000;stroke-width:8.64"/>
	<circle cx="1456.54" cy="1538.14" r="22.03" style="fill:#000000;stroke:#000000;stroke-width:8.64"/>
	<line x1="390.80" y1="2489.19" x2="390.80" y2="100.86" style="stroke:#000000;stroke-width:5.76"/>
	<line x1="390.80" y1="2425.82" x2="350.83" y2="2425.82" style="stroke:#000000;stroke-width:5.76"/>
	<text x="300.72" y="2425.82" style="font-family:'Helvetica';font-size:99.99px;fill:#000000" transform="rotate(-90 300.72,2425.82)" text-anchor="middle">-2000</text>
	<line x1="390.80" y1="1982.17" x2="350.83" y2="1982.17" style="stroke:#000000;stroke-width:5.76"/>
	<text x="300.72" y="1982.17" style="font-family:'Helvetica';font-size:99.99px;fill:#000000" transform="rotate(-90 300.72,1982.17)" text-anchor="middle">-1000</text>
	<line x1="390.80" y1="1538.38" x2="350.83" y2="1538.38" style="stroke:#000000;stroke-width:5.76"/>
	<text x="300.72" y="1538.38" style="font-family:'Helvetica';font-size:99.99px;fill:#000000" transform="rotate(-90 300.72,1538.38)" text-anchor="middle">0</text>
	<line x1="390.80" y1="1094.73" x2="350.83" y2="1094.73" style="stroke:#000000;stroke-width:5.76"/>
	<text x="300.72" y="1094.73" style="font-family:'Helvetica';font-size:99.99px;fill:#000000" transform="rotate(-90 300.72,1094.73)" text-anchor="middle">1000</text>
	<line x1="390.80" y1="650.95" x2="350.83" y2="650.95" style="stroke:#000000;stroke-width:5.76"/>
	<text x="300.72" y="650.95" style="font-family:'Helvetica';font-size:99.99px;fill:#000000" transform="rotate(-90 300.72,650.95)" text-anchor="middle">2000</text>
	<line x1="390.80" y1="207.16" x2="350.83" y2="207.16" style="stroke:#000000;stroke-width:5.76"/>
	<text x="300.72" y="207.16" style="font-family:'Helvetica';font-size:99.99px;fill:#000000" transform="rotate(-90 300.72,207.16)" text-anchor="middle">3000</text>
	<text x="190.71" y="1294.96" style="font-family:'Helvetica';font-size:99.99px;fill:#000000" transform="rotate(-90 190.71,1294.96)" text-anchor="middle">Confirmed cases per 100 beds</text>
	<line x1="390.80" y1="2489.19" x2="3859.02" y2="2489.19" style="stroke:#000000;stroke-width:5.76"/>
	<line x1="454.16" y1="2489.19" x2="454.16" y2="2529.16" style="stroke:#000000;stroke-width:5.76"/>
	<text x="454.16" y="2619.14" style="font-family:'Helvetica';font-size:99.99px;fill:#000000" text-anchor="middle">0</text>
	<line x1="621.23" y1="2489.19" x2="621.23" y2="2529.16" style="stroke:#000000;stroke-width:5.76"/>
	<text x="621.23" y="2619.14" style="font-family:'Helvetica';font-size:99.99px;fill:#000000" text-anchor="middle">1</text>
	<line x1="788.29" y1="2489.19" x2="788.29" y2="2529.16" style="stroke:#000000;stroke-width:5.76"/>
	<text x="788.29" y="2619.14" style="font-family:'Helvetica';font-size:99.99px;fill:#000000" text-anchor="middle">2</text>
	<line x1="955.35" y1="2489.19" x2="955.35" y2="2529.16" style="stroke:#000000;stroke-width:5.76"/>
	<text x="955.35" y="2619.14" style="font-family:'Helvetica';font-size:99.99px;fill:#000000" text-anchor="middle">3</text>
	<line x1="1122.41" y1="2489.19" x2="1122.41" y2="2529.16" style="stroke:#000000;stroke-width:5.76"/>
	<text x="1122.41" y="2619.14" style="font-family:'Helvetica';font-size:99.99px;fill:#000000" text-anchor="middle">4</text>
	<line x1="1289.47" y1="2489.19" x2="1289.47" y2="2529.16" style="stroke:#000000;stroke-width:5.76"/>
	<text x="1289.47" y="2619.14" style="font-family:'Helvetica';font-size:99.99px;fill:#000000" text-anchor="middle">5</text>
	<line x1="1456.66" y1="2489.19" x2="1456.66" y2="2529.16" style="stroke:#000000;stroke-width:5.76"/>
	<text x="1456.66" y="2619.14" style="font-family:'Helvetica';font-size:99.99px;fill:#000000" text-anchor="middle">6</text>
	<line x1="1623.72" y1="2489.19" x2="1623.72" y2="2529.16" style="stroke:#000000;stroke-width:5.76"/>
	<text x="1623.72" y="2619.14" style="font-family:'Helvetica';font-size:99.99px;fill:#000000" text-anchor="middle">7</text>
	<line x1="1790.79" y1="2489.19" x2="1790.79" y2="2529.16" style="stroke:#000000;stroke-width:5.76"/>
	<text x="1790.79" y="2619.14" style="font-family:'Helvetica';font-size:99.99px;fill:#000000" text-anchor="middle">8</text>
	<line x1="1957.85" y1="2489.19" x2="1957.85" y2="2529.16" style="stroke:#000000;stroke-width:5.76"/>
	<text x="1957.85" y="2619.14" style="font-family:'Helvetica';font-size:99.99px;fill:#000000" text-anchor="middle">9</text>
	<line x1="2124.91" y1="2489.19" x2="2124.91" y2="2529.16" style="stroke:#000000;stroke-width:5.76"/>
	<text x="2124.91" y="2619.14" style="font-family:'Helvetica';font-size:99.99px;fill:#000000" text-anchor="middle">10</text>
	<line x1="2291.97" y1="2489.19" x2="2291.97" y2="2529.16" style="stroke:#000000;stroke-width:5.76"/>
	<text x="2291.97" y="2619.14" style="font-family:'Helvetica';font-size:99.99px;fill:#000000" text-anchor="middle">11</text>
	<line x1="2459.04" y1="2489.19" x2="2459.04" y2="2529.16" style="stroke:#000000;stroke-width:5.76"/>
	<text x="2459.04" y="2619.14" style="font-family:'Helvetica';font-size:99.99px;fill:#000000" text-anchor="middle">12</text>
	<line x1="2626.22" y1="2489.19" x2="2626.22" y2="2529.16" style="stroke:#000000;stroke-width:5.76"/>
	<text x="2626.22" y="2619.14" style="font-family:'Helvetica';font-size:99.99px;fill:#000000" text-anchor="middle">13</text>
	<line x1="2793.28" y1="2489.19" x2="2793.28" y2="2529.16" style="stroke:#000000;stroke-width:5.76"/>
	<text x="2793.28" y="2619.14" style="font-family:'Helvetica';font-size:99.99px;fill:#000000" text-anchor="middle">14</text>
	<line x1="2960.35" y1="2489.19" x2="2960.35" y2="2529.16" style="stroke:#000000;stroke-width:5.76"/>
	<text x="2960.35" y="2619.14" style="font-family:'Helvetica';font-size:99.99px;fill:#000000" text-anchor="middle">15</text>
	<line x1="3127.41" y1="2489.19" x2="3127.41" y2="2529.16" style="stroke:#000000;stroke-width:5.76"/>
	<text x="3127.41" y="2619.14" style="font-family:'Helvetica';font-size:99.99px;fill:#000000" text-anchor="middle">16</text>
	<line x1="3294.47" y1="2489.19" x2="3294.47" y2="2529.16" style="stroke:#000000;stroke-width:5.76"/>
	<text x="3294.47" y="2619.14" style="font-family:'Helvetica';font-size:99.99px;fill:#000000" text-anchor="middle">17</text>
	<line x1="3461.53" y1="2489.19" x2="3461.53" y2="2529.16" style="stroke:#000000;stroke-width:5.76"/>
	<text x="3461.53" y="2619.14" style="font-family:'Helvetica';font-size:99.99px;fill:#000000" text-anchor="middle">18</text>
	<line x1="3628.60" y1="2489.19" x2="3628.60" y2="2529.16" style="stroke:#000000;stroke-width:5.76"/>
	<text x="3628.60" y="2619.14" style="font-family:'Helvetica';font-size:99.99px;fill:#000000" text-anchor="middle">19</text>
	<line x1="3795.66" y1="2489.19" x2="3795.66" y2="2529.16" style="stroke:#000000;stroke-width:5.76"/>
	<text x="3795.66" y="2619.14" style="font-family:'Helvetica';font-size:99.99px;fill:#000000" text-anchor="middle">20</text>
	<text x="2124.91" y="2729.16" style="font-family:'Helvetica';font-size:99.99px;fill:#000000" text-anchor="middle">Days since 0.01 confirmed cases per 100 beds</text>
</svg>
