<?xml version="1.0" encoding="UTF-8" standalone="no"?>
<!-- This is a Stata 14.2 generated SVG file (http://www.stata.com) -->

<svg version="1.1" width="5.50in" height="4.00in" viewBox="0 0 3960 2880" xmlns="http://www.w3.org/2000/svg">
	<desc>Stata Graph - Graph</desc>
	<line x1="390.80" y1="1533.81" x2="3859.02" y2="1533.81" style="stroke:#FF0000;stroke-width:8.64"/>
	<path d="M565.54 1538.26 L565.54 1538.26 L676.91 1538.26 L788.29 1538.26 L899.66 1538.26 L1011.04 1538.26 L1122.41 1538.26 L1233.79 1538.26 L1345.29 1538.26 L1456.66 1538.26 L1568.04 1538.26 L1679.41 1538.26 L1790.79 1538.26 L1902.16 1538.26 L2013.54 1538.26 L2124.91 1538.14 L2236.29 1537.89 L2347.66 1537.77 L2459.04 1537.89 L2570.53 1538.51 L2681.91 1539.87 L2793.28 1542.96 L2904.66 1549.03 L3016.03 1559.79 L3127.41 1578.11 L3238.78 1608.06 L3350.16 1655.70 L3461.53 1728.84 L3572.91 1838.36 L3684.28 1998.38 L3795.66 2227.20 L3795.66 164.22 L3684.28 596.25 L3572.91 904.02 L3461.53 1119.35 L3350.16 1267.12 L3238.78 1366.49 L3127.41 1432.08 L3016.03 1474.28 L2904.66 1500.76 L2793.28 1516.97 L2681.91 1526.63 L2570.53 1532.07 L2459.04 1535.17 L2347.66 1536.78 L2236.29 1537.52 L2124.91 1537.89 L2013.54 1538.01 L1902.16 1538.14 L1790.79 1538.14 L1679.41 1538.26 L1568.04 1538.26 L1456.66 1538.26 L1345.29 1538.26 L1233.79 1538.26 L1122.41 1538.26 L1011.04 1538.26 L899.66 1538.26 L788.29 1538.26 L676.91 1538.26 L565.54 1538.26 L565.54 1538.26 Z" stroke-linecap="round" style="fill:#EBEBFF;stroke:#E6E6FF;stroke-width:3.00"/>
	<path d="M565.54 1538.26 L565.54 1538.26 L676.91 1538.26 L788.29 1538.26 L899.66 1538.26 L1011.04 1538.26 L1122.41 1538.26 L1233.79 1538.26 L1345.29 1538.26 L1456.66 1538.26 L1568.04 1538.26 L1679.41 1538.26 L1790.79 1538.26 L1902.16 1538.26 L2013.54 1538.14 L2124.91 1538.01 L2236.29 1537.77 L2347.66 1537.52 L2459.04 1537.15 L2570.53 1536.65 L2681.91 1536.03 L2793.28 1535.54 L2904.66 1535.04 L3016.03 1535.04 L3127.41 1535.91 L3238.78 1538.38 L3350.16 1543.58 L3461.53 1552.99 L3572.91 1568.70 L3684.28 1593.70 L3795.66 1631.69 L3795.66 759.60 L3684.28 1000.92 L3572.91 1173.68 L3461.53 1295.21 L3350.16 1379.24 L3238.78 1436.29 L3127.41 1474.16 L3016.03 1498.91 L2904.66 1514.62 L2793.28 1524.52 L2681.91 1530.46 L2570.53 1533.93 L2459.04 1535.91 L2347.66 1537.02 L2236.29 1537.64 L2124.91 1537.89 L2013.54 1538.01 L1902.16 1538.14 L1790.79 1538.26 L1679.41 1538.26 L1568.04 1538.26 L1456.66 1538.26 L1345.29 1538.26 L1233.79 1538.26 L1122.41 1538.26 L1011.04 1538.26 L899.66 1538.26 L788.29 1538.26 L676.91 1538.26 L565.54 1538.26 L565.54 1538.26 Z" stroke-linecap="round" style="fill:#D6D6FF;stroke:#CCCCFF;stroke-width:3.00"/>
	<path d="M565.54 1538.26 L565.54 1538.26 L676.91 1538.26 L788.29 1538.26 L899.66 1538.26 L1011.04 1538.26 L1122.41 1538.26 L1233.79 1538.26 L1345.29 1538.26 L1456.66 1538.26 L1568.04 1538.26 L1679.41 1538.26 L1790.79 1538.26 L1902.16 1538.26 L2013.54 1538.14 L2124.91 1538.01 L2236.29 1537.77 L2347.66 1537.39 L2459.04 1537.02 L2570.53 1536.28 L2681.91 1535.41 L2793.28 1534.30 L2904.66 1532.82 L3016.03 1531.08 L3127.41 1529.10 L3238.78 1527.12 L3350.16 1525.39 L3461.53 1524.52 L3572.91 1525.14 L3684.28 1528.24 L3795.66 1535.41 L3795.66 855.88 L3684.28 1066.39 L3572.91 1217.37 L3461.53 1323.67 L3350.16 1397.43 L3238.78 1447.55 L3127.41 1480.96 L3016.03 1502.87 L2904.66 1516.97 L2793.28 1525.64 L2681.91 1531.08 L2570.53 1534.18 L2459.04 1536.03 L2347.66 1537.15 L2236.29 1537.64 L2124.91 1537.89 L2013.54 1538.01 L1902.16 1538.14 L1790.79 1538.26 L1679.41 1538.26 L1568.04 1538.26 L1456.66 1538.26 L1345.29 1538.26 L1233.79 1538.26 L1122.41 1538.26 L1011.04 1538.26 L899.66 1538.26 L788.29 1538.26 L676.91 1538.26 L565.54 1538.26 L565.54 1538.26 Z" stroke-linecap="round" style="fill:#C2C2FF;stroke:#B3B3FF;stroke-width:3.00"/>
	<path d="M565.54 1538.26 L565.54 1538.26 L676.91 1538.26 L788.29 1538.26 L899.66 1538.26 L1011.04 1538.26 L1122.41 1538.26 L1233.79 1538.26 L1345.29 1538.26 L1456.66 1538.26 L1568.04 1538.26 L1679.41 1538.26 L1790.79 1538.26 L1902.16 1538.26 L2013.54 1538.14 L2124.91 1538.01 L2236.29 1537.77 L2347.66 1537.39 L2459.04 1536.90 L2570.53 1536.16 L2681.91 1535.04 L2793.28 1533.43 L2904.66 1531.33 L3016.03 1528.36 L3127.41 1524.52 L3238.78 1519.45 L3350.16 1513.14 L3461.53 1505.22 L3572.91 1495.69 L3684.28 1484.06 L3795.66 1470.44 L3795.66 920.85 L3684.28 1110.57 L3572.91 1246.70 L3461.53 1342.85 L3350.16 1409.68 L3238.78 1455.10 L3127.41 1485.67 L3016.03 1505.59 L2904.66 1518.46 L2793.28 1526.50 L2681.91 1531.45 L2570.53 1534.42 L2459.04 1536.16 L2347.66 1537.15 L2236.29 1537.64 L2124.91 1537.89 L2013.54 1538.14 L1902.16 1538.14 L1790.79 1538.26 L1679.41 1538.26 L1568.04 1538.26 L1456.66 1538.26 L1345.29 1538.26 L1233.79 1538.26 L1122.41 1538.26 L1011.04 1538.26 L899.66 1538.26 L788.29 1538.26 L676.91 1538.26 L565.54 1538.26 L565.54 1538.26 Z" stroke-linecap="round" style="fill:#ADADFF;stroke:#9999FF;stroke-width:3.00"/>
	<path d="M565.54 1538.26 L565.54 1538.26 L676.91 1538.26 L788.29 1538.26 L899.66 1538.26 L1011.04 1538.26 L1122.41 1538.26 L1233.79 1538.26 L1345.29 1538.26 L1456.66 1538.26 L1568.04 1538.26 L1679.41 1538.26 L1790.79 1538.26 L1902.16 1538.26 L2013.54 1538.14 L2124.91 1538.01 L2236.29 1537.77 L2347.66 1537.39 L2459.04 1536.78 L2570.53 1535.91 L2681.91 1534.67 L2793.28 1532.82 L2904.66 1530.09 L3016.03 1526.26 L3127.41 1520.81 L3238.78 1513.51 L3350.16 1503.49 L3461.53 1490.00 L3572.91 1472.30 L3684.28 1449.03 L3795.66 1418.84 L3795.66 972.46 L3684.28 1145.71 L3572.91 1270.09 L3461.53 1358.20 L3350.16 1419.33 L3238.78 1461.16 L3127.41 1489.25 L3016.03 1507.69 L2904.66 1519.70 L2793.28 1527.12 L2681.91 1531.83 L2570.53 1534.55 L2459.04 1536.28 L2347.66 1537.15 L2236.29 1537.64 L2124.91 1537.89 L2013.54 1538.14 L1902.16 1538.14 L1790.79 1538.26 L1679.41 1538.26 L1568.04 1538.26 L1456.66 1538.26 L1345.29 1538.26 L1233.79 1538.26 L1122.41 1538.26 L1011.04 1538.26 L899.66 1538.26 L788.29 1538.26 L676.91 1538.26 L565.54 1538.26 L565.54 1538.26 Z" stroke-linecap="round" style="fill:#9999FF;stroke:#8080FF;stroke-width:3.00"/>
	<path d="M565.54 1538.26 L565.54 1538.26 L676.91 1538.26 L788.29 1538.26 L899.66 1538.26 L1011.04 1538.26 L1122.41 1538.26 L1233.79 1538.26 L1345.29 1538.26 L1456.66 1538.26 L1568.04 1538.26 L1679.41 1538.26 L1790.79 1538.26 L1902.16 1538.26 L2013.54 1538.14 L2124.91 1538.01 L2236.29 1537.77 L2347.66 1537.39 L2459.04 1536.78 L2570.53 1535.79 L2681.91 1534.42 L2793.28 1532.20 L2904.66 1529.10 L3016.03 1524.40 L3127.41 1517.72 L3238.78 1508.31 L3350.16 1495.07 L3461.53 1476.88 L3572.91 1452.13 L3684.28 1418.84 L3795.66 1374.53 L3795.66 1016.89 L3684.28 1175.79 L3572.91 1290.26 L3461.53 1371.19 L3350.16 1427.75 L3238.78 1466.36 L3127.41 1492.35 L3016.03 1509.55 L2904.66 1520.69 L2793.28 1527.74 L2681.91 1532.07 L2570.53 1534.67 L2459.04 1536.28 L2347.66 1537.15 L2236.29 1537.64 L2124.91 1537.89 L2013.54 1538.14 L1902.16 1538.14 L1790.79 1538.26 L1679.41 1538.26 L1568.04 1538.26 L1456.66 1538.26 L1345.29 1538.26 L1233.79 1538.26 L1122.41 1538.26 L1011.04 1538.26 L899.66 1538.26 L788.29 1538.26 L676.91 1538.26 L565.54 1538.26 L565.54 1538.26 Z" stroke-linecap="round" style="fill:#8585FF;stroke:#6666FF;stroke-width:3.00"/>
	<path d="M565.54 1538.26 L565.54 1538.26 L676.91 1538.26 L788.29 1538.26 L899.66 1538.26 L1011.04 1538.26 L1122.41 1538.26 L1233.79 1538.26 L1345.29 1538.26 L1456.66 1538.26 L1568.04 1538.26 L1679.41 1538.26 L1790.79 1538.26 L1902.16 1538.26 L2013.54 1538.14 L2124.91 1538.01 L2236.29 1537.77 L2347.66 1537.39 L2459.04 1536.78 L2570.53 1535.66 L2681.91 1534.18 L2793.28 1531.70 L2904.66 1528.11 L3016.03 1522.79 L3127.41 1514.87 L3238.78 1503.61 L3350.16 1487.65 L3461.53 1465.12 L3572.91 1434.18 L3684.28 1391.86 L3795.66 1334.69 L3795.66 1056.61 L3684.28 1202.89 L3572.91 1308.20 L3461.53 1382.95 L3350.16 1435.17 L3238.78 1471.06 L3127.41 1495.19 L3016.03 1511.28 L2904.66 1521.55 L2793.28 1528.24 L2681.91 1532.32 L2570.53 1534.80 L2459.04 1536.40 L2347.66 1537.27 L2236.29 1537.64 L2124.91 1538.01 L2013.54 1538.14 L1902.16 1538.14 L1790.79 1538.26 L1679.41 1538.26 L1568.04 1538.26 L1456.66 1538.26 L1345.29 1538.26 L1233.79 1538.26 L1122.41 1538.26 L1011.04 1538.26 L899.66 1538.26 L788.29 1538.26 L676.91 1538.26 L565.54 1538.26 L565.54 1538.26 Z" stroke-linecap="round" style="fill:#7171FF;stroke:#4D4DFF;stroke-width:3.00"/>
	<path d="M565.54 1538.26 L565.54 1538.26 L676.91 1538.26 L788.29 1538.26 L899.66 1538.26 L1011.04 1538.26 L1122.41 1538.26 L1233.79 1538.26 L1345.29 1538.26 L1456.66 1538.26 L1568.04 1538.26 L1679.41 1538.26 L1790.79 1538.26 L1902.16 1538.26 L2013.54 1538.14 L2124.91 1538.01 L2236.29 1537.77 L2347.66 1537.27 L2459.04 1536.65 L2570.53 1535.54 L2681.91 1533.93 L2793.28 1531.33 L2904.66 1527.25 L3016.03 1521.18 L3127.41 1512.27 L3238.78 1499.28 L3350.16 1480.59 L3461.53 1454.23 L3572.91 1417.48 L3684.28 1366.74 L3795.66 1297.81 L3795.66 1093.49 L3684.28 1227.89 L3572.91 1324.91 L3461.53 1393.96 L3350.16 1442.10 L3238.78 1475.39 L3127.41 1497.79 L3016.03 1512.77 L2904.66 1522.42 L2793.28 1528.73 L2681.91 1532.57 L2570.53 1534.92 L2459.04 1536.40 L2347.66 1537.27 L2236.29 1537.77 L2124.91 1538.01 L2013.54 1538.14 L1902.16 1538.14 L1790.79 1538.26 L1679.41 1538.26 L1568.04 1538.26 L1456.66 1538.26 L1345.29 1538.26 L1233.79 1538.26 L1122.41 1538.26 L1011.04 1538.26 L899.66 1538.26 L788.29 1538.26 L676.91 1538.26 L565.54 1538.26 L565.54 1538.26 Z" stroke-linecap="round" style="fill:#5C5CFF;stroke:#3333FF;stroke-width:3.00"/>
	<path d="M565.54 1538.26 L565.54 1538.26 L676.91 1538.26 L788.29 1538.26 L899.66 1538.26 L1011.04 1538.26 L1122.41 1538.26 L1233.79 1538.26 L1345.29 1538.26 L1456.66 1538.26 L1568.04 1538.26 L1679.41 1538.26 L1790.79 1538.26 L1902.16 1538.14 L2013.54 1538.14 L2124.91 1538.01 L2236.29 1537.77 L2347.66 1537.27 L2459.04 1536.65 L2570.53 1535.54 L2681.91 1533.68 L2793.28 1530.84 L2904.66 1526.38 L3016.03 1519.82 L3127.41 1509.80 L3238.78 1495.19 L3350.16 1474.03 L3461.53 1443.96 L3572.91 1401.64 L3684.28 1342.98 L3795.66 1262.78 L3795.66 1128.51 L3684.28 1251.65 L3572.91 1340.75 L3461.53 1404.24 L3350.16 1448.79 L3238.78 1479.48 L3127.41 1500.27 L3016.03 1514.25 L2904.66 1523.29 L2793.28 1529.10 L2681.91 1532.82 L2570.53 1535.04 L2459.04 1536.40 L2347.66 1537.27 L2236.29 1537.77 L2124.91 1538.01 L2013.54 1538.14 L1902.16 1538.14 L1790.79 1538.26 L1679.41 1538.26 L1568.04 1538.26 L1456.66 1538.26 L1345.29 1538.26 L1233.79 1538.26 L1122.41 1538.26 L1011.04 1538.26 L899.66 1538.26 L788.29 1538.26 L676.91 1538.26 L565.54 1538.26 L565.54 1538.26 Z" stroke-linecap="round" style="fill:#4747FF;stroke:#1919FF;stroke-width:3.00"/>
	<path d="M565.54 1538.26 L565.54 1538.26 L676.91 1538.26 L788.29 1538.26 L899.66 1538.26 L1011.04 1538.26 L1122.41 1538.26 L1233.79 1538.26 L1345.29 1538.26 L1456.66 1538.26 L1568.04 1538.26 L1679.41 1538.26 L1790.79 1538.26 L1902.16 1538.14 L2013.54 1538.14 L2124.91 1538.01 L2236.29 1537.77 L2347.66 1537.27 L2459.04 1536.53 L2570.53 1535.41 L2681.91 1533.43 L2793.28 1530.46 L2904.66 1525.64 L3016.03 1518.34 L3127.41 1507.45 L3238.78 1491.23 L3350.16 1467.72 L3461.53 1433.94 L3572.91 1386.29 L3684.28 1319.96 L3795.66 1229.00 L3795.66 1162.30 L3684.28 1274.66 L3572.91 1356.09 L3461.53 1414.26 L3350.16 1455.10 L3238.78 1483.44 L3127.41 1502.74 L3016.03 1515.61 L2904.66 1524.03 L2793.28 1529.60 L2681.91 1533.06 L2570.53 1535.17 L2459.04 1536.53 L2347.66 1537.27 L2236.29 1537.77 L2124.91 1538.01 L2013.54 1538.14 L1902.16 1538.14 L1790.79 1538.26 L1679.41 1538.26 L1568.04 1538.26 L1456.66 1538.26 L1345.29 1538.26 L1233.79 1538.26 L1122.41 1538.26 L1011.04 1538.26 L899.66 1538.26 L788.29 1538.26 L676.91 1538.26 L565.54 1538.26 L565.54 1538.26 Z" stroke-linecap="round" style="fill:#3333FF;stroke:#0000FF;stroke-width:3.00"/>
	<circle cx="565.41" cy="1538.38" r="22.03" style="fill:#000000;stroke:#000000;stroke-width:8.64"/>
	<circle cx="676.79" cy="1538.38" r="22.03" style="fill:#000000;stroke:#000000;stroke-width:8.64"/>
	<circle cx="788.29" cy="1538.38" r="22.03" style="fill:#000000;stroke:#000000;stroke-width:8.64"/>
	<circle cx="899.66" cy="1538.38" r="22.03" style="fill:#000000;stroke:#000000;stroke-width:8.64"/>
	<circle cx="1011.04" cy="1538.38" r="22.03" style="fill:#000000;stroke:#000000;stroke-width:8.64"/>
	<circle cx="1122.41" cy="1538.38" r="22.03" style="fill:#000000;stroke:#000000;stroke-width:8.64"/>
	<circle cx="1233.79" cy="1538.26" r="22.03" style="fill:#000000;stroke:#000000;stroke-width:8.64"/>
	<circle cx="1345.16" cy="1538.26" r="22.03" style="fill:#000000;stroke:#000000;stroke-width:8.64"/>
	<circle cx="1456.54" cy="1538.26" r="22.03" style="fill:#000000;stroke:#000000;stroke-width:8.64"/>
	<circle cx="1567.91" cy="1538.26" r="22.03" style="fill:#000000;stroke:#000000;stroke-width:8.64"/>
	<circle cx="1679.29" cy="1538.26" r="22.03" style="fill:#000000;stroke:#000000;stroke-width:8.64"/>
	<circle cx="1790.66" cy="1538.26" r="22.03" style="fill:#000000;stroke:#000000;stroke-width:8.64"/>
	<circle cx="1902.04" cy="1538.26" r="22.03" style="fill:#000000;stroke:#000000;stroke-width:8.64"/>
	<circle cx="2013.54" cy="1538.26" r="22.03" style="fill:#000000;stroke:#000000;stroke-width:8.64"/>
	<circle cx="2124.91" cy="1538.14" r="22.03" style="fill:#000000;stroke:#000000;stroke-width:8.64"/>
	<circle cx="2236.29" cy="1537.77" r="22.03" style="fill:#000000;stroke:#000000;stroke-width:8.64"/>
	<line x1="390.80" y1="2489.19" x2="390.80" y2="100.86" style="stroke:#000000;stroke-width:5.76"/>
	<line x1="390.80" y1="2425.82" x2="350.83" y2="2425.82" style="stroke:#000000;stroke-width:5.76"/>
	<text x="300.72" y="2425.82" style="font-family:'Helvetica';font-size:99.99px;fill:#000000" transform="rotate(-90 300.72,2425.82)" text-anchor="middle">-2000</text>
	<line x1="390.80" y1="1982.04" x2="350.83" y2="1982.04" style="stroke:#000000;stroke-width:5.76"/>
	<text x="300.72" y="1982.04" style="font-family:'Helvetica';font-size:99.99px;fill:#000000" transform="rotate(-90 300.72,1982.04)" text-anchor="middle">-1000</text>
	<line x1="390.80" y1="1538.26" x2="350.83" y2="1538.26" style="stroke:#000000;stroke-width:5.76"/>
	<text x="300.72" y="1538.26" style="font-family:'Helvetica';font-size:99.99px;fill:#000000" transform="rotate(-90 300.72,1538.26)" text-anchor="middle">0</text>
	<line x1="390.80" y1="1094.48" x2="350.83" y2="1094.48" style="stroke:#000000;stroke-width:5.76"/>
	<text x="300.72" y="1094.48" style="font-family:'Helvetica';font-size:99.99px;fill:#000000" transform="rotate(-90 300.72,1094.48)" text-anchor="middle">1000</text>
	<line x1="390.80" y1="650.70" x2="350.83" y2="650.70" style="stroke:#000000;stroke-width:5.76"/>
	<text x="300.72" y="650.70" style="font-family:'Helvetica';font-size:99.99px;fill:#000000" transform="rotate(-90 300.72,650.70)" text-anchor="middle">2000</text>
	<line x1="390.80" y1="206.92" x2="350.83" y2="206.92" style="stroke:#000000;stroke-width:5.76"/>
	<text x="300.72" y="206.92" style="font-family:'Helvetica';font-size:99.99px;fill:#000000" transform="rotate(-90 300.72,206.92)" text-anchor="middle">3000</text>
	<text x="190.71" y="1294.96" style="font-family:'Helvetica';font-size:99.99px;fill:#000000" transform="rotate(-90 190.71,1294.96)" text-anchor="middle">Confirmed cases per 100 beds</text>
	<line x1="390.80" y1="2489.19" x2="3859.02" y2="2489.19" style="stroke:#000000;stroke-width:5.76"/>
	<line x1="454.16" y1="2489.19" x2="454.16" y2="2529.16" style="stroke:#000000;stroke-width:5.76"/>
	<text x="454.16" y="2619.14" style="font-family:'Helvetica';font-size:99.99px;fill:#000000" text-anchor="middle">0</text>
	<line x1="1568.04" y1="2489.19" x2="1568.04" y2="2529.16" style="stroke:#000000;stroke-width:5.76"/>
	<text x="1568.04" y="2619.14" style="font-family:'Helvetica';font-size:99.99px;fill:#000000" text-anchor="middle">10</text>
	<line x1="2681.91" y1="2489.19" x2="2681.91" y2="2529.16" style="stroke:#000000;stroke-width:5.76"/>
	<text x="2681.91" y="2619.14" style="font-family:'Helvetica';font-size:99.99px;fill:#000000" text-anchor="middle">20</text>
	<line x1="3795.66" y1="2489.19" x2="3795.66" y2="2529.16" style="stroke:#000000;stroke-width:5.76"/>
	<text x="3795.66" y="2619.14" style="font-family:'Helvetica';font-size:99.99px;fill:#000000" text-anchor="middle">30</text>
	<text x="2124.91" y="2729.16" style="font-family:'Helvetica';font-size:99.99px;fill:#000000" text-anchor="middle">Days since 0.01 confirmed cases per 100 beds</text>
</svg>
