<?xml version="1.0" encoding="UTF-8" standalone="no"?>
<!-- This is a Stata 14.2 generated SVG file (http://www.stata.com) -->

<svg version="1.1" width="5.50in" height="4.00in" viewBox="0 0 3960 2880" xmlns="http://www.w3.org/2000/svg">
	<desc>Stata Graph - Graph</desc>
	<line x1="390.80" y1="1294.96" x2="3859.02" y2="1294.96" style="stroke:#FF0000;stroke-width:8.64"/>
	<path d="M587.81 1860.64 L587.81 1860.64 L721.46 1860.52 L855.11 1860.27 L988.76 1860.02 L1122.41 1859.40 L1256.06 1858.54 L1389.84 1857.30 L1523.49 1855.81 L1657.14 1854.33 L1790.79 1853.09 L1924.44 1852.10 L2058.09 1851.61 L2191.74 1851.85 L2325.39 1853.21 L2459.04 1856.06 L2592.81 1861.13 L2726.46 1869.43 L2860.11 1882.05 L2993.76 1900.49 L3127.41 1926.60 L3261.06 1962.98 L3394.71 2012.49 L3528.36 2078.82 L3662.01 2166.68 L3795.66 2281.40 L3795.66 411.36 L3662.01 730.40 L3528.36 984.71 L3394.71 1186.06 L3261.06 1344.59 L3127.41 1468.71 L2993.76 1565.12 L2860.11 1639.49 L2726.46 1696.54 L2592.81 1739.86 L2459.04 1772.53 L2325.39 1797.03 L2191.74 1815.10 L2058.09 1828.34 L1924.44 1837.99 L1790.79 1844.68 L1657.14 1849.25 L1523.49 1852.22 L1389.84 1854.08 L1256.06 1855.32 L1122.41 1856.43 L988.76 1857.17 L855.11 1857.92 L721.46 1858.41 L587.81 1858.91 L587.81 1860.64 Z" stroke-linecap="round" style="fill:#EBEBFF;stroke:#E6E6FF;stroke-width:3.00"/>
	<path d="M587.81 1860.14 L587.81 1860.14 L721.46 1859.90 L855.11 1859.65 L988.76 1859.15 L1122.41 1858.54 L1256.06 1857.67 L1389.84 1856.43 L1523.49 1854.82 L1657.14 1852.84 L1790.79 1850.62 L1924.44 1848.02 L2058.09 1844.92 L2191.74 1841.33 L2325.39 1837.00 L2459.04 1831.93 L2592.81 1826.24 L2726.46 1819.55 L2860.11 1812.00 L2993.76 1803.71 L3127.41 1794.43 L3261.06 1784.53 L3394.71 1773.89 L3528.36 1763.00 L3662.01 1752.11 L3795.66 1741.71 L3795.66 951.05 L3662.01 1144.97 L3528.36 1300.41 L3394.71 1424.53 L3261.06 1523.04 L3127.41 1600.88 L2993.76 1661.89 L2860.11 1709.54 L2726.46 1746.41 L2592.81 1774.88 L2459.04 1796.66 L2325.39 1813.24 L2191.74 1825.74 L2058.09 1835.15 L1924.44 1842.08 L1790.79 1847.15 L1657.14 1850.74 L1523.49 1853.21 L1389.84 1855.07 L1256.06 1856.31 L1122.41 1857.30 L988.76 1858.04 L855.11 1858.54 L721.46 1859.03 L587.81 1859.40 L587.81 1860.14 Z" stroke-linecap="round" style="fill:#D6D6FF;stroke:#CCCCFF;stroke-width:3.00"/>
	<path d="M587.81 1860.02 L587.81 1860.02 L721.46 1859.77 L855.11 1859.53 L988.76 1859.03 L1122.41 1858.41 L1256.06 1857.42 L1389.84 1856.18 L1523.49 1854.58 L1657.14 1852.60 L1790.79 1850.24 L1924.44 1847.40 L2058.09 1843.81 L2191.74 1839.60 L2325.39 1834.40 L2459.04 1828.09 L2592.81 1820.54 L2726.46 1811.51 L2860.11 1800.74 L2993.76 1788.00 L3127.41 1773.02 L3261.06 1755.57 L3394.71 1735.40 L3528.36 1712.01 L3662.01 1685.03 L3795.66 1654.34 L3795.66 1038.42 L3662.01 1212.05 L3528.36 1351.52 L3394.71 1463.14 L3261.06 1552.00 L3127.41 1622.17 L2993.76 1677.48 L2860.11 1720.80 L2726.46 1754.46 L2592.81 1780.57 L2459.04 1800.62 L2325.39 1815.84 L2191.74 1827.47 L2058.09 1836.14 L1924.44 1842.70 L1790.79 1847.52 L1657.14 1850.99 L1523.49 1853.46 L1389.84 1855.19 L1256.06 1856.43 L1122.41 1857.42 L988.76 1858.16 L855.11 1858.66 L721.46 1859.15 L587.81 1859.53 L587.81 1860.02 Z" stroke-linecap="round" style="fill:#C2C2FF;stroke:#B3B3FF;stroke-width:3.00"/>
	<path d="M587.81 1860.02 L587.81 1860.02 L721.46 1859.77 L855.11 1859.40 L988.76 1858.91 L1122.41 1858.29 L1256.06 1857.42 L1389.84 1856.18 L1523.49 1854.45 L1657.14 1852.47 L1790.79 1850.00 L1924.44 1846.90 L2058.09 1843.07 L2191.74 1838.36 L2325.39 1832.55 L2459.04 1825.49 L2592.81 1816.71 L2726.46 1806.06 L2860.11 1793.07 L2993.76 1777.48 L3127.41 1758.67 L3261.06 1736.14 L3394.71 1709.29 L3528.36 1677.48 L3662.01 1639.86 L3795.66 1595.43 L3795.66 1097.33 L3662.01 1257.22 L3528.36 1386.04 L3394.71 1489.13 L3261.06 1571.43 L3127.41 1636.64 L2993.76 1688.13 L2860.11 1728.47 L2726.46 1759.90 L2592.81 1784.41 L2459.04 1803.22 L2325.39 1817.57 L2191.74 1828.59 L2058.09 1836.88 L1924.44 1843.19 L1790.79 1847.77 L1657.14 1851.11 L1523.49 1853.59 L1389.84 1855.32 L1256.06 1856.56 L1122.41 1857.55 L988.76 1858.16 L855.11 1858.78 L721.46 1859.15 L587.81 1859.53 L587.81 1860.02 Z" stroke-linecap="round" style="fill:#ADADFF;stroke:#9999FF;stroke-width:3.00"/>
	<path d="M587.81 1859.90 L587.81 1859.90 L721.46 1859.65 L855.11 1859.40 L988.76 1858.91 L1122.41 1858.16 L1256.06 1857.30 L1389.84 1856.06 L1523.49 1854.45 L1657.14 1852.35 L1790.79 1849.75 L1924.44 1846.53 L2058.09 1842.57 L2191.74 1837.50 L2325.39 1831.19 L2459.04 1823.39 L2592.81 1813.61 L2726.46 1801.73 L2860.11 1787.01 L2993.76 1769.06 L3127.41 1747.16 L3261.06 1720.67 L3394.71 1688.62 L3528.36 1650.13 L3662.01 1603.85 L3795.66 1548.66 L3795.66 1144.10 L3662.01 1293.23 L3528.36 1413.39 L3394.71 1509.92 L3261.06 1586.90 L3127.41 1648.15 L2993.76 1696.54 L2860.11 1734.53 L2726.46 1764.24 L2592.81 1787.38 L2459.04 1805.32 L2325.39 1819.06 L2191.74 1829.58 L2058.09 1837.50 L1924.44 1843.56 L1790.79 1848.02 L1657.14 1851.23 L1523.49 1853.59 L1389.84 1855.32 L1256.06 1856.56 L1122.41 1857.55 L988.76 1858.29 L855.11 1858.78 L721.46 1859.28 L587.81 1859.53 L587.81 1859.90 Z" stroke-linecap="round" style="fill:#9999FF;stroke:#8080FF;stroke-width:3.00"/>
	<path d="M587.81 1859.90 L587.81 1859.90 L721.46 1859.65 L855.11 1859.28 L988.76 1858.78 L1122.41 1858.16 L1256.06 1857.17 L1389.84 1855.94 L1523.49 1854.33 L1657.14 1852.22 L1790.79 1849.63 L1924.44 1846.28 L2058.09 1842.08 L2191.74 1836.75 L2325.39 1829.95 L2459.04 1821.53 L2592.81 1811.01 L2726.46 1798.02 L2860.11 1781.81 L2993.76 1761.88 L3127.41 1737.38 L3261.06 1707.43 L3394.71 1670.92 L3528.36 1626.62 L3662.01 1573.04 L3795.66 1508.44 L3795.66 1184.32 L3662.01 1324.04 L3528.36 1436.91 L3394.71 1527.62 L3261.06 1600.14 L3127.41 1657.93 L2993.76 1703.72 L2860.11 1739.73 L2726.46 1767.95 L2592.81 1789.98 L2459.04 1807.05 L2325.39 1820.30 L2191.74 1830.32 L2058.09 1837.99 L1924.44 1843.81 L1790.79 1848.14 L1657.14 1851.36 L1523.49 1853.71 L1389.84 1855.44 L1256.06 1856.68 L1122.41 1857.67 L988.76 1858.41 L855.11 1858.91 L721.46 1859.28 L587.81 1859.65 L587.81 1859.90 Z" stroke-linecap="round" style="fill:#8585FF;stroke:#6666FF;stroke-width:3.00"/>
	<path d="M587.81 1859.90 L587.81 1859.90 L721.46 1859.65 L855.11 1859.28 L988.76 1858.78 L1122.41 1858.04 L1256.06 1857.17 L1389.84 1855.94 L1523.49 1854.33 L1657.14 1852.10 L1790.79 1849.38 L1924.44 1846.04 L2058.09 1841.58 L2191.74 1836.01 L2325.39 1828.96 L2459.04 1819.92 L2592.81 1808.66 L2726.46 1794.68 L2860.11 1777.11 L2993.76 1755.32 L3127.41 1728.47 L3261.06 1695.43 L3394.71 1654.96 L3528.36 1605.46 L3662.01 1545.31 L3795.66 1472.42 L3795.66 1220.34 L3662.01 1351.76 L3528.36 1458.07 L3394.71 1543.58 L3261.06 1612.14 L3127.41 1666.84 L2993.76 1710.15 L2860.11 1744.43 L2726.46 1771.29 L2592.81 1792.33 L2459.04 1808.66 L2325.39 1821.29 L2191.74 1831.06 L2058.09 1838.49 L1924.44 1844.06 L1790.79 1848.26 L1657.14 1851.48 L1523.49 1853.83 L1389.84 1855.44 L1256.06 1856.80 L1122.41 1857.67 L988.76 1858.41 L855.11 1858.91 L721.46 1859.28 L587.81 1859.65 L587.81 1859.90 Z" stroke-linecap="round" style="fill:#7171FF;stroke:#4D4DFF;stroke-width:3.00"/>
	<path d="M587.81 1859.77 L587.81 1859.77 L721.46 1859.53 L855.11 1859.28 L988.76 1858.78 L1122.41 1858.04 L1256.06 1857.17 L1389.84 1855.81 L1523.49 1854.20 L1657.14 1852.10 L1790.79 1849.25 L1924.44 1845.79 L2058.09 1841.21 L2191.74 1835.39 L2325.39 1827.84 L2459.04 1818.44 L2592.81 1806.56 L2726.46 1791.58 L2860.11 1772.77 L2993.76 1749.38 L3127.41 1720.30 L3261.06 1684.41 L3394.71 1640.23 L3528.36 1585.91 L3662.01 1519.70 L3795.66 1439.01 L3795.66 1253.75 L3662.01 1377.38 L3528.36 1477.62 L3394.71 1558.31 L3261.06 1623.16 L3127.41 1675.01 L2993.76 1716.22 L2860.11 1748.77 L2726.46 1774.38 L2592.81 1794.55 L2459.04 1810.15 L2325.39 1822.28 L2191.74 1831.68 L2058.09 1838.86 L1924.44 1844.30 L1790.79 1848.51 L1657.14 1851.61 L1523.49 1853.83 L1389.84 1855.57 L1256.06 1856.80 L1122.41 1857.79 L988.76 1858.41 L855.11 1859.03 L721.46 1859.40 L587.81 1859.65 L587.81 1859.77 Z" stroke-linecap="round" style="fill:#5C5CFF;stroke:#3333FF;stroke-width:3.00"/>
	<path d="M587.81 1859.77 L587.81 1859.77 L721.46 1859.53 L855.11 1859.15 L988.76 1858.66 L1122.41 1858.04 L1256.06 1857.05 L1389.84 1855.81 L1523.49 1854.20 L1657.14 1851.98 L1790.79 1849.13 L1924.44 1845.54 L2058.09 1840.84 L2191.74 1834.65 L2325.39 1826.98 L2459.04 1817.08 L2592.81 1804.46 L2726.46 1788.61 L2860.11 1768.69 L2993.76 1743.69 L3127.41 1712.51 L3261.06 1673.89 L3394.71 1626.13 L3528.36 1567.34 L3662.01 1495.32 L3795.66 1407.33 L3795.66 1285.56 L3662.01 1401.76 L3528.36 1496.18 L3394.71 1572.29 L3261.06 1633.67 L3127.41 1682.68 L2993.76 1721.79 L2860.11 1752.85 L2726.46 1777.35 L2592.81 1796.53 L2459.04 1811.63 L2325.39 1823.27 L2191.74 1832.30 L2058.09 1839.23 L1924.44 1844.55 L1790.79 1848.64 L1657.14 1851.61 L1523.49 1853.96 L1389.84 1855.57 L1256.06 1856.80 L1122.41 1857.79 L988.76 1858.54 L855.11 1859.03 L721.46 1859.40 L587.81 1859.65 L587.81 1859.77 Z" stroke-linecap="round" style="fill:#4747FF;stroke:#1919FF;stroke-width:3.00"/>
	<path d="M587.81 1859.77 L587.81 1859.77 L721.46 1859.53 L855.11 1859.15 L988.76 1858.66 L1122.41 1857.92 L1256.06 1857.05 L1389.84 1855.81 L1523.49 1854.08 L1657.14 1851.85 L1790.79 1849.01 L1924.44 1845.29 L2058.09 1840.34 L2191.74 1834.16 L2325.39 1825.99 L2459.04 1815.72 L2592.81 1802.48 L2726.46 1785.77 L2860.11 1764.73 L2993.76 1738.25 L3127.41 1705.08 L3261.06 1663.75 L3394.71 1612.64 L3528.36 1549.40 L3662.01 1471.68 L3795.66 1376.64 L3795.66 1316.25 L3662.01 1425.40 L3528.36 1514.13 L3394.71 1585.91 L3261.06 1643.82 L3127.41 1690.23 L2993.76 1727.36 L2860.11 1756.81 L2726.46 1780.20 L2592.81 1798.51 L2459.04 1812.99 L2325.39 1824.26 L2191.74 1832.92 L2058.09 1839.60 L1924.44 1844.80 L1790.79 1848.76 L1657.14 1851.73 L1523.49 1853.96 L1389.84 1855.69 L1256.06 1856.93 L1122.41 1857.79 L988.76 1858.54 L855.11 1859.03 L721.46 1859.40 L587.81 1859.77 L587.81 1859.77 Z" stroke-linecap="round" style="fill:#3333FF;stroke:#0000FF;stroke-width:3.00"/>
	<circle cx="587.69" cy="1859.90" r="22.03" style="fill:#000000;stroke:#000000;stroke-width:8.64"/>
	<circle cx="721.46" cy="1859.28" r="22.03" style="fill:#000000;stroke:#000000;stroke-width:8.64"/>
	<circle cx="855.11" cy="1858.66" r="22.03" style="fill:#000000;stroke:#000000;stroke-width:8.64"/>
	<circle cx="988.76" cy="1857.05" r="22.03" style="fill:#000000;stroke:#000000;stroke-width:8.64"/>
	<circle cx="1122.41" cy="1856.80" r="22.03" style="fill:#000000;stroke:#000000;stroke-width:8.64"/>
	<circle cx="1256.06" cy="1856.80" r="22.03" style="fill:#000000;stroke:#000000;stroke-width:8.64"/>
	<circle cx="1389.71" cy="1855.81" r="22.03" style="fill:#000000;stroke:#000000;stroke-width:8.64"/>
	<circle cx="1523.36" cy="1854.58" r="22.03" style="fill:#000000;stroke:#000000;stroke-width:8.64"/>
	<circle cx="1657.01" cy="1852.97" r="22.03" style="fill:#000000;stroke:#000000;stroke-width:8.64"/>
	<circle cx="1790.66" cy="1851.11" r="22.03" style="fill:#000000;stroke:#000000;stroke-width:8.64"/>
	<circle cx="1924.31" cy="1843.07" r="22.03" style="fill:#000000;stroke:#000000;stroke-width:8.64"/>
	<line x1="390.80" y1="2489.19" x2="390.80" y2="100.86" style="stroke:#000000;stroke-width:5.76"/>
	<line x1="390.80" y1="2425.82" x2="350.83" y2="2425.82" style="stroke:#000000;stroke-width:5.76"/>
	<text x="300.72" y="2425.82" style="font-family:'Helvetica';font-size:99.99px;fill:#000000" transform="rotate(-90 300.72,2425.82)" text-anchor="middle">-10</text>
	<line x1="390.80" y1="1860.39" x2="350.83" y2="1860.39" style="stroke:#000000;stroke-width:5.76"/>
	<text x="300.72" y="1860.39" style="font-family:'Helvetica';font-size:99.99px;fill:#000000" transform="rotate(-90 300.72,1860.39)" text-anchor="middle">0</text>
	<line x1="390.80" y1="1294.96" x2="350.83" y2="1294.96" style="stroke:#000000;stroke-width:5.76"/>
	<text x="300.72" y="1294.96" style="font-family:'Helvetica';font-size:99.99px;fill:#000000" transform="rotate(-90 300.72,1294.96)" text-anchor="middle">10</text>
	<line x1="390.80" y1="729.53" x2="350.83" y2="729.53" style="stroke:#000000;stroke-width:5.76"/>
	<text x="300.72" y="729.53" style="font-family:'Helvetica';font-size:99.99px;fill:#000000" transform="rotate(-90 300.72,729.53)" text-anchor="middle">20</text>
	<line x1="390.80" y1="164.22" x2="350.83" y2="164.22" style="stroke:#000000;stroke-width:5.76"/>
	<text x="300.72" y="164.22" style="font-family:'Helvetica';font-size:99.99px;fill:#000000" transform="rotate(-90 300.72,164.22)" text-anchor="middle">30</text>
	<text x="190.71" y="1294.96" style="font-family:'Helvetica';font-size:99.99px;fill:#000000" transform="rotate(-90 190.71,1294.96)" text-anchor="middle">Confirmed cases per 100 beds</text>
	<line x1="390.80" y1="2489.19" x2="3859.02" y2="2489.19" style="stroke:#000000;stroke-width:5.76"/>
	<line x1="454.16" y1="2489.19" x2="454.16" y2="2529.16" style="stroke:#000000;stroke-width:5.76"/>
	<text x="454.16" y="2619.14" style="font-family:'Helvetica';font-size:99.99px;fill:#000000" text-anchor="middle">0</text>
	<line x1="1122.41" y1="2489.19" x2="1122.41" y2="2529.16" style="stroke:#000000;stroke-width:5.76"/>
	<text x="1122.41" y="2619.14" style="font-family:'Helvetica';font-size:99.99px;fill:#000000" text-anchor="middle">5</text>
	<line x1="1790.79" y1="2489.19" x2="1790.79" y2="2529.16" style="stroke:#000000;stroke-width:5.76"/>
	<text x="1790.79" y="2619.14" style="font-family:'Helvetica';font-size:99.99px;fill:#000000" text-anchor="middle">10</text>
	<line x1="2459.04" y1="2489.19" x2="2459.04" y2="2529.16" style="stroke:#000000;stroke-width:5.76"/>
	<text x="2459.04" y="2619.14" style="font-family:'Helvetica';font-size:99.99px;fill:#000000" text-anchor="middle">15</text>
	<line x1="3127.41" y1="2489.19" x2="3127.41" y2="2529.16" style="stroke:#000000;stroke-width:5.76"/>
	<text x="3127.41" y="2619.14" style="font-family:'Helvetica';font-size:99.99px;fill:#000000" text-anchor="middle">20</text>
	<line x1="3795.66" y1="2489.19" x2="3795.66" y2="2529.16" style="stroke:#000000;stroke-width:5.76"/>
	<text x="3795.66" y="2619.14" style="font-family:'Helvetica';font-size:99.99px;fill:#000000" text-anchor="middle">25</text>
	<text x="2124.91" y="2729.16" style="font-family:'Helvetica';font-size:99.99px;fill:#000000" text-anchor="middle">Days since 0.01 confirmed cases per 100 beds</text>
</svg>
