<?xml version="1.0" encoding="UTF-8" standalone="no"?>
<!-- This is a Stata 14.2 generated SVG file (http://www.stata.com) -->

<svg version="1.1" width="5.50in" height="4.00in" viewBox="0 0 3960 2880" xmlns="http://www.w3.org/2000/svg">
	<desc>Stata Graph - Graph</desc>
	<line x1="390.80" y1="-134.40" x2="3859.02" y2="-134.40" style="stroke:#FF0000;stroke-width:8.64"/>
	<path d="M587.81 1994.54 L587.81 1994.54 L721.46 1991.69 L855.11 1988.23 L988.76 1983.65 L1122.41 1978.21 L1256.06 1971.77 L1389.84 1964.96 L1523.49 1958.78 L1657.14 1953.83 L1790.79 1949.87 L1924.44 1946.90 L2058.09 1945.16 L2191.74 1944.67 L2325.39 1945.91 L2459.04 1949.37 L2592.81 1955.43 L2726.46 1965.09 L2860.11 1978.82 L2993.76 1997.88 L3127.41 2023.25 L3261.06 2056.42 L3394.71 2098.62 L3528.36 2151.96 L3662.01 2218.41 L3795.66 2300.21 L3795.66 164.22 L3662.01 452.44 L3528.36 699.33 L3394.71 910.33 L3261.06 1090.02 L3127.41 1242.74 L2993.76 1371.94 L2860.11 1481.09 L2726.46 1572.91 L2592.81 1649.89 L2459.04 1714.11 L2325.39 1767.58 L2191.74 1811.88 L2058.09 1848.26 L1924.44 1878.09 L1790.79 1902.22 L1657.14 1921.28 L1523.49 1935.88 L1389.84 1946.28 L1256.06 1953.70 L1122.41 1959.27 L988.76 1963.85 L855.11 1967.81 L721.46 1971.40 L587.81 1974.74 L587.81 1994.54 Z" stroke-linecap="round" style="fill:#EBEBFF;stroke:#E6E6FF;stroke-width:3.00"/>
	<path d="M587.81 1988.72 L587.81 1988.72 L721.46 1985.88 L855.11 1982.29 L988.76 1977.96 L1122.41 1972.76 L1256.06 1966.57 L1389.84 1959.64 L1523.49 1952.22 L1657.14 1944.42 L1790.79 1936.13 L1924.44 1927.10 L2058.09 1917.19 L2191.74 1906.30 L2325.39 1894.42 L2459.04 1881.43 L2592.81 1867.32 L2726.46 1851.85 L2860.11 1835.15 L2993.76 1817.20 L3127.41 1798.02 L3261.06 1777.48 L3394.71 1755.70 L3528.36 1732.68 L3662.01 1708.67 L3795.66 1683.67 L3795.66 780.64 L3662.01 962.06 L3528.36 1118.61 L3394.71 1253.26 L3261.06 1368.97 L3127.41 1467.97 L2993.76 1552.62 L2860.11 1624.76 L2726.46 1686.02 L2592.81 1738.00 L2459.04 1782.06 L2325.39 1819.06 L2191.74 1850.24 L2058.09 1876.23 L1924.44 1898.01 L1790.79 1915.96 L1657.14 1930.68 L1523.49 1942.44 L1389.84 1951.72 L1256.06 1958.90 L1122.41 1964.72 L988.76 1969.54 L855.11 1973.75 L721.46 1977.34 L587.81 1980.43 L587.81 1988.72 Z" stroke-linecap="round" style="fill:#D6D6FF;stroke:#CCCCFF;stroke-width:3.00"/>
	<path d="M587.81 1987.86 L587.81 1987.86 L721.46 1984.89 L855.11 1981.30 L988.76 1976.97 L1122.41 1971.77 L1256.06 1965.71 L1389.84 1958.78 L1523.49 1951.10 L1657.14 1942.94 L1790.79 1933.90 L1924.44 1923.88 L2058.09 1912.62 L2191.74 1900.12 L2325.39 1886.13 L2459.04 1870.42 L2592.81 1852.97 L2726.46 1833.54 L2860.11 1812.00 L2993.76 1788.00 L3127.41 1761.51 L3261.06 1732.31 L3394.71 1700.25 L3528.36 1664.86 L3662.01 1626.25 L3795.66 1583.93 L3795.66 880.39 L3662.01 1044.61 L3528.36 1186.43 L3394.71 1308.82 L3261.06 1414.01 L3127.41 1504.48 L2993.76 1581.82 L2860.11 1648.03 L2726.46 1704.34 L2592.81 1752.35 L2459.04 1792.95 L2325.39 1827.35 L2191.74 1856.43 L2058.09 1880.81 L1924.44 1901.11 L1790.79 1918.18 L1657.14 1932.17 L1523.49 1943.55 L1389.84 1952.59 L1256.06 1959.77 L1122.41 1965.58 L988.76 1970.53 L855.11 1974.62 L721.46 1978.21 L587.81 1981.30 L587.81 1987.86 Z" stroke-linecap="round" style="fill:#C2C2FF;stroke:#B3B3FF;stroke-width:3.00"/>
	<path d="M587.81 1987.24 L587.81 1987.24 L721.46 1984.27 L855.11 1980.68 L988.76 1976.35 L1122.41 1971.28 L1256.06 1965.09 L1389.84 1958.16 L1523.49 1950.36 L1657.14 1941.82 L1790.79 1932.42 L1924.44 1921.65 L2058.09 1909.65 L2191.74 1895.91 L2325.39 1880.44 L2459.04 1862.99 L2592.81 1843.31 L2726.46 1821.16 L2860.11 1796.29 L2993.76 1768.32 L3127.41 1737.01 L3261.06 1701.86 L3394.71 1662.76 L3528.36 1619.20 L3662.01 1570.56 L3795.66 1516.73 L3795.66 947.71 L3662.01 1100.17 L3528.36 1232.22 L3394.71 1346.19 L3261.06 1444.46 L3127.41 1528.98 L2993.76 1601.50 L2860.11 1663.62 L2726.46 1716.71 L2592.81 1761.88 L2459.04 1800.37 L2325.39 1833.04 L2191.74 1860.52 L2058.09 1883.78 L1924.44 1903.33 L1790.79 1919.67 L1657.14 1933.16 L1523.49 1944.30 L1389.84 1953.21 L1256.06 1960.26 L1122.41 1966.20 L988.76 1971.15 L855.11 1975.24 L721.46 1978.82 L587.81 1981.92 L587.81 1987.24 Z" stroke-linecap="round" style="fill:#ADADFF;stroke:#9999FF;stroke-width:3.00"/>
	<path d="M587.81 1986.74 L587.81 1986.74 L721.46 1983.77 L855.11 1980.19 L988.76 1975.85 L1122.41 1970.78 L1256.06 1964.72 L1389.84 1957.66 L1523.49 1949.87 L1657.14 1941.08 L1790.79 1931.18 L1924.44 1919.92 L2058.09 1907.17 L2191.74 1892.57 L2325.39 1875.98 L2459.04 1857.17 L2592.81 1835.76 L2726.46 1811.39 L2860.11 1783.79 L2993.76 1752.60 L3127.41 1717.46 L3261.06 1677.73 L3394.71 1633.06 L3528.36 1582.81 L3662.01 1526.38 L3795.66 1463.27 L3795.66 1001.17 L3662.01 1144.35 L3528.36 1268.60 L3394.71 1376.02 L3261.06 1468.71 L3127.41 1548.53 L2993.76 1617.22 L2860.11 1676.12 L2726.46 1726.49 L2592.81 1769.56 L2459.04 1806.31 L2325.39 1837.50 L2191.74 1863.86 L2058.09 1886.26 L1924.44 1905.07 L1790.79 1920.91 L1657.14 1934.03 L1523.49 1944.79 L1389.84 1953.58 L1256.06 1960.76 L1122.41 1966.70 L988.76 1971.65 L855.11 1975.85 L721.46 1979.44 L587.81 1982.41 L587.81 1986.74 Z" stroke-linecap="round" style="fill:#9999FF;stroke:#8080FF;stroke-width:3.00"/>
	<path d="M587.81 1986.25 L587.81 1986.25 L721.46 1983.40 L855.11 1979.81 L988.76 1975.48 L1122.41 1970.29 L1256.06 1964.35 L1389.84 1957.29 L1523.49 1949.37 L1657.14 1940.34 L1790.79 1930.19 L1924.44 1918.43 L2058.09 1905.07 L2191.74 1889.72 L2325.39 1872.15 L2459.04 1852.10 L2592.81 1829.21 L2726.46 1802.97 L2860.11 1773.15 L2993.76 1739.24 L3127.41 1700.63 L3261.06 1656.94 L3394.71 1607.56 L3528.36 1551.63 L3662.01 1488.51 L3795.66 1417.35 L3795.66 1047.08 L3662.01 1182.34 L3528.36 1299.79 L3394.71 1401.51 L3261.06 1489.50 L3127.41 1565.36 L2993.76 1630.70 L2860.11 1686.77 L2726.46 1734.91 L2592.81 1776.12 L2459.04 1811.39 L2325.39 1841.33 L2191.74 1866.70 L2058.09 1888.36 L1924.44 1906.55 L1790.79 1921.90 L1657.14 1934.64 L1523.49 1945.29 L1389.84 1954.07 L1256.06 1961.13 L1122.41 1967.07 L988.76 1972.02 L855.11 1976.23 L721.46 1979.81 L587.81 1982.91 L587.81 1986.25 Z" stroke-linecap="round" style="fill:#8585FF;stroke:#6666FF;stroke-width:3.00"/>
	<path d="M587.81 1985.88 L587.81 1985.88 L721.46 1982.91 L855.11 1979.32 L988.76 1975.11 L1122.41 1969.91 L1256.06 1963.97 L1389.84 1956.92 L1523.49 1948.88 L1657.14 1939.72 L1790.79 1929.20 L1924.44 1917.19 L2058.09 1903.21 L2191.74 1887.25 L2325.39 1868.81 L2459.04 1847.52 L2592.81 1823.27 L2726.46 1795.42 L2860.11 1763.49 L2993.76 1727.11 L3127.41 1685.65 L3261.06 1638.38 L3394.71 1584.54 L3528.36 1523.53 L3662.01 1454.36 L3795.66 1376.14 L3795.66 1088.17 L3662.01 1216.38 L3528.36 1327.76 L3394.71 1424.41 L3261.06 1508.06 L3127.41 1580.34 L2993.76 1642.71 L2860.11 1696.42 L2726.46 1742.58 L2592.81 1782.06 L2459.04 1815.84 L2325.39 1844.68 L2191.74 1869.30 L2058.09 1890.22 L1924.44 1907.91 L1790.79 1922.76 L1657.14 1935.39 L1523.49 1945.78 L1389.84 1954.44 L1256.06 1961.50 L1122.41 1967.44 L988.76 1972.39 L855.11 1976.60 L721.46 1980.19 L587.81 1983.28 L587.81 1985.88 Z" stroke-linecap="round" style="fill:#7171FF;stroke:#4D4DFF;stroke-width:3.00"/>
	<path d="M587.81 1985.51 L587.81 1985.51 L721.46 1982.54 L855.11 1979.07 L988.76 1974.74 L1122.41 1969.67 L1256.06 1963.60 L1389.84 1956.55 L1523.49 1948.50 L1657.14 1939.10 L1790.79 1928.33 L1924.44 1915.96 L2058.09 1901.48 L2191.74 1884.77 L2325.39 1865.59 L2459.04 1843.31 L2592.81 1817.82 L2726.46 1788.37 L2860.11 1754.58 L2993.76 1715.97 L3127.41 1671.67 L3261.06 1621.05 L3394.71 1563.38 L3528.36 1497.55 L3662.01 1422.80 L3795.66 1337.90 L3795.66 1126.41 L3662.01 1247.93 L3528.36 1353.74 L3394.71 1445.69 L3261.06 1525.39 L3127.41 1594.32 L2993.76 1653.97 L2860.11 1705.33 L2726.46 1749.51 L2592.81 1787.50 L2459.04 1820.05 L2325.39 1847.89 L2191.74 1871.65 L2058.09 1891.95 L1924.44 1909.15 L1790.79 1923.63 L1657.14 1935.88 L1523.49 1946.15 L1389.84 1954.69 L1256.06 1961.87 L1122.41 1967.81 L988.76 1972.76 L855.11 1976.97 L721.46 1980.56 L587.81 1983.65 L587.81 1985.51 Z" stroke-linecap="round" style="fill:#5C5CFF;stroke:#3333FF;stroke-width:3.00"/>
	<path d="M587.81 1985.26 L587.81 1985.26 L721.46 1982.29 L855.11 1978.70 L988.76 1974.37 L1122.41 1969.30 L1256.06 1963.36 L1389.84 1956.30 L1523.49 1948.13 L1657.14 1938.60 L1790.79 1927.59 L1924.44 1914.72 L2058.09 1899.87 L2191.74 1882.54 L2325.39 1862.50 L2459.04 1839.35 L2592.81 1812.62 L2726.46 1781.68 L2860.11 1746.17 L2993.76 1705.33 L3127.41 1658.43 L3261.06 1604.72 L3394.71 1543.21 L3528.36 1472.92 L3662.01 1392.85 L3795.66 1301.77 L3795.66 1162.67 L3662.01 1277.88 L3528.36 1378.37 L3394.71 1465.86 L3261.06 1541.73 L3127.41 1607.56 L2993.76 1664.49 L2860.11 1713.74 L2726.46 1756.19 L2592.81 1792.70 L2459.04 1824.01 L2325.39 1850.99 L2191.74 1873.88 L2058.09 1893.56 L1924.44 1910.26 L1790.79 1924.50 L1657.14 1936.50 L1523.49 1946.52 L1389.84 1955.06 L1256.06 1962.12 L1122.41 1968.06 L988.76 1973.13 L855.11 1977.34 L721.46 1980.93 L587.81 1983.90 L587.81 1985.26 Z" stroke-linecap="round" style="fill:#4747FF;stroke:#1919FF;stroke-width:3.00"/>
	<path d="M587.81 1984.89 L587.81 1984.89 L721.46 1981.92 L855.11 1978.33 L988.76 1974.12 L1122.41 1969.05 L1256.06 1962.98 L1389.84 1955.93 L1523.49 1947.64 L1657.14 1938.11 L1790.79 1926.72 L1924.44 1913.61 L2058.09 1898.26 L2191.74 1880.44 L2325.39 1859.65 L2459.04 1835.52 L2592.81 1807.55 L2726.46 1775.25 L2860.11 1738.00 L2993.76 1695.06 L3127.41 1645.56 L3261.06 1588.75 L3394.71 1523.66 L3528.36 1449.16 L3662.01 1363.89 L3795.66 1266.62 L3795.66 1197.69 L3662.01 1306.84 L3528.36 1402.26 L3394.71 1485.29 L3261.06 1557.57 L3127.41 1620.43 L2993.76 1674.76 L2860.11 1721.91 L2726.46 1762.63 L2592.81 1797.77 L2459.04 1827.97 L2325.39 1853.83 L2191.74 1876.11 L2058.09 1895.17 L1924.44 1911.38 L1790.79 1925.24 L1657.14 1937.00 L1523.49 1946.90 L1389.84 1955.31 L1256.06 1962.49 L1122.41 1968.43 L988.76 1973.38 L855.11 1977.71 L721.46 1981.30 L587.81 1984.27 L587.81 1984.89 Z" stroke-linecap="round" style="fill:#3333FF;stroke:#0000FF;stroke-width:3.00"/>
	<circle cx="587.69" cy="1992.44" r="22.03" style="fill:#000000;stroke:#000000;stroke-width:8.64"/>
	<circle cx="721.46" cy="1981.18" r="22.03" style="fill:#000000;stroke:#000000;stroke-width:8.64"/>
	<circle cx="855.11" cy="1969.91" r="22.03" style="fill:#000000;stroke:#000000;stroke-width:8.64"/>
	<circle cx="988.76" cy="1967.69" r="22.03" style="fill:#000000;stroke:#000000;stroke-width:8.64"/>
	<circle cx="1122.41" cy="1963.11" r="22.03" style="fill:#000000;stroke:#000000;stroke-width:8.64"/>
	<circle cx="1256.06" cy="1960.88" r="22.03" style="fill:#000000;stroke:#000000;stroke-width:8.64"/>
	<circle cx="1389.71" cy="1958.65" r="22.03" style="fill:#000000;stroke:#000000;stroke-width:8.64"/>
	<circle cx="1523.36" cy="1949.62" r="22.03" style="fill:#000000;stroke:#000000;stroke-width:8.64"/>
	<circle cx="1657.01" cy="1949.62" r="22.03" style="fill:#000000;stroke:#000000;stroke-width:8.64"/>
	<circle cx="1790.66" cy="1933.78" r="22.03" style="fill:#000000;stroke:#000000;stroke-width:8.64"/>
	<circle cx="1924.31" cy="1899.99" r="22.03" style="fill:#000000;stroke:#000000;stroke-width:8.64"/>
	<line x1="390.80" y1="2489.19" x2="390.80" y2="100.86" style="stroke:#000000;stroke-width:5.76"/>
	<line x1="390.80" y1="2425.82" x2="350.83" y2="2425.82" style="stroke:#000000;stroke-width:5.76"/>
	<text x="300.72" y="2425.82" style="font-family:'Helvetica';font-size:99.99px;fill:#000000" transform="rotate(-90 300.72,2425.82)" text-anchor="middle">-2</text>
	<line x1="390.80" y1="1999.12" x2="350.83" y2="1999.12" style="stroke:#000000;stroke-width:5.76"/>
	<text x="300.72" y="1999.12" style="font-family:'Helvetica';font-size:99.99px;fill:#000000" transform="rotate(-90 300.72,1999.12)" text-anchor="middle">0</text>
	<line x1="390.80" y1="1572.42" x2="350.83" y2="1572.42" style="stroke:#000000;stroke-width:5.76"/>
	<text x="300.72" y="1572.42" style="font-family:'Helvetica';font-size:99.99px;fill:#000000" transform="rotate(-90 300.72,1572.42)" text-anchor="middle">2</text>
	<line x1="390.80" y1="1145.71" x2="350.83" y2="1145.71" style="stroke:#000000;stroke-width:5.76"/>
	<text x="300.72" y="1145.71" style="font-family:'Helvetica';font-size:99.99px;fill:#000000" transform="rotate(-90 300.72,1145.71)" text-anchor="middle">4</text>
	<line x1="390.80" y1="719.01" x2="350.83" y2="719.01" style="stroke:#000000;stroke-width:5.76"/>
	<text x="300.72" y="719.01" style="font-family:'Helvetica';font-size:99.99px;fill:#000000" transform="rotate(-90 300.72,719.01)" text-anchor="middle">6</text>
	<line x1="390.80" y1="292.31" x2="350.83" y2="292.31" style="stroke:#000000;stroke-width:5.76"/>
	<text x="300.72" y="292.31" style="font-family:'Helvetica';font-size:99.99px;fill:#000000" transform="rotate(-90 300.72,292.31)" text-anchor="middle">8</text>
	<text x="190.71" y="1294.96" style="font-family:'Helvetica';font-size:99.99px;fill:#000000" transform="rotate(-90 190.71,1294.96)" text-anchor="middle">Confirmed cases per 100 beds</text>
	<line x1="390.80" y1="2489.19" x2="3859.02" y2="2489.19" style="stroke:#000000;stroke-width:5.76"/>
	<line x1="454.16" y1="2489.19" x2="454.16" y2="2529.16" style="stroke:#000000;stroke-width:5.76"/>
	<text x="454.16" y="2619.14" style="font-family:'Helvetica';font-size:99.99px;fill:#000000" text-anchor="middle">0</text>
	<line x1="1122.41" y1="2489.19" x2="1122.41" y2="2529.16" style="stroke:#000000;stroke-width:5.76"/>
	<text x="1122.41" y="2619.14" style="font-family:'Helvetica';font-size:99.99px;fill:#000000" text-anchor="middle">5</text>
	<line x1="1790.79" y1="2489.19" x2="1790.79" y2="2529.16" style="stroke:#000000;stroke-width:5.76"/>
	<text x="1790.79" y="2619.14" style="font-family:'Helvetica';font-size:99.99px;fill:#000000" text-anchor="middle">10</text>
	<line x1="2459.04" y1="2489.19" x2="2459.04" y2="2529.16" style="stroke:#000000;stroke-width:5.76"/>
	<text x="2459.04" y="2619.14" style="font-family:'Helvetica';font-size:99.99px;fill:#000000" text-anchor="middle">15</text>
	<line x1="3127.41" y1="2489.19" x2="3127.41" y2="2529.16" style="stroke:#000000;stroke-width:5.76"/>
	<text x="3127.41" y="2619.14" style="font-family:'Helvetica';font-size:99.99px;fill:#000000" text-anchor="middle">20</text>
	<line x1="3795.66" y1="2489.19" x2="3795.66" y2="2529.16" style="stroke:#000000;stroke-width:5.76"/>
	<text x="3795.66" y="2619.14" style="font-family:'Helvetica';font-size:99.99px;fill:#000000" text-anchor="middle">25</text>
	<text x="2124.91" y="2729.16" style="font-family:'Helvetica';font-size:99.99px;fill:#000000" text-anchor="middle">Days since 0.01 confirmed cases per 100 beds</text>
</svg>
