<?xml version="1.0" encoding="UTF-8" standalone="no"?>
<!-- This is a Stata 14.2 generated SVG file (http://www.stata.com) -->

<svg version="1.1" width="5.50in" height="4.00in" viewBox="0 0 3960 2880" xmlns="http://www.w3.org/2000/svg">
	<desc>Stata Graph - Graph</desc>
	<line x1="390.80" y1="1520.69" x2="3859.02" y2="1520.69" style="stroke:#FF0000;stroke-width:8.64"/>
	<path d="M535.59 2425.70 L535.59 2425.70 L617.14 2425.82 L698.69 2425.58 L780.12 2424.71 L861.67 2422.61 L943.10 2418.40 L1024.65 2411.47 L1106.20 2400.70 L1187.63 2385.23 L1269.18 2364.44 L1350.61 2337.59 L1432.16 2304.42 L1513.71 2264.94 L1595.14 2219.65 L1676.69 2168.66 L1758.12 2112.85 L1839.67 2052.33 L1921.22 1987.73 L2002.65 1919.42 L2084.20 1847.52 L2165.63 1772.90 L2247.18 1695.92 L2328.73 1617.59 L2410.16 1539.37 L2491.71 1464.63 L2573.13 1397.43 L2654.68 1337.53 L2736.24 1283.08 L2817.66 1233.21 L2899.22 1187.79 L2980.64 1146.46 L3062.19 1109.08 L3143.74 1075.42 L3225.17 1045.35 L3306.72 1018.49 L3388.15 994.73 L3469.70 973.82 L3551.25 955.50 L3632.68 939.54 L3714.23 925.56 L3795.66 913.67 L3795.66 345.15 L3714.23 393.66 L3632.68 445.14 L3551.25 499.59 L3469.70 557.14 L3388.15 617.66 L3306.72 681.27 L3225.17 747.84 L3143.74 817.15 L3062.19 889.17 L2980.64 963.67 L2899.22 1040.28 L2817.66 1118.73 L2736.24 1198.43 L2654.68 1278.62 L2573.13 1358.07 L2491.71 1434.06 L2410.16 1505.59 L2328.73 1575.63 L2247.18 1646.30 L2165.63 1717.83 L2084.20 1789.60 L2002.65 1860.64 L1921.22 1930.19 L1839.67 1996.77 L1758.12 2059.39 L1676.69 2117.18 L1595.14 2169.41 L1513.71 2215.81 L1432.16 2256.40 L1350.61 2291.30 L1269.18 2321.13 L1187.63 2345.88 L1106.20 2366.30 L1024.65 2382.51 L943.10 2395.26 L861.67 2404.91 L780.12 2412.09 L698.69 2417.04 L617.14 2420.38 L535.59 2422.48 L535.59 2425.70 Z" stroke-linecap="round" style="fill:#EBEBFF;stroke:#E6E6FF;stroke-width:3.00"/>
	<path d="M535.59 2424.83 L535.59 2424.83 L617.14 2424.21 L698.69 2423.10 L780.12 2421.00 L861.67 2417.53 L943.10 2411.72 L1024.65 2403.05 L1106.20 2390.80 L1187.63 2373.97 L1269.18 2351.94 L1350.61 2324.22 L1432.16 2290.56 L1513.71 2250.84 L1595.14 2205.05 L1676.69 2153.81 L1758.12 2097.38 L1839.67 2036.37 L1921.22 1971.15 L2002.65 1902.47 L2084.20 1830.81 L2165.63 1756.93 L2247.18 1681.57 L2328.73 1605.46 L2410.16 1529.60 L2491.71 1455.84 L2573.13 1386.04 L2654.68 1320.45 L2736.24 1258.58 L2817.66 1200.17 L2899.22 1145.22 L2980.64 1093.61 L3062.19 1045.60 L3143.74 1000.92 L3225.17 959.46 L3306.72 921.22 L3388.15 885.95 L3469.70 853.53 L3551.25 823.95 L3632.68 796.85 L3714.23 772.10 L3795.66 749.58 L3795.66 509.25 L3714.23 547.12 L3632.68 587.83 L3551.25 631.14 L3469.70 677.43 L3388.15 726.56 L3306.72 778.66 L3225.17 833.61 L3143.74 891.65 L3062.19 952.66 L2980.64 1016.39 L2899.22 1082.85 L2817.66 1151.78 L2736.24 1222.81 L2654.68 1295.58 L2573.13 1369.46 L2491.71 1442.85 L2410.16 1515.37 L2328.73 1587.76 L2247.18 1660.65 L2165.63 1733.67 L2084.20 1806.31 L2002.65 1877.59 L1921.22 1946.77 L1839.67 2012.86 L1758.12 2074.86 L1676.69 2132.03 L1595.14 2183.88 L1513.71 2230.04 L1432.16 2270.26 L1350.61 2304.67 L1269.18 2333.63 L1187.63 2357.26 L1106.20 2376.20 L1024.65 2390.92 L943.10 2401.94 L861.67 2409.98 L780.12 2415.68 L698.69 2419.51 L617.14 2421.86 L535.59 2423.35 L535.59 2424.83 Z" stroke-linecap="round" style="fill:#D6D6FF;stroke:#CCCCFF;stroke-width:3.00"/>
	<path d="M535.59 2424.59 L535.59 2424.59 L617.14 2423.97 L698.69 2422.73 L780.12 2420.50 L861.67 2416.67 L943.10 2410.73 L1024.65 2401.69 L1106.20 2389.19 L1187.63 2372.11 L1269.18 2349.96 L1350.61 2322.12 L1432.16 2288.33 L1513.71 2248.48 L1595.14 2202.82 L1676.69 2151.46 L1758.12 2094.91 L1839.67 2033.77 L1921.22 1968.43 L2002.65 1899.75 L2084.20 1828.09 L2165.63 1754.46 L2247.18 1679.22 L2328.73 1603.48 L2410.16 1527.99 L2491.71 1454.36 L2573.13 1384.19 L2654.68 1317.73 L2736.24 1254.62 L2817.66 1194.84 L2899.22 1138.29 L2980.64 1085.20 L3062.19 1035.32 L3143.74 988.79 L3225.17 945.60 L3306.72 905.38 L3388.15 868.38 L3469.70 834.10 L3551.25 802.67 L3632.68 773.71 L3714.23 747.23 L3795.66 722.97 L3795.66 535.73 L3714.23 571.99 L3632.68 610.85 L3551.25 652.43 L3469.70 696.86 L3388.15 744.13 L3306.72 794.38 L3225.17 847.59 L3143.74 903.77 L3062.19 962.93 L2980.64 1024.93 L2899.22 1089.78 L2817.66 1157.10 L2736.24 1226.77 L2654.68 1298.43 L2573.13 1371.19 L2491.71 1444.33 L2410.16 1516.97 L2328.73 1589.74 L2247.18 1662.88 L2165.63 1736.27 L2084.20 1809.03 L2002.65 1880.32 L1921.22 1949.49 L1839.67 2015.46 L1758.12 2077.33 L1676.69 2134.38 L1595.14 2186.24 L1513.71 2232.27 L1432.16 2272.49 L1350.61 2306.90 L1269.18 2335.61 L1187.63 2359.12 L1106.20 2377.81 L1024.65 2392.29 L943.10 2403.05 L861.67 2410.85 L780.12 2416.29 L698.69 2419.88 L617.14 2422.23 L535.59 2423.60 L535.59 2424.59 Z" stroke-linecap="round" style="fill:#C2C2FF;stroke:#B3B3FF;stroke-width:3.00"/>
	<path d="M535.59 2424.59 L535.59 2424.59 L617.14 2423.84 L698.69 2422.48 L780.12 2420.01 L861.67 2416.05 L943.10 2409.98 L1024.65 2400.83 L1106.20 2388.08 L1187.63 2370.88 L1269.18 2348.48 L1350.61 2320.63 L1432.16 2286.85 L1513.71 2247.00 L1595.14 2201.21 L1676.69 2149.85 L1758.12 2093.17 L1839.67 2031.91 L1921.22 1966.70 L2002.65 1897.89 L2084.20 1826.24 L2165.63 1752.73 L2247.18 1677.73 L2328.73 1602.12 L2410.16 1527.00 L2491.71 1453.37 L2573.13 1382.95 L2654.68 1315.87 L2736.24 1252.02 L2817.66 1191.25 L2899.22 1133.71 L2980.64 1079.38 L3062.19 1028.39 L3143.74 980.63 L3225.17 936.20 L3306.72 894.86 L3388.15 856.50 L3469.70 820.98 L3551.25 788.31 L3632.68 758.12 L3714.23 730.52 L3795.66 705.15 L3795.66 553.67 L3714.23 588.82 L3632.68 626.44 L3551.25 666.79 L3469.70 709.98 L3388.15 756.01 L3306.72 805.02 L3225.17 856.87 L3143.74 911.82 L3062.19 969.86 L2980.64 1030.75 L2899.22 1094.36 L2817.66 1160.69 L2736.24 1229.49 L2654.68 1300.28 L2573.13 1372.43 L2491.71 1445.32 L2410.16 1517.96 L2328.73 1590.98 L2247.18 1664.49 L2165.63 1738.00 L2084.20 1810.89 L2002.65 1882.17 L1921.22 1951.23 L1839.67 2017.19 L1758.12 2078.94 L1676.69 2136.12 L1595.14 2187.84 L1513.71 2233.88 L1432.16 2273.98 L1350.61 2308.26 L1269.18 2336.97 L1187.63 2360.36 L1106.20 2378.92 L1024.65 2393.15 L943.10 2403.80 L861.67 2411.47 L780.12 2416.67 L698.69 2420.13 L617.14 2422.36 L535.59 2423.72 L535.59 2424.59 Z" stroke-linecap="round" style="fill:#ADADFF;stroke:#9999FF;stroke-width:3.00"/>
	<path d="M535.59 2424.46 L535.59 2424.46 L617.14 2423.72 L698.69 2422.23 L780.12 2419.76 L861.67 2415.68 L943.10 2409.36 L1024.65 2400.08 L1106.20 2387.21 L1187.63 2369.89 L1269.18 2347.49 L1350.61 2319.52 L1432.16 2285.61 L1513.71 2245.76 L1595.14 2199.97 L1676.69 2148.49 L1758.12 2091.94 L1839.67 2030.55 L1921.22 1965.21 L2002.65 1896.40 L2084.20 1824.87 L2165.63 1751.24 L2247.18 1676.49 L2328.73 1601.13 L2410.16 1526.13 L2491.71 1452.62 L2573.13 1381.96 L2654.68 1314.39 L2736.24 1249.91 L2817.66 1188.41 L2899.22 1130.00 L2980.64 1074.80 L3062.19 1022.83 L3143.74 974.19 L3225.17 928.77 L3306.72 886.33 L3388.15 846.97 L3469.70 810.59 L3551.25 776.80 L3632.68 745.74 L3714.23 717.15 L3795.66 690.92 L3795.66 567.91 L3714.23 602.06 L3632.68 638.82 L3551.25 678.17 L3469.70 720.37 L3388.15 765.42 L3306.72 813.43 L3225.17 864.42 L3143.74 918.38 L3062.19 975.30 L2980.64 1035.32 L2899.22 1098.07 L2817.66 1163.53 L2736.24 1231.60 L2654.68 1301.64 L2573.13 1373.42 L2491.71 1446.06 L2410.16 1518.83 L2328.73 1592.09 L2247.18 1665.73 L2165.63 1739.36 L2084.20 1812.25 L2002.65 1883.66 L1921.22 1952.71 L1839.67 2018.55 L1758.12 2080.30 L1676.69 2137.35 L1595.14 2189.08 L1513.71 2235.12 L1432.16 2275.21 L1350.61 2309.49 L1269.18 2338.08 L1187.63 2361.35 L1106.20 2379.79 L1024.65 2393.89 L943.10 2404.41 L861.67 2411.84 L780.12 2417.04 L698.69 2420.38 L617.14 2422.48 L535.59 2423.72 L535.59 2424.46 Z" stroke-linecap="round" style="fill:#9999FF;stroke:#8080FF;stroke-width:3.00"/>
	<path d="M535.59 2424.34 L535.59 2424.34 L617.14 2423.60 L698.69 2422.11 L780.12 2419.51 L861.67 2415.30 L943.10 2408.87 L1024.65 2399.46 L1106.20 2386.47 L1187.63 2369.02 L1269.18 2346.50 L1350.61 2318.53 L1432.16 2284.62 L1513.71 2244.65 L1595.14 2198.86 L1676.69 2147.38 L1758.12 2090.70 L1839.67 2029.44 L1921.22 1963.97 L2002.65 1895.17 L2084.20 1823.64 L2165.63 1750.13 L2247.18 1675.38 L2328.73 1600.26 L2410.16 1525.39 L2491.71 1452.00 L2573.13 1381.09 L2654.68 1313.15 L2736.24 1248.06 L2817.66 1185.93 L2899.22 1126.78 L2980.64 1070.84 L3062.19 1018.12 L3143.74 968.62 L3225.17 922.34 L3306.72 879.15 L3388.15 838.93 L3469.70 801.55 L3551.25 767.03 L3632.68 735.10 L3714.23 705.77 L3795.66 678.67 L3795.66 580.16 L3714.23 613.45 L3632.68 649.46 L3551.25 688.07 L3469.70 729.41 L3388.15 773.59 L3306.72 820.61 L3225.17 870.73 L3143.74 923.95 L3062.19 980.01 L2980.64 1039.16 L2899.22 1101.29 L2817.66 1166.01 L2736.24 1233.33 L2654.68 1303.00 L2573.13 1374.29 L2491.71 1446.68 L2410.16 1519.57 L2328.73 1592.96 L2247.18 1666.84 L2165.63 1740.60 L2084.20 1813.49 L2002.65 1884.90 L1921.22 1953.95 L1839.67 2019.79 L1758.12 2081.42 L1676.69 2138.47 L1595.14 2190.20 L1513.71 2236.11 L1432.16 2276.20 L1350.61 2310.48 L1269.18 2338.95 L1187.63 2362.21 L1106.20 2380.53 L1024.65 2394.51 L943.10 2404.91 L861.67 2412.21 L780.12 2417.28 L698.69 2420.63 L617.14 2422.61 L535.59 2423.84 L535.59 2424.34 Z" stroke-linecap="round" style="fill:#8585FF;stroke:#6666FF;stroke-width:3.00"/>
	<path d="M535.59 2424.34 L535.59 2424.34 L617.14 2423.47 L698.69 2421.86 L780.12 2419.26 L861.67 2414.93 L943.10 2408.37 L1024.65 2398.97 L1106.20 2385.85 L1187.63 2368.28 L1269.18 2345.63 L1350.61 2317.54 L1432.16 2283.63 L1513.71 2243.66 L1595.14 2197.87 L1676.69 2146.39 L1758.12 2089.71 L1839.67 2028.33 L1921.22 1962.86 L2002.65 1893.93 L2084.20 1822.52 L2165.63 1749.01 L2247.18 1674.39 L2328.73 1599.39 L2410.16 1524.77 L2491.71 1451.39 L2573.13 1380.35 L2654.68 1312.04 L2736.24 1246.45 L2817.66 1183.71 L2899.22 1123.93 L2980.64 1067.38 L3062.19 1013.92 L3143.74 963.67 L3225.17 916.64 L3306.72 872.59 L3388.15 831.63 L3469.70 793.51 L3551.25 758.24 L3632.68 725.57 L3714.23 695.50 L3795.66 667.65 L3795.66 591.05 L3714.23 623.72 L3632.68 658.99 L3551.25 696.86 L3469.70 737.45 L3388.15 780.76 L3306.72 827.17 L3225.17 876.55 L3143.74 928.90 L3062.19 984.34 L2980.64 1042.75 L2899.22 1104.13 L2817.66 1168.24 L2736.24 1235.06 L2654.68 1304.12 L2573.13 1375.03 L2491.71 1447.30 L2410.16 1520.19 L2328.73 1593.70 L2247.18 1667.71 L2165.63 1741.59 L2084.20 1814.60 L2002.65 1886.13 L1921.22 1955.06 L1839.67 2020.78 L1758.12 2082.53 L1676.69 2139.46 L1595.14 2191.06 L1513.71 2237.10 L1432.16 2277.19 L1350.61 2311.35 L1269.18 2339.81 L1187.63 2362.96 L1106.20 2381.15 L1024.65 2395.01 L943.10 2405.28 L861.67 2412.58 L780.12 2417.53 L698.69 2420.75 L617.14 2422.73 L535.59 2423.84 L535.59 2424.34 Z" stroke-linecap="round" style="fill:#7171FF;stroke:#4D4DFF;stroke-width:3.00"/>
	<path d="M535.59 2424.21 L535.59 2424.21 L617.14 2423.35 L698.69 2421.74 L780.12 2419.02 L861.67 2414.69 L943.10 2408.00 L1024.65 2398.47 L1106.20 2385.23 L1187.63 2367.54 L1269.18 2344.89 L1350.61 2316.80 L1432.16 2282.76 L1513.71 2242.79 L1595.14 2197.00 L1676.69 2145.52 L1758.12 2088.72 L1839.67 2027.34 L1921.22 1961.87 L2002.65 1892.94 L2084.20 1821.41 L2165.63 1748.02 L2247.18 1673.52 L2328.73 1598.65 L2410.16 1524.15 L2491.71 1450.89 L2573.13 1379.73 L2654.68 1310.92 L2736.24 1244.96 L2817.66 1181.60 L2899.22 1121.33 L2980.64 1064.04 L3062.19 1009.96 L3143.74 959.09 L3225.17 911.32 L3306.72 866.65 L3388.15 824.94 L3469.70 786.08 L3551.25 750.07 L3632.68 716.78 L3714.23 685.97 L3795.66 657.50 L3795.66 601.20 L3714.23 633.25 L3632.68 667.78 L3551.25 705.03 L3469.70 744.87 L3388.15 787.57 L3306.72 833.23 L3225.17 881.87 L3143.74 933.48 L3062.19 988.17 L2980.64 1045.97 L2899.22 1106.73 L2817.66 1170.34 L2736.24 1236.55 L2654.68 1305.11 L2573.13 1375.77 L2491.71 1447.80 L2410.16 1520.81 L2328.73 1594.57 L2247.18 1668.70 L2165.63 1742.58 L2084.20 1815.72 L2002.65 1887.12 L1921.22 1956.05 L1839.67 2021.77 L1758.12 2083.40 L1676.69 2140.32 L1595.14 2192.05 L1513.71 2237.96 L1432.16 2278.06 L1350.61 2312.22 L1269.18 2340.56 L1187.63 2363.70 L1106.20 2381.77 L1024.65 2395.50 L943.10 2405.65 L861.67 2412.83 L780.12 2417.78 L698.69 2420.87 L617.14 2422.85 L535.59 2423.97 L535.59 2424.21 Z" stroke-linecap="round" style="fill:#5C5CFF;stroke:#3333FF;stroke-width:3.00"/>
	<path d="M535.59 2424.21 L535.59 2424.21 L617.14 2423.22 L698.69 2421.62 L780.12 2418.77 L861.67 2414.31 L943.10 2407.63 L1024.65 2397.98 L1106.20 2384.61 L1187.63 2366.92 L1269.18 2344.15 L1350.61 2315.93 L1432.16 2282.02 L1513.71 2242.05 L1595.14 2196.14 L1676.69 2144.65 L1758.12 2087.85 L1839.67 2026.35 L1921.22 1960.88 L2002.65 1891.95 L2084.20 1820.42 L2165.63 1747.16 L2247.18 1672.66 L2328.73 1597.91 L2410.16 1523.53 L2491.71 1450.40 L2573.13 1378.99 L2654.68 1309.93 L2736.24 1243.48 L2817.66 1179.75 L2899.22 1118.86 L2980.64 1060.94 L3062.19 1006.24 L3143.74 954.64 L3225.17 906.25 L3306.72 860.83 L3388.15 818.51 L3469.70 779.03 L3551.25 742.40 L3632.68 708.37 L3714.23 676.93 L3795.66 647.85 L3795.66 610.85 L3714.23 642.28 L3632.68 676.19 L3551.25 712.70 L3469.70 751.93 L3388.15 794.00 L3306.72 838.93 L3225.17 886.82 L3143.74 937.93 L3062.19 991.89 L2980.64 1049.06 L2899.22 1109.21 L2817.66 1172.20 L2736.24 1237.91 L2654.68 1306.10 L2573.13 1376.39 L2491.71 1448.29 L2410.16 1521.43 L2328.73 1595.19 L2247.18 1669.44 L2165.63 1743.57 L2084.20 1816.71 L2002.65 1888.11 L1921.22 1957.04 L1839.67 2022.76 L1758.12 2084.39 L1676.69 2141.19 L1595.14 2192.79 L1513.71 2238.83 L1432.16 2278.80 L1350.61 2312.96 L1269.18 2341.30 L1187.63 2364.32 L1106.20 2382.39 L1024.65 2396.00 L943.10 2406.15 L861.67 2413.20 L780.12 2417.90 L698.69 2421.00 L617.14 2422.85 L535.59 2423.97 L535.59 2424.21 Z" stroke-linecap="round" style="fill:#4747FF;stroke:#1919FF;stroke-width:3.00"/>
	<path d="M535.59 2424.09 L535.59 2424.09 L617.14 2423.22 L698.69 2421.49 L780.12 2418.52 L861.67 2414.07 L943.10 2407.26 L1024.65 2397.48 L1106.20 2383.99 L1187.63 2366.17 L1269.18 2343.40 L1350.61 2315.19 L1432.16 2281.16 L1513.71 2241.18 L1595.14 2195.27 L1676.69 2143.79 L1758.12 2086.99 L1839.67 2025.48 L1921.22 1959.89 L2002.65 1890.96 L2084.20 1819.55 L2165.63 1746.17 L2247.18 1671.91 L2328.73 1597.29 L2410.16 1523.04 L2491.71 1449.90 L2573.13 1378.37 L2654.68 1309.07 L2736.24 1242.12 L2817.66 1177.77 L2899.22 1116.38 L2980.64 1057.97 L3062.19 1002.65 L3143.74 950.43 L3225.17 901.30 L3306.72 855.39 L3388.15 812.32 L3469.70 772.22 L3551.25 734.85 L3632.68 700.32 L3714.23 668.27 L3795.66 638.57 L3795.66 620.25 L3714.23 651.07 L3632.68 684.36 L3551.25 720.12 L3469.70 758.73 L3388.15 800.19 L3306.72 844.50 L3225.17 891.77 L3143.74 942.14 L3062.19 995.60 L2980.64 1052.03 L2899.22 1111.68 L2817.66 1174.05 L2736.24 1239.39 L2654.68 1307.09 L2573.13 1377.13 L2491.71 1448.91 L2410.16 1521.93 L2328.73 1595.93 L2247.18 1670.31 L2165.63 1744.43 L2084.20 1817.57 L2002.65 1889.10 L1921.22 1958.03 L1839.67 2023.62 L1758.12 2085.25 L1676.69 2142.06 L1595.14 2193.66 L1513.71 2239.57 L1432.16 2279.67 L1350.61 2313.70 L1269.18 2342.04 L1187.63 2364.94 L1106.20 2382.88 L1024.65 2396.49 L943.10 2406.52 L861.67 2413.45 L780.12 2418.15 L698.69 2421.12 L617.14 2422.98 L535.59 2424.09 L535.59 2424.09 Z" stroke-linecap="round" style="fill:#3333FF;stroke:#0000FF;stroke-width:3.00"/>
	<circle cx="535.59" cy="2423.97" r="22.03" style="fill:#000000;stroke:#000000;stroke-width:8.64"/>
	<circle cx="617.14" cy="2423.35" r="22.03" style="fill:#000000;stroke:#000000;stroke-width:8.64"/>
	<circle cx="698.57" cy="2422.36" r="22.03" style="fill:#000000;stroke:#000000;stroke-width:8.64"/>
	<circle cx="780.12" cy="2421.24" r="22.03" style="fill:#000000;stroke:#000000;stroke-width:8.64"/>
	<circle cx="861.55" cy="2419.02" r="22.03" style="fill:#000000;stroke:#000000;stroke-width:8.64"/>
	<circle cx="943.10" cy="2416.17" r="22.03" style="fill:#000000;stroke:#000000;stroke-width:8.64"/>
	<circle cx="1024.65" cy="2409.24" r="22.03" style="fill:#000000;stroke:#000000;stroke-width:8.64"/>
	<circle cx="1106.08" cy="2399.96" r="22.03" style="fill:#000000;stroke:#000000;stroke-width:8.64"/>
	<circle cx="1187.63" cy="2386.59" r="22.03" style="fill:#000000;stroke:#000000;stroke-width:8.64"/>
	<circle cx="1269.06" cy="2361.60" r="22.03" style="fill:#000000;stroke:#000000;stroke-width:8.64"/>
	<circle cx="1350.61" cy="2327.56" r="22.03" style="fill:#000000;stroke:#000000;stroke-width:8.64"/>
	<circle cx="1432.16" cy="2273.23" r="22.03" style="fill:#000000;stroke:#000000;stroke-width:8.64"/>
	<circle cx="1513.59" cy="2235.12" r="22.03" style="fill:#000000;stroke:#000000;stroke-width:8.64"/>
	<circle cx="1595.14" cy="2196.75" r="22.03" style="fill:#000000;stroke:#000000;stroke-width:8.64"/>
	<circle cx="1676.57" cy="2116.44" r="22.03" style="fill:#000000;stroke:#000000;stroke-width:8.64"/>
	<circle cx="1758.12" cy="2046.52" r="22.03" style="fill:#000000;stroke:#000000;stroke-width:8.64"/>
	<circle cx="1839.67" cy="1998.13" r="22.03" style="fill:#000000;stroke:#000000;stroke-width:8.64"/>
	<circle cx="1921.10" cy="1959.39" r="22.03" style="fill:#000000;stroke:#000000;stroke-width:8.64"/>
	<circle cx="2002.65" cy="1902.10" r="22.03" style="fill:#000000;stroke:#000000;stroke-width:8.64"/>
	<circle cx="2084.07" cy="1839.85" r="22.03" style="fill:#000000;stroke:#000000;stroke-width:8.64"/>
	<circle cx="2165.63" cy="1769.93" r="22.03" style="fill:#000000;stroke:#000000;stroke-width:8.64"/>
	<circle cx="2247.18" cy="1686.15" r="22.03" style="fill:#000000;stroke:#000000;stroke-width:8.64"/>
	<circle cx="2328.60" cy="1597.29" r="22.03" style="fill:#000000;stroke:#000000;stroke-width:8.64"/>
	<circle cx="2410.16" cy="1518.71" r="22.03" style="fill:#000000;stroke:#000000;stroke-width:8.64"/>
	<circle cx="2491.58" cy="1450.27" r="22.03" style="fill:#000000;stroke:#000000;stroke-width:8.64"/>
	<circle cx="2573.13" cy="1373.67" r="22.03" style="fill:#000000;stroke:#000000;stroke-width:8.64"/>
	<circle cx="2654.68" cy="1296.07" r="22.03" style="fill:#000000;stroke:#000000;stroke-width:8.64"/>
	<line x1="390.80" y1="2489.19" x2="390.80" y2="100.86" style="stroke:#000000;stroke-width:5.76"/>
	<line x1="390.80" y1="2425.08" x2="350.83" y2="2425.08" style="stroke:#000000;stroke-width:5.76"/>
	<text x="300.72" y="2425.08" style="font-family:'Helvetica';font-size:99.99px;fill:#000000" transform="rotate(-90 300.72,2425.08)" text-anchor="middle">0</text>
	<line x1="390.80" y1="1972.88" x2="350.83" y2="1972.88" style="stroke:#000000;stroke-width:5.76"/>
	<text x="300.72" y="1972.88" style="font-family:'Helvetica';font-size:99.99px;fill:#000000" transform="rotate(-90 300.72,1972.88)" text-anchor="middle">5</text>
	<line x1="390.80" y1="1520.69" x2="350.83" y2="1520.69" style="stroke:#000000;stroke-width:5.76"/>
	<text x="300.72" y="1520.69" style="font-family:'Helvetica';font-size:99.99px;fill:#000000" transform="rotate(-90 300.72,1520.69)" text-anchor="middle">10</text>
	<line x1="390.80" y1="1068.49" x2="350.83" y2="1068.49" style="stroke:#000000;stroke-width:5.76"/>
	<text x="300.72" y="1068.49" style="font-family:'Helvetica';font-size:99.99px;fill:#000000" transform="rotate(-90 300.72,1068.49)" text-anchor="middle">15</text>
	<line x1="390.80" y1="616.29" x2="350.83" y2="616.29" style="stroke:#000000;stroke-width:5.76"/>
	<text x="300.72" y="616.29" style="font-family:'Helvetica';font-size:99.99px;fill:#000000" transform="rotate(-90 300.72,616.29)" text-anchor="middle">20</text>
	<line x1="390.80" y1="164.22" x2="350.83" y2="164.22" style="stroke:#000000;stroke-width:5.76"/>
	<text x="300.72" y="164.22" style="font-family:'Helvetica';font-size:99.99px;fill:#000000" transform="rotate(-90 300.72,164.22)" text-anchor="middle">25</text>
	<text x="190.71" y="1294.96" style="font-family:'Helvetica';font-size:99.99px;fill:#000000" transform="rotate(-90 190.71,1294.96)" text-anchor="middle">Confirmed cases per 100 beds</text>
	<line x1="390.80" y1="2489.19" x2="3859.02" y2="2489.19" style="stroke:#000000;stroke-width:5.76"/>
	<line x1="454.16" y1="2489.19" x2="454.16" y2="2529.16" style="stroke:#000000;stroke-width:5.76"/>
	<text x="454.16" y="2619.14" style="font-family:'Helvetica';font-size:99.99px;fill:#000000" text-anchor="middle">0</text>
	<line x1="1269.18" y1="2489.19" x2="1269.18" y2="2529.16" style="stroke:#000000;stroke-width:5.76"/>
	<text x="1269.18" y="2619.14" style="font-family:'Helvetica';font-size:99.99px;fill:#000000" text-anchor="middle">10</text>
	<line x1="2084.20" y1="2489.19" x2="2084.20" y2="2529.16" style="stroke:#000000;stroke-width:5.76"/>
	<text x="2084.20" y="2619.14" style="font-family:'Helvetica';font-size:99.99px;fill:#000000" text-anchor="middle">20</text>
	<line x1="2899.22" y1="2489.19" x2="2899.22" y2="2529.16" style="stroke:#000000;stroke-width:5.76"/>
	<text x="2899.22" y="2619.14" style="font-family:'Helvetica';font-size:99.99px;fill:#000000" text-anchor="middle">30</text>
	<line x1="3714.23" y1="2489.19" x2="3714.23" y2="2529.16" style="stroke:#000000;stroke-width:5.76"/>
	<text x="3714.23" y="2619.14" style="font-family:'Helvetica';font-size:99.99px;fill:#000000" text-anchor="middle">40</text>
	<text x="2124.91" y="2729.16" style="font-family:'Helvetica';font-size:99.99px;fill:#000000" text-anchor="middle">Days since 0.01 confirmed cases per 100 beds</text>
</svg>
