<?xml version="1.0" encoding="UTF-8" standalone="no"?>
<!-- This is a Stata 14.2 generated SVG file (http://www.stata.com) -->

<svg version="1.1" width="5.50in" height="4.00in" viewBox="0 0 3960 2880" xmlns="http://www.w3.org/2000/svg">
	<desc>Stata Graph - Graph</desc>
	<line x1="390.80" y1="1688.50" x2="3859.02" y2="1688.50" style="stroke:#FF0000;stroke-width:8.64"/>
	<path d="M537.69 2354.29 L537.69 2354.29 L621.23 2350.33 L704.76 2345.51 L788.29 2339.69 L871.82 2333.13 L955.35 2325.71 L1038.88 2317.66 L1122.41 2309.37 L1205.94 2300.58 L1289.47 2290.93 L1373.13 2280.17 L1456.66 2267.79 L1540.19 2253.31 L1623.72 2236.36 L1707.26 2216.56 L1790.79 2193.54 L1874.32 2167.67 L1957.85 2140.57 L2041.38 2115.57 L2124.91 2095.40 L2208.44 2080.06 L2291.97 2069.16 L2375.51 2062.85 L2459.04 2061.86 L2542.57 2066.81 L2626.22 2078.57 L2709.75 2098.00 L2793.28 2125.97 L2876.82 2163.34 L2960.35 2211.23 L3043.88 2270.26 L3127.41 2341.55 L3210.94 2425.82 L3210.94 404.43 L3127.41 620.38 L3043.88 818.01 L2960.35 998.20 L2876.82 1161.55 L2793.28 1309.07 L2709.75 1441.73 L2626.22 1560.29 L2542.57 1665.73 L2459.04 1758.91 L2375.51 1840.84 L2291.97 1912.24 L2208.44 1973.75 L2124.91 2025.85 L2041.38 2068.05 L1957.85 2100.72 L1874.32 2126.59 L1790.79 2149.48 L1707.26 2170.89 L1623.72 2191.43 L1540.19 2210.99 L1456.66 2229.55 L1373.13 2246.63 L1289.47 2262.34 L1205.94 2276.20 L1122.41 2288.21 L1038.88 2298.11 L955.35 2306.15 L871.82 2312.59 L788.29 2318.03 L704.76 2322.74 L621.23 2326.70 L537.69 2330.29 L537.69 2354.29 Z" stroke-linecap="round" style="fill:#EBEBFF;stroke:#E6E6FF;stroke-width:3.00"/>
	<path d="M537.69 2347.36 L537.69 2347.36 L621.23 2343.53 L704.76 2338.95 L788.29 2333.50 L871.82 2327.19 L955.35 2320.01 L1038.88 2312.09 L1122.41 2303.18 L1205.94 2293.53 L1289.47 2282.64 L1373.13 2270.51 L1456.66 2256.78 L1540.19 2241.06 L1623.72 2223.36 L1707.26 2203.31 L1790.79 2180.79 L1874.32 2155.92 L1957.85 2129.06 L2041.38 2101.84 L2124.91 2075.35 L2208.44 2049.36 L2291.97 2023.87 L2375.51 1998.87 L2459.04 1974.49 L2542.57 1951.10 L2626.22 1929.08 L2709.75 1908.66 L2793.28 1890.22 L2876.82 1874.25 L2960.35 1861.13 L3043.88 1851.11 L3127.41 1844.80 L3210.94 1842.45 L3210.94 987.93 L3127.41 1117.13 L3043.88 1237.17 L2960.35 1348.30 L2876.82 1450.64 L2793.28 1544.82 L2709.75 1631.08 L2626.22 1709.91 L2542.57 1781.44 L2459.04 1846.41 L2375.51 1904.94 L2291.97 1957.54 L2208.44 2004.44 L2124.91 2045.90 L2041.38 2081.79 L1957.85 2112.23 L1874.32 2138.47 L1790.79 2162.23 L1707.26 2184.01 L1623.72 2204.43 L1540.19 2223.24 L1456.66 2240.56 L1373.13 2256.40 L1289.47 2270.64 L1205.94 2283.26 L1122.41 2294.27 L1038.88 2303.80 L955.35 2311.72 L871.82 2318.53 L788.29 2324.35 L704.76 2329.30 L621.23 2333.50 L537.69 2337.22 L537.69 2347.36 Z" stroke-linecap="round" style="fill:#D6D6FF;stroke:#CCCCFF;stroke-width:3.00"/>
	<path d="M537.69 2346.25 L537.69 2346.25 L621.23 2342.41 L704.76 2337.83 L788.29 2332.51 L871.82 2326.20 L955.35 2319.15 L1038.88 2311.10 L1122.41 2302.19 L1205.94 2292.42 L1289.47 2281.40 L1373.13 2268.90 L1456.66 2254.92 L1540.19 2239.08 L1623.72 2221.26 L1707.26 2201.21 L1790.79 2178.81 L1874.32 2153.94 L1957.85 2127.21 L2041.38 2099.61 L2124.91 2072.01 L2208.44 2044.41 L2291.97 2016.57 L2375.51 1988.48 L2459.04 1960.26 L2542.57 1932.42 L2626.22 1904.82 L2709.75 1877.96 L2793.28 1852.10 L2876.82 1827.47 L2960.35 1804.46 L3043.88 1783.29 L3127.41 1764.48 L3210.94 1748.02 L3210.94 1082.23 L3127.41 1197.57 L3043.88 1304.98 L2960.35 1404.85 L2876.82 1497.42 L2793.28 1583.06 L2709.75 1661.77 L2626.22 1734.04 L2542.57 1800.25 L2459.04 1860.52 L2375.51 1915.34 L2291.97 1964.84 L2208.44 2009.39 L2124.91 2049.12 L2041.38 2084.02 L1957.85 2114.09 L1874.32 2140.45 L1790.79 2164.21 L1707.26 2186.24 L1623.72 2206.53 L1540.19 2225.22 L1456.66 2242.30 L1373.13 2257.89 L1289.47 2271.87 L1205.94 2284.37 L1122.41 2295.26 L1038.88 2304.67 L955.35 2312.71 L871.82 2319.52 L788.29 2325.34 L704.76 2330.29 L621.23 2334.62 L537.69 2338.33 L537.69 2346.25 Z" stroke-linecap="round" style="fill:#C2C2FF;stroke:#B3B3FF;stroke-width:3.00"/>
	<path d="M537.69 2345.51 L537.69 2345.51 L621.23 2341.67 L704.76 2337.09 L788.29 2331.77 L871.82 2325.58 L955.35 2318.53 L1038.88 2310.48 L1122.41 2301.57 L1205.94 2291.67 L1289.47 2280.41 L1373.13 2267.91 L1456.66 2253.68 L1540.19 2237.84 L1623.72 2219.90 L1707.26 2199.72 L1790.79 2177.33 L1874.32 2152.70 L1957.85 2125.97 L2041.38 2098.12 L2124.91 2069.91 L2208.44 2041.07 L2291.97 2011.62 L2375.51 1981.42 L2459.04 1950.73 L2542.57 1919.67 L2626.22 1888.48 L2709.75 1857.30 L2793.28 1826.36 L2876.82 1795.92 L2960.35 1766.22 L3043.88 1737.63 L3127.41 1710.28 L3210.94 1684.41 L3210.94 1145.96 L3127.41 1251.77 L3043.88 1350.77 L2960.35 1443.09 L2876.82 1528.98 L2793.28 1608.68 L2709.75 1682.43 L2626.22 1750.37 L2542.57 1812.87 L2459.04 1870.04 L2375.51 1922.27 L2291.97 1969.79 L2208.44 2012.73 L2124.91 2051.34 L2041.38 2085.50 L1957.85 2115.32 L1874.32 2141.68 L1790.79 2165.57 L1707.26 2187.60 L1623.72 2207.89 L1540.19 2226.58 L1456.66 2243.53 L1373.13 2259.00 L1289.47 2272.86 L1205.94 2285.12 L1122.41 2295.88 L1038.88 2305.29 L955.35 2313.33 L871.82 2320.14 L788.29 2325.95 L704.76 2331.03 L621.23 2335.36 L537.69 2339.07 L537.69 2345.51 Z" stroke-linecap="round" style="fill:#ADADFF;stroke:#9999FF;stroke-width:3.00"/>
	<path d="M537.69 2344.89 L537.69 2344.89 L621.23 2341.05 L704.76 2336.60 L788.29 2331.28 L871.82 2325.09 L955.35 2318.03 L1038.88 2309.99 L1122.41 2301.08 L1205.94 2291.06 L1289.47 2279.79 L1373.13 2267.05 L1456.66 2252.82 L1540.19 2236.73 L1623.72 2218.78 L1707.26 2198.61 L1790.79 2176.34 L1874.32 2151.58 L1957.85 2124.98 L2041.38 2097.01 L2124.91 2068.17 L2208.44 2038.35 L2291.97 2007.66 L2375.51 1975.85 L2459.04 1943.18 L2542.57 1909.65 L2626.22 1875.49 L2709.75 1840.84 L2793.28 1805.94 L2876.82 1770.79 L2960.35 1735.90 L3043.88 1701.24 L3127.41 1667.09 L3210.94 1633.80 L3210.94 1196.58 L3127.41 1294.84 L3043.88 1387.03 L2960.35 1473.41 L2876.82 1554.10 L2793.28 1629.22 L2709.75 1698.89 L2626.22 1763.37 L2542.57 1822.89 L2459.04 1877.72 L2375.51 1927.84 L2291.97 1973.75 L2208.44 2015.46 L2124.91 2053.08 L2041.38 2086.74 L1957.85 2116.31 L1874.32 2142.80 L1790.79 2166.68 L1707.26 2188.71 L1623.72 2209.01 L1540.19 2227.57 L1456.66 2244.52 L1373.13 2259.75 L1289.47 2273.48 L1205.94 2285.73 L1122.41 2296.50 L1038.88 2305.78 L955.35 2313.83 L871.82 2320.63 L788.29 2326.57 L704.76 2331.65 L621.23 2335.98 L537.69 2339.69 L537.69 2344.89 Z" stroke-linecap="round" style="fill:#9999FF;stroke:#8080FF;stroke-width:3.00"/>
	<path d="M537.69 2344.39 L537.69 2344.39 L621.23 2340.56 L704.76 2336.10 L788.29 2330.78 L871.82 2324.59 L955.35 2317.54 L1038.88 2309.62 L1122.41 2300.58 L1205.94 2290.44 L1289.47 2279.17 L1373.13 2266.30 L1456.66 2251.95 L1540.19 2235.86 L1623.72 2217.79 L1707.26 2197.62 L1790.79 2175.35 L1874.32 2150.72 L1957.85 2124.11 L2041.38 2095.90 L2124.91 2066.69 L2208.44 2036.12 L2291.97 2004.32 L2375.51 1971.15 L2459.04 1936.75 L2542.57 1901.11 L2626.22 1864.35 L2709.75 1826.73 L2793.28 1788.37 L2876.82 1749.26 L2960.35 1709.78 L3043.88 1670.06 L3127.41 1630.21 L3210.94 1590.36 L3210.94 1239.89 L3127.41 1331.84 L3043.88 1418.34 L2960.35 1499.53 L2876.82 1575.63 L2793.28 1646.67 L2709.75 1713.00 L2626.22 1774.51 L2542.57 1831.56 L2459.04 1884.15 L2375.51 1932.66 L2291.97 1977.09 L2208.44 2017.68 L2124.91 2054.56 L2041.38 2087.73 L1957.85 2117.18 L1874.32 2143.66 L1790.79 2167.67 L1707.26 2189.70 L1623.72 2210.00 L1540.19 2228.56 L1456.66 2245.27 L1373.13 2260.49 L1289.47 2274.10 L1205.94 2286.23 L1122.41 2296.87 L1038.88 2306.15 L955.35 2314.20 L871.82 2321.13 L788.29 2327.07 L704.76 2332.14 L621.23 2336.47 L537.69 2340.19 L537.69 2344.39 Z" stroke-linecap="round" style="fill:#8585FF;stroke:#6666FF;stroke-width:3.00"/>
	<path d="M537.69 2343.90 L537.69 2343.90 L621.23 2340.06 L704.76 2335.61 L788.29 2330.41 L871.82 2324.22 L955.35 2317.17 L1038.88 2309.25 L1122.41 2300.21 L1205.94 2290.07 L1289.47 2278.56 L1373.13 2265.69 L1456.66 2251.21 L1540.19 2234.99 L1623.72 2216.93 L1707.26 2196.75 L1790.79 2174.48 L1874.32 2149.98 L1957.85 2123.37 L2041.38 2095.03 L2124.91 2065.33 L2208.44 2034.02 L2291.97 2001.22 L2375.51 1966.82 L2459.04 1930.81 L2542.57 1893.31 L2626.22 1854.33 L2709.75 1814.11 L2793.28 1772.53 L2876.82 1729.96 L2960.35 1686.39 L3043.88 1642.09 L3127.41 1596.92 L3210.94 1551.38 L3210.94 1278.87 L3127.41 1365.01 L3043.88 1446.31 L2960.35 1522.92 L2876.82 1594.94 L2793.28 1662.51 L2709.75 1725.62 L2626.22 1784.53 L2542.57 1839.23 L2459.04 1889.97 L2375.51 1936.87 L2291.97 1980.06 L2208.44 2019.79 L2124.91 2055.92 L2041.38 2088.59 L1957.85 2117.92 L1874.32 2144.41 L1790.79 2168.54 L1707.26 2190.57 L1623.72 2210.86 L1540.19 2229.30 L1456.66 2246.01 L1373.13 2261.23 L1289.47 2274.72 L1205.94 2286.72 L1122.41 2297.37 L1038.88 2306.52 L955.35 2314.57 L871.82 2321.50 L788.29 2327.44 L704.76 2332.51 L621.23 2336.97 L537.69 2340.68 L537.69 2343.90 Z" stroke-linecap="round" style="fill:#7171FF;stroke:#4D4DFF;stroke-width:3.00"/>
	<path d="M537.69 2343.53 L537.69 2343.53 L621.23 2339.69 L704.76 2335.24 L788.29 2329.91 L871.82 2323.85 L955.35 2316.92 L1038.88 2308.88 L1122.41 2299.84 L1205.94 2289.57 L1289.47 2278.06 L1373.13 2265.07 L1456.66 2250.59 L1540.19 2234.25 L1623.72 2216.06 L1707.26 2196.01 L1790.79 2173.74 L1874.32 2149.23 L1957.85 2122.63 L2041.38 2094.16 L2124.91 2064.09 L2208.44 2032.16 L2291.97 1998.50 L2375.51 1962.86 L2459.04 1925.49 L2542.57 1886.13 L2626.22 1845.17 L2709.75 1802.35 L2793.28 1758.05 L2876.82 1712.13 L2960.35 1664.74 L3043.88 1616.10 L3127.41 1566.23 L3210.94 1515.24 L3210.94 1315.01 L3127.41 1395.70 L3043.88 1472.30 L2960.35 1544.57 L2876.82 1612.88 L2793.28 1677.11 L2709.75 1737.38 L2626.22 1793.81 L2542.57 1846.41 L2459.04 1895.41 L2375.51 1940.83 L2291.97 1982.91 L2208.44 2021.64 L2124.91 2057.16 L2041.38 2089.46 L1957.85 2118.67 L1874.32 2145.15 L1790.79 2169.28 L1707.26 2191.43 L1623.72 2211.61 L1540.19 2230.04 L1456.66 2246.75 L1373.13 2261.73 L1289.47 2275.21 L1205.94 2287.22 L1122.41 2297.74 L1038.88 2306.90 L955.35 2314.94 L871.82 2321.87 L788.29 2327.81 L704.76 2333.01 L621.23 2337.34 L537.69 2341.05 L537.69 2343.53 Z" stroke-linecap="round" style="fill:#5C5CFF;stroke:#3333FF;stroke-width:3.00"/>
	<path d="M537.69 2343.03 L537.69 2343.03 L621.23 2339.32 L704.76 2334.86 L788.29 2329.54 L871.82 2323.48 L955.35 2316.55 L1038.88 2308.50 L1122.41 2299.47 L1205.94 2289.20 L1289.47 2277.57 L1373.13 2264.57 L1456.66 2249.85 L1540.19 2233.51 L1623.72 2215.32 L1707.26 2195.15 L1790.79 2172.99 L1874.32 2148.49 L1957.85 2122.01 L2041.38 2093.42 L2124.91 2062.85 L2208.44 2030.43 L2291.97 1995.78 L2375.51 1959.15 L2459.04 1920.29 L2542.57 1879.33 L2626.22 1836.26 L2709.75 1791.21 L2793.28 1744.19 L2876.82 1695.06 L2960.35 1644.19 L3043.88 1591.47 L3127.41 1537.02 L3210.94 1480.96 L3210.94 1349.29 L3127.41 1424.90 L3043.88 1496.93 L2960.35 1565.12 L2876.82 1629.84 L2793.28 1690.97 L2709.75 1748.52 L2626.22 1802.60 L2542.57 1853.21 L2459.04 1900.61 L2375.51 1944.67 L2291.97 1985.63 L2208.44 2023.50 L2124.91 2058.27 L2041.38 2090.33 L1957.85 2119.41 L1874.32 2145.89 L1790.79 2170.02 L1707.26 2192.18 L1623.72 2212.47 L1540.19 2230.79 L1456.66 2247.37 L1373.13 2262.34 L1289.47 2275.71 L1205.94 2287.59 L1122.41 2298.11 L1038.88 2307.27 L955.35 2315.31 L871.82 2322.24 L788.29 2328.18 L704.76 2333.38 L621.23 2337.71 L537.69 2341.55 L537.69 2343.03 Z" stroke-linecap="round" style="fill:#4747FF;stroke:#1919FF;stroke-width:3.00"/>
	<path d="M537.69 2342.66 L537.69 2342.66 L621.23 2338.95 L704.76 2334.49 L788.29 2329.30 L871.82 2323.23 L955.35 2316.18 L1038.88 2308.26 L1122.41 2299.10 L1205.94 2288.83 L1289.47 2277.07 L1373.13 2263.95 L1456.66 2249.23 L1540.19 2232.89 L1623.72 2214.58 L1707.26 2194.40 L1790.79 2172.25 L1874.32 2147.87 L1957.85 2121.27 L2041.38 2092.55 L2124.91 2061.74 L2208.44 2028.57 L2291.97 1993.18 L2375.51 1955.43 L2459.04 1915.34 L2542.57 1872.77 L2626.22 1827.84 L2709.75 1780.45 L2793.28 1730.70 L2876.82 1678.60 L2960.35 1624.27 L3043.88 1567.59 L3127.41 1508.81 L3210.94 1447.80 L3210.94 1382.58 L3127.41 1453.24 L3043.88 1520.69 L2960.35 1585.04 L2876.82 1646.30 L2793.28 1704.34 L2709.75 1759.28 L2626.22 1811.01 L2542.57 1859.77 L2459.04 1905.56 L2375.51 1948.26 L2291.97 1988.11 L2208.44 2025.23 L2124.91 2059.51 L2041.38 2091.07 L1957.85 2120.03 L1874.32 2146.51 L1790.79 2170.77 L1707.26 2192.92 L1623.72 2213.21 L1540.19 2231.53 L1456.66 2247.99 L1373.13 2262.84 L1289.47 2276.20 L1205.94 2287.96 L1122.41 2298.48 L1038.88 2307.64 L955.35 2315.56 L871.82 2322.49 L788.29 2328.55 L704.76 2333.75 L621.23 2338.08 L537.69 2341.92 L537.69 2342.66 Z" stroke-linecap="round" style="fill:#3333FF;stroke:#0000FF;stroke-width:3.00"/>
	<circle cx="537.57" cy="2349.71" r="22.03" style="fill:#000000;stroke:#000000;stroke-width:8.64"/>
	<circle cx="621.10" cy="2348.11" r="22.03" style="fill:#000000;stroke:#000000;stroke-width:8.64"/>
	<circle cx="704.76" cy="2338.33" r="22.03" style="fill:#000000;stroke:#000000;stroke-width:8.64"/>
	<circle cx="788.29" cy="2328.55" r="22.03" style="fill:#000000;stroke:#000000;stroke-width:8.64"/>
	<circle cx="871.82" cy="2325.34" r="22.03" style="fill:#000000;stroke:#000000;stroke-width:8.64"/>
	<circle cx="955.35" cy="2317.17" r="22.03" style="fill:#000000;stroke:#000000;stroke-width:8.64"/>
	<circle cx="1038.88" cy="2309.00" r="22.03" style="fill:#000000;stroke:#000000;stroke-width:8.64"/>
	<circle cx="1122.41" cy="2297.49" r="22.03" style="fill:#000000;stroke:#000000;stroke-width:8.64"/>
	<circle cx="1205.94" cy="2271.38" r="22.03" style="fill:#000000;stroke:#000000;stroke-width:8.64"/>
	<circle cx="1289.47" cy="2259.99" r="22.03" style="fill:#000000;stroke:#000000;stroke-width:8.64"/>
	<circle cx="1373.01" cy="2259.99" r="22.03" style="fill:#000000;stroke:#000000;stroke-width:8.64"/>
	<circle cx="1456.54" cy="2245.27" r="22.03" style="fill:#000000;stroke:#000000;stroke-width:8.64"/>
	<circle cx="1540.07" cy="2238.83" r="22.03" style="fill:#000000;stroke:#000000;stroke-width:8.64"/>
	<circle cx="1623.60" cy="2220.89" r="22.03" style="fill:#000000;stroke:#000000;stroke-width:8.64"/>
	<circle cx="1707.13" cy="2220.89" r="22.03" style="fill:#000000;stroke:#000000;stroke-width:8.64"/>
	<circle cx="1790.66" cy="2157.15" r="22.03" style="fill:#000000;stroke:#000000;stroke-width:8.64"/>
	<circle cx="1874.19" cy="2157.15" r="22.03" style="fill:#000000;stroke:#000000;stroke-width:8.64"/>
	<circle cx="1957.85" cy="2108.27" r="22.03" style="fill:#000000;stroke:#000000;stroke-width:8.64"/>
	<circle cx="2041.38" cy="2091.94" r="22.03" style="fill:#000000;stroke:#000000;stroke-width:8.64"/>
	<line x1="390.80" y1="2489.19" x2="390.80" y2="100.86" style="stroke:#000000;stroke-width:5.76"/>
	<line x1="390.80" y1="2359.49" x2="350.83" y2="2359.49" style="stroke:#000000;stroke-width:5.76"/>
	<text x="300.72" y="2359.49" style="font-family:'Helvetica';font-size:99.99px;fill:#000000" transform="rotate(-90 300.72,2359.49)" text-anchor="middle">0</text>
	<line x1="390.80" y1="1920.41" x2="350.83" y2="1920.41" style="stroke:#000000;stroke-width:5.76"/>
	<text x="300.72" y="1920.41" style="font-family:'Helvetica';font-size:99.99px;fill:#000000" transform="rotate(-90 300.72,1920.41)" text-anchor="middle">.5</text>
	<line x1="390.80" y1="1481.33" x2="350.83" y2="1481.33" style="stroke:#000000;stroke-width:5.76"/>
	<text x="300.72" y="1481.33" style="font-family:'Helvetica';font-size:99.99px;fill:#000000" transform="rotate(-90 300.72,1481.33)" text-anchor="middle">1</text>
	<line x1="390.80" y1="1042.26" x2="350.83" y2="1042.26" style="stroke:#000000;stroke-width:5.76"/>
	<text x="300.72" y="1042.26" style="font-family:'Helvetica';font-size:99.99px;fill:#000000" transform="rotate(-90 300.72,1042.26)" text-anchor="middle">1.5</text>
	<line x1="390.80" y1="603.18" x2="350.83" y2="603.18" style="stroke:#000000;stroke-width:5.76"/>
	<text x="300.72" y="603.18" style="font-family:'Helvetica';font-size:99.99px;fill:#000000" transform="rotate(-90 300.72,603.18)" text-anchor="middle">2</text>
	<line x1="390.80" y1="164.22" x2="350.83" y2="164.22" style="stroke:#000000;stroke-width:5.76"/>
	<text x="300.72" y="164.22" style="font-family:'Helvetica';font-size:99.99px;fill:#000000" transform="rotate(-90 300.72,164.22)" text-anchor="middle">2.5</text>
	<text x="190.71" y="1294.96" style="font-family:'Helvetica';font-size:99.99px;fill:#000000" transform="rotate(-90 190.71,1294.96)" text-anchor="middle">Confirmed cases per 100 beds</text>
	<line x1="390.80" y1="2489.19" x2="3859.02" y2="2489.19" style="stroke:#000000;stroke-width:5.76"/>
	<line x1="454.16" y1="2489.19" x2="454.16" y2="2529.16" style="stroke:#000000;stroke-width:5.76"/>
	<text x="454.16" y="2619.14" style="font-family:'Helvetica';font-size:99.99px;fill:#000000" text-anchor="middle">0</text>
	<line x1="1289.47" y1="2489.19" x2="1289.47" y2="2529.16" style="stroke:#000000;stroke-width:5.76"/>
	<text x="1289.47" y="2619.14" style="font-family:'Helvetica';font-size:99.99px;fill:#000000" text-anchor="middle">10</text>
	<line x1="2124.91" y1="2489.19" x2="2124.91" y2="2529.16" style="stroke:#000000;stroke-width:5.76"/>
	<text x="2124.91" y="2619.14" style="font-family:'Helvetica';font-size:99.99px;fill:#000000" text-anchor="middle">20</text>
	<line x1="2960.35" y1="2489.19" x2="2960.35" y2="2529.16" style="stroke:#000000;stroke-width:5.76"/>
	<text x="2960.35" y="2619.14" style="font-family:'Helvetica';font-size:99.99px;fill:#000000" text-anchor="middle">30</text>
	<line x1="3795.66" y1="2489.19" x2="3795.66" y2="2529.16" style="stroke:#000000;stroke-width:5.76"/>
	<text x="3795.66" y="2619.14" style="font-family:'Helvetica';font-size:99.99px;fill:#000000" text-anchor="middle">40</text>
	<text x="2124.91" y="2729.16" style="font-family:'Helvetica';font-size:99.99px;fill:#000000" text-anchor="middle">Days since 0.01 confirmed cases per 100 beds</text>
</svg>
