<?xml version="1.0" encoding="UTF-8" standalone="no"?>
<!-- This is a Stata 14.2 generated SVG file (http://www.stata.com) -->

<svg version="1.1" width="5.50in" height="4.00in" viewBox="0 0 3960 2880" xmlns="http://www.w3.org/2000/svg">
	<desc>Stata Graph - Graph</desc>
	<line x1="390.80" y1="2048.87" x2="3859.02" y2="2048.87" style="stroke:#FF0000;stroke-width:8.64"/>
	<path d="M565.54 2425.82 L565.54 2425.82 L676.91 2425.58 L788.29 2425.20 L899.66 2424.46 L1011.04 2423.22 L1122.41 2421.24 L1233.79 2418.52 L1345.29 2414.69 L1456.66 2409.49 L1568.04 2402.68 L1679.41 2394.02 L1790.79 2383.25 L1902.16 2369.76 L2013.54 2353.06 L2124.91 2333.38 L2236.29 2311.47 L2347.66 2287.47 L2459.04 2261.60 L2570.53 2234.75 L2681.91 2207.65 L2793.28 2181.66 L2904.66 2157.90 L3016.03 2138.34 L3127.41 2124.61 L3238.78 2118.79 L3350.16 2123.25 L3461.53 2140.08 L3572.91 2172.00 L3684.28 2221.26 L3684.28 401.09 L3572.91 714.18 L3461.53 989.41 L3350.16 1229.37 L3238.78 1436.78 L3127.41 1614.62 L3016.03 1765.60 L2904.66 1892.69 L2793.28 1998.62 L2681.91 2086.00 L2570.53 2157.52 L2459.04 2215.32 L2347.66 2261.73 L2236.29 2298.48 L2124.91 2327.32 L2013.54 2349.59 L1902.16 2366.92 L1790.79 2380.78 L1679.41 2391.79 L1568.04 2400.21 L1456.66 2406.52 L1345.29 2411.34 L1233.79 2415.06 L1122.41 2417.78 L1011.04 2419.88 L899.66 2421.49 L788.29 2422.73 L676.91 2423.60 L565.54 2424.34 L565.54 2425.82 Z" stroke-linecap="round" style="fill:#EBEBFF;stroke:#E6E6FF;stroke-width:3.00"/>
	<path d="M565.54 2425.45 L565.54 2425.45 L676.91 2425.08 L788.29 2424.46 L899.66 2423.60 L1011.04 2422.23 L1122.41 2420.25 L1233.79 2417.53 L1345.29 2413.70 L1456.66 2408.62 L1568.04 2401.94 L1679.41 2393.40 L1790.79 2382.51 L1902.16 2368.90 L2013.54 2352.07 L2124.91 2331.65 L2236.29 2307.76 L2347.66 2280.04 L2459.04 2248.24 L2570.53 2212.47 L2681.91 2172.62 L2793.28 2128.81 L2904.66 2081.42 L3016.03 2030.80 L3127.41 1977.34 L3238.78 1922.02 L3350.16 1865.22 L3461.53 1808.04 L3572.91 1751.24 L3684.28 1695.92 L3684.28 926.42 L3572.91 1134.95 L3461.53 1321.57 L3350.16 1487.27 L3238.78 1633.67 L3127.41 1761.76 L3016.03 1873.14 L2904.66 1969.30 L2793.28 2051.47 L2681.91 2121.14 L2570.53 2179.80 L2459.04 2228.68 L2347.66 2269.15 L2236.29 2302.32 L2124.91 2329.05 L2013.54 2350.58 L1902.16 2367.66 L1790.79 2381.52 L1679.41 2392.41 L1568.04 2400.95 L1456.66 2407.38 L1345.29 2412.33 L1233.79 2416.05 L1122.41 2418.77 L1011.04 2420.87 L899.66 2422.36 L788.29 2423.47 L676.91 2424.21 L565.54 2424.71 L565.54 2425.45 Z" stroke-linecap="round" style="fill:#D6D6FF;stroke:#CCCCFF;stroke-width:3.00"/>
	<path d="M565.54 2425.33 L565.54 2425.33 L676.91 2424.96 L788.29 2424.34 L899.66 2423.47 L1011.04 2422.11 L1122.41 2420.13 L1233.79 2417.41 L1345.29 2413.57 L1456.66 2408.50 L1568.04 2401.82 L1679.41 2393.28 L1790.79 2382.39 L1902.16 2368.77 L2013.54 2351.82 L2124.91 2331.40 L2236.29 2307.14 L2347.66 2278.80 L2459.04 2246.13 L2570.53 2208.88 L2681.91 2166.93 L2793.28 2120.28 L2904.66 2069.04 L3016.03 2013.35 L3127.41 1953.58 L3238.78 1890.09 L3350.16 1823.51 L3461.53 1754.33 L3572.91 1683.18 L3684.28 1610.90 L3684.28 1011.44 L3572.91 1203.01 L3461.53 1375.28 L3350.16 1529.10 L3238.78 1665.48 L3127.41 1785.64 L3016.03 1890.59 L2904.66 1981.67 L2793.28 2060.01 L2681.91 2126.83 L2570.53 2183.39 L2459.04 2230.91 L2347.66 2270.39 L2236.29 2302.81 L2124.91 2329.42 L2013.54 2350.70 L1902.16 2367.91 L1790.79 2381.64 L1679.41 2392.53 L1568.04 2401.07 L1456.66 2407.51 L1345.29 2412.46 L1233.79 2416.17 L1122.41 2419.02 L1011.04 2421.00 L899.66 2422.48 L788.29 2423.60 L676.91 2424.34 L565.54 2424.83 L565.54 2425.33 Z" stroke-linecap="round" style="fill:#C2C2FF;stroke:#B3B3FF;stroke-width:3.00"/>
	<path d="M565.54 2425.33 L565.54 2425.33 L676.91 2424.83 L788.29 2424.34 L899.66 2423.35 L1011.04 2421.99 L1122.41 2420.01 L1233.79 2417.28 L1345.29 2413.45 L1456.66 2408.37 L1568.04 2401.82 L1679.41 2393.28 L1790.79 2382.39 L1902.16 2368.65 L2013.54 2351.69 L2124.91 2331.15 L2236.29 2306.77 L2347.66 2278.06 L2459.04 2244.65 L2570.53 2206.41 L2681.91 2163.09 L2793.28 2114.46 L2904.66 2060.63 L3016.03 2001.60 L3127.41 1937.49 L3238.78 1868.68 L3350.16 1795.30 L3461.53 1718.07 L3572.91 1637.26 L3684.28 1553.61 L3684.28 1068.74 L3572.91 1248.92 L3461.53 1411.54 L3350.16 1557.19 L3238.78 1687.01 L3127.41 1801.61 L3016.03 1902.34 L2904.66 1989.96 L2793.28 2065.70 L2681.91 2130.67 L2570.53 2185.86 L2459.04 2232.27 L2347.66 2271.13 L2236.29 2303.31 L2124.91 2329.54 L2013.54 2350.83 L1902.16 2367.91 L1790.79 2381.64 L1679.41 2392.66 L1568.04 2401.07 L1456.66 2407.63 L1345.29 2412.58 L1233.79 2416.29 L1122.41 2419.14 L1011.04 2421.12 L899.66 2422.61 L788.29 2423.60 L676.91 2424.34 L565.54 2424.83 L565.54 2425.33 Z" stroke-linecap="round" style="fill:#ADADFF;stroke:#9999FF;stroke-width:3.00"/>
	<path d="M565.54 2425.20 L565.54 2425.20 L676.91 2424.83 L788.29 2424.21 L899.66 2423.22 L1011.04 2421.86 L1122.41 2419.88 L1233.79 2417.16 L1345.29 2413.45 L1456.66 2408.37 L1568.04 2401.69 L1679.41 2393.15 L1790.79 2382.26 L1902.16 2368.65 L2013.54 2351.69 L2124.91 2331.03 L2236.29 2306.40 L2347.66 2277.32 L2459.04 2243.53 L2570.53 2204.43 L2681.91 2160.00 L2793.28 2109.88 L2904.66 2053.94 L3016.03 1992.31 L3127.41 1924.74 L3238.78 1851.61 L3350.16 1773.02 L3461.53 1689.24 L3572.91 1600.76 L3684.28 1508.06 L3684.28 1114.28 L3572.91 1285.43 L3461.53 1440.25 L3350.16 1579.59 L3238.78 1704.09 L3127.41 1814.48 L3016.03 1911.63 L2904.66 1996.64 L2793.28 2070.28 L2681.91 2133.64 L2570.53 2187.72 L2459.04 2233.51 L2347.66 2271.75 L2236.29 2303.55 L2124.91 2329.67 L2013.54 2350.95 L1902.16 2368.03 L1790.79 2381.77 L1679.41 2392.66 L1568.04 2401.20 L1456.66 2407.76 L1345.29 2412.71 L1233.79 2416.42 L1122.41 2419.14 L1011.04 2421.24 L899.66 2422.61 L788.29 2423.72 L676.91 2424.46 L565.54 2424.96 L565.54 2425.20 Z" stroke-linecap="round" style="fill:#9999FF;stroke:#8080FF;stroke-width:3.00"/>
	<path d="M565.54 2425.20 L565.54 2425.20 L676.91 2424.83 L788.29 2424.21 L899.66 2423.22 L1011.04 2421.86 L1122.41 2419.88 L1233.79 2417.04 L1345.29 2413.32 L1456.66 2408.25 L1568.04 2401.69 L1679.41 2393.15 L1790.79 2382.26 L1902.16 2368.53 L2013.54 2351.57 L2124.91 2330.90 L2236.29 2306.15 L2347.66 2276.82 L2459.04 2242.54 L2570.53 2202.82 L2681.91 2157.40 L2793.28 2105.92 L2904.66 2048.25 L3016.03 1984.27 L3127.41 1913.85 L3238.78 1836.88 L3350.16 1753.72 L3461.53 1664.49 L3572.91 1569.45 L3684.28 1468.96 L3684.28 1153.39 L3572.91 1316.74 L3461.53 1465.00 L3350.16 1598.78 L3238.78 1718.69 L3127.41 1825.37 L3016.03 1919.67 L2904.66 2002.34 L2793.28 2074.24 L2681.91 2136.36 L2570.53 2189.45 L2459.04 2234.50 L2347.66 2272.37 L2236.29 2303.93 L2124.91 2329.79 L2013.54 2350.95 L1902.16 2368.03 L1790.79 2381.77 L1679.41 2392.66 L1568.04 2401.20 L1456.66 2407.76 L1345.29 2412.71 L1233.79 2416.42 L1122.41 2419.26 L1011.04 2421.24 L899.66 2422.73 L788.29 2423.72 L676.91 2424.46 L565.54 2424.96 L565.54 2425.20 Z" stroke-linecap="round" style="fill:#8585FF;stroke:#6666FF;stroke-width:3.00"/>
	<path d="M565.54 2425.20 L565.54 2425.20 L676.91 2424.71 L788.29 2424.09 L899.66 2423.10 L1011.04 2421.74 L1122.41 2419.76 L1233.79 2417.04 L1345.29 2413.32 L1456.66 2408.25 L1568.04 2401.57 L1679.41 2393.03 L1790.79 2382.14 L1902.16 2368.53 L2013.54 2351.57 L2124.91 2330.78 L2236.29 2305.91 L2347.66 2276.33 L2459.04 2241.68 L2570.53 2201.33 L2681.91 2155.05 L2793.28 2102.45 L2904.66 2043.18 L3016.03 1977.09 L3127.41 1903.95 L3238.78 1823.76 L3350.16 1736.51 L3461.53 1642.34 L3572.91 1541.35 L3684.28 1433.81 L3684.28 1188.53 L3572.91 1344.83 L3461.53 1487.27 L3350.16 1616.10 L3238.78 1731.81 L3127.41 1835.27 L3016.03 1926.85 L2904.66 2007.41 L2793.28 2077.83 L2681.91 2138.71 L2570.53 2190.94 L2459.04 2235.37 L2347.66 2272.86 L2236.29 2304.17 L2124.91 2329.91 L2013.54 2351.08 L1902.16 2368.15 L1790.79 2381.89 L1679.41 2392.78 L1568.04 2401.32 L1456.66 2407.88 L1345.29 2412.83 L1233.79 2416.54 L1122.41 2419.26 L1011.04 2421.37 L899.66 2422.73 L788.29 2423.84 L676.91 2424.46 L565.54 2424.96 L565.54 2425.20 Z" stroke-linecap="round" style="fill:#7171FF;stroke:#4D4DFF;stroke-width:3.00"/>
	<path d="M565.54 2425.20 L565.54 2425.20 L676.91 2424.71 L788.29 2424.09 L899.66 2423.10 L1011.04 2421.74 L1122.41 2419.76 L1233.79 2416.91 L1345.29 2413.20 L1456.66 2408.13 L1568.04 2401.57 L1679.41 2393.03 L1790.79 2382.14 L1902.16 2368.40 L2013.54 2351.45 L2124.91 2330.66 L2236.29 2305.66 L2347.66 2275.83 L2459.04 2240.81 L2570.53 2199.97 L2681.91 2152.95 L2793.28 2099.11 L2904.66 2038.47 L3016.03 1970.41 L3127.41 1894.80 L3238.78 1811.63 L3350.16 1720.55 L3461.53 1621.79 L3572.91 1515.24 L3684.28 1401.27 L3684.28 1221.08 L3572.91 1370.95 L3461.53 1507.82 L3350.16 1632.07 L3238.78 1744.06 L3127.41 1844.30 L3016.03 1933.53 L2904.66 2012.24 L2793.28 2081.05 L2681.91 2140.82 L2570.53 2192.30 L2459.04 2236.23 L2347.66 2273.36 L2236.29 2304.42 L2124.91 2330.04 L2013.54 2351.08 L1902.16 2368.15 L1790.79 2381.89 L1679.41 2392.78 L1568.04 2401.32 L1456.66 2407.88 L1345.29 2412.83 L1233.79 2416.67 L1122.41 2419.39 L1011.04 2421.37 L899.66 2422.85 L788.29 2423.84 L676.91 2424.59 L565.54 2424.96 L565.54 2425.20 Z" stroke-linecap="round" style="fill:#5C5CFF;stroke:#3333FF;stroke-width:3.00"/>
	<path d="M565.54 2425.08 L565.54 2425.08 L676.91 2424.71 L788.29 2424.09 L899.66 2423.10 L1011.04 2421.62 L1122.41 2419.64 L1233.79 2416.91 L1345.29 2413.20 L1456.66 2408.13 L1568.04 2401.57 L1679.41 2393.03 L1790.79 2382.14 L1902.16 2368.40 L2013.54 2351.45 L2124.91 2330.53 L2236.29 2305.41 L2347.66 2275.46 L2459.04 2240.07 L2570.53 2198.61 L2681.91 2150.84 L2793.28 2096.02 L2904.66 2033.89 L3016.03 1964.10 L3127.41 1886.26 L3238.78 1800.00 L3350.16 1705.33 L3461.53 1602.24 L3572.91 1490.62 L3684.28 1370.45 L3684.28 1251.89 L3572.91 1395.57 L3461.53 1527.25 L3350.16 1647.16 L3238.78 1755.57 L3127.41 1852.97 L3016.03 1939.84 L2904.66 2016.69 L2793.28 2084.14 L2681.91 2142.92 L2570.53 2193.66 L2459.04 2236.97 L2347.66 2273.73 L2236.29 2304.54 L2124.91 2330.16 L2013.54 2351.20 L1902.16 2368.28 L1790.79 2381.89 L1679.41 2392.78 L1568.04 2401.32 L1456.66 2407.88 L1345.29 2412.95 L1233.79 2416.67 L1122.41 2419.39 L1011.04 2421.49 L899.66 2422.85 L788.29 2423.84 L676.91 2424.59 L565.54 2425.08 L565.54 2425.08 Z" stroke-linecap="round" style="fill:#4747FF;stroke:#1919FF;stroke-width:3.00"/>
	<path d="M565.54 2425.08 L565.54 2425.08 L676.91 2424.71 L788.29 2423.97 L899.66 2422.98 L1011.04 2421.62 L1122.41 2419.64 L1233.79 2416.79 L1345.29 2413.08 L1456.66 2408.13 L1568.04 2401.44 L1679.41 2392.90 L1790.79 2382.01 L1902.16 2368.40 L2013.54 2351.32 L2124.91 2330.41 L2236.29 2305.16 L2347.66 2274.97 L2459.04 2239.20 L2570.53 2197.37 L2681.91 2148.86 L2793.28 2093.05 L2904.66 2029.56 L3016.03 1958.03 L3127.41 1877.84 L3238.78 1788.86 L3350.16 1690.73 L3461.53 1583.31 L3572.91 1466.61 L3684.28 1340.63 L3684.28 1281.72 L3572.91 1419.58 L3461.53 1546.18 L3350.16 1661.89 L3238.78 1766.83 L3127.41 1861.38 L3016.03 1945.91 L2904.66 2021.02 L2793.28 2087.11 L2681.91 2144.90 L2570.53 2194.90 L2459.04 2237.72 L2347.66 2274.22 L2236.29 2304.79 L2124.91 2330.29 L2013.54 2351.20 L1902.16 2368.28 L1790.79 2382.01 L1679.41 2392.90 L1568.04 2401.44 L1456.66 2408.00 L1345.29 2412.95 L1233.79 2416.79 L1122.41 2419.51 L1011.04 2421.49 L899.66 2422.98 L788.29 2423.97 L676.91 2424.59 L565.54 2425.08 L565.54 2425.08 Z" stroke-linecap="round" style="fill:#3333FF;stroke:#0000FF;stroke-width:3.00"/>
	<circle cx="565.41" cy="2425.45" r="22.03" style="fill:#000000;stroke:#000000;stroke-width:8.64"/>
	<circle cx="676.79" cy="2424.34" r="22.03" style="fill:#000000;stroke:#000000;stroke-width:8.64"/>
	<circle cx="788.29" cy="2422.48" r="22.03" style="fill:#000000;stroke:#000000;stroke-width:8.64"/>
	<circle cx="899.66" cy="2421.24" r="22.03" style="fill:#000000;stroke:#000000;stroke-width:8.64"/>
	<circle cx="1011.04" cy="2421.00" r="22.03" style="fill:#000000;stroke:#000000;stroke-width:8.64"/>
	<circle cx="1122.41" cy="2420.50" r="22.03" style="fill:#000000;stroke:#000000;stroke-width:8.64"/>
	<circle cx="1233.79" cy="2416.79" r="22.03" style="fill:#000000;stroke:#000000;stroke-width:8.64"/>
	<circle cx="1345.16" cy="2414.81" r="22.03" style="fill:#000000;stroke:#000000;stroke-width:8.64"/>
	<circle cx="1456.54" cy="2407.76" r="22.03" style="fill:#000000;stroke:#000000;stroke-width:8.64"/>
	<circle cx="1567.91" cy="2402.31" r="22.03" style="fill:#000000;stroke:#000000;stroke-width:8.64"/>
	<circle cx="1679.29" cy="2392.53" r="22.03" style="fill:#000000;stroke:#000000;stroke-width:8.64"/>
	<circle cx="1790.66" cy="2382.14" r="22.03" style="fill:#000000;stroke:#000000;stroke-width:8.64"/>
	<circle cx="1902.04" cy="2368.15" r="22.03" style="fill:#000000;stroke:#000000;stroke-width:8.64"/>
	<circle cx="2013.54" cy="2350.33" r="22.03" style="fill:#000000;stroke:#000000;stroke-width:8.64"/>
	<circle cx="2124.91" cy="2331.15" r="22.03" style="fill:#000000;stroke:#000000;stroke-width:8.64"/>
	<line x1="390.80" y1="2489.19" x2="390.80" y2="100.86" style="stroke:#000000;stroke-width:5.76"/>
	<line x1="390.80" y1="2425.82" x2="350.83" y2="2425.82" style="stroke:#000000;stroke-width:5.76"/>
	<text x="300.72" y="2425.82" style="font-family:'Helvetica';font-size:99.99px;fill:#000000" transform="rotate(-90 300.72,2425.82)" text-anchor="middle">0</text>
	<line x1="390.80" y1="1671.91" x2="350.83" y2="1671.91" style="stroke:#000000;stroke-width:5.76"/>
	<text x="300.72" y="1671.91" style="font-family:'Helvetica';font-size:99.99px;fill:#000000" transform="rotate(-90 300.72,1671.91)" text-anchor="middle">20</text>
	<line x1="390.80" y1="918.01" x2="350.83" y2="918.01" style="stroke:#000000;stroke-width:5.76"/>
	<text x="300.72" y="918.01" style="font-family:'Helvetica';font-size:99.99px;fill:#000000" transform="rotate(-90 300.72,918.01)" text-anchor="middle">40</text>
	<line x1="390.80" y1="164.22" x2="350.83" y2="164.22" style="stroke:#000000;stroke-width:5.76"/>
	<text x="300.72" y="164.22" style="font-family:'Helvetica';font-size:99.99px;fill:#000000" transform="rotate(-90 300.72,164.22)" text-anchor="middle">60</text>
	<text x="190.71" y="1294.96" style="font-family:'Helvetica';font-size:99.99px;fill:#000000" transform="rotate(-90 190.71,1294.96)" text-anchor="middle">Confirmed cases per 100 beds</text>
	<line x1="390.80" y1="2489.19" x2="3859.02" y2="2489.19" style="stroke:#000000;stroke-width:5.76"/>
	<line x1="454.16" y1="2489.19" x2="454.16" y2="2529.16" style="stroke:#000000;stroke-width:5.76"/>
	<text x="454.16" y="2619.14" style="font-family:'Helvetica';font-size:99.99px;fill:#000000" text-anchor="middle">0</text>
	<line x1="1568.04" y1="2489.19" x2="1568.04" y2="2529.16" style="stroke:#000000;stroke-width:5.76"/>
	<text x="1568.04" y="2619.14" style="font-family:'Helvetica';font-size:99.99px;fill:#000000" text-anchor="middle">10</text>
	<line x1="2681.91" y1="2489.19" x2="2681.91" y2="2529.16" style="stroke:#000000;stroke-width:5.76"/>
	<text x="2681.91" y="2619.14" style="font-family:'Helvetica';font-size:99.99px;fill:#000000" text-anchor="middle">20</text>
	<line x1="3795.66" y1="2489.19" x2="3795.66" y2="2529.16" style="stroke:#000000;stroke-width:5.76"/>
	<text x="3795.66" y="2619.14" style="font-family:'Helvetica';font-size:99.99px;fill:#000000" text-anchor="middle">30</text>
	<text x="2124.91" y="2729.16" style="font-family:'Helvetica';font-size:99.99px;fill:#000000" text-anchor="middle">Days since 0.01 confirmed cases per 100 beds</text>
</svg>
