<?xml version="1.0" encoding="UTF-8" standalone="no"?>
<!-- This is a Stata 14.2 generated SVG file (http://www.stata.com) -->

<svg version="1.1" width="5.50in" height="4.00in" viewBox="0 0 3960 2880" xmlns="http://www.w3.org/2000/svg">
	<desc>Stata Graph - Graph</desc>
	<line x1="390.80" y1="1549.27" x2="3859.02" y2="1549.27" style="stroke:#FF0000;stroke-width:8.64"/>
	<path d="M558.61 1826.73 L558.61 1826.73 L662.93 1826.85 L767.37 1826.98 L871.82 1826.98 L976.26 1826.98 L1080.71 1826.73 L1185.15 1826.24 L1289.47 1825.37 L1393.92 1824.01 L1498.37 1822.40 L1602.81 1820.42 L1707.26 1818.44 L1811.70 1816.09 L1916.02 1813.12 L2020.47 1809.16 L2124.91 1804.08 L2229.36 1798.39 L2333.80 1793.32 L2438.25 1790.22 L2542.57 1790.10 L2647.01 1794.06 L2751.46 1802.85 L2855.90 1817.82 L2960.35 1840.22 L3064.79 1871.16 L3169.11 1911.87 L3273.56 1963.85 L3378.00 2027.95 L3482.45 2105.42 L3586.89 2197.13 L3691.34 2303.68 L3795.66 2425.82 L3795.66 557.63 L3691.34 741.90 L3586.89 907.86 L3482.45 1055.99 L3378.00 1186.92 L3273.56 1301.27 L3169.11 1400.03 L3064.79 1484.30 L2960.35 1555.09 L2855.90 1613.87 L2751.46 1661.77 L2647.01 1700.13 L2542.57 1730.20 L2438.25 1753.22 L2333.80 1770.05 L2229.36 1782.18 L2124.91 1791.09 L2020.47 1798.27 L1916.02 1804.46 L1811.70 1809.65 L1707.26 1813.98 L1602.81 1817.20 L1498.37 1819.43 L1393.92 1820.79 L1289.47 1821.90 L1185.15 1822.77 L1080.71 1823.51 L976.26 1824.13 L871.82 1824.63 L767.37 1825.12 L662.93 1825.37 L558.61 1825.74 L558.61 1826.73 Z" stroke-linecap="round" style="fill:#EBEBFF;stroke:#E6E6FF;stroke-width:3.00"/>
	<path d="M558.61 1826.48 L558.61 1826.48 L662.93 1826.48 L767.37 1826.48 L871.82 1826.36 L976.26 1826.11 L1080.71 1825.74 L1185.15 1825.25 L1289.47 1824.38 L1393.92 1823.14 L1498.37 1821.53 L1602.81 1819.55 L1707.26 1817.20 L1811.70 1814.23 L1916.02 1810.64 L2020.47 1805.94 L2124.91 1800.37 L2229.36 1793.69 L2333.80 1786.63 L2438.25 1779.58 L2542.57 1772.90 L2647.01 1766.96 L2751.46 1762.13 L2855.90 1758.91 L2960.35 1757.92 L3064.79 1759.41 L3169.11 1764.24 L3273.56 1772.65 L3378.00 1785.27 L3482.45 1802.60 L3586.89 1825.00 L3691.34 1852.97 L3795.66 1886.63 L3795.66 1096.83 L3691.34 1192.62 L3586.89 1279.99 L3482.45 1358.82 L3378.00 1429.60 L3273.56 1492.47 L3169.11 1547.79 L3064.79 1595.93 L2960.35 1637.39 L2855.90 1672.78 L2751.46 1702.48 L2647.01 1727.23 L2542.57 1747.53 L2438.25 1763.86 L2333.80 1776.73 L2229.36 1786.88 L2124.91 1794.93 L2020.47 1801.49 L1916.02 1806.93 L1811.70 1811.51 L1707.26 1815.22 L1602.81 1818.19 L1498.37 1820.30 L1393.92 1821.78 L1289.47 1822.89 L1185.15 1823.76 L1080.71 1824.38 L976.26 1824.87 L871.82 1825.37 L767.37 1825.62 L662.93 1825.86 L558.61 1825.99 L558.61 1826.48 Z" stroke-linecap="round" style="fill:#D6D6FF;stroke:#CCCCFF;stroke-width:3.00"/>
	<path d="M558.61 1826.36 L558.61 1826.36 L662.93 1826.36 L767.37 1826.36 L871.82 1826.24 L976.26 1825.99 L1080.71 1825.62 L1185.15 1825.00 L1289.47 1824.13 L1393.92 1823.02 L1498.37 1821.41 L1602.81 1819.43 L1707.26 1816.95 L1811.70 1813.98 L1916.02 1810.15 L2020.47 1805.45 L2124.91 1799.75 L2229.36 1792.95 L2333.80 1785.52 L2438.25 1777.85 L2542.57 1770.05 L2647.01 1762.50 L2751.46 1755.57 L2855.90 1749.51 L2960.35 1744.56 L3064.79 1741.34 L3169.11 1740.23 L3273.56 1741.71 L3378.00 1745.92 L3482.45 1753.59 L3586.89 1764.73 L3691.34 1779.95 L3795.66 1799.50 L3795.66 1184.08 L3691.34 1265.51 L3586.89 1340.13 L3482.45 1407.82 L3378.00 1468.83 L3273.56 1523.41 L3169.11 1571.67 L3064.79 1614.00 L2960.35 1650.75 L2855.90 1682.31 L2751.46 1709.04 L2647.01 1731.56 L2542.57 1750.25 L2438.25 1765.60 L2333.80 1777.85 L2229.36 1787.62 L2124.91 1795.42 L2020.47 1801.98 L1916.02 1807.30 L1811.70 1811.88 L1707.26 1815.47 L1602.81 1818.32 L1498.37 1820.42 L1393.92 1821.90 L1289.47 1823.02 L1185.15 1823.88 L1080.71 1824.50 L976.26 1825.00 L871.82 1825.37 L767.37 1825.74 L662.93 1825.86 L558.61 1826.11 L558.61 1826.36 Z" stroke-linecap="round" style="fill:#C2C2FF;stroke:#B3B3FF;stroke-width:3.00"/>
	<path d="M558.61 1826.36 L558.61 1826.36 L662.93 1826.36 L767.37 1826.24 L871.82 1826.11 L976.26 1825.86 L1080.71 1825.49 L1185.15 1825.00 L1289.47 1824.13 L1393.92 1822.89 L1498.37 1821.29 L1602.81 1819.31 L1707.26 1816.83 L1811.70 1813.74 L1916.02 1809.90 L2020.47 1805.20 L2124.91 1799.26 L2229.36 1792.45 L2333.80 1784.78 L2438.25 1776.61 L2542.57 1768.20 L2647.01 1759.53 L2751.46 1751.12 L2855.90 1743.07 L2960.35 1735.65 L3064.79 1729.21 L3169.11 1724.14 L3273.56 1720.80 L3378.00 1719.44 L3482.45 1720.43 L3586.89 1724.14 L3691.34 1730.82 L3795.66 1740.60 L3795.66 1242.98 L3691.34 1314.76 L3586.89 1380.72 L3482.45 1440.87 L3378.00 1495.44 L3273.56 1544.32 L3169.11 1587.76 L3064.79 1626.13 L2960.35 1659.66 L2855.90 1688.75 L2751.46 1713.50 L2647.01 1734.53 L2542.57 1752.23 L2438.25 1766.71 L2333.80 1778.59 L2229.36 1788.12 L2124.91 1795.92 L2020.47 1802.23 L1916.02 1807.67 L1811.70 1812.00 L1707.26 1815.59 L1602.81 1818.44 L1498.37 1820.54 L1393.92 1822.03 L1289.47 1823.14 L1185.15 1824.01 L1080.71 1824.63 L976.26 1825.12 L871.82 1825.49 L767.37 1825.74 L662.93 1825.99 L558.61 1826.11 L558.61 1826.36 Z" stroke-linecap="round" style="fill:#ADADFF;stroke:#9999FF;stroke-width:3.00"/>
	<path d="M558.61 1826.36 L558.61 1826.36 L662.93 1826.36 L767.37 1826.24 L871.82 1826.11 L976.26 1825.86 L1080.71 1825.49 L1185.15 1824.87 L1289.47 1824.01 L1393.92 1822.77 L1498.37 1821.16 L1602.81 1819.18 L1707.26 1816.71 L1811.70 1813.61 L1916.02 1809.78 L2020.47 1804.83 L2124.91 1799.01 L2229.36 1792.08 L2333.80 1784.16 L2438.25 1775.74 L2542.57 1766.71 L2647.01 1757.18 L2751.46 1747.53 L2855.90 1737.88 L2960.35 1728.47 L3064.79 1719.56 L3169.11 1711.39 L3273.56 1704.21 L3378.00 1698.40 L3482.45 1694.19 L3586.89 1691.96 L3691.34 1691.72 L3795.66 1693.82 L3795.66 1289.76 L3691.34 1353.87 L3586.89 1413.02 L3482.45 1467.23 L3378.00 1516.48 L3273.56 1560.91 L3169.11 1600.63 L3064.79 1635.78 L2960.35 1666.84 L2855.90 1693.82 L2751.46 1717.08 L2647.01 1736.89 L2542.57 1753.72 L2438.25 1767.70 L2333.80 1779.21 L2229.36 1788.49 L2124.91 1796.16 L2020.47 1802.60 L1916.02 1807.80 L1811.70 1812.25 L1707.26 1815.72 L1602.81 1818.56 L1498.37 1820.54 L1393.92 1822.15 L1289.47 1823.27 L1185.15 1824.13 L1080.71 1824.75 L976.26 1825.25 L871.82 1825.62 L767.37 1825.86 L662.93 1825.99 L558.61 1826.11 L558.61 1826.36 Z" stroke-linecap="round" style="fill:#9999FF;stroke:#8080FF;stroke-width:3.00"/>
	<path d="M558.61 1826.36 L558.61 1826.36 L662.93 1826.24 L767.37 1826.24 L871.82 1825.99 L976.26 1825.74 L1080.71 1825.37 L1185.15 1824.75 L1289.47 1823.88 L1393.92 1822.77 L1498.37 1821.16 L1602.81 1819.18 L1707.26 1816.58 L1811.70 1813.49 L1916.02 1809.53 L2020.47 1804.70 L2124.91 1798.76 L2229.36 1791.71 L2333.80 1783.66 L2438.25 1774.88 L2542.57 1765.35 L2647.01 1755.20 L2751.46 1744.56 L2855.90 1733.54 L2960.35 1722.41 L3064.79 1711.27 L3169.11 1700.38 L3273.56 1689.98 L3378.00 1680.33 L3482.45 1671.67 L3586.89 1664.24 L3691.34 1658.18 L3795.66 1653.72 L3795.66 1329.86 L3691.34 1387.40 L3586.89 1440.74 L3482.45 1489.75 L3378.00 1534.55 L3273.56 1575.14 L3169.11 1611.65 L3064.79 1644.19 L2960.35 1672.90 L2855.90 1698.15 L2751.46 1720.06 L2647.01 1738.99 L2542.57 1754.95 L2438.25 1768.44 L2333.80 1779.70 L2229.36 1788.86 L2124.91 1796.53 L2020.47 1802.72 L1916.02 1808.04 L1811.70 1812.38 L1707.26 1815.84 L1602.81 1818.56 L1498.37 1820.67 L1393.92 1822.15 L1289.47 1823.27 L1185.15 1824.13 L1080.71 1824.75 L976.26 1825.25 L871.82 1825.62 L767.37 1825.86 L662.93 1825.99 L558.61 1826.11 L558.61 1826.36 Z" stroke-linecap="round" style="fill:#8585FF;stroke:#6666FF;stroke-width:3.00"/>
	<path d="M558.61 1826.36 L558.61 1826.36 L662.93 1826.24 L767.37 1826.11 L871.82 1825.99 L976.26 1825.74 L1080.71 1825.37 L1185.15 1824.75 L1289.47 1823.88 L1393.92 1822.65 L1498.37 1821.04 L1602.81 1819.06 L1707.26 1816.58 L1811.70 1813.37 L1916.02 1809.41 L2020.47 1804.46 L2124.91 1798.51 L2229.36 1791.34 L2333.80 1783.29 L2438.25 1774.14 L2542.57 1764.24 L2647.01 1753.47 L2751.46 1741.84 L2855.90 1729.58 L2960.35 1716.84 L3064.79 1703.72 L3169.11 1690.48 L3273.56 1677.24 L3378.00 1664.12 L3482.45 1651.37 L3586.89 1639.37 L3691.34 1627.98 L3795.66 1617.71 L3795.66 1365.87 L3691.34 1417.48 L3586.89 1465.62 L3482.45 1509.92 L3378.00 1550.76 L3273.56 1587.89 L3169.11 1621.42 L3064.79 1651.62 L2960.35 1678.47 L2855.90 1702.11 L2751.46 1722.78 L2647.01 1740.72 L2542.57 1756.19 L2438.25 1769.19 L2333.80 1780.08 L2229.36 1789.23 L2124.91 1796.78 L2020.47 1802.97 L1916.02 1808.17 L1811.70 1812.50 L1707.26 1815.96 L1602.81 1818.69 L1498.37 1820.67 L1393.92 1822.28 L1289.47 1823.39 L1185.15 1824.26 L1080.71 1824.87 L976.26 1825.37 L871.82 1825.62 L767.37 1825.86 L662.93 1826.11 L558.61 1826.11 L558.61 1826.36 Z" stroke-linecap="round" style="fill:#7171FF;stroke:#4D4DFF;stroke-width:3.00"/>
	<path d="M558.61 1826.24 L558.61 1826.24 L662.93 1826.24 L767.37 1826.11 L871.82 1825.99 L976.26 1825.62 L1080.71 1825.25 L1185.15 1824.63 L1289.47 1823.76 L1393.92 1822.65 L1498.37 1821.04 L1602.81 1819.06 L1707.26 1816.46 L1811.70 1813.24 L1916.02 1809.16 L2020.47 1804.21 L2124.91 1798.27 L2229.36 1791.09 L2333.80 1782.80 L2438.25 1773.52 L2542.57 1763.12 L2647.01 1751.74 L2751.46 1739.36 L2855.90 1726.00 L2960.35 1711.76 L3064.79 1696.79 L3169.11 1681.32 L3273.56 1665.36 L3378.00 1649.02 L3482.45 1632.68 L3586.89 1616.35 L3691.34 1600.14 L3795.66 1584.30 L3795.66 1399.28 L3691.34 1445.45 L3586.89 1488.64 L3482.45 1528.73 L3378.00 1565.73 L3273.56 1599.77 L3169.11 1630.58 L3064.79 1658.55 L2960.35 1683.55 L2855.90 1705.70 L2751.46 1725.38 L2647.01 1742.45 L2542.57 1757.18 L2438.25 1769.80 L2333.80 1780.57 L2229.36 1789.48 L2124.91 1796.91 L2020.47 1803.22 L1916.02 1808.29 L1811.70 1812.62 L1707.26 1815.96 L1602.81 1818.69 L1498.37 1820.79 L1393.92 1822.28 L1289.47 1823.39 L1185.15 1824.26 L1080.71 1824.87 L976.26 1825.37 L871.82 1825.74 L767.37 1825.99 L662.93 1826.11 L558.61 1826.24 L558.61 1826.24 Z" stroke-linecap="round" style="fill:#5C5CFF;stroke:#3333FF;stroke-width:3.00"/>
	<path d="M558.61 1826.24 L558.61 1826.24 L662.93 1826.24 L767.37 1826.11 L871.82 1825.86 L976.26 1825.62 L1080.71 1825.25 L1185.15 1824.63 L1289.47 1823.76 L1393.92 1822.52 L1498.37 1821.04 L1602.81 1818.93 L1707.26 1816.34 L1811.70 1813.12 L1916.02 1809.03 L2020.47 1804.08 L2124.91 1798.02 L2229.36 1790.84 L2333.80 1782.43 L2438.25 1772.90 L2542.57 1762.13 L2647.01 1750.13 L2751.46 1736.89 L2855.90 1722.53 L2960.35 1706.94 L3064.79 1690.23 L3169.11 1672.66 L3273.56 1654.09 L3378.00 1634.79 L3482.45 1614.86 L3586.89 1594.44 L3691.34 1573.65 L3795.66 1552.62 L3795.66 1430.97 L3691.34 1471.93 L3586.89 1510.54 L3482.45 1546.55 L3378.00 1580.09 L3273.56 1610.90 L3169.11 1639.24 L3064.79 1665.11 L2960.35 1688.37 L2855.90 1709.16 L2751.46 1727.73 L2647.01 1744.06 L2542.57 1758.17 L2438.25 1770.55 L2333.80 1780.94 L2229.36 1789.73 L2124.91 1797.15 L2020.47 1803.34 L1916.02 1808.54 L1811.70 1812.75 L1707.26 1816.09 L1602.81 1818.69 L1498.37 1820.79 L1393.92 1822.40 L1289.47 1823.51 L1185.15 1824.38 L1080.71 1825.00 L976.26 1825.49 L871.82 1825.74 L767.37 1825.99 L662.93 1826.11 L558.61 1826.24 L558.61 1826.24 Z" stroke-linecap="round" style="fill:#4747FF;stroke:#1919FF;stroke-width:3.00"/>
	<path d="M558.61 1826.24 L558.61 1826.24 L662.93 1826.24 L767.37 1826.11 L871.82 1825.86 L976.26 1825.62 L1080.71 1825.12 L1185.15 1824.50 L1289.47 1823.64 L1393.92 1822.52 L1498.37 1820.91 L1602.81 1818.93 L1707.26 1816.34 L1811.70 1812.99 L1916.02 1808.91 L2020.47 1803.84 L2124.91 1797.77 L2229.36 1790.59 L2333.80 1782.06 L2438.25 1772.28 L2542.57 1761.14 L2647.01 1748.64 L2751.46 1734.66 L2855.90 1719.19 L2960.35 1702.23 L3064.79 1683.92 L3169.11 1664.24 L3273.56 1643.20 L3378.00 1621.05 L3482.45 1597.66 L3586.89 1573.28 L3691.34 1548.04 L3795.66 1521.93 L3795.66 1461.66 L3691.34 1497.55 L3586.89 1531.58 L3482.45 1563.75 L3378.00 1593.83 L3273.56 1621.79 L3169.11 1647.66 L3064.79 1671.42 L2960.35 1693.08 L2855.90 1712.51 L2751.46 1730.08 L2647.01 1745.55 L2542.57 1759.16 L2438.25 1771.04 L2333.80 1781.31 L2229.36 1789.98 L2124.91 1797.40 L2020.47 1803.59 L1916.02 1808.66 L1811.70 1812.75 L1707.26 1816.21 L1602.81 1818.81 L1498.37 1820.79 L1393.92 1822.40 L1289.47 1823.51 L1185.15 1824.38 L1080.71 1825.00 L976.26 1825.49 L871.82 1825.74 L767.37 1825.99 L662.93 1826.11 L558.61 1826.24 L558.61 1826.24 Z" stroke-linecap="round" style="fill:#3333FF;stroke:#0000FF;stroke-width:3.00"/>
	<circle cx="558.48" cy="1826.11" r="22.03" style="fill:#000000;stroke:#000000;stroke-width:8.64"/>
	<circle cx="662.93" cy="1825.74" r="22.03" style="fill:#000000;stroke:#000000;stroke-width:8.64"/>
	<circle cx="767.37" cy="1825.74" r="22.03" style="fill:#000000;stroke:#000000;stroke-width:8.64"/>
	<circle cx="871.82" cy="1825.49" r="22.03" style="fill:#000000;stroke:#000000;stroke-width:8.64"/>
	<circle cx="976.14" cy="1825.00" r="22.03" style="fill:#000000;stroke:#000000;stroke-width:8.64"/>
	<circle cx="1080.59" cy="1824.75" r="22.03" style="fill:#000000;stroke:#000000;stroke-width:8.64"/>
	<circle cx="1185.03" cy="1824.63" r="22.03" style="fill:#000000;stroke:#000000;stroke-width:8.64"/>
	<circle cx="1289.47" cy="1824.01" r="22.03" style="fill:#000000;stroke:#000000;stroke-width:8.64"/>
	<circle cx="1393.92" cy="1822.65" r="22.03" style="fill:#000000;stroke:#000000;stroke-width:8.64"/>
	<circle cx="1498.37" cy="1819.55" r="22.03" style="fill:#000000;stroke:#000000;stroke-width:8.64"/>
	<circle cx="1602.69" cy="1818.44" r="22.03" style="fill:#000000;stroke:#000000;stroke-width:8.64"/>
	<circle cx="1707.13" cy="1817.08" r="22.03" style="fill:#000000;stroke:#000000;stroke-width:8.64"/>
	<circle cx="1811.58" cy="1815.10" r="22.03" style="fill:#000000;stroke:#000000;stroke-width:8.64"/>
	<circle cx="1916.02" cy="1809.03" r="22.03" style="fill:#000000;stroke:#000000;stroke-width:8.64"/>
	<circle cx="2020.47" cy="1802.10" r="22.03" style="fill:#000000;stroke:#000000;stroke-width:8.64"/>
	<circle cx="2124.91" cy="1801.11" r="22.03" style="fill:#000000;stroke:#000000;stroke-width:8.64"/>
	<circle cx="2229.23" cy="1784.78" r="22.03" style="fill:#000000;stroke:#000000;stroke-width:8.64"/>
	<circle cx="2333.68" cy="1784.28" r="22.03" style="fill:#000000;stroke:#000000;stroke-width:8.64"/>
	<line x1="390.80" y1="2489.19" x2="390.80" y2="100.86" style="stroke:#000000;stroke-width:5.76"/>
	<line x1="390.80" y1="2380.41" x2="350.83" y2="2380.41" style="stroke:#000000;stroke-width:5.76"/>
	<text x="300.72" y="2380.41" style="font-family:'Helvetica';font-size:99.99px;fill:#000000" transform="rotate(-90 300.72,2380.41)" text-anchor="middle">-20</text>
	<line x1="390.80" y1="1826.36" x2="350.83" y2="1826.36" style="stroke:#000000;stroke-width:5.76"/>
	<text x="300.72" y="1826.36" style="font-family:'Helvetica';font-size:99.99px;fill:#000000" transform="rotate(-90 300.72,1826.36)" text-anchor="middle">0</text>
	<line x1="390.80" y1="1272.31" x2="350.83" y2="1272.31" style="stroke:#000000;stroke-width:5.76"/>
	<text x="300.72" y="1272.31" style="font-family:'Helvetica';font-size:99.99px;fill:#000000" transform="rotate(-90 300.72,1272.31)" text-anchor="middle">20</text>
	<line x1="390.80" y1="718.27" x2="350.83" y2="718.27" style="stroke:#000000;stroke-width:5.76"/>
	<text x="300.72" y="718.27" style="font-family:'Helvetica';font-size:99.99px;fill:#000000" transform="rotate(-90 300.72,718.27)" text-anchor="middle">40</text>
	<line x1="390.80" y1="164.22" x2="350.83" y2="164.22" style="stroke:#000000;stroke-width:5.76"/>
	<text x="300.72" y="164.22" style="font-family:'Helvetica';font-size:99.99px;fill:#000000" transform="rotate(-90 300.72,164.22)" text-anchor="middle">60</text>
	<text x="190.71" y="1294.96" style="font-family:'Helvetica';font-size:99.99px;fill:#000000" transform="rotate(-90 190.71,1294.96)" text-anchor="middle">Confirmed cases per 100 beds</text>
	<line x1="390.80" y1="2489.19" x2="3859.02" y2="2489.19" style="stroke:#000000;stroke-width:5.76"/>
	<line x1="454.16" y1="2489.19" x2="454.16" y2="2529.16" style="stroke:#000000;stroke-width:5.76"/>
	<text x="454.16" y="2619.14" style="font-family:'Helvetica';font-size:99.99px;fill:#000000" text-anchor="middle">0</text>
	<line x1="1498.37" y1="2489.19" x2="1498.37" y2="2529.16" style="stroke:#000000;stroke-width:5.76"/>
	<text x="1498.37" y="2619.14" style="font-family:'Helvetica';font-size:99.99px;fill:#000000" text-anchor="middle">10</text>
	<line x1="2542.57" y1="2489.19" x2="2542.57" y2="2529.16" style="stroke:#000000;stroke-width:5.76"/>
	<text x="2542.57" y="2619.14" style="font-family:'Helvetica';font-size:99.99px;fill:#000000" text-anchor="middle">20</text>
	<line x1="3586.89" y1="2489.19" x2="3586.89" y2="2529.16" style="stroke:#000000;stroke-width:5.76"/>
	<text x="3586.89" y="2619.14" style="font-family:'Helvetica';font-size:99.99px;fill:#000000" text-anchor="middle">30</text>
	<text x="2124.91" y="2729.16" style="font-family:'Helvetica';font-size:99.99px;fill:#000000" text-anchor="middle">Days since 0.01 confirmed cases per 100 beds</text>
</svg>
