<?xml version="1.0" encoding="UTF-8" standalone="no"?>
<!-- This is a Stata 14.2 generated SVG file (http://www.stata.com) -->

<svg version="1.1" width="5.50in" height="4.00in" viewBox="0 0 3960 2880" xmlns="http://www.w3.org/2000/svg">
	<desc>Stata Graph - Graph</desc>
	<line x1="390.80" y1="2274.72" x2="3859.02" y2="2274.72" style="stroke:#FF0000;stroke-width:8.64"/>
	<path d="M537.69 2425.82 L537.69 2425.82 L621.23 2425.70 L704.76 2425.45 L788.29 2425.08 L871.82 2424.46 L955.35 2423.47 L1038.88 2422.11 L1122.41 2420.25 L1205.94 2417.78 L1289.47 2414.69 L1373.13 2410.73 L1456.66 2405.90 L1540.19 2400.08 L1623.72 2393.89 L1707.26 2387.21 L1790.79 2379.91 L1874.32 2371.25 L1957.85 2361.10 L2041.38 2349.10 L2124.91 2334.74 L2208.44 2317.91 L2291.97 2297.86 L2375.51 2274.35 L2459.04 2247.00 L2542.57 2215.57 L2626.22 2182.89 L2709.75 2154.18 L2793.28 2127.45 L2876.82 2101.71 L2960.35 2077.08 L3043.88 2054.31 L3127.41 2033.89 L3210.94 2016.45 L3294.47 2002.83 L3378.00 1993.80 L3461.53 1990.09 L3545.07 1992.56 L3628.60 2001.97 L3712.13 2019.17 L3795.66 2044.91 L3795.66 615.92 L3712.13 816.16 L3628.60 999.56 L3545.07 1166.75 L3461.53 1318.47 L3378.00 1455.59 L3294.47 1578.85 L3210.94 1689.24 L3127.41 1787.62 L3043.88 1874.87 L2960.35 1951.72 L2876.82 2019.04 L2793.28 2077.70 L2709.75 2128.20 L2626.22 2169.78 L2542.57 2200.96 L2459.04 2226.95 L2375.51 2250.96 L2291.97 2273.48 L2208.44 2294.27 L2124.91 2313.45 L2041.38 2330.78 L1957.85 2346.25 L1874.32 2359.99 L1790.79 2371.87 L1707.26 2382.14 L1623.72 2390.43 L1540.19 2396.74 L1456.66 2401.57 L1373.13 2405.40 L1289.47 2408.75 L1205.94 2411.47 L1122.41 2413.82 L1038.88 2415.80 L955.35 2417.53 L871.82 2419.02 L788.29 2420.25 L704.76 2421.24 L621.23 2422.11 L537.69 2422.73 L537.69 2425.82 Z" stroke-linecap="round" style="fill:#EBEBFF;stroke:#E6E6FF;stroke-width:3.00"/>
	<path d="M537.69 2424.96 L537.69 2424.96 L621.23 2424.71 L704.76 2424.21 L788.29 2423.60 L871.82 2422.85 L955.35 2421.74 L1038.88 2420.25 L1122.41 2418.40 L1205.94 2416.05 L1289.47 2412.95 L1373.13 2409.24 L1456.66 2404.66 L1540.19 2399.22 L1623.72 2392.90 L1707.26 2385.73 L1790.79 2377.56 L1874.32 2368.03 L1957.85 2356.77 L2041.38 2343.77 L2124.91 2328.55 L2208.44 2311.10 L2291.97 2290.81 L2375.51 2267.67 L2459.04 2241.18 L2542.57 2211.36 L2626.22 2179.18 L2709.75 2146.76 L2793.28 2113.10 L2876.82 2077.83 L2960.35 2040.95 L3043.88 2002.46 L3127.41 1962.86 L3210.94 1922.02 L3294.47 1880.44 L3378.00 1838.49 L3461.53 1796.29 L3545.07 1754.21 L3628.60 1712.63 L3712.13 1671.91 L3795.66 1632.56 L3795.66 1028.39 L3712.13 1163.41 L3628.60 1288.90 L3545.07 1405.10 L3461.53 1512.27 L3378.00 1610.90 L3294.47 1701.24 L3210.94 1783.66 L3127.41 1858.66 L3043.88 1926.60 L2960.35 1987.86 L2876.82 2042.93 L2793.28 2092.06 L2709.75 2135.74 L2626.22 2173.61 L2542.57 2205.17 L2459.04 2232.64 L2375.51 2257.77 L2291.97 2280.54 L2208.44 2301.08 L2124.91 2319.52 L2041.38 2335.98 L1957.85 2350.58 L1874.32 2363.20 L1790.79 2374.22 L1707.26 2383.62 L1623.72 2391.42 L1540.19 2397.73 L1456.66 2402.81 L1373.13 2407.01 L1289.47 2410.48 L1205.94 2413.32 L1122.41 2415.68 L1038.88 2417.66 L955.35 2419.26 L871.82 2420.50 L788.29 2421.62 L704.76 2422.48 L621.23 2423.10 L537.69 2423.72 L537.69 2424.96 Z" stroke-linecap="round" style="fill:#D6D6FF;stroke:#CCCCFF;stroke-width:3.00"/>
	<path d="M537.69 2424.83 L537.69 2424.83 L621.23 2424.46 L704.76 2424.09 L788.29 2423.47 L871.82 2422.61 L955.35 2421.49 L1038.88 2420.01 L1122.41 2418.15 L1205.94 2415.68 L1289.47 2412.71 L1373.13 2408.99 L1456.66 2404.41 L1540.19 2398.97 L1623.72 2392.78 L1707.26 2385.48 L1790.79 2377.19 L1874.32 2367.41 L1957.85 2356.15 L2041.38 2342.91 L2124.91 2327.56 L2208.44 2309.99 L2291.97 2289.69 L2375.51 2266.55 L2459.04 2240.19 L2542.57 2210.62 L2626.22 2178.56 L2709.75 2145.52 L2793.28 2110.75 L2876.82 2073.99 L2960.35 2035.13 L3043.88 1994.17 L3127.41 1951.35 L3210.94 1906.80 L3294.47 1860.64 L3378.00 1813.37 L3461.53 1764.85 L3545.07 1715.60 L3628.60 1665.85 L3712.13 1615.85 L3795.66 1565.86 L3795.66 1095.10 L3712.13 1219.59 L3628.60 1335.68 L3545.07 1443.59 L3461.53 1543.58 L3378.00 1636.03 L3294.47 1721.05 L3210.94 1799.01 L3127.41 1870.17 L3043.88 1935.02 L2960.35 1993.80 L2876.82 2046.77 L2793.28 2094.41 L2709.75 2136.98 L2626.22 2174.23 L2542.57 2205.79 L2459.04 2233.63 L2375.51 2258.88 L2291.97 2281.65 L2208.44 2302.19 L2124.91 2320.51 L2041.38 2336.84 L1957.85 2351.20 L1874.32 2363.70 L1790.79 2374.59 L1707.26 2383.87 L1623.72 2391.54 L1540.19 2397.85 L1456.66 2403.05 L1373.13 2407.26 L1289.47 2410.73 L1205.94 2413.57 L1122.41 2416.05 L1038.88 2417.90 L955.35 2419.51 L871.82 2420.75 L788.29 2421.86 L704.76 2422.61 L621.23 2423.35 L537.69 2423.84 L537.69 2424.83 Z" stroke-linecap="round" style="fill:#C2C2FF;stroke:#B3B3FF;stroke-width:3.00"/>
	<path d="M537.69 2424.71 L537.69 2424.71 L621.23 2424.34 L704.76 2423.97 L788.29 2423.22 L871.82 2422.36 L955.35 2421.24 L1038.88 2419.76 L1122.41 2417.90 L1205.94 2415.55 L1289.47 2412.46 L1373.13 2408.87 L1456.66 2404.29 L1540.19 2398.84 L1623.72 2392.66 L1707.26 2385.36 L1790.79 2376.94 L1874.32 2367.16 L1957.85 2355.65 L2041.38 2342.29 L2124.91 2326.94 L2208.44 2309.25 L2291.97 2288.95 L2375.51 2265.81 L2459.04 2239.57 L2542.57 2210.12 L2626.22 2178.07 L2709.75 2144.65 L2793.28 2109.26 L2876.82 2071.39 L2960.35 2031.17 L3043.88 1988.48 L3127.41 1943.55 L3210.94 1896.40 L3294.47 1847.40 L3378.00 1796.41 L3461.53 1743.69 L3545.07 1689.61 L3628.60 1634.29 L3712.13 1577.86 L3795.66 1520.81 L3795.66 1140.14 L3712.13 1257.46 L3628.60 1367.23 L3545.07 1469.58 L3461.53 1564.74 L3378.00 1652.98 L3294.47 1734.41 L3210.94 1809.28 L3127.41 1877.96 L3043.88 1940.71 L2960.35 1997.76 L2876.82 2049.36 L2793.28 2096.02 L2709.75 2137.72 L2626.22 2174.60 L2542.57 2206.28 L2459.04 2234.25 L2375.51 2259.62 L2291.97 2282.39 L2208.44 2302.94 L2124.91 2321.25 L2041.38 2337.46 L1957.85 2351.69 L1874.32 2364.07 L1790.79 2374.84 L1707.26 2383.99 L1623.72 2391.67 L1540.19 2397.98 L1456.66 2403.18 L1373.13 2407.38 L1289.47 2410.97 L1205.94 2413.82 L1122.41 2416.17 L1038.88 2418.15 L955.35 2419.76 L871.82 2421.00 L788.29 2421.99 L704.76 2422.73 L621.23 2423.47 L537.69 2423.97 L537.69 2424.71 Z" stroke-linecap="round" style="fill:#ADADFF;stroke:#9999FF;stroke-width:3.00"/>
	<path d="M537.69 2424.71 L537.69 2424.71 L621.23 2424.34 L704.76 2423.84 L788.29 2423.10 L871.82 2422.23 L955.35 2421.12 L1038.88 2419.64 L1122.41 2417.78 L1205.94 2415.30 L1289.47 2412.33 L1373.13 2408.62 L1456.66 2404.17 L1540.19 2398.84 L1623.72 2392.53 L1707.26 2385.23 L1790.79 2376.69 L1874.32 2366.79 L1957.85 2355.28 L2041.38 2341.92 L2124.91 2326.45 L2208.44 2308.63 L2291.97 2288.33 L2375.51 2265.19 L2459.04 2239.08 L2542.57 2209.75 L2626.22 2177.82 L2709.75 2144.04 L2793.28 2108.02 L2876.82 2069.29 L2960.35 2027.95 L3043.88 1984.02 L3127.41 1937.37 L3210.94 1888.24 L3294.47 1836.75 L3378.00 1782.92 L3461.53 1726.86 L3545.07 1668.94 L3628.60 1609.17 L3712.13 1547.79 L3795.66 1485.05 L3795.66 1175.91 L3712.13 1287.54 L3628.60 1392.35 L3545.07 1490.24 L3461.53 1581.57 L3378.00 1666.47 L3294.47 1745.05 L3210.94 1817.45 L3127.41 1884.15 L3043.88 1945.16 L2960.35 2000.85 L2876.82 2051.47 L2793.28 2097.26 L2709.75 2138.47 L2626.22 2174.97 L2542.57 2206.66 L2459.04 2234.75 L2375.51 2260.12 L2291.97 2283.01 L2208.44 2303.55 L2124.91 2321.75 L2041.38 2337.96 L1957.85 2352.07 L1874.32 2364.44 L1790.79 2375.08 L1707.26 2384.12 L1623.72 2391.79 L1540.19 2398.10 L1456.66 2403.30 L1373.13 2407.51 L1289.47 2411.10 L1205.94 2413.94 L1122.41 2416.29 L1038.88 2418.27 L955.35 2419.88 L871.82 2421.12 L788.29 2422.11 L704.76 2422.85 L621.23 2423.47 L537.69 2423.97 L537.69 2424.71 Z" stroke-linecap="round" style="fill:#9999FF;stroke:#8080FF;stroke-width:3.00"/>
	<path d="M537.69 2424.59 L537.69 2424.59 L621.23 2424.21 L704.76 2423.72 L788.29 2423.10 L871.82 2422.11 L955.35 2421.00 L1038.88 2419.51 L1122.41 2417.66 L1205.94 2415.18 L1289.47 2412.21 L1373.13 2408.62 L1456.66 2404.04 L1540.19 2398.72 L1623.72 2392.41 L1707.26 2385.11 L1790.79 2376.57 L1874.32 2366.55 L1957.85 2354.91 L2041.38 2341.42 L2124.91 2325.95 L2208.44 2308.13 L2291.97 2287.84 L2375.51 2264.70 L2459.04 2238.71 L2542.57 2209.50 L2626.22 2177.45 L2709.75 2143.42 L2793.28 2106.91 L2876.82 2067.56 L2960.35 2025.23 L3043.88 1980.19 L3127.41 1932.05 L3210.94 1881.18 L3294.47 1827.60 L3378.00 1771.29 L3461.53 1712.51 L3545.07 1651.25 L3628.60 1587.64 L3712.13 1521.93 L3795.66 1454.36 L3795.66 1206.60 L3712.13 1313.40 L3628.60 1413.89 L3545.07 1508.06 L3461.53 1596.05 L3378.00 1677.98 L3294.47 1754.09 L3210.94 1824.50 L3127.41 1889.47 L3043.88 1949.00 L2960.35 2003.58 L2876.82 2053.20 L2793.28 2098.25 L2709.75 2138.96 L2626.22 2175.22 L2542.57 2206.90 L2459.04 2235.24 L2375.51 2260.61 L2291.97 2283.51 L2208.44 2304.05 L2124.91 2322.24 L2041.38 2338.33 L1957.85 2352.44 L1874.32 2364.57 L1790.79 2375.21 L1707.26 2384.24 L1623.72 2391.91 L1540.19 2398.10 L1456.66 2403.30 L1373.13 2407.63 L1289.47 2411.22 L1205.94 2414.07 L1122.41 2416.54 L1038.88 2418.40 L955.35 2420.01 L871.82 2421.24 L788.29 2422.23 L704.76 2422.98 L621.23 2423.60 L537.69 2424.09 L537.69 2424.59 Z" stroke-linecap="round" style="fill:#8585FF;stroke:#6666FF;stroke-width:3.00"/>
	<path d="M537.69 2424.59 L537.69 2424.59 L621.23 2424.09 L704.76 2423.60 L788.29 2422.98 L871.82 2422.11 L955.35 2420.87 L1038.88 2419.39 L1122.41 2417.53 L1205.94 2415.06 L1289.47 2412.09 L1373.13 2408.50 L1456.66 2404.04 L1540.19 2398.72 L1623.72 2392.41 L1707.26 2384.98 L1790.79 2376.45 L1874.32 2366.42 L1957.85 2354.66 L2041.38 2341.18 L2124.91 2325.58 L2208.44 2307.64 L2291.97 2287.34 L2375.51 2264.32 L2459.04 2238.34 L2542.57 2209.25 L2626.22 2177.20 L2709.75 2142.92 L2793.28 2105.92 L2876.82 2065.95 L2960.35 2022.88 L3043.88 1976.72 L3127.41 1927.34 L3210.94 1874.87 L3294.47 1819.43 L3378.00 1760.89 L3461.53 1699.51 L3545.07 1635.28 L3628.60 1568.33 L3712.13 1498.78 L3795.66 1426.76 L3795.66 1234.20 L3712.13 1336.67 L3628.60 1433.19 L3545.07 1523.91 L3461.53 1609.05 L3378.00 1688.37 L3294.47 1762.26 L3210.94 1830.81 L3127.41 1894.18 L3043.88 1952.46 L2960.35 2005.93 L2876.82 2054.81 L2793.28 2099.24 L2709.75 2139.46 L2626.22 2175.47 L2542.57 2207.27 L2459.04 2235.61 L2375.51 2261.11 L2291.97 2284.00 L2208.44 2304.54 L2124.91 2322.61 L2041.38 2338.70 L1957.85 2352.68 L1874.32 2364.81 L1790.79 2375.33 L1707.26 2384.37 L1623.72 2391.91 L1540.19 2398.23 L1456.66 2403.42 L1373.13 2407.76 L1289.47 2411.34 L1205.94 2414.19 L1122.41 2416.67 L1038.88 2418.52 L955.35 2420.13 L871.82 2421.37 L788.29 2422.36 L704.76 2423.10 L621.23 2423.60 L537.69 2424.09 L537.69 2424.59 Z" stroke-linecap="round" style="fill:#7171FF;stroke:#4D4DFF;stroke-width:3.00"/>
	<path d="M537.69 2424.46 L537.69 2424.46 L621.23 2424.09 L704.76 2423.60 L788.29 2422.85 L871.82 2421.99 L955.35 2420.75 L1038.88 2419.26 L1122.41 2417.41 L1205.94 2414.93 L1289.47 2411.96 L1373.13 2408.37 L1456.66 2403.92 L1540.19 2398.60 L1623.72 2392.29 L1707.26 2384.98 L1790.79 2376.32 L1874.32 2366.17 L1957.85 2354.42 L2041.38 2340.80 L2124.91 2325.09 L2208.44 2307.27 L2291.97 2286.85 L2375.51 2263.83 L2459.04 2237.96 L2542.57 2208.88 L2626.22 2177.08 L2709.75 2142.55 L2793.28 2105.05 L2876.82 2064.46 L2960.35 2020.65 L3043.88 1973.50 L3127.41 1923.01 L3210.94 1869.05 L3294.47 1811.88 L3378.00 1751.36 L3461.53 1687.51 L3545.07 1620.56 L3628.60 1550.39 L3712.13 1477.25 L3795.66 1401.27 L3795.66 1259.69 L3712.13 1358.07 L3628.60 1451.14 L3545.07 1538.76 L3461.53 1621.05 L3378.00 1698.03 L3294.47 1769.93 L3210.94 1836.63 L3127.41 1898.51 L3043.88 1955.68 L2960.35 2008.15 L2876.82 2056.29 L2793.28 2100.10 L2709.75 2139.95 L2626.22 2175.72 L2542.57 2207.52 L2459.04 2235.98 L2375.51 2261.48 L2291.97 2284.50 L2208.44 2304.92 L2124.91 2322.98 L2041.38 2338.95 L1957.85 2352.93 L1874.32 2365.06 L1790.79 2375.46 L1707.26 2384.37 L1623.72 2392.04 L1540.19 2398.23 L1456.66 2403.55 L1373.13 2407.88 L1289.47 2411.47 L1205.94 2414.31 L1122.41 2416.79 L1038.88 2418.65 L955.35 2420.25 L871.82 2421.37 L788.29 2422.36 L704.76 2423.10 L621.23 2423.72 L537.69 2424.21 L537.69 2424.46 Z" stroke-linecap="round" style="fill:#5C5CFF;stroke:#3333FF;stroke-width:3.00"/>
	<path d="M537.69 2424.46 L537.69 2424.46 L621.23 2423.97 L704.76 2423.47 L788.29 2422.73 L871.82 2421.86 L955.35 2420.63 L1038.88 2419.14 L1122.41 2417.28 L1205.94 2414.81 L1289.47 2411.96 L1373.13 2408.25 L1456.66 2403.92 L1540.19 2398.60 L1623.72 2392.29 L1707.26 2384.86 L1790.79 2376.20 L1874.32 2365.93 L1957.85 2354.17 L2041.38 2340.43 L2124.91 2324.84 L2208.44 2306.90 L2291.97 2286.48 L2375.51 2263.46 L2459.04 2237.59 L2542.57 2208.64 L2626.22 2176.83 L2709.75 2142.06 L2793.28 2104.19 L2876.82 2063.10 L2960.35 2018.55 L3043.88 1970.41 L3127.41 1918.80 L3210.94 1863.49 L3294.47 1804.70 L3378.00 1742.21 L3461.53 1676.12 L3545.07 1606.45 L3628.60 1533.43 L3712.13 1456.83 L3795.66 1377.01 L3795.66 1283.95 L3712.13 1378.49 L3628.60 1468.09 L3545.07 1552.74 L3461.53 1632.44 L3378.00 1707.18 L3294.47 1777.11 L3210.94 1842.20 L3127.41 1902.72 L3043.88 1958.78 L2960.35 2010.38 L2876.82 2057.66 L2793.28 2100.97 L2709.75 2140.32 L2626.22 2175.96 L2542.57 2207.77 L2459.04 2236.23 L2375.51 2261.97 L2291.97 2284.87 L2208.44 2305.29 L2124.91 2323.36 L2041.38 2339.32 L1957.85 2353.18 L1874.32 2365.18 L1790.79 2375.58 L1707.26 2384.49 L1623.72 2392.04 L1540.19 2398.35 L1456.66 2403.55 L1373.13 2407.88 L1289.47 2411.47 L1205.94 2414.44 L1122.41 2416.79 L1038.88 2418.77 L955.35 2420.25 L871.82 2421.49 L788.29 2422.48 L704.76 2423.22 L621.23 2423.84 L537.69 2424.21 L537.69 2424.46 Z" stroke-linecap="round" style="fill:#4747FF;stroke:#1919FF;stroke-width:3.00"/>
	<path d="M537.69 2424.34 L537.69 2424.34 L621.23 2423.97 L704.76 2423.47 L788.29 2422.73 L871.82 2421.74 L955.35 2420.63 L1038.88 2419.02 L1122.41 2417.16 L1205.94 2414.81 L1289.47 2411.84 L1373.13 2408.25 L1456.66 2403.80 L1540.19 2398.47 L1623.72 2392.16 L1707.26 2384.74 L1790.79 2376.07 L1874.32 2365.80 L1957.85 2353.92 L2041.38 2340.19 L2124.91 2324.47 L2208.44 2306.40 L2291.97 2286.11 L2375.51 2263.09 L2459.04 2237.22 L2542.57 2208.51 L2626.22 2176.58 L2709.75 2141.68 L2793.28 2103.44 L2876.82 2061.74 L2960.35 2016.45 L3043.88 1967.44 L3127.41 1914.72 L3210.94 1858.16 L3294.47 1797.77 L3378.00 1733.42 L3461.53 1665.11 L3545.07 1592.96 L3628.60 1516.97 L3712.13 1437.15 L3795.66 1353.50 L3795.66 1307.34 L3712.13 1398.29 L3628.60 1484.55 L3545.07 1566.23 L3461.53 1643.45 L3378.00 1715.97 L3294.47 1784.04 L3210.94 1847.65 L3127.41 1906.80 L3043.88 1961.62 L2960.35 2012.36 L2876.82 2059.02 L2793.28 2101.84 L2709.75 2140.82 L2626.22 2176.21 L2542.57 2208.02 L2459.04 2236.60 L2375.51 2262.34 L2291.97 2285.24 L2208.44 2305.66 L2124.91 2323.73 L2041.38 2339.57 L1957.85 2353.43 L1874.32 2365.43 L1790.79 2375.70 L1707.26 2384.61 L1623.72 2392.04 L1540.19 2398.35 L1456.66 2403.67 L1373.13 2408.00 L1289.47 2411.59 L1205.94 2414.56 L1122.41 2416.91 L1038.88 2418.89 L955.35 2420.38 L871.82 2421.62 L788.29 2422.61 L704.76 2423.22 L621.23 2423.84 L537.69 2424.21 L537.69 2424.34 Z" stroke-linecap="round" style="fill:#3333FF;stroke:#0000FF;stroke-width:3.00"/>
	<circle cx="537.57" cy="2424.96" r="22.03" style="fill:#000000;stroke:#000000;stroke-width:8.64"/>
	<circle cx="621.10" cy="2424.59" r="22.03" style="fill:#000000;stroke:#000000;stroke-width:8.64"/>
	<circle cx="704.76" cy="2423.84" r="22.03" style="fill:#000000;stroke:#000000;stroke-width:8.64"/>
	<circle cx="788.29" cy="2423.22" r="22.03" style="fill:#000000;stroke:#000000;stroke-width:8.64"/>
	<circle cx="871.82" cy="2422.73" r="22.03" style="fill:#000000;stroke:#000000;stroke-width:8.64"/>
	<circle cx="955.35" cy="2421.00" r="22.03" style="fill:#000000;stroke:#000000;stroke-width:8.64"/>
	<circle cx="1038.88" cy="2419.26" r="22.03" style="fill:#000000;stroke:#000000;stroke-width:8.64"/>
	<circle cx="1122.41" cy="2417.66" r="22.03" style="fill:#000000;stroke:#000000;stroke-width:8.64"/>
	<circle cx="1205.94" cy="2413.82" r="22.03" style="fill:#000000;stroke:#000000;stroke-width:8.64"/>
	<circle cx="1289.47" cy="2412.71" r="22.03" style="fill:#000000;stroke:#000000;stroke-width:8.64"/>
	<circle cx="1373.01" cy="2408.13" r="22.03" style="fill:#000000;stroke:#000000;stroke-width:8.64"/>
	<circle cx="1456.54" cy="2404.04" r="22.03" style="fill:#000000;stroke:#000000;stroke-width:8.64"/>
	<circle cx="1540.07" cy="2398.72" r="22.03" style="fill:#000000;stroke:#000000;stroke-width:8.64"/>
	<circle cx="1623.60" cy="2393.40" r="22.03" style="fill:#000000;stroke:#000000;stroke-width:8.64"/>
	<circle cx="1707.13" cy="2384.74" r="22.03" style="fill:#000000;stroke:#000000;stroke-width:8.64"/>
	<circle cx="1790.66" cy="2374.34" r="22.03" style="fill:#000000;stroke:#000000;stroke-width:8.64"/>
	<circle cx="1874.19" cy="2361.97" r="22.03" style="fill:#000000;stroke:#000000;stroke-width:8.64"/>
	<circle cx="1957.85" cy="2355.16" r="22.03" style="fill:#000000;stroke:#000000;stroke-width:8.64"/>
	<circle cx="2041.38" cy="2339.07" r="22.03" style="fill:#000000;stroke:#000000;stroke-width:8.64"/>
	<circle cx="2124.91" cy="2320.76" r="22.03" style="fill:#000000;stroke:#000000;stroke-width:8.64"/>
	<circle cx="2208.44" cy="2303.06" r="22.03" style="fill:#000000;stroke:#000000;stroke-width:8.64"/>
	<circle cx="2291.97" cy="2302.44" r="22.03" style="fill:#000000;stroke:#000000;stroke-width:8.64"/>
	<circle cx="2375.51" cy="2259.25" r="22.03" style="fill:#000000;stroke:#000000;stroke-width:8.64"/>
	<circle cx="2459.04" cy="2231.65" r="22.03" style="fill:#000000;stroke:#000000;stroke-width:8.64"/>
	<circle cx="2542.57" cy="2207.15" r="22.03" style="fill:#000000;stroke:#000000;stroke-width:8.64"/>
	<circle cx="2626.10" cy="2178.07" r="22.03" style="fill:#000000;stroke:#000000;stroke-width:8.64"/>
	<line x1="390.80" y1="2489.19" x2="390.80" y2="100.86" style="stroke:#000000;stroke-width:5.76"/>
	<line x1="390.80" y1="2425.45" x2="350.83" y2="2425.45" style="stroke:#000000;stroke-width:5.76"/>
	<text x="300.72" y="2425.45" style="font-family:'Helvetica';font-size:99.99px;fill:#000000" transform="rotate(-90 300.72,2425.45)" text-anchor="middle">0</text>
	<line x1="390.80" y1="1671.67" x2="350.83" y2="1671.67" style="stroke:#000000;stroke-width:5.76"/>
	<text x="300.72" y="1671.67" style="font-family:'Helvetica';font-size:99.99px;fill:#000000" transform="rotate(-90 300.72,1671.67)" text-anchor="middle">50</text>
	<line x1="390.80" y1="917.88" x2="350.83" y2="917.88" style="stroke:#000000;stroke-width:5.76"/>
	<text x="300.72" y="917.88" style="font-family:'Helvetica';font-size:99.99px;fill:#000000" transform="rotate(-90 300.72,917.88)" text-anchor="middle">100</text>
	<line x1="390.80" y1="164.22" x2="350.83" y2="164.22" style="stroke:#000000;stroke-width:5.76"/>
	<text x="300.72" y="164.22" style="font-family:'Helvetica';font-size:99.99px;fill:#000000" transform="rotate(-90 300.72,164.22)" text-anchor="middle">150</text>
	<text x="190.71" y="1294.96" style="font-family:'Helvetica';font-size:99.99px;fill:#000000" transform="rotate(-90 190.71,1294.96)" text-anchor="middle">Confirmed cases per 100 beds</text>
	<line x1="390.80" y1="2489.19" x2="3859.02" y2="2489.19" style="stroke:#000000;stroke-width:5.76"/>
	<line x1="454.16" y1="2489.19" x2="454.16" y2="2529.16" style="stroke:#000000;stroke-width:5.76"/>
	<text x="454.16" y="2619.14" style="font-family:'Helvetica';font-size:99.99px;fill:#000000" text-anchor="middle">0</text>
	<line x1="1289.47" y1="2489.19" x2="1289.47" y2="2529.16" style="stroke:#000000;stroke-width:5.76"/>
	<text x="1289.47" y="2619.14" style="font-family:'Helvetica';font-size:99.99px;fill:#000000" text-anchor="middle">10</text>
	<line x1="2124.91" y1="2489.19" x2="2124.91" y2="2529.16" style="stroke:#000000;stroke-width:5.76"/>
	<text x="2124.91" y="2619.14" style="font-family:'Helvetica';font-size:99.99px;fill:#000000" text-anchor="middle">20</text>
	<line x1="2960.35" y1="2489.19" x2="2960.35" y2="2529.16" style="stroke:#000000;stroke-width:5.76"/>
	<text x="2960.35" y="2619.14" style="font-family:'Helvetica';font-size:99.99px;fill:#000000" text-anchor="middle">30</text>
	<line x1="3795.66" y1="2489.19" x2="3795.66" y2="2529.16" style="stroke:#000000;stroke-width:5.76"/>
	<text x="3795.66" y="2619.14" style="font-family:'Helvetica';font-size:99.99px;fill:#000000" text-anchor="middle">40</text>
	<text x="2124.91" y="2729.16" style="font-family:'Helvetica';font-size:99.99px;fill:#000000" text-anchor="middle">Days since 0.01 confirmed cases per 100 beds</text>
</svg>
