<?xml version="1.0" encoding="UTF-8" standalone="no"?>
<!-- This is a Stata 14.2 generated SVG file (http://www.stata.com) -->

<svg version="1.1" width="5.50in" height="4.00in" viewBox="0 0 3960 2880" xmlns="http://www.w3.org/2000/svg">
	<desc>Stata Graph - Graph</desc>
	<line x1="390.80" y1="1596.55" x2="3859.02" y2="1596.55" style="stroke:#FF0000;stroke-width:8.64"/>
	<path d="M582.62 1671.91 L582.62 1671.91 L711.19 1672.04 L839.77 1672.04 L968.22 1672.04 L1096.80 1672.04 L1225.25 1672.04 L1353.83 1672.04 L1482.28 1671.91 L1610.85 1671.79 L1739.31 1671.42 L1867.88 1670.92 L1996.46 1670.31 L2124.91 1670.06 L2253.49 1670.18 L2381.94 1671.17 L2510.52 1673.28 L2638.97 1677.61 L2767.55 1685.40 L2896.12 1698.27 L3024.57 1718.82 L3153.15 1750.75 L3281.60 1798.64 L3410.18 1869.05 L3538.63 1970.53 L3667.21 2113.96 L3795.66 2313.45 L3795.66 213.72 L3667.21 626.07 L3538.63 930.63 L3410.18 1152.89 L3281.60 1313.28 L3153.15 1427.62 L3024.57 1507.94 L2896.12 1563.63 L2767.55 1601.62 L2638.97 1627.24 L2510.52 1644.07 L2381.94 1654.96 L2253.49 1661.89 L2124.91 1666.10 L1996.46 1668.57 L1867.88 1669.81 L1739.31 1670.43 L1610.85 1670.80 L1482.28 1671.17 L1353.83 1671.42 L1225.25 1671.54 L1096.80 1671.67 L968.22 1671.79 L839.77 1671.79 L711.19 1671.91 L582.62 1671.91 L582.62 1671.91 Z" stroke-linecap="round" style="fill:#EBEBFF;stroke:#E6E6FF;stroke-width:3.00"/>
	<path d="M582.62 1671.91 L582.62 1671.91 L711.19 1671.91 L839.77 1671.91 L968.22 1671.91 L1096.80 1671.91 L1225.25 1671.91 L1353.83 1671.79 L1482.28 1671.67 L1610.85 1671.54 L1739.31 1671.17 L1867.88 1670.55 L1996.46 1669.81 L2124.91 1668.94 L2253.49 1667.83 L2381.94 1666.47 L2510.52 1664.86 L2638.97 1663.13 L2767.55 1661.27 L2896.12 1659.42 L3024.57 1657.93 L3153.15 1657.44 L3281.60 1658.55 L3410.18 1662.39 L3538.63 1670.31 L3667.21 1684.54 L3795.66 1707.43 L3795.66 819.75 L3667.21 1055.50 L3538.63 1230.73 L3410.18 1359.56 L3281.60 1453.37 L3153.15 1520.81 L3024.57 1568.83 L2896.12 1602.49 L2767.55 1625.88 L2638.97 1641.72 L2510.52 1652.49 L2381.94 1659.66 L2253.49 1664.24 L2124.91 1667.21 L1996.46 1669.07 L1867.88 1670.06 L1739.31 1670.68 L1610.85 1671.05 L1482.28 1671.42 L1353.83 1671.54 L1225.25 1671.67 L1096.80 1671.79 L968.22 1671.79 L839.77 1671.91 L711.19 1671.91 L582.62 1671.91 L582.62 1671.91 Z" stroke-linecap="round" style="fill:#D6D6FF;stroke:#CCCCFF;stroke-width:3.00"/>
	<path d="M582.62 1671.91 L582.62 1671.91 L711.19 1671.91 L839.77 1671.91 L968.22 1671.91 L1096.80 1671.91 L1225.25 1671.91 L1353.83 1671.79 L1482.28 1671.67 L1610.85 1671.42 L1739.31 1671.05 L1867.88 1670.55 L1996.46 1669.69 L2124.91 1668.70 L2253.49 1667.46 L2381.94 1665.73 L2510.52 1663.50 L2638.97 1660.78 L2767.55 1657.31 L2896.12 1653.10 L3024.57 1648.15 L3153.15 1642.34 L3281.60 1635.90 L3410.18 1628.97 L3538.63 1621.79 L3667.21 1614.99 L3795.66 1609.42 L3795.66 917.76 L3667.21 1124.92 L3538.63 1279.24 L3410.18 1393.10 L3281.60 1476.01 L3153.15 1535.91 L3024.57 1578.73 L2896.12 1608.80 L2767.55 1629.71 L2638.97 1644.07 L2510.52 1653.85 L2381.94 1660.41 L2253.49 1664.61 L2124.91 1667.46 L1996.46 1669.19 L1867.88 1670.18 L1739.31 1670.80 L1610.85 1671.17 L1482.28 1671.42 L1353.83 1671.54 L1225.25 1671.67 L1096.80 1671.79 L968.22 1671.91 L839.77 1671.91 L711.19 1671.91 L582.62 1671.91 L582.62 1671.91 Z" stroke-linecap="round" style="fill:#C2C2FF;stroke:#B3B3FF;stroke-width:3.00"/>
	<path d="M582.62 1671.91 L582.62 1671.91 L711.19 1671.91 L839.77 1671.91 L968.22 1671.91 L1096.80 1671.91 L1225.25 1671.91 L1353.83 1671.79 L1482.28 1671.67 L1610.85 1671.42 L1739.31 1671.05 L1867.88 1670.43 L1996.46 1669.69 L2124.91 1668.57 L2253.49 1667.09 L2381.94 1665.23 L2510.52 1662.63 L2638.97 1659.17 L2767.55 1654.71 L2896.12 1648.90 L3024.57 1641.47 L3153.15 1632.19 L3281.60 1620.68 L3410.18 1606.33 L3538.63 1589.00 L3667.21 1568.21 L3795.66 1543.33 L3795.66 983.97 L3667.21 1171.83 L3538.63 1312.04 L3410.18 1415.62 L3281.60 1491.36 L3153.15 1546.18 L3024.57 1585.29 L2896.12 1613.01 L2767.55 1632.31 L2638.97 1645.68 L2510.52 1654.84 L2381.94 1660.90 L2253.49 1664.86 L2124.91 1667.58 L1996.46 1669.19 L1867.88 1670.18 L1739.31 1670.80 L1610.85 1671.17 L1482.28 1671.42 L1353.83 1671.67 L1225.25 1671.79 L1096.80 1671.79 L968.22 1671.91 L839.77 1671.91 L711.19 1671.91 L582.62 1671.91 L582.62 1671.91 Z" stroke-linecap="round" style="fill:#ADADFF;stroke:#9999FF;stroke-width:3.00"/>
	<path d="M582.62 1671.91 L582.62 1671.91 L711.19 1671.91 L839.77 1671.91 L968.22 1671.91 L1096.80 1671.91 L1225.25 1671.91 L1353.83 1671.79 L1482.28 1671.67 L1610.85 1671.42 L1739.31 1671.05 L1867.88 1670.43 L1996.46 1669.56 L2124.91 1668.45 L2253.49 1666.96 L2381.94 1664.74 L2510.52 1661.89 L2638.97 1657.93 L2767.55 1652.61 L2896.12 1645.56 L3024.57 1636.27 L3153.15 1624.15 L3281.60 1608.43 L3410.18 1588.50 L3538.63 1563.01 L3667.21 1530.96 L3795.66 1490.74 L3795.66 1036.56 L3667.21 1209.08 L3538.63 1338.03 L3410.18 1433.56 L3281.60 1503.49 L3153.15 1554.22 L3024.57 1590.61 L2896.12 1616.35 L2767.55 1634.42 L2638.97 1647.04 L2510.52 1655.58 L2381.94 1661.27 L2253.49 1665.11 L2124.91 1667.58 L1996.46 1669.19 L1867.88 1670.18 L1739.31 1670.80 L1610.85 1671.17 L1482.28 1671.42 L1353.83 1671.67 L1225.25 1671.79 L1096.80 1671.79 L968.22 1671.91 L839.77 1671.91 L711.19 1671.91 L582.62 1671.91 L582.62 1671.91 Z" stroke-linecap="round" style="fill:#9999FF;stroke:#8080FF;stroke-width:3.00"/>
	<path d="M582.62 1671.91 L582.62 1671.91 L711.19 1671.91 L839.77 1671.91 L968.22 1671.91 L1096.80 1671.91 L1225.25 1671.79 L1353.83 1671.79 L1482.28 1671.67 L1610.85 1671.42 L1739.31 1671.05 L1867.88 1670.43 L1996.46 1669.56 L2124.91 1668.45 L2253.49 1666.72 L2381.94 1664.49 L2510.52 1661.27 L2638.97 1656.82 L2767.55 1650.75 L2896.12 1642.59 L3024.57 1631.69 L3153.15 1617.22 L3281.60 1598.03 L3410.18 1573.04 L3538.63 1540.61 L3667.21 1498.91 L3795.66 1445.57 L3795.66 1081.61 L3667.21 1241.00 L3538.63 1360.43 L3410.18 1448.91 L3281.60 1513.88 L3153.15 1561.16 L3024.57 1595.06 L2896.12 1619.32 L2767.55 1636.27 L2638.97 1648.03 L2510.52 1656.20 L2381.94 1661.64 L2253.49 1665.36 L2124.91 1667.71 L1996.46 1669.32 L1867.88 1670.18 L1739.31 1670.80 L1610.85 1671.17 L1482.28 1671.54 L1353.83 1671.67 L1225.25 1671.79 L1096.80 1671.79 L968.22 1671.91 L839.77 1671.91 L711.19 1671.91 L582.62 1671.91 L582.62 1671.91 Z" stroke-linecap="round" style="fill:#8585FF;stroke:#6666FF;stroke-width:3.00"/>
	<path d="M582.62 1671.91 L582.62 1671.91 L711.19 1671.91 L839.77 1671.91 L968.22 1671.91 L1096.80 1671.91 L1225.25 1671.79 L1353.83 1671.79 L1482.28 1671.67 L1610.85 1671.42 L1739.31 1671.05 L1867.88 1670.43 L1996.46 1669.56 L2124.91 1668.33 L2253.49 1666.59 L2381.94 1664.12 L2510.52 1660.65 L2638.97 1655.83 L2767.55 1649.14 L2896.12 1639.99 L3024.57 1627.61 L3153.15 1610.90 L3281.60 1588.75 L3410.18 1559.30 L3538.63 1520.56 L3667.21 1470.32 L3795.66 1405.10 L3795.66 1122.08 L3667.21 1269.71 L3538.63 1380.47 L3410.18 1462.77 L3281.60 1523.29 L3153.15 1567.34 L3024.57 1599.15 L2896.12 1621.92 L2767.55 1637.88 L2638.97 1649.02 L2510.52 1656.69 L2381.94 1662.01 L2253.49 1665.48 L2124.91 1667.83 L1996.46 1669.32 L1867.88 1670.31 L1739.31 1670.80 L1610.85 1671.30 L1482.28 1671.54 L1353.83 1671.67 L1225.25 1671.79 L1096.80 1671.79 L968.22 1671.91 L839.77 1671.91 L711.19 1671.91 L582.62 1671.91 L582.62 1671.91 Z" stroke-linecap="round" style="fill:#7171FF;stroke:#4D4DFF;stroke-width:3.00"/>
	<path d="M582.62 1671.91 L582.62 1671.91 L711.19 1671.91 L839.77 1671.91 L968.22 1671.91 L1096.80 1671.91 L1225.25 1671.79 L1353.83 1671.79 L1482.28 1671.54 L1610.85 1671.42 L1739.31 1670.92 L1867.88 1670.43 L1996.46 1669.56 L2124.91 1668.20 L2253.49 1666.47 L2381.94 1663.87 L2510.52 1660.16 L2638.97 1654.96 L2767.55 1647.66 L2896.12 1637.63 L3024.57 1623.90 L3153.15 1605.21 L3281.60 1579.97 L3410.18 1546.43 L3538.63 1502.00 L3667.21 1443.71 L3795.66 1367.60 L3795.66 1159.70 L3667.21 1296.32 L3538.63 1399.04 L3410.18 1475.52 L3281.60 1531.95 L3153.15 1573.16 L3024.57 1602.98 L2896.12 1624.27 L2767.55 1639.37 L2638.97 1649.89 L2510.52 1657.19 L2381.94 1662.26 L2253.49 1665.60 L2124.91 1667.83 L1996.46 1669.32 L1867.88 1670.31 L1739.31 1670.92 L1610.85 1671.30 L1482.28 1671.54 L1353.83 1671.67 L1225.25 1671.79 L1096.80 1671.79 L968.22 1671.91 L839.77 1671.91 L711.19 1671.91 L582.62 1671.91 L582.62 1671.91 Z" stroke-linecap="round" style="fill:#5C5CFF;stroke:#3333FF;stroke-width:3.00"/>
	<path d="M582.62 1671.91 L582.62 1671.91 L711.19 1671.91 L839.77 1671.91 L968.22 1671.91 L1096.80 1671.91 L1225.25 1671.79 L1353.83 1671.79 L1482.28 1671.54 L1610.85 1671.30 L1739.31 1670.92 L1867.88 1670.43 L1996.46 1669.44 L2124.91 1668.20 L2253.49 1666.35 L2381.94 1663.62 L2510.52 1659.66 L2638.97 1654.09 L2767.55 1646.30 L2896.12 1635.28 L3024.57 1620.31 L3153.15 1599.64 L3281.60 1571.80 L3410.18 1534.30 L3538.63 1484.43 L3667.21 1418.47 L3795.66 1331.96 L3795.66 1195.21 L3667.21 1321.57 L3538.63 1416.73 L3410.18 1487.65 L3281.60 1540.24 L3153.15 1578.60 L3024.57 1606.57 L2896.12 1626.62 L2767.55 1640.85 L2638.97 1650.75 L2510.52 1657.68 L2381.94 1662.51 L2253.49 1665.73 L2124.91 1667.95 L1996.46 1669.32 L1867.88 1670.31 L1739.31 1670.92 L1610.85 1671.30 L1482.28 1671.54 L1353.83 1671.67 L1225.25 1671.79 L1096.80 1671.91 L968.22 1671.91 L839.77 1671.91 L711.19 1671.91 L582.62 1671.91 L582.62 1671.91 Z" stroke-linecap="round" style="fill:#4747FF;stroke:#1919FF;stroke-width:3.00"/>
	<path d="M582.62 1671.91 L582.62 1671.91 L711.19 1671.91 L839.77 1671.91 L968.22 1671.91 L1096.80 1671.91 L1225.25 1671.79 L1353.83 1671.67 L1482.28 1671.54 L1610.85 1671.30 L1739.31 1670.92 L1867.88 1670.31 L1996.46 1669.44 L2124.91 1668.08 L2253.49 1666.22 L2381.94 1663.25 L2510.52 1659.17 L2638.97 1653.23 L2767.55 1644.81 L2896.12 1633.18 L3024.57 1616.84 L3153.15 1594.32 L3281.60 1563.88 L3410.18 1522.54 L3538.63 1467.35 L3667.21 1393.96 L3795.66 1297.56 L3795.66 1229.74 L3667.21 1345.95 L3538.63 1433.69 L3410.18 1499.40 L3281.60 1548.16 L3153.15 1583.93 L3024.57 1610.04 L2896.12 1628.72 L2767.55 1642.21 L2638.97 1651.62 L2510.52 1658.18 L2381.94 1662.76 L2253.49 1665.85 L2124.91 1667.95 L1996.46 1669.44 L1867.88 1670.31 L1739.31 1670.92 L1610.85 1671.30 L1482.28 1671.54 L1353.83 1671.67 L1225.25 1671.79 L1096.80 1671.91 L968.22 1671.91 L839.77 1671.91 L711.19 1671.91 L582.62 1671.91 L582.62 1671.91 Z" stroke-linecap="round" style="fill:#3333FF;stroke:#0000FF;stroke-width:3.00"/>
	<circle cx="582.62" cy="1671.91" r="22.03" style="fill:#000000;stroke:#000000;stroke-width:8.64"/>
	<circle cx="711.07" cy="1671.91" r="22.03" style="fill:#000000;stroke:#000000;stroke-width:8.64"/>
	<circle cx="839.64" cy="1671.91" r="22.03" style="fill:#000000;stroke:#000000;stroke-width:8.64"/>
	<circle cx="968.22" cy="1671.91" r="22.03" style="fill:#000000;stroke:#000000;stroke-width:8.64"/>
	<circle cx="1096.67" cy="1671.91" r="22.03" style="fill:#000000;stroke:#000000;stroke-width:8.64"/>
	<circle cx="1225.25" cy="1671.67" r="22.03" style="fill:#000000;stroke:#000000;stroke-width:8.64"/>
	<circle cx="1353.70" cy="1671.54" r="22.03" style="fill:#000000;stroke:#000000;stroke-width:8.64"/>
	<circle cx="1482.28" cy="1671.42" r="22.03" style="fill:#000000;stroke:#000000;stroke-width:8.64"/>
	<circle cx="1610.73" cy="1671.30" r="22.03" style="fill:#000000;stroke:#000000;stroke-width:8.64"/>
	<circle cx="1739.31" cy="1671.30" r="22.03" style="fill:#000000;stroke:#000000;stroke-width:8.64"/>
	<circle cx="1867.88" cy="1670.68" r="22.03" style="fill:#000000;stroke:#000000;stroke-width:8.64"/>
	<circle cx="1996.34" cy="1669.32" r="22.03" style="fill:#000000;stroke:#000000;stroke-width:8.64"/>
	<line x1="390.80" y1="2489.19" x2="390.80" y2="100.86" style="stroke:#000000;stroke-width:5.76"/>
	<line x1="390.80" y1="2425.82" x2="350.83" y2="2425.82" style="stroke:#000000;stroke-width:5.76"/>
	<text x="300.72" y="2425.82" style="font-family:'Helvetica';font-size:99.99px;fill:#000000" transform="rotate(-90 300.72,2425.82)" text-anchor="middle">-100</text>
	<line x1="390.80" y1="1671.91" x2="350.83" y2="1671.91" style="stroke:#000000;stroke-width:5.76"/>
	<text x="300.72" y="1671.91" style="font-family:'Helvetica';font-size:99.99px;fill:#000000" transform="rotate(-90 300.72,1671.91)" text-anchor="middle">0</text>
	<line x1="390.80" y1="918.01" x2="350.83" y2="918.01" style="stroke:#000000;stroke-width:5.76"/>
	<text x="300.72" y="918.01" style="font-family:'Helvetica';font-size:99.99px;fill:#000000" transform="rotate(-90 300.72,918.01)" text-anchor="middle">100</text>
	<line x1="390.80" y1="164.22" x2="350.83" y2="164.22" style="stroke:#000000;stroke-width:5.76"/>
	<text x="300.72" y="164.22" style="font-family:'Helvetica';font-size:99.99px;fill:#000000" transform="rotate(-90 300.72,164.22)" text-anchor="middle">200</text>
	<text x="190.71" y="1294.96" style="font-family:'Helvetica';font-size:99.99px;fill:#000000" transform="rotate(-90 190.71,1294.96)" text-anchor="middle">Confirmed cases per 100 beds</text>
	<line x1="390.80" y1="2489.19" x2="3859.02" y2="2489.19" style="stroke:#000000;stroke-width:5.76"/>
	<line x1="454.16" y1="2489.19" x2="454.16" y2="2529.16" style="stroke:#000000;stroke-width:5.76"/>
	<text x="454.16" y="2619.14" style="font-family:'Helvetica';font-size:99.99px;fill:#000000" text-anchor="middle">0</text>
	<line x1="1096.80" y1="2489.19" x2="1096.80" y2="2529.16" style="stroke:#000000;stroke-width:5.76"/>
	<text x="1096.80" y="2619.14" style="font-family:'Helvetica';font-size:99.99px;fill:#000000" text-anchor="middle">5</text>
	<line x1="1739.31" y1="2489.19" x2="1739.31" y2="2529.16" style="stroke:#000000;stroke-width:5.76"/>
	<text x="1739.31" y="2619.14" style="font-family:'Helvetica';font-size:99.99px;fill:#000000" text-anchor="middle">10</text>
	<line x1="2381.94" y1="2489.19" x2="2381.94" y2="2529.16" style="stroke:#000000;stroke-width:5.76"/>
	<text x="2381.94" y="2619.14" style="font-family:'Helvetica';font-size:99.99px;fill:#000000" text-anchor="middle">15</text>
	<line x1="3024.57" y1="2489.19" x2="3024.57" y2="2529.16" style="stroke:#000000;stroke-width:5.76"/>
	<text x="3024.57" y="2619.14" style="font-family:'Helvetica';font-size:99.99px;fill:#000000" text-anchor="middle">20</text>
	<line x1="3667.21" y1="2489.19" x2="3667.21" y2="2529.16" style="stroke:#000000;stroke-width:5.76"/>
	<text x="3667.21" y="2619.14" style="font-family:'Helvetica';font-size:99.99px;fill:#000000" text-anchor="middle">25</text>
	<text x="2124.91" y="2729.16" style="font-family:'Helvetica';font-size:99.99px;fill:#000000" text-anchor="middle">Days since 0.01 confirmed cases per 100 beds</text>
</svg>
