<?xml version="1.0" encoding="UTF-8" standalone="no"?>
<!-- This is a Stata 14.2 generated SVG file (http://www.stata.com) -->

<svg version="1.1" width="5.50in" height="4.00in" viewBox="0 0 3960 2880" xmlns="http://www.w3.org/2000/svg">
	<desc>Stata Graph - Graph</desc>
	<line x1="390.80" y1="-1336.67" x2="3859.02" y2="-1336.67" style="stroke:#FF0000;stroke-width:8.64"/>
	<path d="M537.69 2425.82 L537.69 2425.82 L621.23 2412.46 L704.76 2396.62 L788.29 2378.43 L871.82 2358.13 L955.35 2335.98 L1038.88 2312.22 L1122.41 2287.47 L1205.94 2262.34 L1289.47 2237.72 L1373.13 2213.96 L1456.66 2190.81 L1540.19 2167.55 L1623.72 2143.05 L1707.26 2116.44 L1790.79 2086.86 L1874.32 2054.07 L1957.85 2017.68 L2041.38 1978.82 L2124.91 1941.45 L2208.44 1913.73 L2291.97 1897.15 L2375.51 1888.24 L2459.04 1885.39 L2542.57 1888.36 L2626.22 1897.15 L2709.75 1911.87 L2793.28 1932.79 L2876.82 1959.89 L2960.35 1993.43 L3043.88 2033.40 L3127.41 2079.81 L3210.94 2132.65 L3294.47 2191.80 L3378.00 2257.27 L3461.53 2328.92 L3461.53 285.75 L3378.00 435.86 L3294.47 580.28 L3210.94 718.51 L3127.41 850.56 L3043.88 976.05 L2960.35 1094.97 L2876.82 1207.22 L2793.28 1312.53 L2709.75 1410.92 L2626.22 1502.50 L2542.57 1587.14 L2459.04 1664.86 L2375.51 1735.52 L2291.97 1798.64 L2208.44 1852.72 L2124.91 1893.81 L2041.38 1923.38 L1957.85 1949.62 L1874.32 1976.23 L1790.79 2004.07 L1707.26 2032.90 L1623.72 2062.11 L1540.19 2091.07 L1456.66 2118.54 L1373.13 2143.66 L1289.47 2165.32 L1205.94 2183.27 L1122.41 2198.24 L1038.88 2210.74 L955.35 2221.51 L871.82 2231.16 L788.29 2240.19 L704.76 2248.73 L621.23 2257.27 L537.69 2265.69 L537.69 2425.82 Z" stroke-linecap="round" style="fill:#EBEBFF;stroke:#E6E6FF;stroke-width:3.00"/>
	<path d="M537.69 2379.66 L537.69 2379.66 L621.23 2367.66 L704.76 2353.92 L788.29 2338.58 L871.82 2321.50 L955.35 2302.94 L1038.88 2282.89 L1122.41 2261.73 L1205.94 2239.57 L1289.47 2216.80 L1373.13 2193.66 L1456.66 2170.02 L1540.19 2145.52 L1623.72 2119.66 L1707.26 2092.31 L1790.79 2062.98 L1874.32 2031.54 L1957.85 1998.01 L2041.38 1962.86 L2124.91 1927.71 L2208.44 1896.03 L2291.97 1868.81 L2375.51 1844.18 L2459.04 1821.78 L2542.57 1801.36 L2626.22 1783.17 L2709.75 1767.33 L2793.28 1753.72 L2876.82 1742.70 L2960.35 1734.16 L3043.88 1728.22 L3127.41 1725.01 L3210.94 1724.51 L3294.47 1726.74 L3378.00 1731.56 L3461.53 1739.24 L3461.53 875.43 L3378.00 961.57 L3294.47 1045.35 L3210.94 1126.66 L3127.41 1205.36 L3043.88 1281.22 L2960.35 1354.36 L2876.82 1424.41 L2793.28 1491.48 L2709.75 1555.59 L2626.22 1616.35 L2542.57 1674.02 L2459.04 1728.47 L2375.51 1779.58 L2291.97 1827.10 L2208.44 1870.29 L2124.91 1907.54 L2041.38 1939.47 L1957.85 1969.30 L1874.32 1998.62 L1790.79 2027.95 L1707.26 2057.04 L1623.72 2085.50 L1540.19 2113.10 L1456.66 2139.46 L1373.13 2163.96 L1289.47 2186.24 L1205.94 2206.16 L1122.41 2223.98 L1038.88 2239.94 L955.35 2254.55 L871.82 2267.79 L788.29 2280.04 L704.76 2291.43 L621.23 2302.07 L537.69 2311.97 L537.69 2379.66 Z" stroke-linecap="round" style="fill:#D6D6FF;stroke:#CCCCFF;stroke-width:3.00"/>
	<path d="M537.69 2372.11 L537.69 2372.11 L621.23 2360.36 L704.76 2346.99 L788.29 2332.14 L871.82 2315.56 L955.35 2297.61 L1038.88 2278.18 L1122.41 2257.52 L1205.94 2235.86 L1289.47 2213.46 L1373.13 2190.32 L1456.66 2166.56 L1540.19 2141.93 L1623.72 2115.94 L1707.26 2088.35 L1790.79 2059.14 L1874.32 2027.95 L1957.85 1994.91 L2041.38 1960.26 L2124.91 1925.49 L2208.44 1893.19 L2291.97 1864.10 L2375.51 1837.00 L2459.04 1811.39 L2542.57 1787.38 L2626.22 1764.85 L2709.75 1743.94 L2793.28 1724.76 L2876.82 1707.56 L2960.35 1692.21 L3043.88 1678.84 L3127.41 1667.58 L3210.94 1658.43 L3294.47 1651.50 L3378.00 1646.55 L3461.53 1643.82 L3461.53 970.85 L3378.00 1046.59 L3294.47 1120.59 L3210.94 1192.74 L3127.41 1262.78 L3043.88 1330.60 L2960.35 1396.31 L2876.82 1459.55 L2793.28 1520.44 L2709.75 1578.98 L2626.22 1634.79 L2542.57 1688.13 L2459.04 1738.74 L2375.51 1786.76 L2291.97 1831.68 L2208.44 1873.14 L2124.91 1909.77 L2041.38 1941.95 L1957.85 1972.39 L1874.32 2002.34 L1790.79 2031.79 L1707.26 2060.87 L1623.72 2089.34 L1540.19 2116.69 L1456.66 2142.80 L1373.13 2167.18 L1289.47 2189.58 L1205.94 2209.87 L1122.41 2228.19 L1038.88 2244.77 L955.35 2259.87 L871.82 2273.73 L788.29 2286.48 L704.76 2298.36 L621.23 2309.25 L537.69 2319.39 L537.69 2372.11 Z" stroke-linecap="round" style="fill:#C2C2FF;stroke:#B3B3FF;stroke-width:3.00"/>
	<path d="M537.69 2367.16 L537.69 2367.16 L621.23 2355.53 L704.76 2342.41 L788.29 2327.69 L871.82 2311.60 L955.35 2294.03 L1038.88 2274.97 L1122.41 2254.67 L1205.94 2233.39 L1289.47 2211.11 L1373.13 2188.09 L1456.66 2164.33 L1540.19 2139.46 L1623.72 2113.34 L1707.26 2085.75 L1790.79 2056.54 L1874.32 2025.48 L1957.85 1992.68 L2041.38 1958.53 L2124.91 1924.00 L2208.44 1891.33 L2291.97 1861.01 L2375.51 1832.18 L2459.04 1804.46 L2542.57 1777.85 L2626.22 1752.35 L2709.75 1728.10 L2793.28 1705.20 L2876.82 1683.80 L2960.35 1663.87 L3043.88 1645.56 L3127.41 1628.97 L3210.94 1613.87 L3294.47 1600.63 L3378.00 1589.25 L3461.53 1579.47 L3461.53 1035.20 L3378.00 1104.01 L3294.47 1171.33 L3210.94 1237.29 L3127.41 1301.40 L3043.88 1363.89 L2960.35 1424.53 L2876.82 1483.31 L2793.28 1539.99 L2709.75 1594.69 L2626.22 1647.29 L2542.57 1697.66 L2459.04 1745.67 L2375.51 1791.46 L2291.97 1834.77 L2208.44 1875.12 L2124.91 1911.25 L2041.38 1943.80 L1957.85 1974.62 L1874.32 2004.81 L1790.79 2034.39 L1707.26 2063.47 L1623.72 2091.81 L1540.19 2119.16 L1456.66 2145.03 L1373.13 2169.41 L1289.47 2191.80 L1205.94 2212.35 L1122.41 2230.91 L1038.88 2247.99 L955.35 2263.46 L871.82 2277.81 L788.29 2290.93 L704.76 2302.94 L621.23 2314.20 L537.69 2324.47 L537.69 2367.16 Z" stroke-linecap="round" style="fill:#ADADFF;stroke:#9999FF;stroke-width:3.00"/>
	<path d="M537.69 2363.08 L537.69 2363.08 L621.23 2351.57 L704.76 2338.70 L788.29 2324.22 L871.82 2308.38 L955.35 2291.06 L1038.88 2272.49 L1122.41 2252.44 L1205.94 2231.41 L1289.47 2209.38 L1373.13 2186.36 L1456.66 2162.48 L1540.19 2137.60 L1623.72 2111.36 L1707.26 2083.64 L1790.79 2054.44 L1874.32 2023.50 L1957.85 1991.08 L2041.38 1957.17 L2124.91 1922.76 L2208.44 1889.85 L2291.97 1858.54 L2375.51 1828.34 L2459.04 1799.01 L2542.57 1770.30 L2626.22 1742.45 L2709.75 1715.60 L2793.28 1689.74 L2876.82 1664.98 L2960.35 1641.47 L3043.88 1619.07 L3127.41 1598.16 L3210.94 1578.48 L3294.47 1560.29 L3378.00 1543.58 L3461.53 1528.36 L3461.53 1086.31 L3378.00 1149.55 L3294.47 1211.67 L3210.94 1272.68 L3127.41 1332.21 L3043.88 1390.37 L2960.35 1447.05 L2876.82 1502.12 L2793.28 1555.59 L2709.75 1607.19 L2626.22 1657.06 L2542.57 1705.20 L2459.04 1751.24 L2375.51 1795.30 L2291.97 1837.25 L2208.44 1876.60 L2124.91 1912.49 L2041.38 1945.16 L1957.85 1976.23 L1874.32 2006.67 L1790.79 2036.49 L1707.26 2065.58 L1623.72 2093.92 L1540.19 2121.02 L1456.66 2146.88 L1373.13 2171.14 L1289.47 2193.66 L1205.94 2214.33 L1122.41 2233.14 L1038.88 2250.46 L955.35 2266.30 L871.82 2280.91 L788.29 2294.40 L704.76 2306.65 L621.23 2318.03 L537.69 2328.43 L537.69 2363.08 Z" stroke-linecap="round" style="fill:#9999FF;stroke:#8080FF;stroke-width:3.00"/>
	<path d="M537.69 2359.61 L537.69 2359.61 L621.23 2348.23 L704.76 2335.48 L788.29 2321.25 L871.82 2305.66 L955.35 2288.70 L1038.88 2270.26 L1122.41 2250.59 L1205.94 2229.67 L1289.47 2207.77 L1373.13 2184.87 L1456.66 2160.99 L1540.19 2135.99 L1623.72 2109.63 L1707.26 2081.91 L1790.79 2052.71 L1874.32 2021.89 L1957.85 1989.59 L2041.38 1955.93 L2124.91 1921.77 L2208.44 1888.48 L2291.97 1856.43 L2375.51 1825.12 L2459.04 1794.18 L2542.57 1763.86 L2626.22 1734.04 L2709.75 1704.83 L2793.28 1676.37 L2876.82 1648.77 L2960.35 1622.17 L3043.88 1596.42 L3127.41 1571.67 L3210.94 1548.16 L3294.47 1525.76 L3378.00 1504.48 L3461.53 1484.43 L3461.53 1130.24 L3378.00 1188.66 L3294.47 1246.33 L3210.94 1303.00 L3127.41 1358.57 L3043.88 1413.15 L2960.35 1466.36 L2876.82 1518.34 L2793.28 1568.83 L2709.75 1617.96 L2626.22 1665.60 L2542.57 1711.64 L2459.04 1755.94 L2375.51 1798.64 L2291.97 1839.35 L2208.44 1877.96 L2124.91 1913.48 L2041.38 1946.28 L1957.85 1977.71 L1874.32 2008.40 L1790.79 2038.35 L1707.26 2067.43 L1623.72 2095.65 L1540.19 2122.63 L1456.66 2148.49 L1373.13 2172.62 L1289.47 2195.27 L1205.94 2215.94 L1122.41 2235.12 L1038.88 2252.69 L955.35 2268.78 L871.82 2283.63 L788.29 2297.37 L704.76 2309.87 L621.23 2321.38 L537.69 2331.89 L537.69 2359.61 Z" stroke-linecap="round" style="fill:#8585FF;stroke:#6666FF;stroke-width:3.00"/>
	<path d="M537.69 2356.52 L537.69 2356.52 L621.23 2345.26 L704.76 2332.64 L788.29 2318.65 L871.82 2303.18 L955.35 2286.48 L1038.88 2268.28 L1122.41 2248.86 L1205.94 2228.19 L1289.47 2206.41 L1373.13 2183.51 L1456.66 2159.63 L1540.19 2134.51 L1623.72 2108.02 L1707.26 2080.30 L1790.79 2051.10 L1874.32 2020.41 L1957.85 1988.23 L2041.38 1954.82 L2124.91 1920.78 L2208.44 1887.37 L2291.97 1854.58 L2375.51 1822.15 L2459.04 1789.98 L2542.57 1758.05 L2626.22 1726.37 L2709.75 1695.18 L2793.28 1664.49 L2876.82 1634.29 L2960.35 1604.84 L3043.88 1576.01 L3127.41 1548.04 L3210.94 1520.94 L3294.47 1494.70 L3378.00 1469.33 L3461.53 1445.07 L3461.53 1169.60 L3378.00 1223.80 L3294.47 1277.39 L3210.94 1330.23 L3127.41 1382.33 L3043.88 1433.44 L2960.35 1483.69 L2876.82 1532.82 L2793.28 1580.83 L2709.75 1627.61 L2626.22 1673.15 L2542.57 1717.46 L2459.04 1760.28 L2375.51 1801.61 L2291.97 1841.33 L2208.44 1879.08 L2124.91 1914.47 L2041.38 1947.39 L1957.85 1979.07 L1874.32 2009.89 L1790.79 2039.83 L1707.26 2069.04 L1623.72 2097.13 L1540.19 2124.11 L1456.66 2149.85 L1373.13 2173.98 L1289.47 2196.63 L1205.94 2217.55 L1122.41 2236.85 L1038.88 2254.67 L955.35 2271.01 L871.82 2286.11 L788.29 2299.97 L704.76 2312.71 L621.23 2324.35 L537.69 2334.99 L537.69 2356.52 Z" stroke-linecap="round" style="fill:#7171FF;stroke:#4D4DFF;stroke-width:3.00"/>
	<path d="M537.69 2353.67 L537.69 2353.67 L621.23 2342.54 L704.76 2330.04 L788.29 2316.18 L871.82 2300.96 L955.35 2284.37 L1038.88 2266.43 L1122.41 2247.25 L1205.94 2226.70 L1289.47 2205.05 L1373.13 2182.28 L1456.66 2158.27 L1540.19 2133.15 L1623.72 2106.66 L1707.26 2078.82 L1790.79 2049.61 L1874.32 2018.92 L1957.85 1986.99 L2041.38 1953.83 L2124.91 1920.04 L2208.44 1886.26 L2291.97 1852.84 L2375.51 1819.43 L2459.04 1786.02 L2542.57 1752.60 L2626.22 1719.31 L2709.75 1686.27 L2793.28 1653.35 L2876.82 1620.80 L2960.35 1588.75 L3043.88 1557.07 L3127.41 1526.01 L3210.94 1495.57 L3294.47 1465.86 L3378.00 1436.78 L3461.53 1408.44 L3461.53 1206.11 L3378.00 1256.35 L3294.47 1306.22 L3210.94 1355.60 L3127.41 1404.36 L3043.88 1452.38 L2960.35 1499.77 L2876.82 1546.30 L2793.28 1591.97 L2709.75 1636.64 L2626.22 1680.21 L2542.57 1722.78 L2459.04 1764.24 L2375.51 1804.33 L2291.97 1843.07 L2208.44 1880.19 L2124.91 1915.21 L2041.38 1948.38 L1957.85 1980.31 L1874.32 2011.25 L1790.79 2041.32 L1707.26 2070.53 L1623.72 2098.62 L1540.19 2125.47 L1456.66 2151.09 L1373.13 2175.35 L1289.47 2197.87 L1205.94 2218.91 L1122.41 2238.46 L1038.88 2256.40 L955.35 2273.11 L871.82 2288.33 L788.29 2302.44 L704.76 2315.31 L621.23 2327.19 L537.69 2337.83 L537.69 2353.67 Z" stroke-linecap="round" style="fill:#5C5CFF;stroke:#3333FF;stroke-width:3.00"/>
	<path d="M537.69 2350.95 L537.69 2350.95 L621.23 2339.81 L704.76 2327.44 L788.29 2313.83 L871.82 2298.85 L955.35 2282.52 L1038.88 2264.82 L1122.41 2245.76 L1205.94 2225.47 L1289.47 2203.81 L1373.13 2181.04 L1456.66 2157.03 L1540.19 2131.78 L1623.72 2105.30 L1707.26 2077.33 L1790.79 2048.13 L1874.32 2017.68 L1957.85 1985.88 L2041.38 1952.96 L2124.91 1919.17 L2208.44 1885.14 L2291.97 1851.11 L2375.51 1816.83 L2459.04 1782.30 L2542.57 1747.53 L2626.22 1712.63 L2709.75 1677.73 L2793.28 1642.83 L2876.82 1608.06 L2960.35 1573.53 L3043.88 1539.13 L3127.41 1505.22 L3210.94 1471.68 L3294.47 1438.51 L3378.00 1405.84 L3461.53 1373.79 L3461.53 1240.76 L3378.00 1287.29 L3294.47 1333.57 L3210.94 1379.48 L3127.41 1425.15 L3043.88 1470.32 L2960.35 1514.99 L2876.82 1559.05 L2793.28 1602.49 L2709.75 1645.06 L2626.22 1687.01 L2542.57 1727.98 L2459.04 1767.95 L2375.51 1806.93 L2291.97 1844.68 L2208.44 1881.18 L2124.91 1916.08 L2041.38 1949.37 L1957.85 1981.42 L1874.32 2012.61 L1790.79 2042.81 L1707.26 2071.89 L1623.72 2099.98 L1540.19 2126.83 L1456.66 2152.33 L1373.13 2176.46 L1289.47 2199.11 L1205.94 2220.27 L1122.41 2239.94 L1038.88 2258.14 L955.35 2274.97 L871.82 2290.56 L788.29 2304.79 L704.76 2317.91 L621.23 2329.79 L537.69 2340.56 L537.69 2350.95 Z" stroke-linecap="round" style="fill:#4747FF;stroke:#1919FF;stroke-width:3.00"/>
	<path d="M537.69 2348.35 L537.69 2348.35 L621.23 2337.34 L704.76 2325.09 L788.29 2311.60 L871.82 2296.75 L955.35 2280.54 L1038.88 2263.09 L1122.41 2244.28 L1205.94 2224.10 L1289.47 2202.70 L1373.13 2179.92 L1456.66 2155.92 L1540.19 2130.55 L1623.72 2103.94 L1707.26 2075.97 L1790.79 2046.77 L1874.32 2016.32 L1957.85 1984.76 L2041.38 1952.09 L2124.91 1918.43 L2208.44 1884.15 L2291.97 1849.50 L2375.51 1814.36 L2459.04 1778.71 L2542.57 1742.58 L2626.22 1706.19 L2709.75 1669.56 L2793.28 1632.68 L2876.82 1595.68 L2960.35 1558.80 L3043.88 1521.80 L3127.41 1485.05 L3210.94 1448.42 L3294.47 1412.03 L3378.00 1376.02 L3461.53 1340.38 L3461.53 1274.29 L3378.00 1317.24 L3294.47 1360.06 L3210.94 1402.75 L3127.41 1445.32 L3043.88 1487.65 L2960.35 1529.72 L2876.82 1571.43 L2793.28 1612.64 L2709.75 1653.35 L2626.22 1693.45 L2542.57 1732.80 L2459.04 1771.54 L2375.51 1809.41 L2291.97 1846.28 L2208.44 1882.17 L2124.91 1916.82 L2041.38 1950.24 L1957.85 1982.54 L1874.32 2013.85 L1790.79 2044.17 L1707.26 2073.25 L1623.72 2101.34 L1540.19 2128.07 L1456.66 2153.56 L1373.13 2177.70 L1289.47 2200.34 L1205.94 2221.63 L1122.41 2241.43 L1038.88 2259.87 L955.35 2276.82 L871.82 2292.66 L788.29 2307.02 L704.76 2320.26 L621.23 2332.27 L537.69 2343.16 L537.69 2348.35 Z" stroke-linecap="round" style="fill:#3333FF;stroke:#0000FF;stroke-width:3.00"/>
	<circle cx="537.57" cy="2403.18" r="22.03" style="fill:#000000;stroke:#000000;stroke-width:8.64"/>
	<circle cx="621.10" cy="2394.88" r="22.03" style="fill:#000000;stroke:#000000;stroke-width:8.64"/>
	<circle cx="704.76" cy="2370.13" r="22.03" style="fill:#000000;stroke:#000000;stroke-width:8.64"/>
	<circle cx="788.29" cy="2308.38" r="22.03" style="fill:#000000;stroke:#000000;stroke-width:8.64"/>
	<circle cx="871.82" cy="2238.34" r="22.03" style="fill:#000000;stroke:#000000;stroke-width:8.64"/>
	<circle cx="955.35" cy="2230.04" r="22.03" style="fill:#000000;stroke:#000000;stroke-width:8.64"/>
	<circle cx="1038.88" cy="2230.04" r="22.03" style="fill:#000000;stroke:#000000;stroke-width:8.64"/>
	<circle cx="1122.41" cy="2225.96" r="22.03" style="fill:#000000;stroke:#000000;stroke-width:8.64"/>
	<circle cx="1205.94" cy="2184.63" r="22.03" style="fill:#000000;stroke:#000000;stroke-width:8.64"/>
	<circle cx="1289.47" cy="2176.46" r="22.03" style="fill:#000000;stroke:#000000;stroke-width:8.64"/>
	<circle cx="1373.01" cy="2164.08" r="22.03" style="fill:#000000;stroke:#000000;stroke-width:8.64"/>
	<circle cx="1456.54" cy="2151.71" r="22.03" style="fill:#000000;stroke:#000000;stroke-width:8.64"/>
	<circle cx="1540.07" cy="2147.62" r="22.03" style="fill:#000000;stroke:#000000;stroke-width:8.64"/>
	<circle cx="1623.60" cy="2131.04" r="22.03" style="fill:#000000;stroke:#000000;stroke-width:8.64"/>
	<circle cx="1707.13" cy="2118.67" r="22.03" style="fill:#000000;stroke:#000000;stroke-width:8.64"/>
	<circle cx="1790.66" cy="2085.75" r="22.03" style="fill:#000000;stroke:#000000;stroke-width:8.64"/>
	<circle cx="1874.19" cy="2003.33" r="22.03" style="fill:#000000;stroke:#000000;stroke-width:8.64"/>
	<circle cx="1957.85" cy="1986.87" r="22.03" style="fill:#000000;stroke:#000000;stroke-width:8.64"/>
	<circle cx="2041.38" cy="1953.83" r="22.03" style="fill:#000000;stroke:#000000;stroke-width:8.64"/>
	<circle cx="2124.91" cy="1908.53" r="22.03" style="fill:#000000;stroke:#000000;stroke-width:8.64"/>
	<circle cx="2208.44" cy="1879.57" r="22.03" style="fill:#000000;stroke:#000000;stroke-width:8.64"/>
	<circle cx="2291.97" cy="1830.20" r="22.03" style="fill:#000000;stroke:#000000;stroke-width:8.64"/>
	<line x1="390.80" y1="2489.19" x2="390.80" y2="100.86" style="stroke:#000000;stroke-width:5.76"/>
	<line x1="390.80" y1="2415.43" x2="350.83" y2="2415.43" style="stroke:#000000;stroke-width:5.76"/>
	<text x="300.72" y="2415.43" style="font-family:'Helvetica';font-size:99.99px;fill:#000000" transform="rotate(-90 300.72,2415.43)" text-anchor="middle">0</text>
	<line x1="390.80" y1="1664.98" x2="350.83" y2="1664.98" style="stroke:#000000;stroke-width:5.76"/>
	<text x="300.72" y="1664.98" style="font-family:'Helvetica';font-size:99.99px;fill:#000000" transform="rotate(-90 300.72,1664.98)" text-anchor="middle">2</text>
	<line x1="390.80" y1="914.54" x2="350.83" y2="914.54" style="stroke:#000000;stroke-width:5.76"/>
	<text x="300.72" y="914.54" style="font-family:'Helvetica';font-size:99.99px;fill:#000000" transform="rotate(-90 300.72,914.54)" text-anchor="middle">4</text>
	<line x1="390.80" y1="164.22" x2="350.83" y2="164.22" style="stroke:#000000;stroke-width:5.76"/>
	<text x="300.72" y="164.22" style="font-family:'Helvetica';font-size:99.99px;fill:#000000" transform="rotate(-90 300.72,164.22)" text-anchor="middle">6</text>
	<text x="190.71" y="1294.96" style="font-family:'Helvetica';font-size:99.99px;fill:#000000" transform="rotate(-90 190.71,1294.96)" text-anchor="middle">Confirmed cases per 100 beds</text>
	<line x1="390.80" y1="2489.19" x2="3859.02" y2="2489.19" style="stroke:#000000;stroke-width:5.76"/>
	<line x1="454.16" y1="2489.19" x2="454.16" y2="2529.16" style="stroke:#000000;stroke-width:5.76"/>
	<text x="454.16" y="2619.14" style="font-family:'Helvetica';font-size:99.99px;fill:#000000" text-anchor="middle">0</text>
	<line x1="1289.47" y1="2489.19" x2="1289.47" y2="2529.16" style="stroke:#000000;stroke-width:5.76"/>
	<text x="1289.47" y="2619.14" style="font-family:'Helvetica';font-size:99.99px;fill:#000000" text-anchor="middle">10</text>
	<line x1="2124.91" y1="2489.19" x2="2124.91" y2="2529.16" style="stroke:#000000;stroke-width:5.76"/>
	<text x="2124.91" y="2619.14" style="font-family:'Helvetica';font-size:99.99px;fill:#000000" text-anchor="middle">20</text>
	<line x1="2960.35" y1="2489.19" x2="2960.35" y2="2529.16" style="stroke:#000000;stroke-width:5.76"/>
	<text x="2960.35" y="2619.14" style="font-family:'Helvetica';font-size:99.99px;fill:#000000" text-anchor="middle">30</text>
	<line x1="3795.66" y1="2489.19" x2="3795.66" y2="2529.16" style="stroke:#000000;stroke-width:5.76"/>
	<text x="3795.66" y="2619.14" style="font-family:'Helvetica';font-size:99.99px;fill:#000000" text-anchor="middle">40</text>
	<text x="2124.91" y="2729.16" style="font-family:'Helvetica';font-size:99.99px;fill:#000000" text-anchor="middle">Days since 0.01 confirmed cases per 100 beds</text>
</svg>
