<?xml version="1.0" encoding="UTF-8" standalone="no"?>
<!-- This is a Stata 14.2 generated SVG file (http://www.stata.com) -->

<svg version="1.1" width="5.50in" height="4.00in" viewBox="0 0 3960 2880" xmlns="http://www.w3.org/2000/svg">
	<desc>Stata Graph - Graph</desc>
	<line x1="390.80" y1="1521.18" x2="3859.02" y2="1521.18" style="stroke:#FF0000;stroke-width:8.64"/>
	<path d="M582.62 2424.46 L582.62 2424.46 L711.19 2423.72 L839.77 2422.85 L968.22 2421.62 L1096.80 2419.76 L1225.25 2417.41 L1353.83 2414.19 L1482.28 2409.86 L1610.85 2404.29 L1739.31 2397.11 L1867.88 2388.20 L1996.46 2377.06 L2124.91 2363.33 L2253.49 2346.50 L2381.94 2326.08 L2510.52 2301.20 L2638.97 2271.13 L2767.55 2234.87 L2896.12 2191.19 L3024.57 2138.96 L3153.15 2076.59 L3281.60 2002.34 L3410.18 1914.35 L3538.63 1810.40 L3667.21 1688.00 L3795.66 1544.32 L3795.66 325.60 L3667.21 740.79 L3538.63 1079.63 L3410.18 1354.86 L3281.60 1577.49 L3153.15 1756.81 L3024.57 1900.49 L2896.12 2015.21 L2767.55 2106.29 L2638.97 2178.19 L2510.52 2234.62 L2381.94 2278.80 L2253.49 2313.08 L2124.91 2339.57 L1996.46 2359.86 L1867.88 2375.33 L1739.31 2387.21 L1610.85 2396.12 L1482.28 2403.05 L1353.83 2408.25 L1225.25 2412.33 L1096.80 2415.55 L968.22 2418.03 L839.77 2419.88 L711.19 2421.37 L582.62 2422.48 L582.62 2424.46 Z" stroke-linecap="round" style="fill:#EBEBFF;stroke:#E6E6FF;stroke-width:3.00"/>
	<path d="M582.62 2423.84 L582.62 2423.84 L711.19 2423.10 L839.77 2421.99 L968.22 2420.50 L1096.80 2418.52 L1225.25 2415.92 L1353.83 2412.46 L1482.28 2407.88 L1610.85 2401.94 L1739.31 2394.27 L1867.88 2384.49 L1996.46 2372.11 L2124.91 2356.40 L2253.49 2336.84 L2381.94 2312.46 L2510.52 2282.02 L2638.97 2244.28 L2767.55 2197.74 L2896.12 2140.45 L3024.57 2070.15 L3153.15 1984.27 L3281.60 1879.70 L3410.18 1752.85 L3538.63 1599.39 L3667.21 1414.63 L3795.66 1192.62 L3795.66 677.30 L3667.21 1014.16 L3538.63 1290.51 L3410.18 1516.36 L3281.60 1700.13 L3153.15 1849.13 L3024.57 1969.30 L2896.12 2065.95 L2767.55 2143.42 L2638.97 2205.05 L2510.52 2253.93 L2381.94 2292.42 L2253.49 2322.74 L2124.91 2346.50 L1996.46 2364.81 L1867.88 2379.04 L1739.31 2390.06 L1610.85 2398.47 L1482.28 2405.03 L1353.83 2409.98 L1225.25 2413.82 L1096.80 2416.79 L968.22 2419.02 L839.77 2420.75 L711.19 2421.99 L582.62 2422.98 L582.62 2423.84 Z" stroke-linecap="round" style="fill:#D6D6FF;stroke:#CCCCFF;stroke-width:3.00"/>
	<path d="M582.62 2423.72 L582.62 2423.72 L711.19 2422.98 L839.77 2421.86 L968.22 2420.38 L1096.80 2418.40 L1225.25 2415.68 L1353.83 2412.21 L1482.28 2407.51 L1610.85 2401.57 L1739.31 2393.77 L1867.88 2383.87 L1996.46 2371.25 L2124.91 2355.41 L2253.49 2335.36 L2381.94 2310.24 L2510.52 2278.93 L2638.97 2239.94 L2767.55 2191.80 L2896.12 2132.16 L3024.57 2059.02 L3153.15 1969.30 L3281.60 1859.90 L3410.18 1726.74 L3538.63 1565.36 L3667.21 1370.33 L3795.66 1135.69 L3795.66 734.23 L3667.21 1058.34 L3538.63 1324.66 L3410.18 1542.47 L3281.60 1719.93 L3153.15 1863.98 L3024.57 1980.43 L2896.12 2074.24 L2767.55 2149.36 L2638.97 2209.38 L2510.52 2257.02 L2381.94 2294.64 L2253.49 2324.35 L2124.91 2347.49 L1996.46 2365.68 L1867.88 2379.66 L1739.31 2390.55 L1610.85 2398.84 L1482.28 2405.28 L1353.83 2410.23 L1225.25 2414.07 L1096.80 2416.91 L968.22 2419.14 L839.77 2420.87 L711.19 2422.11 L582.62 2423.10 L582.62 2423.72 Z" stroke-linecap="round" style="fill:#C2C2FF;stroke:#B3B3FF;stroke-width:3.00"/>
	<path d="M582.62 2423.72 L582.62 2423.72 L711.19 2422.85 L839.77 2421.74 L968.22 2420.25 L1096.80 2418.27 L1225.25 2415.55 L1353.83 2411.96 L1482.28 2407.38 L1610.85 2401.32 L1739.31 2393.52 L1867.88 2383.50 L1996.46 2370.75 L2124.91 2354.54 L2253.49 2334.25 L2381.94 2308.75 L2510.52 2276.82 L2638.97 2237.10 L2767.55 2187.72 L2896.12 2126.71 L3024.57 2051.47 L3153.15 1959.27 L3281.60 1846.53 L3410.18 1709.04 L3538.63 1542.34 L3667.21 1340.50 L3795.66 1097.33 L3795.66 772.60 L3667.21 1088.17 L3538.63 1347.68 L3410.18 1560.04 L3281.60 1733.30 L3153.15 1874.13 L3024.57 1987.98 L2896.12 2079.81 L2767.55 2153.44 L2638.97 2212.22 L2510.52 2259.13 L2381.94 2296.13 L2253.49 2325.34 L2124.91 2348.23 L1996.46 2366.17 L1867.88 2380.03 L1739.31 2390.80 L1610.85 2399.09 L1482.28 2405.53 L1353.83 2410.48 L1225.25 2414.19 L1096.80 2417.04 L968.22 2419.26 L839.77 2421.00 L711.19 2422.23 L582.62 2423.22 L582.62 2423.72 Z" stroke-linecap="round" style="fill:#ADADFF;stroke:#9999FF;stroke-width:3.00"/>
	<path d="M582.62 2423.60 L582.62 2423.60 L711.19 2422.85 L839.77 2421.74 L968.22 2420.13 L1096.80 2418.15 L1225.25 2415.43 L1353.83 2411.84 L1482.28 2407.14 L1610.85 2401.07 L1739.31 2393.28 L1867.88 2383.13 L1996.46 2370.26 L2124.91 2354.05 L2253.49 2333.38 L2381.94 2307.51 L2510.52 2275.21 L2638.97 2234.75 L2767.55 2184.50 L2896.12 2122.26 L3024.57 2045.53 L3153.15 1951.23 L3281.60 1835.89 L3410.18 1695.06 L3538.63 1524.03 L3667.21 1316.86 L3795.66 1066.76 L3795.66 803.16 L3667.21 1111.93 L3538.63 1365.87 L3410.18 1574.03 L3281.60 1743.94 L3153.15 1882.05 L3024.57 1993.92 L2896.12 2084.14 L2767.55 2156.66 L2638.97 2214.58 L2510.52 2260.74 L2381.94 2297.37 L2253.49 2326.20 L2124.91 2348.85 L1996.46 2366.55 L1867.88 2380.41 L1739.31 2391.05 L1610.85 2399.34 L1482.28 2405.65 L1353.83 2410.60 L1225.25 2414.31 L1096.80 2417.16 L968.22 2419.39 L839.77 2421.00 L711.19 2422.23 L582.62 2423.22 L582.62 2423.60 Z" stroke-linecap="round" style="fill:#9999FF;stroke:#8080FF;stroke-width:3.00"/>
	<path d="M582.62 2423.60 L582.62 2423.60 L711.19 2422.73 L839.77 2421.62 L968.22 2420.13 L1096.80 2418.03 L1225.25 2415.30 L1353.83 2411.72 L1482.28 2407.01 L1610.85 2400.95 L1739.31 2393.03 L1867.88 2382.88 L1996.46 2369.89 L2124.91 2353.55 L2253.49 2332.76 L2381.94 2306.52 L2510.52 2273.73 L2638.97 2232.77 L2767.55 2181.66 L2896.12 2118.54 L3024.57 2040.45 L3153.15 1944.42 L3281.60 1826.73 L3410.18 1683.05 L3538.63 1508.31 L3667.21 1296.45 L3795.66 1040.65 L3795.66 829.27 L3667.21 1132.22 L3538.63 1381.59 L3410.18 1586.03 L3281.60 1753.10 L3153.15 1888.98 L3024.57 1999.12 L2896.12 2087.98 L2767.55 2159.38 L2638.97 2216.56 L2510.52 2262.22 L2381.94 2298.36 L2253.49 2326.94 L2124.91 2349.34 L1996.46 2366.92 L1867.88 2380.65 L1739.31 2391.30 L1610.85 2399.46 L1482.28 2405.90 L1353.83 2410.73 L1225.25 2414.44 L1096.80 2417.28 L968.22 2419.51 L839.77 2421.12 L711.19 2422.36 L582.62 2423.22 L582.62 2423.60 Z" stroke-linecap="round" style="fill:#8585FF;stroke:#6666FF;stroke-width:3.00"/>
	<path d="M582.62 2423.60 L582.62 2423.60 L711.19 2422.73 L839.77 2421.62 L968.22 2420.01 L1096.80 2417.90 L1225.25 2415.18 L1353.83 2411.59 L1482.28 2406.89 L1610.85 2400.70 L1739.31 2392.78 L1867.88 2382.63 L1996.46 2369.64 L2124.91 2353.06 L2253.49 2332.02 L2381.94 2305.66 L2510.52 2272.49 L2638.97 2230.91 L2767.55 2179.18 L2896.12 2115.08 L3024.57 2035.87 L3153.15 1938.23 L3281.60 1818.56 L3410.18 1672.29 L3538.63 1494.20 L3667.21 1278.25 L3795.66 1017.13 L3795.66 852.79 L3667.21 1150.54 L3538.63 1395.70 L3410.18 1596.92 L3281.60 1761.27 L3153.15 1895.17 L3024.57 2003.70 L2896.12 2091.32 L2767.55 2161.86 L2638.97 2218.41 L2510.52 2263.46 L2381.94 2299.22 L2253.49 2327.56 L2124.91 2349.84 L1996.46 2367.29 L1867.88 2380.90 L1739.31 2391.54 L1610.85 2399.71 L1482.28 2406.02 L1353.83 2410.85 L1225.25 2414.56 L1096.80 2417.41 L968.22 2419.51 L839.77 2421.12 L711.19 2422.36 L582.62 2423.35 L582.62 2423.60 Z" stroke-linecap="round" style="fill:#7171FF;stroke:#4D4DFF;stroke-width:3.00"/>
	<path d="M582.62 2423.60 L582.62 2423.60 L711.19 2422.73 L839.77 2421.49 L968.22 2420.01 L1096.80 2417.90 L1225.25 2415.18 L1353.83 2411.47 L1482.28 2406.77 L1610.85 2400.58 L1739.31 2392.66 L1867.88 2382.39 L1996.46 2369.27 L2124.91 2352.56 L2253.49 2331.52 L2381.94 2304.79 L2510.52 2271.25 L2638.97 2229.30 L2767.55 2176.95 L2896.12 2111.98 L3024.57 2031.54 L3153.15 1932.54 L3281.60 1810.89 L3410.18 1662.26 L3538.63 1481.21 L3667.21 1261.30 L3795.66 995.35 L3795.66 874.57 L3667.21 1167.49 L3538.63 1408.81 L3410.18 1606.82 L3281.60 1768.81 L3153.15 1900.86 L3024.57 2007.91 L2896.12 2094.53 L2767.55 2164.21 L2638.97 2220.02 L2510.52 2264.70 L2381.94 2300.09 L2253.49 2328.18 L2124.91 2350.21 L1996.46 2367.66 L1867.88 2381.15 L1739.31 2391.67 L1610.85 2399.83 L1482.28 2406.15 L1353.83 2410.97 L1225.25 2414.69 L1096.80 2417.41 L968.22 2419.64 L839.77 2421.24 L711.19 2422.48 L582.62 2423.35 L582.62 2423.60 Z" stroke-linecap="round" style="fill:#5C5CFF;stroke:#3333FF;stroke-width:3.00"/>
	<path d="M582.62 2423.47 L582.62 2423.47 L711.19 2422.61 L839.77 2421.49 L968.22 2419.88 L1096.80 2417.78 L1225.25 2415.06 L1353.83 2411.47 L1482.28 2406.64 L1610.85 2400.45 L1739.31 2392.53 L1867.88 2382.14 L1996.46 2369.02 L2124.91 2352.19 L2253.49 2330.90 L2381.94 2303.93 L2510.52 2270.14 L2638.97 2227.69 L2767.55 2174.73 L2896.12 2109.01 L3024.57 2027.46 L3153.15 1927.10 L3281.60 1803.71 L3410.18 1652.73 L3538.63 1468.71 L3667.21 1245.21 L3795.66 974.69 L3795.66 895.24 L3667.21 1183.58 L3538.63 1421.19 L3410.18 1616.35 L3281.60 1776.12 L3153.15 1906.30 L3024.57 2011.99 L2896.12 2097.50 L2767.55 2166.31 L2638.97 2221.63 L2510.52 2265.81 L2381.94 2300.96 L2253.49 2328.68 L2124.91 2350.70 L1996.46 2367.91 L1867.88 2381.40 L1739.31 2391.79 L1610.85 2399.96 L1482.28 2406.27 L1353.83 2410.97 L1225.25 2414.69 L1096.80 2417.53 L968.22 2419.64 L839.77 2421.24 L711.19 2422.48 L582.62 2423.35 L582.62 2423.47 Z" stroke-linecap="round" style="fill:#4747FF;stroke:#1919FF;stroke-width:3.00"/>
	<path d="M582.62 2423.47 L582.62 2423.47 L711.19 2422.61 L839.77 2421.37 L968.22 2419.88 L1096.80 2417.78 L1225.25 2414.93 L1353.83 2411.34 L1482.28 2406.52 L1610.85 2400.33 L1739.31 2392.29 L1867.88 2382.01 L1996.46 2368.77 L2124.91 2351.82 L2253.49 2330.41 L2381.94 2303.18 L2510.52 2269.03 L2638.97 2226.21 L2767.55 2172.62 L2896.12 2106.04 L3024.57 2023.62 L3153.15 1921.90 L3281.60 1796.78 L3410.18 1643.58 L3538.63 1456.83 L3667.21 1229.62 L3795.66 954.64 L3795.66 915.28 L3667.21 1199.05 L3538.63 1433.19 L3410.18 1625.51 L3281.60 1783.05 L3153.15 1911.50 L3024.57 2015.95 L2896.12 2100.35 L2767.55 2168.54 L2638.97 2223.11 L2510.52 2266.92 L2381.94 2301.70 L2253.49 2329.30 L2124.91 2351.08 L1996.46 2368.15 L1867.88 2381.52 L1739.31 2392.04 L1610.85 2400.08 L1482.28 2406.27 L1353.83 2411.10 L1225.25 2414.81 L1096.80 2417.53 L968.22 2419.76 L839.77 2421.37 L711.19 2422.48 L582.62 2423.35 L582.62 2423.47 Z" stroke-linecap="round" style="fill:#3333FF;stroke:#0000FF;stroke-width:3.00"/>
	<circle cx="582.62" cy="2424.34" r="22.03" style="fill:#000000;stroke:#000000;stroke-width:8.64"/>
	<circle cx="711.07" cy="2423.47" r="22.03" style="fill:#000000;stroke:#000000;stroke-width:8.64"/>
	<circle cx="839.64" cy="2421.12" r="22.03" style="fill:#000000;stroke:#000000;stroke-width:8.64"/>
	<circle cx="968.22" cy="2419.51" r="22.03" style="fill:#000000;stroke:#000000;stroke-width:8.64"/>
	<circle cx="1096.67" cy="2417.90" r="22.03" style="fill:#000000;stroke:#000000;stroke-width:8.64"/>
	<circle cx="1225.25" cy="2413.20" r="22.03" style="fill:#000000;stroke:#000000;stroke-width:8.64"/>
	<circle cx="1353.70" cy="2410.73" r="22.03" style="fill:#000000;stroke:#000000;stroke-width:8.64"/>
	<circle cx="1482.28" cy="2405.16" r="22.03" style="fill:#000000;stroke:#000000;stroke-width:8.64"/>
	<circle cx="1610.73" cy="2401.20" r="22.03" style="fill:#000000;stroke:#000000;stroke-width:8.64"/>
	<circle cx="1739.31" cy="2397.24" r="22.03" style="fill:#000000;stroke:#000000;stroke-width:8.64"/>
	<circle cx="1867.88" cy="2377.31" r="22.03" style="fill:#000000;stroke:#000000;stroke-width:8.64"/>
	<circle cx="1996.34" cy="2369.39" r="22.03" style="fill:#000000;stroke:#000000;stroke-width:8.64"/>
	<line x1="390.80" y1="2489.19" x2="390.80" y2="100.86" style="stroke:#000000;stroke-width:5.76"/>
	<line x1="390.80" y1="2425.82" x2="350.83" y2="2425.82" style="stroke:#000000;stroke-width:5.76"/>
	<text x="300.72" y="2425.82" style="font-family:'Helvetica';font-size:99.99px;fill:#000000" transform="rotate(-90 300.72,2425.82)" text-anchor="middle">0</text>
	<line x1="390.80" y1="1973.50" x2="350.83" y2="1973.50" style="stroke:#000000;stroke-width:5.76"/>
	<text x="300.72" y="1973.50" style="font-family:'Helvetica';font-size:99.99px;fill:#000000" transform="rotate(-90 300.72,1973.50)" text-anchor="middle">5</text>
	<line x1="390.80" y1="1521.18" x2="350.83" y2="1521.18" style="stroke:#000000;stroke-width:5.76"/>
	<text x="300.72" y="1521.18" style="font-family:'Helvetica';font-size:99.99px;fill:#000000" transform="rotate(-90 300.72,1521.18)" text-anchor="middle">10</text>
	<line x1="390.80" y1="1068.86" x2="350.83" y2="1068.86" style="stroke:#000000;stroke-width:5.76"/>
	<text x="300.72" y="1068.86" style="font-family:'Helvetica';font-size:99.99px;fill:#000000" transform="rotate(-90 300.72,1068.86)" text-anchor="middle">15</text>
	<line x1="390.80" y1="616.54" x2="350.83" y2="616.54" style="stroke:#000000;stroke-width:5.76"/>
	<text x="300.72" y="616.54" style="font-family:'Helvetica';font-size:99.99px;fill:#000000" transform="rotate(-90 300.72,616.54)" text-anchor="middle">20</text>
	<line x1="390.80" y1="164.22" x2="350.83" y2="164.22" style="stroke:#000000;stroke-width:5.76"/>
	<text x="300.72" y="164.22" style="font-family:'Helvetica';font-size:99.99px;fill:#000000" transform="rotate(-90 300.72,164.22)" text-anchor="middle">25</text>
	<text x="190.71" y="1294.96" style="font-family:'Helvetica';font-size:99.99px;fill:#000000" transform="rotate(-90 190.71,1294.96)" text-anchor="middle">Confirmed cases per 100 beds</text>
	<line x1="390.80" y1="2489.19" x2="3859.02" y2="2489.19" style="stroke:#000000;stroke-width:5.76"/>
	<line x1="454.16" y1="2489.19" x2="454.16" y2="2529.16" style="stroke:#000000;stroke-width:5.76"/>
	<text x="454.16" y="2619.14" style="font-family:'Helvetica';font-size:99.99px;fill:#000000" text-anchor="middle">0</text>
	<line x1="1096.80" y1="2489.19" x2="1096.80" y2="2529.16" style="stroke:#000000;stroke-width:5.76"/>
	<text x="1096.80" y="2619.14" style="font-family:'Helvetica';font-size:99.99px;fill:#000000" text-anchor="middle">5</text>
	<line x1="1739.31" y1="2489.19" x2="1739.31" y2="2529.16" style="stroke:#000000;stroke-width:5.76"/>
	<text x="1739.31" y="2619.14" style="font-family:'Helvetica';font-size:99.99px;fill:#000000" text-anchor="middle">10</text>
	<line x1="2381.94" y1="2489.19" x2="2381.94" y2="2529.16" style="stroke:#000000;stroke-width:5.76"/>
	<text x="2381.94" y="2619.14" style="font-family:'Helvetica';font-size:99.99px;fill:#000000" text-anchor="middle">15</text>
	<line x1="3024.57" y1="2489.19" x2="3024.57" y2="2529.16" style="stroke:#000000;stroke-width:5.76"/>
	<text x="3024.57" y="2619.14" style="font-family:'Helvetica';font-size:99.99px;fill:#000000" text-anchor="middle">20</text>
	<line x1="3667.21" y1="2489.19" x2="3667.21" y2="2529.16" style="stroke:#000000;stroke-width:5.76"/>
	<text x="3667.21" y="2619.14" style="font-family:'Helvetica';font-size:99.99px;fill:#000000" text-anchor="middle">25</text>
	<text x="2124.91" y="2729.16" style="font-family:'Helvetica';font-size:99.99px;fill:#000000" text-anchor="middle">Days since 0.01 confirmed cases per 100 beds</text>
</svg>
