<?xml version="1.0" encoding="UTF-8" standalone="no"?>
<!-- This is a Stata 14.2 generated SVG file (http://www.stata.com) -->

<svg version="1.1" width="5.50in" height="4.00in" viewBox="0 0 3960 2880" xmlns="http://www.w3.org/2000/svg">
	<desc>Stata Graph - Graph</desc>
	<line x1="390.80" y1="4469.99" x2="3859.02" y2="4469.99" style="stroke:#FF0000;stroke-width:8.64"/>
	<path d="M561.95 2425.82 L561.95 2425.82 L669.74 2423.60 L777.52 2416.79 L885.31 2403.18 L993.09 2381.27 L1100.88 2351.08 L1208.67 2314.44 L1316.45 2273.73 L1424.24 2229.05 L1532.03 2178.44 L1639.81 2120.40 L1747.60 2054.44 L1855.51 1980.93 L1963.29 1901.85 L2071.08 1822.15 L2178.87 1750.87 L2286.65 1696.17 L2394.44 1657.93 L2502.22 1632.93 L2610.01 1618.45 L2717.80 1612.76 L2825.58 1614.25 L2933.37 1621.79 L3041.16 1634.17 L3148.94 1650.38 L3256.73 1669.44 L3364.51 1690.48 L3472.30 1712.88 L3580.09 1736.02 L3687.87 1759.41 L3795.66 1782.67 L3795.66 164.22 L3687.87 233.89 L3580.09 309.14 L3472.30 390.07 L3364.51 476.58 L3256.73 568.53 L3148.94 665.80 L3041.16 767.89 L2933.37 874.32 L2825.58 984.21 L2717.80 1096.46 L2610.01 1209.94 L2502.22 1322.68 L2394.44 1432.45 L2286.65 1535.54 L2178.87 1627.36 L2071.08 1706.44 L1963.29 1778.84 L1855.51 1851.11 L1747.60 1925.73 L1639.81 2001.72 L1532.03 2076.84 L1424.24 2147.75 L1316.45 2210.86 L1208.67 2262.59 L1100.88 2302.32 L993.09 2332.64 L885.31 2356.27 L777.52 2375.21 L669.74 2390.18 L561.95 2401.57 L561.95 2425.82 Z" stroke-linecap="round" style="fill:#EBEBFF;stroke:#E6E6FF;stroke-width:3.00"/>
	<path d="M561.95 2418.89 L561.95 2418.89 L669.74 2413.94 L777.52 2404.79 L885.31 2389.69 L993.09 2367.29 L1100.88 2336.97 L1208.67 2299.47 L1316.45 2255.54 L1424.24 2205.54 L1532.03 2149.11 L1639.81 2086.12 L1747.60 2017.31 L1855.51 1943.43 L1963.29 1866.33 L2071.08 1788.74 L2178.87 1715.23 L2286.65 1649.76 L2394.44 1592.84 L2502.22 1543.33 L2610.01 1500.52 L2717.80 1463.76 L2825.58 1432.45 L2933.37 1406.09 L3041.16 1384.19 L3148.94 1366.24 L3256.73 1351.64 L3364.51 1340.13 L3472.30 1331.10 L3580.09 1324.17 L3687.87 1319.09 L3795.66 1315.63 L3795.66 631.27 L3687.87 674.21 L3580.09 720.99 L3472.30 771.85 L3364.51 826.92 L3256.73 886.20 L3148.94 949.93 L3041.16 1017.88 L2933.37 1090.02 L2825.58 1166.01 L2717.80 1245.46 L2610.01 1327.88 L2502.22 1412.28 L2394.44 1497.55 L2286.65 1581.82 L2178.87 1663.00 L2071.08 1739.86 L1963.29 1814.36 L1855.51 1888.61 L1747.60 1962.86 L1639.81 2036.00 L1532.03 2106.17 L1424.24 2171.26 L1316.45 2228.93 L1208.67 2277.57 L1100.88 2316.42 L993.09 2346.62 L885.31 2369.76 L777.52 2387.21 L669.74 2399.83 L561.95 2408.62 L561.95 2418.89 Z" stroke-linecap="round" style="fill:#D6D6FF;stroke:#CCCCFF;stroke-width:3.00"/>
	<path d="M561.95 2417.66 L561.95 2417.66 L669.74 2412.46 L777.52 2402.81 L885.31 2387.46 L993.09 2364.94 L1100.88 2334.74 L1208.67 2297.00 L1316.45 2252.69 L1424.24 2201.83 L1532.03 2144.28 L1639.81 2080.67 L1747.60 2011.25 L1855.51 1937.37 L1963.29 1860.64 L2071.08 1783.42 L2178.87 1709.54 L2286.65 1642.34 L2394.44 1582.32 L2502.22 1528.86 L2610.01 1481.46 L2717.80 1439.63 L2825.58 1403.00 L2933.37 1371.19 L3041.16 1343.72 L3148.94 1320.21 L3256.73 1300.28 L3364.51 1283.45 L3472.30 1269.34 L3580.09 1257.59 L3687.87 1247.93 L3795.66 1240.01 L3795.66 706.88 L3687.87 745.37 L3580.09 787.57 L3472.30 833.61 L3364.51 883.60 L3256.73 937.68 L3148.94 995.85 L3041.16 1058.34 L2933.37 1124.92 L2825.58 1195.46 L2717.80 1269.59 L2610.01 1346.94 L2502.22 1426.76 L2394.44 1508.06 L2286.65 1589.37 L2178.87 1668.82 L2071.08 1745.30 L1963.29 1820.05 L1855.51 1894.67 L1747.60 1968.92 L1639.81 2041.57 L1532.03 2110.87 L1424.24 2174.97 L1316.45 2231.90 L1208.67 2280.04 L1100.88 2318.65 L993.09 2348.97 L885.31 2371.99 L777.52 2389.19 L669.74 2401.44 L561.95 2409.74 L561.95 2417.66 Z" stroke-linecap="round" style="fill:#C2C2FF;stroke:#B3B3FF;stroke-width:3.00"/>
	<path d="M561.95 2416.91 L561.95 2416.91 L669.74 2411.34 L777.52 2401.57 L885.31 2385.97 L993.09 2363.45 L1100.88 2333.13 L1208.67 2295.39 L1316.45 2250.71 L1424.24 2199.23 L1532.03 2141.19 L1639.81 2076.84 L1747.60 2007.29 L1855.51 1933.28 L1963.29 1856.80 L2071.08 1779.70 L2178.87 1705.58 L2286.65 1637.26 L2394.44 1575.26 L2502.22 1519.08 L2610.01 1468.59 L2717.80 1423.42 L2825.58 1383.20 L2933.37 1347.68 L3041.16 1316.37 L3148.94 1289.27 L3256.73 1265.63 L3364.51 1245.21 L3472.30 1227.64 L3580.09 1212.66 L3687.87 1199.92 L3795.66 1189.03 L3795.66 757.87 L3687.87 793.51 L3580.09 832.49 L3472.30 875.31 L3364.51 921.84 L3256.73 972.33 L3148.94 1026.91 L3041.16 1085.69 L2933.37 1148.44 L2825.58 1215.26 L2717.80 1285.93 L2610.01 1359.81 L2502.22 1436.53 L2394.44 1515.12 L2286.65 1594.44 L2178.87 1672.66 L2071.08 1748.89 L1963.29 1823.88 L1855.51 1898.76 L1747.60 1973.01 L1639.81 2045.28 L1532.03 2114.09 L1424.24 2177.57 L1316.45 2233.88 L1208.67 2281.65 L1100.88 2320.26 L993.09 2350.46 L885.31 2373.48 L777.52 2390.43 L669.74 2402.43 L561.95 2410.48 L561.95 2416.91 Z" stroke-linecap="round" style="fill:#ADADFF;stroke:#9999FF;stroke-width:3.00"/>
	<path d="M561.95 2416.29 L561.95 2416.29 L669.74 2410.48 L777.52 2400.45 L885.31 2384.86 L993.09 2362.21 L1100.88 2332.02 L1208.67 2294.15 L1316.45 2249.10 L1424.24 2197.13 L1532.03 2138.59 L1639.81 2073.87 L1747.60 2004.07 L1855.51 1930.07 L1963.29 1853.71 L2071.08 1776.86 L2178.87 1702.48 L2286.65 1633.18 L2394.44 1569.57 L2502.22 1511.41 L2610.01 1458.44 L2717.80 1410.42 L2825.58 1367.36 L2933.37 1328.87 L3041.16 1294.71 L3148.94 1264.52 L3256.73 1238.03 L3364.51 1214.77 L3472.30 1194.47 L3580.09 1176.90 L3687.87 1161.68 L3795.66 1148.56 L3795.66 798.34 L3687.87 831.63 L3580.09 868.26 L3472.30 908.35 L3364.51 952.16 L3256.73 999.81 L3148.94 1051.54 L3041.16 1107.35 L2933.37 1167.25 L2825.58 1231.10 L2717.80 1298.80 L2610.01 1370.08 L2502.22 1444.21 L2394.44 1520.81 L2286.65 1598.40 L2178.87 1675.75 L2071.08 1751.74 L1963.29 1826.98 L1855.51 1901.97 L1747.60 1976.23 L1639.81 2048.25 L1532.03 2116.69 L1424.24 2179.55 L1316.45 2235.49 L1208.67 2282.89 L1100.88 2321.50 L993.09 2351.69 L885.31 2374.71 L777.52 2391.54 L669.74 2403.30 L561.95 2411.10 L561.95 2416.29 Z" stroke-linecap="round" style="fill:#9999FF;stroke:#8080FF;stroke-width:3.00"/>
	<path d="M561.95 2415.80 L561.95 2415.80 L669.74 2409.86 L777.52 2399.59 L885.31 2383.75 L993.09 2361.10 L1100.88 2330.90 L1208.67 2293.04 L1316.45 2247.74 L1424.24 2195.39 L1532.03 2136.49 L1639.81 2071.39 L1747.60 2001.22 L1855.51 1927.34 L1963.29 1850.99 L2071.08 1774.38 L2178.87 1699.88 L2286.65 1629.71 L2394.44 1564.74 L2502.22 1504.72 L2610.01 1449.65 L2717.80 1399.41 L2825.58 1353.87 L2933.37 1312.90 L3041.16 1276.15 L3148.94 1243.36 L3256.73 1214.40 L3364.51 1188.66 L3472.30 1166.13 L3580.09 1146.33 L3687.87 1128.88 L3795.66 1113.78 L3795.66 833.11 L3687.87 864.42 L3580.09 898.95 L3472.30 936.82 L3364.51 978.27 L3256.73 1023.57 L3148.94 1072.70 L3041.16 1125.91 L2933.37 1183.21 L2825.58 1244.59 L2717.80 1309.93 L2610.01 1378.74 L2502.22 1450.89 L2394.44 1525.64 L2286.65 1601.87 L2178.87 1678.47 L2071.08 1754.33 L1963.29 1829.70 L1855.51 1904.82 L1747.60 1978.95 L1639.81 2050.85 L1532.03 2118.79 L1424.24 2181.41 L1316.45 2236.85 L1208.67 2284.00 L1100.88 2322.49 L993.09 2352.68 L885.31 2375.70 L777.52 2392.41 L669.74 2404.04 L561.95 2411.59 L561.95 2415.80 Z" stroke-linecap="round" style="fill:#8585FF;stroke:#6666FF;stroke-width:3.00"/>
	<path d="M561.95 2415.30 L561.95 2415.30 L669.74 2409.12 L777.52 2398.84 L885.31 2382.88 L993.09 2360.23 L1100.88 2330.04 L1208.67 2292.05 L1316.45 2246.50 L1424.24 2193.91 L1532.03 2134.51 L1639.81 2069.04 L1747.60 1998.75 L1855.51 1924.74 L1963.29 1848.64 L2071.08 1772.16 L2178.87 1697.41 L2286.65 1626.62 L2394.44 1560.41 L2502.22 1498.78 L2610.01 1441.73 L2717.80 1389.38 L2825.58 1341.74 L2933.37 1298.43 L3041.16 1259.44 L3148.94 1224.42 L3256.73 1193.11 L3364.51 1165.27 L3472.30 1140.64 L3580.09 1118.73 L3687.87 1099.43 L3795.66 1082.48 L3795.66 864.42 L3687.87 893.87 L3580.09 926.42 L3472.30 962.31 L3364.51 1001.66 L3256.73 1044.73 L3148.94 1091.76 L3041.16 1142.62 L2933.37 1197.69 L2825.58 1256.72 L2717.80 1319.83 L2610.01 1386.66 L2502.22 1456.95 L2394.44 1529.97 L2286.65 1604.96 L2178.87 1680.83 L2071.08 1756.56 L1963.29 1832.05 L1855.51 1907.29 L1747.60 1981.42 L1639.81 2053.08 L1532.03 2120.77 L1424.24 2182.89 L1316.45 2238.09 L1208.67 2284.99 L1100.88 2323.48 L993.09 2353.67 L885.31 2376.57 L777.52 2393.15 L669.74 2404.66 L561.95 2412.09 L561.95 2415.30 Z" stroke-linecap="round" style="fill:#7171FF;stroke:#4D4DFF;stroke-width:3.00"/>
	<path d="M561.95 2414.93 L561.95 2414.93 L669.74 2408.50 L777.52 2398.10 L885.31 2382.01 L993.09 2359.37 L1100.88 2329.17 L1208.67 2291.06 L1316.45 2245.39 L1424.24 2192.42 L1532.03 2132.65 L1639.81 2066.94 L1747.60 1996.52 L1855.51 1922.52 L1963.29 1846.41 L2071.08 1770.05 L2178.87 1695.30 L2286.65 1623.77 L2394.44 1556.33 L2502.22 1493.21 L2610.01 1434.43 L2717.80 1380.23 L2825.58 1330.48 L2933.37 1285.06 L3041.16 1243.97 L3148.94 1206.85 L3256.73 1173.43 L3364.51 1143.61 L3472.30 1117.00 L3580.09 1093.24 L3687.87 1072.20 L3795.66 1053.64 L3795.66 893.26 L3687.87 921.10 L3580.09 951.91 L3472.30 985.95 L3364.51 1023.32 L3256.73 1064.41 L3148.94 1109.33 L3041.16 1158.09 L2933.37 1211.06 L2825.58 1267.98 L2717.80 1329.12 L2610.01 1393.96 L2502.22 1462.40 L2394.44 1534.05 L2286.65 1607.81 L2178.87 1683.05 L2071.08 1758.54 L1963.29 1834.28 L1855.51 1909.65 L1747.60 1983.77 L1639.81 2055.18 L1532.03 2122.63 L1424.24 2184.38 L1316.45 2239.20 L1208.67 2285.98 L1100.88 2324.35 L993.09 2354.54 L885.31 2377.44 L777.52 2393.89 L669.74 2405.28 L561.95 2412.46 L561.95 2414.93 Z" stroke-linecap="round" style="fill:#5C5CFF;stroke:#3333FF;stroke-width:3.00"/>
	<path d="M561.95 2414.56 L561.95 2414.56 L669.74 2408.00 L777.52 2397.36 L885.31 2381.27 L993.09 2358.50 L1100.88 2328.31 L1208.67 2290.19 L1316.45 2244.28 L1424.24 2191.06 L1532.03 2130.92 L1639.81 2064.96 L1747.60 1994.29 L1855.51 1920.29 L1963.29 1844.30 L2071.08 1768.07 L2178.87 1693.20 L2286.65 1621.05 L2394.44 1552.49 L2502.22 1487.89 L2610.01 1427.50 L2717.80 1371.44 L2825.58 1319.71 L2933.37 1272.44 L3041.16 1229.25 L3148.94 1190.14 L3256.73 1154.75 L3364.51 1123.07 L3472.30 1094.48 L3580.09 1069.11 L3687.87 1046.34 L3795.66 1026.17 L3795.66 920.73 L3687.87 946.96 L3580.09 976.17 L3472.30 1008.35 L3364.51 1043.99 L3256.73 1083.09 L3148.94 1126.04 L3041.16 1172.82 L2933.37 1223.68 L2825.58 1278.75 L2717.80 1337.78 L2610.01 1400.89 L2502.22 1467.72 L2394.44 1537.89 L2286.65 1610.53 L2178.87 1685.16 L2071.08 1760.52 L1963.29 1836.38 L1855.51 1911.87 L1747.60 1985.88 L1639.81 2057.28 L1532.03 2124.36 L1424.24 2185.74 L1316.45 2240.19 L1208.67 2286.85 L1100.88 2325.09 L993.09 2355.41 L885.31 2378.18 L777.52 2394.64 L669.74 2405.78 L561.95 2412.95 L561.95 2414.56 Z" stroke-linecap="round" style="fill:#4747FF;stroke:#1919FF;stroke-width:3.00"/>
	<path d="M561.95 2414.07 L561.95 2414.07 L669.74 2407.38 L777.52 2396.62 L885.31 2380.53 L993.09 2357.76 L1100.88 2327.44 L1208.67 2289.32 L1316.45 2243.29 L1424.24 2189.70 L1532.03 2129.31 L1639.81 2062.98 L1747.60 1992.19 L1855.51 1918.18 L1963.29 1842.32 L2071.08 1766.22 L2178.87 1691.10 L2286.65 1618.45 L2394.44 1548.78 L2502.22 1482.82 L2610.01 1420.82 L2717.80 1363.03 L2825.58 1309.44 L2933.37 1260.19 L3041.16 1215.02 L3148.94 1173.93 L3256.73 1136.68 L3364.51 1103.14 L3472.30 1072.82 L3580.09 1045.60 L3687.87 1021.34 L3795.66 999.56 L3795.66 947.34 L3687.87 972.09 L3580.09 999.56 L3472.30 1030.13 L3364.51 1063.91 L3256.73 1101.16 L3148.94 1142.12 L3041.16 1187.05 L2933.37 1235.93 L2825.58 1289.02 L2717.80 1346.32 L2610.01 1407.58 L2502.22 1472.79 L2394.44 1541.48 L2286.65 1613.26 L2178.87 1687.14 L2071.08 1762.50 L1963.29 1838.36 L1855.51 1913.98 L1747.60 1987.98 L1639.81 2059.14 L1532.03 2125.97 L1424.24 2187.10 L1316.45 2241.31 L1208.67 2287.71 L1100.88 2325.95 L993.09 2356.15 L885.31 2378.92 L777.52 2395.38 L669.74 2406.39 L561.95 2413.32 L561.95 2414.07 Z" stroke-linecap="round" style="fill:#3333FF;stroke:#0000FF;stroke-width:3.00"/>
	<circle cx="561.83" cy="2403.67" r="22.03" style="fill:#000000;stroke:#000000;stroke-width:8.64"/>
	<circle cx="669.61" cy="2403.67" r="22.03" style="fill:#000000;stroke:#000000;stroke-width:8.64"/>
	<circle cx="777.40" cy="2397.73" r="22.03" style="fill:#000000;stroke:#000000;stroke-width:8.64"/>
	<circle cx="885.31" cy="2362.21" r="22.03" style="fill:#000000;stroke:#000000;stroke-width:8.64"/>
	<circle cx="993.09" cy="2344.52" r="22.03" style="fill:#000000;stroke:#000000;stroke-width:8.64"/>
	<circle cx="1100.88" cy="2326.82" r="22.03" style="fill:#000000;stroke:#000000;stroke-width:8.64"/>
	<circle cx="1208.67" cy="2291.30" r="22.03" style="fill:#000000;stroke:#000000;stroke-width:8.64"/>
	<circle cx="1316.45" cy="2232.15" r="22.03" style="fill:#000000;stroke:#000000;stroke-width:8.64"/>
	<circle cx="1424.24" cy="2178.93" r="22.03" style="fill:#000000;stroke:#000000;stroke-width:8.64"/>
	<circle cx="1532.03" cy="2178.93" r="22.03" style="fill:#000000;stroke:#000000;stroke-width:8.64"/>
	<circle cx="1639.81" cy="2060.75" r="22.03" style="fill:#000000;stroke:#000000;stroke-width:8.64"/>
	<circle cx="1747.60" cy="2031.17" r="22.03" style="fill:#000000;stroke:#000000;stroke-width:8.64"/>
	<circle cx="1855.38" cy="1871.53" r="22.03" style="fill:#000000;stroke:#000000;stroke-width:8.64"/>
	<circle cx="1963.17" cy="1836.14" r="22.03" style="fill:#000000;stroke:#000000;stroke-width:8.64"/>
	<circle cx="2070.96" cy="1711.89" r="22.03" style="fill:#000000;stroke:#000000;stroke-width:8.64"/>
	<circle cx="2178.74" cy="1711.89" r="22.03" style="fill:#000000;stroke:#000000;stroke-width:8.64"/>
	<circle cx="2286.53" cy="1635.04" r="22.03" style="fill:#000000;stroke:#000000;stroke-width:8.64"/>
	<line x1="390.80" y1="2489.19" x2="390.80" y2="100.86" style="stroke:#000000;stroke-width:5.76"/>
	<line x1="390.80" y1="2421.37" x2="350.83" y2="2421.37" style="stroke:#000000;stroke-width:5.76"/>
	<text x="300.72" y="2421.37" style="font-family:'Helvetica';font-size:99.99px;fill:#000000" transform="rotate(-90 300.72,2421.37)" text-anchor="middle">0</text>
	<line x1="390.80" y1="1712.75" x2="350.83" y2="1712.75" style="stroke:#000000;stroke-width:5.76"/>
	<text x="300.72" y="1712.75" style="font-family:'Helvetica';font-size:99.99px;fill:#000000" transform="rotate(-90 300.72,1712.75)" text-anchor="middle">.5</text>
	<line x1="390.80" y1="1004.14" x2="350.83" y2="1004.14" style="stroke:#000000;stroke-width:5.76"/>
	<text x="300.72" y="1004.14" style="font-family:'Helvetica';font-size:99.99px;fill:#000000" transform="rotate(-90 300.72,1004.14)" text-anchor="middle">1</text>
	<line x1="390.80" y1="295.52" x2="350.83" y2="295.52" style="stroke:#000000;stroke-width:5.76"/>
	<text x="300.72" y="295.52" style="font-family:'Helvetica';font-size:99.99px;fill:#000000" transform="rotate(-90 300.72,295.52)" text-anchor="middle">1.5</text>
	<text x="190.71" y="1294.96" style="font-family:'Helvetica';font-size:99.99px;fill:#000000" transform="rotate(-90 190.71,1294.96)" text-anchor="middle">Confirmed cases per 100 beds</text>
	<line x1="390.80" y1="2489.19" x2="3859.02" y2="2489.19" style="stroke:#000000;stroke-width:5.76"/>
	<line x1="454.16" y1="2489.19" x2="454.16" y2="2529.16" style="stroke:#000000;stroke-width:5.76"/>
	<text x="454.16" y="2619.14" style="font-family:'Helvetica';font-size:99.99px;fill:#000000" text-anchor="middle">0</text>
	<line x1="1532.03" y1="2489.19" x2="1532.03" y2="2529.16" style="stroke:#000000;stroke-width:5.76"/>
	<text x="1532.03" y="2619.14" style="font-family:'Helvetica';font-size:99.99px;fill:#000000" text-anchor="middle">10</text>
	<line x1="2610.01" y1="2489.19" x2="2610.01" y2="2529.16" style="stroke:#000000;stroke-width:5.76"/>
	<text x="2610.01" y="2619.14" style="font-family:'Helvetica';font-size:99.99px;fill:#000000" text-anchor="middle">20</text>
	<line x1="3687.87" y1="2489.19" x2="3687.87" y2="2529.16" style="stroke:#000000;stroke-width:5.76"/>
	<text x="3687.87" y="2619.14" style="font-family:'Helvetica';font-size:99.99px;fill:#000000" text-anchor="middle">30</text>
	<text x="2124.91" y="2729.16" style="font-family:'Helvetica';font-size:99.99px;fill:#000000" text-anchor="middle">Days since 0.01 confirmed cases per 100 beds</text>
</svg>
