<?xml version="1.0" encoding="UTF-8" standalone="no"?>
<!-- This is a Stata 14.2 generated SVG file (http://www.stata.com) -->

<svg version="1.1" width="5.50in" height="4.00in" viewBox="0 0 3960 2880" xmlns="http://www.w3.org/2000/svg">
	<desc>Stata Graph - Graph</desc>
	<line x1="390.80" y1="1715.85" x2="3859.02" y2="1715.85" style="stroke:#FF0000;stroke-width:8.64"/>
	<path d="M587.81 1722.90 L587.81 1722.90 L721.46 1722.90 L855.11 1722.90 L988.76 1722.90 L1122.41 1722.90 L1256.06 1722.78 L1389.84 1722.53 L1523.49 1722.04 L1657.14 1721.54 L1790.79 1721.05 L1924.44 1720.92 L2058.09 1721.05 L2191.74 1722.16 L2325.39 1724.88 L2459.04 1730.20 L2592.81 1739.98 L2726.46 1756.56 L2860.11 1783.54 L2993.76 1825.62 L3127.41 1889.72 L3261.06 1984.64 L3394.71 2122.13 L3528.36 2317.29 L3528.36 164.22 L3394.71 626.32 L3261.06 962.19 L3127.41 1202.89 L2993.76 1372.93 L2860.11 1491.36 L2726.46 1572.29 L2592.81 1626.87 L2459.04 1662.88 L2325.39 1686.27 L2191.74 1701.12 L2058.09 1710.28 L1924.44 1715.85 L1790.79 1719.06 L1657.14 1720.80 L1523.49 1721.54 L1389.84 1721.91 L1256.06 1722.16 L1122.41 1722.41 L988.76 1722.53 L855.11 1722.65 L721.46 1722.78 L587.81 1722.78 L587.81 1722.90 Z" stroke-linecap="round" style="fill:#EBEBFF;stroke:#E6E6FF;stroke-width:3.00"/>
	<path d="M587.81 1722.90 L587.81 1722.90 L721.46 1722.78 L855.11 1722.78 L988.76 1722.78 L1122.41 1722.78 L1256.06 1722.65 L1389.84 1722.41 L1523.49 1721.91 L1657.14 1721.29 L1790.79 1720.43 L1924.44 1719.44 L2058.09 1717.95 L2191.74 1716.09 L2325.39 1713.74 L2459.04 1710.77 L2592.81 1707.31 L2726.46 1703.35 L2860.11 1699.14 L2993.76 1695.06 L3127.41 1691.47 L3261.06 1689.49 L3394.71 1690.35 L3528.36 1695.92 L3528.36 785.59 L3394.71 1057.97 L3261.06 1257.22 L3127.41 1401.14 L2993.76 1503.61 L2860.11 1575.63 L2726.46 1625.51 L2592.81 1659.54 L2459.04 1682.31 L2325.39 1697.41 L2191.74 1707.18 L2058.09 1713.37 L1924.44 1717.21 L1790.79 1719.56 L1657.14 1720.92 L1523.49 1721.66 L1389.84 1722.16 L1256.06 1722.41 L1122.41 1722.53 L988.76 1722.65 L855.11 1722.78 L721.46 1722.78 L587.81 1722.78 L587.81 1722.90 Z" stroke-linecap="round" style="fill:#D6D6FF;stroke:#CCCCFF;stroke-width:3.00"/>
	<path d="M587.81 1722.78 L587.81 1722.78 L721.46 1722.78 L855.11 1722.78 L988.76 1722.78 L1122.41 1722.65 L1256.06 1722.53 L1389.84 1722.28 L1523.49 1721.91 L1657.14 1721.29 L1790.79 1720.43 L1924.44 1719.19 L2058.09 1717.46 L2191.74 1715.10 L2325.39 1711.89 L2459.04 1707.68 L2592.81 1702.11 L2726.46 1694.81 L2860.11 1685.53 L2993.76 1673.89 L3127.41 1659.42 L3261.06 1641.84 L3394.71 1620.56 L3528.36 1595.31 L3528.36 886.08 L3394.71 1127.89 L3261.06 1304.98 L3127.41 1433.19 L2993.76 1524.77 L2860.11 1589.25 L2726.46 1634.17 L2592.81 1664.86 L2459.04 1685.53 L2325.39 1699.26 L2191.74 1708.17 L2058.09 1713.87 L1924.44 1717.46 L1790.79 1719.68 L1657.14 1721.05 L1523.49 1721.66 L1389.84 1722.16 L1256.06 1722.41 L1122.41 1722.53 L988.76 1722.65 L855.11 1722.78 L721.46 1722.78 L587.81 1722.78 L587.81 1722.78 Z" stroke-linecap="round" style="fill:#C2C2FF;stroke:#B3B3FF;stroke-width:3.00"/>
	<path d="M587.81 1722.78 L587.81 1722.78 L721.46 1722.78 L855.11 1722.78 L988.76 1722.78 L1122.41 1722.65 L1256.06 1722.53 L1389.84 1722.28 L1523.49 1721.91 L1657.14 1721.17 L1790.79 1720.30 L1924.44 1718.94 L2058.09 1717.08 L2191.74 1714.49 L2325.39 1710.77 L2459.04 1705.58 L2592.81 1698.52 L2726.46 1688.99 L2860.11 1676.37 L2993.76 1659.66 L3127.41 1637.76 L3261.06 1609.54 L3394.71 1573.41 L3528.36 1527.49 L3528.36 953.89 L3394.71 1175.04 L3261.06 1337.16 L3127.41 1454.85 L2993.76 1539.00 L2860.11 1598.53 L2726.46 1639.86 L2592.81 1668.33 L2459.04 1687.63 L2325.39 1700.38 L2191.74 1708.79 L2058.09 1714.24 L1924.44 1717.70 L1790.79 1719.81 L1657.14 1721.05 L1523.49 1721.79 L1389.84 1722.16 L1256.06 1722.41 L1122.41 1722.53 L988.76 1722.65 L855.11 1722.78 L721.46 1722.78 L587.81 1722.78 L587.81 1722.78 Z" stroke-linecap="round" style="fill:#ADADFF;stroke:#9999FF;stroke-width:3.00"/>
	<path d="M587.81 1722.78 L587.81 1722.78 L721.46 1722.78 L855.11 1722.78 L988.76 1722.78 L1122.41 1722.65 L1256.06 1722.53 L1389.84 1722.28 L1523.49 1721.91 L1657.14 1721.17 L1790.79 1720.30 L1924.44 1718.82 L2058.09 1716.84 L2191.74 1713.87 L2325.39 1709.78 L2459.04 1703.84 L2592.81 1695.68 L2726.46 1684.41 L2860.11 1668.94 L2993.76 1648.28 L3127.41 1620.56 L3261.06 1584.05 L3394.71 1536.03 L3528.36 1473.66 L3528.36 1007.85 L3394.71 1212.42 L3261.06 1362.78 L3127.41 1472.05 L2993.76 1550.39 L2860.11 1605.83 L2726.46 1644.57 L2592.81 1671.17 L2459.04 1689.24 L2325.39 1701.37 L2191.74 1709.41 L2058.09 1714.49 L1924.44 1717.83 L1790.79 1719.81 L1657.14 1721.05 L1523.49 1721.79 L1389.84 1722.16 L1256.06 1722.41 L1122.41 1722.65 L988.76 1722.65 L855.11 1722.78 L721.46 1722.78 L587.81 1722.78 L587.81 1722.78 Z" stroke-linecap="round" style="fill:#9999FF;stroke:#8080FF;stroke-width:3.00"/>
	<path d="M587.81 1722.78 L587.81 1722.78 L721.46 1722.78 L855.11 1722.78 L988.76 1722.78 L1122.41 1722.65 L1256.06 1722.53 L1389.84 1722.28 L1523.49 1721.91 L1657.14 1721.17 L1790.79 1720.18 L1924.44 1718.82 L2058.09 1716.59 L2191.74 1713.50 L2325.39 1708.92 L2459.04 1702.36 L2592.81 1693.20 L2726.46 1680.45 L2860.11 1662.76 L2993.76 1638.50 L3127.41 1605.83 L3261.06 1562.02 L3394.71 1503.86 L3528.36 1427.38 L3528.36 1054.14 L3394.71 1244.59 L3261.06 1384.81 L3127.41 1486.78 L2993.76 1560.04 L2860.11 1612.02 L2726.46 1648.53 L2592.81 1673.65 L2459.04 1690.73 L2325.39 1702.23 L2191.74 1709.78 L2058.09 1714.73 L1924.44 1717.83 L1790.79 1719.81 L1657.14 1721.05 L1523.49 1721.79 L1389.84 1722.16 L1256.06 1722.41 L1122.41 1722.65 L988.76 1722.65 L855.11 1722.78 L721.46 1722.78 L587.81 1722.78 L587.81 1722.78 Z" stroke-linecap="round" style="fill:#8585FF;stroke:#6666FF;stroke-width:3.00"/>
	<path d="M587.81 1722.78 L587.81 1722.78 L721.46 1722.78 L855.11 1722.78 L988.76 1722.78 L1122.41 1722.65 L1256.06 1722.53 L1389.84 1722.28 L1523.49 1721.79 L1657.14 1721.17 L1790.79 1720.18 L1924.44 1718.69 L2058.09 1716.47 L2191.74 1713.12 L2325.39 1708.17 L2459.04 1701.12 L2592.81 1691.10 L2726.46 1676.86 L2860.11 1657.06 L2993.76 1629.84 L3127.41 1592.59 L3261.06 1542.34 L3394.71 1475.02 L3528.36 1385.80 L3528.36 1095.59 L3394.71 1273.43 L3261.06 1404.48 L3127.41 1500.02 L2993.76 1568.83 L2860.11 1617.71 L2726.46 1651.99 L2592.81 1675.75 L2459.04 1692.09 L2325.39 1702.98 L2191.74 1710.28 L2058.09 1714.98 L1924.44 1717.95 L1790.79 1719.93 L1657.14 1721.05 L1523.49 1721.79 L1389.84 1722.16 L1256.06 1722.41 L1122.41 1722.65 L988.76 1722.65 L855.11 1722.78 L721.46 1722.78 L587.81 1722.78 L587.81 1722.78 Z" stroke-linecap="round" style="fill:#7171FF;stroke:#4D4DFF;stroke-width:3.00"/>
	<path d="M587.81 1722.78 L587.81 1722.78 L721.46 1722.78 L855.11 1722.78 L988.76 1722.78 L1122.41 1722.65 L1256.06 1722.53 L1389.84 1722.28 L1523.49 1721.79 L1657.14 1721.17 L1790.79 1720.18 L1924.44 1718.57 L2058.09 1716.22 L2191.74 1712.63 L2325.39 1707.43 L2459.04 1699.88 L2592.81 1688.99 L2726.46 1673.52 L2860.11 1651.87 L2993.76 1621.67 L3127.41 1580.34 L3261.06 1524.03 L3394.71 1448.29 L3528.36 1347.31 L3528.36 1134.08 L3394.71 1300.16 L3261.06 1422.80 L3127.41 1512.27 L2993.76 1576.87 L2860.11 1622.91 L2726.46 1655.33 L2592.81 1677.85 L2459.04 1693.20 L2325.39 1703.72 L2191.74 1710.65 L2058.09 1715.10 L1924.44 1718.07 L1790.79 1719.93 L1657.14 1721.05 L1523.49 1721.79 L1389.84 1722.16 L1256.06 1722.41 L1122.41 1722.65 L988.76 1722.65 L855.11 1722.78 L721.46 1722.78 L587.81 1722.78 L587.81 1722.78 Z" stroke-linecap="round" style="fill:#5C5CFF;stroke:#3333FF;stroke-width:3.00"/>
	<path d="M587.81 1722.78 L587.81 1722.78 L721.46 1722.78 L855.11 1722.78 L988.76 1722.78 L1122.41 1722.65 L1256.06 1722.53 L1389.84 1722.28 L1523.49 1721.79 L1657.14 1721.17 L1790.79 1720.06 L1924.44 1718.45 L2058.09 1715.97 L2191.74 1712.38 L2325.39 1706.81 L2459.04 1698.77 L2592.81 1687.14 L2726.46 1670.43 L2860.11 1646.92 L2993.76 1614.00 L3127.41 1568.70 L3261.06 1506.70 L3394.71 1422.92 L3528.36 1310.80 L3528.36 1170.59 L3394.71 1325.53 L3261.06 1440.12 L3127.41 1523.91 L2993.76 1584.54 L2860.11 1627.86 L2726.46 1658.43 L2592.81 1679.71 L2459.04 1694.44 L2325.39 1704.34 L2191.74 1710.90 L2058.09 1715.35 L1924.44 1718.20 L1790.79 1719.93 L1657.14 1721.05 L1523.49 1721.79 L1389.84 1722.16 L1256.06 1722.53 L1122.41 1722.65 L988.76 1722.78 L855.11 1722.78 L721.46 1722.78 L587.81 1722.78 L587.81 1722.78 Z" stroke-linecap="round" style="fill:#4747FF;stroke:#1919FF;stroke-width:3.00"/>
	<path d="M587.81 1722.78 L587.81 1722.78 L721.46 1722.78 L855.11 1722.78 L988.76 1722.78 L1122.41 1722.65 L1256.06 1722.53 L1389.84 1722.28 L1523.49 1721.79 L1657.14 1721.17 L1790.79 1720.06 L1924.44 1718.45 L2058.09 1715.85 L2191.74 1712.01 L2325.39 1706.19 L2459.04 1697.66 L2592.81 1685.28 L2726.46 1667.46 L2860.11 1642.09 L2993.76 1606.57 L3127.41 1557.44 L3261.06 1489.87 L3394.71 1398.42 L3528.36 1275.53 L3528.36 1205.98 L3394.71 1350.03 L3261.06 1456.95 L3127.41 1535.17 L2993.76 1591.97 L2860.11 1632.68 L2726.46 1661.52 L2592.81 1681.57 L2459.04 1695.55 L2325.39 1704.96 L2191.74 1711.27 L2058.09 1715.48 L1924.44 1718.20 L1790.79 1720.06 L1657.14 1721.17 L1523.49 1721.79 L1389.84 1722.28 L1256.06 1722.53 L1122.41 1722.65 L988.76 1722.78 L855.11 1722.78 L721.46 1722.78 L587.81 1722.78 L587.81 1722.78 Z" stroke-linecap="round" style="fill:#3333FF;stroke:#0000FF;stroke-width:3.00"/>
	<circle cx="587.69" cy="1722.90" r="22.03" style="fill:#000000;stroke:#000000;stroke-width:8.64"/>
	<circle cx="721.46" cy="1722.90" r="22.03" style="fill:#000000;stroke:#000000;stroke-width:8.64"/>
	<circle cx="855.11" cy="1722.90" r="22.03" style="fill:#000000;stroke:#000000;stroke-width:8.64"/>
	<circle cx="988.76" cy="1722.78" r="22.03" style="fill:#000000;stroke:#000000;stroke-width:8.64"/>
	<circle cx="1122.41" cy="1722.53" r="22.03" style="fill:#000000;stroke:#000000;stroke-width:8.64"/>
	<circle cx="1256.06" cy="1722.41" r="22.03" style="fill:#000000;stroke:#000000;stroke-width:8.64"/>
	<circle cx="1389.71" cy="1722.41" r="22.03" style="fill:#000000;stroke:#000000;stroke-width:8.64"/>
	<circle cx="1523.36" cy="1722.04" r="22.03" style="fill:#000000;stroke:#000000;stroke-width:8.64"/>
	<circle cx="1657.01" cy="1721.17" r="22.03" style="fill:#000000;stroke:#000000;stroke-width:8.64"/>
	<line x1="390.80" y1="2489.19" x2="390.80" y2="100.86" style="stroke:#000000;stroke-width:5.76"/>
	<line x1="390.80" y1="2425.82" x2="350.83" y2="2425.82" style="stroke:#000000;stroke-width:5.76"/>
	<text x="300.72" y="2425.82" style="font-family:'Helvetica';font-size:99.99px;fill:#000000" transform="rotate(-90 300.72,2425.82)" text-anchor="middle">-1000</text>
	<line x1="390.80" y1="1722.90" x2="350.83" y2="1722.90" style="stroke:#000000;stroke-width:5.76"/>
	<text x="300.72" y="1722.90" style="font-family:'Helvetica';font-size:99.99px;fill:#000000" transform="rotate(-90 300.72,1722.90)" text-anchor="middle">0</text>
	<line x1="390.80" y1="1019.86" x2="350.83" y2="1019.86" style="stroke:#000000;stroke-width:5.76"/>
	<text x="300.72" y="1019.86" style="font-family:'Helvetica';font-size:99.99px;fill:#000000" transform="rotate(-90 300.72,1019.86)" text-anchor="middle">1000</text>
	<line x1="390.80" y1="316.81" x2="350.83" y2="316.81" style="stroke:#000000;stroke-width:5.76"/>
	<text x="300.72" y="316.81" style="font-family:'Helvetica';font-size:99.99px;fill:#000000" transform="rotate(-90 300.72,316.81)" text-anchor="middle">2000</text>
	<text x="190.71" y="1294.96" style="font-family:'Helvetica';font-size:99.99px;fill:#000000" transform="rotate(-90 190.71,1294.96)" text-anchor="middle">Confirmed cases per 100 beds</text>
	<line x1="390.80" y1="2489.19" x2="3859.02" y2="2489.19" style="stroke:#000000;stroke-width:5.76"/>
	<line x1="454.16" y1="2489.19" x2="454.16" y2="2529.16" style="stroke:#000000;stroke-width:5.76"/>
	<text x="454.16" y="2619.14" style="font-family:'Helvetica';font-size:99.99px;fill:#000000" text-anchor="middle">0</text>
	<line x1="3795.66" y1="2489.19" x2="3795.66" y2="2529.16" style="stroke:#000000;stroke-width:5.76"/>
	<text x="3795.66" y="2619.14" style="font-family:'Helvetica';font-size:99.99px;fill:#000000" text-anchor="middle">25</text>
	<line x1="587.81" y1="2489.19" x2="587.81" y2="2529.16" style="stroke:#000000;stroke-width:5.76"/>
	<text x="587.81" y="2619.14" style="font-family:'Helvetica';font-size:99.99px;fill:#000000" text-anchor="middle">1</text>
	<line x1="721.46" y1="2489.19" x2="721.46" y2="2529.16" style="stroke:#000000;stroke-width:5.76"/>
	<text x="721.46" y="2619.14" style="font-family:'Helvetica';font-size:99.99px;fill:#000000" text-anchor="middle">2</text>
	<line x1="855.11" y1="2489.19" x2="855.11" y2="2529.16" style="stroke:#000000;stroke-width:5.76"/>
	<text x="855.11" y="2619.14" style="font-family:'Helvetica';font-size:99.99px;fill:#000000" text-anchor="middle">3</text>
	<line x1="988.76" y1="2489.19" x2="988.76" y2="2529.16" style="stroke:#000000;stroke-width:5.76"/>
	<text x="988.76" y="2619.14" style="font-family:'Helvetica';font-size:99.99px;fill:#000000" text-anchor="middle">4</text>
	<line x1="1122.41" y1="2489.19" x2="1122.41" y2="2529.16" style="stroke:#000000;stroke-width:5.76"/>
	<text x="1122.41" y="2619.14" style="font-family:'Helvetica';font-size:99.99px;fill:#000000" text-anchor="middle">5</text>
	<line x1="1256.06" y1="2489.19" x2="1256.06" y2="2529.16" style="stroke:#000000;stroke-width:5.76"/>
	<text x="1256.06" y="2619.14" style="font-family:'Helvetica';font-size:99.99px;fill:#000000" text-anchor="middle">6</text>
	<line x1="1389.84" y1="2489.19" x2="1389.84" y2="2529.16" style="stroke:#000000;stroke-width:5.76"/>
	<text x="1389.84" y="2619.14" style="font-family:'Helvetica';font-size:99.99px;fill:#000000" text-anchor="middle">7</text>
	<line x1="1523.49" y1="2489.19" x2="1523.49" y2="2529.16" style="stroke:#000000;stroke-width:5.76"/>
	<text x="1523.49" y="2619.14" style="font-family:'Helvetica';font-size:99.99px;fill:#000000" text-anchor="middle">8</text>
	<line x1="1657.14" y1="2489.19" x2="1657.14" y2="2529.16" style="stroke:#000000;stroke-width:5.76"/>
	<text x="1657.14" y="2619.14" style="font-family:'Helvetica';font-size:99.99px;fill:#000000" text-anchor="middle">9</text>
	<line x1="1790.79" y1="2489.19" x2="1790.79" y2="2529.16" style="stroke:#000000;stroke-width:5.76"/>
	<text x="1790.79" y="2619.14" style="font-family:'Helvetica';font-size:99.99px;fill:#000000" text-anchor="middle">10</text>
	<line x1="1924.44" y1="2489.19" x2="1924.44" y2="2529.16" style="stroke:#000000;stroke-width:5.76"/>
	<text x="1924.44" y="2619.14" style="font-family:'Helvetica';font-size:99.99px;fill:#000000" text-anchor="middle">11</text>
	<line x1="2058.09" y1="2489.19" x2="2058.09" y2="2529.16" style="stroke:#000000;stroke-width:5.76"/>
	<text x="2058.09" y="2619.14" style="font-family:'Helvetica';font-size:99.99px;fill:#000000" text-anchor="middle">12</text>
	<line x1="2191.74" y1="2489.19" x2="2191.74" y2="2529.16" style="stroke:#000000;stroke-width:5.76"/>
	<text x="2191.74" y="2619.14" style="font-family:'Helvetica';font-size:99.99px;fill:#000000" text-anchor="middle">13</text>
	<line x1="2325.39" y1="2489.19" x2="2325.39" y2="2529.16" style="stroke:#000000;stroke-width:5.76"/>
	<text x="2325.39" y="2619.14" style="font-family:'Helvetica';font-size:99.99px;fill:#000000" text-anchor="middle">14</text>
	<line x1="2459.04" y1="2489.19" x2="2459.04" y2="2529.16" style="stroke:#000000;stroke-width:5.76"/>
	<text x="2459.04" y="2619.14" style="font-family:'Helvetica';font-size:99.99px;fill:#000000" text-anchor="middle">15</text>
	<line x1="2592.81" y1="2489.19" x2="2592.81" y2="2529.16" style="stroke:#000000;stroke-width:5.76"/>
	<text x="2592.81" y="2619.14" style="font-family:'Helvetica';font-size:99.99px;fill:#000000" text-anchor="middle">16</text>
	<line x1="2726.46" y1="2489.19" x2="2726.46" y2="2529.16" style="stroke:#000000;stroke-width:5.76"/>
	<text x="2726.46" y="2619.14" style="font-family:'Helvetica';font-size:99.99px;fill:#000000" text-anchor="middle">17</text>
	<line x1="2860.11" y1="2489.19" x2="2860.11" y2="2529.16" style="stroke:#000000;stroke-width:5.76"/>
	<text x="2860.11" y="2619.14" style="font-family:'Helvetica';font-size:99.99px;fill:#000000" text-anchor="middle">18</text>
	<line x1="2993.76" y1="2489.19" x2="2993.76" y2="2529.16" style="stroke:#000000;stroke-width:5.76"/>
	<text x="2993.76" y="2619.14" style="font-family:'Helvetica';font-size:99.99px;fill:#000000" text-anchor="middle">19</text>
	<line x1="3127.41" y1="2489.19" x2="3127.41" y2="2529.16" style="stroke:#000000;stroke-width:5.76"/>
	<text x="3127.41" y="2619.14" style="font-family:'Helvetica';font-size:99.99px;fill:#000000" text-anchor="middle">20</text>
	<line x1="3261.06" y1="2489.19" x2="3261.06" y2="2529.16" style="stroke:#000000;stroke-width:5.76"/>
	<text x="3261.06" y="2619.14" style="font-family:'Helvetica';font-size:99.99px;fill:#000000" text-anchor="middle">21</text>
	<line x1="3394.71" y1="2489.19" x2="3394.71" y2="2529.16" style="stroke:#000000;stroke-width:5.76"/>
	<text x="3394.71" y="2619.14" style="font-family:'Helvetica';font-size:99.99px;fill:#000000" text-anchor="middle">22</text>
	<line x1="3528.36" y1="2489.19" x2="3528.36" y2="2529.16" style="stroke:#000000;stroke-width:5.76"/>
	<text x="3528.36" y="2619.14" style="font-family:'Helvetica';font-size:99.99px;fill:#000000" text-anchor="middle">23</text>
	<text x="2124.91" y="2729.16" style="font-family:'Helvetica';font-size:99.99px;fill:#000000" text-anchor="middle">Days since 0.01 confirmed cases per 100 beds</text>
</svg>
