<?xml version="1.0" encoding="UTF-8" standalone="no"?>
<!-- This is a Stata 14.2 generated SVG file (http://www.stata.com) -->

<svg version="1.1" width="5.50in" height="4.00in" viewBox="0 0 3960 2880" xmlns="http://www.w3.org/2000/svg">
	<desc>Stata Graph - Graph</desc>
	<line x1="390.80" y1="1493.71" x2="3859.02" y2="1493.71" style="stroke:#FF0000;stroke-width:8.64"/>
	<path d="M582.62 1498.16 L582.62 1498.16 L711.19 1498.16 L839.77 1498.16 L968.22 1498.16 L1096.80 1498.16 L1225.25 1498.04 L1353.83 1497.92 L1482.28 1497.79 L1610.85 1497.67 L1739.31 1497.30 L1867.88 1496.56 L1996.46 1495.44 L2124.91 1495.19 L2253.49 1495.81 L2381.94 1497.92 L2510.52 1502.62 L2638.97 1511.41 L2767.55 1526.38 L2896.12 1550.51 L3024.57 1587.39 L3153.15 1641.97 L3281.60 1719.81 L3410.18 1828.09 L3538.63 1975.11 L3667.21 2170.64 L3795.66 2425.82 L3795.66 267.68 L3667.21 579.66 L3538.63 823.33 L3410.18 1010.70 L3281.60 1152.40 L3153.15 1257.71 L3024.57 1334.31 L2896.12 1389.14 L2767.55 1427.25 L2638.97 1453.37 L2510.52 1470.57 L2381.94 1481.71 L2253.49 1488.64 L2124.91 1492.72 L1996.46 1495.19 L1867.88 1495.94 L1739.31 1496.43 L1610.85 1496.93 L1482.28 1497.42 L1353.83 1497.67 L1225.25 1497.79 L1096.80 1497.92 L968.22 1497.92 L839.77 1498.04 L711.19 1498.04 L582.62 1498.04 L582.62 1498.16 Z" stroke-linecap="round" style="fill:#EBEBFF;stroke:#E6E6FF;stroke-width:3.00"/>
	<path d="M582.62 1498.16 L582.62 1498.16 L711.19 1498.16 L839.77 1498.16 L968.22 1498.04 L1096.80 1498.04 L1225.25 1497.92 L1353.83 1497.92 L1482.28 1497.67 L1610.85 1497.42 L1739.31 1497.05 L1867.88 1496.31 L1996.46 1495.32 L2124.91 1494.58 L2253.49 1493.71 L2381.94 1493.21 L2510.52 1493.34 L2638.97 1494.58 L2767.55 1497.79 L2896.12 1503.98 L3024.57 1514.38 L3153.15 1531.08 L3281.60 1556.08 L3410.18 1592.22 L3538.63 1642.71 L3667.21 1711.52 L3795.66 1802.97 L3795.66 890.53 L3667.21 1038.91 L3538.63 1155.74 L3410.18 1246.57 L3281.60 1316.12 L3153.15 1368.59 L3024.57 1407.45 L2896.12 1435.67 L2767.55 1455.96 L2638.97 1470.07 L2510.52 1479.85 L2381.94 1486.41 L2253.49 1490.74 L2124.91 1493.46 L1996.46 1495.19 L1867.88 1496.06 L1739.31 1496.68 L1610.85 1497.17 L1482.28 1497.55 L1353.83 1497.67 L1225.25 1497.92 L1096.80 1497.92 L968.22 1498.04 L839.77 1498.04 L711.19 1498.04 L582.62 1498.04 L582.62 1498.16 Z" stroke-linecap="round" style="fill:#D6D6FF;stroke:#CCCCFF;stroke-width:3.00"/>
	<path d="M582.62 1498.16 L582.62 1498.16 L711.19 1498.16 L839.77 1498.16 L968.22 1498.04 L1096.80 1498.04 L1225.25 1497.92 L1353.83 1497.79 L1482.28 1497.67 L1610.85 1497.42 L1739.31 1497.05 L1867.88 1496.31 L1996.46 1495.32 L2124.91 1494.45 L2253.49 1493.46 L2381.94 1492.47 L2510.52 1491.85 L2638.97 1491.85 L2767.55 1493.21 L2896.12 1496.43 L3024.57 1502.62 L3153.15 1513.14 L3281.60 1529.60 L3410.18 1553.98 L3538.63 1589.00 L3667.21 1637.26 L3795.66 1702.23 L3795.66 991.39 L3667.21 1113.17 L3538.63 1209.57 L3410.18 1284.81 L3281.60 1342.61 L3153.15 1386.54 L3024.57 1419.21 L2896.12 1443.22 L2767.55 1460.54 L2638.97 1472.79 L2510.52 1481.33 L2381.94 1487.15 L2253.49 1490.99 L2124.91 1493.59 L1996.46 1495.19 L1867.88 1496.06 L1739.31 1496.68 L1610.85 1497.17 L1482.28 1497.55 L1353.83 1497.79 L1225.25 1497.92 L1096.80 1497.92 L968.22 1498.04 L839.77 1498.04 L711.19 1498.04 L582.62 1498.04 L582.62 1498.16 Z" stroke-linecap="round" style="fill:#C2C2FF;stroke:#B3B3FF;stroke-width:3.00"/>
	<path d="M582.62 1498.16 L582.62 1498.16 L711.19 1498.16 L839.77 1498.04 L968.22 1498.04 L1096.80 1498.04 L1225.25 1497.92 L1353.83 1497.79 L1482.28 1497.67 L1610.85 1497.42 L1739.31 1496.93 L1867.88 1496.31 L1996.46 1495.32 L2124.91 1494.33 L2253.49 1493.21 L2381.94 1491.98 L2510.52 1490.86 L2638.97 1490.12 L2767.55 1490.00 L2896.12 1491.36 L3024.57 1494.58 L3153.15 1501.01 L3281.60 1511.65 L3410.18 1528.24 L3538.63 1552.62 L3667.21 1587.14 L3795.66 1634.29 L3795.66 1059.33 L3667.21 1163.29 L3538.63 1245.83 L3410.18 1310.55 L3281.60 1360.55 L3153.15 1398.67 L3024.57 1427.13 L2896.12 1448.29 L2767.55 1463.64 L2638.97 1474.65 L2510.52 1482.32 L2381.94 1487.65 L2253.49 1491.23 L2124.91 1493.71 L1996.46 1495.32 L1867.88 1496.18 L1739.31 1496.80 L1610.85 1497.17 L1482.28 1497.55 L1353.83 1497.79 L1225.25 1497.92 L1096.80 1497.92 L968.22 1498.04 L839.77 1498.04 L711.19 1498.04 L582.62 1498.04 L582.62 1498.16 Z" stroke-linecap="round" style="fill:#ADADFF;stroke:#9999FF;stroke-width:3.00"/>
	<path d="M582.62 1498.16 L582.62 1498.16 L711.19 1498.16 L839.77 1498.04 L968.22 1498.04 L1096.80 1498.04 L1225.25 1497.92 L1353.83 1497.79 L1482.28 1497.67 L1610.85 1497.42 L1739.31 1496.93 L1867.88 1496.31 L1996.46 1495.32 L2124.91 1494.33 L2253.49 1492.97 L2381.94 1491.61 L2510.52 1490.12 L2638.97 1488.64 L2767.55 1487.52 L2896.12 1487.27 L3024.57 1488.26 L3153.15 1491.36 L3281.60 1497.42 L3410.18 1507.82 L3538.63 1523.78 L3667.21 1547.29 L3795.66 1580.21 L3795.66 1113.41 L3667.21 1203.14 L3538.63 1274.66 L3410.18 1330.97 L3281.60 1374.78 L3153.15 1408.20 L3024.57 1433.56 L2896.12 1452.38 L2767.55 1466.11 L2638.97 1476.14 L2510.52 1483.19 L2381.94 1488.02 L2253.49 1491.48 L2124.91 1493.71 L1996.46 1495.32 L1867.88 1496.18 L1739.31 1496.80 L1610.85 1497.17 L1482.28 1497.55 L1353.83 1497.79 L1225.25 1497.92 L1096.80 1498.04 L968.22 1498.04 L839.77 1498.04 L711.19 1498.04 L582.62 1498.04 L582.62 1498.16 Z" stroke-linecap="round" style="fill:#9999FF;stroke:#8080FF;stroke-width:3.00"/>
	<path d="M582.62 1498.16 L582.62 1498.16 L711.19 1498.16 L839.77 1498.04 L968.22 1498.04 L1096.80 1498.04 L1225.25 1497.92 L1353.83 1497.79 L1482.28 1497.67 L1610.85 1497.30 L1739.31 1496.93 L1867.88 1496.31 L1996.46 1495.32 L2124.91 1494.20 L2253.49 1492.84 L2381.94 1491.23 L2510.52 1489.38 L2638.97 1487.40 L2767.55 1485.42 L2896.12 1483.81 L3024.57 1482.82 L3153.15 1483.07 L3281.60 1485.29 L3410.18 1490.24 L3538.63 1499.03 L3667.21 1513.14 L3795.66 1533.81 L3795.66 1159.70 L3667.21 1237.29 L3538.63 1299.42 L3410.18 1348.55 L3281.60 1386.91 L3153.15 1416.49 L3024.57 1439.01 L2896.12 1455.84 L2767.55 1468.22 L2638.97 1477.37 L2510.52 1483.81 L2381.94 1488.39 L2253.49 1491.61 L2124.91 1493.83 L1996.46 1495.32 L1867.88 1496.18 L1739.31 1496.80 L1610.85 1497.30 L1482.28 1497.55 L1353.83 1497.79 L1225.25 1497.92 L1096.80 1498.04 L968.22 1498.04 L839.77 1498.04 L711.19 1498.04 L582.62 1498.16 L582.62 1498.16 Z" stroke-linecap="round" style="fill:#8585FF;stroke:#6666FF;stroke-width:3.00"/>
	<path d="M582.62 1498.16 L582.62 1498.16 L711.19 1498.16 L839.77 1498.04 L968.22 1498.04 L1096.80 1498.04 L1225.25 1497.92 L1353.83 1497.79 L1482.28 1497.67 L1610.85 1497.30 L1739.31 1496.93 L1867.88 1496.31 L1996.46 1495.32 L2124.91 1494.20 L2253.49 1492.72 L2381.94 1490.86 L2510.52 1488.76 L2638.97 1486.28 L2767.55 1483.56 L2896.12 1480.72 L3024.57 1477.99 L3153.15 1475.64 L3281.60 1474.28 L3410.18 1474.53 L3538.63 1476.88 L3667.21 1482.45 L3795.66 1492.22 L3795.66 1201.40 L3667.21 1267.98 L3538.63 1321.69 L3410.18 1364.26 L3281.60 1397.80 L3153.15 1423.91 L3024.57 1443.84 L2896.12 1458.93 L2767.55 1470.20 L2638.97 1478.49 L2510.52 1484.43 L2381.94 1488.76 L2253.49 1491.73 L2124.91 1493.83 L1996.46 1495.32 L1867.88 1496.18 L1739.31 1496.80 L1610.85 1497.30 L1482.28 1497.55 L1353.83 1497.79 L1225.25 1497.92 L1096.80 1498.04 L968.22 1498.04 L839.77 1498.04 L711.19 1498.04 L582.62 1498.16 L582.62 1498.16 Z" stroke-linecap="round" style="fill:#7171FF;stroke:#4D4DFF;stroke-width:3.00"/>
	<path d="M582.62 1498.16 L582.62 1498.16 L711.19 1498.16 L839.77 1498.04 L968.22 1498.04 L1096.80 1498.04 L1225.25 1497.92 L1353.83 1497.79 L1482.28 1497.67 L1610.85 1497.30 L1739.31 1496.93 L1867.88 1496.31 L1996.46 1495.32 L2124.91 1494.08 L2253.49 1492.60 L2381.94 1490.62 L2510.52 1488.14 L2638.97 1485.17 L2767.55 1481.71 L2896.12 1477.74 L3024.57 1473.41 L3153.15 1468.83 L3281.60 1464.13 L3410.18 1459.92 L3538.63 1456.34 L3667.21 1453.98 L3795.66 1453.61 L3795.66 1239.89 L3667.21 1296.45 L3538.63 1342.23 L3410.18 1378.87 L3281.60 1407.95 L3153.15 1430.72 L3024.57 1448.42 L2896.12 1461.78 L2767.55 1471.93 L2638.97 1479.48 L2510.52 1485.05 L2381.94 1489.01 L2253.49 1491.85 L2124.91 1493.83 L1996.46 1495.32 L1867.88 1496.18 L1739.31 1496.80 L1610.85 1497.30 L1482.28 1497.55 L1353.83 1497.79 L1225.25 1497.92 L1096.80 1498.04 L968.22 1498.04 L839.77 1498.04 L711.19 1498.04 L582.62 1498.16 L582.62 1498.16 Z" stroke-linecap="round" style="fill:#5C5CFF;stroke:#3333FF;stroke-width:3.00"/>
	<path d="M582.62 1498.16 L582.62 1498.16 L711.19 1498.16 L839.77 1498.04 L968.22 1498.04 L1096.80 1498.04 L1225.25 1497.92 L1353.83 1497.79 L1482.28 1497.67 L1610.85 1497.30 L1739.31 1496.93 L1867.88 1496.18 L1996.46 1495.32 L2124.91 1494.08 L2253.49 1492.47 L2381.94 1490.37 L2510.52 1487.65 L2638.97 1484.30 L2767.55 1480.10 L2896.12 1475.02 L3024.57 1469.08 L3153.15 1462.28 L3281.60 1454.60 L3410.18 1446.06 L3538.63 1436.78 L3667.21 1427.01 L3795.66 1417.11 L3795.66 1276.52 L3667.21 1323.42 L3538.63 1361.79 L3410.18 1392.73 L3281.60 1417.60 L3153.15 1437.28 L3024.57 1452.62 L2896.12 1464.50 L2767.55 1473.66 L2638.97 1480.47 L2510.52 1485.54 L2381.94 1489.25 L2253.49 1491.98 L2124.91 1493.96 L1996.46 1495.32 L1867.88 1496.18 L1739.31 1496.80 L1610.85 1497.30 L1482.28 1497.55 L1353.83 1497.79 L1225.25 1497.92 L1096.80 1498.04 L968.22 1498.04 L839.77 1498.04 L711.19 1498.04 L582.62 1498.16 L582.62 1498.16 Z" stroke-linecap="round" style="fill:#4747FF;stroke:#1919FF;stroke-width:3.00"/>
	<path d="M582.62 1498.16 L582.62 1498.16 L711.19 1498.04 L839.77 1498.04 L968.22 1498.04 L1096.80 1498.04 L1225.25 1497.92 L1353.83 1497.79 L1482.28 1497.55 L1610.85 1497.30 L1739.31 1496.93 L1867.88 1496.18 L1996.46 1495.32 L2124.91 1494.08 L2253.49 1492.35 L2381.94 1490.12 L2510.52 1487.15 L2638.97 1483.31 L2767.55 1478.49 L2896.12 1472.42 L3024.57 1465.00 L3153.15 1455.96 L3281.60 1445.20 L3410.18 1432.57 L3538.63 1417.85 L3667.21 1400.89 L3795.66 1381.59 L3795.66 1311.91 L3667.21 1349.54 L3538.63 1380.60 L3410.18 1406.22 L3281.60 1426.88 L3153.15 1443.59 L3024.57 1456.83 L2896.12 1467.23 L2767.55 1475.27 L2638.97 1481.46 L2510.52 1486.04 L2381.94 1489.50 L2253.49 1492.10 L2124.91 1493.96 L1996.46 1495.32 L1867.88 1496.18 L1739.31 1496.80 L1610.85 1497.30 L1482.28 1497.55 L1353.83 1497.79 L1225.25 1497.92 L1096.80 1498.04 L968.22 1498.04 L839.77 1498.04 L711.19 1498.04 L582.62 1498.16 L582.62 1498.16 Z" stroke-linecap="round" style="fill:#3333FF;stroke:#0000FF;stroke-width:3.00"/>
	<circle cx="582.62" cy="1498.16" r="22.03" style="fill:#000000;stroke:#000000;stroke-width:8.64"/>
	<circle cx="711.07" cy="1498.16" r="22.03" style="fill:#000000;stroke:#000000;stroke-width:8.64"/>
	<circle cx="839.64" cy="1498.16" r="22.03" style="fill:#000000;stroke:#000000;stroke-width:8.64"/>
	<circle cx="968.22" cy="1498.16" r="22.03" style="fill:#000000;stroke:#000000;stroke-width:8.64"/>
	<circle cx="1096.67" cy="1498.04" r="22.03" style="fill:#000000;stroke:#000000;stroke-width:8.64"/>
	<circle cx="1225.25" cy="1498.04" r="22.03" style="fill:#000000;stroke:#000000;stroke-width:8.64"/>
	<circle cx="1353.70" cy="1497.79" r="22.03" style="fill:#000000;stroke:#000000;stroke-width:8.64"/>
	<circle cx="1482.28" cy="1497.67" r="22.03" style="fill:#000000;stroke:#000000;stroke-width:8.64"/>
	<circle cx="1610.73" cy="1497.17" r="22.03" style="fill:#000000;stroke:#000000;stroke-width:8.64"/>
	<circle cx="1739.31" cy="1497.05" r="22.03" style="fill:#000000;stroke:#000000;stroke-width:8.64"/>
	<circle cx="1867.88" cy="1496.31" r="22.03" style="fill:#000000;stroke:#000000;stroke-width:8.64"/>
	<circle cx="1996.34" cy="1495.32" r="22.03" style="fill:#000000;stroke:#000000;stroke-width:8.64"/>
	<line x1="390.80" y1="2489.19" x2="390.80" y2="100.86" style="stroke:#000000;stroke-width:5.76"/>
	<line x1="390.80" y1="2387.46" x2="350.83" y2="2387.46" style="stroke:#000000;stroke-width:5.76"/>
	<text x="300.72" y="2387.46" style="font-family:'Helvetica';font-size:99.99px;fill:#000000" transform="rotate(-90 300.72,2387.46)" text-anchor="middle">-2000</text>
	<line x1="390.80" y1="1942.81" x2="350.83" y2="1942.81" style="stroke:#000000;stroke-width:5.76"/>
	<text x="300.72" y="1942.81" style="font-family:'Helvetica';font-size:99.99px;fill:#000000" transform="rotate(-90 300.72,1942.81)" text-anchor="middle">-1000</text>
	<line x1="390.80" y1="1498.16" x2="350.83" y2="1498.16" style="stroke:#000000;stroke-width:5.76"/>
	<text x="300.72" y="1498.16" style="font-family:'Helvetica';font-size:99.99px;fill:#000000" transform="rotate(-90 300.72,1498.16)" text-anchor="middle">0</text>
	<line x1="390.80" y1="1053.52" x2="350.83" y2="1053.52" style="stroke:#000000;stroke-width:5.76"/>
	<text x="300.72" y="1053.52" style="font-family:'Helvetica';font-size:99.99px;fill:#000000" transform="rotate(-90 300.72,1053.52)" text-anchor="middle">1000</text>
	<line x1="390.80" y1="608.87" x2="350.83" y2="608.87" style="stroke:#000000;stroke-width:5.76"/>
	<text x="300.72" y="608.87" style="font-family:'Helvetica';font-size:99.99px;fill:#000000" transform="rotate(-90 300.72,608.87)" text-anchor="middle">2000</text>
	<line x1="390.80" y1="164.22" x2="350.83" y2="164.22" style="stroke:#000000;stroke-width:5.76"/>
	<text x="300.72" y="164.22" style="font-family:'Helvetica';font-size:99.99px;fill:#000000" transform="rotate(-90 300.72,164.22)" text-anchor="middle">3000</text>
	<text x="190.71" y="1294.96" style="font-family:'Helvetica';font-size:99.99px;fill:#000000" transform="rotate(-90 190.71,1294.96)" text-anchor="middle">Confirmed cases per 100 beds</text>
	<line x1="390.80" y1="2489.19" x2="3859.02" y2="2489.19" style="stroke:#000000;stroke-width:5.76"/>
	<line x1="454.16" y1="2489.19" x2="454.16" y2="2529.16" style="stroke:#000000;stroke-width:5.76"/>
	<text x="454.16" y="2619.14" style="font-family:'Helvetica';font-size:99.99px;fill:#000000" text-anchor="middle">0</text>
	<line x1="1096.80" y1="2489.19" x2="1096.80" y2="2529.16" style="stroke:#000000;stroke-width:5.76"/>
	<text x="1096.80" y="2619.14" style="font-family:'Helvetica';font-size:99.99px;fill:#000000" text-anchor="middle">5</text>
	<line x1="1739.31" y1="2489.19" x2="1739.31" y2="2529.16" style="stroke:#000000;stroke-width:5.76"/>
	<text x="1739.31" y="2619.14" style="font-family:'Helvetica';font-size:99.99px;fill:#000000" text-anchor="middle">10</text>
	<line x1="2381.94" y1="2489.19" x2="2381.94" y2="2529.16" style="stroke:#000000;stroke-width:5.76"/>
	<text x="2381.94" y="2619.14" style="font-family:'Helvetica';font-size:99.99px;fill:#000000" text-anchor="middle">15</text>
	<line x1="3024.57" y1="2489.19" x2="3024.57" y2="2529.16" style="stroke:#000000;stroke-width:5.76"/>
	<text x="3024.57" y="2619.14" style="font-family:'Helvetica';font-size:99.99px;fill:#000000" text-anchor="middle">20</text>
	<line x1="3667.21" y1="2489.19" x2="3667.21" y2="2529.16" style="stroke:#000000;stroke-width:5.76"/>
	<text x="3667.21" y="2619.14" style="font-family:'Helvetica';font-size:99.99px;fill:#000000" text-anchor="middle">25</text>
	<text x="2124.91" y="2729.16" style="font-family:'Helvetica';font-size:99.99px;fill:#000000" text-anchor="middle">Days since 0.01 confirmed cases per 100 beds</text>
</svg>
