<?xml version="1.0" encoding="UTF-8" standalone="no"?>
<!-- This is a Stata 14.2 generated SVG file (http://www.stata.com) -->

<svg version="1.1" width="5.50in" height="4.00in" viewBox="0 0 3960 2880" xmlns="http://www.w3.org/2000/svg">
	<desc>Stata Graph - Graph</desc>
	<line x1="390.80" y1="1867.69" x2="3859.02" y2="1867.69" style="stroke:#FF0000;stroke-width:8.64"/>
	<path d="M565.54 2425.82 L565.54 2425.82 L676.91 2425.82 L788.29 2425.70 L899.66 2425.58 L1011.04 2425.33 L1122.41 2424.96 L1233.79 2424.34 L1345.29 2423.22 L1456.66 2421.49 L1568.04 2419.02 L1679.41 2415.30 L1790.79 2409.86 L1902.16 2403.05 L2013.54 2395.87 L2124.91 2387.58 L2236.29 2377.56 L2347.66 2365.80 L2459.04 2351.82 L2570.53 2335.61 L2681.91 2317.04 L2793.28 2296.25 L2904.66 2273.36 L3016.03 2248.73 L3127.41 2223.24 L3238.78 2197.74 L3350.16 2173.98 L3461.53 2154.06 L3461.53 164.22 L3350.16 695.62 L3238.78 1111.19 L3127.41 1434.18 L3016.03 1683.42 L2904.66 1874.25 L2793.28 2019.42 L2681.91 2128.81 L2570.53 2210.74 L2459.04 2271.50 L2347.66 2316.18 L2236.29 2348.72 L2124.91 2372.11 L2013.54 2388.70 L1902.16 2399.96 L1790.79 2406.89 L1679.41 2411.47 L1568.04 2414.93 L1456.66 2417.66 L1345.29 2419.76 L1233.79 2421.37 L1122.41 2422.48 L1011.04 2423.47 L899.66 2424.09 L788.29 2424.59 L676.91 2424.96 L565.54 2425.20 L565.54 2425.82 Z" stroke-linecap="round" style="fill:#EBEBFF;stroke:#E6E6FF;stroke-width:3.00"/>
	<path d="M565.54 2425.70 L565.54 2425.70 L676.91 2425.58 L788.29 2425.45 L899.66 2425.20 L1011.04 2424.83 L1122.41 2424.21 L1233.79 2423.47 L1345.29 2422.23 L1456.66 2420.38 L1568.04 2417.78 L1679.41 2414.19 L1790.79 2408.99 L1902.16 2402.19 L2013.54 2393.77 L2124.91 2383.13 L2236.29 2369.27 L2347.66 2351.45 L2459.04 2328.68 L2570.53 2299.59 L2681.91 2262.72 L2793.28 2216.31 L2904.66 2158.14 L3016.03 2085.62 L3127.41 1995.53 L3238.78 1884.15 L3350.16 1747.28 L3461.53 1579.72 L3461.53 738.44 L3350.16 1122.20 L3238.78 1424.78 L3127.41 1661.89 L3016.03 1846.53 L2904.66 1989.47 L2793.28 2099.36 L2681.91 2183.14 L2570.53 2246.75 L2459.04 2294.64 L2347.66 2330.53 L2236.29 2357.02 L2124.91 2376.57 L2013.54 2390.80 L1902.16 2400.83 L1790.79 2407.76 L1679.41 2412.58 L1568.04 2416.17 L1456.66 2418.77 L1345.29 2420.75 L1233.79 2422.11 L1122.41 2423.22 L1011.04 2423.97 L899.66 2424.59 L788.29 2424.96 L676.91 2425.20 L565.54 2425.45 L565.54 2425.70 Z" stroke-linecap="round" style="fill:#D6D6FF;stroke:#CCCCFF;stroke-width:3.00"/>
	<path d="M565.54 2425.58 L565.54 2425.58 L676.91 2425.58 L788.29 2425.33 L899.66 2425.08 L1011.04 2424.71 L1122.41 2424.09 L1233.79 2423.35 L1345.29 2421.99 L1456.66 2420.25 L1568.04 2417.66 L1679.41 2413.94 L1790.79 2408.87 L1902.16 2402.06 L2013.54 2393.52 L2124.91 2382.39 L2236.29 2367.91 L2347.66 2349.10 L2459.04 2324.84 L2570.53 2293.78 L2681.91 2253.93 L2793.28 2203.44 L2904.66 2139.58 L3016.03 2059.14 L3127.41 1958.65 L3238.78 1833.41 L3350.16 1678.23 L3461.53 1486.78 L3461.53 831.38 L3350.16 1191.25 L3238.78 1475.52 L3127.41 1698.77 L3016.03 1873.01 L2904.66 2008.15 L2793.28 2112.23 L2681.91 2191.93 L2570.53 2252.69 L2459.04 2298.48 L2347.66 2332.76 L2236.29 2358.38 L2124.91 2377.31 L2013.54 2391.17 L1902.16 2401.07 L1790.79 2407.88 L1679.41 2412.71 L1568.04 2416.29 L1456.66 2418.89 L1345.29 2420.87 L1233.79 2422.36 L1122.41 2423.35 L1011.04 2424.09 L899.66 2424.59 L788.29 2424.96 L676.91 2425.20 L565.54 2425.45 L565.54 2425.58 Z" stroke-linecap="round" style="fill:#C2C2FF;stroke:#B3B3FF;stroke-width:3.00"/>
	<path d="M565.54 2425.58 L565.54 2425.58 L676.91 2425.45 L788.29 2425.33 L899.66 2425.08 L1011.04 2424.71 L1122.41 2424.09 L1233.79 2423.22 L1345.29 2421.99 L1456.66 2420.13 L1568.04 2417.53 L1679.41 2413.82 L1790.79 2408.75 L1902.16 2401.94 L2013.54 2393.28 L2124.91 2381.89 L2236.29 2367.04 L2347.66 2347.61 L2459.04 2322.37 L2570.53 2289.82 L2681.91 2248.11 L2793.28 2194.77 L2904.66 2126.96 L3016.03 2041.44 L3127.41 1933.78 L3238.78 1799.26 L3350.16 1631.69 L3461.53 1424.16 L3461.53 894.00 L3350.16 1237.91 L3238.78 1509.80 L3127.41 1723.64 L3016.03 1890.84 L2904.66 2020.65 L2793.28 2121.02 L2681.91 2197.87 L2570.53 2256.53 L2459.04 2300.96 L2347.66 2334.37 L2236.29 2359.37 L2124.91 2377.81 L2013.54 2391.30 L1902.16 2401.07 L1790.79 2408.00 L1679.41 2412.83 L1568.04 2416.42 L1456.66 2419.02 L1345.29 2421.00 L1233.79 2422.36 L1122.41 2423.47 L1011.04 2424.09 L899.66 2424.71 L788.29 2424.96 L676.91 2425.33 L565.54 2425.45 L565.54 2425.58 Z" stroke-linecap="round" style="fill:#ADADFF;stroke:#9999FF;stroke-width:3.00"/>
	<path d="M565.54 2425.58 L565.54 2425.58 L676.91 2425.45 L788.29 2425.33 L899.66 2424.96 L1011.04 2424.59 L1122.41 2423.97 L1233.79 2423.10 L1345.29 2421.86 L1456.66 2420.01 L1568.04 2417.41 L1679.41 2413.82 L1790.79 2408.75 L1902.16 2401.82 L2013.54 2393.03 L2124.91 2381.52 L2236.29 2366.30 L2347.66 2346.37 L2459.04 2320.39 L2570.53 2286.72 L2681.91 2243.29 L2793.28 2187.84 L2904.66 2116.93 L3016.03 2027.21 L3127.41 1914.10 L3238.78 1772.03 L3350.16 1594.69 L3461.53 1374.29 L3461.53 943.87 L3350.16 1274.91 L3238.78 1537.02 L3127.41 1743.32 L3016.03 1904.94 L2904.66 2030.68 L2793.28 2127.95 L2681.91 2202.57 L2570.53 2259.75 L2459.04 2302.94 L2347.66 2335.61 L2236.29 2359.99 L2124.91 2378.18 L2013.54 2391.54 L1902.16 2401.20 L1790.79 2408.00 L1679.41 2412.95 L1568.04 2416.54 L1456.66 2419.14 L1345.29 2421.12 L1233.79 2422.48 L1122.41 2423.47 L1011.04 2424.21 L899.66 2424.71 L788.29 2425.08 L676.91 2425.33 L565.54 2425.45 L565.54 2425.58 Z" stroke-linecap="round" style="fill:#9999FF;stroke:#8080FF;stroke-width:3.00"/>
	<path d="M565.54 2425.58 L565.54 2425.58 L676.91 2425.45 L788.29 2425.33 L899.66 2424.96 L1011.04 2424.59 L1122.41 2423.97 L1233.79 2423.10 L1345.29 2421.74 L1456.66 2419.88 L1568.04 2417.28 L1679.41 2413.70 L1790.79 2408.62 L1902.16 2401.82 L2013.54 2392.90 L2124.91 2381.15 L2236.29 2365.68 L2347.66 2345.26 L2459.04 2318.65 L2570.53 2284.00 L2681.91 2239.33 L2793.28 2181.78 L2904.66 2108.39 L3016.03 2015.08 L3127.41 1897.15 L3238.78 1748.64 L3350.16 1562.89 L3461.53 1331.59 L3461.53 986.57 L3350.16 1306.59 L3238.78 1560.29 L3127.41 1760.28 L3016.03 1917.07 L2904.66 2039.22 L2793.28 2133.89 L2681.91 2206.66 L2570.53 2262.34 L2459.04 2304.67 L2347.66 2336.72 L2236.29 2360.61 L2124.91 2378.55 L2013.54 2391.67 L1902.16 2401.32 L1790.79 2408.13 L1679.41 2413.08 L1568.04 2416.67 L1456.66 2419.26 L1345.29 2421.12 L1233.79 2422.48 L1122.41 2423.47 L1011.04 2424.21 L899.66 2424.71 L788.29 2425.08 L676.91 2425.33 L565.54 2425.45 L565.54 2425.58 Z" stroke-linecap="round" style="fill:#8585FF;stroke:#6666FF;stroke-width:3.00"/>
	<path d="M565.54 2425.58 L565.54 2425.58 L676.91 2425.45 L788.29 2425.20 L899.66 2424.96 L1011.04 2424.59 L1122.41 2423.84 L1233.79 2422.98 L1345.29 2421.74 L1456.66 2419.88 L1568.04 2417.28 L1679.41 2413.57 L1790.79 2408.62 L1902.16 2401.69 L2013.54 2392.78 L2124.91 2380.90 L2236.29 2365.06 L2347.66 2344.27 L2459.04 2317.04 L2570.53 2281.65 L2681.91 2235.61 L2793.28 2176.46 L2904.66 2100.72 L3016.03 2004.19 L3127.41 1881.93 L3238.78 1727.73 L3350.16 1534.42 L3461.53 1293.23 L3461.53 1024.93 L3350.16 1335.18 L3238.78 1581.33 L3127.41 1775.50 L3016.03 1927.96 L2904.66 2046.89 L2793.28 2139.21 L2681.91 2210.24 L2570.53 2264.82 L2459.04 2306.28 L2347.66 2337.59 L2236.29 2361.22 L2124.91 2378.80 L2013.54 2391.79 L1902.16 2401.32 L1790.79 2408.13 L1679.41 2413.08 L1568.04 2416.67 L1456.66 2419.39 L1345.29 2421.24 L1233.79 2422.61 L1122.41 2423.60 L1011.04 2424.21 L899.66 2424.71 L788.29 2425.08 L676.91 2425.33 L565.54 2425.45 L565.54 2425.58 Z" stroke-linecap="round" style="fill:#7171FF;stroke:#4D4DFF;stroke-width:3.00"/>
	<path d="M565.54 2425.58 L565.54 2425.58 L676.91 2425.45 L788.29 2425.20 L899.66 2424.96 L1011.04 2424.46 L1122.41 2423.84 L1233.79 2422.98 L1345.29 2421.62 L1456.66 2419.76 L1568.04 2417.16 L1679.41 2413.57 L1790.79 2408.50 L1902.16 2401.69 L2013.54 2392.66 L2124.91 2380.65 L2236.29 2364.57 L2347.66 2343.40 L2459.04 2315.68 L2570.53 2279.42 L2681.91 2232.27 L2793.28 2171.51 L2904.66 2093.54 L3016.03 1994.05 L3127.41 1867.82 L3238.78 1708.30 L3350.16 1507.94 L3461.53 1257.59 L3461.53 1060.57 L3350.16 1361.54 L3238.78 1600.76 L3127.41 1789.60 L3016.03 1938.11 L2904.66 2054.07 L2793.28 2144.16 L2681.91 2213.71 L2570.53 2267.05 L2459.04 2307.64 L2347.66 2338.58 L2236.29 2361.72 L2124.91 2379.04 L2013.54 2391.91 L1902.16 2401.44 L1790.79 2408.25 L1679.41 2413.20 L1568.04 2416.79 L1456.66 2419.39 L1345.29 2421.24 L1233.79 2422.61 L1122.41 2423.60 L1011.04 2424.34 L899.66 2424.83 L788.29 2425.08 L676.91 2425.33 L565.54 2425.45 L565.54 2425.58 Z" stroke-linecap="round" style="fill:#5C5CFF;stroke:#3333FF;stroke-width:3.00"/>
	<path d="M565.54 2425.58 L565.54 2425.58 L676.91 2425.45 L788.29 2425.20 L899.66 2424.96 L1011.04 2424.46 L1122.41 2423.84 L1233.79 2422.85 L1345.29 2421.62 L1456.66 2419.76 L1568.04 2417.16 L1679.41 2413.45 L1790.79 2408.50 L1902.16 2401.69 L2013.54 2392.53 L2124.91 2380.28 L2236.29 2364.07 L2347.66 2342.54 L2459.04 2314.32 L2570.53 2277.32 L2681.91 2229.05 L2793.28 2166.81 L2904.66 2086.86 L3016.03 1984.52 L3127.41 1854.45 L3238.78 1689.86 L3350.16 1482.94 L3461.53 1223.93 L3461.53 1094.36 L3350.16 1386.66 L3238.78 1619.07 L3127.41 1802.97 L3016.03 1947.64 L2904.66 2060.87 L2793.28 2148.86 L2681.91 2216.80 L2570.53 2269.15 L2459.04 2309.12 L2347.66 2339.32 L2236.29 2362.21 L2124.91 2379.29 L2013.54 2392.04 L1902.16 2401.44 L1790.79 2408.25 L1679.41 2413.20 L1568.04 2416.79 L1456.66 2419.51 L1345.29 2421.37 L1233.79 2422.73 L1122.41 2423.72 L1011.04 2424.34 L899.66 2424.83 L788.29 2425.08 L676.91 2425.33 L565.54 2425.45 L565.54 2425.58 Z" stroke-linecap="round" style="fill:#4747FF;stroke:#1919FF;stroke-width:3.00"/>
	<path d="M565.54 2425.58 L565.54 2425.58 L676.91 2425.45 L788.29 2425.20 L899.66 2424.83 L1011.04 2424.46 L1122.41 2423.72 L1233.79 2422.85 L1345.29 2421.49 L1456.66 2419.64 L1568.04 2417.04 L1679.41 2413.45 L1790.79 2408.37 L1902.16 2401.57 L2013.54 2392.41 L2124.91 2380.03 L2236.29 2363.58 L2347.66 2341.79 L2459.04 2312.96 L2570.53 2275.21 L2681.91 2226.08 L2793.28 2162.35 L2904.66 2080.30 L3016.03 1975.24 L3127.41 1841.46 L3238.78 1672.04 L3350.16 1458.69 L3461.53 1191.25 L3461.53 1126.90 L3350.16 1410.92 L3238.78 1637.02 L3127.41 1815.96 L3016.03 1956.92 L2904.66 2067.43 L2793.28 2153.32 L2681.91 2219.90 L2570.53 2271.13 L2459.04 2310.36 L2347.66 2340.19 L2236.29 2362.71 L2124.91 2379.54 L2013.54 2392.16 L1902.16 2401.44 L1790.79 2408.25 L1679.41 2413.32 L1568.04 2416.91 L1456.66 2419.51 L1345.29 2421.37 L1233.79 2422.73 L1122.41 2423.72 L1011.04 2424.34 L899.66 2424.83 L788.29 2425.20 L676.91 2425.33 L565.54 2425.58 L565.54 2425.58 Z" stroke-linecap="round" style="fill:#3333FF;stroke:#0000FF;stroke-width:3.00"/>
	<circle cx="565.41" cy="2425.33" r="22.03" style="fill:#000000;stroke:#000000;stroke-width:8.64"/>
	<circle cx="676.79" cy="2425.33" r="22.03" style="fill:#000000;stroke:#000000;stroke-width:8.64"/>
	<circle cx="788.29" cy="2425.33" r="22.03" style="fill:#000000;stroke:#000000;stroke-width:8.64"/>
	<circle cx="899.66" cy="2425.33" r="22.03" style="fill:#000000;stroke:#000000;stroke-width:8.64"/>
	<circle cx="1011.04" cy="2425.33" r="22.03" style="fill:#000000;stroke:#000000;stroke-width:8.64"/>
	<circle cx="1122.41" cy="2424.09" r="22.03" style="fill:#000000;stroke:#000000;stroke-width:8.64"/>
	<circle cx="1233.79" cy="2421.74" r="22.03" style="fill:#000000;stroke:#000000;stroke-width:8.64"/>
	<circle cx="1345.16" cy="2420.63" r="22.03" style="fill:#000000;stroke:#000000;stroke-width:8.64"/>
	<circle cx="1456.54" cy="2418.27" r="22.03" style="fill:#000000;stroke:#000000;stroke-width:8.64"/>
	<circle cx="1567.91" cy="2418.27" r="22.03" style="fill:#000000;stroke:#000000;stroke-width:8.64"/>
	<circle cx="1679.29" cy="2414.81" r="22.03" style="fill:#000000;stroke:#000000;stroke-width:8.64"/>
	<circle cx="1790.66" cy="2407.76" r="22.03" style="fill:#000000;stroke:#000000;stroke-width:8.64"/>
	<circle cx="1902.04" cy="2401.44" r="22.03" style="fill:#000000;stroke:#000000;stroke-width:8.64"/>
	<line x1="390.80" y1="2489.19" x2="390.80" y2="100.86" style="stroke:#000000;stroke-width:5.76"/>
	<line x1="390.80" y1="2425.82" x2="350.83" y2="2425.82" style="stroke:#000000;stroke-width:5.76"/>
	<text x="300.72" y="2425.82" style="font-family:'Helvetica';font-size:99.99px;fill:#000000" transform="rotate(-90 300.72,2425.82)" text-anchor="middle">0</text>
	<line x1="390.80" y1="1867.69" x2="350.83" y2="1867.69" style="stroke:#000000;stroke-width:5.76"/>
	<text x="300.72" y="1867.69" style="font-family:'Helvetica';font-size:99.99px;fill:#000000" transform="rotate(-90 300.72,1867.69)" text-anchor="middle">10</text>
	<line x1="390.80" y1="1309.56" x2="350.83" y2="1309.56" style="stroke:#000000;stroke-width:5.76"/>
	<text x="300.72" y="1309.56" style="font-family:'Helvetica';font-size:99.99px;fill:#000000" transform="rotate(-90 300.72,1309.56)" text-anchor="middle">20</text>
	<line x1="390.80" y1="751.43" x2="350.83" y2="751.43" style="stroke:#000000;stroke-width:5.76"/>
	<text x="300.72" y="751.43" style="font-family:'Helvetica';font-size:99.99px;fill:#000000" transform="rotate(-90 300.72,751.43)" text-anchor="middle">30</text>
	<line x1="390.80" y1="193.43" x2="350.83" y2="193.43" style="stroke:#000000;stroke-width:5.76"/>
	<text x="300.72" y="193.43" style="font-family:'Helvetica';font-size:99.99px;fill:#000000" transform="rotate(-90 300.72,193.43)" text-anchor="middle">40</text>
	<text x="190.71" y="1294.96" style="font-family:'Helvetica';font-size:99.99px;fill:#000000" transform="rotate(-90 190.71,1294.96)" text-anchor="middle">Confirmed cases per 100 beds</text>
	<line x1="390.80" y1="2489.19" x2="3859.02" y2="2489.19" style="stroke:#000000;stroke-width:5.76"/>
	<line x1="454.16" y1="2489.19" x2="454.16" y2="2529.16" style="stroke:#000000;stroke-width:5.76"/>
	<text x="454.16" y="2619.14" style="font-family:'Helvetica';font-size:99.99px;fill:#000000" text-anchor="middle">0</text>
	<line x1="1568.04" y1="2489.19" x2="1568.04" y2="2529.16" style="stroke:#000000;stroke-width:5.76"/>
	<text x="1568.04" y="2619.14" style="font-family:'Helvetica';font-size:99.99px;fill:#000000" text-anchor="middle">10</text>
	<line x1="2681.91" y1="2489.19" x2="2681.91" y2="2529.16" style="stroke:#000000;stroke-width:5.76"/>
	<text x="2681.91" y="2619.14" style="font-family:'Helvetica';font-size:99.99px;fill:#000000" text-anchor="middle">20</text>
	<line x1="3795.66" y1="2489.19" x2="3795.66" y2="2529.16" style="stroke:#000000;stroke-width:5.76"/>
	<text x="3795.66" y="2619.14" style="font-family:'Helvetica';font-size:99.99px;fill:#000000" text-anchor="middle">30</text>
	<text x="2124.91" y="2729.16" style="font-family:'Helvetica';font-size:99.99px;fill:#000000" text-anchor="middle">Days since 0.01 confirmed cases per 100 beds</text>
</svg>
