<?xml version="1.0" encoding="UTF-8" standalone="no"?>
<!-- This is a Stata 14.2 generated SVG file (http://www.stata.com) -->

<svg version="1.1" width="5.50in" height="4.00in" viewBox="0 0 3960 2880" xmlns="http://www.w3.org/2000/svg">
	<desc>Stata Graph - Graph</desc>
	<line x1="390.80" y1="1714.24" x2="3859.02" y2="1714.24" style="stroke:#FF0000;stroke-width:8.64"/>
	<path d="M613.30 1721.29 L613.30 1721.29 L772.32 1721.29 L931.47 1721.29 L1090.61 1721.17 L1249.75 1721.05 L1408.89 1720.80 L1568.04 1720.18 L1727.18 1719.81 L1886.20 1719.56 L2045.34 1719.44 L2204.48 1719.93 L2363.63 1721.54 L2522.77 1725.38 L2681.91 1732.80 L2840.93 1746.04 L3000.07 1768.57 L3159.21 1804.70 L3318.36 1861.01 L3477.50 1945.66 L3636.64 2069.78 L3795.66 2247.37 L3795.66 164.22 L3636.64 638.45 L3477.50 980.75 L3318.36 1223.55 L3159.21 1393.10 L3000.07 1509.05 L2840.93 1587.02 L2681.91 1638.25 L2522.77 1671.17 L2363.63 1691.84 L2204.48 1704.59 L2045.34 1712.13 L1886.20 1716.47 L1727.18 1718.82 L1568.04 1720.06 L1408.89 1720.43 L1249.75 1720.67 L1090.61 1720.92 L931.47 1721.05 L772.32 1721.17 L613.30 1721.17 L613.30 1721.29 Z" stroke-linecap="round" style="fill:#EBEBFF;stroke:#E6E6FF;stroke-width:3.00"/>
	<path d="M613.30 1721.17 L613.30 1721.17 L772.32 1721.17 L931.47 1721.17 L1090.61 1721.17 L1249.75 1720.92 L1408.89 1720.67 L1568.04 1720.18 L1727.18 1719.56 L1886.20 1718.57 L2045.34 1717.33 L2204.48 1715.48 L2363.63 1713.00 L2522.77 1709.78 L2681.91 1705.45 L2840.93 1700.13 L3000.07 1693.70 L3159.21 1685.90 L3318.36 1676.99 L3477.50 1667.21 L3636.64 1656.69 L3795.66 1646.17 L3795.66 765.42 L3636.64 1051.54 L3477.50 1259.20 L3318.36 1407.58 L3159.21 1511.90 L3000.07 1583.93 L2840.93 1632.93 L2681.91 1665.48 L2522.77 1686.89 L2363.63 1700.50 L2204.48 1709.04 L2045.34 1714.24 L1886.20 1717.33 L1727.18 1719.06 L1568.04 1720.06 L1408.89 1720.55 L1249.75 1720.80 L1090.61 1721.05 L931.47 1721.05 L772.32 1721.17 L613.30 1721.17 L613.30 1721.17 Z" stroke-linecap="round" style="fill:#D6D6FF;stroke:#CCCCFF;stroke-width:3.00"/>
	<path d="M613.30 1721.17 L613.30 1721.17 L772.32 1721.17 L931.47 1721.17 L1090.61 1721.05 L1249.75 1720.92 L1408.89 1720.67 L1568.04 1720.18 L1727.18 1719.44 L1886.20 1718.45 L2045.34 1716.96 L2204.48 1714.73 L2363.63 1711.64 L2522.77 1707.18 L2681.91 1701.12 L2840.93 1692.71 L3000.07 1681.57 L3159.21 1666.72 L3318.36 1647.29 L3477.50 1622.17 L3636.64 1589.87 L3795.66 1548.90 L3795.66 862.69 L3636.64 1118.36 L3477.50 1304.24 L3318.36 1437.28 L3159.21 1531.08 L3000.07 1596.05 L2840.93 1640.36 L2681.91 1669.93 L2522.77 1689.36 L2363.63 1701.86 L2204.48 1709.66 L2045.34 1714.49 L1886.20 1717.46 L1727.18 1719.19 L1568.04 1720.06 L1408.89 1720.55 L1249.75 1720.80 L1090.61 1721.05 L931.47 1721.05 L772.32 1721.17 L613.30 1721.17 L613.30 1721.17 Z" stroke-linecap="round" style="fill:#C2C2FF;stroke:#B3B3FF;stroke-width:3.00"/>
	<path d="M613.30 1721.17 L613.30 1721.17 L772.32 1721.17 L931.47 1721.17 L1090.61 1721.05 L1249.75 1720.92 L1408.89 1720.67 L1568.04 1720.18 L1727.18 1719.44 L1886.20 1718.32 L2045.34 1716.71 L2204.48 1714.24 L2363.63 1710.65 L2522.77 1705.45 L2681.91 1698.15 L2840.93 1687.76 L3000.07 1673.40 L3159.21 1653.72 L3318.36 1627.24 L3477.50 1591.72 L3636.64 1544.82 L3795.66 1483.19 L3795.66 928.28 L3636.64 1163.41 L3477.50 1334.69 L3318.36 1457.45 L3159.21 1544.08 L3000.07 1604.22 L2840.93 1645.31 L2681.91 1672.90 L2522.77 1691.10 L2363.63 1702.73 L2204.48 1710.15 L2045.34 1714.73 L1886.20 1717.58 L1727.18 1719.19 L1568.04 1720.06 L1408.89 1720.55 L1249.75 1720.80 L1090.61 1721.05 L931.47 1721.17 L772.32 1721.17 L613.30 1721.17 L613.30 1721.17 Z" stroke-linecap="round" style="fill:#ADADFF;stroke:#9999FF;stroke-width:3.00"/>
	<path d="M613.30 1721.17 L613.30 1721.17 L772.32 1721.17 L931.47 1721.17 L1090.61 1721.05 L1249.75 1720.92 L1408.89 1720.67 L1568.04 1720.18 L1727.18 1719.44 L1886.20 1718.32 L2045.34 1716.59 L2204.48 1713.87 L2363.63 1709.91 L2522.77 1704.09 L2681.91 1695.68 L2840.93 1683.80 L3000.07 1666.84 L3159.21 1643.45 L3318.36 1611.28 L3477.50 1567.59 L3636.64 1508.93 L3795.66 1431.09 L3795.66 980.50 L3636.64 1199.30 L3477.50 1358.82 L3318.36 1473.41 L3159.21 1554.35 L3000.07 1610.78 L2840.93 1649.27 L2681.91 1675.26 L2522.77 1692.46 L2363.63 1703.47 L2204.48 1710.53 L2045.34 1714.98 L1886.20 1717.58 L1727.18 1719.19 L1568.04 1720.06 L1408.89 1720.55 L1249.75 1720.80 L1090.61 1721.05 L931.47 1721.17 L772.32 1721.17 L613.30 1721.17 L613.30 1721.17 Z" stroke-linecap="round" style="fill:#9999FF;stroke:#8080FF;stroke-width:3.00"/>
	<path d="M613.30 1721.17 L613.30 1721.17 L772.32 1721.17 L931.47 1721.17 L1090.61 1721.05 L1249.75 1720.92 L1408.89 1720.67 L1568.04 1720.18 L1727.18 1719.44 L1886.20 1718.20 L2045.34 1716.34 L2204.48 1713.62 L2363.63 1709.29 L2522.77 1702.98 L2681.91 1693.70 L2840.93 1680.33 L3000.07 1661.27 L3159.21 1634.54 L3318.36 1597.54 L3477.50 1546.80 L3636.64 1478.24 L3795.66 1386.29 L3795.66 1025.18 L3636.64 1229.99 L3477.50 1379.48 L3318.36 1487.03 L3159.21 1563.26 L3000.07 1616.35 L2840.93 1652.73 L2681.91 1677.36 L2522.77 1693.57 L2363.63 1704.21 L2204.48 1710.90 L2045.34 1715.10 L1886.20 1717.70 L1727.18 1719.19 L1568.04 1720.18 L1408.89 1720.55 L1249.75 1720.92 L1090.61 1721.05 L931.47 1721.17 L772.32 1721.17 L613.30 1721.17 L613.30 1721.17 Z" stroke-linecap="round" style="fill:#8585FF;stroke:#6666FF;stroke-width:3.00"/>
	<path d="M613.30 1721.17 L613.30 1721.17 L772.32 1721.17 L931.47 1721.17 L1090.61 1721.05 L1249.75 1720.92 L1408.89 1720.67 L1568.04 1720.18 L1727.18 1719.44 L1886.20 1718.20 L2045.34 1716.22 L2204.48 1713.25 L2363.63 1708.79 L2522.77 1701.99 L2681.91 1691.84 L2840.93 1677.24 L3000.07 1656.32 L3159.21 1626.62 L3318.36 1585.29 L3477.50 1528.24 L3636.64 1450.64 L3795.66 1346.19 L3795.66 1065.40 L3636.64 1257.71 L3477.50 1398.17 L3318.36 1499.28 L3159.21 1571.18 L3000.07 1621.30 L2840.93 1655.83 L2681.91 1679.09 L2522.77 1694.69 L2363.63 1704.71 L2204.48 1711.14 L2045.34 1715.23 L1886.20 1717.70 L1727.18 1719.19 L1568.04 1720.18 L1408.89 1720.55 L1249.75 1720.92 L1090.61 1721.05 L931.47 1721.17 L772.32 1721.17 L613.30 1721.17 L613.30 1721.17 Z" stroke-linecap="round" style="fill:#7171FF;stroke:#4D4DFF;stroke-width:3.00"/>
	<path d="M613.30 1721.17 L613.30 1721.17 L772.32 1721.17 L931.47 1721.17 L1090.61 1721.05 L1249.75 1720.92 L1408.89 1720.67 L1568.04 1720.18 L1727.18 1719.31 L1886.20 1718.07 L2045.34 1716.09 L2204.48 1713.00 L2363.63 1708.17 L2522.77 1701.00 L2681.91 1690.23 L2840.93 1674.39 L3000.07 1651.62 L3159.21 1619.32 L3318.36 1573.90 L3477.50 1510.91 L3636.64 1425.03 L3795.66 1308.94 L3795.66 1102.65 L3636.64 1283.20 L3477.50 1415.37 L3318.36 1510.79 L3159.21 1578.48 L3000.07 1626.00 L2840.93 1658.67 L2681.91 1680.83 L2522.77 1695.55 L2363.63 1705.20 L2204.48 1711.52 L2045.34 1715.35 L1886.20 1717.83 L1727.18 1719.31 L1568.04 1720.18 L1408.89 1720.55 L1249.75 1720.92 L1090.61 1721.05 L931.47 1721.17 L772.32 1721.17 L613.30 1721.17 L613.30 1721.17 Z" stroke-linecap="round" style="fill:#5C5CFF;stroke:#3333FF;stroke-width:3.00"/>
	<path d="M613.30 1721.17 L613.30 1721.17 L772.32 1721.17 L931.47 1721.17 L1090.61 1721.05 L1249.75 1720.92 L1408.89 1720.67 L1568.04 1720.18 L1727.18 1719.31 L1886.20 1718.07 L2045.34 1715.97 L2204.48 1712.75 L2363.63 1707.68 L2522.77 1700.01 L2681.91 1688.62 L2840.93 1671.67 L3000.07 1647.29 L3159.21 1612.27 L3318.36 1563.01 L3477.50 1494.58 L3636.64 1400.77 L3795.66 1273.55 L3795.66 1137.92 L3636.64 1307.46 L3477.50 1431.71 L3318.36 1521.55 L3159.21 1585.53 L3000.07 1630.33 L2840.93 1661.40 L2681.91 1682.43 L2522.77 1696.54 L2363.63 1705.82 L2204.48 1711.76 L2045.34 1715.48 L1886.20 1717.83 L1727.18 1719.31 L1568.04 1720.18 L1408.89 1720.55 L1249.75 1720.92 L1090.61 1721.05 L931.47 1721.17 L772.32 1721.17 L613.30 1721.17 L613.30 1721.17 Z" stroke-linecap="round" style="fill:#4747FF;stroke:#1919FF;stroke-width:3.00"/>
	<path d="M613.30 1721.17 L613.30 1721.17 L772.32 1721.17 L931.47 1721.17 L1090.61 1721.05 L1249.75 1720.92 L1408.89 1720.67 L1568.04 1720.18 L1727.18 1719.31 L1886.20 1717.95 L2045.34 1715.85 L2204.48 1712.51 L2363.63 1707.18 L2522.77 1699.14 L2681.91 1687.01 L2840.93 1669.07 L3000.07 1642.96 L3159.21 1605.58 L3318.36 1552.62 L3477.50 1478.73 L3636.64 1377.26 L3795.66 1239.39 L3795.66 1172.07 L3636.64 1330.97 L3477.50 1447.55 L3318.36 1531.95 L3159.21 1592.22 L3000.07 1634.66 L2840.93 1663.99 L2681.91 1684.04 L2522.77 1697.41 L2363.63 1706.32 L2204.48 1712.01 L2045.34 1715.60 L1886.20 1717.95 L1727.18 1719.31 L1568.04 1720.18 L1408.89 1720.55 L1249.75 1720.92 L1090.61 1721.05 L931.47 1721.17 L772.32 1721.17 L613.30 1721.17 L613.30 1721.17 Z" stroke-linecap="round" style="fill:#3333FF;stroke:#0000FF;stroke-width:3.00"/>
	<circle cx="613.18" cy="1721.29" r="22.03" style="fill:#000000;stroke:#000000;stroke-width:8.64"/>
	<circle cx="772.32" cy="1721.29" r="22.03" style="fill:#000000;stroke:#000000;stroke-width:8.64"/>
	<circle cx="931.47" cy="1721.29" r="22.03" style="fill:#000000;stroke:#000000;stroke-width:8.64"/>
	<circle cx="1090.61" cy="1721.05" r="22.03" style="fill:#000000;stroke:#000000;stroke-width:8.64"/>
	<circle cx="1249.75" cy="1721.05" r="22.03" style="fill:#000000;stroke:#000000;stroke-width:8.64"/>
	<circle cx="1408.77" cy="1720.67" r="22.03" style="fill:#000000;stroke:#000000;stroke-width:8.64"/>
	<circle cx="1567.91" cy="1720.18" r="22.03" style="fill:#000000;stroke:#000000;stroke-width:8.64"/>
	<line x1="390.80" y1="2489.19" x2="390.80" y2="100.86" style="stroke:#000000;stroke-width:5.76"/>
	<line x1="390.80" y1="2425.82" x2="350.83" y2="2425.82" style="stroke:#000000;stroke-width:5.76"/>
	<text x="300.72" y="2425.82" style="font-family:'Helvetica';font-size:99.99px;fill:#000000" transform="rotate(-90 300.72,2425.82)" text-anchor="middle">-1000</text>
	<line x1="390.80" y1="1721.29" x2="350.83" y2="1721.29" style="stroke:#000000;stroke-width:5.76"/>
	<text x="300.72" y="1721.29" style="font-family:'Helvetica';font-size:99.99px;fill:#000000" transform="rotate(-90 300.72,1721.29)" text-anchor="middle">0</text>
	<line x1="390.80" y1="1016.64" x2="350.83" y2="1016.64" style="stroke:#000000;stroke-width:5.76"/>
	<text x="300.72" y="1016.64" style="font-family:'Helvetica';font-size:99.99px;fill:#000000" transform="rotate(-90 300.72,1016.64)" text-anchor="middle">1000</text>
	<line x1="390.80" y1="311.98" x2="350.83" y2="311.98" style="stroke:#000000;stroke-width:5.76"/>
	<text x="300.72" y="311.98" style="font-family:'Helvetica';font-size:99.99px;fill:#000000" transform="rotate(-90 300.72,311.98)" text-anchor="middle">2000</text>
	<text x="190.71" y="1294.96" style="font-family:'Helvetica';font-size:99.99px;fill:#000000" transform="rotate(-90 190.71,1294.96)" text-anchor="middle">Confirmed cases per 100 beds</text>
	<line x1="390.80" y1="2489.19" x2="3859.02" y2="2489.19" style="stroke:#000000;stroke-width:5.76"/>
	<line x1="454.16" y1="2489.19" x2="454.16" y2="2529.16" style="stroke:#000000;stroke-width:5.76"/>
	<text x="454.16" y="2619.14" style="font-family:'Helvetica';font-size:99.99px;fill:#000000" text-anchor="middle">0</text>
	<line x1="613.30" y1="2489.19" x2="613.30" y2="2529.16" style="stroke:#000000;stroke-width:5.76"/>
	<text x="613.30" y="2619.14" style="font-family:'Helvetica';font-size:99.99px;fill:#000000" text-anchor="middle">1</text>
	<line x1="772.32" y1="2489.19" x2="772.32" y2="2529.16" style="stroke:#000000;stroke-width:5.76"/>
	<text x="772.32" y="2619.14" style="font-family:'Helvetica';font-size:99.99px;fill:#000000" text-anchor="middle">2</text>
	<line x1="931.47" y1="2489.19" x2="931.47" y2="2529.16" style="stroke:#000000;stroke-width:5.76"/>
	<text x="931.47" y="2619.14" style="font-family:'Helvetica';font-size:99.99px;fill:#000000" text-anchor="middle">3</text>
	<line x1="1090.61" y1="2489.19" x2="1090.61" y2="2529.16" style="stroke:#000000;stroke-width:5.76"/>
	<text x="1090.61" y="2619.14" style="font-family:'Helvetica';font-size:99.99px;fill:#000000" text-anchor="middle">4</text>
	<line x1="1249.75" y1="2489.19" x2="1249.75" y2="2529.16" style="stroke:#000000;stroke-width:5.76"/>
	<text x="1249.75" y="2619.14" style="font-family:'Helvetica';font-size:99.99px;fill:#000000" text-anchor="middle">5</text>
	<line x1="1408.89" y1="2489.19" x2="1408.89" y2="2529.16" style="stroke:#000000;stroke-width:5.76"/>
	<text x="1408.89" y="2619.14" style="font-family:'Helvetica';font-size:99.99px;fill:#000000" text-anchor="middle">6</text>
	<line x1="1568.04" y1="2489.19" x2="1568.04" y2="2529.16" style="stroke:#000000;stroke-width:5.76"/>
	<text x="1568.04" y="2619.14" style="font-family:'Helvetica';font-size:99.99px;fill:#000000" text-anchor="middle">7</text>
	<line x1="1727.18" y1="2489.19" x2="1727.18" y2="2529.16" style="stroke:#000000;stroke-width:5.76"/>
	<text x="1727.18" y="2619.14" style="font-family:'Helvetica';font-size:99.99px;fill:#000000" text-anchor="middle">8</text>
	<line x1="1886.20" y1="2489.19" x2="1886.20" y2="2529.16" style="stroke:#000000;stroke-width:5.76"/>
	<text x="1886.20" y="2619.14" style="font-family:'Helvetica';font-size:99.99px;fill:#000000" text-anchor="middle">9</text>
	<line x1="2045.34" y1="2489.19" x2="2045.34" y2="2529.16" style="stroke:#000000;stroke-width:5.76"/>
	<text x="2045.34" y="2619.14" style="font-family:'Helvetica';font-size:99.99px;fill:#000000" text-anchor="middle">10</text>
	<line x1="2204.48" y1="2489.19" x2="2204.48" y2="2529.16" style="stroke:#000000;stroke-width:5.76"/>
	<text x="2204.48" y="2619.14" style="font-family:'Helvetica';font-size:99.99px;fill:#000000" text-anchor="middle">11</text>
	<line x1="2363.63" y1="2489.19" x2="2363.63" y2="2529.16" style="stroke:#000000;stroke-width:5.76"/>
	<text x="2363.63" y="2619.14" style="font-family:'Helvetica';font-size:99.99px;fill:#000000" text-anchor="middle">12</text>
	<line x1="2522.77" y1="2489.19" x2="2522.77" y2="2529.16" style="stroke:#000000;stroke-width:5.76"/>
	<text x="2522.77" y="2619.14" style="font-family:'Helvetica';font-size:99.99px;fill:#000000" text-anchor="middle">13</text>
	<line x1="2681.91" y1="2489.19" x2="2681.91" y2="2529.16" style="stroke:#000000;stroke-width:5.76"/>
	<text x="2681.91" y="2619.14" style="font-family:'Helvetica';font-size:99.99px;fill:#000000" text-anchor="middle">14</text>
	<line x1="2840.93" y1="2489.19" x2="2840.93" y2="2529.16" style="stroke:#000000;stroke-width:5.76"/>
	<text x="2840.93" y="2619.14" style="font-family:'Helvetica';font-size:99.99px;fill:#000000" text-anchor="middle">15</text>
	<line x1="3000.07" y1="2489.19" x2="3000.07" y2="2529.16" style="stroke:#000000;stroke-width:5.76"/>
	<text x="3000.07" y="2619.14" style="font-family:'Helvetica';font-size:99.99px;fill:#000000" text-anchor="middle">16</text>
	<line x1="3159.21" y1="2489.19" x2="3159.21" y2="2529.16" style="stroke:#000000;stroke-width:5.76"/>
	<text x="3159.21" y="2619.14" style="font-family:'Helvetica';font-size:99.99px;fill:#000000" text-anchor="middle">17</text>
	<line x1="3318.36" y1="2489.19" x2="3318.36" y2="2529.16" style="stroke:#000000;stroke-width:5.76"/>
	<text x="3318.36" y="2619.14" style="font-family:'Helvetica';font-size:99.99px;fill:#000000" text-anchor="middle">18</text>
	<line x1="3477.50" y1="2489.19" x2="3477.50" y2="2529.16" style="stroke:#000000;stroke-width:5.76"/>
	<text x="3477.50" y="2619.14" style="font-family:'Helvetica';font-size:99.99px;fill:#000000" text-anchor="middle">19</text>
	<line x1="3636.64" y1="2489.19" x2="3636.64" y2="2529.16" style="stroke:#000000;stroke-width:5.76"/>
	<text x="3636.64" y="2619.14" style="font-family:'Helvetica';font-size:99.99px;fill:#000000" text-anchor="middle">20</text>
	<line x1="3795.66" y1="2489.19" x2="3795.66" y2="2529.16" style="stroke:#000000;stroke-width:5.76"/>
	<text x="3795.66" y="2619.14" style="font-family:'Helvetica';font-size:99.99px;fill:#000000" text-anchor="middle">21</text>
	<text x="2124.91" y="2729.16" style="font-family:'Helvetica';font-size:99.99px;fill:#000000" text-anchor="middle">Days since 0.01 confirmed cases per 100 beds</text>
</svg>
