<?xml version="1.0" encoding="UTF-8" standalone="no"?>
<!-- This is a Stata 14.2 generated SVG file (http://www.stata.com) -->

<svg version="1.1" width="5.50in" height="4.00in" viewBox="0 0 3960 2880" xmlns="http://www.w3.org/2000/svg">
	<desc>Stata Graph - Graph</desc>
	<line x1="390.80" y1="1860.39" x2="3859.02" y2="1860.39" style="stroke:#FF0000;stroke-width:8.64"/>
	<path d="M506.38 2425.70 L506.38 2425.70 L558.61 2425.70 L610.83 2425.70 L662.93 2425.70 L715.15 2425.70 L767.37 2425.70 L819.60 2425.70 L871.82 2425.70 L924.04 2425.70 L976.26 2425.70 L1028.49 2425.70 L1080.71 2425.70 L1132.93 2425.70 L1185.15 2425.70 L1237.38 2425.70 L1289.47 2425.70 L1341.70 2425.82 L1393.92 2425.82 L1446.14 2425.82 L1498.37 2425.82 L1550.59 2425.82 L1602.81 2425.82 L1655.03 2425.82 L1707.26 2425.82 L1759.48 2425.82 L1811.70 2425.82 L1863.92 2425.82 L1916.02 2425.82 L1968.24 2425.82 L2020.47 2425.82 L2072.69 2425.82 L2124.91 2425.82 L2177.13 2425.70 L2229.36 2425.58 L2281.58 2425.45 L2333.80 2425.20 L2386.02 2424.83 L2438.25 2424.34 L2490.47 2423.47 L2542.57 2422.48 L2594.79 2421.00 L2647.01 2418.89 L2699.24 2416.17 L2751.46 2412.46 L2803.68 2407.63 L2855.90 2401.32 L2908.13 2393.15 L2960.35 2382.88 L3012.57 2370.51 L3064.79 2356.52 L3117.01 2341.42 L3169.11 2324.59 L3221.34 2305.53 L3273.56 2283.88 L3325.78 2259.13 L3378.00 2231.16 L3430.23 2199.48 L3482.45 2163.96 L3534.67 2124.24 L3586.89 2080.18 L3639.12 2031.42 L3691.34 1977.96 L3743.56 1919.79 L3795.66 1856.93 L3795.66 378.81 L3743.56 758.12 L3691.34 1072.20 L3639.12 1331.10 L3586.89 1543.95 L3534.67 1718.20 L3482.45 1860.27 L3430.23 1975.73 L3378.00 2069.16 L3325.78 2144.28 L3273.56 2204.55 L3221.34 2252.57 L3169.11 2290.56 L3117.01 2320.26 L3064.79 2343.03 L3012.57 2359.74 L2960.35 2372.11 L2908.13 2381.89 L2855.90 2389.69 L2803.68 2396.25 L2751.46 2401.57 L2699.24 2406.02 L2647.01 2409.74 L2594.79 2412.83 L2542.57 2415.30 L2490.47 2417.41 L2438.25 2419.14 L2386.02 2420.50 L2333.80 2421.49 L2281.58 2422.48 L2229.36 2423.10 L2177.13 2423.72 L2124.91 2424.21 L2072.69 2424.46 L2020.47 2424.83 L1968.24 2425.08 L1916.02 2425.20 L1863.92 2425.33 L1811.70 2425.45 L1759.48 2425.45 L1707.26 2425.58 L1655.03 2425.58 L1602.81 2425.70 L1550.59 2425.70 L1498.37 2425.70 L1446.14 2425.70 L1393.92 2425.70 L1341.70 2425.70 L1289.47 2425.70 L1237.38 2425.70 L1185.15 2425.70 L1132.93 2425.70 L1080.71 2425.70 L1028.49 2425.70 L976.26 2425.70 L924.04 2425.70 L871.82 2425.70 L819.60 2425.70 L767.37 2425.70 L715.15 2425.70 L662.93 2425.70 L610.83 2425.70 L558.61 2425.70 L506.38 2425.70 L506.38 2425.70 Z" stroke-linecap="round" style="fill:#EBEBFF;stroke:#E6E6FF;stroke-width:3.00"/>
	<path d="M506.38 2425.70 L506.38 2425.70 L558.61 2425.70 L610.83 2425.70 L662.93 2425.70 L715.15 2425.70 L767.37 2425.70 L819.60 2425.70 L871.82 2425.70 L924.04 2425.70 L976.26 2425.70 L1028.49 2425.70 L1080.71 2425.70 L1132.93 2425.70 L1185.15 2425.70 L1237.38 2425.70 L1289.47 2425.70 L1341.70 2425.70 L1393.92 2425.70 L1446.14 2425.70 L1498.37 2425.70 L1550.59 2425.70 L1602.81 2425.70 L1655.03 2425.70 L1707.26 2425.70 L1759.48 2425.70 L1811.70 2425.70 L1863.92 2425.70 L1916.02 2425.70 L1968.24 2425.58 L2020.47 2425.58 L2072.69 2425.45 L2124.91 2425.33 L2177.13 2425.20 L2229.36 2424.96 L2281.58 2424.59 L2333.80 2424.21 L2386.02 2423.60 L2438.25 2422.73 L2490.47 2421.74 L2542.57 2420.38 L2594.79 2418.65 L2647.01 2416.29 L2699.24 2413.20 L2751.46 2409.36 L2803.68 2404.29 L2855.90 2397.98 L2908.13 2389.93 L2960.35 2379.79 L3012.57 2367.41 L3064.79 2352.68 L3117.01 2335.36 L3169.11 2314.82 L3221.34 2290.19 L3273.56 2260.98 L3325.78 2225.96 L3378.00 2184.38 L3430.23 2135.00 L3482.45 2076.34 L3534.67 2007.04 L3586.89 1925.36 L3639.12 1829.33 L3691.34 1716.59 L3743.56 1584.54 L3795.66 1430.35 L3795.66 805.39 L3743.56 1093.37 L3691.34 1333.57 L3639.12 1533.31 L3586.89 1698.77 L3534.67 1835.39 L3482.45 1948.01 L3430.23 2040.33 L3378.00 2115.94 L3325.78 2177.45 L3273.56 2227.45 L3221.34 2267.91 L3169.11 2300.34 L3117.01 2326.33 L3064.79 2346.87 L3012.57 2362.83 L2960.35 2375.21 L2908.13 2385.11 L2855.90 2393.03 L2803.68 2399.46 L2751.46 2404.79 L2699.24 2408.99 L2647.01 2412.46 L2594.79 2415.18 L2542.57 2417.41 L2490.47 2419.14 L2438.25 2420.63 L2386.02 2421.74 L2333.80 2422.61 L2281.58 2423.35 L2229.36 2423.84 L2177.13 2424.34 L2124.91 2424.59 L2072.69 2424.96 L2020.47 2425.08 L1968.24 2425.20 L1916.02 2425.33 L1863.92 2425.45 L1811.70 2425.58 L1759.48 2425.58 L1707.26 2425.70 L1655.03 2425.70 L1602.81 2425.70 L1550.59 2425.70 L1498.37 2425.70 L1446.14 2425.70 L1393.92 2425.70 L1341.70 2425.70 L1289.47 2425.70 L1237.38 2425.70 L1185.15 2425.70 L1132.93 2425.70 L1080.71 2425.70 L1028.49 2425.70 L976.26 2425.70 L924.04 2425.70 L871.82 2425.70 L819.60 2425.70 L767.37 2425.70 L715.15 2425.70 L662.93 2425.70 L610.83 2425.70 L558.61 2425.70 L506.38 2425.70 L506.38 2425.70 Z" stroke-linecap="round" style="fill:#D6D6FF;stroke:#CCCCFF;stroke-width:3.00"/>
	<path d="M506.38 2425.70 L506.38 2425.70 L558.61 2425.70 L610.83 2425.70 L662.93 2425.70 L715.15 2425.70 L767.37 2425.70 L819.60 2425.70 L871.82 2425.70 L924.04 2425.70 L976.26 2425.70 L1028.49 2425.70 L1080.71 2425.70 L1132.93 2425.70 L1185.15 2425.70 L1237.38 2425.70 L1289.47 2425.70 L1341.70 2425.70 L1393.92 2425.70 L1446.14 2425.70 L1498.37 2425.70 L1550.59 2425.70 L1602.81 2425.70 L1655.03 2425.70 L1707.26 2425.70 L1759.48 2425.70 L1811.70 2425.70 L1863.92 2425.70 L1916.02 2425.58 L1968.24 2425.58 L2020.47 2425.45 L2072.69 2425.45 L2124.91 2425.20 L2177.13 2425.08 L2229.36 2424.83 L2281.58 2424.46 L2333.80 2423.97 L2386.02 2423.35 L2438.25 2422.61 L2490.47 2421.49 L2542.57 2420.01 L2594.79 2418.27 L2647.01 2415.80 L2699.24 2412.83 L2751.46 2408.87 L2803.68 2403.80 L2855.90 2397.48 L2908.13 2389.32 L2960.35 2379.29 L3012.57 2366.92 L3064.79 2351.94 L3117.01 2334.37 L3169.11 2313.21 L3221.34 2287.71 L3273.56 2257.27 L3325.78 2220.64 L3378.00 2176.83 L3430.23 2124.48 L3482.45 2062.11 L3534.67 1988.11 L3586.89 1900.36 L3639.12 1796.66 L3691.34 1674.27 L3743.56 1530.34 L3795.66 1361.29 L3795.66 874.44 L3743.56 1147.69 L3691.34 1375.90 L3639.12 1565.98 L3586.89 1723.77 L3534.67 1854.33 L3482.45 1962.12 L3430.23 2050.73 L3378.00 2123.49 L3325.78 2182.77 L3273.56 2231.16 L3221.34 2270.39 L3169.11 2301.95 L3117.01 2327.32 L3064.79 2347.49 L3012.57 2363.33 L2960.35 2375.70 L2908.13 2385.60 L2855.90 2393.65 L2803.68 2400.08 L2751.46 2405.28 L2699.24 2409.49 L2647.01 2412.83 L2594.79 2415.55 L2542.57 2417.78 L2490.47 2419.51 L2438.25 2420.87 L2386.02 2421.86 L2333.80 2422.73 L2281.58 2423.47 L2229.36 2423.97 L2177.13 2424.34 L2124.91 2424.71 L2072.69 2424.96 L2020.47 2425.20 L1968.24 2425.33 L1916.02 2425.45 L1863.92 2425.45 L1811.70 2425.58 L1759.48 2425.58 L1707.26 2425.70 L1655.03 2425.70 L1602.81 2425.70 L1550.59 2425.70 L1498.37 2425.70 L1446.14 2425.70 L1393.92 2425.70 L1341.70 2425.70 L1289.47 2425.70 L1237.38 2425.70 L1185.15 2425.70 L1132.93 2425.70 L1080.71 2425.70 L1028.49 2425.70 L976.26 2425.70 L924.04 2425.70 L871.82 2425.70 L819.60 2425.70 L767.37 2425.70 L715.15 2425.70 L662.93 2425.70 L610.83 2425.70 L558.61 2425.70 L506.38 2425.70 L506.38 2425.70 Z" stroke-linecap="round" style="fill:#C2C2FF;stroke:#B3B3FF;stroke-width:3.00"/>
	<path d="M506.38 2425.70 L506.38 2425.70 L558.61 2425.70 L610.83 2425.70 L662.93 2425.70 L715.15 2425.70 L767.37 2425.70 L819.60 2425.70 L871.82 2425.70 L924.04 2425.70 L976.26 2425.70 L1028.49 2425.70 L1080.71 2425.70 L1132.93 2425.70 L1185.15 2425.70 L1237.38 2425.70 L1289.47 2425.70 L1341.70 2425.70 L1393.92 2425.70 L1446.14 2425.70 L1498.37 2425.70 L1550.59 2425.70 L1602.81 2425.70 L1655.03 2425.70 L1707.26 2425.70 L1759.48 2425.70 L1811.70 2425.70 L1863.92 2425.70 L1916.02 2425.58 L1968.24 2425.58 L2020.47 2425.45 L2072.69 2425.33 L2124.91 2425.20 L2177.13 2424.96 L2229.36 2424.71 L2281.58 2424.34 L2333.80 2423.84 L2386.02 2423.22 L2438.25 2422.36 L2490.47 2421.24 L2542.57 2419.88 L2594.79 2418.03 L2647.01 2415.55 L2699.24 2412.46 L2751.46 2408.50 L2803.68 2403.42 L2855.90 2397.11 L2908.13 2388.94 L2960.35 2378.92 L3012.57 2366.55 L3064.79 2351.57 L3117.01 2333.63 L3169.11 2312.09 L3221.34 2286.11 L3273.56 2254.80 L3325.78 2217.05 L3378.00 2171.76 L3430.23 2117.43 L3482.45 2052.58 L3534.67 1975.36 L3586.89 1883.53 L3639.12 1774.51 L3691.34 1645.68 L3743.56 1493.71 L3795.66 1314.76 L3795.66 920.98 L3743.56 1184.20 L3691.34 1404.36 L3639.12 1588.01 L3586.89 1740.60 L3534.67 1867.20 L3482.45 1971.65 L3430.23 2057.78 L3378.00 2128.57 L3325.78 2186.48 L3273.56 2233.63 L3221.34 2272.00 L3169.11 2303.06 L3117.01 2328.06 L3064.79 2347.98 L3012.57 2363.70 L2960.35 2376.07 L2908.13 2385.97 L2855.90 2394.02 L2803.68 2400.45 L2751.46 2405.65 L2699.24 2409.74 L2647.01 2413.08 L2594.79 2415.80 L2542.57 2417.90 L2490.47 2419.64 L2438.25 2421.00 L2386.02 2422.11 L2333.80 2422.85 L2281.58 2423.60 L2229.36 2424.09 L2177.13 2424.46 L2124.91 2424.71 L2072.69 2424.96 L2020.47 2425.20 L1968.24 2425.33 L1916.02 2425.45 L1863.92 2425.45 L1811.70 2425.58 L1759.48 2425.58 L1707.26 2425.70 L1655.03 2425.70 L1602.81 2425.70 L1550.59 2425.70 L1498.37 2425.70 L1446.14 2425.70 L1393.92 2425.70 L1341.70 2425.70 L1289.47 2425.70 L1237.38 2425.70 L1185.15 2425.70 L1132.93 2425.70 L1080.71 2425.70 L1028.49 2425.70 L976.26 2425.70 L924.04 2425.70 L871.82 2425.70 L819.60 2425.70 L767.37 2425.70 L715.15 2425.70 L662.93 2425.70 L610.83 2425.70 L558.61 2425.70 L506.38 2425.70 L506.38 2425.70 Z" stroke-linecap="round" style="fill:#ADADFF;stroke:#9999FF;stroke-width:3.00"/>
	<path d="M506.38 2425.70 L506.38 2425.70 L558.61 2425.70 L610.83 2425.70 L662.93 2425.70 L715.15 2425.70 L767.37 2425.70 L819.60 2425.70 L871.82 2425.70 L924.04 2425.70 L976.26 2425.70 L1028.49 2425.70 L1080.71 2425.70 L1132.93 2425.70 L1185.15 2425.70 L1237.38 2425.70 L1289.47 2425.70 L1341.70 2425.70 L1393.92 2425.70 L1446.14 2425.70 L1498.37 2425.70 L1550.59 2425.70 L1602.81 2425.70 L1655.03 2425.70 L1707.26 2425.70 L1759.48 2425.70 L1811.70 2425.70 L1863.92 2425.58 L1916.02 2425.58 L1968.24 2425.58 L2020.47 2425.45 L2072.69 2425.33 L2124.91 2425.20 L2177.13 2424.96 L2229.36 2424.71 L2281.58 2424.34 L2333.80 2423.72 L2386.02 2423.10 L2438.25 2422.23 L2490.47 2421.12 L2542.57 2419.64 L2594.79 2417.78 L2647.01 2415.30 L2699.24 2412.21 L2751.46 2408.25 L2803.68 2403.18 L2855.90 2396.74 L2908.13 2388.70 L2960.35 2378.67 L3012.57 2366.30 L3064.79 2351.20 L3117.01 2333.13 L3169.11 2311.23 L3221.34 2284.74 L3273.56 2252.82 L3325.78 2214.20 L3378.00 2167.67 L3430.23 2111.86 L3482.45 2045.03 L3534.67 1965.21 L3586.89 1870.04 L3639.12 1757.06 L3691.34 1623.03 L3743.56 1464.63 L3795.66 1277.76 L3795.66 957.98 L3743.56 1213.28 L3691.34 1427.13 L3639.12 1605.58 L3586.89 1754.09 L3534.67 1877.35 L3482.45 1979.32 L3430.23 2063.47 L3378.00 2132.65 L3325.78 2189.33 L3273.56 2235.61 L3221.34 2273.36 L3169.11 2303.93 L3117.01 2328.55 L3064.79 2348.35 L3012.57 2363.95 L2960.35 2376.32 L2908.13 2386.22 L2855.90 2394.27 L2803.68 2400.70 L2751.46 2405.90 L2699.24 2409.98 L2647.01 2413.32 L2594.79 2416.05 L2542.57 2418.15 L2490.47 2419.76 L2438.25 2421.12 L2386.02 2422.11 L2333.80 2422.98 L2281.58 2423.60 L2229.36 2424.09 L2177.13 2424.46 L2124.91 2424.83 L2072.69 2425.08 L2020.47 2425.20 L1968.24 2425.33 L1916.02 2425.45 L1863.92 2425.58 L1811.70 2425.58 L1759.48 2425.58 L1707.26 2425.70 L1655.03 2425.70 L1602.81 2425.70 L1550.59 2425.70 L1498.37 2425.70 L1446.14 2425.70 L1393.92 2425.70 L1341.70 2425.70 L1289.47 2425.70 L1237.38 2425.70 L1185.15 2425.70 L1132.93 2425.70 L1080.71 2425.70 L1028.49 2425.70 L976.26 2425.70 L924.04 2425.70 L871.82 2425.70 L819.60 2425.70 L767.37 2425.70 L715.15 2425.70 L662.93 2425.70 L610.83 2425.70 L558.61 2425.70 L506.38 2425.70 L506.38 2425.70 Z" stroke-linecap="round" style="fill:#9999FF;stroke:#8080FF;stroke-width:3.00"/>
	<path d="M506.38 2425.70 L506.38 2425.70 L558.61 2425.70 L610.83 2425.70 L662.93 2425.70 L715.15 2425.70 L767.37 2425.70 L819.60 2425.70 L871.82 2425.70 L924.04 2425.70 L976.26 2425.70 L1028.49 2425.70 L1080.71 2425.70 L1132.93 2425.70 L1185.15 2425.70 L1237.38 2425.70 L1289.47 2425.70 L1341.70 2425.70 L1393.92 2425.70 L1446.14 2425.70 L1498.37 2425.70 L1550.59 2425.70 L1602.81 2425.70 L1655.03 2425.70 L1707.26 2425.70 L1759.48 2425.70 L1811.70 2425.70 L1863.92 2425.58 L1916.02 2425.58 L1968.24 2425.45 L2020.47 2425.45 L2072.69 2425.33 L2124.91 2425.08 L2177.13 2424.96 L2229.36 2424.59 L2281.58 2424.21 L2333.80 2423.72 L2386.02 2422.98 L2438.25 2422.11 L2490.47 2421.00 L2542.57 2419.51 L2594.79 2417.66 L2647.01 2415.18 L2699.24 2411.96 L2751.46 2408.00 L2803.68 2402.93 L2855.90 2396.49 L2908.13 2388.45 L2960.35 2378.43 L3012.57 2366.05 L3064.79 2350.95 L3117.01 2332.64 L3169.11 2310.48 L3221.34 2283.63 L3273.56 2251.08 L3325.78 2211.73 L3378.00 2164.21 L3430.23 2107.03 L3482.45 2038.47 L3534.67 1956.42 L3586.89 1858.54 L3639.12 1741.96 L3691.34 1603.60 L3743.56 1439.63 L3795.66 1245.95 L3795.66 989.78 L3743.56 1238.28 L3691.34 1446.56 L3639.12 1620.56 L3586.89 1765.60 L3534.67 1886.01 L3482.45 1985.88 L3430.23 2068.30 L3378.00 2136.12 L3325.78 2191.80 L3273.56 2237.35 L3221.34 2274.47 L3169.11 2304.67 L3117.01 2329.05 L3064.79 2348.60 L3012.57 2364.19 L2960.35 2376.57 L2908.13 2386.47 L2855.90 2394.51 L2803.68 2400.95 L2751.46 2406.15 L2699.24 2410.23 L2647.01 2413.57 L2594.79 2416.17 L2542.57 2418.27 L2490.47 2419.88 L2438.25 2421.24 L2386.02 2422.23 L2333.80 2423.10 L2281.58 2423.72 L2229.36 2424.21 L2177.13 2424.59 L2124.91 2424.83 L2072.69 2425.08 L2020.47 2425.20 L1968.24 2425.33 L1916.02 2425.45 L1863.92 2425.58 L1811.70 2425.58 L1759.48 2425.58 L1707.26 2425.70 L1655.03 2425.70 L1602.81 2425.70 L1550.59 2425.70 L1498.37 2425.70 L1446.14 2425.70 L1393.92 2425.70 L1341.70 2425.70 L1289.47 2425.70 L1237.38 2425.70 L1185.15 2425.70 L1132.93 2425.70 L1080.71 2425.70 L1028.49 2425.70 L976.26 2425.70 L924.04 2425.70 L871.82 2425.70 L819.60 2425.70 L767.37 2425.70 L715.15 2425.70 L662.93 2425.70 L610.83 2425.70 L558.61 2425.70 L506.38 2425.70 L506.38 2425.70 Z" stroke-linecap="round" style="fill:#8585FF;stroke:#6666FF;stroke-width:3.00"/>
	<path d="M506.38 2425.70 L506.38 2425.70 L558.61 2425.70 L610.83 2425.70 L662.93 2425.70 L715.15 2425.70 L767.37 2425.70 L819.60 2425.70 L871.82 2425.70 L924.04 2425.70 L976.26 2425.70 L1028.49 2425.70 L1080.71 2425.70 L1132.93 2425.70 L1185.15 2425.70 L1237.38 2425.70 L1289.47 2425.70 L1341.70 2425.70 L1393.92 2425.70 L1446.14 2425.70 L1498.37 2425.70 L1550.59 2425.70 L1602.81 2425.70 L1655.03 2425.70 L1707.26 2425.70 L1759.48 2425.70 L1811.70 2425.70 L1863.92 2425.58 L1916.02 2425.58 L1968.24 2425.45 L2020.47 2425.45 L2072.69 2425.20 L2124.91 2425.08 L2177.13 2424.83 L2229.36 2424.59 L2281.58 2424.21 L2333.80 2423.60 L2386.02 2422.98 L2438.25 2421.99 L2490.47 2420.87 L2542.57 2419.39 L2594.79 2417.41 L2647.01 2414.93 L2699.24 2411.84 L2751.46 2407.76 L2803.68 2402.68 L2855.90 2396.25 L2908.13 2388.20 L2960.35 2378.18 L3012.57 2365.80 L3064.79 2350.70 L3117.01 2332.27 L3169.11 2309.87 L3221.34 2282.64 L3273.56 2249.60 L3325.78 2209.50 L3378.00 2161.11 L3430.23 2102.70 L3482.45 2032.66 L3534.67 1948.63 L3586.89 1848.14 L3639.12 1728.47 L3691.34 1586.15 L3743.56 1417.23 L3795.66 1217.49 L3795.66 1018.25 L3743.56 1260.68 L3691.34 1464.01 L3639.12 1634.05 L3586.89 1775.87 L3534.67 1893.93 L3482.45 1991.69 L3430.23 2072.51 L3378.00 2139.21 L3325.78 2194.03 L3273.56 2238.83 L3221.34 2275.46 L3169.11 2305.29 L3117.01 2329.42 L3064.79 2348.85 L3012.57 2364.44 L2960.35 2376.82 L2908.13 2386.72 L2855.90 2394.76 L2803.68 2401.20 L2751.46 2406.27 L2699.24 2410.48 L2647.01 2413.70 L2594.79 2416.29 L2542.57 2418.40 L2490.47 2420.01 L2438.25 2421.37 L2386.02 2422.36 L2333.80 2423.10 L2281.58 2423.72 L2229.36 2424.21 L2177.13 2424.59 L2124.91 2424.83 L2072.69 2425.08 L2020.47 2425.20 L1968.24 2425.33 L1916.02 2425.45 L1863.92 2425.58 L1811.70 2425.58 L1759.48 2425.70 L1707.26 2425.70 L1655.03 2425.70 L1602.81 2425.70 L1550.59 2425.70 L1498.37 2425.70 L1446.14 2425.70 L1393.92 2425.70 L1341.70 2425.70 L1289.47 2425.70 L1237.38 2425.70 L1185.15 2425.70 L1132.93 2425.70 L1080.71 2425.70 L1028.49 2425.70 L976.26 2425.70 L924.04 2425.70 L871.82 2425.70 L819.60 2425.70 L767.37 2425.70 L715.15 2425.70 L662.93 2425.70 L610.83 2425.70 L558.61 2425.70 L506.38 2425.70 L506.38 2425.70 Z" stroke-linecap="round" style="fill:#7171FF;stroke:#4D4DFF;stroke-width:3.00"/>
	<path d="M506.38 2425.70 L506.38 2425.70 L558.61 2425.70 L610.83 2425.70 L662.93 2425.70 L715.15 2425.70 L767.37 2425.70 L819.60 2425.70 L871.82 2425.70 L924.04 2425.70 L976.26 2425.70 L1028.49 2425.70 L1080.71 2425.70 L1132.93 2425.70 L1185.15 2425.70 L1237.38 2425.70 L1289.47 2425.70 L1341.70 2425.70 L1393.92 2425.70 L1446.14 2425.70 L1498.37 2425.70 L1550.59 2425.70 L1602.81 2425.70 L1655.03 2425.70 L1707.26 2425.70 L1759.48 2425.70 L1811.70 2425.70 L1863.92 2425.58 L1916.02 2425.58 L1968.24 2425.45 L2020.47 2425.33 L2072.69 2425.20 L2124.91 2425.08 L2177.13 2424.83 L2229.36 2424.46 L2281.58 2424.09 L2333.80 2423.60 L2386.02 2422.85 L2438.25 2421.99 L2490.47 2420.75 L2542.57 2419.26 L2594.79 2417.28 L2647.01 2414.81 L2699.24 2411.59 L2751.46 2407.63 L2803.68 2402.56 L2855.90 2396.12 L2908.13 2388.08 L2960.35 2378.05 L3012.57 2365.68 L3064.79 2350.46 L3117.01 2331.89 L3169.11 2309.25 L3221.34 2281.65 L3273.56 2248.11 L3325.78 2207.40 L3378.00 2158.14 L3430.23 2098.74 L3482.45 2027.21 L3534.67 1941.33 L3586.89 1838.61 L3639.12 1715.97 L3691.34 1569.94 L3743.56 1396.56 L3795.66 1191.13 L3795.66 1044.73 L3743.56 1281.47 L3691.34 1480.22 L3639.12 1646.55 L3586.89 1785.52 L3534.67 1901.11 L3482.45 1997.14 L3430.23 2076.59 L3378.00 2142.06 L3325.78 2196.01 L3273.56 2240.32 L3221.34 2276.45 L3169.11 2305.91 L3117.01 2329.79 L3064.79 2349.10 L3012.57 2364.57 L2960.35 2376.94 L2908.13 2386.96 L2855.90 2394.88 L2803.68 2401.32 L2751.46 2406.52 L2699.24 2410.60 L2647.01 2413.94 L2594.79 2416.54 L2542.57 2418.52 L2490.47 2420.13 L2438.25 2421.37 L2386.02 2422.48 L2333.80 2423.22 L2281.58 2423.84 L2229.36 2424.21 L2177.13 2424.59 L2124.91 2424.96 L2072.69 2425.08 L2020.47 2425.33 L1968.24 2425.45 L1916.02 2425.45 L1863.92 2425.58 L1811.70 2425.58 L1759.48 2425.70 L1707.26 2425.70 L1655.03 2425.70 L1602.81 2425.70 L1550.59 2425.70 L1498.37 2425.70 L1446.14 2425.70 L1393.92 2425.70 L1341.70 2425.70 L1289.47 2425.70 L1237.38 2425.70 L1185.15 2425.70 L1132.93 2425.70 L1080.71 2425.70 L1028.49 2425.70 L976.26 2425.70 L924.04 2425.70 L871.82 2425.70 L819.60 2425.70 L767.37 2425.70 L715.15 2425.70 L662.93 2425.70 L610.83 2425.70 L558.61 2425.70 L506.38 2425.70 L506.38 2425.70 Z" stroke-linecap="round" style="fill:#5C5CFF;stroke:#3333FF;stroke-width:3.00"/>
	<path d="M506.38 2425.70 L506.38 2425.70 L558.61 2425.70 L610.83 2425.70 L662.93 2425.70 L715.15 2425.70 L767.37 2425.70 L819.60 2425.70 L871.82 2425.70 L924.04 2425.70 L976.26 2425.70 L1028.49 2425.70 L1080.71 2425.70 L1132.93 2425.70 L1185.15 2425.70 L1237.38 2425.70 L1289.47 2425.70 L1341.70 2425.70 L1393.92 2425.70 L1446.14 2425.70 L1498.37 2425.70 L1550.59 2425.70 L1602.81 2425.70 L1655.03 2425.70 L1707.26 2425.70 L1759.48 2425.70 L1811.70 2425.70 L1863.92 2425.58 L1916.02 2425.58 L1968.24 2425.45 L2020.47 2425.33 L2072.69 2425.20 L2124.91 2425.08 L2177.13 2424.83 L2229.36 2424.46 L2281.58 2424.09 L2333.80 2423.47 L2386.02 2422.73 L2438.25 2421.86 L2490.47 2420.63 L2542.57 2419.14 L2594.79 2417.16 L2647.01 2414.69 L2699.24 2411.47 L2751.46 2407.38 L2803.68 2402.31 L2855.90 2395.87 L2908.13 2387.83 L2960.35 2377.81 L3012.57 2365.43 L3064.79 2350.21 L3117.01 2331.52 L3169.11 2308.63 L3221.34 2280.78 L3273.56 2246.75 L3325.78 2205.42 L3378.00 2155.42 L3430.23 2094.91 L3482.45 2022.01 L3534.67 1934.52 L3586.89 1829.45 L3639.12 1704.09 L3691.34 1554.60 L3743.56 1376.76 L3795.66 1166.01 L3795.66 1069.73 L3743.56 1301.15 L3691.34 1495.57 L3639.12 1658.43 L3586.89 1794.55 L3534.67 1908.04 L3482.45 2002.21 L3430.23 2080.30 L3378.00 2144.90 L3325.78 2197.99 L3273.56 2241.68 L3221.34 2277.32 L3169.11 2306.52 L3117.01 2330.16 L3064.79 2349.34 L3012.57 2364.81 L2960.35 2377.19 L2908.13 2387.09 L2855.90 2395.13 L2803.68 2401.57 L2751.46 2406.64 L2699.24 2410.85 L2647.01 2414.07 L2594.79 2416.67 L2542.57 2418.65 L2490.47 2420.25 L2438.25 2421.49 L2386.02 2422.48 L2333.80 2423.22 L2281.58 2423.84 L2229.36 2424.34 L2177.13 2424.71 L2124.91 2424.96 L2072.69 2425.08 L2020.47 2425.33 L1968.24 2425.45 L1916.02 2425.45 L1863.92 2425.58 L1811.70 2425.58 L1759.48 2425.70 L1707.26 2425.70 L1655.03 2425.70 L1602.81 2425.70 L1550.59 2425.70 L1498.37 2425.70 L1446.14 2425.70 L1393.92 2425.70 L1341.70 2425.70 L1289.47 2425.70 L1237.38 2425.70 L1185.15 2425.70 L1132.93 2425.70 L1080.71 2425.70 L1028.49 2425.70 L976.26 2425.70 L924.04 2425.70 L871.82 2425.70 L819.60 2425.70 L767.37 2425.70 L715.15 2425.70 L662.93 2425.70 L610.83 2425.70 L558.61 2425.70 L506.38 2425.70 L506.38 2425.70 Z" stroke-linecap="round" style="fill:#4747FF;stroke:#1919FF;stroke-width:3.00"/>
	<path d="M506.38 2425.70 L506.38 2425.70 L558.61 2425.70 L610.83 2425.70 L662.93 2425.70 L715.15 2425.70 L767.37 2425.70 L819.60 2425.70 L871.82 2425.70 L924.04 2425.70 L976.26 2425.70 L1028.49 2425.70 L1080.71 2425.70 L1132.93 2425.70 L1185.15 2425.70 L1237.38 2425.70 L1289.47 2425.70 L1341.70 2425.70 L1393.92 2425.70 L1446.14 2425.70 L1498.37 2425.70 L1550.59 2425.70 L1602.81 2425.70 L1655.03 2425.70 L1707.26 2425.70 L1759.48 2425.70 L1811.70 2425.58 L1863.92 2425.58 L1916.02 2425.58 L1968.24 2425.45 L2020.47 2425.33 L2072.69 2425.20 L2124.91 2424.96 L2177.13 2424.71 L2229.36 2424.46 L2281.58 2423.97 L2333.80 2423.47 L2386.02 2422.73 L2438.25 2421.74 L2490.47 2420.50 L2542.57 2419.02 L2594.79 2417.04 L2647.01 2414.44 L2699.24 2411.34 L2751.46 2407.26 L2803.68 2402.06 L2855.90 2395.75 L2908.13 2387.71 L2960.35 2377.68 L3012.57 2365.31 L3064.79 2349.96 L3117.01 2331.15 L3169.11 2308.13 L3221.34 2279.92 L3273.56 2245.51 L3325.78 2203.56 L3378.00 2152.70 L3430.23 2091.19 L3482.45 2017.06 L3534.67 1927.84 L3586.89 1820.67 L3639.12 1692.58 L3691.34 1539.75 L3743.56 1357.70 L3795.66 1141.75 L3795.66 1093.98 L3743.56 1320.21 L3691.34 1510.42 L3639.12 1669.93 L3586.89 1803.34 L3534.67 1914.72 L3482.45 2007.29 L3430.23 2084.02 L3378.00 2147.50 L3325.78 2199.85 L3273.56 2242.92 L3221.34 2278.18 L3169.11 2307.02 L3117.01 2330.53 L3064.79 2349.59 L3012.57 2364.94 L2960.35 2377.31 L2908.13 2387.34 L2855.90 2395.38 L2803.68 2401.69 L2751.46 2406.89 L2699.24 2410.97 L2647.01 2414.19 L2594.79 2416.79 L2542.57 2418.77 L2490.47 2420.38 L2438.25 2421.62 L2386.02 2422.61 L2333.80 2423.35 L2281.58 2423.84 L2229.36 2424.34 L2177.13 2424.71 L2124.91 2424.96 L2072.69 2425.20 L2020.47 2425.33 L1968.24 2425.45 L1916.02 2425.45 L1863.92 2425.58 L1811.70 2425.58 L1759.48 2425.70 L1707.26 2425.70 L1655.03 2425.70 L1602.81 2425.70 L1550.59 2425.70 L1498.37 2425.70 L1446.14 2425.70 L1393.92 2425.70 L1341.70 2425.70 L1289.47 2425.70 L1237.38 2425.70 L1185.15 2425.70 L1132.93 2425.70 L1080.71 2425.70 L1028.49 2425.70 L976.26 2425.70 L924.04 2425.70 L871.82 2425.70 L819.60 2425.70 L767.37 2425.70 L715.15 2425.70 L662.93 2425.70 L610.83 2425.70 L558.61 2425.70 L506.38 2425.70 L506.38 2425.70 Z" stroke-linecap="round" style="fill:#3333FF;stroke:#0000FF;stroke-width:3.00"/>
	<circle cx="506.26" cy="2425.20" r="22.03" style="fill:#000000;stroke:#000000;stroke-width:8.64"/>
	<circle cx="558.48" cy="2425.20" r="22.03" style="fill:#000000;stroke:#000000;stroke-width:8.64"/>
	<circle cx="610.71" cy="2425.08" r="22.03" style="fill:#000000;stroke:#000000;stroke-width:8.64"/>
	<circle cx="662.93" cy="2425.08" r="22.03" style="fill:#000000;stroke:#000000;stroke-width:8.64"/>
	<circle cx="715.15" cy="2425.08" r="22.03" style="fill:#000000;stroke:#000000;stroke-width:8.64"/>
	<circle cx="767.37" cy="2425.08" r="22.03" style="fill:#000000;stroke:#000000;stroke-width:8.64"/>
	<circle cx="819.60" cy="2425.08" r="22.03" style="fill:#000000;stroke:#000000;stroke-width:8.64"/>
	<circle cx="871.82" cy="2424.83" r="22.03" style="fill:#000000;stroke:#000000;stroke-width:8.64"/>
	<circle cx="924.04" cy="2424.71" r="22.03" style="fill:#000000;stroke:#000000;stroke-width:8.64"/>
	<circle cx="976.14" cy="2424.46" r="22.03" style="fill:#000000;stroke:#000000;stroke-width:8.64"/>
	<circle cx="1028.36" cy="2424.46" r="22.03" style="fill:#000000;stroke:#000000;stroke-width:8.64"/>
	<circle cx="1080.59" cy="2424.34" r="22.03" style="fill:#000000;stroke:#000000;stroke-width:8.64"/>
	<circle cx="1132.81" cy="2424.09" r="22.03" style="fill:#000000;stroke:#000000;stroke-width:8.64"/>
	<circle cx="1185.03" cy="2424.09" r="22.03" style="fill:#000000;stroke:#000000;stroke-width:8.64"/>
	<circle cx="1237.25" cy="2424.09" r="22.03" style="fill:#000000;stroke:#000000;stroke-width:8.64"/>
	<circle cx="1289.47" cy="2424.09" r="22.03" style="fill:#000000;stroke:#000000;stroke-width:8.64"/>
	<circle cx="1341.70" cy="2423.97" r="22.03" style="fill:#000000;stroke:#000000;stroke-width:8.64"/>
	<circle cx="1393.92" cy="2423.84" r="22.03" style="fill:#000000;stroke:#000000;stroke-width:8.64"/>
	<circle cx="1446.14" cy="2423.72" r="22.03" style="fill:#000000;stroke:#000000;stroke-width:8.64"/>
	<circle cx="1498.37" cy="2423.72" r="22.03" style="fill:#000000;stroke:#000000;stroke-width:8.64"/>
	<circle cx="1550.59" cy="2423.72" r="22.03" style="fill:#000000;stroke:#000000;stroke-width:8.64"/>
	<circle cx="1602.69" cy="2423.72" r="22.03" style="fill:#000000;stroke:#000000;stroke-width:8.64"/>
	<circle cx="1654.91" cy="2423.72" r="22.03" style="fill:#000000;stroke:#000000;stroke-width:8.64"/>
	<circle cx="1707.13" cy="2423.72" r="22.03" style="fill:#000000;stroke:#000000;stroke-width:8.64"/>
	<circle cx="1759.35" cy="2423.72" r="22.03" style="fill:#000000;stroke:#000000;stroke-width:8.64"/>
	<circle cx="1811.58" cy="2423.72" r="22.03" style="fill:#000000;stroke:#000000;stroke-width:8.64"/>
	<circle cx="1863.80" cy="2423.72" r="22.03" style="fill:#000000;stroke:#000000;stroke-width:8.64"/>
	<circle cx="1916.02" cy="2423.72" r="22.03" style="fill:#000000;stroke:#000000;stroke-width:8.64"/>
	<circle cx="1968.24" cy="2423.72" r="22.03" style="fill:#000000;stroke:#000000;stroke-width:8.64"/>
	<circle cx="2020.47" cy="2423.72" r="22.03" style="fill:#000000;stroke:#000000;stroke-width:8.64"/>
	<circle cx="2072.69" cy="2423.60" r="22.03" style="fill:#000000;stroke:#000000;stroke-width:8.64"/>
	<circle cx="2124.91" cy="2423.47" r="22.03" style="fill:#000000;stroke:#000000;stroke-width:8.64"/>
	<circle cx="2177.13" cy="2423.47" r="22.03" style="fill:#000000;stroke:#000000;stroke-width:8.64"/>
	<circle cx="2229.23" cy="2423.10" r="22.03" style="fill:#000000;stroke:#000000;stroke-width:8.64"/>
	<circle cx="2281.45" cy="2422.36" r="22.03" style="fill:#000000;stroke:#000000;stroke-width:8.64"/>
	<circle cx="2333.68" cy="2421.12" r="22.03" style="fill:#000000;stroke:#000000;stroke-width:8.64"/>
	<circle cx="2385.90" cy="2421.12" r="22.03" style="fill:#000000;stroke:#000000;stroke-width:8.64"/>
	<circle cx="2438.12" cy="2418.03" r="22.03" style="fill:#000000;stroke:#000000;stroke-width:8.64"/>
	<circle cx="2490.34" cy="2417.04" r="22.03" style="fill:#000000;stroke:#000000;stroke-width:8.64"/>
	<circle cx="2542.57" cy="2416.42" r="22.03" style="fill:#000000;stroke:#000000;stroke-width:8.64"/>
	<circle cx="2594.79" cy="2414.81" r="22.03" style="fill:#000000;stroke:#000000;stroke-width:8.64"/>
	<circle cx="2647.01" cy="2413.70" r="22.03" style="fill:#000000;stroke:#000000;stroke-width:8.64"/>
	<circle cx="2699.24" cy="2411.72" r="22.03" style="fill:#000000;stroke:#000000;stroke-width:8.64"/>
	<circle cx="2751.46" cy="2410.85" r="22.03" style="fill:#000000;stroke:#000000;stroke-width:8.64"/>
	<circle cx="2803.68" cy="2407.26" r="22.03" style="fill:#000000;stroke:#000000;stroke-width:8.64"/>
	<circle cx="2855.78" cy="2403.30" r="22.03" style="fill:#000000;stroke:#000000;stroke-width:8.64"/>
	<circle cx="2908.00" cy="2385.48" r="22.03" style="fill:#000000;stroke:#000000;stroke-width:8.64"/>
	<circle cx="2960.22" cy="2373.60" r="22.03" style="fill:#000000;stroke:#000000;stroke-width:8.64"/>
	<circle cx="3012.45" cy="2362.34" r="22.03" style="fill:#000000;stroke:#000000;stroke-width:8.64"/>
	<circle cx="3064.67" cy="2351.20" r="22.03" style="fill:#000000;stroke:#000000;stroke-width:8.64"/>
	<line x1="390.80" y1="2489.19" x2="390.80" y2="100.86" style="stroke:#000000;stroke-width:5.76"/>
	<line x1="390.80" y1="2425.70" x2="350.83" y2="2425.70" style="stroke:#000000;stroke-width:5.76"/>
	<text x="300.72" y="2425.70" style="font-family:'Helvetica';font-size:99.99px;fill:#000000" transform="rotate(-90 300.72,2425.70)" text-anchor="middle">0</text>
	<line x1="390.80" y1="1860.39" x2="350.83" y2="1860.39" style="stroke:#000000;stroke-width:5.76"/>
	<text x="300.72" y="1860.39" style="font-family:'Helvetica';font-size:99.99px;fill:#000000" transform="rotate(-90 300.72,1860.39)" text-anchor="middle">10</text>
	<line x1="390.80" y1="1294.96" x2="350.83" y2="1294.96" style="stroke:#000000;stroke-width:5.76"/>
	<text x="300.72" y="1294.96" style="font-family:'Helvetica';font-size:99.99px;fill:#000000" transform="rotate(-90 300.72,1294.96)" text-anchor="middle">20</text>
	<line x1="390.80" y1="729.53" x2="350.83" y2="729.53" style="stroke:#000000;stroke-width:5.76"/>
	<text x="300.72" y="729.53" style="font-family:'Helvetica';font-size:99.99px;fill:#000000" transform="rotate(-90 300.72,729.53)" text-anchor="middle">30</text>
	<line x1="390.80" y1="164.22" x2="350.83" y2="164.22" style="stroke:#000000;stroke-width:5.76"/>
	<text x="300.72" y="164.22" style="font-family:'Helvetica';font-size:99.99px;fill:#000000" transform="rotate(-90 300.72,164.22)" text-anchor="middle">40</text>
	<text x="190.71" y="1294.96" style="font-family:'Helvetica';font-size:99.99px;fill:#000000" transform="rotate(-90 190.71,1294.96)" text-anchor="middle">Confirmed cases per 100 beds</text>
	<line x1="390.80" y1="2489.19" x2="3859.02" y2="2489.19" style="stroke:#000000;stroke-width:5.76"/>
	<line x1="454.16" y1="2489.19" x2="454.16" y2="2529.16" style="stroke:#000000;stroke-width:5.76"/>
	<text x="454.16" y="2619.14" style="font-family:'Helvetica';font-size:99.99px;fill:#000000" text-anchor="middle">0</text>
	<line x1="1498.37" y1="2489.19" x2="1498.37" y2="2529.16" style="stroke:#000000;stroke-width:5.76"/>
	<text x="1498.37" y="2619.14" style="font-family:'Helvetica';font-size:99.99px;fill:#000000" text-anchor="middle">20</text>
	<line x1="2542.57" y1="2489.19" x2="2542.57" y2="2529.16" style="stroke:#000000;stroke-width:5.76"/>
	<text x="2542.57" y="2619.14" style="font-family:'Helvetica';font-size:99.99px;fill:#000000" text-anchor="middle">40</text>
	<line x1="3586.89" y1="2489.19" x2="3586.89" y2="2529.16" style="stroke:#000000;stroke-width:5.76"/>
	<text x="3586.89" y="2619.14" style="font-family:'Helvetica';font-size:99.99px;fill:#000000" text-anchor="middle">60</text>
	<text x="2124.91" y="2729.16" style="font-family:'Helvetica';font-size:99.99px;fill:#000000" text-anchor="middle">Days since 0.01 confirmed cases per 100 beds</text>
</svg>
