<?xml version="1.0" encoding="UTF-8" standalone="no"?>
<!-- This is a Stata 14.2 generated SVG file (http://www.stata.com) -->

<svg version="1.1" width="5.50in" height="4.00in" viewBox="0 0 3960 2880" xmlns="http://www.w3.org/2000/svg">
	<desc>Stata Graph - Graph</desc>
	<line x1="390.80" y1="1796.78" x2="3859.02" y2="1796.78" style="stroke:#FF0000;stroke-width:8.64"/>
	<path d="M565.54 1901.60 L565.54 1901.60 L676.91 1901.60 L788.29 1901.73 L899.66 1901.73 L1011.04 1901.73 L1122.41 1901.60 L1233.79 1901.60 L1345.29 1901.35 L1456.66 1900.98 L1568.04 1900.49 L1679.41 1899.62 L1790.79 1898.51 L1902.16 1897.15 L2013.54 1895.79 L2124.91 1894.67 L2236.29 1893.68 L2347.66 1893.19 L2459.04 1893.56 L2570.53 1895.41 L2681.91 1899.75 L2793.28 1907.67 L2904.66 1921.03 L3016.03 1941.95 L3127.41 1973.75 L3238.78 2020.28 L3350.16 2086.86 L3461.53 2180.17 L3572.91 2308.50 L3572.91 164.22 L3461.53 601.57 L3350.16 936.82 L3238.78 1191.75 L3127.41 1384.06 L3016.03 1527.74 L2904.66 1634.17 L2793.28 1712.26 L2681.91 1769.06 L2570.53 1809.78 L2459.04 1838.86 L2347.66 1859.15 L2236.29 1873.26 L2124.91 1882.92 L2013.54 1889.35 L1902.16 1893.56 L1790.79 1896.03 L1679.41 1897.64 L1568.04 1898.76 L1456.66 1899.50 L1345.29 1899.99 L1233.79 1900.49 L1122.41 1900.74 L1011.04 1900.98 L899.66 1901.23 L788.29 1901.35 L676.91 1901.35 L565.54 1901.48 L565.54 1901.60 Z" stroke-linecap="round" style="fill:#EBEBFF;stroke:#E6E6FF;stroke-width:3.00"/>
	<path d="M565.54 1901.60 L565.54 1901.60 L676.91 1901.60 L788.29 1901.60 L899.66 1901.48 L1011.04 1901.48 L1122.41 1901.35 L1233.79 1901.23 L1345.29 1900.98 L1456.66 1900.61 L1568.04 1899.99 L1679.41 1899.00 L1790.79 1897.77 L1902.16 1896.16 L2013.54 1893.93 L2124.91 1891.21 L2236.29 1887.74 L2347.66 1883.29 L2459.04 1877.72 L2570.53 1870.66 L2681.91 1862.00 L2793.28 1851.23 L2904.66 1838.24 L3016.03 1822.40 L3127.41 1803.59 L3238.78 1781.19 L3350.16 1754.95 L3461.53 1724.51 L3572.91 1689.61 L3572.91 782.99 L3461.53 1057.23 L3350.16 1268.72 L3238.78 1430.97 L3127.41 1554.22 L3016.03 1647.29 L2904.66 1716.96 L2793.28 1768.69 L2681.91 1806.68 L2570.53 1834.53 L2459.04 1854.58 L2347.66 1868.93 L2236.29 1879.20 L2124.91 1886.26 L2013.54 1891.21 L1902.16 1894.55 L1790.79 1896.78 L1679.41 1898.26 L1568.04 1899.25 L1456.66 1899.87 L1345.29 1900.36 L1233.79 1900.74 L1122.41 1900.98 L1011.04 1901.23 L899.66 1901.35 L788.29 1901.48 L676.91 1901.48 L565.54 1901.48 L565.54 1901.60 Z" stroke-linecap="round" style="fill:#D6D6FF;stroke:#CCCCFF;stroke-width:3.00"/>
	<path d="M565.54 1901.60 L565.54 1901.60 L676.91 1901.60 L788.29 1901.60 L899.66 1901.48 L1011.04 1901.48 L1122.41 1901.35 L1233.79 1901.23 L1345.29 1900.86 L1456.66 1900.49 L1568.04 1899.87 L1679.41 1899.00 L1790.79 1897.64 L1902.16 1895.91 L2013.54 1893.68 L2124.91 1890.71 L2236.29 1886.88 L2347.66 1881.80 L2459.04 1875.24 L2570.53 1866.70 L2681.91 1855.94 L2793.28 1842.20 L2904.66 1824.75 L3016.03 1803.09 L3127.41 1775.99 L3238.78 1742.45 L3350.16 1701.24 L3461.53 1650.88 L3572.91 1589.49 L3572.91 883.11 L3461.53 1130.86 L3350.16 1322.43 L3238.78 1469.58 L3127.41 1581.70 L3016.03 1666.59 L2904.66 1730.33 L2793.28 1777.72 L2681.91 1812.87 L2570.53 1838.49 L2459.04 1857.17 L2347.66 1870.54 L2236.29 1880.07 L2124.91 1886.88 L2013.54 1891.58 L1902.16 1894.80 L1790.79 1896.90 L1679.41 1898.26 L1568.04 1899.25 L1456.66 1899.99 L1345.29 1900.49 L1233.79 1900.86 L1122.41 1901.11 L1011.04 1901.23 L899.66 1901.35 L788.29 1901.48 L676.91 1901.48 L565.54 1901.48 L565.54 1901.60 Z" stroke-linecap="round" style="fill:#C2C2FF;stroke:#B3B3FF;stroke-width:3.00"/>
	<path d="M565.54 1901.60 L565.54 1901.60 L676.91 1901.60 L788.29 1901.60 L899.66 1901.48 L1011.04 1901.48 L1122.41 1901.35 L1233.79 1901.11 L1345.29 1900.86 L1456.66 1900.49 L1568.04 1899.87 L1679.41 1898.88 L1790.79 1897.64 L1902.16 1895.79 L2013.54 1893.43 L2124.91 1890.34 L2236.29 1886.13 L2347.66 1880.69 L2459.04 1873.51 L2570.53 1863.98 L2681.91 1851.73 L2793.28 1836.01 L2904.66 1815.72 L3016.03 1789.98 L3127.41 1757.43 L3238.78 1716.34 L3350.16 1665.11 L3461.53 1601.13 L3572.91 1521.93 L3572.91 950.68 L3461.53 1180.61 L3350.16 1358.69 L3238.78 1495.69 L3127.41 1600.39 L3016.03 1679.71 L2904.66 1739.36 L2793.28 1783.91 L2681.91 1816.95 L2570.53 1841.21 L2459.04 1858.91 L2347.66 1871.65 L2236.29 1880.81 L2124.91 1887.25 L2013.54 1891.70 L1902.16 1894.92 L1790.79 1897.02 L1679.41 1898.38 L1568.04 1899.37 L1456.66 1899.99 L1345.29 1900.49 L1233.79 1900.86 L1122.41 1901.11 L1011.04 1901.23 L899.66 1901.35 L788.29 1901.48 L676.91 1901.48 L565.54 1901.48 L565.54 1901.60 Z" stroke-linecap="round" style="fill:#ADADFF;stroke:#9999FF;stroke-width:3.00"/>
	<path d="M565.54 1901.60 L565.54 1901.60 L676.91 1901.60 L788.29 1901.48 L899.66 1901.48 L1011.04 1901.35 L1122.41 1901.35 L1233.79 1901.11 L1345.29 1900.86 L1456.66 1900.36 L1568.04 1899.75 L1679.41 1898.88 L1790.79 1897.52 L1902.16 1895.79 L2013.54 1893.31 L2124.91 1890.09 L2236.29 1885.64 L2347.66 1879.82 L2459.04 1872.15 L2570.53 1861.88 L2681.91 1848.51 L2793.28 1831.06 L2904.66 1808.54 L3016.03 1779.70 L3127.41 1742.70 L3238.78 1695.68 L3350.16 1636.27 L3461.53 1561.65 L3572.91 1468.22 L3572.91 1004.39 L3461.53 1220.09 L3350.16 1387.53 L3238.78 1516.48 L3127.41 1615.11 L3016.03 1689.98 L2904.66 1746.54 L2793.28 1788.86 L2681.91 1820.17 L2570.53 1843.31 L2459.04 1860.27 L2347.66 1872.52 L2236.29 1881.31 L2124.91 1887.49 L2013.54 1891.95 L1902.16 1894.92 L1790.79 1897.02 L1679.41 1898.38 L1568.04 1899.37 L1456.66 1900.12 L1345.29 1900.61 L1233.79 1900.86 L1122.41 1901.11 L1011.04 1901.23 L899.66 1901.35 L788.29 1901.48 L676.91 1901.48 L565.54 1901.48 L565.54 1901.60 Z" stroke-linecap="round" style="fill:#9999FF;stroke:#8080FF;stroke-width:3.00"/>
	<path d="M565.54 1901.60 L565.54 1901.60 L676.91 1901.60 L788.29 1901.48 L899.66 1901.48 L1011.04 1901.35 L1122.41 1901.23 L1233.79 1901.11 L1345.29 1900.86 L1456.66 1900.36 L1568.04 1899.75 L1679.41 1898.76 L1790.79 1897.52 L1902.16 1895.66 L2013.54 1893.19 L2124.91 1889.85 L2236.29 1885.27 L2347.66 1879.08 L2459.04 1870.91 L2570.53 1860.02 L2681.91 1845.67 L2793.28 1826.85 L2904.66 1802.48 L3016.03 1770.79 L3127.41 1729.96 L3238.78 1677.85 L3350.16 1611.52 L3461.53 1527.74 L3572.91 1422.18 L3572.91 1050.42 L3461.53 1254.00 L3350.16 1412.16 L3238.78 1534.18 L3127.41 1627.73 L3016.03 1698.89 L2904.66 1752.73 L2793.28 1793.07 L2681.91 1823.02 L2570.53 1845.17 L2459.04 1861.38 L2347.66 1873.26 L2236.29 1881.68 L2124.91 1887.74 L2013.54 1892.07 L1902.16 1895.04 L1790.79 1897.02 L1679.41 1898.51 L1568.04 1899.50 L1456.66 1900.12 L1345.29 1900.61 L1233.79 1900.86 L1122.41 1901.11 L1011.04 1901.23 L899.66 1901.35 L788.29 1901.48 L676.91 1901.48 L565.54 1901.60 L565.54 1901.60 Z" stroke-linecap="round" style="fill:#8585FF;stroke:#6666FF;stroke-width:3.00"/>
	<path d="M565.54 1901.60 L565.54 1901.60 L676.91 1901.60 L788.29 1901.48 L899.66 1901.48 L1011.04 1901.35 L1122.41 1901.23 L1233.79 1901.11 L1345.29 1900.74 L1456.66 1900.36 L1568.04 1899.75 L1679.41 1898.76 L1790.79 1897.39 L1902.16 1895.54 L2013.54 1893.06 L2124.91 1889.60 L2236.29 1884.90 L2347.66 1878.46 L2459.04 1869.92 L2570.53 1858.41 L2681.91 1843.19 L2793.28 1823.14 L2904.66 1796.91 L3016.03 1762.75 L3127.41 1718.57 L3238.78 1661.89 L3350.16 1589.37 L3461.53 1497.30 L3572.91 1380.85 L3572.91 1091.76 L3461.53 1284.44 L3350.16 1434.43 L3238.78 1550.26 L3127.41 1639.12 L3016.03 1706.94 L2904.66 1758.29 L2793.28 1796.78 L2681.91 1825.62 L2570.53 1846.90 L2459.04 1862.50 L2347.66 1873.88 L2236.29 1882.05 L2124.91 1887.99 L2013.54 1892.20 L1902.16 1895.04 L1790.79 1897.15 L1679.41 1898.51 L1568.04 1899.50 L1456.66 1900.12 L1345.29 1900.61 L1233.79 1900.98 L1122.41 1901.11 L1011.04 1901.35 L899.66 1901.35 L788.29 1901.48 L676.91 1901.48 L565.54 1901.60 L565.54 1901.60 Z" stroke-linecap="round" style="fill:#7171FF;stroke:#4D4DFF;stroke-width:3.00"/>
	<path d="M565.54 1901.60 L565.54 1901.60 L676.91 1901.60 L788.29 1901.48 L899.66 1901.48 L1011.04 1901.35 L1122.41 1901.23 L1233.79 1901.11 L1345.29 1900.74 L1456.66 1900.36 L1568.04 1899.62 L1679.41 1898.76 L1790.79 1897.39 L1902.16 1895.54 L2013.54 1892.94 L2124.91 1889.35 L2236.29 1884.52 L2347.66 1877.84 L2459.04 1868.93 L2570.53 1856.80 L2681.91 1840.84 L2793.28 1819.68 L2904.66 1791.71 L3016.03 1755.32 L3127.41 1708.05 L3238.78 1647.04 L3350.16 1568.83 L3461.53 1469.08 L3572.91 1342.48 L3572.91 1130.12 L3461.53 1312.66 L3350.16 1454.97 L3238.78 1564.99 L3127.41 1649.64 L3016.03 1714.36 L2904.66 1763.37 L2793.28 1800.25 L2681.91 1827.84 L2570.53 1848.39 L2459.04 1863.49 L2347.66 1874.50 L2236.29 1882.42 L2124.91 1888.24 L2013.54 1892.32 L1902.16 1895.17 L1790.79 1897.15 L1679.41 1898.51 L1568.04 1899.50 L1456.66 1900.12 L1345.29 1900.61 L1233.79 1900.98 L1122.41 1901.11 L1011.04 1901.35 L899.66 1901.35 L788.29 1901.48 L676.91 1901.48 L565.54 1901.60 L565.54 1901.60 Z" stroke-linecap="round" style="fill:#5C5CFF;stroke:#3333FF;stroke-width:3.00"/>
	<path d="M565.54 1901.60 L565.54 1901.60 L676.91 1901.60 L788.29 1901.48 L899.66 1901.48 L1011.04 1901.35 L1122.41 1901.23 L1233.79 1900.98 L1345.29 1900.74 L1456.66 1900.24 L1568.04 1899.62 L1679.41 1898.76 L1790.79 1897.39 L1902.16 1895.41 L2013.54 1892.82 L2124.91 1889.23 L2236.29 1884.15 L2347.66 1877.22 L2459.04 1867.94 L2570.53 1855.44 L2681.91 1838.61 L2793.28 1816.34 L2904.66 1786.88 L3016.03 1748.27 L3127.41 1698.03 L3238.78 1633.06 L3350.16 1549.27 L3461.53 1442.23 L3572.91 1306.10 L3572.91 1166.50 L3461.53 1339.51 L3350.16 1474.40 L3238.78 1579.10 L3127.41 1659.66 L3016.03 1721.29 L2904.66 1768.20 L2793.28 1803.59 L2681.91 1830.07 L2570.53 1849.87 L2459.04 1864.35 L2347.66 1875.12 L2236.29 1882.79 L2124.91 1888.36 L2013.54 1892.44 L1902.16 1895.17 L1790.79 1897.15 L1679.41 1898.63 L1568.04 1899.50 L1456.66 1900.24 L1345.29 1900.61 L1233.79 1900.98 L1122.41 1901.23 L1011.04 1901.35 L899.66 1901.48 L788.29 1901.48 L676.91 1901.48 L565.54 1901.60 L565.54 1901.60 Z" stroke-linecap="round" style="fill:#4747FF;stroke:#1919FF;stroke-width:3.00"/>
	<path d="M565.54 1901.60 L565.54 1901.60 L676.91 1901.48 L788.29 1901.48 L899.66 1901.48 L1011.04 1901.35 L1122.41 1901.23 L1233.79 1900.98 L1345.29 1900.74 L1456.66 1900.24 L1568.04 1899.62 L1679.41 1898.63 L1790.79 1897.27 L1902.16 1895.41 L2013.54 1892.69 L2124.91 1888.98 L2236.29 1883.78 L2347.66 1876.73 L2459.04 1867.07 L2570.53 1853.96 L2681.91 1836.51 L2793.28 1813.12 L2904.66 1782.18 L3016.03 1741.59 L3127.41 1688.37 L3238.78 1619.44 L3350.16 1530.46 L3461.53 1416.36 L3572.91 1270.95 L3572.91 1201.65 L3461.53 1365.38 L3350.16 1493.34 L3238.78 1592.71 L3127.41 1669.32 L3016.03 1728.10 L2904.66 1772.90 L2793.28 1806.81 L2681.91 1832.30 L2570.53 1851.23 L2459.04 1865.34 L2347.66 1875.61 L2236.29 1883.16 L2124.91 1888.61 L2013.54 1892.57 L1902.16 1895.29 L1790.79 1897.27 L1679.41 1898.63 L1568.04 1899.62 L1456.66 1900.24 L1345.29 1900.74 L1233.79 1900.98 L1122.41 1901.23 L1011.04 1901.35 L899.66 1901.48 L788.29 1901.48 L676.91 1901.48 L565.54 1901.60 L565.54 1901.60 Z" stroke-linecap="round" style="fill:#3333FF;stroke:#0000FF;stroke-width:3.00"/>
	<circle cx="565.41" cy="1901.35" r="22.03" style="fill:#000000;stroke:#000000;stroke-width:8.64"/>
	<circle cx="676.79" cy="1901.35" r="22.03" style="fill:#000000;stroke:#000000;stroke-width:8.64"/>
	<circle cx="788.29" cy="1901.35" r="22.03" style="fill:#000000;stroke:#000000;stroke-width:8.64"/>
	<circle cx="899.66" cy="1901.23" r="22.03" style="fill:#000000;stroke:#000000;stroke-width:8.64"/>
	<circle cx="1011.04" cy="1901.11" r="22.03" style="fill:#000000;stroke:#000000;stroke-width:8.64"/>
	<circle cx="1122.41" cy="1900.86" r="22.03" style="fill:#000000;stroke:#000000;stroke-width:8.64"/>
	<circle cx="1233.79" cy="1900.49" r="22.03" style="fill:#000000;stroke:#000000;stroke-width:8.64"/>
	<circle cx="1345.16" cy="1900.49" r="22.03" style="fill:#000000;stroke:#000000;stroke-width:8.64"/>
	<circle cx="1456.54" cy="1899.99" r="22.03" style="fill:#000000;stroke:#000000;stroke-width:8.64"/>
	<circle cx="1567.91" cy="1899.25" r="22.03" style="fill:#000000;stroke:#000000;stroke-width:8.64"/>
	<circle cx="1679.29" cy="1898.76" r="22.03" style="fill:#000000;stroke:#000000;stroke-width:8.64"/>
	<circle cx="1790.66" cy="1898.14" r="22.03" style="fill:#000000;stroke:#000000;stroke-width:8.64"/>
	<circle cx="1902.04" cy="1896.40" r="22.03" style="fill:#000000;stroke:#000000;stroke-width:8.64"/>
	<circle cx="2013.54" cy="1891.83" r="22.03" style="fill:#000000;stroke:#000000;stroke-width:8.64"/>
	<line x1="390.80" y1="2489.19" x2="390.80" y2="100.86" style="stroke:#000000;stroke-width:5.76"/>
	<line x1="390.80" y1="2425.82" x2="350.83" y2="2425.82" style="stroke:#000000;stroke-width:5.76"/>
	<text x="300.72" y="2425.82" style="font-family:'Helvetica';font-size:99.99px;fill:#000000" transform="rotate(-90 300.72,2425.82)" text-anchor="middle">-50</text>
	<line x1="390.80" y1="1901.60" x2="350.83" y2="1901.60" style="stroke:#000000;stroke-width:5.76"/>
	<text x="300.72" y="1901.60" style="font-family:'Helvetica';font-size:99.99px;fill:#000000" transform="rotate(-90 300.72,1901.60)" text-anchor="middle">0</text>
	<line x1="390.80" y1="1377.38" x2="350.83" y2="1377.38" style="stroke:#000000;stroke-width:5.76"/>
	<text x="300.72" y="1377.38" style="font-family:'Helvetica';font-size:99.99px;fill:#000000" transform="rotate(-90 300.72,1377.38)" text-anchor="middle">50</text>
	<line x1="390.80" y1="853.04" x2="350.83" y2="853.04" style="stroke:#000000;stroke-width:5.76"/>
	<text x="300.72" y="853.04" style="font-family:'Helvetica';font-size:99.99px;fill:#000000" transform="rotate(-90 300.72,853.04)" text-anchor="middle">100</text>
	<line x1="390.80" y1="328.81" x2="350.83" y2="328.81" style="stroke:#000000;stroke-width:5.76"/>
	<text x="300.72" y="328.81" style="font-family:'Helvetica';font-size:99.99px;fill:#000000" transform="rotate(-90 300.72,328.81)" text-anchor="middle">150</text>
	<text x="190.71" y="1294.96" style="font-family:'Helvetica';font-size:99.99px;fill:#000000" transform="rotate(-90 190.71,1294.96)" text-anchor="middle">Confirmed cases per 100 beds</text>
	<line x1="390.80" y1="2489.19" x2="3859.02" y2="2489.19" style="stroke:#000000;stroke-width:5.76"/>
	<line x1="454.16" y1="2489.19" x2="454.16" y2="2529.16" style="stroke:#000000;stroke-width:5.76"/>
	<text x="454.16" y="2619.14" style="font-family:'Helvetica';font-size:99.99px;fill:#000000" text-anchor="middle">0</text>
	<line x1="1568.04" y1="2489.19" x2="1568.04" y2="2529.16" style="stroke:#000000;stroke-width:5.76"/>
	<text x="1568.04" y="2619.14" style="font-family:'Helvetica';font-size:99.99px;fill:#000000" text-anchor="middle">10</text>
	<line x1="2681.91" y1="2489.19" x2="2681.91" y2="2529.16" style="stroke:#000000;stroke-width:5.76"/>
	<text x="2681.91" y="2619.14" style="font-family:'Helvetica';font-size:99.99px;fill:#000000" text-anchor="middle">20</text>
	<line x1="3795.66" y1="2489.19" x2="3795.66" y2="2529.16" style="stroke:#000000;stroke-width:5.76"/>
	<text x="3795.66" y="2619.14" style="font-family:'Helvetica';font-size:99.99px;fill:#000000" text-anchor="middle">30</text>
	<text x="2124.91" y="2729.16" style="font-family:'Helvetica';font-size:99.99px;fill:#000000" text-anchor="middle">Days since 0.01 confirmed cases per 100 beds</text>
</svg>
