<?xml version="1.0" encoding="UTF-8" standalone="no"?>
<!-- This is a Stata 14.2 generated SVG file (http://www.stata.com) -->

<svg version="1.1" width="5.50in" height="4.00in" viewBox="0 0 3960 2880" xmlns="http://www.w3.org/2000/svg">
	<desc>Stata Graph - Graph</desc>
	<line x1="390.80" y1="1521.18" x2="3859.02" y2="1521.18" style="stroke:#FF0000;stroke-width:8.64"/>
	<path d="M613.30 1521.18 L613.30 1521.18 L772.32 1521.18 L931.47 1521.18 L1090.61 1521.18 L1249.75 1521.18 L1408.89 1521.18 L1568.04 1521.18 L1727.18 1521.18 L1886.20 1521.18 L2045.34 1521.43 L2204.48 1522.05 L2363.63 1523.78 L2522.77 1527.87 L2681.91 1536.53 L2840.93 1553.61 L3000.07 1585.04 L3159.21 1639.00 L3318.36 1726.99 L3477.50 1863.11 L3636.64 2063.72 L3795.66 2347.12 L3795.66 323.74 L3636.64 735.72 L3477.50 1025.80 L3318.36 1221.82 L3159.21 1348.67 L3000.07 1426.76 L2840.93 1472.30 L2681.91 1497.55 L2522.77 1510.42 L2363.63 1516.73 L2204.48 1519.45 L2045.34 1520.56 L1886.20 1521.06 L1727.18 1521.18 L1568.04 1521.18 L1408.89 1521.18 L1249.75 1521.18 L1090.61 1521.18 L931.47 1521.18 L772.32 1521.18 L613.30 1521.18 L613.30 1521.18 Z" stroke-linecap="round" style="fill:#EBEBFF;stroke:#E6E6FF;stroke-width:3.00"/>
	<path d="M613.30 1521.18 L613.30 1521.18 L772.32 1521.18 L931.47 1521.18 L1090.61 1521.18 L1249.75 1521.18 L1408.89 1521.18 L1568.04 1521.18 L1727.18 1521.18 L1886.20 1521.18 L2045.34 1521.18 L2204.48 1521.31 L2363.63 1521.80 L2522.77 1522.79 L2681.91 1525.27 L2840.93 1530.22 L3000.07 1539.25 L3159.21 1555.21 L3318.36 1581.20 L3477.50 1621.42 L3636.64 1680.45 L3795.66 1763.25 L3795.66 907.73 L3636.64 1118.98 L3477.50 1267.49 L3318.36 1367.60 L3159.21 1432.45 L3000.07 1472.42 L2840.93 1495.81 L2681.91 1508.81 L2522.77 1515.49 L2363.63 1518.71 L2204.48 1520.19 L2045.34 1520.81 L1886.20 1521.06 L1727.18 1521.18 L1568.04 1521.18 L1408.89 1521.18 L1249.75 1521.18 L1090.61 1521.18 L931.47 1521.18 L772.32 1521.18 L613.30 1521.18 L613.30 1521.18 Z" stroke-linecap="round" style="fill:#D6D6FF;stroke:#CCCCFF;stroke-width:3.00"/>
	<path d="M613.30 1521.18 L613.30 1521.18 L772.32 1521.18 L931.47 1521.18 L1090.61 1521.18 L1249.75 1521.18 L1408.89 1521.18 L1568.04 1521.18 L1727.18 1521.18 L1886.20 1521.18 L2045.34 1521.18 L2204.48 1521.18 L2363.63 1521.43 L2522.77 1522.05 L2681.91 1523.41 L2840.93 1526.38 L3000.07 1531.95 L3159.21 1541.73 L3318.36 1557.69 L3477.50 1582.32 L3636.64 1618.45 L3795.66 1668.70 L3795.66 1002.28 L3636.64 1180.98 L3477.50 1306.47 L3318.36 1391.24 L3159.21 1446.06 L3000.07 1479.85 L2840.93 1499.65 L2681.91 1510.54 L2522.77 1516.36 L2363.63 1519.08 L2204.48 1520.32 L2045.34 1520.94 L1886.20 1521.06 L1727.18 1521.18 L1568.04 1521.18 L1408.89 1521.18 L1249.75 1521.18 L1090.61 1521.18 L931.47 1521.18 L772.32 1521.18 L613.30 1521.18 L613.30 1521.18 Z" stroke-linecap="round" style="fill:#C2C2FF;stroke:#B3B3FF;stroke-width:3.00"/>
	<path d="M613.30 1521.18 L613.30 1521.18 L772.32 1521.18 L931.47 1521.18 L1090.61 1521.18 L1249.75 1521.18 L1408.89 1521.18 L1568.04 1521.18 L1727.18 1521.18 L1886.20 1521.18 L2045.34 1521.18 L2204.48 1521.18 L2363.63 1521.18 L2522.77 1521.43 L2681.91 1522.17 L2840.93 1523.78 L3000.07 1527.00 L3159.21 1532.57 L3318.36 1541.73 L3477.50 1555.96 L3636.64 1576.62 L3795.66 1604.96 L3795.66 1066.02 L3636.64 1222.81 L3477.50 1332.95 L3318.36 1407.21 L3159.21 1455.22 L3000.07 1484.80 L2840.93 1502.12 L2681.91 1511.78 L2522.77 1516.85 L2363.63 1519.33 L2204.48 1520.44 L2045.34 1520.94 L1886.20 1521.06 L1727.18 1521.18 L1568.04 1521.18 L1408.89 1521.18 L1249.75 1521.18 L1090.61 1521.18 L931.47 1521.18 L772.32 1521.18 L613.30 1521.18 L613.30 1521.18 Z" stroke-linecap="round" style="fill:#ADADFF;stroke:#9999FF;stroke-width:3.00"/>
	<path d="M613.30 1521.18 L613.30 1521.18 L772.32 1521.18 L931.47 1521.18 L1090.61 1521.18 L1249.75 1521.18 L1408.89 1521.18 L1568.04 1521.18 L1727.18 1521.18 L1886.20 1521.18 L2045.34 1521.06 L2204.48 1521.06 L2363.63 1521.06 L2522.77 1521.06 L2681.91 1521.18 L2840.93 1521.80 L3000.07 1523.04 L3159.21 1525.27 L3318.36 1529.10 L3477.50 1535.04 L3636.64 1543.33 L3795.66 1554.35 L3795.66 1116.63 L3636.64 1256.10 L3477.50 1353.87 L3318.36 1419.83 L3159.21 1462.40 L3000.07 1488.76 L2840.93 1504.23 L2681.91 1512.77 L2522.77 1517.35 L2363.63 1519.45 L2204.48 1520.56 L2045.34 1520.94 L1886.20 1521.06 L1727.18 1521.18 L1568.04 1521.18 L1408.89 1521.18 L1249.75 1521.18 L1090.61 1521.18 L931.47 1521.18 L772.32 1521.18 L613.30 1521.18 L613.30 1521.18 Z" stroke-linecap="round" style="fill:#9999FF;stroke:#8080FF;stroke-width:3.00"/>
	<path d="M613.30 1521.18 L613.30 1521.18 L772.32 1521.18 L931.47 1521.18 L1090.61 1521.18 L1249.75 1521.18 L1408.89 1521.18 L1568.04 1521.18 L1727.18 1521.18 L1886.20 1521.18 L2045.34 1521.06 L2204.48 1521.06 L2363.63 1520.94 L2522.77 1520.69 L2681.91 1520.44 L2840.93 1520.07 L3000.07 1519.57 L3159.21 1518.95 L3318.36 1518.21 L3477.50 1516.97 L3636.64 1514.87 L3795.66 1510.91 L3795.66 1160.07 L3636.64 1284.57 L3477.50 1371.81 L3318.36 1430.72 L3159.21 1468.71 L3000.07 1492.10 L2840.93 1505.96 L2681.91 1513.63 L2522.77 1517.72 L2363.63 1519.70 L2204.48 1520.56 L2045.34 1520.94 L1886.20 1521.06 L1727.18 1521.18 L1568.04 1521.18 L1408.89 1521.18 L1249.75 1521.18 L1090.61 1521.18 L931.47 1521.18 L772.32 1521.18 L613.30 1521.18 L613.30 1521.18 Z" stroke-linecap="round" style="fill:#8585FF;stroke:#6666FF;stroke-width:3.00"/>
	<path d="M613.30 1521.18 L613.30 1521.18 L772.32 1521.18 L931.47 1521.18 L1090.61 1521.18 L1249.75 1521.18 L1408.89 1521.18 L1568.04 1521.18 L1727.18 1521.18 L1886.20 1521.18 L2045.34 1521.06 L2204.48 1520.94 L2363.63 1520.69 L2522.77 1520.32 L2681.91 1519.70 L2840.93 1518.46 L3000.07 1516.48 L3159.21 1513.39 L3318.36 1508.44 L3477.50 1500.89 L3636.64 1489.25 L3795.66 1471.80 L3795.66 1199.05 L3636.64 1310.18 L3477.50 1388.02 L3318.36 1440.37 L3159.21 1474.28 L3000.07 1495.19 L2840.93 1507.57 L2681.91 1514.38 L2522.77 1517.96 L2363.63 1519.82 L2204.48 1520.56 L2045.34 1520.94 L1886.20 1521.06 L1727.18 1521.18 L1568.04 1521.18 L1408.89 1521.18 L1249.75 1521.18 L1090.61 1521.18 L931.47 1521.18 L772.32 1521.18 L613.30 1521.18 L613.30 1521.18 Z" stroke-linecap="round" style="fill:#7171FF;stroke:#4D4DFF;stroke-width:3.00"/>
	<path d="M613.30 1521.18 L613.30 1521.18 L772.32 1521.18 L931.47 1521.18 L1090.61 1521.18 L1249.75 1521.18 L1408.89 1521.18 L1568.04 1521.18 L1727.18 1521.18 L1886.20 1521.18 L2045.34 1521.06 L2204.48 1520.94 L2363.63 1520.56 L2522.77 1520.07 L2681.91 1518.95 L2840.93 1516.97 L3000.07 1513.76 L3159.21 1508.19 L3318.36 1499.40 L3477.50 1485.91 L3636.64 1465.49 L3795.66 1435.67 L3795.66 1235.31 L3636.64 1333.94 L3477.50 1403.00 L3318.36 1449.41 L3159.21 1479.48 L3000.07 1498.04 L2840.93 1508.93 L2681.91 1515.12 L2522.77 1518.34 L2363.63 1519.94 L2204.48 1520.69 L2045.34 1520.94 L1886.20 1521.06 L1727.18 1521.18 L1568.04 1521.18 L1408.89 1521.18 L1249.75 1521.18 L1090.61 1521.18 L931.47 1521.18 L772.32 1521.18 L613.30 1521.18 L613.30 1521.18 Z" stroke-linecap="round" style="fill:#5C5CFF;stroke:#3333FF;stroke-width:3.00"/>
	<path d="M613.30 1521.18 L613.30 1521.18 L772.32 1521.18 L931.47 1521.18 L1090.61 1521.18 L1249.75 1521.18 L1408.89 1521.18 L1568.04 1521.18 L1727.18 1521.18 L1886.20 1521.18 L2045.34 1521.06 L2204.48 1520.81 L2363.63 1520.44 L2522.77 1519.70 L2681.91 1518.34 L2840.93 1515.61 L3000.07 1511.03 L3159.21 1503.24 L3318.36 1490.86 L3477.50 1471.68 L3636.64 1442.97 L3795.66 1401.39 L3795.66 1269.59 L3636.64 1356.47 L3477.50 1417.23 L3318.36 1457.94 L3159.21 1484.43 L3000.07 1500.76 L2840.93 1510.29 L2681.91 1515.74 L2522.77 1518.58 L2363.63 1520.07 L2204.48 1520.69 L2045.34 1520.94 L1886.20 1521.06 L1727.18 1521.18 L1568.04 1521.18 L1408.89 1521.18 L1249.75 1521.18 L1090.61 1521.18 L931.47 1521.18 L772.32 1521.18 L613.30 1521.18 L613.30 1521.18 Z" stroke-linecap="round" style="fill:#4747FF;stroke:#1919FF;stroke-width:3.00"/>
	<path d="M613.30 1521.18 L613.30 1521.18 L772.32 1521.18 L931.47 1521.18 L1090.61 1521.18 L1249.75 1521.18 L1408.89 1521.18 L1568.04 1521.18 L1727.18 1521.18 L1886.20 1521.06 L2045.34 1521.06 L2204.48 1520.81 L2363.63 1520.44 L2522.77 1519.45 L2681.91 1517.59 L2840.93 1514.25 L3000.07 1508.44 L3159.21 1498.54 L3318.36 1482.57 L3477.50 1457.94 L3636.64 1421.19 L3795.66 1368.10 L3795.66 1302.76 L3636.64 1378.25 L3477.50 1430.97 L3318.36 1466.24 L3159.21 1489.13 L3000.07 1503.36 L2840.93 1511.65 L2681.91 1516.36 L2522.77 1518.83 L2363.63 1520.19 L2204.48 1520.69 L2045.34 1521.06 L1886.20 1521.06 L1727.18 1521.18 L1568.04 1521.18 L1408.89 1521.18 L1249.75 1521.18 L1090.61 1521.18 L931.47 1521.18 L772.32 1521.18 L613.30 1521.18 L613.30 1521.18 Z" stroke-linecap="round" style="fill:#3333FF;stroke:#0000FF;stroke-width:3.00"/>
	<circle cx="613.18" cy="1521.18" r="22.03" style="fill:#000000;stroke:#000000;stroke-width:8.64"/>
	<circle cx="772.32" cy="1521.18" r="22.03" style="fill:#000000;stroke:#000000;stroke-width:8.64"/>
	<circle cx="931.47" cy="1521.18" r="22.03" style="fill:#000000;stroke:#000000;stroke-width:8.64"/>
	<circle cx="1090.61" cy="1521.18" r="22.03" style="fill:#000000;stroke:#000000;stroke-width:8.64"/>
	<circle cx="1249.75" cy="1521.18" r="22.03" style="fill:#000000;stroke:#000000;stroke-width:8.64"/>
	<circle cx="1408.77" cy="1521.18" r="22.03" style="fill:#000000;stroke:#000000;stroke-width:8.64"/>
	<circle cx="1567.91" cy="1521.18" r="22.03" style="fill:#000000;stroke:#000000;stroke-width:8.64"/>
	<line x1="390.80" y1="2489.19" x2="390.80" y2="100.86" style="stroke:#000000;stroke-width:5.76"/>
	<line x1="390.80" y1="2425.82" x2="350.83" y2="2425.82" style="stroke:#000000;stroke-width:5.76"/>
	<text x="300.72" y="2425.82" style="font-family:'Helvetica';font-size:99.99px;fill:#000000" transform="rotate(-90 300.72,2425.82)" text-anchor="middle">-200000</text>
	<line x1="390.80" y1="1973.50" x2="350.83" y2="1973.50" style="stroke:#000000;stroke-width:5.76"/>
	<text x="300.72" y="1973.50" style="font-family:'Helvetica';font-size:99.99px;fill:#000000" transform="rotate(-90 300.72,1973.50)" text-anchor="middle">-100000</text>
	<line x1="390.80" y1="1521.18" x2="350.83" y2="1521.18" style="stroke:#000000;stroke-width:5.76"/>
	<text x="300.72" y="1521.18" style="font-family:'Helvetica';font-size:99.99px;fill:#000000" transform="rotate(-90 300.72,1521.18)" text-anchor="middle">0</text>
	<line x1="390.80" y1="1068.86" x2="350.83" y2="1068.86" style="stroke:#000000;stroke-width:5.76"/>
	<text x="300.72" y="1068.86" style="font-family:'Helvetica';font-size:99.99px;fill:#000000" transform="rotate(-90 300.72,1068.86)" text-anchor="middle">100000</text>
	<line x1="390.80" y1="616.54" x2="350.83" y2="616.54" style="stroke:#000000;stroke-width:5.76"/>
	<text x="300.72" y="616.54" style="font-family:'Helvetica';font-size:99.99px;fill:#000000" transform="rotate(-90 300.72,616.54)" text-anchor="middle">200000</text>
	<line x1="390.80" y1="164.22" x2="350.83" y2="164.22" style="stroke:#000000;stroke-width:5.76"/>
	<text x="300.72" y="164.22" style="font-family:'Helvetica';font-size:99.99px;fill:#000000" transform="rotate(-90 300.72,164.22)" text-anchor="middle">300000</text>
	<text x="190.71" y="1294.96" style="font-family:'Helvetica';font-size:99.99px;fill:#000000" transform="rotate(-90 190.71,1294.96)" text-anchor="middle">Confirmed cases per 100 beds</text>
	<line x1="390.80" y1="2489.19" x2="3859.02" y2="2489.19" style="stroke:#000000;stroke-width:5.76"/>
	<line x1="454.16" y1="2489.19" x2="454.16" y2="2529.16" style="stroke:#000000;stroke-width:5.76"/>
	<text x="454.16" y="2619.14" style="font-family:'Helvetica';font-size:99.99px;fill:#000000" text-anchor="middle">0</text>
	<line x1="613.30" y1="2489.19" x2="613.30" y2="2529.16" style="stroke:#000000;stroke-width:5.76"/>
	<text x="613.30" y="2619.14" style="font-family:'Helvetica';font-size:99.99px;fill:#000000" text-anchor="middle">1</text>
	<line x1="772.32" y1="2489.19" x2="772.32" y2="2529.16" style="stroke:#000000;stroke-width:5.76"/>
	<text x="772.32" y="2619.14" style="font-family:'Helvetica';font-size:99.99px;fill:#000000" text-anchor="middle">2</text>
	<line x1="931.47" y1="2489.19" x2="931.47" y2="2529.16" style="stroke:#000000;stroke-width:5.76"/>
	<text x="931.47" y="2619.14" style="font-family:'Helvetica';font-size:99.99px;fill:#000000" text-anchor="middle">3</text>
	<line x1="1090.61" y1="2489.19" x2="1090.61" y2="2529.16" style="stroke:#000000;stroke-width:5.76"/>
	<text x="1090.61" y="2619.14" style="font-family:'Helvetica';font-size:99.99px;fill:#000000" text-anchor="middle">4</text>
	<line x1="1249.75" y1="2489.19" x2="1249.75" y2="2529.16" style="stroke:#000000;stroke-width:5.76"/>
	<text x="1249.75" y="2619.14" style="font-family:'Helvetica';font-size:99.99px;fill:#000000" text-anchor="middle">5</text>
	<line x1="1408.89" y1="2489.19" x2="1408.89" y2="2529.16" style="stroke:#000000;stroke-width:5.76"/>
	<text x="1408.89" y="2619.14" style="font-family:'Helvetica';font-size:99.99px;fill:#000000" text-anchor="middle">6</text>
	<line x1="1568.04" y1="2489.19" x2="1568.04" y2="2529.16" style="stroke:#000000;stroke-width:5.76"/>
	<text x="1568.04" y="2619.14" style="font-family:'Helvetica';font-size:99.99px;fill:#000000" text-anchor="middle">7</text>
	<line x1="1727.18" y1="2489.19" x2="1727.18" y2="2529.16" style="stroke:#000000;stroke-width:5.76"/>
	<text x="1727.18" y="2619.14" style="font-family:'Helvetica';font-size:99.99px;fill:#000000" text-anchor="middle">8</text>
	<line x1="1886.20" y1="2489.19" x2="1886.20" y2="2529.16" style="stroke:#000000;stroke-width:5.76"/>
	<text x="1886.20" y="2619.14" style="font-family:'Helvetica';font-size:99.99px;fill:#000000" text-anchor="middle">9</text>
	<line x1="2045.34" y1="2489.19" x2="2045.34" y2="2529.16" style="stroke:#000000;stroke-width:5.76"/>
	<text x="2045.34" y="2619.14" style="font-family:'Helvetica';font-size:99.99px;fill:#000000" text-anchor="middle">10</text>
	<line x1="2204.48" y1="2489.19" x2="2204.48" y2="2529.16" style="stroke:#000000;stroke-width:5.76"/>
	<text x="2204.48" y="2619.14" style="font-family:'Helvetica';font-size:99.99px;fill:#000000" text-anchor="middle">11</text>
	<line x1="2363.63" y1="2489.19" x2="2363.63" y2="2529.16" style="stroke:#000000;stroke-width:5.76"/>
	<text x="2363.63" y="2619.14" style="font-family:'Helvetica';font-size:99.99px;fill:#000000" text-anchor="middle">12</text>
	<line x1="2522.77" y1="2489.19" x2="2522.77" y2="2529.16" style="stroke:#000000;stroke-width:5.76"/>
	<text x="2522.77" y="2619.14" style="font-family:'Helvetica';font-size:99.99px;fill:#000000" text-anchor="middle">13</text>
	<line x1="2681.91" y1="2489.19" x2="2681.91" y2="2529.16" style="stroke:#000000;stroke-width:5.76"/>
	<text x="2681.91" y="2619.14" style="font-family:'Helvetica';font-size:99.99px;fill:#000000" text-anchor="middle">14</text>
	<line x1="2840.93" y1="2489.19" x2="2840.93" y2="2529.16" style="stroke:#000000;stroke-width:5.76"/>
	<text x="2840.93" y="2619.14" style="font-family:'Helvetica';font-size:99.99px;fill:#000000" text-anchor="middle">15</text>
	<line x1="3000.07" y1="2489.19" x2="3000.07" y2="2529.16" style="stroke:#000000;stroke-width:5.76"/>
	<text x="3000.07" y="2619.14" style="font-family:'Helvetica';font-size:99.99px;fill:#000000" text-anchor="middle">16</text>
	<line x1="3159.21" y1="2489.19" x2="3159.21" y2="2529.16" style="stroke:#000000;stroke-width:5.76"/>
	<text x="3159.21" y="2619.14" style="font-family:'Helvetica';font-size:99.99px;fill:#000000" text-anchor="middle">17</text>
	<line x1="3318.36" y1="2489.19" x2="3318.36" y2="2529.16" style="stroke:#000000;stroke-width:5.76"/>
	<text x="3318.36" y="2619.14" style="font-family:'Helvetica';font-size:99.99px;fill:#000000" text-anchor="middle">18</text>
	<line x1="3477.50" y1="2489.19" x2="3477.50" y2="2529.16" style="stroke:#000000;stroke-width:5.76"/>
	<text x="3477.50" y="2619.14" style="font-family:'Helvetica';font-size:99.99px;fill:#000000" text-anchor="middle">19</text>
	<line x1="3636.64" y1="2489.19" x2="3636.64" y2="2529.16" style="stroke:#000000;stroke-width:5.76"/>
	<text x="3636.64" y="2619.14" style="font-family:'Helvetica';font-size:99.99px;fill:#000000" text-anchor="middle">20</text>
	<line x1="3795.66" y1="2489.19" x2="3795.66" y2="2529.16" style="stroke:#000000;stroke-width:5.76"/>
	<text x="3795.66" y="2619.14" style="font-family:'Helvetica';font-size:99.99px;fill:#000000" text-anchor="middle">21</text>
	<text x="2124.91" y="2729.16" style="font-family:'Helvetica';font-size:99.99px;fill:#000000" text-anchor="middle">Days since 0.01 confirmed cases per 100 beds</text>
</svg>
