<?xml version="1.0" encoding="UTF-8" standalone="no"?>
<!-- This is a Stata 14.2 generated SVG file (http://www.stata.com) -->

<svg version="1.1" width="5.50in" height="4.00in" viewBox="0 0 3960 2880" xmlns="http://www.w3.org/2000/svg">
	<desc>Stata Graph - Graph</desc>
	<line x1="390.80" y1="2144.04" x2="3859.02" y2="2144.04" style="stroke:#FF0000;stroke-width:8.64"/>
	<path d="M587.81 2425.82 L587.81 2425.82 L721.46 2425.82 L855.11 2425.70 L988.76 2425.45 L1122.41 2425.08 L1256.06 2424.46 L1389.84 2423.35 L1523.49 2421.74 L1657.14 2419.02 L1790.79 2415.06 L1924.44 2409.74 L2058.09 2403.80 L2191.74 2396.99 L2325.39 2388.82 L2459.04 2379.17 L2592.81 2367.66 L2726.46 2354.42 L2860.11 2339.44 L2993.76 2322.86 L3127.41 2305.16 L3261.06 2287.10 L3394.71 2269.65 L3528.36 2254.67 L3662.01 2244.28 L3795.66 2241.55 L3795.66 164.22 L3662.01 720.50 L3528.36 1150.29 L3394.71 1479.72 L3261.06 1730.20 L3127.41 1919.05 L2993.76 2060.13 L2860.11 2164.58 L2726.46 2241.06 L2592.81 2296.62 L2459.04 2336.60 L2325.39 2364.94 L2191.74 2384.74 L2058.09 2398.23 L1924.44 2407.01 L1790.79 2412.21 L1657.14 2415.80 L1523.49 2418.40 L1389.84 2420.38 L1256.06 2421.86 L1122.41 2422.98 L988.76 2423.84 L855.11 2424.46 L721.46 2424.83 L587.81 2425.20 L587.81 2425.82 Z" stroke-linecap="round" style="fill:#EBEBFF;stroke:#E6E6FF;stroke-width:3.00"/>
	<path d="M587.81 2425.70 L587.81 2425.70 L721.46 2425.58 L855.11 2425.33 L988.76 2424.96 L1122.41 2424.46 L1256.06 2423.72 L1389.84 2422.48 L1523.49 2420.75 L1657.14 2418.15 L1790.79 2414.31 L1924.44 2408.99 L2058.09 2402.19 L2191.74 2393.40 L2325.39 2381.89 L2459.04 2366.92 L2592.81 2347.24 L2726.46 2321.75 L2860.11 2288.95 L2993.76 2247.00 L3127.41 2193.78 L3261.06 2126.34 L3394.71 2041.69 L3528.36 1936.01 L3662.01 1804.46 L3795.66 1641.97 L3795.66 763.69 L3662.01 1160.32 L3528.36 1469.08 L3394.71 1707.80 L3261.06 1890.96 L3127.41 2030.55 L2993.76 2135.99 L2860.11 2215.07 L2726.46 2273.85 L2592.81 2317.17 L2459.04 2348.85 L2325.39 2371.74 L2191.74 2388.20 L2058.09 2399.83 L1924.44 2407.76 L1790.79 2413.08 L1657.14 2416.67 L1523.49 2419.39 L1389.84 2421.24 L1256.06 2422.61 L1122.41 2423.60 L988.76 2424.34 L855.11 2424.83 L721.46 2425.08 L587.81 2425.33 L587.81 2425.70 Z" stroke-linecap="round" style="fill:#D6D6FF;stroke:#CCCCFF;stroke-width:3.00"/>
	<path d="M587.81 2425.58 L587.81 2425.58 L721.46 2425.45 L855.11 2425.33 L988.76 2424.96 L1122.41 2424.46 L1256.06 2423.60 L1389.84 2422.36 L1523.49 2420.63 L1657.14 2417.90 L1790.79 2414.07 L1924.44 2408.87 L2058.09 2401.94 L2191.74 2392.90 L2325.39 2380.78 L2459.04 2364.94 L2592.81 2343.90 L2726.46 2316.42 L2860.11 2280.78 L2993.76 2234.75 L3127.41 2175.72 L3261.06 2100.35 L3394.71 2004.81 L3528.36 1884.40 L3662.01 1733.42 L3795.66 1545.07 L3795.66 860.71 L3662.01 1231.47 L3528.36 1520.56 L3394.71 1744.68 L3261.06 1916.95 L3127.41 2048.50 L2993.76 2148.24 L2860.11 2223.24 L2726.46 2279.17 L2592.81 2320.51 L2459.04 2350.83 L2325.39 2372.98 L2191.74 2388.82 L2058.09 2400.08 L1924.44 2407.88 L1790.79 2413.20 L1657.14 2416.91 L1523.49 2419.51 L1389.84 2421.37 L1256.06 2422.73 L1122.41 2423.72 L988.76 2424.34 L855.11 2424.83 L721.46 2425.20 L587.81 2425.45 L587.81 2425.58 Z" stroke-linecap="round" style="fill:#C2C2FF;stroke:#B3B3FF;stroke-width:3.00"/>
	<path d="M587.81 2425.58 L587.81 2425.58 L721.46 2425.45 L855.11 2425.20 L988.76 2424.83 L1122.41 2424.34 L1256.06 2423.47 L1389.84 2422.36 L1523.49 2420.50 L1657.14 2417.90 L1790.79 2414.07 L1924.44 2408.75 L2058.09 2401.69 L2191.74 2392.41 L2325.39 2380.03 L2459.04 2363.58 L2592.81 2341.67 L2726.46 2312.84 L2860.11 2275.34 L2993.76 2226.46 L3127.41 2163.59 L3261.06 2082.78 L3394.71 1979.94 L3528.36 1849.63 L3662.01 1685.40 L3795.66 1479.60 L3795.66 926.17 L3662.01 1279.49 L3528.36 1555.46 L3394.71 1769.56 L3261.06 1934.52 L3127.41 2060.63 L2993.76 2156.53 L2860.11 2228.68 L2726.46 2282.64 L2592.81 2322.74 L2459.04 2352.19 L2325.39 2373.72 L2191.74 2389.19 L2058.09 2400.33 L1924.44 2408.00 L1790.79 2413.32 L1657.14 2416.91 L1523.49 2419.64 L1389.84 2421.49 L1256.06 2422.85 L1122.41 2423.84 L988.76 2424.46 L855.11 2424.96 L721.46 2425.20 L587.81 2425.45 L587.81 2425.58 Z" stroke-linecap="round" style="fill:#ADADFF;stroke:#9999FF;stroke-width:3.00"/>
	<path d="M587.81 2425.58 L587.81 2425.58 L721.46 2425.45 L855.11 2425.20 L988.76 2424.83 L1122.41 2424.34 L1256.06 2423.47 L1389.84 2422.23 L1523.49 2420.38 L1657.14 2417.78 L1790.79 2413.94 L1924.44 2408.62 L2058.09 2401.57 L2191.74 2392.16 L2325.39 2379.42 L2459.04 2362.46 L2592.81 2339.94 L2726.46 2310.11 L2860.11 2270.88 L2993.76 2219.90 L3127.41 2153.94 L3261.06 2068.92 L3394.71 1960.14 L3528.36 1821.90 L3662.01 1647.16 L3795.66 1427.50 L3795.66 978.15 L3662.01 1317.61 L3528.36 1583.06 L3394.71 1789.36 L3261.06 1948.38 L3127.41 2070.40 L2993.76 2163.09 L2860.11 2233.14 L2726.46 2285.49 L2592.81 2324.47 L2459.04 2353.30 L2325.39 2374.22 L2191.74 2389.56 L2058.09 2400.45 L1924.44 2408.13 L1790.79 2413.32 L1657.14 2417.04 L1523.49 2419.76 L1389.84 2421.62 L1256.06 2422.85 L1122.41 2423.84 L988.76 2424.46 L855.11 2424.96 L721.46 2425.20 L587.81 2425.45 L587.81 2425.58 Z" stroke-linecap="round" style="fill:#9999FF;stroke:#8080FF;stroke-width:3.00"/>
	<path d="M587.81 2425.58 L587.81 2425.58 L721.46 2425.45 L855.11 2425.20 L988.76 2424.83 L1122.41 2424.21 L1256.06 2423.35 L1389.84 2422.11 L1523.49 2420.38 L1657.14 2417.66 L1790.79 2413.94 L1924.44 2408.62 L2058.09 2401.44 L2191.74 2391.91 L2325.39 2378.92 L2459.04 2361.60 L2592.81 2338.33 L2726.46 2307.64 L2860.11 2267.17 L2993.76 2214.33 L3127.41 2145.64 L3261.06 2056.91 L3394.71 1943.18 L3528.36 1798.27 L3662.01 1614.49 L3795.66 1382.95 L3795.66 1022.83 L3662.01 1350.28 L3528.36 1606.82 L3394.71 1806.31 L3261.06 1960.39 L3127.41 2078.69 L2993.76 2168.66 L2860.11 2236.85 L2726.46 2287.96 L2592.81 2326.08 L2459.04 2354.17 L2325.39 2374.84 L2191.74 2389.81 L2058.09 2400.58 L1924.44 2408.13 L1790.79 2413.45 L1657.14 2417.16 L1523.49 2419.76 L1389.84 2421.62 L1256.06 2422.98 L1122.41 2423.84 L988.76 2424.46 L855.11 2424.96 L721.46 2425.20 L587.81 2425.45 L587.81 2425.58 Z" stroke-linecap="round" style="fill:#8585FF;stroke:#6666FF;stroke-width:3.00"/>
	<path d="M587.81 2425.58 L587.81 2425.58 L721.46 2425.45 L855.11 2425.20 L988.76 2424.83 L1122.41 2424.21 L1256.06 2423.35 L1389.84 2422.11 L1523.49 2420.25 L1657.14 2417.66 L1790.79 2413.82 L1924.44 2408.50 L2058.09 2401.44 L2191.74 2391.67 L2325.39 2378.55 L2459.04 2360.73 L2592.81 2336.97 L2726.46 2305.41 L2860.11 2263.83 L2993.76 2209.25 L3127.41 2138.10 L3261.06 2046.15 L3394.71 1927.96 L3528.36 1776.98 L3662.01 1585.04 L3795.66 1342.85 L3795.66 1062.92 L3662.01 1379.73 L3528.36 1628.11 L3394.71 1821.53 L3261.06 1971.15 L3127.41 2086.12 L2993.76 2173.74 L2860.11 2240.19 L2726.46 2290.19 L2592.81 2327.44 L2459.04 2355.04 L2325.39 2375.21 L2191.74 2390.06 L2058.09 2400.70 L1924.44 2408.25 L1790.79 2413.45 L1657.14 2417.16 L1523.49 2419.88 L1389.84 2421.74 L1256.06 2422.98 L1122.41 2423.97 L988.76 2424.59 L855.11 2424.96 L721.46 2425.33 L587.81 2425.45 L587.81 2425.58 Z" stroke-linecap="round" style="fill:#7171FF;stroke:#4D4DFF;stroke-width:3.00"/>
	<path d="M587.81 2425.58 L587.81 2425.58 L721.46 2425.33 L855.11 2425.08 L988.76 2424.71 L1122.41 2424.21 L1256.06 2423.35 L1389.84 2422.11 L1523.49 2420.25 L1657.14 2417.53 L1790.79 2413.82 L1924.44 2408.50 L2058.09 2401.32 L2191.74 2391.42 L2325.39 2378.05 L2459.04 2359.99 L2592.81 2335.73 L2726.46 2303.43 L2860.11 2260.61 L2993.76 2204.55 L3127.41 2131.29 L3261.06 2036.25 L3394.71 1913.85 L3528.36 1757.18 L3662.01 1557.81 L3795.66 1305.73 L3795.66 1100.05 L3662.01 1406.96 L3528.36 1647.78 L3394.71 1835.64 L3261.06 1981.05 L3127.41 2093.05 L2993.76 2178.44 L2860.11 2243.29 L2726.46 2292.17 L2592.81 2328.68 L2459.04 2355.78 L2325.39 2375.70 L2191.74 2390.18 L2058.09 2400.70 L1924.44 2408.25 L1790.79 2413.57 L1657.14 2417.28 L1523.49 2419.88 L1389.84 2421.74 L1256.06 2423.10 L1122.41 2423.97 L988.76 2424.59 L855.11 2424.96 L721.46 2425.33 L587.81 2425.45 L587.81 2425.58 Z" stroke-linecap="round" style="fill:#5C5CFF;stroke:#3333FF;stroke-width:3.00"/>
	<path d="M587.81 2425.58 L587.81 2425.58 L721.46 2425.33 L855.11 2425.08 L988.76 2424.71 L1122.41 2424.09 L1256.06 2423.22 L1389.84 2421.99 L1523.49 2420.13 L1657.14 2417.53 L1790.79 2413.70 L1924.44 2408.50 L2058.09 2401.20 L2191.74 2391.30 L2325.39 2377.68 L2459.04 2359.24 L2592.81 2334.49 L2726.46 2301.45 L2860.11 2257.64 L2993.76 2200.10 L3127.41 2124.73 L3261.06 2026.84 L3394.71 1900.49 L3528.36 1738.49 L3662.01 1532.07 L3795.66 1270.46 L3795.66 1135.19 L3662.01 1432.82 L3528.36 1666.59 L3394.71 1849.01 L3261.06 1990.58 L3127.41 2099.48 L2993.76 2182.89 L2860.11 2246.26 L2726.46 2294.15 L2592.81 2329.91 L2459.04 2356.52 L2325.39 2376.07 L2191.74 2390.43 L2058.09 2400.83 L1924.44 2408.25 L1790.79 2413.57 L1657.14 2417.28 L1523.49 2420.01 L1389.84 2421.86 L1256.06 2423.10 L1122.41 2423.97 L988.76 2424.59 L855.11 2425.08 L721.46 2425.33 L587.81 2425.45 L587.81 2425.58 Z" stroke-linecap="round" style="fill:#4747FF;stroke:#1919FF;stroke-width:3.00"/>
	<path d="M587.81 2425.58 L587.81 2425.58 L721.46 2425.33 L855.11 2425.08 L988.76 2424.71 L1122.41 2424.09 L1256.06 2423.22 L1389.84 2421.99 L1523.49 2420.13 L1657.14 2417.41 L1790.79 2413.70 L1924.44 2408.37 L2058.09 2401.07 L2191.74 2391.05 L2325.39 2377.31 L2459.04 2358.50 L2592.81 2333.38 L2726.46 2299.59 L2860.11 2254.80 L2993.76 2195.76 L3127.41 2118.29 L3261.06 2017.68 L3394.71 1887.49 L3528.36 1720.30 L3662.01 1506.95 L3795.66 1236.42 L3795.66 1169.35 L3662.01 1457.82 L3528.36 1684.66 L3394.71 1862.00 L3261.06 1999.61 L3127.41 2105.92 L2993.76 2187.23 L2860.11 2249.23 L2726.46 2296.01 L2592.81 2331.03 L2459.04 2357.14 L2325.39 2376.45 L2191.74 2390.68 L2058.09 2400.95 L1924.44 2408.37 L1790.79 2413.57 L1657.14 2417.41 L1523.49 2420.01 L1389.84 2421.86 L1256.06 2423.10 L1122.41 2424.09 L988.76 2424.59 L855.11 2425.08 L721.46 2425.33 L587.81 2425.45 L587.81 2425.58 Z" stroke-linecap="round" style="fill:#3333FF;stroke:#0000FF;stroke-width:3.00"/>
	<circle cx="587.69" cy="2425.45" r="22.03" style="fill:#000000;stroke:#000000;stroke-width:8.64"/>
	<circle cx="721.46" cy="2425.45" r="22.03" style="fill:#000000;stroke:#000000;stroke-width:8.64"/>
	<circle cx="855.11" cy="2425.33" r="22.03" style="fill:#000000;stroke:#000000;stroke-width:8.64"/>
	<circle cx="988.76" cy="2424.83" r="22.03" style="fill:#000000;stroke:#000000;stroke-width:8.64"/>
	<circle cx="1122.41" cy="2424.09" r="22.03" style="fill:#000000;stroke:#000000;stroke-width:8.64"/>
	<circle cx="1256.06" cy="2423.10" r="22.03" style="fill:#000000;stroke:#000000;stroke-width:8.64"/>
	<circle cx="1389.71" cy="2421.74" r="22.03" style="fill:#000000;stroke:#000000;stroke-width:8.64"/>
	<circle cx="1523.36" cy="2418.89" r="22.03" style="fill:#000000;stroke:#000000;stroke-width:8.64"/>
	<circle cx="1657.01" cy="2418.89" r="22.03" style="fill:#000000;stroke:#000000;stroke-width:8.64"/>
	<circle cx="1790.66" cy="2413.94" r="22.03" style="fill:#000000;stroke:#000000;stroke-width:8.64"/>
	<circle cx="1924.31" cy="2408.13" r="22.03" style="fill:#000000;stroke:#000000;stroke-width:8.64"/>
	<line x1="390.80" y1="2489.19" x2="390.80" y2="100.86" style="stroke:#000000;stroke-width:5.76"/>
	<line x1="390.80" y1="2425.82" x2="350.83" y2="2425.82" style="stroke:#000000;stroke-width:5.76"/>
	<text x="300.72" y="2425.82" style="font-family:'Helvetica';font-size:99.99px;fill:#000000" transform="rotate(-90 300.72,2425.82)" text-anchor="middle">0</text>
	<line x1="390.80" y1="1862.25" x2="350.83" y2="1862.25" style="stroke:#000000;stroke-width:5.76"/>
	<text x="300.72" y="1862.25" style="font-family:'Helvetica';font-size:99.99px;fill:#000000" transform="rotate(-90 300.72,1862.25)" text-anchor="middle">20</text>
	<line x1="390.80" y1="1298.55" x2="350.83" y2="1298.55" style="stroke:#000000;stroke-width:5.76"/>
	<text x="300.72" y="1298.55" style="font-family:'Helvetica';font-size:99.99px;fill:#000000" transform="rotate(-90 300.72,1298.55)" text-anchor="middle">40</text>
	<line x1="390.80" y1="734.97" x2="350.83" y2="734.97" style="stroke:#000000;stroke-width:5.76"/>
	<text x="300.72" y="734.97" style="font-family:'Helvetica';font-size:99.99px;fill:#000000" transform="rotate(-90 300.72,734.97)" text-anchor="middle">60</text>
	<line x1="390.80" y1="171.28" x2="350.83" y2="171.28" style="stroke:#000000;stroke-width:5.76"/>
	<text x="300.72" y="171.28" style="font-family:'Helvetica';font-size:99.99px;fill:#000000" transform="rotate(-90 300.72,171.28)" text-anchor="middle">80</text>
	<text x="190.71" y="1294.96" style="font-family:'Helvetica';font-size:99.99px;fill:#000000" transform="rotate(-90 190.71,1294.96)" text-anchor="middle">Confirmed cases per 100 beds</text>
	<line x1="390.80" y1="2489.19" x2="3859.02" y2="2489.19" style="stroke:#000000;stroke-width:5.76"/>
	<line x1="454.16" y1="2489.19" x2="454.16" y2="2529.16" style="stroke:#000000;stroke-width:5.76"/>
	<text x="454.16" y="2619.14" style="font-family:'Helvetica';font-size:99.99px;fill:#000000" text-anchor="middle">0</text>
	<line x1="1122.41" y1="2489.19" x2="1122.41" y2="2529.16" style="stroke:#000000;stroke-width:5.76"/>
	<text x="1122.41" y="2619.14" style="font-family:'Helvetica';font-size:99.99px;fill:#000000" text-anchor="middle">5</text>
	<line x1="1790.79" y1="2489.19" x2="1790.79" y2="2529.16" style="stroke:#000000;stroke-width:5.76"/>
	<text x="1790.79" y="2619.14" style="font-family:'Helvetica';font-size:99.99px;fill:#000000" text-anchor="middle">10</text>
	<line x1="2459.04" y1="2489.19" x2="2459.04" y2="2529.16" style="stroke:#000000;stroke-width:5.76"/>
	<text x="2459.04" y="2619.14" style="font-family:'Helvetica';font-size:99.99px;fill:#000000" text-anchor="middle">15</text>
	<line x1="3127.41" y1="2489.19" x2="3127.41" y2="2529.16" style="stroke:#000000;stroke-width:5.76"/>
	<text x="3127.41" y="2619.14" style="font-family:'Helvetica';font-size:99.99px;fill:#000000" text-anchor="middle">20</text>
	<line x1="3795.66" y1="2489.19" x2="3795.66" y2="2529.16" style="stroke:#000000;stroke-width:5.76"/>
	<text x="3795.66" y="2619.14" style="font-family:'Helvetica';font-size:99.99px;fill:#000000" text-anchor="middle">25</text>
	<text x="2124.91" y="2729.16" style="font-family:'Helvetica';font-size:99.99px;fill:#000000" text-anchor="middle">Days since 0.01 confirmed cases per 100 beds</text>
</svg>
