<?xml version="1.0" encoding="UTF-8" standalone="no"?>
<!-- This is a Stata 14.2 generated SVG file (http://www.stata.com) -->

<svg version="1.1" width="5.50in" height="4.00in" viewBox="0 0 3960 2880" xmlns="http://www.w3.org/2000/svg">
	<desc>Stata Graph - Graph</desc>
	<line x1="390.80" y1="1530.96" x2="3859.02" y2="1530.96" style="stroke:#FF0000;stroke-width:8.64"/>
	<path d="M621.23 1539.75 L621.23 1539.75 L788.29 1539.75 L955.35 1539.75 L1122.41 1539.75 L1289.47 1539.62 L1456.66 1539.50 L1623.72 1539.37 L1790.79 1539.37 L1957.85 1539.75 L2124.91 1540.86 L2291.97 1543.21 L2459.04 1548.16 L2626.22 1557.32 L2793.28 1573.41 L2960.35 1600.51 L3127.41 1644.07 L3294.47 1712.01 L3461.53 1814.73 L3628.60 1965.83 L3795.66 2182.52 L3795.66 164.22 L3628.60 605.03 L3461.53 917.51 L3294.47 1134.58 L3127.41 1281.97 L2960.35 1379.86 L2793.28 1443.22 L2626.22 1483.07 L2459.04 1507.57 L2291.97 1522.17 L2124.91 1530.46 L1957.85 1535.17 L1790.79 1537.52 L1623.72 1538.76 L1456.66 1539.37 L1289.47 1539.50 L1122.41 1539.62 L955.35 1539.75 L788.29 1539.75 L621.23 1539.75 L621.23 1539.75 Z" stroke-linecap="round" style="fill:#EBEBFF;stroke:#E6E6FF;stroke-width:3.00"/>
	<path d="M621.23 1539.75 L621.23 1539.75 L788.29 1539.75 L955.35 1539.75 L1122.41 1539.75 L1289.47 1539.62 L1456.66 1539.50 L1623.72 1539.25 L1790.79 1538.88 L1957.85 1538.38 L2124.91 1537.89 L2291.97 1537.15 L2459.04 1536.53 L2626.22 1535.91 L2793.28 1535.79 L2960.35 1536.78 L3127.41 1539.50 L3294.47 1545.31 L3461.53 1555.83 L3628.60 1573.16 L3795.66 1600.01 L3795.66 746.73 L3628.60 997.83 L3461.53 1176.53 L3294.47 1301.15 L3127.41 1386.41 L2960.35 1443.47 L2793.28 1480.72 L2626.22 1504.60 L2459.04 1519.33 L2291.97 1528.24 L2124.91 1533.56 L1957.85 1536.53 L1790.79 1538.14 L1623.72 1539.00 L1456.66 1539.37 L1289.47 1539.62 L1122.41 1539.62 L955.35 1539.75 L788.29 1539.75 L621.23 1539.75 L621.23 1539.75 Z" stroke-linecap="round" style="fill:#D6D6FF;stroke:#CCCCFF;stroke-width:3.00"/>
	<path d="M621.23 1539.75 L621.23 1539.75 L788.29 1539.75 L955.35 1539.75 L1122.41 1539.75 L1289.47 1539.62 L1456.66 1539.50 L1623.72 1539.25 L1790.79 1538.76 L1957.85 1538.26 L2124.91 1537.39 L2291.97 1536.16 L2459.04 1534.55 L2626.22 1532.44 L2793.28 1529.72 L2960.35 1526.50 L3127.41 1522.67 L3294.47 1518.34 L3461.53 1513.88 L3628.60 1509.55 L3795.66 1505.84 L3795.66 840.91 L3628.60 1061.31 L3461.53 1218.36 L3294.47 1328.13 L3127.41 1403.37 L2960.35 1453.74 L2793.28 1486.78 L2626.22 1507.94 L2459.04 1521.18 L2291.97 1529.23 L2124.91 1533.93 L1957.85 1536.65 L1790.79 1538.14 L1623.72 1539.00 L1456.66 1539.37 L1289.47 1539.62 L1122.41 1539.62 L955.35 1539.75 L788.29 1539.75 L621.23 1539.75 L621.23 1539.75 Z" stroke-linecap="round" style="fill:#C2C2FF;stroke:#B3B3FF;stroke-width:3.00"/>
	<path d="M621.23 1539.75 L621.23 1539.75 L788.29 1539.75 L955.35 1539.75 L1122.41 1539.75 L1289.47 1539.62 L1456.66 1539.50 L1623.72 1539.13 L1790.79 1538.76 L1957.85 1538.14 L2124.91 1537.02 L2291.97 1535.54 L2459.04 1533.31 L2626.22 1530.09 L2793.28 1525.64 L2960.35 1519.57 L3127.41 1511.28 L3294.47 1500.14 L3461.53 1485.67 L3628.60 1466.73 L3795.66 1442.23 L3795.66 904.52 L3628.60 1104.26 L3461.53 1246.70 L3294.47 1346.32 L3127.41 1414.75 L2960.35 1460.79 L2793.28 1490.99 L2626.22 1510.29 L2459.04 1522.54 L2291.97 1529.85 L2124.91 1534.30 L1957.85 1536.90 L1790.79 1538.26 L1623.72 1539.00 L1456.66 1539.37 L1289.47 1539.62 L1122.41 1539.62 L955.35 1539.75 L788.29 1539.75 L621.23 1539.75 L621.23 1539.75 Z" stroke-linecap="round" style="fill:#ADADFF;stroke:#9999FF;stroke-width:3.00"/>
	<path d="M621.23 1539.75 L621.23 1539.75 L788.29 1539.75 L955.35 1539.75 L1122.41 1539.75 L1289.47 1539.62 L1456.66 1539.50 L1623.72 1539.13 L1790.79 1538.76 L1957.85 1538.01 L2124.91 1536.78 L2291.97 1535.04 L2459.04 1532.32 L2626.22 1528.24 L2793.28 1522.42 L2960.35 1514.00 L3127.41 1502.12 L3294.47 1485.67 L3461.53 1463.14 L3628.60 1432.70 L3795.66 1391.74 L3795.66 955.01 L3628.60 1138.29 L3461.53 1269.10 L3294.47 1360.80 L3127.41 1423.79 L2960.35 1466.24 L2793.28 1494.20 L2626.22 1512.15 L2459.04 1523.53 L2291.97 1530.46 L2124.91 1534.55 L1957.85 1536.90 L1790.79 1538.26 L1623.72 1539.00 L1456.66 1539.37 L1289.47 1539.62 L1122.41 1539.62 L955.35 1539.75 L788.29 1539.75 L621.23 1539.75 L621.23 1539.75 Z" stroke-linecap="round" style="fill:#9999FF;stroke:#8080FF;stroke-width:3.00"/>
	<path d="M621.23 1539.75 L621.23 1539.75 L788.29 1539.75 L955.35 1539.75 L1122.41 1539.75 L1289.47 1539.62 L1456.66 1539.37 L1623.72 1539.13 L1790.79 1538.63 L1957.85 1537.89 L2124.91 1536.53 L2291.97 1534.55 L2459.04 1531.45 L2626.22 1526.63 L2793.28 1519.57 L2960.35 1509.30 L3127.41 1494.33 L3294.47 1473.29 L3461.53 1443.96 L3628.60 1403.37 L3795.66 1348.30 L3795.66 998.45 L3628.60 1167.49 L3461.53 1288.40 L3294.47 1373.17 L3127.41 1431.58 L2960.35 1470.94 L2793.28 1497.05 L2626.22 1513.76 L2459.04 1524.40 L2291.97 1530.84 L2124.91 1534.80 L1957.85 1537.02 L1790.79 1538.38 L1623.72 1539.00 L1456.66 1539.37 L1289.47 1539.62 L1122.41 1539.62 L955.35 1539.75 L788.29 1539.75 L621.23 1539.75 L621.23 1539.75 Z" stroke-linecap="round" style="fill:#8585FF;stroke:#6666FF;stroke-width:3.00"/>
	<path d="M621.23 1539.75 L621.23 1539.75 L788.29 1539.75 L955.35 1539.75 L1122.41 1539.75 L1289.47 1539.62 L1456.66 1539.37 L1623.72 1539.13 L1790.79 1538.63 L1957.85 1537.77 L2124.91 1536.40 L2291.97 1534.18 L2459.04 1530.59 L2626.22 1525.27 L2793.28 1517.10 L2960.35 1504.97 L3127.41 1487.40 L3294.47 1462.15 L3461.53 1426.63 L3628.60 1377.13 L3795.66 1309.44 L3795.66 1037.30 L3628.60 1193.73 L3461.53 1305.73 L3294.47 1384.31 L3127.41 1438.64 L2960.35 1475.27 L2793.28 1499.53 L2626.22 1515.24 L2459.04 1525.14 L2291.97 1531.33 L2124.91 1535.04 L1957.85 1537.15 L1790.79 1538.38 L1623.72 1539.00 L1456.66 1539.37 L1289.47 1539.62 L1122.41 1539.75 L955.35 1539.75 L788.29 1539.75 L621.23 1539.75 L621.23 1539.75 Z" stroke-linecap="round" style="fill:#7171FF;stroke:#4D4DFF;stroke-width:3.00"/>
	<path d="M621.23 1539.75 L621.23 1539.75 L788.29 1539.75 L955.35 1539.75 L1122.41 1539.75 L1289.47 1539.62 L1456.66 1539.37 L1623.72 1539.13 L1790.79 1538.63 L1957.85 1537.64 L2124.91 1536.16 L2291.97 1533.81 L2459.04 1529.85 L2626.22 1523.91 L2793.28 1514.75 L2960.35 1501.01 L3127.41 1480.96 L3294.47 1451.88 L3461.53 1410.55 L3628.60 1352.88 L3795.66 1273.30 L3795.66 1073.44 L3628.60 1218.11 L3461.53 1321.69 L3294.47 1394.71 L3127.41 1445.07 L2960.35 1479.23 L2793.28 1501.88 L2626.22 1516.60 L2459.04 1525.89 L2291.97 1531.70 L2124.91 1535.17 L1957.85 1537.27 L1790.79 1538.38 L1623.72 1539.13 L1456.66 1539.37 L1289.47 1539.62 L1122.41 1539.75 L955.35 1539.75 L788.29 1539.75 L621.23 1539.75 L621.23 1539.75 Z" stroke-linecap="round" style="fill:#5C5CFF;stroke:#3333FF;stroke-width:3.00"/>
	<path d="M621.23 1539.75 L621.23 1539.75 L788.29 1539.75 L955.35 1539.75 L1122.41 1539.75 L1289.47 1539.62 L1456.66 1539.37 L1623.72 1539.13 L1790.79 1538.51 L1957.85 1537.64 L2124.91 1536.03 L2291.97 1533.43 L2459.04 1529.23 L2626.22 1522.67 L2793.28 1512.52 L2960.35 1497.30 L3127.41 1474.77 L3294.47 1442.10 L3461.53 1395.32 L3628.60 1329.74 L3795.66 1239.15 L3795.66 1107.60 L3628.60 1241.13 L3461.53 1336.91 L3294.47 1404.48 L3127.41 1451.26 L2960.35 1482.94 L2793.28 1504.10 L2626.22 1517.84 L2459.04 1526.63 L2291.97 1532.07 L2124.91 1535.29 L1957.85 1537.27 L1790.79 1538.38 L1623.72 1539.13 L1456.66 1539.37 L1289.47 1539.62 L1122.41 1539.75 L955.35 1539.75 L788.29 1539.75 L621.23 1539.75 L621.23 1539.75 Z" stroke-linecap="round" style="fill:#4747FF;stroke:#1919FF;stroke-width:3.00"/>
	<path d="M621.23 1539.75 L621.23 1539.75 L788.29 1539.75 L955.35 1539.75 L1122.41 1539.75 L1289.47 1539.62 L1456.66 1539.37 L1623.72 1539.13 L1790.79 1538.51 L1957.85 1537.52 L2124.91 1535.91 L2291.97 1533.06 L2459.04 1528.61 L2626.22 1521.43 L2793.28 1510.42 L2960.35 1493.71 L3127.41 1468.83 L3294.47 1432.57 L3461.53 1380.60 L3628.60 1307.46 L3795.66 1205.98 L3795.66 1140.76 L3628.60 1263.53 L3461.53 1351.64 L3294.47 1413.89 L3127.41 1457.20 L2960.35 1486.53 L2793.28 1506.21 L2626.22 1519.08 L2459.04 1527.25 L2291.97 1532.32 L2124.91 1535.54 L1957.85 1537.39 L1790.79 1538.51 L1623.72 1539.13 L1456.66 1539.37 L1289.47 1539.62 L1122.41 1539.75 L955.35 1539.75 L788.29 1539.75 L621.23 1539.75 L621.23 1539.75 Z" stroke-linecap="round" style="fill:#3333FF;stroke:#0000FF;stroke-width:3.00"/>
	<circle cx="621.10" cy="1539.87" r="22.03" style="fill:#000000;stroke:#000000;stroke-width:8.64"/>
	<circle cx="788.29" cy="1539.75" r="22.03" style="fill:#000000;stroke:#000000;stroke-width:8.64"/>
	<circle cx="955.35" cy="1539.75" r="22.03" style="fill:#000000;stroke:#000000;stroke-width:8.64"/>
	<circle cx="1122.41" cy="1539.75" r="22.03" style="fill:#000000;stroke:#000000;stroke-width:8.64"/>
	<circle cx="1289.47" cy="1539.75" r="22.03" style="fill:#000000;stroke:#000000;stroke-width:8.64"/>
	<circle cx="1456.54" cy="1539.50" r="22.03" style="fill:#000000;stroke:#000000;stroke-width:8.64"/>
	<line x1="390.80" y1="2489.19" x2="390.80" y2="100.86" style="stroke:#000000;stroke-width:5.76"/>
	<line x1="390.80" y1="2425.82" x2="350.83" y2="2425.82" style="stroke:#000000;stroke-width:5.76"/>
	<text x="300.72" y="2425.82" style="font-family:'Helvetica';font-size:99.99px;fill:#000000" transform="rotate(-90 300.72,2425.82)" text-anchor="middle">-1000</text>
	<line x1="390.80" y1="1982.78" x2="350.83" y2="1982.78" style="stroke:#000000;stroke-width:5.76"/>
	<text x="300.72" y="1982.78" style="font-family:'Helvetica';font-size:99.99px;fill:#000000" transform="rotate(-90 300.72,1982.78)" text-anchor="middle">-500</text>
	<line x1="390.80" y1="1539.75" x2="350.83" y2="1539.75" style="stroke:#000000;stroke-width:5.76"/>
	<text x="300.72" y="1539.75" style="font-family:'Helvetica';font-size:99.99px;fill:#000000" transform="rotate(-90 300.72,1539.75)" text-anchor="middle">0</text>
	<line x1="390.80" y1="1096.71" x2="350.83" y2="1096.71" style="stroke:#000000;stroke-width:5.76"/>
	<text x="300.72" y="1096.71" style="font-family:'Helvetica';font-size:99.99px;fill:#000000" transform="rotate(-90 300.72,1096.71)" text-anchor="middle">500</text>
	<line x1="390.80" y1="653.67" x2="350.83" y2="653.67" style="stroke:#000000;stroke-width:5.76"/>
	<text x="300.72" y="653.67" style="font-family:'Helvetica';font-size:99.99px;fill:#000000" transform="rotate(-90 300.72,653.67)" text-anchor="middle">1000</text>
	<line x1="390.80" y1="210.63" x2="350.83" y2="210.63" style="stroke:#000000;stroke-width:5.76"/>
	<text x="300.72" y="210.63" style="font-family:'Helvetica';font-size:99.99px;fill:#000000" transform="rotate(-90 300.72,210.63)" text-anchor="middle">1500</text>
	<text x="190.71" y="1294.96" style="font-family:'Helvetica';font-size:99.99px;fill:#000000" transform="rotate(-90 190.71,1294.96)" text-anchor="middle">Confirmed cases per 100 beds</text>
	<line x1="390.80" y1="2489.19" x2="3859.02" y2="2489.19" style="stroke:#000000;stroke-width:5.76"/>
	<line x1="454.16" y1="2489.19" x2="454.16" y2="2529.16" style="stroke:#000000;stroke-width:5.76"/>
	<text x="454.16" y="2619.14" style="font-family:'Helvetica';font-size:99.99px;fill:#000000" text-anchor="middle">0</text>
	<line x1="621.23" y1="2489.19" x2="621.23" y2="2529.16" style="stroke:#000000;stroke-width:5.76"/>
	<text x="621.23" y="2619.14" style="font-family:'Helvetica';font-size:99.99px;fill:#000000" text-anchor="middle">1</text>
	<line x1="788.29" y1="2489.19" x2="788.29" y2="2529.16" style="stroke:#000000;stroke-width:5.76"/>
	<text x="788.29" y="2619.14" style="font-family:'Helvetica';font-size:99.99px;fill:#000000" text-anchor="middle">2</text>
	<line x1="955.35" y1="2489.19" x2="955.35" y2="2529.16" style="stroke:#000000;stroke-width:5.76"/>
	<text x="955.35" y="2619.14" style="font-family:'Helvetica';font-size:99.99px;fill:#000000" text-anchor="middle">3</text>
	<line x1="1122.41" y1="2489.19" x2="1122.41" y2="2529.16" style="stroke:#000000;stroke-width:5.76"/>
	<text x="1122.41" y="2619.14" style="font-family:'Helvetica';font-size:99.99px;fill:#000000" text-anchor="middle">4</text>
	<line x1="1289.47" y1="2489.19" x2="1289.47" y2="2529.16" style="stroke:#000000;stroke-width:5.76"/>
	<text x="1289.47" y="2619.14" style="font-family:'Helvetica';font-size:99.99px;fill:#000000" text-anchor="middle">5</text>
	<line x1="1456.66" y1="2489.19" x2="1456.66" y2="2529.16" style="stroke:#000000;stroke-width:5.76"/>
	<text x="1456.66" y="2619.14" style="font-family:'Helvetica';font-size:99.99px;fill:#000000" text-anchor="middle">6</text>
	<line x1="1623.72" y1="2489.19" x2="1623.72" y2="2529.16" style="stroke:#000000;stroke-width:5.76"/>
	<text x="1623.72" y="2619.14" style="font-family:'Helvetica';font-size:99.99px;fill:#000000" text-anchor="middle">7</text>
	<line x1="1790.79" y1="2489.19" x2="1790.79" y2="2529.16" style="stroke:#000000;stroke-width:5.76"/>
	<text x="1790.79" y="2619.14" style="font-family:'Helvetica';font-size:99.99px;fill:#000000" text-anchor="middle">8</text>
	<line x1="1957.85" y1="2489.19" x2="1957.85" y2="2529.16" style="stroke:#000000;stroke-width:5.76"/>
	<text x="1957.85" y="2619.14" style="font-family:'Helvetica';font-size:99.99px;fill:#000000" text-anchor="middle">9</text>
	<line x1="2124.91" y1="2489.19" x2="2124.91" y2="2529.16" style="stroke:#000000;stroke-width:5.76"/>
	<text x="2124.91" y="2619.14" style="font-family:'Helvetica';font-size:99.99px;fill:#000000" text-anchor="middle">10</text>
	<line x1="2291.97" y1="2489.19" x2="2291.97" y2="2529.16" style="stroke:#000000;stroke-width:5.76"/>
	<text x="2291.97" y="2619.14" style="font-family:'Helvetica';font-size:99.99px;fill:#000000" text-anchor="middle">11</text>
	<line x1="2459.04" y1="2489.19" x2="2459.04" y2="2529.16" style="stroke:#000000;stroke-width:5.76"/>
	<text x="2459.04" y="2619.14" style="font-family:'Helvetica';font-size:99.99px;fill:#000000" text-anchor="middle">12</text>
	<line x1="2626.22" y1="2489.19" x2="2626.22" y2="2529.16" style="stroke:#000000;stroke-width:5.76"/>
	<text x="2626.22" y="2619.14" style="font-family:'Helvetica';font-size:99.99px;fill:#000000" text-anchor="middle">13</text>
	<line x1="2793.28" y1="2489.19" x2="2793.28" y2="2529.16" style="stroke:#000000;stroke-width:5.76"/>
	<text x="2793.28" y="2619.14" style="font-family:'Helvetica';font-size:99.99px;fill:#000000" text-anchor="middle">14</text>
	<line x1="2960.35" y1="2489.19" x2="2960.35" y2="2529.16" style="stroke:#000000;stroke-width:5.76"/>
	<text x="2960.35" y="2619.14" style="font-family:'Helvetica';font-size:99.99px;fill:#000000" text-anchor="middle">15</text>
	<line x1="3127.41" y1="2489.19" x2="3127.41" y2="2529.16" style="stroke:#000000;stroke-width:5.76"/>
	<text x="3127.41" y="2619.14" style="font-family:'Helvetica';font-size:99.99px;fill:#000000" text-anchor="middle">16</text>
	<line x1="3294.47" y1="2489.19" x2="3294.47" y2="2529.16" style="stroke:#000000;stroke-width:5.76"/>
	<text x="3294.47" y="2619.14" style="font-family:'Helvetica';font-size:99.99px;fill:#000000" text-anchor="middle">17</text>
	<line x1="3461.53" y1="2489.19" x2="3461.53" y2="2529.16" style="stroke:#000000;stroke-width:5.76"/>
	<text x="3461.53" y="2619.14" style="font-family:'Helvetica';font-size:99.99px;fill:#000000" text-anchor="middle">18</text>
	<line x1="3628.60" y1="2489.19" x2="3628.60" y2="2529.16" style="stroke:#000000;stroke-width:5.76"/>
	<text x="3628.60" y="2619.14" style="font-family:'Helvetica';font-size:99.99px;fill:#000000" text-anchor="middle">19</text>
	<line x1="3795.66" y1="2489.19" x2="3795.66" y2="2529.16" style="stroke:#000000;stroke-width:5.76"/>
	<text x="3795.66" y="2619.14" style="font-family:'Helvetica';font-size:99.99px;fill:#000000" text-anchor="middle">20</text>
	<text x="2124.91" y="2729.16" style="font-family:'Helvetica';font-size:99.99px;fill:#000000" text-anchor="middle">Days since 0.01 confirmed cases per 100 beds</text>
</svg>
