<?xml version="1.0" encoding="UTF-8" standalone="no"?>
<!-- This is a Stata 14.2 generated SVG file (http://www.stata.com) -->

<svg version="1.1" width="5.50in" height="4.00in" viewBox="0 0 3960 2880" xmlns="http://www.w3.org/2000/svg">
	<desc>Stata Graph - Graph</desc>
	<line x1="390.80" y1="729.53" x2="3859.02" y2="729.53" style="stroke:#FF0000;stroke-width:8.64"/>
	<path d="M621.23 1855.19 L621.23 1855.19 L788.29 1851.73 L955.35 1847.52 L1122.41 1843.19 L1289.47 1839.85 L1456.66 1838.12 L1623.72 1837.99 L1790.79 1839.48 L1957.85 1842.82 L2124.91 1848.64 L2291.97 1857.42 L2459.04 1870.04 L2626.22 1887.62 L2793.28 1911.25 L2960.35 1942.32 L3127.41 1982.66 L3294.47 2034.27 L3461.53 2099.36 L3628.60 2180.91 L3795.66 2281.90 L3795.66 537.83 L3628.60 776.80 L3461.53 976.67 L3294.47 1143.11 L3127.41 1281.10 L2960.35 1395.08 L2793.28 1488.76 L2626.22 1565.49 L2459.04 1627.86 L2291.97 1678.23 L2124.91 1718.94 L1957.85 1751.36 L1790.79 1776.98 L1623.72 1797.03 L1456.66 1812.38 L1289.47 1823.64 L1122.41 1830.94 L955.35 1835.27 L788.29 1838.24 L621.23 1840.84 L621.23 1855.19 Z" stroke-linecap="round" style="fill:#EBEBFF;stroke:#E6E6FF;stroke-width:3.00"/>
	<path d="M621.23 1850.99 L621.23 1850.99 L788.29 1847.89 L955.35 1844.06 L1122.41 1839.60 L1289.47 1835.15 L1456.66 1830.69 L1623.72 1826.24 L1790.79 1821.41 L1957.85 1816.46 L2124.91 1811.14 L2291.97 1805.69 L2459.04 1800.12 L2626.22 1794.68 L2793.28 1789.36 L2960.35 1784.41 L3127.41 1780.20 L3294.47 1777.11 L3461.53 1775.37 L3628.60 1775.62 L3795.66 1778.59 L3795.66 1041.27 L3628.60 1182.10 L3461.53 1300.65 L3294.47 1400.28 L3127.41 1483.56 L2960.35 1552.99 L2793.28 1610.66 L2626.22 1658.43 L2459.04 1697.78 L2291.97 1729.96 L2124.91 1756.31 L1957.85 1777.72 L1790.79 1795.05 L1623.72 1808.91 L1456.66 1819.80 L1289.47 1828.34 L1122.41 1834.40 L955.35 1838.86 L788.29 1842.20 L621.23 1844.92 L621.23 1850.99 Z" stroke-linecap="round" style="fill:#D6D6FF;stroke:#CCCCFF;stroke-width:3.00"/>
	<path d="M621.23 1850.37 L621.23 1850.37 L788.29 1847.27 L955.35 1843.44 L1122.41 1839.11 L1289.47 1834.40 L1456.66 1829.58 L1623.72 1824.26 L1790.79 1818.56 L1957.85 1812.13 L2124.91 1805.07 L2291.97 1797.28 L2459.04 1788.86 L2626.22 1779.58 L2793.28 1769.56 L2960.35 1758.91 L3127.41 1747.40 L3294.47 1735.40 L3461.53 1722.90 L3628.60 1710.15 L3795.66 1697.16 L3795.66 1122.70 L3628.60 1247.56 L3461.53 1353.12 L3294.47 1441.86 L3127.41 1516.36 L2960.35 1578.60 L2793.28 1630.46 L2626.22 1673.40 L2459.04 1709.04 L2291.97 1738.37 L2124.91 1762.38 L1957.85 1782.06 L1790.79 1797.90 L1623.72 1810.77 L1456.66 1821.04 L1289.47 1829.08 L1122.41 1835.02 L955.35 1839.35 L788.29 1842.82 L621.23 1845.67 L621.23 1850.37 Z" stroke-linecap="round" style="fill:#C2C2FF;stroke:#B3B3FF;stroke-width:3.00"/>
	<path d="M621.23 1849.87 L621.23 1849.87 L788.29 1846.78 L955.35 1843.07 L1122.41 1838.61 L1289.47 1833.91 L1456.66 1828.71 L1623.72 1823.02 L1790.79 1816.58 L1957.85 1809.28 L2124.91 1800.99 L2291.97 1791.71 L2459.04 1781.19 L2626.22 1769.43 L2793.28 1756.31 L2960.35 1741.59 L3127.41 1725.38 L3294.47 1707.31 L3461.53 1687.63 L3628.60 1665.85 L3795.66 1642.21 L3795.66 1177.52 L3628.60 1291.87 L3461.53 1388.52 L3294.47 1469.95 L3127.41 1538.51 L2960.35 1595.81 L2793.28 1643.70 L2626.22 1683.55 L2459.04 1716.71 L2291.97 1743.94 L2124.91 1766.46 L1957.85 1784.90 L1790.79 1799.88 L1623.72 1812.13 L1456.66 1821.90 L1289.47 1829.58 L1122.41 1835.39 L955.35 1839.72 L788.29 1843.19 L621.23 1846.04 L621.23 1849.87 Z" stroke-linecap="round" style="fill:#ADADFF;stroke:#9999FF;stroke-width:3.00"/>
	<path d="M621.23 1849.50 L621.23 1849.50 L788.29 1846.53 L955.35 1842.70 L1122.41 1838.36 L1289.47 1833.41 L1456.66 1828.09 L1623.72 1822.03 L1790.79 1814.97 L1957.85 1806.93 L2124.91 1797.77 L2291.97 1787.25 L2459.04 1775.13 L2626.22 1761.39 L2793.28 1745.67 L2960.35 1727.98 L3127.41 1707.80 L3294.47 1685.03 L3461.53 1659.42 L3628.60 1630.70 L3795.66 1598.53 L3795.66 1221.20 L3628.60 1327.01 L3461.53 1416.61 L3294.47 1492.22 L3127.41 1555.96 L2960.35 1609.54 L2793.28 1654.34 L2626.22 1691.72 L2459.04 1722.78 L2291.97 1748.52 L2124.91 1769.68 L1957.85 1787.13 L1790.79 1801.49 L1623.72 1813.12 L1456.66 1822.52 L1289.47 1829.95 L1122.41 1835.64 L955.35 1840.10 L788.29 1843.56 L621.23 1846.41 L621.23 1849.50 Z" stroke-linecap="round" style="fill:#9999FF;stroke:#8080FF;stroke-width:3.00"/>
	<path d="M621.23 1849.25 L621.23 1849.25 L788.29 1846.16 L955.35 1842.45 L1122.41 1838.12 L1289.47 1833.17 L1456.66 1827.47 L1623.72 1821.04 L1790.79 1813.61 L1957.85 1804.95 L2124.91 1794.93 L2291.97 1783.42 L2459.04 1769.93 L2626.22 1754.46 L2793.28 1736.64 L2960.35 1716.22 L3127.41 1692.71 L3294.47 1665.97 L3461.53 1635.41 L3628.60 1600.51 L3795.66 1561.03 L3795.66 1258.70 L3628.60 1357.21 L3461.53 1440.74 L3294.47 1511.41 L3127.41 1571.06 L2960.35 1621.30 L2793.28 1663.38 L2626.22 1698.65 L2459.04 1727.98 L2291.97 1752.35 L2124.91 1772.53 L1957.85 1789.11 L1790.79 1802.85 L1623.72 1813.98 L1456.66 1823.02 L1289.47 1830.32 L1122.41 1836.01 L955.35 1840.34 L788.29 1843.81 L621.23 1846.78 L621.23 1849.25 Z" stroke-linecap="round" style="fill:#8585FF;stroke:#6666FF;stroke-width:3.00"/>
	<path d="M621.23 1849.01 L621.23 1849.01 L788.29 1845.91 L955.35 1842.20 L1122.41 1837.87 L1289.47 1832.79 L1456.66 1826.98 L1623.72 1820.30 L1790.79 1812.50 L1957.85 1803.22 L2124.91 1792.45 L2291.97 1779.95 L2459.04 1765.23 L2626.22 1748.27 L2793.28 1728.47 L2960.35 1705.58 L3127.41 1679.22 L3294.47 1648.77 L3461.53 1613.75 L3628.60 1573.53 L3795.66 1527.37 L3795.66 1292.36 L3628.60 1384.19 L3461.53 1462.40 L3294.47 1528.61 L3127.41 1584.67 L2960.35 1631.82 L2793.28 1671.54 L2626.22 1704.83 L2459.04 1732.55 L2291.97 1755.82 L2124.91 1775.00 L1957.85 1790.84 L1790.79 1803.96 L1623.72 1814.73 L1456.66 1823.51 L1289.47 1830.57 L1122.41 1836.26 L955.35 1840.59 L788.29 1844.18 L621.23 1847.03 L621.23 1849.01 Z" stroke-linecap="round" style="fill:#7171FF;stroke:#4D4DFF;stroke-width:3.00"/>
	<path d="M621.23 1848.76 L621.23 1848.76 L788.29 1845.67 L955.35 1842.08 L1122.41 1837.62 L1289.47 1832.55 L1456.66 1826.61 L1623.72 1819.55 L1790.79 1811.39 L1957.85 1801.61 L2124.91 1790.10 L2291.97 1776.73 L2459.04 1760.89 L2626.22 1742.45 L2793.28 1720.92 L2960.35 1695.80 L3127.41 1666.59 L3294.47 1632.81 L3461.53 1593.58 L3628.60 1548.41 L3795.66 1496.18 L3795.66 1323.55 L3628.60 1409.31 L3461.53 1482.45 L3294.47 1544.57 L3127.41 1597.17 L2960.35 1641.60 L2793.28 1679.09 L2626.22 1710.53 L2459.04 1736.89 L2291.97 1758.91 L2124.91 1777.35 L1957.85 1792.57 L1790.79 1805.07 L1623.72 1815.47 L1456.66 1824.01 L1289.47 1830.94 L1122.41 1836.38 L955.35 1840.84 L788.29 1844.30 L621.23 1847.27 L621.23 1848.76 Z" stroke-linecap="round" style="fill:#5C5CFF;stroke:#3333FF;stroke-width:3.00"/>
	<path d="M621.23 1848.51 L621.23 1848.51 L788.29 1845.42 L955.35 1841.83 L1122.41 1837.37 L1289.47 1832.30 L1456.66 1826.11 L1623.72 1818.81 L1790.79 1810.27 L1957.85 1800.00 L2124.91 1788.00 L2291.97 1773.64 L2459.04 1756.81 L2626.22 1737.01 L2793.28 1713.74 L2960.35 1686.52 L3127.41 1654.71 L3294.47 1617.71 L3461.53 1574.52 L3628.60 1524.52 L3795.66 1466.61 L3795.66 1353.12 L3628.60 1433.19 L3461.53 1501.51 L3294.47 1559.67 L3127.41 1609.05 L2960.35 1650.88 L2793.28 1686.27 L2626.22 1715.97 L2459.04 1741.09 L2291.97 1762.01 L2124.91 1779.46 L1957.85 1794.06 L1790.79 1806.19 L1623.72 1816.21 L1456.66 1824.50 L1289.47 1831.19 L1122.41 1836.63 L955.35 1840.96 L788.29 1844.55 L621.23 1847.52 L621.23 1848.51 Z" stroke-linecap="round" style="fill:#4747FF;stroke:#1919FF;stroke-width:3.00"/>
	<path d="M621.23 1848.26 L621.23 1848.26 L788.29 1845.29 L955.35 1841.58 L1122.41 1837.25 L1289.47 1831.93 L1456.66 1825.74 L1623.72 1818.19 L1790.79 1809.28 L1957.85 1798.51 L2124.91 1785.89 L2291.97 1770.67 L2459.04 1752.85 L2626.22 1731.69 L2793.28 1706.81 L2960.35 1677.61 L3127.41 1643.20 L3294.47 1603.11 L3461.53 1556.20 L3628.60 1501.51 L3795.66 1438.02 L3795.66 1381.71 L3628.60 1456.21 L3461.53 1519.94 L3294.47 1574.27 L3127.41 1620.56 L2960.35 1659.91 L2793.28 1693.20 L2626.22 1721.29 L2459.04 1745.05 L2291.97 1764.98 L2124.91 1781.68 L1957.85 1795.54 L1790.79 1807.18 L1623.72 1816.83 L1456.66 1824.87 L1289.47 1831.43 L1122.41 1836.88 L955.35 1841.21 L788.29 1844.80 L621.23 1847.77 L621.23 1848.26 Z" stroke-linecap="round" style="fill:#3333FF;stroke:#0000FF;stroke-width:3.00"/>
	<circle cx="621.10" cy="1847.65" r="22.03" style="fill:#000000;stroke:#000000;stroke-width:8.64"/>
	<circle cx="788.29" cy="1841.21" r="22.03" style="fill:#000000;stroke:#000000;stroke-width:8.64"/>
	<circle cx="955.35" cy="1841.21" r="22.03" style="fill:#000000;stroke:#000000;stroke-width:8.64"/>
	<circle cx="1122.41" cy="1841.21" r="22.03" style="fill:#000000;stroke:#000000;stroke-width:8.64"/>
	<circle cx="1289.47" cy="1834.90" r="22.03" style="fill:#000000;stroke:#000000;stroke-width:8.64"/>
	<circle cx="1456.54" cy="1822.03" r="22.03" style="fill:#000000;stroke:#000000;stroke-width:8.64"/>
	<line x1="390.80" y1="2489.19" x2="390.80" y2="100.86" style="stroke:#000000;stroke-width:5.76"/>
	<line x1="390.80" y1="2425.82" x2="350.83" y2="2425.82" style="stroke:#000000;stroke-width:5.76"/>
	<text x="300.72" y="2425.82" style="font-family:'Helvetica';font-size:99.99px;fill:#000000" transform="rotate(-90 300.72,2425.82)" text-anchor="middle">-5</text>
	<line x1="390.80" y1="1860.39" x2="350.83" y2="1860.39" style="stroke:#000000;stroke-width:5.76"/>
	<text x="300.72" y="1860.39" style="font-family:'Helvetica';font-size:99.99px;fill:#000000" transform="rotate(-90 300.72,1860.39)" text-anchor="middle">0</text>
	<line x1="390.80" y1="1294.96" x2="350.83" y2="1294.96" style="stroke:#000000;stroke-width:5.76"/>
	<text x="300.72" y="1294.96" style="font-family:'Helvetica';font-size:99.99px;fill:#000000" transform="rotate(-90 300.72,1294.96)" text-anchor="middle">5</text>
	<line x1="390.80" y1="729.53" x2="350.83" y2="729.53" style="stroke:#000000;stroke-width:5.76"/>
	<text x="300.72" y="729.53" style="font-family:'Helvetica';font-size:99.99px;fill:#000000" transform="rotate(-90 300.72,729.53)" text-anchor="middle">10</text>
	<line x1="390.80" y1="164.22" x2="350.83" y2="164.22" style="stroke:#000000;stroke-width:5.76"/>
	<text x="300.72" y="164.22" style="font-family:'Helvetica';font-size:99.99px;fill:#000000" transform="rotate(-90 300.72,164.22)" text-anchor="middle">15</text>
	<text x="190.71" y="1294.96" style="font-family:'Helvetica';font-size:99.99px;fill:#000000" transform="rotate(-90 190.71,1294.96)" text-anchor="middle">Confirmed cases per 100 beds</text>
	<line x1="390.80" y1="2489.19" x2="3859.02" y2="2489.19" style="stroke:#000000;stroke-width:5.76"/>
	<line x1="454.16" y1="2489.19" x2="454.16" y2="2529.16" style="stroke:#000000;stroke-width:5.76"/>
	<text x="454.16" y="2619.14" style="font-family:'Helvetica';font-size:99.99px;fill:#000000" text-anchor="middle">0</text>
	<line x1="621.23" y1="2489.19" x2="621.23" y2="2529.16" style="stroke:#000000;stroke-width:5.76"/>
	<text x="621.23" y="2619.14" style="font-family:'Helvetica';font-size:99.99px;fill:#000000" text-anchor="middle">1</text>
	<line x1="788.29" y1="2489.19" x2="788.29" y2="2529.16" style="stroke:#000000;stroke-width:5.76"/>
	<text x="788.29" y="2619.14" style="font-family:'Helvetica';font-size:99.99px;fill:#000000" text-anchor="middle">2</text>
	<line x1="955.35" y1="2489.19" x2="955.35" y2="2529.16" style="stroke:#000000;stroke-width:5.76"/>
	<text x="955.35" y="2619.14" style="font-family:'Helvetica';font-size:99.99px;fill:#000000" text-anchor="middle">3</text>
	<line x1="1122.41" y1="2489.19" x2="1122.41" y2="2529.16" style="stroke:#000000;stroke-width:5.76"/>
	<text x="1122.41" y="2619.14" style="font-family:'Helvetica';font-size:99.99px;fill:#000000" text-anchor="middle">4</text>
	<line x1="1289.47" y1="2489.19" x2="1289.47" y2="2529.16" style="stroke:#000000;stroke-width:5.76"/>
	<text x="1289.47" y="2619.14" style="font-family:'Helvetica';font-size:99.99px;fill:#000000" text-anchor="middle">5</text>
	<line x1="1456.66" y1="2489.19" x2="1456.66" y2="2529.16" style="stroke:#000000;stroke-width:5.76"/>
	<text x="1456.66" y="2619.14" style="font-family:'Helvetica';font-size:99.99px;fill:#000000" text-anchor="middle">6</text>
	<line x1="1623.72" y1="2489.19" x2="1623.72" y2="2529.16" style="stroke:#000000;stroke-width:5.76"/>
	<text x="1623.72" y="2619.14" style="font-family:'Helvetica';font-size:99.99px;fill:#000000" text-anchor="middle">7</text>
	<line x1="1790.79" y1="2489.19" x2="1790.79" y2="2529.16" style="stroke:#000000;stroke-width:5.76"/>
	<text x="1790.79" y="2619.14" style="font-family:'Helvetica';font-size:99.99px;fill:#000000" text-anchor="middle">8</text>
	<line x1="1957.85" y1="2489.19" x2="1957.85" y2="2529.16" style="stroke:#000000;stroke-width:5.76"/>
	<text x="1957.85" y="2619.14" style="font-family:'Helvetica';font-size:99.99px;fill:#000000" text-anchor="middle">9</text>
	<line x1="2124.91" y1="2489.19" x2="2124.91" y2="2529.16" style="stroke:#000000;stroke-width:5.76"/>
	<text x="2124.91" y="2619.14" style="font-family:'Helvetica';font-size:99.99px;fill:#000000" text-anchor="middle">10</text>
	<line x1="2291.97" y1="2489.19" x2="2291.97" y2="2529.16" style="stroke:#000000;stroke-width:5.76"/>
	<text x="2291.97" y="2619.14" style="font-family:'Helvetica';font-size:99.99px;fill:#000000" text-anchor="middle">11</text>
	<line x1="2459.04" y1="2489.19" x2="2459.04" y2="2529.16" style="stroke:#000000;stroke-width:5.76"/>
	<text x="2459.04" y="2619.14" style="font-family:'Helvetica';font-size:99.99px;fill:#000000" text-anchor="middle">12</text>
	<line x1="2626.22" y1="2489.19" x2="2626.22" y2="2529.16" style="stroke:#000000;stroke-width:5.76"/>
	<text x="2626.22" y="2619.14" style="font-family:'Helvetica';font-size:99.99px;fill:#000000" text-anchor="middle">13</text>
	<line x1="2793.28" y1="2489.19" x2="2793.28" y2="2529.16" style="stroke:#000000;stroke-width:5.76"/>
	<text x="2793.28" y="2619.14" style="font-family:'Helvetica';font-size:99.99px;fill:#000000" text-anchor="middle">14</text>
	<line x1="2960.35" y1="2489.19" x2="2960.35" y2="2529.16" style="stroke:#000000;stroke-width:5.76"/>
	<text x="2960.35" y="2619.14" style="font-family:'Helvetica';font-size:99.99px;fill:#000000" text-anchor="middle">15</text>
	<line x1="3127.41" y1="2489.19" x2="3127.41" y2="2529.16" style="stroke:#000000;stroke-width:5.76"/>
	<text x="3127.41" y="2619.14" style="font-family:'Helvetica';font-size:99.99px;fill:#000000" text-anchor="middle">16</text>
	<line x1="3294.47" y1="2489.19" x2="3294.47" y2="2529.16" style="stroke:#000000;stroke-width:5.76"/>
	<text x="3294.47" y="2619.14" style="font-family:'Helvetica';font-size:99.99px;fill:#000000" text-anchor="middle">17</text>
	<line x1="3461.53" y1="2489.19" x2="3461.53" y2="2529.16" style="stroke:#000000;stroke-width:5.76"/>
	<text x="3461.53" y="2619.14" style="font-family:'Helvetica';font-size:99.99px;fill:#000000" text-anchor="middle">18</text>
	<line x1="3628.60" y1="2489.19" x2="3628.60" y2="2529.16" style="stroke:#000000;stroke-width:5.76"/>
	<text x="3628.60" y="2619.14" style="font-family:'Helvetica';font-size:99.99px;fill:#000000" text-anchor="middle">19</text>
	<line x1="3795.66" y1="2489.19" x2="3795.66" y2="2529.16" style="stroke:#000000;stroke-width:5.76"/>
	<text x="3795.66" y="2619.14" style="font-family:'Helvetica';font-size:99.99px;fill:#000000" text-anchor="middle">20</text>
	<text x="2124.91" y="2729.16" style="font-family:'Helvetica';font-size:99.99px;fill:#000000" text-anchor="middle">Days since 0.01 confirmed cases per 100 beds</text>
</svg>
