<?xml version="1.0" encoding="UTF-8" standalone="no"?>
<!-- This is a Stata 14.2 generated SVG file (http://www.stata.com) -->

<svg version="1.1" width="5.50in" height="4.00in" viewBox="0 0 3960 2880" xmlns="http://www.w3.org/2000/svg">
	<desc>Stata Graph - Graph</desc>
	<line x1="390.80" y1="2997.19" x2="3859.02" y2="2997.19" style="stroke:#FF0000;stroke-width:8.64"/>
	<path d="M565.54 2342.78 L565.54 2342.78 L676.91 2331.65 L788.29 2319.15 L899.66 2305.29 L1011.04 2289.82 L1122.41 2272.62 L1233.79 2253.68 L1345.29 2232.64 L1456.66 2209.75 L1568.04 2184.87 L1679.41 2158.14 L1790.79 2130.05 L1902.16 2100.97 L2013.54 2071.02 L2124.91 2040.33 L2236.29 2008.53 L2347.66 1975.36 L2459.04 1940.46 L2570.53 1903.71 L2681.91 1864.85 L2793.28 1823.76 L2904.66 1780.32 L3016.03 1734.41 L3127.41 1685.78 L3238.78 1634.42 L3350.16 1580.21 L3461.53 1522.92 L3572.91 1462.52 L3684.28 1398.91 L3795.66 1331.84 L3795.66 385.86 L3684.28 572.24 L3572.91 743.02 L3461.53 899.07 L3350.16 1041.76 L3238.78 1171.95 L3127.41 1290.88 L3016.03 1399.16 L2904.66 1497.79 L2793.28 1587.51 L2681.91 1669.07 L2570.53 1743.07 L2459.04 1809.90 L2347.66 1870.42 L2236.29 1924.74 L2124.91 1973.38 L2013.54 2016.45 L1902.16 2054.19 L1790.79 2087.11 L1679.41 2115.82 L1568.04 2141.19 L1456.66 2163.84 L1345.29 2184.50 L1233.79 2203.31 L1122.41 2220.64 L1011.04 2236.73 L899.66 2251.45 L788.29 2265.19 L676.91 2277.94 L565.54 2289.69 L565.54 2342.78 Z" stroke-linecap="round" style="fill:#EBEBFF;stroke:#E6E6FF;stroke-width:3.00"/>
	<path d="M565.54 2327.44 L565.54 2327.44 L676.91 2316.18 L788.29 2303.55 L899.66 2289.82 L1011.04 2274.47 L1122.41 2257.64 L1233.79 2239.08 L1345.29 2218.78 L1456.66 2196.51 L1568.04 2172.25 L1679.41 2145.89 L1790.79 2117.68 L1902.16 2087.48 L2013.54 2055.30 L2124.91 2021.02 L2236.29 1984.39 L2347.66 1945.04 L2459.04 1902.84 L2570.53 1857.30 L2681.91 1808.29 L2793.28 1755.57 L2904.66 1698.77 L3016.03 1637.63 L3127.41 1571.80 L3238.78 1501.01 L3350.16 1424.78 L3461.53 1342.85 L3572.91 1254.86 L3684.28 1160.32 L3795.66 1058.84 L3795.66 658.87 L3684.28 810.84 L3572.91 950.68 L3461.53 1079.13 L3350.16 1197.07 L3238.78 1305.48 L3127.41 1404.85 L3016.03 1495.94 L2904.66 1579.35 L2793.28 1655.70 L2681.91 1725.62 L2570.53 1789.36 L2459.04 1847.65 L2347.66 1900.74 L2236.29 1949.00 L2124.91 1992.68 L2013.54 2032.16 L1902.16 2067.68 L1790.79 2099.48 L1679.41 2128.07 L1568.04 2153.81 L1456.66 2177.08 L1345.29 2198.36 L1233.79 2217.79 L1122.41 2235.61 L1011.04 2252.07 L899.66 2267.05 L788.29 2280.78 L676.91 2293.41 L565.54 2305.04 L565.54 2327.44 Z" stroke-linecap="round" style="fill:#D6D6FF;stroke:#CCCCFF;stroke-width:3.00"/>
	<path d="M565.54 2324.96 L565.54 2324.96 L676.91 2313.70 L788.29 2301.08 L899.66 2287.22 L1011.04 2272.00 L1122.41 2255.17 L1233.79 2236.73 L1345.29 2216.56 L1456.66 2194.40 L1568.04 2170.15 L1679.41 2143.91 L1790.79 2115.70 L1902.16 2085.25 L2013.54 2052.71 L2124.91 2017.93 L2236.29 1980.43 L2347.66 1940.21 L2459.04 1896.65 L2570.53 1849.75 L2681.91 1799.13 L2793.28 1744.56 L2904.66 1685.53 L3016.03 1621.92 L3127.41 1553.36 L3238.78 1479.35 L3350.16 1399.66 L3461.53 1313.77 L3572.91 1221.33 L3684.28 1121.71 L3795.66 1014.66 L3795.66 703.05 L3684.28 849.45 L3572.91 984.21 L3461.53 1108.22 L3350.16 1222.32 L3238.78 1327.01 L3127.41 1423.29 L3016.03 1511.53 L2904.66 1592.59 L2793.28 1666.72 L2681.91 1734.66 L2570.53 1796.91 L2459.04 1853.71 L2347.66 1905.56 L2236.29 1952.84 L2124.91 1995.78 L2013.54 2034.76 L1902.16 2069.91 L1790.79 2101.59 L1679.41 2130.05 L1568.04 2155.79 L1456.66 2179.31 L1345.29 2200.59 L1233.79 2220.14 L1122.41 2238.09 L1011.04 2254.55 L899.66 2269.52 L788.29 2283.26 L676.91 2295.88 L565.54 2307.51 L565.54 2324.96 Z" stroke-linecap="round" style="fill:#C2C2FF;stroke:#B3B3FF;stroke-width:3.00"/>
	<path d="M565.54 2323.36 L565.54 2323.36 L676.91 2311.97 L788.29 2299.35 L899.66 2285.61 L1011.04 2270.39 L1122.41 2253.56 L1233.79 2235.12 L1345.29 2214.95 L1456.66 2192.92 L1568.04 2168.79 L1679.41 2142.67 L1790.79 2114.33 L1902.16 2083.77 L2013.54 2050.97 L2124.91 2015.83 L2236.29 1977.83 L2347.66 1936.87 L2459.04 1892.57 L2570.53 1844.80 L2681.91 1793.07 L2793.28 1737.13 L2904.66 1676.74 L3016.03 1611.40 L3127.41 1540.86 L3238.78 1464.75 L3350.16 1382.70 L3461.53 1294.09 L3572.91 1198.56 L3684.28 1095.72 L3795.66 984.83 L3795.66 732.87 L3684.28 875.43 L3572.91 1006.86 L3461.53 1127.89 L3350.16 1239.27 L3238.78 1341.62 L3127.41 1435.67 L3016.03 1522.17 L2904.66 1601.50 L2793.28 1674.14 L2681.91 1740.85 L2570.53 1801.98 L2459.04 1857.79 L2347.66 1908.90 L2236.29 1955.56 L2124.91 1997.88 L2013.54 2036.49 L1902.16 2071.39 L1790.79 2102.83 L1679.41 2131.41 L1568.04 2157.15 L1456.66 2180.67 L1345.29 2202.20 L1233.79 2221.75 L1122.41 2239.70 L1011.04 2256.16 L899.66 2271.25 L788.29 2284.99 L676.91 2297.61 L565.54 2309.12 L565.54 2323.36 Z" stroke-linecap="round" style="fill:#ADADFF;stroke:#9999FF;stroke-width:3.00"/>
	<path d="M565.54 2321.99 L565.54 2321.99 L676.91 2310.61 L788.29 2297.99 L899.66 2284.25 L1011.04 2269.03 L1122.41 2252.32 L1233.79 2233.88 L1345.29 2213.83 L1456.66 2191.80 L1568.04 2167.67 L1679.41 2141.56 L1790.79 2113.22 L1902.16 2082.65 L2013.54 2049.61 L2124.91 2014.09 L2236.29 1975.73 L2347.66 1934.27 L2459.04 1889.35 L2570.53 1840.72 L2681.91 1788.12 L2793.28 1731.19 L2904.66 1669.56 L3016.03 1602.98 L3127.41 1531.08 L3238.78 1453.24 L3350.16 1369.21 L3461.53 1278.50 L3572.91 1180.61 L3684.28 1075.05 L3795.66 961.20 L3795.66 756.51 L3684.28 896.23 L3572.91 1024.93 L3461.53 1143.49 L3350.16 1252.76 L3238.78 1353.25 L3127.41 1445.57 L3016.03 1530.46 L2904.66 1608.55 L2793.28 1680.08 L2681.91 1745.80 L2570.53 1805.94 L2459.04 1861.13 L2347.66 1911.50 L2236.29 1957.54 L2124.91 1999.61 L2013.54 2037.85 L1902.16 2072.51 L1790.79 2103.94 L1679.41 2132.40 L1568.04 2158.27 L1456.66 2181.90 L1345.29 2203.31 L1233.79 2222.99 L1122.41 2241.06 L1011.04 2257.52 L899.66 2272.62 L788.29 2286.35 L676.91 2298.98 L565.54 2310.48 L565.54 2321.99 Z" stroke-linecap="round" style="fill:#9999FF;stroke:#8080FF;stroke-width:3.00"/>
	<path d="M565.54 2320.88 L565.54 2320.88 L676.91 2309.49 L788.29 2296.87 L899.66 2283.01 L1011.04 2267.91 L1122.41 2251.21 L1233.79 2232.89 L1345.29 2212.72 L1456.66 2190.81 L1568.04 2166.81 L1679.41 2140.69 L1790.79 2112.35 L1902.16 2081.66 L2013.54 2048.50 L2124.91 2012.73 L2236.29 1973.87 L2347.66 1931.92 L2459.04 1886.50 L2570.53 1837.25 L2681.91 1783.91 L2793.28 1726.12 L2904.66 1663.50 L3016.03 1595.81 L3127.41 1522.54 L3238.78 1443.34 L3350.16 1357.58 L3461.53 1265.14 L3572.91 1165.14 L3684.28 1057.23 L3795.66 940.78 L3795.66 776.80 L3684.28 913.92 L3572.91 1040.40 L3461.53 1156.97 L3350.16 1264.27 L3238.78 1363.15 L3127.41 1454.11 L3016.03 1537.77 L2904.66 1614.62 L2793.28 1685.16 L2681.91 1750.00 L2570.53 1809.41 L2459.04 1863.86 L2347.66 1913.73 L2236.29 1959.39 L2124.91 2001.10 L2013.54 2038.97 L1902.16 2073.50 L1790.79 2104.93 L1679.41 2133.39 L1568.04 2159.26 L1456.66 2182.89 L1345.29 2204.43 L1233.79 2224.10 L1122.41 2242.17 L1011.04 2258.63 L899.66 2273.73 L788.29 2287.47 L676.91 2300.09 L565.54 2311.60 L565.54 2320.88 Z" stroke-linecap="round" style="fill:#8585FF;stroke:#6666FF;stroke-width:3.00"/>
	<path d="M565.54 2319.89 L565.54 2319.89 L676.91 2308.38 L788.29 2295.88 L899.66 2282.02 L1011.04 2266.80 L1122.41 2250.22 L1233.79 2231.90 L1345.29 2211.85 L1456.66 2189.95 L1568.04 2165.94 L1679.41 2139.83 L1790.79 2111.49 L1902.16 2080.67 L2013.54 2047.38 L2124.91 2011.37 L2236.29 1972.27 L2347.66 1929.94 L2459.04 1884.03 L2570.53 1834.16 L2681.91 1780.20 L2793.28 1721.54 L2904.66 1658.05 L3016.03 1589.37 L3127.41 1514.87 L3238.78 1434.43 L3350.16 1347.31 L3461.53 1253.01 L3572.91 1151.28 L3684.28 1041.27 L3795.66 922.59 L3795.66 795.12 L3684.28 929.89 L3572.91 1054.26 L3461.53 1168.98 L3350.16 1274.66 L3238.78 1372.06 L3127.41 1461.66 L3016.03 1544.20 L2904.66 1620.06 L2793.28 1689.74 L2681.91 1753.72 L2570.53 1812.50 L2459.04 1866.46 L2347.66 1915.83 L2236.29 1961.00 L2124.91 2002.34 L2013.54 2040.08 L1902.16 2074.49 L1790.79 2105.67 L1679.41 2134.14 L1568.04 2160.12 L1456.66 2183.76 L1345.29 2205.29 L1233.79 2225.09 L1122.41 2243.16 L1011.04 2259.62 L899.66 2274.72 L788.29 2288.58 L676.91 2301.20 L565.54 2312.71 L565.54 2319.89 Z" stroke-linecap="round" style="fill:#7171FF;stroke:#4D4DFF;stroke-width:3.00"/>
	<path d="M565.54 2318.90 L565.54 2318.90 L676.91 2307.51 L788.29 2294.89 L899.66 2281.03 L1011.04 2265.93 L1122.41 2249.23 L1233.79 2230.91 L1345.29 2210.99 L1456.66 2189.08 L1568.04 2165.20 L1679.41 2139.09 L1790.79 2110.75 L1902.16 2079.93 L2013.54 2046.52 L2124.91 2010.13 L2236.29 1970.78 L2347.66 1928.09 L2459.04 1881.68 L2570.53 1831.31 L2681.91 1776.61 L2793.28 1717.33 L2904.66 1653.10 L3016.03 1583.31 L3127.41 1507.82 L3238.78 1426.14 L3350.16 1337.66 L3461.53 1241.87 L3572.91 1138.41 L3684.28 1026.54 L3795.66 905.63 L3795.66 811.95 L3684.28 944.61 L3572.91 1067.13 L3461.53 1180.12 L3350.16 1284.32 L3238.78 1380.35 L3127.41 1468.71 L3016.03 1550.14 L2904.66 1625.14 L2793.28 1693.94 L2681.91 1757.30 L2570.53 1815.35 L2459.04 1868.81 L2347.66 1917.69 L2236.29 1962.49 L2124.91 2003.58 L2013.54 2041.07 L1902.16 2075.23 L1790.79 2106.41 L1679.41 2134.88 L1568.04 2160.87 L1456.66 2184.50 L1345.29 2206.16 L1233.79 2225.96 L1122.41 2244.03 L1011.04 2260.61 L899.66 2275.71 L788.29 2289.57 L676.91 2302.19 L565.54 2313.58 L565.54 2318.90 Z" stroke-linecap="round" style="fill:#5C5CFF;stroke:#3333FF;stroke-width:3.00"/>
	<path d="M565.54 2318.03 L565.54 2318.03 L676.91 2306.52 L788.29 2293.90 L899.66 2280.17 L1011.04 2264.94 L1122.41 2248.36 L1233.79 2230.17 L1345.29 2210.12 L1456.66 2188.34 L1568.04 2164.46 L1679.41 2138.34 L1790.79 2110.00 L1902.16 2079.06 L2013.54 2045.53 L2124.91 2009.02 L2236.29 1969.42 L2347.66 1926.35 L2459.04 1879.45 L2570.53 1828.59 L2681.91 1773.27 L2793.28 1713.37 L2904.66 1648.28 L3016.03 1577.74 L3127.41 1501.13 L3238.78 1418.22 L3350.16 1328.50 L3461.53 1231.35 L3572.91 1126.16 L3684.28 1012.55 L3795.66 889.67 L3795.66 828.04 L3684.28 958.72 L3572.91 1079.38 L3461.53 1190.64 L3350.16 1293.48 L3238.78 1388.15 L3127.41 1475.39 L3016.03 1555.83 L2904.66 1629.84 L2793.28 1697.90 L2681.91 1760.52 L2570.53 1818.07 L2459.04 1870.91 L2347.66 1919.42 L2236.29 1963.97 L2124.91 2004.69 L2013.54 2041.94 L1902.16 2076.09 L1790.79 2107.16 L1679.41 2135.62 L1568.04 2161.61 L1456.66 2185.37 L1345.29 2207.03 L1233.79 2226.83 L1122.41 2245.02 L1011.04 2261.48 L899.66 2276.70 L788.29 2290.44 L676.91 2303.06 L565.54 2314.57 L565.54 2318.03 Z" stroke-linecap="round" style="fill:#4747FF;stroke:#1919FF;stroke-width:3.00"/>
	<path d="M565.54 2317.17 L565.54 2317.17 L676.91 2305.66 L788.29 2293.04 L899.66 2279.30 L1011.04 2264.08 L1122.41 2247.49 L1233.79 2229.30 L1345.29 2209.38 L1456.66 2187.60 L1568.04 2163.71 L1679.41 2137.72 L1790.79 2109.26 L1902.16 2078.32 L2013.54 2044.66 L2124.91 2007.91 L2236.29 1968.06 L2347.66 1924.62 L2459.04 1877.35 L2570.53 1825.99 L2681.91 1770.05 L2793.28 1709.41 L2904.66 1643.58 L3016.03 1572.17 L3127.41 1494.70 L3238.78 1410.67 L3350.16 1319.71 L3461.53 1221.08 L3572.91 1114.40 L3684.28 998.94 L3795.66 874.07 L3795.66 843.51 L3684.28 972.21 L3572.91 1091.14 L3461.53 1200.91 L3350.16 1302.26 L3238.78 1395.70 L3127.41 1481.95 L3016.03 1561.40 L2904.66 1634.54 L2793.28 1701.86 L2681.91 1763.74 L2570.53 1820.79 L2459.04 1873.14 L2347.66 1921.16 L2236.29 1965.34 L2124.91 2005.80 L2013.54 2042.93 L1902.16 2076.84 L1790.79 2107.90 L1679.41 2136.36 L1568.04 2162.35 L1456.66 2186.11 L1345.29 2207.77 L1233.79 2227.69 L1122.41 2245.76 L1011.04 2262.34 L899.66 2277.57 L788.29 2291.30 L676.91 2303.93 L565.54 2315.43 L565.54 2317.17 Z" stroke-linecap="round" style="fill:#3333FF;stroke:#0000FF;stroke-width:3.00"/>
	<circle cx="565.41" cy="2285.12" r="22.03" style="fill:#000000;stroke:#000000;stroke-width:8.64"/>
	<circle cx="676.79" cy="2285.12" r="22.03" style="fill:#000000;stroke:#000000;stroke-width:8.64"/>
	<circle cx="788.29" cy="2285.12" r="22.03" style="fill:#000000;stroke:#000000;stroke-width:8.64"/>
	<circle cx="899.66" cy="2274.35" r="22.03" style="fill:#000000;stroke:#000000;stroke-width:8.64"/>
	<circle cx="1011.04" cy="2274.35" r="22.03" style="fill:#000000;stroke:#000000;stroke-width:8.64"/>
	<circle cx="1122.41" cy="2252.69" r="22.03" style="fill:#000000;stroke:#000000;stroke-width:8.64"/>
	<circle cx="1233.79" cy="2252.69" r="22.03" style="fill:#000000;stroke:#000000;stroke-width:8.64"/>
	<circle cx="1345.16" cy="2252.69" r="22.03" style="fill:#000000;stroke:#000000;stroke-width:8.64"/>
	<circle cx="1456.54" cy="2176.95" r="22.03" style="fill:#000000;stroke:#000000;stroke-width:8.64"/>
	<circle cx="1567.91" cy="2166.06" r="22.03" style="fill:#000000;stroke:#000000;stroke-width:8.64"/>
	<circle cx="1679.29" cy="2122.75" r="22.03" style="fill:#000000;stroke:#000000;stroke-width:8.64"/>
	<circle cx="1790.66" cy="2090.33" r="22.03" style="fill:#000000;stroke:#000000;stroke-width:8.64"/>
	<circle cx="1902.04" cy="2068.67" r="22.03" style="fill:#000000;stroke:#000000;stroke-width:8.64"/>
	<circle cx="2013.54" cy="2068.67" r="22.03" style="fill:#000000;stroke:#000000;stroke-width:8.64"/>
	<circle cx="2124.91" cy="2014.59" r="22.03" style="fill:#000000;stroke:#000000;stroke-width:8.64"/>
	<circle cx="2236.29" cy="1949.62" r="22.03" style="fill:#000000;stroke:#000000;stroke-width:8.64"/>
	<line x1="390.80" y1="2489.19" x2="390.80" y2="100.86" style="stroke:#000000;stroke-width:5.76"/>
	<line x1="390.80" y1="2425.82" x2="350.83" y2="2425.82" style="stroke:#000000;stroke-width:5.76"/>
	<text x="300.72" y="2425.82" style="font-family:'Helvetica';font-size:99.99px;fill:#000000" transform="rotate(-90 300.72,2425.82)" text-anchor="middle">0</text>
	<line x1="390.80" y1="1671.91" x2="350.83" y2="1671.91" style="stroke:#000000;stroke-width:5.76"/>
	<text x="300.72" y="1671.91" style="font-family:'Helvetica';font-size:99.99px;fill:#000000" transform="rotate(-90 300.72,1671.91)" text-anchor="middle">1</text>
	<line x1="390.80" y1="918.01" x2="350.83" y2="918.01" style="stroke:#000000;stroke-width:5.76"/>
	<text x="300.72" y="918.01" style="font-family:'Helvetica';font-size:99.99px;fill:#000000" transform="rotate(-90 300.72,918.01)" text-anchor="middle">2</text>
	<line x1="390.80" y1="164.22" x2="350.83" y2="164.22" style="stroke:#000000;stroke-width:5.76"/>
	<text x="300.72" y="164.22" style="font-family:'Helvetica';font-size:99.99px;fill:#000000" transform="rotate(-90 300.72,164.22)" text-anchor="middle">3</text>
	<text x="190.71" y="1294.96" style="font-family:'Helvetica';font-size:99.99px;fill:#000000" transform="rotate(-90 190.71,1294.96)" text-anchor="middle">Confirmed cases per 100 beds</text>
	<line x1="390.80" y1="2489.19" x2="3859.02" y2="2489.19" style="stroke:#000000;stroke-width:5.76"/>
	<line x1="454.16" y1="2489.19" x2="454.16" y2="2529.16" style="stroke:#000000;stroke-width:5.76"/>
	<text x="454.16" y="2619.14" style="font-family:'Helvetica';font-size:99.99px;fill:#000000" text-anchor="middle">0</text>
	<line x1="1568.04" y1="2489.19" x2="1568.04" y2="2529.16" style="stroke:#000000;stroke-width:5.76"/>
	<text x="1568.04" y="2619.14" style="font-family:'Helvetica';font-size:99.99px;fill:#000000" text-anchor="middle">10</text>
	<line x1="2681.91" y1="2489.19" x2="2681.91" y2="2529.16" style="stroke:#000000;stroke-width:5.76"/>
	<text x="2681.91" y="2619.14" style="font-family:'Helvetica';font-size:99.99px;fill:#000000" text-anchor="middle">20</text>
	<line x1="3795.66" y1="2489.19" x2="3795.66" y2="2529.16" style="stroke:#000000;stroke-width:5.76"/>
	<text x="3795.66" y="2619.14" style="font-family:'Helvetica';font-size:99.99px;fill:#000000" text-anchor="middle">30</text>
	<text x="2124.91" y="2729.16" style="font-family:'Helvetica';font-size:99.99px;fill:#000000" text-anchor="middle">Days since 0.01 confirmed cases per 100 beds</text>
</svg>
