<?xml version="1.0" encoding="UTF-8" standalone="no"?>
<!-- This is a Stata 14.2 generated SVG file (http://www.stata.com) -->

<svg version="1.1" width="5.50in" height="4.00in" viewBox="0 0 3960 2880" xmlns="http://www.w3.org/2000/svg">
	<desc>Stata Graph - Graph</desc>
	<line x1="390.80" y1="1811.51" x2="3859.02" y2="1811.51" style="stroke:#FF0000;stroke-width:8.64"/>
	<path d="M565.54 1839.48 L565.54 1839.48 L676.91 1839.48 L788.29 1839.48 L899.66 1839.48 L1011.04 1839.60 L1122.41 1839.60 L1233.79 1839.60 L1345.29 1839.48 L1456.66 1839.35 L1568.04 1839.11 L1679.41 1838.49 L1790.79 1837.74 L1902.16 1837.00 L2013.54 1836.51 L2124.91 1836.51 L2236.29 1837.13 L2347.66 1839.11 L2459.04 1843.19 L2570.53 1850.62 L2681.91 1862.87 L2793.28 1882.54 L2904.66 1912.62 L3016.03 1957.54 L3127.41 2022.88 L3238.78 2116.07 L3350.16 2246.38 L3461.53 2425.82 L3461.53 308.52 L3350.16 723.96 L3238.78 1035.57 L3127.41 1266.87 L3016.03 1436.53 L2904.66 1559.55 L2793.28 1647.66 L2681.91 1710.03 L2570.53 1753.47 L2459.04 1783.29 L2347.66 1803.47 L2236.29 1816.83 L2124.91 1825.49 L2013.54 1831.06 L1902.16 1834.40 L1790.79 1836.14 L1679.41 1837.13 L1568.04 1837.74 L1456.66 1838.24 L1345.29 1838.61 L1233.79 1838.86 L1122.41 1838.98 L1011.04 1839.23 L899.66 1839.23 L788.29 1839.35 L676.91 1839.35 L565.54 1839.35 L565.54 1839.48 Z" stroke-linecap="round" style="fill:#EBEBFF;stroke:#E6E6FF;stroke-width:3.00"/>
	<path d="M565.54 1839.48 L565.54 1839.48 L676.91 1839.48 L788.29 1839.48 L899.66 1839.48 L1011.04 1839.48 L1122.41 1839.35 L1233.79 1839.35 L1345.29 1839.23 L1456.66 1838.98 L1568.04 1838.73 L1679.41 1838.12 L1790.79 1837.25 L1902.16 1836.26 L2013.54 1834.90 L2124.91 1833.29 L2236.29 1831.31 L2347.66 1828.83 L2459.04 1825.99 L2570.53 1822.52 L2681.91 1818.81 L2793.28 1814.73 L2904.66 1810.77 L3016.03 1807.18 L3127.41 1804.70 L3238.78 1804.21 L3350.16 1807.05 L3461.53 1814.73 L3461.53 919.61 L3350.16 1163.41 L3238.78 1347.43 L3127.41 1485.05 L3016.03 1586.90 L2904.66 1661.40 L2793.28 1715.48 L2681.91 1754.09 L2570.53 1781.44 L2459.04 1800.62 L2347.66 1813.74 L2236.29 1822.77 L2124.91 1828.71 L2013.54 1832.67 L1902.16 1835.15 L1790.79 1836.63 L1679.41 1837.50 L1568.04 1838.12 L1456.66 1838.61 L1345.29 1838.86 L1233.79 1839.11 L1122.41 1839.23 L1011.04 1839.23 L899.66 1839.35 L788.29 1839.35 L676.91 1839.35 L565.54 1839.48 L565.54 1839.48 Z" stroke-linecap="round" style="fill:#D6D6FF;stroke:#CCCCFF;stroke-width:3.00"/>
	<path d="M565.54 1839.48 L565.54 1839.48 L676.91 1839.48 L788.29 1839.48 L899.66 1839.48 L1011.04 1839.48 L1122.41 1839.35 L1233.79 1839.35 L1345.29 1839.23 L1456.66 1838.98 L1568.04 1838.61 L1679.41 1838.12 L1790.79 1837.25 L1902.16 1836.14 L2013.54 1834.65 L2124.91 1832.79 L2236.29 1830.32 L2347.66 1827.23 L2459.04 1823.14 L2570.53 1818.07 L2681.91 1811.63 L2793.28 1803.71 L2904.66 1794.18 L3016.03 1782.80 L3127.41 1769.43 L3238.78 1753.84 L3350.16 1735.90 L3461.53 1715.97 L3461.53 1018.49 L3350.16 1234.44 L3238.78 1397.92 L3127.41 1520.32 L3016.03 1611.15 L2904.66 1677.98 L2793.28 1726.37 L2681.91 1761.27 L2570.53 1786.02 L2459.04 1803.34 L2347.66 1815.47 L2236.29 1823.64 L2124.91 1829.21 L2013.54 1832.92 L1902.16 1835.27 L1790.79 1836.75 L1679.41 1837.62 L1568.04 1838.24 L1456.66 1838.61 L1345.29 1838.86 L1233.79 1839.11 L1122.41 1839.23 L1011.04 1839.35 L899.66 1839.35 L788.29 1839.35 L676.91 1839.35 L565.54 1839.48 L565.54 1839.48 Z" stroke-linecap="round" style="fill:#C2C2FF;stroke:#B3B3FF;stroke-width:3.00"/>
	<path d="M565.54 1839.48 L565.54 1839.48 L676.91 1839.48 L788.29 1839.48 L899.66 1839.48 L1011.04 1839.35 L1122.41 1839.35 L1233.79 1839.23 L1345.29 1839.11 L1456.66 1838.98 L1568.04 1838.61 L1679.41 1837.99 L1790.79 1837.13 L1902.16 1836.01 L2013.54 1834.53 L2124.91 1832.42 L2236.29 1829.70 L2347.66 1826.11 L2459.04 1821.29 L2570.53 1814.97 L2681.91 1806.81 L2793.28 1796.41 L2904.66 1783.05 L3016.03 1766.46 L3127.41 1745.55 L3238.78 1719.68 L3350.16 1688.00 L3461.53 1649.27 L3461.53 1085.20 L3350.16 1282.46 L3238.78 1431.96 L3127.41 1544.20 L3016.03 1627.61 L2904.66 1688.99 L2793.28 1733.79 L2681.91 1766.09 L2570.53 1789.11 L2459.04 1805.32 L2347.66 1816.58 L2236.29 1824.26 L2124.91 1829.58 L2013.54 1833.04 L1902.16 1835.39 L1790.79 1836.75 L1679.41 1837.62 L1568.04 1838.24 L1456.66 1838.61 L1345.29 1838.86 L1233.79 1839.11 L1122.41 1839.23 L1011.04 1839.35 L899.66 1839.35 L788.29 1839.35 L676.91 1839.35 L565.54 1839.48 L565.54 1839.48 Z" stroke-linecap="round" style="fill:#ADADFF;stroke:#9999FF;stroke-width:3.00"/>
	<path d="M565.54 1839.48 L565.54 1839.48 L676.91 1839.48 L788.29 1839.48 L899.66 1839.48 L1011.04 1839.35 L1122.41 1839.35 L1233.79 1839.23 L1345.29 1839.11 L1456.66 1838.86 L1568.04 1838.61 L1679.41 1837.99 L1790.79 1837.13 L1902.16 1836.01 L2013.54 1834.40 L2124.91 1832.18 L2236.29 1829.21 L2347.66 1825.12 L2459.04 1819.80 L2570.53 1812.50 L2681.91 1802.97 L2793.28 1790.47 L2904.66 1774.26 L3016.03 1753.34 L3127.41 1726.61 L3238.78 1692.71 L3350.16 1649.89 L3461.53 1596.18 L3461.53 1138.16 L3350.16 1320.58 L3238.78 1458.93 L3127.41 1563.14 L3016.03 1640.61 L2904.66 1697.90 L2793.28 1739.73 L2681.91 1769.93 L2570.53 1791.46 L2459.04 1806.81 L2347.66 1817.45 L2236.29 1824.75 L2124.91 1829.82 L2013.54 1833.17 L1902.16 1835.39 L1790.79 1836.75 L1679.41 1837.74 L1568.04 1838.24 L1456.66 1838.73 L1345.29 1838.98 L1233.79 1839.11 L1122.41 1839.23 L1011.04 1839.35 L899.66 1839.35 L788.29 1839.35 L676.91 1839.48 L565.54 1839.48 L565.54 1839.48 Z" stroke-linecap="round" style="fill:#9999FF;stroke:#8080FF;stroke-width:3.00"/>
	<path d="M565.54 1839.48 L565.54 1839.48 L676.91 1839.48 L788.29 1839.48 L899.66 1839.48 L1011.04 1839.35 L1122.41 1839.35 L1233.79 1839.23 L1345.29 1839.11 L1456.66 1838.86 L1568.04 1838.49 L1679.41 1837.99 L1790.79 1837.13 L1902.16 1835.89 L2013.54 1834.28 L2124.91 1831.93 L2236.29 1828.71 L2347.66 1824.38 L2459.04 1818.44 L2570.53 1810.40 L2681.91 1799.63 L2793.28 1785.40 L2904.66 1766.71 L3016.03 1742.21 L3127.41 1710.40 L3238.78 1669.44 L3350.16 1617.22 L3461.53 1550.76 L3461.53 1183.71 L3350.16 1353.25 L3238.78 1482.20 L3127.41 1579.35 L3016.03 1651.87 L2904.66 1705.45 L2793.28 1744.68 L2681.91 1773.15 L2570.53 1793.56 L2459.04 1808.04 L2347.66 1818.19 L2236.29 1825.25 L2124.91 1830.07 L2013.54 1833.29 L1902.16 1835.52 L1790.79 1836.88 L1679.41 1837.74 L1568.04 1838.36 L1456.66 1838.73 L1345.29 1838.98 L1233.79 1839.11 L1122.41 1839.23 L1011.04 1839.35 L899.66 1839.35 L788.29 1839.35 L676.91 1839.48 L565.54 1839.48 L565.54 1839.48 Z" stroke-linecap="round" style="fill:#8585FF;stroke:#6666FF;stroke-width:3.00"/>
	<path d="M565.54 1839.48 L565.54 1839.48 L676.91 1839.48 L788.29 1839.48 L899.66 1839.35 L1011.04 1839.35 L1122.41 1839.35 L1233.79 1839.23 L1345.29 1839.11 L1456.66 1838.86 L1568.04 1838.49 L1679.41 1837.99 L1790.79 1837.13 L1902.16 1835.89 L2013.54 1834.16 L2124.91 1831.80 L2236.29 1828.34 L2347.66 1823.76 L2459.04 1817.33 L2570.53 1808.54 L2681.91 1796.78 L2793.28 1780.94 L2904.66 1759.90 L3016.03 1732.18 L3127.41 1695.80 L3238.78 1648.65 L3350.16 1587.76 L3461.53 1509.92 L3461.53 1224.54 L3350.16 1382.58 L3238.78 1502.99 L3127.41 1593.95 L3016.03 1661.89 L2904.66 1712.26 L2793.28 1749.26 L2681.91 1776.12 L2570.53 1795.42 L2459.04 1809.28 L2347.66 1818.93 L2236.29 1825.62 L2124.91 1830.32 L2013.54 1833.41 L1902.16 1835.52 L1790.79 1836.88 L1679.41 1837.74 L1568.04 1838.36 L1456.66 1838.73 L1345.29 1838.98 L1233.79 1839.11 L1122.41 1839.23 L1011.04 1839.35 L899.66 1839.35 L788.29 1839.35 L676.91 1839.48 L565.54 1839.48 L565.54 1839.48 Z" stroke-linecap="round" style="fill:#7171FF;stroke:#4D4DFF;stroke-width:3.00"/>
	<path d="M565.54 1839.48 L565.54 1839.48 L676.91 1839.48 L788.29 1839.48 L899.66 1839.35 L1011.04 1839.35 L1122.41 1839.35 L1233.79 1839.23 L1345.29 1839.11 L1456.66 1838.86 L1568.04 1838.49 L1679.41 1837.87 L1790.79 1837.00 L1902.16 1835.76 L2013.54 1834.03 L2124.91 1831.56 L2236.29 1827.97 L2347.66 1823.02 L2459.04 1816.21 L2570.53 1806.81 L2681.91 1794.06 L2793.28 1776.73 L2904.66 1753.59 L3016.03 1722.78 L3127.41 1682.31 L3238.78 1629.34 L3350.16 1560.54 L3461.53 1472.05 L3461.53 1262.29 L3350.16 1409.80 L3238.78 1522.30 L3127.41 1607.44 L3016.03 1671.17 L2904.66 1718.57 L2793.28 1753.47 L2681.91 1778.84 L2570.53 1797.15 L2459.04 1810.27 L2347.66 1819.55 L2236.29 1825.99 L2124.91 1830.44 L2013.54 1833.54 L1902.16 1835.52 L1790.79 1836.88 L1679.41 1837.74 L1568.04 1838.36 L1456.66 1838.73 L1345.29 1838.98 L1233.79 1839.11 L1122.41 1839.23 L1011.04 1839.35 L899.66 1839.35 L788.29 1839.35 L676.91 1839.48 L565.54 1839.48 L565.54 1839.48 Z" stroke-linecap="round" style="fill:#5C5CFF;stroke:#3333FF;stroke-width:3.00"/>
	<path d="M565.54 1839.48 L565.54 1839.48 L676.91 1839.48 L788.29 1839.48 L899.66 1839.35 L1011.04 1839.35 L1122.41 1839.35 L1233.79 1839.23 L1345.29 1839.11 L1456.66 1838.86 L1568.04 1838.49 L1679.41 1837.87 L1790.79 1837.00 L1902.16 1835.76 L2013.54 1833.91 L2124.91 1831.31 L2236.29 1827.72 L2347.66 1822.52 L2459.04 1815.22 L2570.53 1805.20 L2681.91 1791.46 L2793.28 1772.77 L2904.66 1747.53 L3016.03 1713.99 L3127.41 1669.44 L3238.78 1611.03 L3350.16 1534.80 L3461.53 1436.16 L3461.53 1298.30 L3350.16 1435.67 L3238.78 1540.61 L3127.41 1620.19 L3016.03 1680.08 L2904.66 1724.63 L2793.28 1757.43 L2681.91 1781.44 L2570.53 1798.89 L2459.04 1811.26 L2347.66 1820.17 L2236.29 1826.36 L2124.91 1830.69 L2013.54 1833.66 L1902.16 1835.64 L1790.79 1836.88 L1679.41 1837.74 L1568.04 1838.36 L1456.66 1838.73 L1345.29 1838.98 L1233.79 1839.23 L1122.41 1839.23 L1011.04 1839.35 L899.66 1839.35 L788.29 1839.35 L676.91 1839.48 L565.54 1839.48 L565.54 1839.48 Z" stroke-linecap="round" style="fill:#4747FF;stroke:#1919FF;stroke-width:3.00"/>
	<path d="M565.54 1839.48 L565.54 1839.48 L676.91 1839.48 L788.29 1839.48 L899.66 1839.35 L1011.04 1839.35 L1122.41 1839.35 L1233.79 1839.23 L1345.29 1839.11 L1456.66 1838.86 L1568.04 1838.49 L1679.41 1837.87 L1790.79 1837.00 L1902.16 1835.76 L2013.54 1833.91 L2124.91 1831.19 L2236.29 1827.35 L2347.66 1821.90 L2459.04 1814.23 L2570.53 1803.59 L2681.91 1788.86 L2793.28 1768.94 L2904.66 1741.84 L3016.03 1705.45 L3127.41 1657.06 L3238.78 1593.33 L3350.16 1509.80 L3461.53 1401.39 L3461.53 1332.95 L3350.16 1460.67 L3238.78 1558.43 L3127.41 1632.68 L3016.03 1688.62 L2904.66 1730.33 L2793.28 1761.27 L2681.91 1783.91 L2570.53 1800.50 L2459.04 1812.25 L2347.66 1820.79 L2236.29 1826.73 L2124.91 1830.81 L2013.54 1833.66 L1902.16 1835.64 L1790.79 1837.00 L1679.41 1837.87 L1568.04 1838.36 L1456.66 1838.73 L1345.29 1838.98 L1233.79 1839.23 L1122.41 1839.23 L1011.04 1839.35 L899.66 1839.35 L788.29 1839.35 L676.91 1839.48 L565.54 1839.48 L565.54 1839.48 Z" stroke-linecap="round" style="fill:#3333FF;stroke:#0000FF;stroke-width:3.00"/>
	<circle cx="565.41" cy="1839.48" r="22.03" style="fill:#000000;stroke:#000000;stroke-width:8.64"/>
	<circle cx="676.79" cy="1839.48" r="22.03" style="fill:#000000;stroke:#000000;stroke-width:8.64"/>
	<circle cx="788.29" cy="1839.35" r="22.03" style="fill:#000000;stroke:#000000;stroke-width:8.64"/>
	<circle cx="899.66" cy="1839.35" r="22.03" style="fill:#000000;stroke:#000000;stroke-width:8.64"/>
	<circle cx="1011.04" cy="1839.35" r="22.03" style="fill:#000000;stroke:#000000;stroke-width:8.64"/>
	<circle cx="1122.41" cy="1839.23" r="22.03" style="fill:#000000;stroke:#000000;stroke-width:8.64"/>
	<circle cx="1233.79" cy="1839.11" r="22.03" style="fill:#000000;stroke:#000000;stroke-width:8.64"/>
	<circle cx="1345.16" cy="1838.73" r="22.03" style="fill:#000000;stroke:#000000;stroke-width:8.64"/>
	<circle cx="1456.54" cy="1838.61" r="22.03" style="fill:#000000;stroke:#000000;stroke-width:8.64"/>
	<circle cx="1567.91" cy="1838.36" r="22.03" style="fill:#000000;stroke:#000000;stroke-width:8.64"/>
	<circle cx="1679.29" cy="1838.36" r="22.03" style="fill:#000000;stroke:#000000;stroke-width:8.64"/>
	<circle cx="1790.66" cy="1837.50" r="22.03" style="fill:#000000;stroke:#000000;stroke-width:8.64"/>
	<circle cx="1902.04" cy="1835.39" r="22.03" style="fill:#000000;stroke:#000000;stroke-width:8.64"/>
	<line x1="390.80" y1="2489.19" x2="390.80" y2="100.86" style="stroke:#000000;stroke-width:5.76"/>
	<line x1="390.80" y1="2397.85" x2="350.83" y2="2397.85" style="stroke:#000000;stroke-width:5.76"/>
	<text x="300.72" y="2397.85" style="font-family:'Helvetica';font-size:99.99px;fill:#000000" transform="rotate(-90 300.72,2397.85)" text-anchor="middle">-200</text>
	<line x1="390.80" y1="1839.48" x2="350.83" y2="1839.48" style="stroke:#000000;stroke-width:5.76"/>
	<text x="300.72" y="1839.48" style="font-family:'Helvetica';font-size:99.99px;fill:#000000" transform="rotate(-90 300.72,1839.48)" text-anchor="middle">0</text>
	<line x1="390.80" y1="1280.98" x2="350.83" y2="1280.98" style="stroke:#000000;stroke-width:5.76"/>
	<text x="300.72" y="1280.98" style="font-family:'Helvetica';font-size:99.99px;fill:#000000" transform="rotate(-90 300.72,1280.98)" text-anchor="middle">200</text>
	<line x1="390.80" y1="722.60" x2="350.83" y2="722.60" style="stroke:#000000;stroke-width:5.76"/>
	<text x="300.72" y="722.60" style="font-family:'Helvetica';font-size:99.99px;fill:#000000" transform="rotate(-90 300.72,722.60)" text-anchor="middle">400</text>
	<line x1="390.80" y1="164.22" x2="350.83" y2="164.22" style="stroke:#000000;stroke-width:5.76"/>
	<text x="300.72" y="164.22" style="font-family:'Helvetica';font-size:99.99px;fill:#000000" transform="rotate(-90 300.72,164.22)" text-anchor="middle">600</text>
	<text x="190.71" y="1294.96" style="font-family:'Helvetica';font-size:99.99px;fill:#000000" transform="rotate(-90 190.71,1294.96)" text-anchor="middle">Confirmed cases per 100 beds</text>
	<line x1="390.80" y1="2489.19" x2="3859.02" y2="2489.19" style="stroke:#000000;stroke-width:5.76"/>
	<line x1="454.16" y1="2489.19" x2="454.16" y2="2529.16" style="stroke:#000000;stroke-width:5.76"/>
	<text x="454.16" y="2619.14" style="font-family:'Helvetica';font-size:99.99px;fill:#000000" text-anchor="middle">0</text>
	<line x1="1568.04" y1="2489.19" x2="1568.04" y2="2529.16" style="stroke:#000000;stroke-width:5.76"/>
	<text x="1568.04" y="2619.14" style="font-family:'Helvetica';font-size:99.99px;fill:#000000" text-anchor="middle">10</text>
	<line x1="2681.91" y1="2489.19" x2="2681.91" y2="2529.16" style="stroke:#000000;stroke-width:5.76"/>
	<text x="2681.91" y="2619.14" style="font-family:'Helvetica';font-size:99.99px;fill:#000000" text-anchor="middle">20</text>
	<line x1="3795.66" y1="2489.19" x2="3795.66" y2="2529.16" style="stroke:#000000;stroke-width:5.76"/>
	<text x="3795.66" y="2619.14" style="font-family:'Helvetica';font-size:99.99px;fill:#000000" text-anchor="middle">30</text>
	<text x="2124.91" y="2729.16" style="font-family:'Helvetica';font-size:99.99px;fill:#000000" text-anchor="middle">Days since 0.01 confirmed cases per 100 beds</text>
</svg>
