<?xml version="1.0" encoding="UTF-8" standalone="no"?>
<!-- This is a Stata 14.2 generated SVG file (http://www.stata.com) -->

<svg version="1.1" width="5.50in" height="4.00in" viewBox="0 0 3960 2880" xmlns="http://www.w3.org/2000/svg">
	<desc>Stata Graph - Graph</desc>
	<line x1="390.80" y1="1915.34" x2="3859.02" y2="1915.34" style="stroke:#FF0000;stroke-width:8.64"/>
	<path d="M565.54 1960.26 L565.54 1960.26 L676.91 1960.26 L788.29 1960.26 L899.66 1960.26 L1011.04 1960.26 L1122.41 1960.39 L1233.79 1960.39 L1345.29 1960.39 L1456.66 1960.39 L1568.04 1960.26 L1679.41 1960.14 L1790.79 1959.77 L1902.16 1959.15 L2013.54 1958.28 L2124.91 1956.92 L2236.29 1955.43 L2347.66 1954.20 L2459.04 1953.21 L2570.53 1952.71 L2681.91 1953.08 L2793.28 1955.06 L2904.66 1959.52 L3016.03 1967.93 L3127.41 1982.17 L3238.78 2005.06 L3350.16 2040.21 L3461.53 2092.55 L3572.91 2168.42 L3684.28 2275.96 L3795.66 2425.82 L3795.66 256.91 L3684.28 707.38 L3572.91 1047.33 L3461.53 1301.52 L3350.16 1489.87 L3238.78 1627.86 L3127.41 1728.10 L3016.03 1800.12 L2904.66 1851.23 L2793.28 1887.00 L2681.91 1911.75 L2570.53 1928.70 L2459.04 1939.97 L2347.66 1947.39 L2236.29 1952.09 L2124.91 1954.82 L2013.54 1956.30 L1902.16 1957.41 L1790.79 1958.16 L1679.41 1958.65 L1568.04 1959.15 L1456.66 1959.52 L1345.29 1959.64 L1233.79 1959.89 L1122.41 1960.01 L1011.04 1960.01 L899.66 1960.14 L788.29 1960.14 L676.91 1960.14 L565.54 1960.26 L565.54 1960.26 Z" stroke-linecap="round" style="fill:#EBEBFF;stroke:#E6E6FF;stroke-width:3.00"/>
	<path d="M565.54 1960.26 L565.54 1960.26 L676.91 1960.26 L788.29 1960.26 L899.66 1960.26 L1011.04 1960.26 L1122.41 1960.26 L1233.79 1960.26 L1345.29 1960.14 L1456.66 1960.14 L1568.04 1959.89 L1679.41 1959.64 L1790.79 1959.27 L1902.16 1958.65 L2013.54 1957.66 L2124.91 1956.30 L2236.29 1954.57 L2347.66 1952.22 L2459.04 1949.37 L2570.53 1945.78 L2681.91 1941.20 L2793.28 1935.39 L2904.66 1928.21 L3016.03 1919.42 L3127.41 1908.90 L3238.78 1896.28 L3350.16 1881.43 L3461.53 1864.23 L3572.91 1844.92 L3684.28 1823.27 L3795.66 1799.88 L3795.66 882.86 L3684.28 1160.19 L3572.91 1370.95 L3461.53 1529.85 L3350.16 1648.65 L3238.78 1736.76 L3127.41 1801.49 L3016.03 1848.51 L2904.66 1882.42 L2793.28 1906.68 L2681.91 1923.75 L2570.53 1935.63 L2459.04 1943.80 L2347.66 1949.37 L2236.29 1953.08 L2124.91 1955.43 L2013.54 1956.92 L1902.16 1957.91 L1790.79 1958.65 L1679.41 1959.15 L1568.04 1959.52 L1456.66 1959.77 L1345.29 1959.89 L1233.79 1960.01 L1122.41 1960.14 L1011.04 1960.14 L899.66 1960.14 L788.29 1960.26 L676.91 1960.26 L565.54 1960.26 L565.54 1960.26 Z" stroke-linecap="round" style="fill:#D6D6FF;stroke:#CCCCFF;stroke-width:3.00"/>
	<path d="M565.54 1960.26 L565.54 1960.26 L676.91 1960.26 L788.29 1960.26 L899.66 1960.26 L1011.04 1960.26 L1122.41 1960.26 L1233.79 1960.14 L1345.29 1960.14 L1456.66 1960.01 L1568.04 1959.89 L1679.41 1959.64 L1790.79 1959.27 L1902.16 1958.53 L2013.54 1957.66 L2124.91 1956.18 L2236.29 1954.32 L2347.66 1951.97 L2459.04 1948.75 L2570.53 1944.67 L2681.91 1939.22 L2793.28 1932.17 L2904.66 1923.14 L3016.03 1911.63 L3127.41 1897.02 L3238.78 1878.58 L3350.16 1855.69 L3461.53 1827.35 L3572.91 1792.57 L3684.28 1750.00 L3795.66 1698.52 L3795.66 984.09 L3684.28 1233.33 L3572.91 1423.29 L3461.53 1566.85 L3350.16 1674.39 L3238.78 1754.33 L3127.41 1813.37 L3016.03 1856.31 L2904.66 1887.49 L2793.28 1909.77 L2681.91 1925.61 L2570.53 1936.75 L2459.04 1944.42 L2347.66 1949.74 L2236.29 1953.21 L2124.91 1955.56 L2013.54 1957.04 L1902.16 1958.03 L1790.79 1958.65 L1679.41 1959.15 L1568.04 1959.52 L1456.66 1959.77 L1345.29 1959.89 L1233.79 1960.01 L1122.41 1960.14 L1011.04 1960.14 L899.66 1960.14 L788.29 1960.26 L676.91 1960.26 L565.54 1960.26 L565.54 1960.26 Z" stroke-linecap="round" style="fill:#C2C2FF;stroke:#B3B3FF;stroke-width:3.00"/>
	<path d="M565.54 1960.26 L565.54 1960.26 L676.91 1960.26 L788.29 1960.26 L899.66 1960.26 L1011.04 1960.26 L1122.41 1960.26 L1233.79 1960.14 L1345.29 1960.14 L1456.66 1960.01 L1568.04 1959.89 L1679.41 1959.64 L1790.79 1959.15 L1902.16 1958.53 L2013.54 1957.54 L2124.91 1956.18 L2236.29 1954.20 L2347.66 1951.72 L2459.04 1948.38 L2570.53 1943.93 L2681.91 1937.99 L2793.28 1930.07 L2904.66 1919.79 L3016.03 1906.30 L3127.41 1888.98 L3238.78 1866.70 L3350.16 1838.36 L3461.53 1802.48 L3572.91 1757.18 L3684.28 1700.63 L3795.66 1630.21 L3795.66 1052.40 L3684.28 1282.83 L3572.91 1458.56 L3461.53 1591.72 L3350.16 1691.72 L3238.78 1766.22 L3127.41 1821.29 L3016.03 1861.63 L2904.66 1890.96 L2793.28 1912.00 L2681.91 1926.97 L2570.53 1937.49 L2459.04 1944.92 L2347.66 1949.99 L2236.29 1953.33 L2124.91 1955.56 L2013.54 1957.04 L1902.16 1958.03 L1790.79 1958.78 L1679.41 1959.27 L1568.04 1959.52 L1456.66 1959.77 L1345.29 1959.89 L1233.79 1960.01 L1122.41 1960.14 L1011.04 1960.14 L899.66 1960.14 L788.29 1960.26 L676.91 1960.26 L565.54 1960.26 L565.54 1960.26 Z" stroke-linecap="round" style="fill:#ADADFF;stroke:#9999FF;stroke-width:3.00"/>
	<path d="M565.54 1960.26 L565.54 1960.26 L676.91 1960.26 L788.29 1960.26 L899.66 1960.26 L1011.04 1960.26 L1122.41 1960.14 L1233.79 1960.14 L1345.29 1960.14 L1456.66 1960.01 L1568.04 1959.77 L1679.41 1959.52 L1790.79 1959.15 L1902.16 1958.53 L2013.54 1957.54 L2124.91 1956.05 L2236.29 1954.20 L2347.66 1951.60 L2459.04 1948.01 L2570.53 1943.31 L2681.91 1936.87 L2793.28 1928.33 L2904.66 1917.07 L3016.03 1902.10 L3127.41 1882.67 L3238.78 1857.30 L3350.16 1824.63 L3461.53 1782.67 L3572.91 1729.09 L3684.28 1661.40 L3795.66 1576.01 L3795.66 1106.73 L3684.28 1322.06 L3572.91 1486.66 L3461.53 1611.52 L3350.16 1705.45 L3238.78 1775.74 L3127.41 1827.72 L3016.03 1865.84 L2904.66 1893.68 L2793.28 1913.61 L2681.91 1927.96 L2570.53 1938.11 L2459.04 1945.16 L2347.66 1950.11 L2236.29 1953.45 L2124.91 1955.68 L2013.54 1957.04 L1902.16 1958.03 L1790.79 1958.78 L1679.41 1959.27 L1568.04 1959.52 L1456.66 1959.77 L1345.29 1960.01 L1233.79 1960.01 L1122.41 1960.14 L1011.04 1960.14 L899.66 1960.14 L788.29 1960.26 L676.91 1960.26 L565.54 1960.26 L565.54 1960.26 Z" stroke-linecap="round" style="fill:#9999FF;stroke:#8080FF;stroke-width:3.00"/>
	<path d="M565.54 1960.26 L565.54 1960.26 L676.91 1960.26 L788.29 1960.26 L899.66 1960.26 L1011.04 1960.26 L1122.41 1960.14 L1233.79 1960.14 L1345.29 1960.14 L1456.66 1960.01 L1568.04 1959.77 L1679.41 1959.52 L1790.79 1959.15 L1902.16 1958.40 L2013.54 1957.41 L2124.91 1956.05 L2236.29 1954.07 L2347.66 1951.47 L2459.04 1947.76 L2570.53 1942.81 L2681.91 1936.01 L2793.28 1926.97 L2904.66 1914.72 L3016.03 1898.51 L3127.41 1877.22 L3238.78 1849.13 L3350.16 1812.75 L3461.53 1765.60 L3572.91 1705.08 L3684.28 1627.61 L3795.66 1529.35 L3795.66 1153.39 L3684.28 1355.72 L3572.91 1510.66 L3461.53 1628.48 L3350.16 1717.33 L3238.78 1783.79 L3127.41 1833.17 L3016.03 1869.43 L2904.66 1895.91 L2793.28 1915.09 L2681.91 1928.83 L2570.53 1938.60 L2459.04 1945.53 L2347.66 1950.24 L2236.29 1953.45 L2124.91 1955.68 L2013.54 1957.17 L1902.16 1958.16 L1790.79 1958.78 L1679.41 1959.27 L1568.04 1959.64 L1456.66 1959.77 L1345.29 1960.01 L1233.79 1960.01 L1122.41 1960.14 L1011.04 1960.14 L899.66 1960.14 L788.29 1960.26 L676.91 1960.26 L565.54 1960.26 L565.54 1960.26 Z" stroke-linecap="round" style="fill:#8585FF;stroke:#6666FF;stroke-width:3.00"/>
	<path d="M565.54 1960.26 L565.54 1960.26 L676.91 1960.26 L788.29 1960.26 L899.66 1960.26 L1011.04 1960.26 L1122.41 1960.14 L1233.79 1960.14 L1345.29 1960.01 L1456.66 1960.01 L1568.04 1959.77 L1679.41 1959.52 L1790.79 1959.02 L1902.16 1958.40 L2013.54 1957.41 L2124.91 1956.05 L2236.29 1954.07 L2347.66 1951.35 L2459.04 1947.51 L2570.53 1942.32 L2681.91 1935.26 L2793.28 1925.61 L2904.66 1912.62 L3016.03 1895.29 L3127.41 1872.27 L3238.78 1841.95 L3350.16 1802.10 L3461.53 1750.37 L3572.91 1683.42 L3684.28 1597.41 L3795.66 1487.52 L3795.66 1195.21 L3684.28 1386.04 L3572.91 1532.32 L3461.53 1643.70 L3350.16 1727.98 L3238.78 1791.09 L3127.41 1837.99 L3016.03 1872.64 L2904.66 1898.01 L2793.28 1916.45 L2681.91 1929.69 L2570.53 1939.10 L2459.04 1945.78 L2347.66 1950.36 L2236.29 1953.58 L2124.91 1955.68 L2013.54 1957.17 L1902.16 1958.16 L1790.79 1958.90 L1679.41 1959.27 L1568.04 1959.64 L1456.66 1959.89 L1345.29 1960.01 L1233.79 1960.01 L1122.41 1960.14 L1011.04 1960.14 L899.66 1960.26 L788.29 1960.26 L676.91 1960.26 L565.54 1960.26 L565.54 1960.26 Z" stroke-linecap="round" style="fill:#7171FF;stroke:#4D4DFF;stroke-width:3.00"/>
	<path d="M565.54 1960.26 L565.54 1960.26 L676.91 1960.26 L788.29 1960.26 L899.66 1960.26 L1011.04 1960.26 L1122.41 1960.14 L1233.79 1960.14 L1345.29 1960.01 L1456.66 1959.89 L1568.04 1959.77 L1679.41 1959.52 L1790.79 1959.02 L1902.16 1958.40 L2013.54 1957.41 L2124.91 1955.93 L2236.29 1953.95 L2347.66 1951.23 L2459.04 1947.27 L2570.53 1941.95 L2681.91 1934.52 L2793.28 1924.37 L2904.66 1910.76 L3016.03 1892.32 L3127.41 1867.69 L3238.78 1835.15 L3350.16 1792.33 L3461.53 1736.27 L3572.91 1663.38 L3684.28 1569.32 L3795.66 1448.79 L3795.66 1233.95 L3684.28 1414.01 L3572.91 1552.37 L3461.53 1657.93 L3350.16 1737.75 L3238.78 1797.77 L3127.41 1842.57 L3016.03 1875.74 L2904.66 1899.99 L2793.28 1917.69 L2681.91 1930.44 L2570.53 1939.47 L2459.04 1946.03 L2347.66 1950.48 L2236.29 1953.58 L2124.91 1955.81 L2013.54 1957.17 L1902.16 1958.16 L1790.79 1958.90 L1679.41 1959.27 L1568.04 1959.64 L1456.66 1959.89 L1345.29 1960.01 L1233.79 1960.14 L1122.41 1960.14 L1011.04 1960.14 L899.66 1960.26 L788.29 1960.26 L676.91 1960.26 L565.54 1960.26 L565.54 1960.26 Z" stroke-linecap="round" style="fill:#5C5CFF;stroke:#3333FF;stroke-width:3.00"/>
	<path d="M565.54 1960.26 L565.54 1960.26 L676.91 1960.26 L788.29 1960.26 L899.66 1960.26 L1011.04 1960.14 L1122.41 1960.14 L1233.79 1960.14 L1345.29 1960.01 L1456.66 1959.89 L1568.04 1959.77 L1679.41 1959.39 L1790.79 1959.02 L1902.16 1958.40 L2013.54 1957.41 L2124.91 1955.93 L2236.29 1953.95 L2347.66 1951.10 L2459.04 1947.02 L2570.53 1941.45 L2681.91 1933.78 L2793.28 1923.26 L2904.66 1908.90 L3016.03 1889.47 L3127.41 1863.49 L3238.78 1828.83 L3350.16 1782.92 L3461.53 1722.78 L3572.91 1644.44 L3684.28 1542.72 L3795.66 1411.91 L3795.66 1270.70 L3684.28 1440.62 L3572.91 1571.43 L3461.53 1671.30 L3350.16 1747.16 L3238.78 1804.21 L3127.41 1846.90 L3016.03 1878.58 L2904.66 1901.85 L2793.28 1918.80 L2681.91 1931.06 L2570.53 1939.97 L2459.04 1946.15 L2347.66 1950.61 L2236.29 1953.70 L2124.91 1955.81 L2013.54 1957.29 L1902.16 1958.28 L1790.79 1958.90 L1679.41 1959.39 L1568.04 1959.64 L1456.66 1959.89 L1345.29 1960.01 L1233.79 1960.14 L1122.41 1960.14 L1011.04 1960.14 L899.66 1960.26 L788.29 1960.26 L676.91 1960.26 L565.54 1960.26 L565.54 1960.26 Z" stroke-linecap="round" style="fill:#4747FF;stroke:#1919FF;stroke-width:3.00"/>
	<path d="M565.54 1960.26 L565.54 1960.26 L676.91 1960.26 L788.29 1960.26 L899.66 1960.26 L1011.04 1960.14 L1122.41 1960.14 L1233.79 1960.14 L1345.29 1960.01 L1456.66 1959.89 L1568.04 1959.77 L1679.41 1959.39 L1790.79 1959.02 L1902.16 1958.28 L2013.54 1957.29 L2124.91 1955.93 L2236.29 1953.83 L2347.66 1950.98 L2459.04 1946.90 L2570.53 1941.08 L2681.91 1933.16 L2793.28 1922.15 L2904.66 1907.05 L3016.03 1886.75 L3127.41 1859.28 L3238.78 1822.65 L3350.16 1773.89 L3461.53 1709.78 L3572.91 1626.00 L3684.28 1517.10 L3795.66 1376.39 L3795.66 1306.35 L3684.28 1466.36 L3572.91 1589.74 L3461.53 1684.29 L3350.16 1756.19 L3238.78 1810.40 L3127.41 1851.11 L3016.03 1881.31 L2904.66 1903.58 L2793.28 1919.92 L2681.91 1931.80 L2570.53 1940.34 L2459.04 1946.40 L2347.66 1950.73 L2236.29 1953.70 L2124.91 1955.81 L2013.54 1957.29 L1902.16 1958.28 L1790.79 1958.90 L1679.41 1959.39 L1568.04 1959.64 L1456.66 1959.89 L1345.29 1960.01 L1233.79 1960.14 L1122.41 1960.14 L1011.04 1960.14 L899.66 1960.26 L788.29 1960.26 L676.91 1960.26 L565.54 1960.26 L565.54 1960.26 Z" stroke-linecap="round" style="fill:#3333FF;stroke:#0000FF;stroke-width:3.00"/>
	<circle cx="565.41" cy="1960.01" r="22.03" style="fill:#000000;stroke:#000000;stroke-width:8.64"/>
	<circle cx="676.79" cy="1960.01" r="22.03" style="fill:#000000;stroke:#000000;stroke-width:8.64"/>
	<circle cx="788.29" cy="1960.01" r="22.03" style="fill:#000000;stroke:#000000;stroke-width:8.64"/>
	<circle cx="899.66" cy="1960.01" r="22.03" style="fill:#000000;stroke:#000000;stroke-width:8.64"/>
	<circle cx="1011.04" cy="1959.64" r="22.03" style="fill:#000000;stroke:#000000;stroke-width:8.64"/>
	<circle cx="1122.41" cy="1959.64" r="22.03" style="fill:#000000;stroke:#000000;stroke-width:8.64"/>
	<circle cx="1233.79" cy="1959.64" r="22.03" style="fill:#000000;stroke:#000000;stroke-width:8.64"/>
	<circle cx="1345.16" cy="1959.52" r="22.03" style="fill:#000000;stroke:#000000;stroke-width:8.64"/>
	<circle cx="1456.54" cy="1959.52" r="22.03" style="fill:#000000;stroke:#000000;stroke-width:8.64"/>
	<circle cx="1567.91" cy="1959.39" r="22.03" style="fill:#000000;stroke:#000000;stroke-width:8.64"/>
	<circle cx="1679.29" cy="1959.15" r="22.03" style="fill:#000000;stroke:#000000;stroke-width:8.64"/>
	<circle cx="1790.66" cy="1959.15" r="22.03" style="fill:#000000;stroke:#000000;stroke-width:8.64"/>
	<circle cx="1902.04" cy="1958.28" r="22.03" style="fill:#000000;stroke:#000000;stroke-width:8.64"/>
	<circle cx="2013.54" cy="1958.28" r="22.03" style="fill:#000000;stroke:#000000;stroke-width:8.64"/>
	<circle cx="2124.91" cy="1956.18" r="22.03" style="fill:#000000;stroke:#000000;stroke-width:8.64"/>
	<circle cx="2236.29" cy="1953.33" r="22.03" style="fill:#000000;stroke:#000000;stroke-width:8.64"/>
	<line x1="390.80" y1="2489.19" x2="390.80" y2="100.86" style="stroke:#000000;stroke-width:5.76"/>
	<line x1="390.80" y1="2409.24" x2="350.83" y2="2409.24" style="stroke:#000000;stroke-width:5.76"/>
	<text x="300.72" y="2409.24" style="font-family:'Helvetica';font-size:99.99px;fill:#000000" transform="rotate(-90 300.72,2409.24)" text-anchor="middle">-100</text>
	<line x1="390.80" y1="1960.26" x2="350.83" y2="1960.26" style="stroke:#000000;stroke-width:5.76"/>
	<text x="300.72" y="1960.26" style="font-family:'Helvetica';font-size:99.99px;fill:#000000" transform="rotate(-90 300.72,1960.26)" text-anchor="middle">0</text>
	<line x1="390.80" y1="1511.28" x2="350.83" y2="1511.28" style="stroke:#000000;stroke-width:5.76"/>
	<text x="300.72" y="1511.28" style="font-family:'Helvetica';font-size:99.99px;fill:#000000" transform="rotate(-90 300.72,1511.28)" text-anchor="middle">100</text>
	<line x1="390.80" y1="1062.18" x2="350.83" y2="1062.18" style="stroke:#000000;stroke-width:5.76"/>
	<text x="300.72" y="1062.18" style="font-family:'Helvetica';font-size:99.99px;fill:#000000" transform="rotate(-90 300.72,1062.18)" text-anchor="middle">200</text>
	<line x1="390.80" y1="613.20" x2="350.83" y2="613.20" style="stroke:#000000;stroke-width:5.76"/>
	<text x="300.72" y="613.20" style="font-family:'Helvetica';font-size:99.99px;fill:#000000" transform="rotate(-90 300.72,613.20)" text-anchor="middle">300</text>
	<line x1="390.80" y1="164.22" x2="350.83" y2="164.22" style="stroke:#000000;stroke-width:5.76"/>
	<text x="300.72" y="164.22" style="font-family:'Helvetica';font-size:99.99px;fill:#000000" transform="rotate(-90 300.72,164.22)" text-anchor="middle">400</text>
	<text x="190.71" y="1294.96" style="font-family:'Helvetica';font-size:99.99px;fill:#000000" transform="rotate(-90 190.71,1294.96)" text-anchor="middle">Confirmed cases per 100 beds</text>
	<line x1="390.80" y1="2489.19" x2="3859.02" y2="2489.19" style="stroke:#000000;stroke-width:5.76"/>
	<line x1="454.16" y1="2489.19" x2="454.16" y2="2529.16" style="stroke:#000000;stroke-width:5.76"/>
	<text x="454.16" y="2619.14" style="font-family:'Helvetica';font-size:99.99px;fill:#000000" text-anchor="middle">0</text>
	<line x1="1568.04" y1="2489.19" x2="1568.04" y2="2529.16" style="stroke:#000000;stroke-width:5.76"/>
	<text x="1568.04" y="2619.14" style="font-family:'Helvetica';font-size:99.99px;fill:#000000" text-anchor="middle">10</text>
	<line x1="2681.91" y1="2489.19" x2="2681.91" y2="2529.16" style="stroke:#000000;stroke-width:5.76"/>
	<text x="2681.91" y="2619.14" style="font-family:'Helvetica';font-size:99.99px;fill:#000000" text-anchor="middle">20</text>
	<line x1="3795.66" y1="2489.19" x2="3795.66" y2="2529.16" style="stroke:#000000;stroke-width:5.76"/>
	<text x="3795.66" y="2619.14" style="font-family:'Helvetica';font-size:99.99px;fill:#000000" text-anchor="middle">30</text>
	<text x="2124.91" y="2729.16" style="font-family:'Helvetica';font-size:99.99px;fill:#000000" text-anchor="middle">Days since 0.01 confirmed cases per 100 beds</text>
</svg>
