<?xml version="1.0" encoding="UTF-8" standalone="no"?>
<!-- This is a Stata 14.2 generated SVG file (http://www.stata.com) -->

<svg version="1.1" width="5.50in" height="4.00in" viewBox="0 0 3960 2880" xmlns="http://www.w3.org/2000/svg">
	<desc>Stata Graph - Graph</desc>
	<line x1="390.80" y1="1724.63" x2="3859.02" y2="1724.63" style="stroke:#FF0000;stroke-width:8.64"/>
	<path d="M565.54 1725.01 L565.54 1725.01 L676.91 1725.01 L788.29 1725.01 L899.66 1725.01 L1011.04 1725.01 L1122.41 1725.01 L1233.79 1725.01 L1345.29 1725.01 L1456.66 1725.01 L1568.04 1725.01 L1679.41 1725.01 L1790.79 1725.01 L1902.16 1724.88 L2013.54 1724.88 L2124.91 1724.76 L2236.29 1724.76 L2347.66 1725.13 L2459.04 1726.12 L2570.53 1728.72 L2681.91 1734.16 L2793.28 1744.81 L2904.66 1764.11 L3016.03 1797.15 L3127.41 1851.23 L3238.78 1935.51 L3350.16 2062.11 L3461.53 2245.39 L3461.53 164.22 L3350.16 691.41 L3238.78 1059.09 L3127.41 1308.45 L3016.03 1472.55 L2904.66 1577.12 L2793.28 1641.47 L2681.91 1679.71 L2570.53 1701.49 L2459.04 1713.37 L2347.66 1719.56 L2236.29 1722.65 L2124.91 1724.02 L2013.54 1724.63 L1902.16 1724.88 L1790.79 1725.01 L1679.41 1725.01 L1568.04 1725.01 L1456.66 1725.01 L1345.29 1725.01 L1233.79 1725.01 L1122.41 1725.01 L1011.04 1725.01 L899.66 1725.01 L788.29 1725.01 L676.91 1725.01 L565.54 1725.01 L565.54 1725.01 Z" stroke-linecap="round" style="fill:#EBEBFF;stroke:#E6E6FF;stroke-width:3.00"/>
	<path d="M565.54 1725.01 L565.54 1725.01 L676.91 1725.01 L788.29 1725.01 L899.66 1725.01 L1011.04 1725.01 L1122.41 1725.01 L1233.79 1725.01 L1345.29 1725.01 L1456.66 1725.01 L1568.04 1725.01 L1679.41 1725.01 L1790.79 1725.01 L1902.16 1724.88 L2013.54 1724.76 L2124.91 1724.51 L2236.29 1724.14 L2347.66 1723.52 L2459.04 1722.41 L2570.53 1720.80 L2681.91 1718.45 L2793.28 1714.98 L2904.66 1710.15 L3016.03 1703.47 L3127.41 1694.56 L3238.78 1682.56 L3350.16 1666.47 L3461.53 1644.69 L3461.53 764.80 L3350.16 1086.93 L3238.78 1312.04 L3127.41 1465.12 L3016.03 1566.23 L2904.66 1631.08 L2793.28 1671.30 L2681.91 1695.43 L2570.53 1709.29 L2459.04 1717.08 L2347.66 1721.17 L2236.29 1723.27 L2124.91 1724.26 L2013.54 1724.76 L1902.16 1724.88 L1790.79 1725.01 L1679.41 1725.01 L1568.04 1725.01 L1456.66 1725.01 L1345.29 1725.01 L1233.79 1725.01 L1122.41 1725.01 L1011.04 1725.01 L899.66 1725.01 L788.29 1725.01 L676.91 1725.01 L565.54 1725.01 L565.54 1725.01 Z" stroke-linecap="round" style="fill:#D6D6FF;stroke:#CCCCFF;stroke-width:3.00"/>
	<path d="M565.54 1725.01 L565.54 1725.01 L676.91 1725.01 L788.29 1725.01 L899.66 1725.01 L1011.04 1725.01 L1122.41 1725.01 L1233.79 1725.01 L1345.29 1725.01 L1456.66 1725.01 L1568.04 1725.01 L1679.41 1725.01 L1790.79 1725.01 L1902.16 1724.88 L2013.54 1724.76 L2124.91 1724.51 L2236.29 1724.02 L2347.66 1723.27 L2459.04 1721.91 L2570.53 1719.56 L2681.91 1715.85 L2793.28 1710.15 L2904.66 1701.37 L3016.03 1688.37 L3127.41 1669.19 L3238.78 1641.60 L3350.16 1602.49 L3461.53 1547.54 L3461.53 861.95 L3350.16 1150.91 L3238.78 1352.88 L3127.41 1490.37 L3016.03 1581.33 L2904.66 1639.74 L2793.28 1676.12 L2681.91 1697.90 L2570.53 1710.65 L2459.04 1717.70 L2347.66 1721.42 L2236.29 1723.40 L2124.91 1724.26 L2013.54 1724.76 L1902.16 1724.88 L1790.79 1725.01 L1679.41 1725.01 L1568.04 1725.01 L1456.66 1725.01 L1345.29 1725.01 L1233.79 1725.01 L1122.41 1725.01 L1011.04 1725.01 L899.66 1725.01 L788.29 1725.01 L676.91 1725.01 L565.54 1725.01 L565.54 1725.01 Z" stroke-linecap="round" style="fill:#C2C2FF;stroke:#B3B3FF;stroke-width:3.00"/>
	<path d="M565.54 1725.01 L565.54 1725.01 L676.91 1725.01 L788.29 1725.01 L899.66 1725.01 L1011.04 1725.01 L1122.41 1725.01 L1233.79 1725.01 L1345.29 1725.01 L1456.66 1725.01 L1568.04 1725.01 L1679.41 1725.01 L1790.79 1725.01 L1902.16 1724.88 L2013.54 1724.76 L2124.91 1724.51 L2236.29 1724.02 L2347.66 1723.03 L2459.04 1721.42 L2570.53 1718.69 L2681.91 1714.11 L2793.28 1706.94 L2904.66 1695.55 L3016.03 1678.10 L3127.41 1652.11 L3238.78 1614.00 L3350.16 1559.30 L3461.53 1481.95 L3461.53 927.54 L3350.16 1194.10 L3238.78 1380.60 L3127.41 1507.57 L3016.03 1591.60 L2904.66 1645.68 L2793.28 1679.34 L2681.91 1699.64 L2570.53 1711.52 L2459.04 1718.07 L2347.66 1721.66 L2236.29 1723.40 L2124.91 1724.26 L2013.54 1724.76 L1902.16 1724.88 L1790.79 1725.01 L1679.41 1725.01 L1568.04 1725.01 L1456.66 1725.01 L1345.29 1725.01 L1233.79 1725.01 L1122.41 1725.01 L1011.04 1725.01 L899.66 1725.01 L788.29 1725.01 L676.91 1725.01 L565.54 1725.01 L565.54 1725.01 Z" stroke-linecap="round" style="fill:#ADADFF;stroke:#9999FF;stroke-width:3.00"/>
	<path d="M565.54 1725.01 L565.54 1725.01 L676.91 1725.01 L788.29 1725.01 L899.66 1725.01 L1011.04 1725.01 L1122.41 1725.01 L1233.79 1725.01 L1345.29 1725.01 L1456.66 1725.01 L1568.04 1725.01 L1679.41 1725.01 L1790.79 1725.01 L1902.16 1724.88 L2013.54 1724.76 L2124.91 1724.51 L2236.29 1723.89 L2347.66 1722.90 L2459.04 1721.17 L2570.53 1718.07 L2681.91 1712.75 L2793.28 1704.34 L2904.66 1690.85 L3016.03 1669.93 L3127.41 1638.50 L3238.78 1592.09 L3350.16 1525.02 L3461.53 1429.85 L3461.53 979.64 L3350.16 1228.50 L3238.78 1402.50 L3127.41 1521.06 L3016.03 1599.77 L2904.66 1650.38 L2793.28 1681.94 L2681.91 1701.00 L2570.53 1712.13 L2459.04 1718.32 L2347.66 1721.79 L2236.29 1723.52 L2124.91 1724.39 L2013.54 1724.76 L1902.16 1724.88 L1790.79 1725.01 L1679.41 1725.01 L1568.04 1725.01 L1456.66 1725.01 L1345.29 1725.01 L1233.79 1725.01 L1122.41 1725.01 L1011.04 1725.01 L899.66 1725.01 L788.29 1725.01 L676.91 1725.01 L565.54 1725.01 L565.54 1725.01 Z" stroke-linecap="round" style="fill:#9999FF;stroke:#8080FF;stroke-width:3.00"/>
	<path d="M565.54 1725.01 L565.54 1725.01 L676.91 1725.01 L788.29 1725.01 L899.66 1725.01 L1011.04 1725.01 L1122.41 1725.01 L1233.79 1725.01 L1345.29 1725.01 L1456.66 1725.01 L1568.04 1725.01 L1679.41 1725.01 L1790.79 1725.01 L1902.16 1724.88 L2013.54 1724.76 L2124.91 1724.51 L2236.29 1723.89 L2347.66 1722.78 L2459.04 1720.92 L2570.53 1717.46 L2681.91 1711.64 L2793.28 1702.11 L2904.66 1686.77 L3016.03 1663.00 L3127.41 1626.87 L3238.78 1573.28 L3350.16 1495.57 L3461.53 1385.18 L3461.53 1024.31 L3350.16 1257.96 L3238.78 1421.31 L3127.41 1532.82 L3016.03 1606.70 L2904.66 1654.34 L2793.28 1684.17 L2681.91 1702.23 L2570.53 1712.75 L2459.04 1718.69 L2347.66 1721.91 L2236.29 1723.52 L2124.91 1724.39 L2013.54 1724.76 L1902.16 1724.88 L1790.79 1725.01 L1679.41 1725.01 L1568.04 1725.01 L1456.66 1725.01 L1345.29 1725.01 L1233.79 1725.01 L1122.41 1725.01 L1011.04 1725.01 L899.66 1725.01 L788.29 1725.01 L676.91 1725.01 L565.54 1725.01 L565.54 1725.01 Z" stroke-linecap="round" style="fill:#8585FF;stroke:#6666FF;stroke-width:3.00"/>
	<path d="M565.54 1725.01 L565.54 1725.01 L676.91 1725.01 L788.29 1725.01 L899.66 1725.01 L1011.04 1725.01 L1122.41 1725.01 L1233.79 1725.01 L1345.29 1725.01 L1456.66 1725.01 L1568.04 1725.01 L1679.41 1725.01 L1790.79 1725.01 L1902.16 1724.88 L2013.54 1724.76 L2124.91 1724.51 L2236.29 1723.89 L2347.66 1722.65 L2459.04 1720.67 L2570.53 1716.96 L2681.91 1710.53 L2793.28 1700.13 L2904.66 1683.18 L3016.03 1656.69 L3127.41 1616.35 L3238.78 1556.33 L3350.16 1469.08 L3461.53 1345.08 L3461.53 1064.53 L3350.16 1284.32 L3238.78 1438.27 L3127.41 1543.21 L3016.03 1613.01 L2904.66 1657.93 L2793.28 1686.15 L2681.91 1703.22 L2570.53 1713.25 L2459.04 1718.94 L2347.66 1721.91 L2236.29 1723.52 L2124.91 1724.39 L2013.54 1724.76 L1902.16 1724.88 L1790.79 1725.01 L1679.41 1725.01 L1568.04 1725.01 L1456.66 1725.01 L1345.29 1725.01 L1233.79 1725.01 L1122.41 1725.01 L1011.04 1725.01 L899.66 1725.01 L788.29 1725.01 L676.91 1725.01 L565.54 1725.01 L565.54 1725.01 Z" stroke-linecap="round" style="fill:#7171FF;stroke:#4D4DFF;stroke-width:3.00"/>
	<path d="M565.54 1725.01 L565.54 1725.01 L676.91 1725.01 L788.29 1725.01 L899.66 1725.01 L1011.04 1725.01 L1122.41 1725.01 L1233.79 1725.01 L1345.29 1725.01 L1456.66 1725.01 L1568.04 1725.01 L1679.41 1725.01 L1790.79 1725.01 L1902.16 1724.88 L2013.54 1724.76 L2124.91 1724.51 L2236.29 1723.77 L2347.66 1722.65 L2459.04 1720.43 L2570.53 1716.47 L2681.91 1709.66 L2793.28 1698.27 L2904.66 1679.83 L3016.03 1650.88 L3127.41 1606.70 L3238.78 1540.74 L3350.16 1444.58 L3461.53 1307.83 L3461.53 1101.66 L3350.16 1308.82 L3238.78 1453.86 L3127.41 1552.99 L3016.03 1618.82 L2904.66 1661.40 L2793.28 1688.00 L2681.91 1704.21 L2570.53 1713.74 L2459.04 1719.19 L2347.66 1722.04 L2236.29 1723.64 L2124.91 1724.39 L2013.54 1724.76 L1902.16 1724.88 L1790.79 1725.01 L1679.41 1725.01 L1568.04 1725.01 L1456.66 1725.01 L1345.29 1725.01 L1233.79 1725.01 L1122.41 1725.01 L1011.04 1725.01 L899.66 1725.01 L788.29 1725.01 L676.91 1725.01 L565.54 1725.01 L565.54 1725.01 Z" stroke-linecap="round" style="fill:#5C5CFF;stroke:#3333FF;stroke-width:3.00"/>
	<path d="M565.54 1725.01 L565.54 1725.01 L676.91 1725.01 L788.29 1725.01 L899.66 1725.01 L1011.04 1725.01 L1122.41 1725.01 L1233.79 1725.01 L1345.29 1725.01 L1456.66 1725.01 L1568.04 1725.01 L1679.41 1725.01 L1790.79 1725.01 L1902.16 1724.88 L2013.54 1724.76 L2124.91 1724.39 L2236.29 1723.77 L2347.66 1722.53 L2459.04 1720.18 L2570.53 1715.97 L2681.91 1708.67 L2793.28 1696.54 L2904.66 1676.74 L3016.03 1645.43 L3127.41 1597.54 L3238.78 1525.89 L3350.16 1421.31 L3461.53 1272.56 L3461.53 1137.05 L3350.16 1332.09 L3238.78 1468.71 L3127.41 1562.15 L3016.03 1624.27 L2904.66 1664.49 L2793.28 1689.74 L2681.91 1705.20 L2570.53 1714.24 L2459.04 1719.31 L2347.66 1722.16 L2236.29 1723.64 L2124.91 1724.39 L2013.54 1724.76 L1902.16 1724.88 L1790.79 1725.01 L1679.41 1725.01 L1568.04 1725.01 L1456.66 1725.01 L1345.29 1725.01 L1233.79 1725.01 L1122.41 1725.01 L1011.04 1725.01 L899.66 1725.01 L788.29 1725.01 L676.91 1725.01 L565.54 1725.01 L565.54 1725.01 Z" stroke-linecap="round" style="fill:#4747FF;stroke:#1919FF;stroke-width:3.00"/>
	<path d="M565.54 1725.01 L565.54 1725.01 L676.91 1725.01 L788.29 1725.01 L899.66 1725.01 L1011.04 1725.01 L1122.41 1725.01 L1233.79 1725.01 L1345.29 1725.01 L1456.66 1725.01 L1568.04 1725.01 L1679.41 1725.01 L1790.79 1725.01 L1902.16 1724.88 L2013.54 1724.76 L2124.91 1724.39 L2236.29 1723.77 L2347.66 1722.41 L2459.04 1719.93 L2570.53 1715.48 L2681.91 1707.80 L2793.28 1694.81 L2904.66 1673.65 L3016.03 1640.11 L3127.41 1588.63 L3238.78 1511.41 L3350.16 1398.79 L3461.53 1238.40 L3461.53 1171.21 L3350.16 1354.61 L3238.78 1483.19 L3127.41 1571.06 L3016.03 1629.59 L2904.66 1667.58 L2793.28 1691.47 L2681.91 1706.07 L2570.53 1714.61 L2459.04 1719.56 L2347.66 1722.28 L2236.29 1723.64 L2124.91 1724.39 L2013.54 1724.76 L1902.16 1724.88 L1790.79 1725.01 L1679.41 1725.01 L1568.04 1725.01 L1456.66 1725.01 L1345.29 1725.01 L1233.79 1725.01 L1122.41 1725.01 L1011.04 1725.01 L899.66 1725.01 L788.29 1725.01 L676.91 1725.01 L565.54 1725.01 L565.54 1725.01 Z" stroke-linecap="round" style="fill:#3333FF;stroke:#0000FF;stroke-width:3.00"/>
	<circle cx="565.41" cy="1725.13" r="22.03" style="fill:#000000;stroke:#000000;stroke-width:8.64"/>
	<circle cx="676.79" cy="1725.13" r="22.03" style="fill:#000000;stroke:#000000;stroke-width:8.64"/>
	<circle cx="788.29" cy="1725.13" r="22.03" style="fill:#000000;stroke:#000000;stroke-width:8.64"/>
	<circle cx="899.66" cy="1725.13" r="22.03" style="fill:#000000;stroke:#000000;stroke-width:8.64"/>
	<circle cx="1011.04" cy="1725.13" r="22.03" style="fill:#000000;stroke:#000000;stroke-width:8.64"/>
	<circle cx="1122.41" cy="1725.13" r="22.03" style="fill:#000000;stroke:#000000;stroke-width:8.64"/>
	<circle cx="1233.79" cy="1725.13" r="22.03" style="fill:#000000;stroke:#000000;stroke-width:8.64"/>
	<circle cx="1345.16" cy="1725.13" r="22.03" style="fill:#000000;stroke:#000000;stroke-width:8.64"/>
	<circle cx="1456.54" cy="1725.13" r="22.03" style="fill:#000000;stroke:#000000;stroke-width:8.64"/>
	<circle cx="1567.91" cy="1725.13" r="22.03" style="fill:#000000;stroke:#000000;stroke-width:8.64"/>
	<circle cx="1679.29" cy="1725.13" r="22.03" style="fill:#000000;stroke:#000000;stroke-width:8.64"/>
	<circle cx="1790.66" cy="1725.01" r="22.03" style="fill:#000000;stroke:#000000;stroke-width:8.64"/>
	<circle cx="1902.04" cy="1725.01" r="22.03" style="fill:#000000;stroke:#000000;stroke-width:8.64"/>
	<line x1="390.80" y1="2489.19" x2="390.80" y2="100.86" style="stroke:#000000;stroke-width:5.76"/>
	<line x1="390.80" y1="2425.82" x2="350.83" y2="2425.82" style="stroke:#000000;stroke-width:5.76"/>
	<text x="300.72" y="2425.82" style="font-family:'Helvetica';font-size:99.99px;fill:#000000" transform="rotate(-90 300.72,2425.82)" text-anchor="middle">-20000</text>
	<line x1="390.80" y1="1725.01" x2="350.83" y2="1725.01" style="stroke:#000000;stroke-width:5.76"/>
	<text x="300.72" y="1725.01" style="font-family:'Helvetica';font-size:99.99px;fill:#000000" transform="rotate(-90 300.72,1725.01)" text-anchor="middle">0</text>
	<line x1="390.80" y1="1024.19" x2="350.83" y2="1024.19" style="stroke:#000000;stroke-width:5.76"/>
	<text x="300.72" y="1024.19" style="font-family:'Helvetica';font-size:99.99px;fill:#000000" transform="rotate(-90 300.72,1024.19)" text-anchor="middle">20000</text>
	<line x1="390.80" y1="323.37" x2="350.83" y2="323.37" style="stroke:#000000;stroke-width:5.76"/>
	<text x="300.72" y="323.37" style="font-family:'Helvetica';font-size:99.99px;fill:#000000" transform="rotate(-90 300.72,323.37)" text-anchor="middle">40000</text>
	<text x="190.71" y="1294.96" style="font-family:'Helvetica';font-size:99.99px;fill:#000000" transform="rotate(-90 190.71,1294.96)" text-anchor="middle">Confirmed cases per 100 beds</text>
	<line x1="390.80" y1="2489.19" x2="3859.02" y2="2489.19" style="stroke:#000000;stroke-width:5.76"/>
	<line x1="454.16" y1="2489.19" x2="454.16" y2="2529.16" style="stroke:#000000;stroke-width:5.76"/>
	<text x="454.16" y="2619.14" style="font-family:'Helvetica';font-size:99.99px;fill:#000000" text-anchor="middle">0</text>
	<line x1="1568.04" y1="2489.19" x2="1568.04" y2="2529.16" style="stroke:#000000;stroke-width:5.76"/>
	<text x="1568.04" y="2619.14" style="font-family:'Helvetica';font-size:99.99px;fill:#000000" text-anchor="middle">10</text>
	<line x1="2681.91" y1="2489.19" x2="2681.91" y2="2529.16" style="stroke:#000000;stroke-width:5.76"/>
	<text x="2681.91" y="2619.14" style="font-family:'Helvetica';font-size:99.99px;fill:#000000" text-anchor="middle">20</text>
	<line x1="3795.66" y1="2489.19" x2="3795.66" y2="2529.16" style="stroke:#000000;stroke-width:5.76"/>
	<text x="3795.66" y="2619.14" style="font-family:'Helvetica';font-size:99.99px;fill:#000000" text-anchor="middle">30</text>
	<text x="2124.91" y="2729.16" style="font-family:'Helvetica';font-size:99.99px;fill:#000000" text-anchor="middle">Days since 0.01 confirmed cases per 100 beds</text>
</svg>
