<?xml version="1.0" encoding="UTF-8" standalone="no"?>
<!-- This is a Stata 14.2 generated SVG file (http://www.stata.com) -->

<svg version="1.1" width="5.50in" height="4.00in" viewBox="0 0 3960 2880" xmlns="http://www.w3.org/2000/svg">
	<desc>Stata Graph - Graph</desc>
	<line x1="390.80" y1="1871.53" x2="3859.02" y2="1871.53" style="stroke:#FF0000;stroke-width:8.64"/>
	<path d="M606.00 2378.30 L606.00 2378.30 L757.97 2376.45 L909.81 2373.72 L1061.65 2370.26 L1213.62 2365.56 L1365.46 2359.86 L1517.42 2353.67 L1669.26 2347.24 L1821.11 2340.43 L1973.07 2333.38 L2124.91 2325.95 L2276.88 2318.65 L2428.72 2311.60 L2580.56 2305.29 L2732.52 2300.34 L2884.36 2297.86 L3036.33 2298.85 L3188.17 2304.79 L3340.01 2317.91 L3491.98 2340.31 L3643.82 2375.08 L3795.66 2425.82 L3795.66 164.22 L3643.82 615.68 L3491.98 982.23 L3340.01 1278.38 L3188.17 1516.60 L3036.33 1707.06 L2884.36 1858.66 L2732.52 1978.58 L2580.56 2072.88 L2428.72 2146.63 L2276.88 2203.81 L2124.91 2247.99 L1973.07 2281.77 L1821.11 2307.27 L1669.26 2326.33 L1517.42 2340.19 L1365.46 2349.84 L1213.62 2356.64 L1061.65 2361.60 L909.81 2365.56 L757.97 2368.65 L606.00 2371.25 L606.00 2378.30 Z" stroke-linecap="round" style="fill:#EBEBFF;stroke:#E6E6FF;stroke-width:3.00"/>
	<path d="M606.00 2376.20 L606.00 2376.20 L757.97 2374.09 L909.81 2371.37 L1061.65 2367.78 L1213.62 2362.96 L1365.46 2357.02 L1517.42 2349.71 L1669.26 2341.18 L1821.11 2330.90 L1973.07 2318.40 L2124.91 2303.55 L2276.88 2285.49 L2428.72 2263.95 L2580.56 2238.21 L2732.52 2207.52 L2884.36 2171.01 L3036.33 2128.07 L3188.17 2077.33 L3340.01 2017.81 L3491.98 1948.26 L3643.82 1867.20 L3795.66 1773.15 L3795.66 816.90 L3643.82 1123.44 L3491.98 1374.16 L3340.01 1578.36 L3188.17 1744.06 L3036.33 1877.84 L2884.36 1985.38 L2732.52 2071.39 L2580.56 2139.95 L2428.72 2194.16 L2276.88 2236.97 L2124.91 2270.51 L1973.07 2296.62 L1821.11 2316.80 L1669.26 2332.39 L1517.42 2344.02 L1365.46 2352.68 L1213.62 2359.24 L1061.65 2364.07 L909.81 2367.91 L757.97 2370.88 L606.00 2373.23 L606.00 2376.20 Z" stroke-linecap="round" style="fill:#D6D6FF;stroke:#CCCCFF;stroke-width:3.00"/>
	<path d="M606.00 2375.83 L606.00 2375.83 L757.97 2373.85 L909.81 2371.00 L1061.65 2367.29 L1213.62 2362.59 L1365.46 2356.52 L1517.42 2349.10 L1669.26 2340.19 L1821.11 2329.30 L1973.07 2316.05 L2124.91 2299.84 L2276.88 2280.17 L2428.72 2256.28 L2580.56 2227.32 L2732.52 2192.42 L2884.36 2150.59 L3036.33 2100.35 L3188.17 2040.58 L3340.01 1969.30 L3491.98 1884.90 L3643.82 1785.15 L3795.66 1667.46 L3795.66 922.46 L3643.82 1205.61 L3491.98 1437.52 L3340.01 1626.99 L3188.17 1780.82 L3036.33 1905.44 L2884.36 2005.93 L2732.52 2086.49 L2580.56 2150.72 L2428.72 2201.95 L2276.88 2242.30 L2124.91 2274.10 L1973.07 2299.10 L1821.11 2318.40 L1669.26 2333.26 L1517.42 2344.64 L1365.46 2353.18 L1213.62 2359.61 L1061.65 2364.44 L909.81 2368.28 L757.97 2371.25 L606.00 2373.60 L606.00 2375.83 Z" stroke-linecap="round" style="fill:#C2C2FF;stroke:#B3B3FF;stroke-width:3.00"/>
	<path d="M606.00 2375.70 L606.00 2375.70 L757.97 2373.60 L909.81 2370.75 L1061.65 2367.04 L1213.62 2362.21 L1365.46 2356.15 L1517.42 2348.72 L1669.26 2339.57 L1821.11 2328.31 L1973.07 2314.44 L2124.91 2297.37 L2276.88 2276.58 L2428.72 2251.08 L2580.56 2220.02 L2732.52 2182.28 L2884.36 2136.73 L3036.33 2081.79 L3188.17 2015.70 L3340.01 1936.62 L3491.98 1842.08 L3643.82 1729.71 L3795.66 1596.30 L3795.66 993.74 L3643.82 1261.05 L3491.98 1480.34 L3340.01 1659.66 L3188.17 1805.69 L3036.33 1924.13 L2884.36 2019.66 L2732.52 2096.51 L2580.56 2158.14 L2428.72 2207.15 L2276.88 2246.01 L2124.91 2276.58 L1973.07 2300.71 L1821.11 2319.39 L1669.26 2334.00 L1517.42 2345.14 L1365.46 2353.55 L1213.62 2359.86 L1061.65 2364.81 L909.81 2368.53 L757.97 2371.50 L606.00 2373.72 L606.00 2375.70 Z" stroke-linecap="round" style="fill:#ADADFF;stroke:#9999FF;stroke-width:3.00"/>
	<path d="M606.00 2375.46 L606.00 2375.46 L757.97 2373.35 L909.81 2370.51 L1061.65 2366.79 L1213.62 2362.09 L1365.46 2355.90 L1517.42 2348.35 L1669.26 2338.95 L1821.11 2327.44 L1973.07 2313.08 L2124.91 2295.39 L2276.88 2273.61 L2428.72 2246.88 L2580.56 2214.20 L2732.52 2174.23 L2884.36 2125.72 L3036.33 2066.94 L3188.17 1996.03 L3340.01 1910.51 L3491.98 1808.17 L3643.82 1685.65 L3795.66 1539.62 L3795.66 1050.42 L3643.82 1304.98 L3491.98 1514.38 L3340.01 1685.65 L3188.17 1825.49 L3036.33 1938.98 L2884.36 2030.68 L2732.52 2104.68 L2580.56 2163.96 L2428.72 2211.23 L2276.88 2248.86 L2124.91 2278.56 L1973.07 2301.95 L1821.11 2320.26 L1669.26 2334.49 L1517.42 2345.38 L1365.46 2353.80 L1213.62 2360.11 L1061.65 2364.94 L909.81 2368.77 L757.97 2371.62 L606.00 2373.97 L606.00 2375.46 Z" stroke-linecap="round" style="fill:#9999FF;stroke:#8080FF;stroke-width:3.00"/>
	<path d="M606.00 2375.33 L606.00 2375.33 L757.97 2373.23 L909.81 2370.38 L1061.65 2366.67 L1213.62 2361.84 L1365.46 2355.78 L1517.42 2348.11 L1669.26 2338.58 L1821.11 2326.70 L1973.07 2311.97 L2124.91 2293.78 L2276.88 2271.13 L2428.72 2243.41 L2580.56 2209.13 L2732.52 2167.30 L2884.36 2116.31 L3036.33 2054.19 L3188.17 1979.07 L3340.01 1888.24 L3491.98 1778.96 L3643.82 1647.91 L3795.66 1491.11 L3795.66 1098.93 L3643.82 1342.85 L3491.98 1543.46 L3340.01 1708.05 L3188.17 1842.32 L3036.33 1951.60 L2884.36 2040.08 L2732.52 2111.49 L2580.56 2168.91 L2428.72 2214.82 L2276.88 2251.33 L2124.91 2280.29 L1973.07 2303.06 L1821.11 2321.00 L1669.26 2334.99 L1517.42 2345.75 L1365.46 2354.05 L1213.62 2360.36 L1061.65 2365.18 L909.81 2368.90 L757.97 2371.87 L606.00 2374.09 L606.00 2375.33 Z" stroke-linecap="round" style="fill:#8585FF;stroke:#6666FF;stroke-width:3.00"/>
	<path d="M606.00 2375.21 L606.00 2375.21 L757.97 2372.98 L909.81 2370.26 L1061.65 2366.55 L1213.62 2361.72 L1365.46 2355.53 L1517.42 2347.86 L1669.26 2338.21 L1821.11 2326.08 L1973.07 2310.98 L2124.91 2292.29 L2276.88 2269.03 L2428.72 2240.19 L2580.56 2204.68 L2732.52 2161.11 L2884.36 2107.78 L3036.33 2042.81 L3188.17 1963.85 L3340.01 1868.19 L3491.98 1752.73 L3643.82 1613.87 L3795.66 1447.43 L3795.66 1142.62 L3643.82 1376.76 L3491.98 1569.69 L3340.01 1728.10 L3188.17 1857.55 L3036.33 1963.11 L2884.36 2048.62 L2732.52 2117.80 L2580.56 2173.37 L2428.72 2217.92 L2276.88 2253.56 L2124.91 2281.77 L1973.07 2304.05 L1821.11 2321.62 L1669.26 2335.36 L1517.42 2346.00 L1365.46 2354.17 L1213.62 2360.48 L1061.65 2365.31 L909.81 2369.02 L757.97 2371.99 L606.00 2374.22 L606.00 2375.21 Z" stroke-linecap="round" style="fill:#7171FF;stroke:#4D4DFF;stroke-width:3.00"/>
	<path d="M606.00 2375.08 L606.00 2375.08 L757.97 2372.86 L909.81 2370.01 L1061.65 2366.30 L1213.62 2361.47 L1365.46 2355.41 L1517.42 2347.61 L1669.26 2337.83 L1821.11 2325.46 L1973.07 2310.11 L2124.91 2290.81 L2276.88 2266.92 L2428.72 2237.22 L2580.56 2200.59 L2732.52 2155.42 L2884.36 2099.98 L3036.33 2032.29 L3188.17 1949.74 L3340.01 1849.63 L3491.98 1728.47 L3643.82 1582.44 L3795.66 1406.96 L3795.66 1182.96 L3643.82 1408.20 L3491.98 1593.95 L3340.01 1746.66 L3188.17 1871.65 L3036.33 1973.63 L2884.36 2056.42 L2732.52 2123.49 L2580.56 2177.57 L2428.72 2220.89 L2276.88 2255.54 L2124.91 2283.14 L1973.07 2305.04 L1821.11 2322.24 L1669.26 2335.73 L1517.42 2346.25 L1365.46 2354.42 L1213.62 2360.61 L1061.65 2365.43 L909.81 2369.27 L757.97 2372.11 L606.00 2374.34 L606.00 2375.08 Z" stroke-linecap="round" style="fill:#5C5CFF;stroke:#3333FF;stroke-width:3.00"/>
	<path d="M606.00 2374.96 L606.00 2374.96 L757.97 2372.73 L909.81 2369.89 L1061.65 2366.17 L1213.62 2361.35 L1365.46 2355.16 L1517.42 2347.36 L1669.26 2337.46 L1821.11 2324.96 L1973.07 2309.25 L2124.91 2289.57 L2276.88 2264.94 L2428.72 2234.38 L2580.56 2196.63 L2732.52 2149.98 L2884.36 2092.55 L3036.33 2022.14 L3188.17 1936.38 L3340.01 1831.93 L3491.98 1705.45 L3643.82 1552.62 L3795.66 1368.59 L3795.66 1221.33 L3643.82 1438.02 L3491.98 1616.97 L3340.01 1764.24 L3188.17 1885.02 L3036.33 1983.65 L2884.36 2063.97 L2732.52 2128.94 L2580.56 2181.53 L2428.72 2223.73 L2276.88 2257.52 L2124.91 2284.50 L1973.07 2305.91 L1821.11 2322.74 L1669.26 2336.10 L1517.42 2346.50 L1365.46 2354.54 L1213.62 2360.73 L1061.65 2365.68 L909.81 2369.39 L757.97 2372.24 L606.00 2374.47 L606.00 2374.96 Z" stroke-linecap="round" style="fill:#4747FF;stroke:#1919FF;stroke-width:3.00"/>
	<path d="M606.00 2374.84 L606.00 2374.84 L757.97 2372.61 L909.81 2369.76 L1061.65 2366.05 L1213.62 2361.22 L1365.46 2355.04 L1517.42 2347.12 L1669.26 2337.09 L1821.11 2324.35 L1973.07 2308.38 L2124.91 2288.21 L2276.88 2263.09 L2428.72 2231.78 L2580.56 2192.79 L2732.52 2144.65 L2884.36 2085.25 L3036.33 2012.49 L3188.17 1923.38 L3340.01 1814.97 L3491.98 1683.18 L3643.82 1523.78 L3795.66 1331.47 L3795.66 1258.45 L3643.82 1466.98 L3491.98 1639.24 L3340.01 1781.31 L3188.17 1898.01 L3036.33 1993.43 L2884.36 2071.14 L2732.52 2134.26 L2580.56 2185.25 L2428.72 2226.46 L2276.88 2259.37 L2124.91 2285.73 L1973.07 2306.77 L1821.11 2323.36 L1669.26 2336.47 L1517.42 2346.74 L1365.46 2354.66 L1213.62 2360.98 L1061.65 2365.80 L909.81 2369.52 L757.97 2372.36 L606.00 2374.59 L606.00 2374.84 Z" stroke-linecap="round" style="fill:#3333FF;stroke:#0000FF;stroke-width:3.00"/>
	<circle cx="606.00" cy="2376.07" r="22.03" style="fill:#000000;stroke:#000000;stroke-width:8.64"/>
	<circle cx="757.85" cy="2373.35" r="22.03" style="fill:#000000;stroke:#000000;stroke-width:8.64"/>
	<circle cx="909.69" cy="2367.91" r="22.03" style="fill:#000000;stroke:#000000;stroke-width:8.64"/>
	<circle cx="1061.65" cy="2363.82" r="22.03" style="fill:#000000;stroke:#000000;stroke-width:8.64"/>
	<circle cx="1213.49" cy="2358.50" r="22.03" style="fill:#000000;stroke:#000000;stroke-width:8.64"/>
	<circle cx="1365.46" cy="2358.50" r="22.03" style="fill:#000000;stroke:#000000;stroke-width:8.64"/>
	<circle cx="1517.30" cy="2350.33" r="22.03" style="fill:#000000;stroke:#000000;stroke-width:8.64"/>
	<circle cx="1669.14" cy="2334.12" r="22.03" style="fill:#000000;stroke:#000000;stroke-width:8.64"/>
	<line x1="390.80" y1="2489.19" x2="390.80" y2="100.86" style="stroke:#000000;stroke-width:5.76"/>
	<line x1="390.80" y1="2381.40" x2="350.83" y2="2381.40" style="stroke:#000000;stroke-width:5.76"/>
	<text x="300.72" y="2381.40" style="font-family:'Helvetica';font-size:99.99px;fill:#000000" transform="rotate(-90 300.72,2381.40)" text-anchor="middle">0</text>
	<line x1="390.80" y1="1871.53" x2="350.83" y2="1871.53" style="stroke:#000000;stroke-width:5.76"/>
	<text x="300.72" y="1871.53" style="font-family:'Helvetica';font-size:99.99px;fill:#000000" transform="rotate(-90 300.72,1871.53)" text-anchor="middle">10</text>
	<line x1="390.80" y1="1361.79" x2="350.83" y2="1361.79" style="stroke:#000000;stroke-width:5.76"/>
	<text x="300.72" y="1361.79" style="font-family:'Helvetica';font-size:99.99px;fill:#000000" transform="rotate(-90 300.72,1361.79)" text-anchor="middle">20</text>
	<line x1="390.80" y1="851.92" x2="350.83" y2="851.92" style="stroke:#000000;stroke-width:5.76"/>
	<text x="300.72" y="851.92" style="font-family:'Helvetica';font-size:99.99px;fill:#000000" transform="rotate(-90 300.72,851.92)" text-anchor="middle">30</text>
	<line x1="390.80" y1="342.18" x2="350.83" y2="342.18" style="stroke:#000000;stroke-width:5.76"/>
	<text x="300.72" y="342.18" style="font-family:'Helvetica';font-size:99.99px;fill:#000000" transform="rotate(-90 300.72,342.18)" text-anchor="middle">40</text>
	<text x="190.71" y="1294.96" style="font-family:'Helvetica';font-size:99.99px;fill:#000000" transform="rotate(-90 190.71,1294.96)" text-anchor="middle">Confirmed cases per 100 beds</text>
	<line x1="390.80" y1="2489.19" x2="3859.02" y2="2489.19" style="stroke:#000000;stroke-width:5.76"/>
	<line x1="454.16" y1="2489.19" x2="454.16" y2="2529.16" style="stroke:#000000;stroke-width:5.76"/>
	<text x="454.16" y="2619.14" style="font-family:'Helvetica';font-size:99.99px;fill:#000000" text-anchor="middle">0</text>
	<line x1="606.00" y1="2489.19" x2="606.00" y2="2529.16" style="stroke:#000000;stroke-width:5.76"/>
	<text x="606.00" y="2619.14" style="font-family:'Helvetica';font-size:99.99px;fill:#000000" text-anchor="middle">1</text>
	<line x1="757.97" y1="2489.19" x2="757.97" y2="2529.16" style="stroke:#000000;stroke-width:5.76"/>
	<text x="757.97" y="2619.14" style="font-family:'Helvetica';font-size:99.99px;fill:#000000" text-anchor="middle">2</text>
	<line x1="909.81" y1="2489.19" x2="909.81" y2="2529.16" style="stroke:#000000;stroke-width:5.76"/>
	<text x="909.81" y="2619.14" style="font-family:'Helvetica';font-size:99.99px;fill:#000000" text-anchor="middle">3</text>
	<line x1="1061.65" y1="2489.19" x2="1061.65" y2="2529.16" style="stroke:#000000;stroke-width:5.76"/>
	<text x="1061.65" y="2619.14" style="font-family:'Helvetica';font-size:99.99px;fill:#000000" text-anchor="middle">4</text>
	<line x1="1213.62" y1="2489.19" x2="1213.62" y2="2529.16" style="stroke:#000000;stroke-width:5.76"/>
	<text x="1213.62" y="2619.14" style="font-family:'Helvetica';font-size:99.99px;fill:#000000" text-anchor="middle">5</text>
	<line x1="1365.46" y1="2489.19" x2="1365.46" y2="2529.16" style="stroke:#000000;stroke-width:5.76"/>
	<text x="1365.46" y="2619.14" style="font-family:'Helvetica';font-size:99.99px;fill:#000000" text-anchor="middle">6</text>
	<line x1="1517.42" y1="2489.19" x2="1517.42" y2="2529.16" style="stroke:#000000;stroke-width:5.76"/>
	<text x="1517.42" y="2619.14" style="font-family:'Helvetica';font-size:99.99px;fill:#000000" text-anchor="middle">7</text>
	<line x1="1669.26" y1="2489.19" x2="1669.26" y2="2529.16" style="stroke:#000000;stroke-width:5.76"/>
	<text x="1669.26" y="2619.14" style="font-family:'Helvetica';font-size:99.99px;fill:#000000" text-anchor="middle">8</text>
	<line x1="1821.11" y1="2489.19" x2="1821.11" y2="2529.16" style="stroke:#000000;stroke-width:5.76"/>
	<text x="1821.11" y="2619.14" style="font-family:'Helvetica';font-size:99.99px;fill:#000000" text-anchor="middle">9</text>
	<line x1="1973.07" y1="2489.19" x2="1973.07" y2="2529.16" style="stroke:#000000;stroke-width:5.76"/>
	<text x="1973.07" y="2619.14" style="font-family:'Helvetica';font-size:99.99px;fill:#000000" text-anchor="middle">10</text>
	<line x1="2124.91" y1="2489.19" x2="2124.91" y2="2529.16" style="stroke:#000000;stroke-width:5.76"/>
	<text x="2124.91" y="2619.14" style="font-family:'Helvetica';font-size:99.99px;fill:#000000" text-anchor="middle">11</text>
	<line x1="2276.88" y1="2489.19" x2="2276.88" y2="2529.16" style="stroke:#000000;stroke-width:5.76"/>
	<text x="2276.88" y="2619.14" style="font-family:'Helvetica';font-size:99.99px;fill:#000000" text-anchor="middle">12</text>
	<line x1="2428.72" y1="2489.19" x2="2428.72" y2="2529.16" style="stroke:#000000;stroke-width:5.76"/>
	<text x="2428.72" y="2619.14" style="font-family:'Helvetica';font-size:99.99px;fill:#000000" text-anchor="middle">13</text>
	<line x1="2580.56" y1="2489.19" x2="2580.56" y2="2529.16" style="stroke:#000000;stroke-width:5.76"/>
	<text x="2580.56" y="2619.14" style="font-family:'Helvetica';font-size:99.99px;fill:#000000" text-anchor="middle">14</text>
	<line x1="2732.52" y1="2489.19" x2="2732.52" y2="2529.16" style="stroke:#000000;stroke-width:5.76"/>
	<text x="2732.52" y="2619.14" style="font-family:'Helvetica';font-size:99.99px;fill:#000000" text-anchor="middle">15</text>
	<line x1="2884.36" y1="2489.19" x2="2884.36" y2="2529.16" style="stroke:#000000;stroke-width:5.76"/>
	<text x="2884.36" y="2619.14" style="font-family:'Helvetica';font-size:99.99px;fill:#000000" text-anchor="middle">16</text>
	<line x1="3036.33" y1="2489.19" x2="3036.33" y2="2529.16" style="stroke:#000000;stroke-width:5.76"/>
	<text x="3036.33" y="2619.14" style="font-family:'Helvetica';font-size:99.99px;fill:#000000" text-anchor="middle">17</text>
	<line x1="3188.17" y1="2489.19" x2="3188.17" y2="2529.16" style="stroke:#000000;stroke-width:5.76"/>
	<text x="3188.17" y="2619.14" style="font-family:'Helvetica';font-size:99.99px;fill:#000000" text-anchor="middle">18</text>
	<line x1="3340.01" y1="2489.19" x2="3340.01" y2="2529.16" style="stroke:#000000;stroke-width:5.76"/>
	<text x="3340.01" y="2619.14" style="font-family:'Helvetica';font-size:99.99px;fill:#000000" text-anchor="middle">19</text>
	<line x1="3491.98" y1="2489.19" x2="3491.98" y2="2529.16" style="stroke:#000000;stroke-width:5.76"/>
	<text x="3491.98" y="2619.14" style="font-family:'Helvetica';font-size:99.99px;fill:#000000" text-anchor="middle">20</text>
	<line x1="3643.82" y1="2489.19" x2="3643.82" y2="2529.16" style="stroke:#000000;stroke-width:5.76"/>
	<text x="3643.82" y="2619.14" style="font-family:'Helvetica';font-size:99.99px;fill:#000000" text-anchor="middle">21</text>
	<line x1="3795.66" y1="2489.19" x2="3795.66" y2="2529.16" style="stroke:#000000;stroke-width:5.76"/>
	<text x="3795.66" y="2619.14" style="font-family:'Helvetica';font-size:99.99px;fill:#000000" text-anchor="middle">22</text>
	<text x="2124.91" y="2729.16" style="font-family:'Helvetica';font-size:99.99px;fill:#000000" text-anchor="middle">Days since 0.01 confirmed cases per 100 beds</text>
</svg>
