<?xml version="1.0" encoding="UTF-8" standalone="no"?>
<!-- This is a Stata 14.2 generated SVG file (http://www.stata.com) -->

<svg version="1.1" width="5.50in" height="4.00in" viewBox="0 0 3960 2880" xmlns="http://www.w3.org/2000/svg">
	<desc>Stata Graph - Graph</desc>
	<line x1="390.80" y1="1761.27" x2="3859.02" y2="1761.27" style="stroke:#FF0000;stroke-width:8.64"/>
	<path d="M565.54 1761.51 L565.54 1761.51 L676.91 1761.51 L788.29 1761.51 L899.66 1761.51 L1011.04 1761.51 L1122.41 1761.51 L1233.79 1761.51 L1345.29 1761.51 L1456.66 1761.51 L1568.04 1761.51 L1679.41 1761.64 L1790.79 1761.64 L1902.16 1761.51 L2013.54 1761.51 L2124.91 1761.39 L2236.29 1761.39 L2347.66 1761.39 L2459.04 1761.88 L2570.53 1762.87 L2681.91 1765.35 L2793.28 1770.18 L2904.66 1779.21 L3016.03 1795.30 L3127.41 1822.40 L3238.78 1866.70 L3350.16 1936.25 L3461.53 2042.19 L3572.91 2199.23 L3684.28 2425.82 L3684.28 520.76 L3572.91 928.65 L3461.53 1214.77 L3350.16 1411.04 L3238.78 1542.47 L3127.41 1628.35 L3016.03 1682.93 L2904.66 1716.59 L2793.28 1736.76 L2681.91 1748.39 L2570.53 1754.95 L2459.04 1758.42 L2347.66 1760.15 L2236.29 1761.02 L2124.91 1761.27 L2013.54 1761.39 L1902.16 1761.51 L1790.79 1761.51 L1679.41 1761.51 L1568.04 1761.51 L1456.66 1761.51 L1345.29 1761.51 L1233.79 1761.51 L1122.41 1761.51 L1011.04 1761.51 L899.66 1761.51 L788.29 1761.51 L676.91 1761.51 L565.54 1761.51 L565.54 1761.51 Z" stroke-linecap="round" style="fill:#EBEBFF;stroke:#E6E6FF;stroke-width:3.00"/>
	<path d="M565.54 1761.51 L565.54 1761.51 L676.91 1761.51 L788.29 1761.51 L899.66 1761.51 L1011.04 1761.51 L1122.41 1761.51 L1233.79 1761.51 L1345.29 1761.51 L1456.66 1761.51 L1568.04 1761.51 L1679.41 1761.51 L1790.79 1761.51 L1902.16 1761.51 L2013.54 1761.51 L2124.91 1761.39 L2236.29 1761.27 L2347.66 1761.02 L2459.04 1760.89 L2570.53 1760.65 L2681.91 1760.40 L2793.28 1760.52 L2904.66 1761.14 L3016.03 1762.87 L3127.41 1766.46 L3238.78 1773.15 L3350.16 1784.65 L3461.53 1803.34 L3572.91 1832.55 L3684.28 1875.98 L3684.28 1070.59 L3572.91 1295.33 L3461.53 1453.49 L3350.16 1562.52 L3238.78 1636.03 L3127.41 1684.41 L3016.03 1715.35 L2904.66 1734.66 L2793.28 1746.41 L2681.91 1753.34 L2570.53 1757.18 L2459.04 1759.41 L2347.66 1760.52 L2236.29 1761.14 L2124.91 1761.39 L2013.54 1761.39 L1902.16 1761.51 L1790.79 1761.51 L1679.41 1761.51 L1568.04 1761.51 L1456.66 1761.51 L1345.29 1761.51 L1233.79 1761.51 L1122.41 1761.51 L1011.04 1761.51 L899.66 1761.51 L788.29 1761.51 L676.91 1761.51 L565.54 1761.51 L565.54 1761.51 Z" stroke-linecap="round" style="fill:#D6D6FF;stroke:#CCCCFF;stroke-width:3.00"/>
	<path d="M565.54 1761.51 L565.54 1761.51 L676.91 1761.51 L788.29 1761.51 L899.66 1761.51 L1011.04 1761.51 L1122.41 1761.51 L1233.79 1761.51 L1345.29 1761.51 L1456.66 1761.51 L1568.04 1761.51 L1679.41 1761.51 L1790.79 1761.51 L1902.16 1761.51 L2013.54 1761.51 L2124.91 1761.39 L2236.29 1761.27 L2347.66 1761.02 L2459.04 1760.65 L2570.53 1760.28 L2681.91 1759.66 L2793.28 1758.91 L2904.66 1758.17 L3016.03 1757.55 L3127.41 1757.30 L3238.78 1757.92 L3350.16 1760.15 L3461.53 1764.73 L3572.91 1773.15 L3684.28 1787.13 L3684.28 1159.57 L3572.91 1354.61 L3461.53 1492.22 L3350.16 1587.14 L3238.78 1651.12 L3127.41 1693.45 L3016.03 1720.55 L2904.66 1737.63 L2793.28 1748.02 L2681.91 1754.09 L2570.53 1757.55 L2459.04 1759.53 L2347.66 1760.52 L2236.29 1761.14 L2124.91 1761.39 L2013.54 1761.51 L1902.16 1761.51 L1790.79 1761.51 L1679.41 1761.51 L1568.04 1761.51 L1456.66 1761.51 L1345.29 1761.51 L1233.79 1761.51 L1122.41 1761.51 L1011.04 1761.51 L899.66 1761.51 L788.29 1761.51 L676.91 1761.51 L565.54 1761.51 L565.54 1761.51 Z" stroke-linecap="round" style="fill:#C2C2FF;stroke:#B3B3FF;stroke-width:3.00"/>
	<path d="M565.54 1761.51 L565.54 1761.51 L676.91 1761.51 L788.29 1761.51 L899.66 1761.51 L1011.04 1761.51 L1122.41 1761.51 L1233.79 1761.51 L1345.29 1761.51 L1456.66 1761.51 L1568.04 1761.51 L1679.41 1761.51 L1790.79 1761.51 L1902.16 1761.51 L2013.54 1761.51 L2124.91 1761.39 L2236.29 1761.27 L2347.66 1761.02 L2459.04 1760.52 L2570.53 1760.03 L2681.91 1759.16 L2793.28 1757.92 L2904.66 1756.19 L3016.03 1754.09 L3127.41 1751.24 L3238.78 1747.78 L3350.16 1743.57 L3461.53 1738.74 L3572.91 1733.17 L3684.28 1727.11 L3684.28 1219.59 L3572.91 1394.71 L3461.53 1518.21 L3350.16 1603.60 L3238.78 1661.40 L3127.41 1699.51 L3016.03 1724.14 L2904.66 1739.61 L2793.28 1749.01 L2681.91 1754.58 L2570.53 1757.80 L2459.04 1759.66 L2347.66 1760.65 L2236.29 1761.14 L2124.91 1761.39 L2013.54 1761.51 L1902.16 1761.51 L1790.79 1761.51 L1679.41 1761.51 L1568.04 1761.51 L1456.66 1761.51 L1345.29 1761.51 L1233.79 1761.51 L1122.41 1761.51 L1011.04 1761.51 L899.66 1761.51 L788.29 1761.51 L676.91 1761.51 L565.54 1761.51 L565.54 1761.51 Z" stroke-linecap="round" style="fill:#ADADFF;stroke:#9999FF;stroke-width:3.00"/>
	<path d="M565.54 1761.51 L565.54 1761.51 L676.91 1761.51 L788.29 1761.51 L899.66 1761.51 L1011.04 1761.51 L1122.41 1761.51 L1233.79 1761.51 L1345.29 1761.51 L1456.66 1761.51 L1568.04 1761.51 L1679.41 1761.51 L1790.79 1761.51 L1902.16 1761.51 L2013.54 1761.51 L2124.91 1761.39 L2236.29 1761.27 L2347.66 1760.89 L2459.04 1760.52 L2570.53 1759.78 L2681.91 1758.67 L2793.28 1757.06 L2904.66 1754.71 L3016.03 1751.24 L3127.41 1746.41 L3238.78 1739.61 L3350.16 1730.45 L3461.53 1717.95 L3572.91 1701.37 L3684.28 1679.34 L3684.28 1267.24 L3572.91 1426.51 L3461.53 1539.00 L3350.16 1616.84 L3238.78 1669.44 L3127.41 1704.34 L3016.03 1726.99 L2904.66 1741.09 L2793.28 1749.88 L2681.91 1755.08 L2570.53 1758.05 L2459.04 1759.78 L2347.66 1760.65 L2236.29 1761.14 L2124.91 1761.39 L2013.54 1761.51 L1902.16 1761.51 L1790.79 1761.51 L1679.41 1761.51 L1568.04 1761.51 L1456.66 1761.51 L1345.29 1761.51 L1233.79 1761.51 L1122.41 1761.51 L1011.04 1761.51 L899.66 1761.51 L788.29 1761.51 L676.91 1761.51 L565.54 1761.51 L565.54 1761.51 Z" stroke-linecap="round" style="fill:#9999FF;stroke:#8080FF;stroke-width:3.00"/>
	<path d="M565.54 1761.51 L565.54 1761.51 L676.91 1761.51 L788.29 1761.51 L899.66 1761.51 L1011.04 1761.51 L1122.41 1761.51 L1233.79 1761.51 L1345.29 1761.51 L1456.66 1761.51 L1568.04 1761.51 L1679.41 1761.51 L1790.79 1761.51 L1902.16 1761.51 L2013.54 1761.51 L2124.91 1761.39 L2236.29 1761.14 L2347.66 1760.89 L2459.04 1760.40 L2570.53 1759.66 L2681.91 1758.29 L2793.28 1756.31 L2904.66 1753.34 L3016.03 1748.77 L3127.41 1742.21 L3238.78 1732.68 L3350.16 1719.19 L3461.53 1700.25 L3572.91 1674.02 L3684.28 1638.50 L3684.28 1308.20 L3572.91 1453.74 L3461.53 1556.70 L3350.16 1628.11 L3238.78 1676.49 L3127.41 1708.55 L3016.03 1729.34 L2904.66 1742.45 L2793.28 1750.62 L2681.91 1755.45 L2570.53 1758.17 L2459.04 1759.78 L2347.66 1760.65 L2236.29 1761.14 L2124.91 1761.39 L2013.54 1761.51 L1902.16 1761.51 L1790.79 1761.51 L1679.41 1761.51 L1568.04 1761.51 L1456.66 1761.51 L1345.29 1761.51 L1233.79 1761.51 L1122.41 1761.51 L1011.04 1761.51 L899.66 1761.51 L788.29 1761.51 L676.91 1761.51 L565.54 1761.51 L565.54 1761.51 Z" stroke-linecap="round" style="fill:#8585FF;stroke:#6666FF;stroke-width:3.00"/>
	<path d="M565.54 1761.51 L565.54 1761.51 L676.91 1761.51 L788.29 1761.51 L899.66 1761.51 L1011.04 1761.51 L1122.41 1761.51 L1233.79 1761.51 L1345.29 1761.51 L1456.66 1761.51 L1568.04 1761.51 L1679.41 1761.51 L1790.79 1761.51 L1902.16 1761.51 L2013.54 1761.51 L2124.91 1761.39 L2236.29 1761.14 L2347.66 1760.89 L2459.04 1760.40 L2570.53 1759.41 L2681.91 1758.05 L2793.28 1755.70 L2904.66 1752.11 L3016.03 1746.66 L3127.41 1738.49 L3238.78 1726.37 L3350.16 1709.04 L3461.53 1684.29 L3572.91 1649.52 L3684.28 1601.75 L3684.28 1344.96 L3572.91 1478.24 L3461.53 1572.66 L3350.16 1638.25 L3238.78 1682.68 L3127.41 1712.26 L3016.03 1731.56 L2904.66 1743.69 L2793.28 1751.24 L2681.91 1755.70 L2570.53 1758.42 L2459.04 1759.90 L2347.66 1760.65 L2236.29 1761.14 L2124.91 1761.39 L2013.54 1761.51 L1902.16 1761.51 L1790.79 1761.51 L1679.41 1761.51 L1568.04 1761.51 L1456.66 1761.51 L1345.29 1761.51 L1233.79 1761.51 L1122.41 1761.51 L1011.04 1761.51 L899.66 1761.51 L788.29 1761.51 L676.91 1761.51 L565.54 1761.51 L565.54 1761.51 Z" stroke-linecap="round" style="fill:#7171FF;stroke:#4D4DFF;stroke-width:3.00"/>
	<path d="M565.54 1761.51 L565.54 1761.51 L676.91 1761.51 L788.29 1761.51 L899.66 1761.51 L1011.04 1761.51 L1122.41 1761.51 L1233.79 1761.51 L1345.29 1761.51 L1456.66 1761.51 L1568.04 1761.51 L1679.41 1761.51 L1790.79 1761.51 L1902.16 1761.51 L2013.54 1761.51 L2124.91 1761.39 L2236.29 1761.14 L2347.66 1760.89 L2459.04 1760.28 L2570.53 1759.28 L2681.91 1757.68 L2793.28 1755.08 L2904.66 1750.99 L3016.03 1744.68 L3127.41 1735.03 L3238.78 1720.67 L3350.16 1699.64 L3461.53 1669.44 L3572.91 1626.87 L3684.28 1567.59 L3684.28 1378.99 L3572.91 1501.01 L3461.53 1587.51 L3350.16 1647.54 L3238.78 1688.50 L3127.41 1715.72 L3016.03 1733.54 L2904.66 1744.81 L2793.28 1751.86 L2681.91 1756.07 L2570.53 1758.54 L2459.04 1759.90 L2347.66 1760.77 L2236.29 1761.14 L2124.91 1761.39 L2013.54 1761.51 L1902.16 1761.51 L1790.79 1761.51 L1679.41 1761.51 L1568.04 1761.51 L1456.66 1761.51 L1345.29 1761.51 L1233.79 1761.51 L1122.41 1761.51 L1011.04 1761.51 L899.66 1761.51 L788.29 1761.51 L676.91 1761.51 L565.54 1761.51 L565.54 1761.51 Z" stroke-linecap="round" style="fill:#5C5CFF;stroke:#3333FF;stroke-width:3.00"/>
	<path d="M565.54 1761.51 L565.54 1761.51 L676.91 1761.51 L788.29 1761.51 L899.66 1761.51 L1011.04 1761.51 L1122.41 1761.51 L1233.79 1761.51 L1345.29 1761.51 L1456.66 1761.51 L1568.04 1761.51 L1679.41 1761.51 L1790.79 1761.51 L1902.16 1761.51 L2013.54 1761.51 L2124.91 1761.39 L2236.29 1761.14 L2347.66 1760.89 L2459.04 1760.28 L2570.53 1759.16 L2681.91 1757.43 L2793.28 1754.58 L2904.66 1750.00 L3016.03 1742.70 L3127.41 1731.69 L3238.78 1715.10 L3350.16 1690.73 L3461.53 1655.46 L3572.91 1605.34 L3684.28 1535.29 L3684.28 1411.29 L3572.91 1522.54 L3461.53 1601.50 L3350.16 1656.45 L3238.78 1694.07 L3127.41 1719.06 L3016.03 1735.40 L2904.66 1745.92 L2793.28 1752.35 L2681.91 1756.31 L2570.53 1758.67 L2459.04 1760.03 L2347.66 1760.77 L2236.29 1761.14 L2124.91 1761.39 L2013.54 1761.51 L1902.16 1761.51 L1790.79 1761.51 L1679.41 1761.51 L1568.04 1761.51 L1456.66 1761.51 L1345.29 1761.51 L1233.79 1761.51 L1122.41 1761.51 L1011.04 1761.51 L899.66 1761.51 L788.29 1761.51 L676.91 1761.51 L565.54 1761.51 L565.54 1761.51 Z" stroke-linecap="round" style="fill:#4747FF;stroke:#1919FF;stroke-width:3.00"/>
	<path d="M565.54 1761.51 L565.54 1761.51 L676.91 1761.51 L788.29 1761.51 L899.66 1761.51 L1011.04 1761.51 L1122.41 1761.51 L1233.79 1761.51 L1345.29 1761.51 L1456.66 1761.51 L1568.04 1761.51 L1679.41 1761.51 L1790.79 1761.51 L1902.16 1761.51 L2013.54 1761.51 L2124.91 1761.39 L2236.29 1761.14 L2347.66 1760.77 L2459.04 1760.15 L2570.53 1759.04 L2681.91 1757.18 L2793.28 1753.96 L2904.66 1748.89 L3016.03 1740.85 L3127.41 1728.47 L3238.78 1709.78 L3350.16 1682.06 L3461.53 1641.84 L3572.91 1584.42 L3684.28 1504.10 L3684.28 1442.60 L3572.91 1543.46 L3461.53 1615.11 L3350.16 1665.11 L3238.78 1699.39 L3127.41 1722.28 L3016.03 1737.26 L2904.66 1746.91 L2793.28 1752.97 L2681.91 1756.56 L2570.53 1758.79 L2459.04 1760.03 L2347.66 1760.77 L2236.29 1761.14 L2124.91 1761.39 L2013.54 1761.51 L1902.16 1761.51 L1790.79 1761.51 L1679.41 1761.51 L1568.04 1761.51 L1456.66 1761.51 L1345.29 1761.51 L1233.79 1761.51 L1122.41 1761.51 L1011.04 1761.51 L899.66 1761.51 L788.29 1761.51 L676.91 1761.51 L565.54 1761.51 L565.54 1761.51 Z" stroke-linecap="round" style="fill:#3333FF;stroke:#0000FF;stroke-width:3.00"/>
	<circle cx="565.41" cy="1761.64" r="22.03" style="fill:#000000;stroke:#000000;stroke-width:8.64"/>
	<circle cx="676.79" cy="1761.64" r="22.03" style="fill:#000000;stroke:#000000;stroke-width:8.64"/>
	<circle cx="788.29" cy="1761.64" r="22.03" style="fill:#000000;stroke:#000000;stroke-width:8.64"/>
	<circle cx="899.66" cy="1761.64" r="22.03" style="fill:#000000;stroke:#000000;stroke-width:8.64"/>
	<circle cx="1011.04" cy="1761.64" r="22.03" style="fill:#000000;stroke:#000000;stroke-width:8.64"/>
	<circle cx="1122.41" cy="1761.64" r="22.03" style="fill:#000000;stroke:#000000;stroke-width:8.64"/>
	<circle cx="1233.79" cy="1761.64" r="22.03" style="fill:#000000;stroke:#000000;stroke-width:8.64"/>
	<circle cx="1345.16" cy="1761.64" r="22.03" style="fill:#000000;stroke:#000000;stroke-width:8.64"/>
	<circle cx="1456.54" cy="1761.64" r="22.03" style="fill:#000000;stroke:#000000;stroke-width:8.64"/>
	<circle cx="1567.91" cy="1761.64" r="22.03" style="fill:#000000;stroke:#000000;stroke-width:8.64"/>
	<circle cx="1679.29" cy="1761.64" r="22.03" style="fill:#000000;stroke:#000000;stroke-width:8.64"/>
	<circle cx="1790.66" cy="1761.64" r="22.03" style="fill:#000000;stroke:#000000;stroke-width:8.64"/>
	<circle cx="1902.04" cy="1761.64" r="22.03" style="fill:#000000;stroke:#000000;stroke-width:8.64"/>
	<circle cx="2013.54" cy="1761.51" r="22.03" style="fill:#000000;stroke:#000000;stroke-width:8.64"/>
	<circle cx="2124.91" cy="1761.39" r="22.03" style="fill:#000000;stroke:#000000;stroke-width:8.64"/>
	<line x1="390.80" y1="2489.19" x2="390.80" y2="100.86" style="stroke:#000000;stroke-width:5.76"/>
	<line x1="390.80" y1="2294.03" x2="350.83" y2="2294.03" style="stroke:#000000;stroke-width:5.76"/>
	<text x="300.72" y="2294.03" style="font-family:'Helvetica';font-size:99.99px;fill:#000000" transform="rotate(-90 300.72,2294.03)" text-anchor="middle">-20000</text>
	<line x1="390.80" y1="1761.51" x2="350.83" y2="1761.51" style="stroke:#000000;stroke-width:5.76"/>
	<text x="300.72" y="1761.51" style="font-family:'Helvetica';font-size:99.99px;fill:#000000" transform="rotate(-90 300.72,1761.51)" text-anchor="middle">0</text>
	<line x1="390.80" y1="1229.12" x2="350.83" y2="1229.12" style="stroke:#000000;stroke-width:5.76"/>
	<text x="300.72" y="1229.12" style="font-family:'Helvetica';font-size:99.99px;fill:#000000" transform="rotate(-90 300.72,1229.12)" text-anchor="middle">20000</text>
	<line x1="390.80" y1="696.61" x2="350.83" y2="696.61" style="stroke:#000000;stroke-width:5.76"/>
	<text x="300.72" y="696.61" style="font-family:'Helvetica';font-size:99.99px;fill:#000000" transform="rotate(-90 300.72,696.61)" text-anchor="middle">40000</text>
	<line x1="390.80" y1="164.22" x2="350.83" y2="164.22" style="stroke:#000000;stroke-width:5.76"/>
	<text x="300.72" y="164.22" style="font-family:'Helvetica';font-size:99.99px;fill:#000000" transform="rotate(-90 300.72,164.22)" text-anchor="middle">60000</text>
	<text x="190.71" y="1294.96" style="font-family:'Helvetica';font-size:99.99px;fill:#000000" transform="rotate(-90 190.71,1294.96)" text-anchor="middle">Confirmed cases per 100 beds</text>
	<line x1="390.80" y1="2489.19" x2="3859.02" y2="2489.19" style="stroke:#000000;stroke-width:5.76"/>
	<line x1="454.16" y1="2489.19" x2="454.16" y2="2529.16" style="stroke:#000000;stroke-width:5.76"/>
	<text x="454.16" y="2619.14" style="font-family:'Helvetica';font-size:99.99px;fill:#000000" text-anchor="middle">0</text>
	<line x1="1568.04" y1="2489.19" x2="1568.04" y2="2529.16" style="stroke:#000000;stroke-width:5.76"/>
	<text x="1568.04" y="2619.14" style="font-family:'Helvetica';font-size:99.99px;fill:#000000" text-anchor="middle">10</text>
	<line x1="2681.91" y1="2489.19" x2="2681.91" y2="2529.16" style="stroke:#000000;stroke-width:5.76"/>
	<text x="2681.91" y="2619.14" style="font-family:'Helvetica';font-size:99.99px;fill:#000000" text-anchor="middle">20</text>
	<line x1="3795.66" y1="2489.19" x2="3795.66" y2="2529.16" style="stroke:#000000;stroke-width:5.76"/>
	<text x="3795.66" y="2619.14" style="font-family:'Helvetica';font-size:99.99px;fill:#000000" text-anchor="middle">30</text>
	<text x="2124.91" y="2729.16" style="font-family:'Helvetica';font-size:99.99px;fill:#000000" text-anchor="middle">Days since 0.01 confirmed cases per 100 beds</text>
</svg>
