<?xml version="1.0" encoding="UTF-8" standalone="no"?>
<!-- This is a Stata 14.2 generated SVG file (http://www.stata.com) -->

<svg version="1.1" width="5.50in" height="4.00in" viewBox="0 0 3960 2880" xmlns="http://www.w3.org/2000/svg">
	<desc>Stata Graph - Graph</desc>
	<line x1="390.80" y1="2425.08" x2="3859.02" y2="2425.08" style="stroke:#FF0000;stroke-width:8.64"/>
	<path d="M606.00 2425.82 L606.00 2425.82 L757.97 2425.82 L909.81 2425.82 L1061.65 2425.82 L1213.62 2425.82 L1365.46 2425.82 L1517.42 2425.82 L1669.26 2425.82 L1821.11 2425.70 L1973.07 2425.45 L2124.91 2424.96 L2276.88 2423.84 L2428.72 2421.49 L2580.56 2416.91 L2732.52 2408.25 L2884.36 2393.15 L3036.33 2367.16 L3188.17 2324.59 L3340.01 2257.02 L3491.98 2153.19 L3643.82 1998.38 L3795.66 1774.51 L3795.66 164.22 L3643.82 918.25 L3491.98 1458.19 L3340.01 1829.82 L3188.17 2074.86 L3036.33 2229.18 L2884.36 2321.38 L2732.52 2373.60 L2580.56 2401.32 L2428.72 2415.18 L2276.88 2421.49 L2124.91 2424.21 L1973.07 2425.33 L1821.11 2425.70 L1669.26 2425.82 L1517.42 2425.82 L1365.46 2425.82 L1213.62 2425.82 L1061.65 2425.82 L909.81 2425.82 L757.97 2425.82 L606.00 2425.82 L606.00 2425.82 Z" stroke-linecap="round" style="fill:#EBEBFF;stroke:#E6E6FF;stroke-width:3.00"/>
	<path d="M606.00 2425.82 L606.00 2425.82 L757.97 2425.82 L909.81 2425.82 L1061.65 2425.82 L1213.62 2425.82 L1365.46 2425.82 L1517.42 2425.82 L1669.26 2425.82 L1821.11 2425.70 L1973.07 2425.45 L2124.91 2424.71 L2276.88 2423.22 L2428.72 2419.64 L2580.56 2412.33 L2732.52 2398.23 L2884.36 2372.36 L3036.33 2327.32 L3188.17 2252.57 L3340.01 2133.76 L3491.98 1952.59 L3643.82 1686.64 L3795.66 1309.81 L3795.66 628.92 L3643.82 1229.99 L3491.98 1658.67 L3340.01 1953.08 L3188.17 2147.01 L3036.33 2269.03 L2884.36 2342.04 L2732.52 2383.62 L2580.56 2405.78 L2428.72 2416.91 L2276.88 2422.23 L2124.91 2424.46 L1973.07 2425.33 L1821.11 2425.70 L1669.26 2425.82 L1517.42 2425.82 L1365.46 2425.82 L1213.62 2425.82 L1061.65 2425.82 L909.81 2425.82 L757.97 2425.82 L606.00 2425.82 L606.00 2425.82 Z" stroke-linecap="round" style="fill:#D6D6FF;stroke:#CCCCFF;stroke-width:3.00"/>
	<path d="M606.00 2425.82 L606.00 2425.82 L757.97 2425.82 L909.81 2425.82 L1061.65 2425.82 L1213.62 2425.82 L1365.46 2425.82 L1517.42 2425.82 L1669.26 2425.82 L1821.11 2425.70 L1973.07 2425.45 L2124.91 2424.71 L2276.88 2423.10 L2428.72 2419.39 L2580.56 2411.72 L2732.52 2396.62 L2884.36 2369.02 L3036.33 2320.88 L3188.17 2240.94 L3340.01 2113.84 L3491.98 1920.17 L3643.82 1636.27 L3795.66 1234.57 L3795.66 704.16 L3643.82 1280.48 L3491.98 1691.22 L3340.01 1973.01 L3188.17 2158.64 L3036.33 2275.46 L2884.36 2345.38 L2732.52 2385.23 L2580.56 2406.52 L2428.72 2417.28 L2276.88 2422.36 L2124.91 2424.46 L1973.07 2425.33 L1821.11 2425.70 L1669.26 2425.82 L1517.42 2425.82 L1365.46 2425.82 L1213.62 2425.82 L1061.65 2425.82 L909.81 2425.82 L757.97 2425.82 L606.00 2425.82 L606.00 2425.82 Z" stroke-linecap="round" style="fill:#C2C2FF;stroke:#B3B3FF;stroke-width:3.00"/>
	<path d="M606.00 2425.82 L606.00 2425.82 L757.97 2425.82 L909.81 2425.82 L1061.65 2425.82 L1213.62 2425.82 L1365.46 2425.82 L1517.42 2425.82 L1669.26 2425.82 L1821.11 2425.70 L1973.07 2425.45 L2124.91 2424.71 L2276.88 2422.98 L2428.72 2419.14 L2580.56 2411.22 L2732.52 2395.50 L2884.36 2366.79 L3036.33 2316.55 L3188.17 2233.01 L3340.01 2100.35 L3491.98 1898.26 L3643.82 1602.24 L3795.66 1183.83 L3795.66 754.90 L3643.82 1314.39 L3491.98 1713.12 L3340.01 1986.50 L3188.17 2166.44 L3036.33 2279.79 L2884.36 2347.73 L2732.52 2386.35 L2580.56 2407.01 L2428.72 2417.41 L2276.88 2422.36 L2124.91 2424.46 L1973.07 2425.33 L1821.11 2425.70 L1669.26 2425.82 L1517.42 2425.82 L1365.46 2425.82 L1213.62 2425.82 L1061.65 2425.82 L909.81 2425.82 L757.97 2425.82 L606.00 2425.82 L606.00 2425.82 Z" stroke-linecap="round" style="fill:#ADADFF;stroke:#9999FF;stroke-width:3.00"/>
	<path d="M606.00 2425.82 L606.00 2425.82 L757.97 2425.82 L909.81 2425.82 L1061.65 2425.82 L1213.62 2425.82 L1365.46 2425.82 L1517.42 2425.82 L1669.26 2425.82 L1821.11 2425.70 L1973.07 2425.45 L2124.91 2424.71 L2276.88 2422.98 L2428.72 2419.02 L2580.56 2410.73 L2732.52 2394.64 L2884.36 2365.06 L3036.33 2313.08 L3188.17 2226.70 L3340.01 2089.58 L3491.98 1880.81 L3643.82 1575.14 L3795.66 1143.49 L3795.66 795.12 L3643.82 1341.49 L3491.98 1730.45 L3340.01 1997.14 L3188.17 2172.75 L3036.33 2283.26 L2884.36 2349.47 L2732.52 2387.21 L2580.56 2407.38 L2428.72 2417.66 L2276.88 2422.48 L2124.91 2424.59 L1973.07 2425.33 L1821.11 2425.70 L1669.26 2425.82 L1517.42 2425.82 L1365.46 2425.82 L1213.62 2425.82 L1061.65 2425.82 L909.81 2425.82 L757.97 2425.82 L606.00 2425.82 L606.00 2425.82 Z" stroke-linecap="round" style="fill:#9999FF;stroke:#8080FF;stroke-width:3.00"/>
	<path d="M606.00 2425.82 L606.00 2425.82 L757.97 2425.82 L909.81 2425.82 L1061.65 2425.82 L1213.62 2425.82 L1365.46 2425.82 L1517.42 2425.82 L1669.26 2425.82 L1821.11 2425.70 L1973.07 2425.45 L2124.91 2424.71 L2276.88 2422.85 L2428.72 2418.89 L2580.56 2410.48 L2732.52 2393.89 L2884.36 2363.45 L3036.33 2310.11 L3188.17 2221.38 L3340.01 2080.43 L3491.98 1865.96 L3643.82 1552.00 L3795.66 1108.96 L3795.66 829.77 L3643.82 1364.63 L3491.98 1745.42 L3340.01 2006.42 L3188.17 2178.07 L3036.33 2286.23 L2884.36 2351.08 L2732.52 2387.95 L2580.56 2407.76 L2428.72 2417.78 L2276.88 2422.48 L2124.91 2424.59 L1973.07 2425.33 L1821.11 2425.70 L1669.26 2425.82 L1517.42 2425.82 L1365.46 2425.82 L1213.62 2425.82 L1061.65 2425.82 L909.81 2425.82 L757.97 2425.82 L606.00 2425.82 L606.00 2425.82 Z" stroke-linecap="round" style="fill:#8585FF;stroke:#6666FF;stroke-width:3.00"/>
	<path d="M606.00 2425.82 L606.00 2425.82 L757.97 2425.82 L909.81 2425.82 L1061.65 2425.82 L1213.62 2425.82 L1365.46 2425.82 L1517.42 2425.82 L1669.26 2425.82 L1821.11 2425.70 L1973.07 2425.45 L2124.91 2424.71 L2276.88 2422.85 L2428.72 2418.77 L2580.56 2410.11 L2732.52 2393.28 L2884.36 2362.09 L3036.33 2307.51 L3188.17 2216.56 L3340.01 2072.26 L3491.98 1852.47 L3643.82 1531.08 L3795.66 1077.90 L3795.66 860.83 L3643.82 1385.55 L3491.98 1758.79 L3340.01 2014.59 L3188.17 2182.89 L3036.33 2288.83 L2884.36 2352.44 L2732.52 2388.57 L2580.56 2408.00 L2428.72 2417.90 L2276.88 2422.48 L2124.91 2424.59 L1973.07 2425.45 L1821.11 2425.70 L1669.26 2425.82 L1517.42 2425.82 L1365.46 2425.82 L1213.62 2425.82 L1061.65 2425.82 L909.81 2425.82 L757.97 2425.82 L606.00 2425.82 L606.00 2425.82 Z" stroke-linecap="round" style="fill:#7171FF;stroke:#4D4DFF;stroke-width:3.00"/>
	<path d="M606.00 2425.82 L606.00 2425.82 L757.97 2425.82 L909.81 2425.82 L1061.65 2425.82 L1213.62 2425.82 L1365.46 2425.82 L1517.42 2425.82 L1669.26 2425.82 L1821.11 2425.70 L1973.07 2425.45 L2124.91 2424.71 L2276.88 2422.85 L2428.72 2418.65 L2580.56 2409.86 L2732.52 2392.66 L2884.36 2360.85 L3036.33 2305.04 L3188.17 2212.10 L3340.01 2064.59 L3491.98 1840.10 L3643.82 1511.78 L3795.66 1049.06 L3795.66 889.54 L3643.82 1404.85 L3491.98 1771.29 L3340.01 2022.26 L3188.17 2187.35 L3036.33 2291.30 L2884.36 2353.67 L2732.52 2389.19 L2580.56 2408.37 L2428.72 2418.03 L2276.88 2422.61 L2124.91 2424.59 L1973.07 2425.45 L1821.11 2425.70 L1669.26 2425.82 L1517.42 2425.82 L1365.46 2425.82 L1213.62 2425.82 L1061.65 2425.82 L909.81 2425.82 L757.97 2425.82 L606.00 2425.82 L606.00 2425.82 Z" stroke-linecap="round" style="fill:#5C5CFF;stroke:#3333FF;stroke-width:3.00"/>
	<path d="M606.00 2425.82 L606.00 2425.82 L757.97 2425.82 L909.81 2425.82 L1061.65 2425.82 L1213.62 2425.82 L1365.46 2425.82 L1517.42 2425.82 L1669.26 2425.82 L1821.11 2425.70 L1973.07 2425.45 L2124.91 2424.59 L2276.88 2422.73 L2428.72 2418.52 L2580.56 2409.61 L2732.52 2392.04 L2884.36 2359.61 L3036.33 2302.69 L3188.17 2207.89 L3340.01 2057.28 L3491.98 1828.34 L3643.82 1493.46 L3795.66 1021.84 L3795.66 916.89 L3643.82 1423.17 L3491.98 1783.05 L3340.01 2029.44 L3188.17 2191.68 L3036.33 2293.65 L2884.36 2354.91 L2732.52 2389.81 L2580.56 2408.62 L2428.72 2418.15 L2276.88 2422.61 L2124.91 2424.59 L1973.07 2425.45 L1821.11 2425.70 L1669.26 2425.82 L1517.42 2425.82 L1365.46 2425.82 L1213.62 2425.82 L1061.65 2425.82 L909.81 2425.82 L757.97 2425.82 L606.00 2425.82 L606.00 2425.82 Z" stroke-linecap="round" style="fill:#4747FF;stroke:#1919FF;stroke-width:3.00"/>
	<path d="M606.00 2425.82 L606.00 2425.82 L757.97 2425.82 L909.81 2425.82 L1061.65 2425.82 L1213.62 2425.82 L1365.46 2425.82 L1517.42 2425.82 L1669.26 2425.82 L1821.11 2425.70 L1973.07 2425.45 L2124.91 2424.59 L2276.88 2422.73 L2428.72 2418.40 L2580.56 2409.36 L2732.52 2391.54 L2884.36 2358.38 L3036.33 2300.34 L3188.17 2203.81 L3340.01 2050.35 L3491.98 1816.83 L3643.82 1475.76 L3795.66 995.35 L3795.66 943.38 L3643.82 1440.87 L3491.98 1794.43 L3340.01 2036.49 L3188.17 2195.76 L3036.33 2295.88 L2884.36 2356.03 L2732.52 2390.43 L2580.56 2408.87 L2428.72 2418.15 L2276.88 2422.61 L2124.91 2424.59 L1973.07 2425.45 L1821.11 2425.70 L1669.26 2425.82 L1517.42 2425.82 L1365.46 2425.82 L1213.62 2425.82 L1061.65 2425.82 L909.81 2425.82 L757.97 2425.82 L606.00 2425.82 L606.00 2425.82 Z" stroke-linecap="round" style="fill:#3333FF;stroke:#0000FF;stroke-width:3.00"/>
	<circle cx="606.00" cy="2425.95" r="22.03" style="fill:#000000;stroke:#000000;stroke-width:8.64"/>
	<circle cx="757.85" cy="2425.95" r="22.03" style="fill:#000000;stroke:#000000;stroke-width:8.64"/>
	<circle cx="909.69" cy="2425.95" r="22.03" style="fill:#000000;stroke:#000000;stroke-width:8.64"/>
	<circle cx="1061.65" cy="2425.95" r="22.03" style="fill:#000000;stroke:#000000;stroke-width:8.64"/>
	<circle cx="1213.49" cy="2425.95" r="22.03" style="fill:#000000;stroke:#000000;stroke-width:8.64"/>
	<circle cx="1365.46" cy="2425.95" r="22.03" style="fill:#000000;stroke:#000000;stroke-width:8.64"/>
	<circle cx="1517.30" cy="2425.95" r="22.03" style="fill:#000000;stroke:#000000;stroke-width:8.64"/>
	<circle cx="1669.14" cy="2425.82" r="22.03" style="fill:#000000;stroke:#000000;stroke-width:8.64"/>
	<line x1="390.80" y1="2489.19" x2="390.80" y2="100.86" style="stroke:#000000;stroke-width:5.76"/>
	<line x1="390.80" y1="2425.82" x2="350.83" y2="2425.82" style="stroke:#000000;stroke-width:5.76"/>
	<text x="300.72" y="2425.82" style="font-family:'Helvetica';font-size:99.99px;fill:#000000" transform="rotate(-90 300.72,2425.82)" text-anchor="middle">0</text>
	<line x1="390.80" y1="1681.32" x2="350.83" y2="1681.32" style="stroke:#000000;stroke-width:5.76"/>
	<text x="300.72" y="1681.32" style="font-family:'Helvetica';font-size:99.99px;fill:#000000" transform="rotate(-90 300.72,1681.32)" text-anchor="middle">10000</text>
	<line x1="390.80" y1="936.82" x2="350.83" y2="936.82" style="stroke:#000000;stroke-width:5.76"/>
	<text x="300.72" y="936.82" style="font-family:'Helvetica';font-size:99.99px;fill:#000000" transform="rotate(-90 300.72,936.82)" text-anchor="middle">20000</text>
	<line x1="390.80" y1="192.31" x2="350.83" y2="192.31" style="stroke:#000000;stroke-width:5.76"/>
	<text x="300.72" y="192.31" style="font-family:'Helvetica';font-size:99.99px;fill:#000000" transform="rotate(-90 300.72,192.31)" text-anchor="middle">30000</text>
	<text x="190.71" y="1294.96" style="font-family:'Helvetica';font-size:99.99px;fill:#000000" transform="rotate(-90 190.71,1294.96)" text-anchor="middle">Confirmed cases per 100 beds</text>
	<line x1="390.80" y1="2489.19" x2="3859.02" y2="2489.19" style="stroke:#000000;stroke-width:5.76"/>
	<line x1="454.16" y1="2489.19" x2="454.16" y2="2529.16" style="stroke:#000000;stroke-width:5.76"/>
	<text x="454.16" y="2619.14" style="font-family:'Helvetica';font-size:99.99px;fill:#000000" text-anchor="middle">0</text>
	<line x1="606.00" y1="2489.19" x2="606.00" y2="2529.16" style="stroke:#000000;stroke-width:5.76"/>
	<text x="606.00" y="2619.14" style="font-family:'Helvetica';font-size:99.99px;fill:#000000" text-anchor="middle">1</text>
	<line x1="757.97" y1="2489.19" x2="757.97" y2="2529.16" style="stroke:#000000;stroke-width:5.76"/>
	<text x="757.97" y="2619.14" style="font-family:'Helvetica';font-size:99.99px;fill:#000000" text-anchor="middle">2</text>
	<line x1="909.81" y1="2489.19" x2="909.81" y2="2529.16" style="stroke:#000000;stroke-width:5.76"/>
	<text x="909.81" y="2619.14" style="font-family:'Helvetica';font-size:99.99px;fill:#000000" text-anchor="middle">3</text>
	<line x1="1061.65" y1="2489.19" x2="1061.65" y2="2529.16" style="stroke:#000000;stroke-width:5.76"/>
	<text x="1061.65" y="2619.14" style="font-family:'Helvetica';font-size:99.99px;fill:#000000" text-anchor="middle">4</text>
	<line x1="1213.62" y1="2489.19" x2="1213.62" y2="2529.16" style="stroke:#000000;stroke-width:5.76"/>
	<text x="1213.62" y="2619.14" style="font-family:'Helvetica';font-size:99.99px;fill:#000000" text-anchor="middle">5</text>
	<line x1="1365.46" y1="2489.19" x2="1365.46" y2="2529.16" style="stroke:#000000;stroke-width:5.76"/>
	<text x="1365.46" y="2619.14" style="font-family:'Helvetica';font-size:99.99px;fill:#000000" text-anchor="middle">6</text>
	<line x1="1517.42" y1="2489.19" x2="1517.42" y2="2529.16" style="stroke:#000000;stroke-width:5.76"/>
	<text x="1517.42" y="2619.14" style="font-family:'Helvetica';font-size:99.99px;fill:#000000" text-anchor="middle">7</text>
	<line x1="1669.26" y1="2489.19" x2="1669.26" y2="2529.16" style="stroke:#000000;stroke-width:5.76"/>
	<text x="1669.26" y="2619.14" style="font-family:'Helvetica';font-size:99.99px;fill:#000000" text-anchor="middle">8</text>
	<line x1="1821.11" y1="2489.19" x2="1821.11" y2="2529.16" style="stroke:#000000;stroke-width:5.76"/>
	<text x="1821.11" y="2619.14" style="font-family:'Helvetica';font-size:99.99px;fill:#000000" text-anchor="middle">9</text>
	<line x1="1973.07" y1="2489.19" x2="1973.07" y2="2529.16" style="stroke:#000000;stroke-width:5.76"/>
	<text x="1973.07" y="2619.14" style="font-family:'Helvetica';font-size:99.99px;fill:#000000" text-anchor="middle">10</text>
	<line x1="2124.91" y1="2489.19" x2="2124.91" y2="2529.16" style="stroke:#000000;stroke-width:5.76"/>
	<text x="2124.91" y="2619.14" style="font-family:'Helvetica';font-size:99.99px;fill:#000000" text-anchor="middle">11</text>
	<line x1="2276.88" y1="2489.19" x2="2276.88" y2="2529.16" style="stroke:#000000;stroke-width:5.76"/>
	<text x="2276.88" y="2619.14" style="font-family:'Helvetica';font-size:99.99px;fill:#000000" text-anchor="middle">12</text>
	<line x1="2428.72" y1="2489.19" x2="2428.72" y2="2529.16" style="stroke:#000000;stroke-width:5.76"/>
	<text x="2428.72" y="2619.14" style="font-family:'Helvetica';font-size:99.99px;fill:#000000" text-anchor="middle">13</text>
	<line x1="2580.56" y1="2489.19" x2="2580.56" y2="2529.16" style="stroke:#000000;stroke-width:5.76"/>
	<text x="2580.56" y="2619.14" style="font-family:'Helvetica';font-size:99.99px;fill:#000000" text-anchor="middle">14</text>
	<line x1="2732.52" y1="2489.19" x2="2732.52" y2="2529.16" style="stroke:#000000;stroke-width:5.76"/>
	<text x="2732.52" y="2619.14" style="font-family:'Helvetica';font-size:99.99px;fill:#000000" text-anchor="middle">15</text>
	<line x1="2884.36" y1="2489.19" x2="2884.36" y2="2529.16" style="stroke:#000000;stroke-width:5.76"/>
	<text x="2884.36" y="2619.14" style="font-family:'Helvetica';font-size:99.99px;fill:#000000" text-anchor="middle">16</text>
	<line x1="3036.33" y1="2489.19" x2="3036.33" y2="2529.16" style="stroke:#000000;stroke-width:5.76"/>
	<text x="3036.33" y="2619.14" style="font-family:'Helvetica';font-size:99.99px;fill:#000000" text-anchor="middle">17</text>
	<line x1="3188.17" y1="2489.19" x2="3188.17" y2="2529.16" style="stroke:#000000;stroke-width:5.76"/>
	<text x="3188.17" y="2619.14" style="font-family:'Helvetica';font-size:99.99px;fill:#000000" text-anchor="middle">18</text>
	<line x1="3340.01" y1="2489.19" x2="3340.01" y2="2529.16" style="stroke:#000000;stroke-width:5.76"/>
	<text x="3340.01" y="2619.14" style="font-family:'Helvetica';font-size:99.99px;fill:#000000" text-anchor="middle">19</text>
	<line x1="3491.98" y1="2489.19" x2="3491.98" y2="2529.16" style="stroke:#000000;stroke-width:5.76"/>
	<text x="3491.98" y="2619.14" style="font-family:'Helvetica';font-size:99.99px;fill:#000000" text-anchor="middle">20</text>
	<line x1="3643.82" y1="2489.19" x2="3643.82" y2="2529.16" style="stroke:#000000;stroke-width:5.76"/>
	<text x="3643.82" y="2619.14" style="font-family:'Helvetica';font-size:99.99px;fill:#000000" text-anchor="middle">21</text>
	<line x1="3795.66" y1="2489.19" x2="3795.66" y2="2529.16" style="stroke:#000000;stroke-width:5.76"/>
	<text x="3795.66" y="2619.14" style="font-family:'Helvetica';font-size:99.99px;fill:#000000" text-anchor="middle">22</text>
	<text x="2124.91" y="2729.16" style="font-family:'Helvetica';font-size:99.99px;fill:#000000" text-anchor="middle">Days since 0.01 confirmed cases per 100 beds</text>
</svg>
