<?xml version="1.0" encoding="UTF-8" standalone="no"?>
<!-- This is a Stata 14.2 generated SVG file (http://www.stata.com) -->

<svg version="1.1" width="5.50in" height="4.00in" viewBox="0 0 3960 2880" xmlns="http://www.w3.org/2000/svg">
	<desc>Stata Graph - Graph</desc>
	<line x1="390.80" y1="1290.38" x2="3859.02" y2="1290.38" style="stroke:#FF0000;stroke-width:8.64"/>
	<path d="M537.69 2416.79 L537.69 2416.79 L621.23 2417.16 L704.76 2417.90 L788.29 2419.51 L871.82 2421.86 L955.35 2424.46 L1038.88 2425.82 L1122.41 2423.60 L1205.94 2414.93 L1289.47 2397.24 L1373.13 2369.27 L1456.66 2331.52 L1540.19 2286.60 L1623.72 2236.60 L1707.26 2181.04 L1790.79 2118.54 L1874.32 2047.63 L1957.85 1968.31 L2041.38 1882.79 L2124.91 1802.10 L2208.44 1748.27 L2291.97 1717.58 L2375.51 1700.63 L2459.04 1694.56 L2542.57 1697.41 L2626.22 1707.56 L2709.75 1723.77 L2793.28 1744.43 L2876.82 1768.57 L2960.35 1794.93 L3043.88 1822.65 L3127.41 1850.99 L3210.94 1879.33 L3294.47 1907.29 L3378.00 1934.27 L3378.00 284.02 L3294.47 349.73 L3210.94 421.38 L3127.41 499.10 L3043.88 583.00 L2960.35 673.10 L2876.82 769.13 L2793.28 870.73 L2709.75 977.28 L2626.22 1088.04 L2542.57 1201.90 L2459.04 1317.36 L2375.51 1432.57 L2291.97 1545.19 L2208.44 1651.12 L2124.91 1739.86 L2041.38 1805.57 L1957.85 1867.94 L1874.32 1935.14 L1790.79 2006.30 L1707.26 2077.95 L1623.72 2145.64 L1540.19 2204.92 L1456.66 2253.31 L1373.13 2291.92 L1289.47 2323.11 L1205.94 2348.72 L1122.41 2369.76 L1038.88 2386.47 L955.35 2398.72 L871.82 2407.14 L788.29 2412.21 L704.76 2414.81 L621.23 2416.05 L537.69 2416.54 L537.69 2416.79 Z" stroke-linecap="round" style="fill:#EBEBFF;stroke:#E6E6FF;stroke-width:3.00"/>
	<path d="M537.69 2416.67 L537.69 2416.67 L621.23 2416.79 L704.76 2417.04 L788.29 2417.41 L871.82 2417.66 L955.35 2417.04 L1038.88 2414.44 L1122.41 2408.13 L1205.94 2395.87 L1289.47 2375.83 L1373.13 2346.87 L1456.66 2309.00 L1540.19 2263.09 L1623.72 2210.37 L1707.26 2151.34 L1790.79 2086.12 L1874.32 2015.21 L1957.85 1939.35 L2041.38 1860.52 L2124.91 1784.16 L2208.44 1720.30 L2291.97 1667.83 L2375.51 1623.28 L2459.04 1585.66 L2542.57 1554.35 L2626.22 1528.86 L2709.75 1508.31 L2793.28 1492.22 L2876.82 1480.10 L2960.35 1471.06 L3043.88 1464.87 L3127.41 1460.79 L3210.94 1458.56 L3294.47 1457.70 L3378.00 1457.94 L3378.00 760.22 L3294.47 799.20 L3210.94 842.15 L3127.41 889.30 L3043.88 940.78 L2960.35 996.84 L2876.82 1057.60 L2793.28 1122.94 L2709.75 1192.74 L2626.22 1266.87 L2542.57 1344.96 L2459.04 1426.14 L2375.51 1509.92 L2291.97 1594.94 L2208.44 1679.22 L2124.91 1757.80 L2041.38 1827.84 L1957.85 1896.90 L1874.32 1967.56 L1790.79 2038.72 L1707.26 2107.78 L1623.72 2171.88 L1540.19 2228.56 L1456.66 2275.96 L1373.13 2314.20 L1289.47 2344.52 L1205.94 2367.91 L1122.41 2385.36 L1038.88 2397.85 L955.35 2406.15 L871.82 2411.34 L788.29 2414.31 L704.76 2415.68 L621.23 2416.29 L537.69 2416.54 L537.69 2416.67 Z" stroke-linecap="round" style="fill:#D6D6FF;stroke:#CCCCFF;stroke-width:3.00"/>
	<path d="M537.69 2416.67 L537.69 2416.67 L621.23 2416.79 L704.76 2416.91 L788.29 2417.04 L871.82 2416.91 L955.35 2415.80 L1038.88 2412.58 L1122.41 2405.53 L1205.94 2392.78 L1289.47 2372.36 L1373.13 2343.28 L1456.66 2305.29 L1540.19 2259.25 L1623.72 2206.04 L1707.26 2146.51 L1790.79 2080.92 L1874.32 2009.89 L1957.85 1934.64 L2041.38 1856.93 L2124.91 1781.19 L2208.44 1715.72 L2291.97 1659.79 L2375.51 1610.78 L2459.04 1568.09 L2542.57 1531.21 L2626.22 1499.90 L2709.75 1473.41 L2793.28 1451.51 L2876.82 1433.44 L2960.35 1418.71 L3043.88 1406.96 L3127.41 1397.68 L3210.94 1390.50 L3294.47 1385.05 L3378.00 1380.97 L3378.00 837.32 L3294.47 871.97 L3210.94 910.21 L3127.41 952.41 L3043.88 998.69 L2960.35 1049.19 L2876.82 1104.26 L2793.28 1163.66 L2709.75 1227.64 L2626.22 1295.83 L2542.57 1368.10 L2459.04 1443.84 L2375.51 1522.42 L2291.97 1602.98 L2208.44 1683.67 L2124.91 1760.77 L2041.38 1831.43 L1957.85 1901.60 L1874.32 1972.88 L1790.79 2043.92 L1707.26 2112.60 L1623.72 2176.21 L1540.19 2232.27 L1456.66 2279.55 L1373.13 2317.79 L1289.47 2347.98 L1205.94 2371.00 L1122.41 2387.83 L1038.88 2399.71 L955.35 2407.38 L871.82 2412.09 L788.29 2414.69 L704.76 2415.92 L621.23 2416.42 L537.69 2416.54 L537.69 2416.67 Z" stroke-linecap="round" style="fill:#C2C2FF;stroke:#B3B3FF;stroke-width:3.00"/>
	<path d="M537.69 2416.67 L537.69 2416.67 L621.23 2416.79 L704.76 2416.79 L788.29 2416.79 L871.82 2416.42 L955.35 2415.06 L1038.88 2411.34 L1122.41 2403.92 L1205.94 2390.68 L1289.47 2370.01 L1373.13 2340.80 L1456.66 2302.81 L1540.19 2256.65 L1623.72 2203.19 L1707.26 2143.29 L1790.79 2077.33 L1874.32 2006.42 L1957.85 1931.55 L2041.38 1854.45 L2124.91 1779.33 L2208.44 1712.63 L2291.97 1654.34 L2375.51 1602.37 L2459.04 1556.20 L2542.57 1515.61 L2626.22 1480.34 L2709.75 1449.90 L2793.28 1423.91 L2876.82 1401.88 L2960.35 1383.44 L3043.88 1367.98 L3127.41 1355.10 L3210.94 1344.59 L3294.47 1335.92 L3378.00 1328.99 L3378.00 889.30 L3294.47 920.98 L3210.94 956.12 L3127.41 994.98 L3043.88 1037.68 L2960.35 1084.58 L2876.82 1135.69 L2793.28 1191.25 L2709.75 1251.15 L2626.22 1315.38 L2542.57 1383.69 L2459.04 1455.72 L2375.51 1530.84 L2291.97 1608.43 L2208.44 1686.77 L2124.91 1762.75 L2041.38 1833.91 L1957.85 1904.82 L1874.32 1976.47 L1790.79 2047.51 L1707.26 2115.82 L1623.72 2179.06 L1540.19 2234.87 L1456.66 2282.02 L1373.13 2320.26 L1289.47 2350.33 L1205.94 2372.98 L1122.41 2389.56 L1038.88 2400.95 L955.35 2408.25 L871.82 2412.58 L788.29 2414.81 L704.76 2415.92 L621.23 2416.42 L537.69 2416.54 L537.69 2416.67 Z" stroke-linecap="round" style="fill:#ADADFF;stroke:#9999FF;stroke-width:3.00"/>
	<path d="M537.69 2416.67 L537.69 2416.67 L621.23 2416.67 L704.76 2416.79 L788.29 2416.67 L871.82 2416.05 L955.35 2414.44 L1038.88 2410.35 L1122.41 2402.56 L1205.94 2389.07 L1289.47 2368.15 L1373.13 2338.95 L1456.66 2300.83 L1540.19 2254.55 L1623.72 2200.96 L1707.26 2140.69 L1790.79 2074.61 L1874.32 2003.58 L1957.85 1928.95 L2041.38 1852.60 L2124.91 1777.72 L2208.44 1710.28 L2291.97 1650.01 L2375.51 1595.56 L2459.04 1546.68 L2542.57 1503.24 L2626.22 1464.87 L2709.75 1431.21 L2793.28 1402.13 L2876.82 1376.89 L2960.35 1355.35 L3043.88 1336.91 L3127.41 1321.20 L3210.94 1308.08 L3294.47 1296.94 L3378.00 1287.66 L3378.00 930.63 L3294.47 959.96 L3210.94 992.63 L3127.41 1028.77 L3043.88 1068.74 L2960.35 1112.67 L2876.82 1160.69 L2793.28 1213.04 L2709.75 1269.84 L2626.22 1330.85 L2542.57 1396.07 L2459.04 1465.12 L2375.51 1537.64 L2291.97 1612.76 L2208.44 1689.24 L2124.91 1764.24 L2041.38 1835.76 L1957.85 1907.29 L1874.32 1979.20 L1790.79 2050.23 L1707.26 2118.42 L1623.72 2181.29 L1540.19 2236.97 L1456.66 2284.00 L1373.13 2322.24 L1289.47 2352.19 L1205.94 2374.71 L1122.41 2390.92 L1038.88 2401.94 L955.35 2408.87 L871.82 2412.95 L788.29 2415.06 L704.76 2416.05 L621.23 2416.42 L537.69 2416.67 L537.69 2416.67 Z" stroke-linecap="round" style="fill:#9999FF;stroke:#8080FF;stroke-width:3.00"/>
	<path d="M537.69 2416.67 L537.69 2416.67 L621.23 2416.67 L704.76 2416.67 L788.29 2416.54 L871.82 2415.80 L955.35 2413.82 L1038.88 2409.61 L1122.41 2401.32 L1205.94 2387.58 L1289.47 2366.55 L1373.13 2337.22 L1456.66 2299.22 L1540.19 2252.82 L1623.72 2198.98 L1707.26 2138.47 L1790.79 2072.13 L1874.32 2001.10 L1957.85 1926.85 L2041.38 1850.86 L2124.91 1776.36 L2208.44 1708.17 L2291.97 1646.30 L2375.51 1589.87 L2459.04 1538.63 L2542.57 1492.60 L2626.22 1451.51 L2709.75 1415.25 L2793.28 1383.32 L2876.82 1355.48 L2960.35 1331.22 L3043.88 1310.31 L3127.41 1292.24 L3210.94 1276.77 L3294.47 1263.53 L3378.00 1252.14 L3378.00 966.02 L3294.47 993.50 L3210.94 1023.94 L3127.41 1057.85 L3043.88 1095.35 L2960.35 1136.68 L2876.82 1182.22 L2793.28 1231.85 L2709.75 1285.80 L2626.22 1344.09 L2542.57 1406.71 L2459.04 1473.29 L2375.51 1543.33 L2291.97 1616.47 L2208.44 1691.34 L2124.91 1765.60 L2041.38 1837.50 L1957.85 1909.40 L1874.32 1981.67 L1790.79 2052.71 L1707.26 2120.65 L1623.72 2183.27 L1540.19 2238.71 L1456.66 2285.61 L1373.13 2323.85 L1289.47 2353.80 L1205.94 2376.07 L1122.41 2392.04 L1038.88 2402.68 L955.35 2409.36 L871.82 2413.20 L788.29 2415.18 L704.76 2416.17 L621.23 2416.54 L537.69 2416.67 L537.69 2416.67 Z" stroke-linecap="round" style="fill:#8585FF;stroke:#6666FF;stroke-width:3.00"/>
	<path d="M537.69 2416.67 L537.69 2416.67 L621.23 2416.67 L704.76 2416.67 L788.29 2416.29 L871.82 2415.55 L955.35 2413.32 L1038.88 2408.75 L1122.41 2400.33 L1205.94 2386.35 L1289.47 2365.18 L1373.13 2335.73 L1456.66 2297.74 L1540.19 2251.33 L1623.72 2197.25 L1707.26 2136.49 L1790.79 2070.03 L1874.32 1999.00 L1957.85 1924.87 L2041.38 1849.38 L2124.91 1775.13 L2208.44 1706.32 L2291.97 1642.96 L2375.51 1584.67 L2459.04 1531.33 L2542.57 1483.07 L2626.22 1439.63 L2709.75 1400.77 L2793.28 1366.49 L2876.82 1336.17 L2960.35 1309.56 L3043.88 1286.30 L3127.41 1266.13 L3210.94 1248.55 L3294.47 1233.45 L3378.00 1220.34 L3378.00 997.95 L3294.47 1023.44 L3210.94 1052.03 L3127.41 1083.96 L3043.88 1119.23 L2960.35 1158.34 L2876.82 1201.40 L2793.28 1248.68 L2709.75 1300.28 L2626.22 1356.09 L2542.57 1416.24 L2459.04 1480.47 L2375.51 1548.53 L2291.97 1619.69 L2208.44 1693.20 L2124.91 1766.83 L2041.38 1838.98 L1957.85 1911.38 L1874.32 1983.77 L1790.79 2054.81 L1707.26 2122.63 L1623.72 2185.00 L1540.19 2240.32 L1456.66 2287.22 L1373.13 2325.34 L1289.47 2355.16 L1205.94 2377.44 L1122.41 2393.03 L1038.88 2403.55 L955.35 2409.86 L871.82 2413.45 L788.29 2415.30 L704.76 2416.17 L621.23 2416.54 L537.69 2416.67 L537.69 2416.67 Z" stroke-linecap="round" style="fill:#7171FF;stroke:#4D4DFF;stroke-width:3.00"/>
	<path d="M537.69 2416.67 L537.69 2416.67 L621.23 2416.67 L704.76 2416.54 L788.29 2416.17 L871.82 2415.18 L955.35 2412.95 L1038.88 2408.13 L1122.41 2399.34 L1205.94 2385.11 L1289.47 2363.82 L1373.13 2334.37 L1456.66 2296.25 L1540.19 2249.85 L1623.72 2195.64 L1707.26 2134.63 L1790.79 2067.93 L1874.32 1997.02 L1957.85 1923.14 L2041.38 1848.02 L2124.91 1774.01 L2208.44 1704.59 L2291.97 1639.86 L2375.51 1579.84 L2459.04 1524.65 L2542.57 1474.16 L2626.22 1428.49 L2709.75 1387.53 L2793.28 1350.90 L2876.82 1318.35 L2960.35 1289.52 L3043.88 1264.15 L3127.41 1241.99 L3210.94 1222.56 L3294.47 1205.61 L3378.00 1190.88 L3378.00 1027.40 L3294.47 1051.29 L3210.94 1078.14 L3127.41 1108.09 L3043.88 1141.38 L2960.35 1178.38 L2876.82 1219.35 L2793.28 1264.27 L2709.75 1313.52 L2626.22 1367.11 L2542.57 1425.15 L2459.04 1487.27 L2375.51 1553.36 L2291.97 1622.78 L2208.44 1694.93 L2124.91 1767.95 L2041.38 1840.34 L1957.85 1913.11 L1874.32 1985.88 L1790.79 2056.91 L1707.26 2124.48 L1623.72 2186.61 L1540.19 2241.68 L1456.66 2288.58 L1373.13 2326.70 L1289.47 2356.52 L1205.94 2378.55 L1122.41 2394.02 L1038.88 2404.17 L955.35 2410.35 L871.82 2413.82 L788.29 2415.43 L704.76 2416.29 L621.23 2416.54 L537.69 2416.67 L537.69 2416.67 Z" stroke-linecap="round" style="fill:#5C5CFF;stroke:#3333FF;stroke-width:3.00"/>
	<path d="M537.69 2416.67 L537.69 2416.67 L621.23 2416.67 L704.76 2416.54 L788.29 2416.05 L871.82 2414.93 L955.35 2412.46 L1038.88 2407.38 L1122.41 2398.47 L1205.94 2383.99 L1289.47 2362.59 L1373.13 2333.13 L1456.66 2295.02 L1540.19 2248.48 L1623.72 2194.03 L1707.26 2132.90 L1790.79 2066.07 L1874.32 1995.04 L1957.85 1921.40 L2041.38 1846.66 L2124.91 1773.02 L2208.44 1702.85 L2291.97 1637.02 L2375.51 1575.39 L2459.04 1518.21 L2542.57 1465.74 L2626.22 1417.97 L2709.75 1374.78 L2793.28 1336.05 L2876.82 1301.40 L2960.35 1270.46 L3043.88 1243.23 L3127.41 1219.10 L3210.94 1197.81 L3294.47 1179.13 L3378.00 1162.92 L3378.00 1055.37 L3294.47 1077.77 L3210.94 1102.89 L3127.41 1130.99 L3043.88 1162.42 L2960.35 1197.44 L2876.82 1236.30 L2793.28 1279.12 L2709.75 1326.27 L2626.22 1377.63 L2542.57 1433.56 L2459.04 1493.71 L2375.51 1557.94 L2291.97 1625.75 L2208.44 1696.54 L2124.91 1768.94 L2041.38 1841.71 L1957.85 1914.84 L1874.32 1987.73 L1790.79 2058.77 L1707.26 2126.22 L1623.72 2188.22 L1540.19 2243.16 L1456.66 2289.94 L1373.13 2328.06 L1289.47 2357.76 L1205.94 2379.66 L1122.41 2395.01 L1038.88 2404.91 L955.35 2410.73 L871.82 2414.07 L788.29 2415.55 L704.76 2416.29 L621.23 2416.54 L537.69 2416.67 L537.69 2416.67 Z" stroke-linecap="round" style="fill:#4747FF;stroke:#1919FF;stroke-width:3.00"/>
	<path d="M537.69 2416.67 L537.69 2416.67 L621.23 2416.67 L704.76 2416.42 L788.29 2415.92 L871.82 2414.69 L955.35 2412.09 L1038.88 2406.77 L1122.41 2397.61 L1205.94 2382.88 L1289.47 2361.35 L1373.13 2331.77 L1456.66 2293.65 L1540.19 2247.12 L1623.72 2192.55 L1707.26 2131.17 L1790.79 2064.21 L1874.32 1993.18 L1957.85 1919.79 L2041.38 1845.42 L2124.91 1772.03 L2208.44 1701.24 L2291.97 1634.17 L2375.51 1570.93 L2459.04 1512.02 L2542.57 1457.70 L2626.22 1407.82 L2709.75 1362.53 L2793.28 1321.69 L2876.82 1284.94 L2960.35 1252.14 L3043.88 1222.81 L3127.41 1196.82 L3210.94 1173.93 L3294.47 1153.63 L3378.00 1135.81 L3378.00 1082.48 L3294.47 1103.27 L3210.94 1126.78 L3127.41 1153.14 L3043.88 1182.84 L2960.35 1215.88 L2876.82 1252.64 L2793.28 1293.48 L2709.75 1338.52 L2626.22 1387.90 L2542.57 1441.61 L2459.04 1499.90 L2375.51 1562.27 L2291.97 1628.60 L2208.44 1698.15 L2124.91 1769.93 L2041.38 1842.94 L1957.85 1916.45 L1874.32 1989.59 L1790.79 2060.63 L1707.26 2127.82 L1623.72 2189.70 L1540.19 2244.40 L1456.66 2291.18 L1373.13 2329.30 L1289.47 2359.00 L1205.94 2380.78 L1122.41 2395.87 L1038.88 2405.53 L955.35 2411.22 L871.82 2414.31 L788.29 2415.68 L704.76 2416.29 L621.23 2416.54 L537.69 2416.67 L537.69 2416.67 Z" stroke-linecap="round" style="fill:#3333FF;stroke:#0000FF;stroke-width:3.00"/>
	<circle cx="537.57" cy="2414.81" r="22.03" style="fill:#000000;stroke:#000000;stroke-width:8.64"/>
	<circle cx="621.10" cy="2413.82" r="22.03" style="fill:#000000;stroke:#000000;stroke-width:8.64"/>
	<circle cx="704.76" cy="2409.36" r="22.03" style="fill:#000000;stroke:#000000;stroke-width:8.64"/>
	<circle cx="788.29" cy="2407.38" r="22.03" style="fill:#000000;stroke:#000000;stroke-width:8.64"/>
	<circle cx="871.82" cy="2404.41" r="22.03" style="fill:#000000;stroke:#000000;stroke-width:8.64"/>
	<circle cx="955.35" cy="2400.45" r="22.03" style="fill:#000000;stroke:#000000;stroke-width:8.64"/>
	<circle cx="1038.88" cy="2389.07" r="22.03" style="fill:#000000;stroke:#000000;stroke-width:8.64"/>
	<circle cx="1122.41" cy="2374.34" r="22.03" style="fill:#000000;stroke:#000000;stroke-width:8.64"/>
	<circle cx="1205.94" cy="2360.98" r="22.03" style="fill:#000000;stroke:#000000;stroke-width:8.64"/>
	<circle cx="1289.47" cy="2344.27" r="22.03" style="fill:#000000;stroke:#000000;stroke-width:8.64"/>
	<circle cx="1373.01" cy="2333.38" r="22.03" style="fill:#000000;stroke:#000000;stroke-width:8.64"/>
	<circle cx="1456.54" cy="2322.12" r="22.03" style="fill:#000000;stroke:#000000;stroke-width:8.64"/>
	<circle cx="1540.07" cy="2280.17" r="22.03" style="fill:#000000;stroke:#000000;stroke-width:8.64"/>
	<circle cx="1623.60" cy="2175.72" r="22.03" style="fill:#000000;stroke:#000000;stroke-width:8.64"/>
	<circle cx="1707.13" cy="2110.62" r="22.03" style="fill:#000000;stroke:#000000;stroke-width:8.64"/>
	<circle cx="1790.66" cy="2110.62" r="22.03" style="fill:#000000;stroke:#000000;stroke-width:8.64"/>
	<circle cx="1874.19" cy="1969.67" r="22.03" style="fill:#000000;stroke:#000000;stroke-width:8.64"/>
	<circle cx="1957.85" cy="1885.89" r="22.03" style="fill:#000000;stroke:#000000;stroke-width:8.64"/>
	<circle cx="2041.38" cy="1840.59" r="22.03" style="fill:#000000;stroke:#000000;stroke-width:8.64"/>
	<circle cx="2124.91" cy="1772.03" r="22.03" style="fill:#000000;stroke:#000000;stroke-width:8.64"/>
	<circle cx="2208.44" cy="1715.35" r="22.03" style="fill:#000000;stroke:#000000;stroke-width:8.64"/>
	<line x1="390.80" y1="2489.19" x2="390.80" y2="100.86" style="stroke:#000000;stroke-width:5.76"/>
	<line x1="390.80" y1="2416.67" x2="350.83" y2="2416.67" style="stroke:#000000;stroke-width:5.76"/>
	<text x="300.72" y="2416.67" style="font-family:'Helvetica';font-size:99.99px;fill:#000000" transform="rotate(-90 300.72,2416.67)" text-anchor="middle">0</text>
	<line x1="390.80" y1="1853.59" x2="350.83" y2="1853.59" style="stroke:#000000;stroke-width:5.76"/>
	<text x="300.72" y="1853.59" style="font-family:'Helvetica';font-size:99.99px;fill:#000000" transform="rotate(-90 300.72,1853.59)" text-anchor="middle">5</text>
	<line x1="390.80" y1="1290.38" x2="350.83" y2="1290.38" style="stroke:#000000;stroke-width:5.76"/>
	<text x="300.72" y="1290.38" style="font-family:'Helvetica';font-size:99.99px;fill:#000000" transform="rotate(-90 300.72,1290.38)" text-anchor="middle">10</text>
	<line x1="390.80" y1="727.30" x2="350.83" y2="727.30" style="stroke:#000000;stroke-width:5.76"/>
	<text x="300.72" y="727.30" style="font-family:'Helvetica';font-size:99.99px;fill:#000000" transform="rotate(-90 300.72,727.30)" text-anchor="middle">15</text>
	<line x1="390.80" y1="164.22" x2="350.83" y2="164.22" style="stroke:#000000;stroke-width:5.76"/>
	<text x="300.72" y="164.22" style="font-family:'Helvetica';font-size:99.99px;fill:#000000" transform="rotate(-90 300.72,164.22)" text-anchor="middle">20</text>
	<text x="190.71" y="1294.96" style="font-family:'Helvetica';font-size:99.99px;fill:#000000" transform="rotate(-90 190.71,1294.96)" text-anchor="middle">Confirmed cases per 100 beds</text>
	<line x1="390.80" y1="2489.19" x2="3859.02" y2="2489.19" style="stroke:#000000;stroke-width:5.76"/>
	<line x1="454.16" y1="2489.19" x2="454.16" y2="2529.16" style="stroke:#000000;stroke-width:5.76"/>
	<text x="454.16" y="2619.14" style="font-family:'Helvetica';font-size:99.99px;fill:#000000" text-anchor="middle">0</text>
	<line x1="1289.47" y1="2489.19" x2="1289.47" y2="2529.16" style="stroke:#000000;stroke-width:5.76"/>
	<text x="1289.47" y="2619.14" style="font-family:'Helvetica';font-size:99.99px;fill:#000000" text-anchor="middle">10</text>
	<line x1="2124.91" y1="2489.19" x2="2124.91" y2="2529.16" style="stroke:#000000;stroke-width:5.76"/>
	<text x="2124.91" y="2619.14" style="font-family:'Helvetica';font-size:99.99px;fill:#000000" text-anchor="middle">20</text>
	<line x1="2960.35" y1="2489.19" x2="2960.35" y2="2529.16" style="stroke:#000000;stroke-width:5.76"/>
	<text x="2960.35" y="2619.14" style="font-family:'Helvetica';font-size:99.99px;fill:#000000" text-anchor="middle">30</text>
	<line x1="3795.66" y1="2489.19" x2="3795.66" y2="2529.16" style="stroke:#000000;stroke-width:5.76"/>
	<text x="3795.66" y="2619.14" style="font-family:'Helvetica';font-size:99.99px;fill:#000000" text-anchor="middle">40</text>
	<text x="2124.91" y="2729.16" style="font-family:'Helvetica';font-size:99.99px;fill:#000000" text-anchor="middle">Days since 0.01 confirmed cases per 100 beds</text>
</svg>
