<?xml version="1.0" encoding="UTF-8" standalone="no"?>
<!-- This is a Stata 14.2 generated SVG file (http://www.stata.com) -->

<svg version="1.1" width="5.50in" height="4.00in" viewBox="0 0 3960 2880" xmlns="http://www.w3.org/2000/svg">
	<desc>Stata Graph - Graph</desc>
	<line x1="390.80" y1="1763.49" x2="3859.02" y2="1763.49" style="stroke:#FF0000;stroke-width:8.64"/>
	<path d="M606.00 1873.88 L606.00 1873.88 L757.97 1873.88 L909.81 1873.88 L1061.65 1873.76 L1213.62 1873.39 L1365.46 1872.89 L1517.42 1871.90 L1669.26 1870.66 L1821.11 1869.67 L1973.07 1868.81 L2124.91 1868.31 L2276.88 1868.56 L2428.72 1870.04 L2580.56 1874.00 L2732.52 1881.80 L2884.36 1895.41 L3036.33 1917.81 L3188.17 1953.08 L3340.01 2006.55 L3491.98 2085.25 L3643.82 2198.73 L3795.66 2358.62 L3795.66 164.22 L3643.82 640.55 L3491.98 994.49 L3340.01 1254.37 L3188.17 1443.09 L3036.33 1578.36 L2884.36 1674.02 L2732.52 1740.85 L2580.56 1786.76 L2428.72 1817.82 L2276.88 1838.61 L2124.91 1852.10 L1973.07 1860.76 L1821.11 1866.08 L1669.26 1869.30 L1517.42 1870.79 L1365.46 1871.65 L1213.62 1872.27 L1061.65 1872.77 L909.81 1873.14 L757.97 1873.39 L606.00 1873.51 L606.00 1873.88 Z" stroke-linecap="round" style="fill:#EBEBFF;stroke:#E6E6FF;stroke-width:3.00"/>
	<path d="M606.00 1873.76 L606.00 1873.76 L757.97 1873.76 L909.81 1873.63 L1061.65 1873.51 L1213.62 1873.14 L1365.46 1872.52 L1517.42 1871.65 L1669.26 1870.29 L1821.11 1868.68 L1973.07 1866.46 L2124.91 1863.61 L2276.88 1859.90 L2428.72 1855.07 L2580.56 1848.88 L2732.52 1841.09 L2884.36 1831.43 L3036.33 1819.80 L3188.17 1805.82 L3340.01 1789.48 L3491.98 1770.42 L3643.82 1749.01 L3795.66 1725.25 L3795.66 797.47 L3643.82 1090.27 L3491.98 1309.32 L3340.01 1471.43 L3188.17 1590.24 L3036.33 1676.25 L2884.36 1737.88 L2732.52 1781.44 L2580.56 1812.00 L2428.72 1832.92 L2276.88 1847.15 L2124.91 1856.80 L1973.07 1863.11 L1821.11 1867.07 L1669.26 1869.67 L1517.42 1871.16 L1365.46 1872.02 L1213.62 1872.64 L1061.65 1873.01 L909.81 1873.39 L757.97 1873.51 L606.00 1873.63 L606.00 1873.76 Z" stroke-linecap="round" style="fill:#D6D6FF;stroke:#CCCCFF;stroke-width:3.00"/>
	<path d="M606.00 1873.76 L606.00 1873.76 L757.97 1873.76 L909.81 1873.63 L1061.65 1873.39 L1213.62 1873.01 L1365.46 1872.52 L1517.42 1871.53 L1669.26 1870.17 L1821.11 1868.44 L1973.07 1866.08 L2124.91 1862.87 L2276.88 1858.41 L2428.72 1852.60 L2580.56 1844.80 L2732.52 1834.53 L2884.36 1821.16 L3036.33 1803.96 L3188.17 1782.06 L3340.01 1754.33 L3491.98 1719.56 L3643.82 1676.25 L3795.66 1622.78 L3795.66 899.94 L3643.82 1163.04 L3491.98 1360.18 L3340.01 1506.58 L3188.17 1614.00 L3036.33 1692.09 L2884.36 1748.27 L2732.52 1788.12 L2580.56 1815.96 L2428.72 1835.39 L2276.88 1848.64 L2124.91 1857.55 L1973.07 1863.49 L1821.11 1867.32 L1669.26 1869.80 L1517.42 1871.16 L1365.46 1872.15 L1213.62 1872.64 L1061.65 1873.14 L909.81 1873.39 L757.97 1873.51 L606.00 1873.63 L606.00 1873.76 Z" stroke-linecap="round" style="fill:#C2C2FF;stroke:#B3B3FF;stroke-width:3.00"/>
	<path d="M606.00 1873.76 L606.00 1873.76 L757.97 1873.76 L909.81 1873.63 L1061.65 1873.39 L1213.62 1873.01 L1365.46 1872.40 L1517.42 1871.53 L1669.26 1870.17 L1821.11 1868.31 L1973.07 1865.84 L2124.91 1862.37 L2276.88 1857.55 L2428.72 1850.99 L2580.56 1842.08 L2732.52 1830.07 L2884.36 1814.23 L3036.33 1793.32 L3188.17 1765.97 L3340.01 1730.57 L3491.98 1685.16 L3643.82 1627.24 L3795.66 1553.73 L3795.66 969.12 L3643.82 1212.17 L3491.98 1394.58 L3340.01 1530.22 L3188.17 1630.09 L3036.33 1702.85 L2884.36 1755.20 L2732.52 1792.57 L2580.56 1818.81 L2428.72 1837.00 L2276.88 1849.50 L2124.91 1858.04 L1973.07 1863.73 L1821.11 1867.45 L1669.26 1869.80 L1517.42 1871.28 L1365.46 1872.15 L1213.62 1872.77 L1061.65 1873.14 L909.81 1873.39 L757.97 1873.51 L606.00 1873.63 L606.00 1873.76 Z" stroke-linecap="round" style="fill:#ADADFF;stroke:#9999FF;stroke-width:3.00"/>
	<path d="M606.00 1873.76 L606.00 1873.76 L757.97 1873.76 L909.81 1873.51 L1061.65 1873.39 L1213.62 1873.01 L1365.46 1872.40 L1517.42 1871.53 L1669.26 1870.17 L1821.11 1868.31 L1973.07 1865.59 L2124.91 1862.00 L2276.88 1856.80 L2428.72 1849.63 L2580.56 1839.85 L2732.52 1826.48 L2884.36 1808.66 L3036.33 1784.78 L3188.17 1753.22 L3340.01 1711.76 L3491.98 1657.93 L3643.82 1588.13 L3795.66 1498.78 L3795.66 1024.06 L3643.82 1251.15 L3491.98 1421.93 L3340.01 1549.15 L3188.17 1642.83 L3036.33 1711.39 L2884.36 1760.77 L2732.52 1796.04 L2580.56 1820.91 L2428.72 1838.36 L2276.88 1850.24 L2124.91 1858.41 L1973.07 1863.86 L1821.11 1867.45 L1669.26 1869.80 L1517.42 1871.28 L1365.46 1872.15 L1213.62 1872.77 L1061.65 1873.14 L909.81 1873.39 L757.97 1873.63 L606.00 1873.63 L606.00 1873.76 Z" stroke-linecap="round" style="fill:#9999FF;stroke:#8080FF;stroke-width:3.00"/>
	<path d="M606.00 1873.76 L606.00 1873.76 L757.97 1873.63 L909.81 1873.51 L1061.65 1873.39 L1213.62 1873.01 L1365.46 1872.40 L1517.42 1871.41 L1669.26 1870.04 L1821.11 1868.19 L1973.07 1865.47 L2124.91 1861.63 L2276.88 1856.18 L2428.72 1848.51 L2580.56 1837.99 L2732.52 1823.51 L2884.36 1803.84 L3036.33 1777.48 L3188.17 1742.21 L3340.01 1695.68 L3491.98 1634.42 L3643.82 1554.72 L3795.66 1451.63 L3795.66 1071.21 L3643.82 1284.57 L3491.98 1445.32 L3340.01 1565.24 L3188.17 1653.85 L3036.33 1718.57 L2884.36 1765.47 L2732.52 1799.13 L2580.56 1822.77 L2428.72 1839.48 L2276.88 1850.99 L2124.91 1858.78 L1973.07 1864.10 L1821.11 1867.57 L1669.26 1869.80 L1517.42 1871.28 L1365.46 1872.15 L1213.62 1872.77 L1061.65 1873.14 L909.81 1873.39 L757.97 1873.63 L606.00 1873.63 L606.00 1873.76 Z" stroke-linecap="round" style="fill:#8585FF;stroke:#6666FF;stroke-width:3.00"/>
	<path d="M606.00 1873.76 L606.00 1873.76 L757.97 1873.63 L909.81 1873.51 L1061.65 1873.26 L1213.62 1872.89 L1365.46 1872.40 L1517.42 1871.41 L1669.26 1870.04 L1821.11 1868.06 L1973.07 1865.34 L2124.91 1861.26 L2276.88 1855.57 L2428.72 1847.52 L2580.56 1836.26 L2732.52 1820.79 L2884.36 1799.63 L3036.33 1770.92 L3188.17 1732.43 L3340.01 1681.07 L3491.98 1613.38 L3643.82 1524.65 L3795.66 1409.31 L3795.66 1113.54 L3643.82 1314.64 L3491.98 1466.36 L3340.01 1579.72 L3188.17 1663.62 L3036.33 1725.13 L2884.36 1769.80 L2732.52 1801.73 L2580.56 1824.50 L2428.72 1840.47 L2276.88 1851.48 L2124.91 1859.15 L1973.07 1864.23 L1821.11 1867.69 L1669.26 1869.92 L1517.42 1871.28 L1365.46 1872.15 L1213.62 1872.77 L1061.65 1873.14 L909.81 1873.39 L757.97 1873.63 L606.00 1873.76 L606.00 1873.76 Z" stroke-linecap="round" style="fill:#7171FF;stroke:#4D4DFF;stroke-width:3.00"/>
	<path d="M606.00 1873.76 L606.00 1873.76 L757.97 1873.63 L909.81 1873.51 L1061.65 1873.26 L1213.62 1872.89 L1365.46 1872.40 L1517.42 1871.41 L1669.26 1870.04 L1821.11 1868.06 L1973.07 1865.22 L2124.91 1861.01 L2276.88 1855.07 L2428.72 1846.53 L2580.56 1834.77 L2732.52 1818.32 L2884.36 1795.67 L3036.33 1764.85 L3188.17 1723.27 L3340.01 1667.71 L3491.98 1593.95 L3643.82 1496.80 L3795.66 1370.08 L3795.66 1152.77 L3643.82 1342.48 L3491.98 1485.91 L3340.01 1593.21 L3188.17 1672.78 L3036.33 1731.19 L2884.36 1773.76 L2732.52 1804.33 L2580.56 1826.11 L2428.72 1841.33 L2276.88 1852.10 L2124.91 1859.40 L1973.07 1864.35 L1821.11 1867.69 L1669.26 1869.92 L1517.42 1871.28 L1365.46 1872.27 L1213.62 1872.77 L1061.65 1873.26 L909.81 1873.51 L757.97 1873.63 L606.00 1873.76 L606.00 1873.76 Z" stroke-linecap="round" style="fill:#5C5CFF;stroke:#3333FF;stroke-width:3.00"/>
	<path d="M606.00 1873.76 L606.00 1873.76 L757.97 1873.63 L909.81 1873.51 L1061.65 1873.26 L1213.62 1872.89 L1365.46 1872.27 L1517.42 1871.41 L1669.26 1870.04 L1821.11 1867.94 L1973.07 1864.97 L2124.91 1860.76 L2276.88 1854.45 L2428.72 1845.67 L2580.56 1833.29 L2732.52 1815.84 L2884.36 1791.96 L3036.33 1759.16 L3188.17 1714.61 L3340.01 1654.96 L3491.98 1575.39 L3643.82 1470.44 L3795.66 1332.83 L3795.66 1190.02 L3643.82 1368.97 L3491.98 1504.35 L3340.01 1605.95 L3188.17 1681.44 L3036.33 1737.01 L2884.36 1777.48 L2732.52 1806.68 L2580.56 1827.60 L2428.72 1842.32 L2276.88 1852.60 L2124.91 1859.65 L1973.07 1864.48 L1821.11 1867.82 L1669.26 1869.92 L1517.42 1871.28 L1365.46 1872.27 L1213.62 1872.89 L1061.65 1873.26 L909.81 1873.51 L757.97 1873.63 L606.00 1873.76 L606.00 1873.76 Z" stroke-linecap="round" style="fill:#4747FF;stroke:#1919FF;stroke-width:3.00"/>
	<path d="M606.00 1873.76 L606.00 1873.76 L757.97 1873.63 L909.81 1873.51 L1061.65 1873.26 L1213.62 1872.89 L1365.46 1872.27 L1517.42 1871.41 L1669.26 1870.04 L1821.11 1867.94 L1973.07 1864.85 L2124.91 1860.39 L2276.88 1854.08 L2428.72 1844.80 L2580.56 1831.80 L2732.52 1813.61 L2884.36 1788.24 L3036.33 1753.59 L3188.17 1706.32 L3340.01 1642.59 L3491.98 1557.44 L3643.82 1444.83 L3795.66 1296.82 L3795.66 1226.03 L3643.82 1394.46 L3491.98 1522.30 L3340.01 1618.33 L3188.17 1689.86 L3036.33 1742.58 L2884.36 1781.07 L2732.52 1809.03 L2580.56 1828.96 L2428.72 1843.19 L2276.88 1853.09 L2124.91 1859.90 L1973.07 1864.60 L1821.11 1867.82 L1669.26 1869.92 L1517.42 1871.41 L1365.46 1872.27 L1213.62 1872.89 L1061.65 1873.26 L909.81 1873.51 L757.97 1873.63 L606.00 1873.76 L606.00 1873.76 Z" stroke-linecap="round" style="fill:#3333FF;stroke:#0000FF;stroke-width:3.00"/>
	<circle cx="606.00" cy="1873.76" r="22.03" style="fill:#000000;stroke:#000000;stroke-width:8.64"/>
	<circle cx="757.85" cy="1873.76" r="22.03" style="fill:#000000;stroke:#000000;stroke-width:8.64"/>
	<circle cx="909.69" cy="1873.51" r="22.03" style="fill:#000000;stroke:#000000;stroke-width:8.64"/>
	<circle cx="1061.65" cy="1873.01" r="22.03" style="fill:#000000;stroke:#000000;stroke-width:8.64"/>
	<circle cx="1213.49" cy="1872.64" r="22.03" style="fill:#000000;stroke:#000000;stroke-width:8.64"/>
	<circle cx="1365.46" cy="1872.64" r="22.03" style="fill:#000000;stroke:#000000;stroke-width:8.64"/>
	<circle cx="1517.30" cy="1871.65" r="22.03" style="fill:#000000;stroke:#000000;stroke-width:8.64"/>
	<circle cx="1669.14" cy="1869.92" r="22.03" style="fill:#000000;stroke:#000000;stroke-width:8.64"/>
	<line x1="390.80" y1="2489.19" x2="390.80" y2="100.86" style="stroke:#000000;stroke-width:5.76"/>
	<line x1="390.80" y1="2425.82" x2="350.83" y2="2425.82" style="stroke:#000000;stroke-width:5.76"/>
	<text x="300.72" y="2425.82" style="font-family:'Helvetica';font-size:99.99px;fill:#000000" transform="rotate(-90 300.72,2425.82)" text-anchor="middle">-50</text>
	<line x1="390.80" y1="1873.88" x2="350.83" y2="1873.88" style="stroke:#000000;stroke-width:5.76"/>
	<text x="300.72" y="1873.88" style="font-family:'Helvetica';font-size:99.99px;fill:#000000" transform="rotate(-90 300.72,1873.88)" text-anchor="middle">0</text>
	<line x1="390.80" y1="1321.82" x2="350.83" y2="1321.82" style="stroke:#000000;stroke-width:5.76"/>
	<text x="300.72" y="1321.82" style="font-family:'Helvetica';font-size:99.99px;fill:#000000" transform="rotate(-90 300.72,1321.82)" text-anchor="middle">50</text>
	<line x1="390.80" y1="769.87" x2="350.83" y2="769.87" style="stroke:#000000;stroke-width:5.76"/>
	<text x="300.72" y="769.87" style="font-family:'Helvetica';font-size:99.99px;fill:#000000" transform="rotate(-90 300.72,769.87)" text-anchor="middle">100</text>
	<line x1="390.80" y1="217.93" x2="350.83" y2="217.93" style="stroke:#000000;stroke-width:5.76"/>
	<text x="300.72" y="217.93" style="font-family:'Helvetica';font-size:99.99px;fill:#000000" transform="rotate(-90 300.72,217.93)" text-anchor="middle">150</text>
	<text x="190.71" y="1294.96" style="font-family:'Helvetica';font-size:99.99px;fill:#000000" transform="rotate(-90 190.71,1294.96)" text-anchor="middle">Confirmed cases per 100 beds</text>
	<line x1="390.80" y1="2489.19" x2="3859.02" y2="2489.19" style="stroke:#000000;stroke-width:5.76"/>
	<line x1="454.16" y1="2489.19" x2="454.16" y2="2529.16" style="stroke:#000000;stroke-width:5.76"/>
	<text x="454.16" y="2619.14" style="font-family:'Helvetica';font-size:99.99px;fill:#000000" text-anchor="middle">0</text>
	<line x1="606.00" y1="2489.19" x2="606.00" y2="2529.16" style="stroke:#000000;stroke-width:5.76"/>
	<text x="606.00" y="2619.14" style="font-family:'Helvetica';font-size:99.99px;fill:#000000" text-anchor="middle">1</text>
	<line x1="757.97" y1="2489.19" x2="757.97" y2="2529.16" style="stroke:#000000;stroke-width:5.76"/>
	<text x="757.97" y="2619.14" style="font-family:'Helvetica';font-size:99.99px;fill:#000000" text-anchor="middle">2</text>
	<line x1="909.81" y1="2489.19" x2="909.81" y2="2529.16" style="stroke:#000000;stroke-width:5.76"/>
	<text x="909.81" y="2619.14" style="font-family:'Helvetica';font-size:99.99px;fill:#000000" text-anchor="middle">3</text>
	<line x1="1061.65" y1="2489.19" x2="1061.65" y2="2529.16" style="stroke:#000000;stroke-width:5.76"/>
	<text x="1061.65" y="2619.14" style="font-family:'Helvetica';font-size:99.99px;fill:#000000" text-anchor="middle">4</text>
	<line x1="1213.62" y1="2489.19" x2="1213.62" y2="2529.16" style="stroke:#000000;stroke-width:5.76"/>
	<text x="1213.62" y="2619.14" style="font-family:'Helvetica';font-size:99.99px;fill:#000000" text-anchor="middle">5</text>
	<line x1="1365.46" y1="2489.19" x2="1365.46" y2="2529.16" style="stroke:#000000;stroke-width:5.76"/>
	<text x="1365.46" y="2619.14" style="font-family:'Helvetica';font-size:99.99px;fill:#000000" text-anchor="middle">6</text>
	<line x1="1517.42" y1="2489.19" x2="1517.42" y2="2529.16" style="stroke:#000000;stroke-width:5.76"/>
	<text x="1517.42" y="2619.14" style="font-family:'Helvetica';font-size:99.99px;fill:#000000" text-anchor="middle">7</text>
	<line x1="1669.26" y1="2489.19" x2="1669.26" y2="2529.16" style="stroke:#000000;stroke-width:5.76"/>
	<text x="1669.26" y="2619.14" style="font-family:'Helvetica';font-size:99.99px;fill:#000000" text-anchor="middle">8</text>
	<line x1="1821.11" y1="2489.19" x2="1821.11" y2="2529.16" style="stroke:#000000;stroke-width:5.76"/>
	<text x="1821.11" y="2619.14" style="font-family:'Helvetica';font-size:99.99px;fill:#000000" text-anchor="middle">9</text>
	<line x1="1973.07" y1="2489.19" x2="1973.07" y2="2529.16" style="stroke:#000000;stroke-width:5.76"/>
	<text x="1973.07" y="2619.14" style="font-family:'Helvetica';font-size:99.99px;fill:#000000" text-anchor="middle">10</text>
	<line x1="2124.91" y1="2489.19" x2="2124.91" y2="2529.16" style="stroke:#000000;stroke-width:5.76"/>
	<text x="2124.91" y="2619.14" style="font-family:'Helvetica';font-size:99.99px;fill:#000000" text-anchor="middle">11</text>
	<line x1="2276.88" y1="2489.19" x2="2276.88" y2="2529.16" style="stroke:#000000;stroke-width:5.76"/>
	<text x="2276.88" y="2619.14" style="font-family:'Helvetica';font-size:99.99px;fill:#000000" text-anchor="middle">12</text>
	<line x1="2428.72" y1="2489.19" x2="2428.72" y2="2529.16" style="stroke:#000000;stroke-width:5.76"/>
	<text x="2428.72" y="2619.14" style="font-family:'Helvetica';font-size:99.99px;fill:#000000" text-anchor="middle">13</text>
	<line x1="2580.56" y1="2489.19" x2="2580.56" y2="2529.16" style="stroke:#000000;stroke-width:5.76"/>
	<text x="2580.56" y="2619.14" style="font-family:'Helvetica';font-size:99.99px;fill:#000000" text-anchor="middle">14</text>
	<line x1="2732.52" y1="2489.19" x2="2732.52" y2="2529.16" style="stroke:#000000;stroke-width:5.76"/>
	<text x="2732.52" y="2619.14" style="font-family:'Helvetica';font-size:99.99px;fill:#000000" text-anchor="middle">15</text>
	<line x1="2884.36" y1="2489.19" x2="2884.36" y2="2529.16" style="stroke:#000000;stroke-width:5.76"/>
	<text x="2884.36" y="2619.14" style="font-family:'Helvetica';font-size:99.99px;fill:#000000" text-anchor="middle">16</text>
	<line x1="3036.33" y1="2489.19" x2="3036.33" y2="2529.16" style="stroke:#000000;stroke-width:5.76"/>
	<text x="3036.33" y="2619.14" style="font-family:'Helvetica';font-size:99.99px;fill:#000000" text-anchor="middle">17</text>
	<line x1="3188.17" y1="2489.19" x2="3188.17" y2="2529.16" style="stroke:#000000;stroke-width:5.76"/>
	<text x="3188.17" y="2619.14" style="font-family:'Helvetica';font-size:99.99px;fill:#000000" text-anchor="middle">18</text>
	<line x1="3340.01" y1="2489.19" x2="3340.01" y2="2529.16" style="stroke:#000000;stroke-width:5.76"/>
	<text x="3340.01" y="2619.14" style="font-family:'Helvetica';font-size:99.99px;fill:#000000" text-anchor="middle">19</text>
	<line x1="3491.98" y1="2489.19" x2="3491.98" y2="2529.16" style="stroke:#000000;stroke-width:5.76"/>
	<text x="3491.98" y="2619.14" style="font-family:'Helvetica';font-size:99.99px;fill:#000000" text-anchor="middle">20</text>
	<line x1="3643.82" y1="2489.19" x2="3643.82" y2="2529.16" style="stroke:#000000;stroke-width:5.76"/>
	<text x="3643.82" y="2619.14" style="font-family:'Helvetica';font-size:99.99px;fill:#000000" text-anchor="middle">21</text>
	<line x1="3795.66" y1="2489.19" x2="3795.66" y2="2529.16" style="stroke:#000000;stroke-width:5.76"/>
	<text x="3795.66" y="2619.14" style="font-family:'Helvetica';font-size:99.99px;fill:#000000" text-anchor="middle">22</text>
	<text x="2124.91" y="2729.16" style="font-family:'Helvetica';font-size:99.99px;fill:#000000" text-anchor="middle">Days since 0.01 confirmed cases per 100 beds</text>
</svg>
