<?xml version="1.0" encoding="UTF-8" standalone="no"?>
<!-- This is a Stata 14.2 generated SVG file (http://www.stata.com) -->

<svg version="1.1" width="5.50in" height="4.00in" viewBox="0 0 3960 2880" xmlns="http://www.w3.org/2000/svg">
	<desc>Stata Graph - Graph</desc>
	<line x1="390.80" y1="1833.91" x2="3859.02" y2="1833.91" style="stroke:#FF0000;stroke-width:8.64"/>
	<path d="M587.81 1839.48 L587.81 1839.48 L721.46 1839.48 L855.11 1839.48 L988.76 1839.48 L1122.41 1839.48 L1256.06 1839.48 L1389.84 1839.48 L1523.49 1839.48 L1657.14 1839.35 L1790.79 1839.23 L1924.44 1839.23 L2058.09 1839.48 L2191.74 1840.22 L2325.39 1842.08 L2459.04 1845.91 L2592.81 1853.46 L2726.46 1867.07 L2860.11 1890.46 L2993.76 1928.95 L3127.41 1990.21 L3261.06 2084.02 L3394.71 2223.73 L3528.36 2425.82 L3528.36 541.18 L3394.71 968.87 L3261.06 1268.72 L3127.41 1474.28 L2993.76 1611.77 L2860.11 1701.49 L2726.46 1758.29 L2592.81 1793.19 L2459.04 1814.11 L2325.39 1826.11 L2191.74 1832.79 L2058.09 1836.26 L1924.44 1837.99 L1790.79 1838.86 L1657.14 1839.23 L1523.49 1839.35 L1389.84 1839.48 L1256.06 1839.48 L1122.41 1839.48 L988.76 1839.48 L855.11 1839.48 L721.46 1839.48 L587.81 1839.48 L587.81 1839.48 Z" stroke-linecap="round" style="fill:#EBEBFF;stroke:#E6E6FF;stroke-width:3.00"/>
	<path d="M587.81 1839.48 L587.81 1839.48 L721.46 1839.48 L855.11 1839.48 L988.76 1839.48 L1122.41 1839.48 L1256.06 1839.48 L1389.84 1839.48 L1523.49 1839.48 L1657.14 1839.35 L1790.79 1839.11 L1924.44 1838.86 L2058.09 1838.61 L2191.74 1838.12 L2325.39 1837.50 L2459.04 1836.75 L2592.81 1836.01 L2726.46 1835.64 L2860.11 1835.89 L2993.76 1837.50 L3127.41 1841.33 L3261.06 1848.76 L3394.71 1861.51 L3528.36 1881.93 L3528.36 1085.07 L3394.71 1330.97 L3261.06 1504.10 L3127.41 1623.16 L2993.76 1703.35 L2860.11 1755.94 L2726.46 1789.60 L2592.81 1810.64 L2459.04 1823.27 L2325.39 1830.69 L2191.74 1834.90 L2058.09 1837.25 L1924.44 1838.36 L1790.79 1838.98 L1657.14 1839.23 L1523.49 1839.35 L1389.84 1839.48 L1256.06 1839.48 L1122.41 1839.48 L988.76 1839.48 L855.11 1839.48 L721.46 1839.48 L587.81 1839.48 L587.81 1839.48 Z" stroke-linecap="round" style="fill:#D6D6FF;stroke:#CCCCFF;stroke-width:3.00"/>
	<path d="M587.81 1839.48 L587.81 1839.48 L721.46 1839.48 L855.11 1839.48 L988.76 1839.48 L1122.41 1839.48 L1256.06 1839.48 L1389.84 1839.48 L1523.49 1839.48 L1657.14 1839.35 L1790.79 1839.11 L1924.44 1838.86 L2058.09 1838.36 L2191.74 1837.74 L2325.39 1836.75 L2459.04 1835.27 L2592.81 1833.29 L2726.46 1830.57 L2860.11 1827.10 L2993.76 1822.65 L3127.41 1817.20 L3261.06 1810.64 L3394.71 1802.97 L3528.36 1793.94 L3528.36 1173.06 L3394.71 1389.63 L3261.06 1542.10 L3127.41 1647.29 L2993.76 1718.20 L2860.11 1764.85 L2726.46 1794.68 L2592.81 1813.37 L2459.04 1824.75 L2325.39 1831.43 L2191.74 1835.27 L2058.09 1837.37 L1924.44 1838.49 L1790.79 1838.98 L1657.14 1839.23 L1523.49 1839.35 L1389.84 1839.48 L1256.06 1839.48 L1122.41 1839.48 L988.76 1839.48 L855.11 1839.48 L721.46 1839.48 L587.81 1839.48 L587.81 1839.48 Z" stroke-linecap="round" style="fill:#C2C2FF;stroke:#B3B3FF;stroke-width:3.00"/>
	<path d="M587.81 1839.48 L587.81 1839.48 L721.46 1839.48 L855.11 1839.48 L988.76 1839.48 L1122.41 1839.48 L1256.06 1839.48 L1389.84 1839.48 L1523.49 1839.48 L1657.14 1839.35 L1790.79 1839.11 L1924.44 1838.86 L2058.09 1838.36 L2191.74 1837.50 L2325.39 1836.26 L2459.04 1834.28 L2592.81 1831.31 L2726.46 1827.10 L2860.11 1821.16 L2993.76 1812.62 L3127.41 1800.99 L3261.06 1785.03 L3394.71 1763.37 L3528.36 1734.53 L3528.36 1232.46 L3394.71 1429.11 L3261.06 1567.84 L3127.41 1663.50 L2993.76 1728.10 L2860.11 1770.79 L2726.46 1798.14 L2592.81 1815.35 L2459.04 1825.74 L2325.39 1831.93 L2191.74 1835.52 L2058.09 1837.50 L1924.44 1838.49 L1790.79 1838.98 L1657.14 1839.35 L1523.49 1839.35 L1389.84 1839.48 L1256.06 1839.48 L1122.41 1839.48 L988.76 1839.48 L855.11 1839.48 L721.46 1839.48 L587.81 1839.48 L587.81 1839.48 Z" stroke-linecap="round" style="fill:#ADADFF;stroke:#9999FF;stroke-width:3.00"/>
	<path d="M587.81 1839.48 L587.81 1839.48 L721.46 1839.48 L855.11 1839.48 L988.76 1839.48 L1122.41 1839.48 L1256.06 1839.48 L1389.84 1839.48 L1523.49 1839.48 L1657.14 1839.35 L1790.79 1839.11 L1924.44 1838.73 L2058.09 1838.24 L2191.74 1837.25 L2325.39 1835.76 L2459.04 1833.41 L2592.81 1829.82 L2726.46 1824.38 L2860.11 1816.34 L2993.76 1804.70 L3127.41 1788.00 L3261.06 1764.61 L3394.71 1731.94 L3528.36 1687.38 L3528.36 1279.61 L3394.71 1460.54 L3261.06 1588.26 L3127.41 1676.49 L2993.76 1736.14 L2860.11 1775.50 L2726.46 1800.87 L2592.81 1816.83 L2459.04 1826.61 L2325.39 1832.30 L2191.74 1835.64 L2058.09 1837.50 L1924.44 1838.49 L1790.79 1838.98 L1657.14 1839.35 L1523.49 1839.35 L1389.84 1839.48 L1256.06 1839.48 L1122.41 1839.48 L988.76 1839.48 L855.11 1839.48 L721.46 1839.48 L587.81 1839.48 L587.81 1839.48 Z" stroke-linecap="round" style="fill:#9999FF;stroke:#8080FF;stroke-width:3.00"/>
	<path d="M587.81 1839.48 L587.81 1839.48 L721.46 1839.48 L855.11 1839.48 L988.76 1839.48 L1122.41 1839.48 L1256.06 1839.48 L1389.84 1839.48 L1523.49 1839.48 L1657.14 1839.35 L1790.79 1839.11 L1924.44 1838.73 L2058.09 1838.12 L2191.74 1837.13 L2325.39 1835.52 L2459.04 1832.79 L2592.81 1828.59 L2726.46 1822.03 L2860.11 1812.38 L2993.76 1797.90 L3127.41 1776.98 L3261.06 1747.03 L3394.71 1705.08 L3528.36 1646.92 L3528.36 1320.08 L3394.71 1487.52 L3261.06 1605.71 L3127.41 1687.51 L2993.76 1742.95 L2860.11 1779.58 L2726.46 1803.22 L2592.81 1818.07 L2459.04 1827.23 L2325.39 1832.67 L2191.74 1835.89 L2058.09 1837.62 L1924.44 1838.61 L1790.79 1839.11 L1657.14 1839.35 L1523.49 1839.35 L1389.84 1839.48 L1256.06 1839.48 L1122.41 1839.48 L988.76 1839.48 L855.11 1839.48 L721.46 1839.48 L587.81 1839.48 L587.81 1839.48 Z" stroke-linecap="round" style="fill:#8585FF;stroke:#6666FF;stroke-width:3.00"/>
	<path d="M587.81 1839.48 L587.81 1839.48 L721.46 1839.48 L855.11 1839.48 L988.76 1839.48 L1122.41 1839.48 L1256.06 1839.48 L1389.84 1839.48 L1523.49 1839.48 L1657.14 1839.35 L1790.79 1839.11 L1924.44 1838.73 L2058.09 1838.12 L2191.74 1837.00 L2325.39 1835.15 L2459.04 1832.18 L2592.81 1827.35 L2726.46 1819.92 L2860.11 1808.66 L2993.76 1791.83 L3127.41 1766.96 L3261.06 1731.32 L3394.71 1680.83 L3528.36 1610.53 L3528.36 1356.47 L3394.71 1511.65 L3261.06 1621.42 L3127.41 1697.53 L2993.76 1749.01 L2860.11 1783.17 L2726.46 1805.32 L2592.81 1819.31 L2459.04 1827.84 L2325.39 1833.04 L2191.74 1836.01 L2058.09 1837.62 L1924.44 1838.61 L1790.79 1839.11 L1657.14 1839.35 L1523.49 1839.35 L1389.84 1839.48 L1256.06 1839.48 L1122.41 1839.48 L988.76 1839.48 L855.11 1839.48 L721.46 1839.48 L587.81 1839.48 L587.81 1839.48 Z" stroke-linecap="round" style="fill:#7171FF;stroke:#4D4DFF;stroke-width:3.00"/>
	<path d="M587.81 1839.48 L587.81 1839.48 L721.46 1839.48 L855.11 1839.48 L988.76 1839.48 L1122.41 1839.48 L1256.06 1839.48 L1389.84 1839.48 L1523.49 1839.48 L1657.14 1839.35 L1790.79 1839.11 L1924.44 1838.73 L2058.09 1837.99 L2191.74 1836.88 L2325.39 1834.90 L2459.04 1831.56 L2592.81 1826.36 L2726.46 1818.07 L2860.11 1805.32 L2993.76 1786.14 L3127.41 1757.80 L3261.06 1716.71 L3394.71 1658.43 L3528.36 1576.87 L3528.36 1390.13 L3394.71 1534.18 L3261.06 1636.03 L3127.41 1706.69 L2993.76 1754.71 L2860.11 1786.63 L2726.46 1807.30 L2592.81 1820.42 L2459.04 1828.46 L2325.39 1833.29 L2191.74 1836.14 L2058.09 1837.74 L1924.44 1838.61 L1790.79 1839.11 L1657.14 1839.35 L1523.49 1839.35 L1389.84 1839.48 L1256.06 1839.48 L1122.41 1839.48 L988.76 1839.48 L855.11 1839.48 L721.46 1839.48 L587.81 1839.48 L587.81 1839.48 Z" stroke-linecap="round" style="fill:#5C5CFF;stroke:#3333FF;stroke-width:3.00"/>
	<path d="M587.81 1839.48 L587.81 1839.48 L721.46 1839.48 L855.11 1839.48 L988.76 1839.48 L1122.41 1839.48 L1256.06 1839.48 L1389.84 1839.48 L1523.49 1839.48 L1657.14 1839.35 L1790.79 1839.11 L1924.44 1838.73 L2058.09 1837.99 L2191.74 1836.75 L2325.39 1834.65 L2459.04 1831.06 L2592.81 1825.25 L2726.46 1816.21 L2860.11 1802.10 L2993.76 1780.69 L3127.41 1749.01 L3261.06 1702.98 L3394.71 1637.14 L3528.36 1544.82 L3528.36 1422.18 L3394.71 1555.46 L3261.06 1649.89 L3127.41 1715.48 L2993.76 1760.03 L2860.11 1789.73 L2726.46 1809.16 L2592.81 1821.41 L2459.04 1828.96 L2325.39 1833.54 L2191.74 1836.26 L2058.09 1837.74 L1924.44 1838.61 L1790.79 1839.11 L1657.14 1839.35 L1523.49 1839.35 L1389.84 1839.48 L1256.06 1839.48 L1122.41 1839.48 L988.76 1839.48 L855.11 1839.48 L721.46 1839.48 L587.81 1839.48 L587.81 1839.48 Z" stroke-linecap="round" style="fill:#4747FF;stroke:#1919FF;stroke-width:3.00"/>
	<path d="M587.81 1839.48 L587.81 1839.48 L721.46 1839.48 L855.11 1839.48 L988.76 1839.48 L1122.41 1839.48 L1256.06 1839.48 L1389.84 1839.48 L1523.49 1839.35 L1657.14 1839.35 L1790.79 1839.11 L1924.44 1838.73 L2058.09 1837.99 L2191.74 1836.63 L2325.39 1834.28 L2459.04 1830.57 L2592.81 1824.26 L2726.46 1814.36 L2860.11 1799.01 L2993.76 1775.50 L3127.41 1740.60 L3261.06 1689.61 L3394.71 1616.47 L3528.36 1513.88 L3528.36 1452.99 L3394.71 1576.01 L3261.06 1663.25 L3127.41 1723.89 L2993.76 1765.23 L2860.11 1792.82 L2726.46 1810.89 L2592.81 1822.40 L2459.04 1829.45 L2325.39 1833.78 L2191.74 1836.38 L2058.09 1837.87 L1924.44 1838.61 L1790.79 1839.11 L1657.14 1839.35 L1523.49 1839.35 L1389.84 1839.48 L1256.06 1839.48 L1122.41 1839.48 L988.76 1839.48 L855.11 1839.48 L721.46 1839.48 L587.81 1839.48 L587.81 1839.48 Z" stroke-linecap="round" style="fill:#3333FF;stroke:#0000FF;stroke-width:3.00"/>
	<circle cx="587.69" cy="1839.60" r="22.03" style="fill:#000000;stroke:#000000;stroke-width:8.64"/>
	<circle cx="721.46" cy="1839.60" r="22.03" style="fill:#000000;stroke:#000000;stroke-width:8.64"/>
	<circle cx="855.11" cy="1839.60" r="22.03" style="fill:#000000;stroke:#000000;stroke-width:8.64"/>
	<circle cx="988.76" cy="1839.60" r="22.03" style="fill:#000000;stroke:#000000;stroke-width:8.64"/>
	<circle cx="1122.41" cy="1839.60" r="22.03" style="fill:#000000;stroke:#000000;stroke-width:8.64"/>
	<circle cx="1256.06" cy="1839.48" r="22.03" style="fill:#000000;stroke:#000000;stroke-width:8.64"/>
	<circle cx="1389.71" cy="1839.48" r="22.03" style="fill:#000000;stroke:#000000;stroke-width:8.64"/>
	<circle cx="1523.36" cy="1839.48" r="22.03" style="fill:#000000;stroke:#000000;stroke-width:8.64"/>
	<circle cx="1657.01" cy="1839.35" r="22.03" style="fill:#000000;stroke:#000000;stroke-width:8.64"/>
	<line x1="390.80" y1="2489.19" x2="390.80" y2="100.86" style="stroke:#000000;stroke-width:5.76"/>
	<line x1="390.80" y1="2397.98" x2="350.83" y2="2397.98" style="stroke:#000000;stroke-width:5.76"/>
	<text x="300.72" y="2397.98" style="font-family:'Helvetica';font-size:99.99px;fill:#000000" transform="rotate(-90 300.72,2397.98)" text-anchor="middle">-1000</text>
	<line x1="390.80" y1="1839.48" x2="350.83" y2="1839.48" style="stroke:#000000;stroke-width:5.76"/>
	<text x="300.72" y="1839.48" style="font-family:'Helvetica';font-size:99.99px;fill:#000000" transform="rotate(-90 300.72,1839.48)" text-anchor="middle">0</text>
	<line x1="390.80" y1="1281.10" x2="350.83" y2="1281.10" style="stroke:#000000;stroke-width:5.76"/>
	<text x="300.72" y="1281.10" style="font-family:'Helvetica';font-size:99.99px;fill:#000000" transform="rotate(-90 300.72,1281.10)" text-anchor="middle">1000</text>
	<line x1="390.80" y1="722.60" x2="350.83" y2="722.60" style="stroke:#000000;stroke-width:5.76"/>
	<text x="300.72" y="722.60" style="font-family:'Helvetica';font-size:99.99px;fill:#000000" transform="rotate(-90 300.72,722.60)" text-anchor="middle">2000</text>
	<line x1="390.80" y1="164.22" x2="350.83" y2="164.22" style="stroke:#000000;stroke-width:5.76"/>
	<text x="300.72" y="164.22" style="font-family:'Helvetica';font-size:99.99px;fill:#000000" transform="rotate(-90 300.72,164.22)" text-anchor="middle">3000</text>
	<text x="190.71" y="1294.96" style="font-family:'Helvetica';font-size:99.99px;fill:#000000" transform="rotate(-90 190.71,1294.96)" text-anchor="middle">Confirmed cases per 100 beds</text>
	<line x1="390.80" y1="2489.19" x2="3859.02" y2="2489.19" style="stroke:#000000;stroke-width:5.76"/>
	<line x1="454.16" y1="2489.19" x2="454.16" y2="2529.16" style="stroke:#000000;stroke-width:5.76"/>
	<text x="454.16" y="2619.14" style="font-family:'Helvetica';font-size:99.99px;fill:#000000" text-anchor="middle">0</text>
	<line x1="3795.66" y1="2489.19" x2="3795.66" y2="2529.16" style="stroke:#000000;stroke-width:5.76"/>
	<text x="3795.66" y="2619.14" style="font-family:'Helvetica';font-size:99.99px;fill:#000000" text-anchor="middle">25</text>
	<line x1="587.81" y1="2489.19" x2="587.81" y2="2529.16" style="stroke:#000000;stroke-width:5.76"/>
	<text x="587.81" y="2619.14" style="font-family:'Helvetica';font-size:99.99px;fill:#000000" text-anchor="middle">1</text>
	<line x1="721.46" y1="2489.19" x2="721.46" y2="2529.16" style="stroke:#000000;stroke-width:5.76"/>
	<text x="721.46" y="2619.14" style="font-family:'Helvetica';font-size:99.99px;fill:#000000" text-anchor="middle">2</text>
	<line x1="855.11" y1="2489.19" x2="855.11" y2="2529.16" style="stroke:#000000;stroke-width:5.76"/>
	<text x="855.11" y="2619.14" style="font-family:'Helvetica';font-size:99.99px;fill:#000000" text-anchor="middle">3</text>
	<line x1="988.76" y1="2489.19" x2="988.76" y2="2529.16" style="stroke:#000000;stroke-width:5.76"/>
	<text x="988.76" y="2619.14" style="font-family:'Helvetica';font-size:99.99px;fill:#000000" text-anchor="middle">4</text>
	<line x1="1122.41" y1="2489.19" x2="1122.41" y2="2529.16" style="stroke:#000000;stroke-width:5.76"/>
	<text x="1122.41" y="2619.14" style="font-family:'Helvetica';font-size:99.99px;fill:#000000" text-anchor="middle">5</text>
	<line x1="1256.06" y1="2489.19" x2="1256.06" y2="2529.16" style="stroke:#000000;stroke-width:5.76"/>
	<text x="1256.06" y="2619.14" style="font-family:'Helvetica';font-size:99.99px;fill:#000000" text-anchor="middle">6</text>
	<line x1="1389.84" y1="2489.19" x2="1389.84" y2="2529.16" style="stroke:#000000;stroke-width:5.76"/>
	<text x="1389.84" y="2619.14" style="font-family:'Helvetica';font-size:99.99px;fill:#000000" text-anchor="middle">7</text>
	<line x1="1523.49" y1="2489.19" x2="1523.49" y2="2529.16" style="stroke:#000000;stroke-width:5.76"/>
	<text x="1523.49" y="2619.14" style="font-family:'Helvetica';font-size:99.99px;fill:#000000" text-anchor="middle">8</text>
	<line x1="1657.14" y1="2489.19" x2="1657.14" y2="2529.16" style="stroke:#000000;stroke-width:5.76"/>
	<text x="1657.14" y="2619.14" style="font-family:'Helvetica';font-size:99.99px;fill:#000000" text-anchor="middle">9</text>
	<line x1="1790.79" y1="2489.19" x2="1790.79" y2="2529.16" style="stroke:#000000;stroke-width:5.76"/>
	<text x="1790.79" y="2619.14" style="font-family:'Helvetica';font-size:99.99px;fill:#000000" text-anchor="middle">10</text>
	<line x1="1924.44" y1="2489.19" x2="1924.44" y2="2529.16" style="stroke:#000000;stroke-width:5.76"/>
	<text x="1924.44" y="2619.14" style="font-family:'Helvetica';font-size:99.99px;fill:#000000" text-anchor="middle">11</text>
	<line x1="2058.09" y1="2489.19" x2="2058.09" y2="2529.16" style="stroke:#000000;stroke-width:5.76"/>
	<text x="2058.09" y="2619.14" style="font-family:'Helvetica';font-size:99.99px;fill:#000000" text-anchor="middle">12</text>
	<line x1="2191.74" y1="2489.19" x2="2191.74" y2="2529.16" style="stroke:#000000;stroke-width:5.76"/>
	<text x="2191.74" y="2619.14" style="font-family:'Helvetica';font-size:99.99px;fill:#000000" text-anchor="middle">13</text>
	<line x1="2325.39" y1="2489.19" x2="2325.39" y2="2529.16" style="stroke:#000000;stroke-width:5.76"/>
	<text x="2325.39" y="2619.14" style="font-family:'Helvetica';font-size:99.99px;fill:#000000" text-anchor="middle">14</text>
	<line x1="2459.04" y1="2489.19" x2="2459.04" y2="2529.16" style="stroke:#000000;stroke-width:5.76"/>
	<text x="2459.04" y="2619.14" style="font-family:'Helvetica';font-size:99.99px;fill:#000000" text-anchor="middle">15</text>
	<line x1="2592.81" y1="2489.19" x2="2592.81" y2="2529.16" style="stroke:#000000;stroke-width:5.76"/>
	<text x="2592.81" y="2619.14" style="font-family:'Helvetica';font-size:99.99px;fill:#000000" text-anchor="middle">16</text>
	<line x1="2726.46" y1="2489.19" x2="2726.46" y2="2529.16" style="stroke:#000000;stroke-width:5.76"/>
	<text x="2726.46" y="2619.14" style="font-family:'Helvetica';font-size:99.99px;fill:#000000" text-anchor="middle">17</text>
	<line x1="2860.11" y1="2489.19" x2="2860.11" y2="2529.16" style="stroke:#000000;stroke-width:5.76"/>
	<text x="2860.11" y="2619.14" style="font-family:'Helvetica';font-size:99.99px;fill:#000000" text-anchor="middle">18</text>
	<line x1="2993.76" y1="2489.19" x2="2993.76" y2="2529.16" style="stroke:#000000;stroke-width:5.76"/>
	<text x="2993.76" y="2619.14" style="font-family:'Helvetica';font-size:99.99px;fill:#000000" text-anchor="middle">19</text>
	<line x1="3127.41" y1="2489.19" x2="3127.41" y2="2529.16" style="stroke:#000000;stroke-width:5.76"/>
	<text x="3127.41" y="2619.14" style="font-family:'Helvetica';font-size:99.99px;fill:#000000" text-anchor="middle">20</text>
	<line x1="3261.06" y1="2489.19" x2="3261.06" y2="2529.16" style="stroke:#000000;stroke-width:5.76"/>
	<text x="3261.06" y="2619.14" style="font-family:'Helvetica';font-size:99.99px;fill:#000000" text-anchor="middle">21</text>
	<line x1="3394.71" y1="2489.19" x2="3394.71" y2="2529.16" style="stroke:#000000;stroke-width:5.76"/>
	<text x="3394.71" y="2619.14" style="font-family:'Helvetica';font-size:99.99px;fill:#000000" text-anchor="middle">22</text>
	<line x1="3528.36" y1="2489.19" x2="3528.36" y2="2529.16" style="stroke:#000000;stroke-width:5.76"/>
	<text x="3528.36" y="2619.14" style="font-family:'Helvetica';font-size:99.99px;fill:#000000" text-anchor="middle">23</text>
	<text x="2124.91" y="2729.16" style="font-family:'Helvetica';font-size:99.99px;fill:#000000" text-anchor="middle">Days since 0.01 confirmed cases per 100 beds</text>
</svg>
