<?xml version="1.0" encoding="UTF-8" standalone="no"?>
<!-- This is a Stata 14.2 generated SVG file (http://www.stata.com) -->

<svg version="1.1" width="5.50in" height="4.00in" viewBox="0 0 3960 2880" xmlns="http://www.w3.org/2000/svg">
	<desc>Stata Graph - Graph</desc>
	<line x1="390.80" y1="-881.50" x2="3859.02" y2="-881.50" style="stroke:#FF0000;stroke-width:8.64"/>
	<path d="M558.61 1732.80 L558.61 1732.80 L662.93 1730.08 L767.37 1726.99 L871.82 1723.64 L976.26 1720.55 L1080.71 1717.83 L1185.15 1715.35 L1289.47 1712.88 L1393.92 1709.78 L1498.37 1705.82 L1602.81 1700.75 L1707.26 1694.31 L1811.70 1686.89 L1916.02 1679.71 L2020.47 1675.50 L2124.91 1675.75 L2229.36 1680.08 L2333.80 1688.25 L2438.25 1700.63 L2542.57 1717.58 L2647.01 1739.61 L2751.46 1766.96 L2855.90 1800.12 L2960.35 1839.72 L3064.79 1886.01 L3169.11 1939.47 L3273.56 2000.36 L3378.00 2069.04 L3482.45 2145.64 L3586.89 2230.54 L3691.34 2323.97 L3795.66 2425.82 L3795.66 474.47 L3691.34 608.13 L3586.89 732.50 L3482.45 847.84 L3378.00 954.27 L3273.56 1051.78 L3169.11 1140.64 L3064.79 1221.20 L2960.35 1293.72 L2855.90 1358.45 L2751.46 1415.87 L2647.01 1466.36 L2542.57 1510.42 L2438.25 1548.28 L2333.80 1580.46 L2229.36 1607.32 L2124.91 1629.10 L2020.47 1645.80 L1916.02 1656.94 L1811.70 1663.87 L1707.26 1669.56 L1602.81 1675.13 L1498.37 1681.07 L1393.92 1687.14 L1289.47 1693.08 L1185.15 1698.65 L1080.71 1703.47 L976.26 1707.31 L871.82 1709.91 L767.37 1711.64 L662.93 1712.88 L558.61 1713.87 L558.61 1732.80 Z" stroke-linecap="round" style="fill:#EBEBFF;stroke:#E6E6FF;stroke-width:3.00"/>
	<path d="M558.61 1727.36 L558.61 1727.36 L662.93 1725.13 L767.37 1722.53 L871.82 1719.68 L976.26 1716.71 L1080.71 1713.62 L1185.15 1710.53 L1289.47 1707.06 L1393.92 1703.22 L1498.37 1698.65 L1602.81 1693.32 L1707.26 1687.14 L1811.70 1680.21 L1916.02 1673.15 L2020.47 1666.96 L2124.91 1662.26 L2229.36 1659.04 L2333.80 1657.19 L2438.25 1656.69 L2542.57 1657.81 L2647.01 1660.65 L2751.46 1665.60 L2855.90 1672.66 L2960.35 1682.19 L3064.79 1694.19 L3169.11 1708.92 L3273.56 1726.61 L3378.00 1747.28 L3482.45 1771.17 L3586.89 1798.27 L3691.34 1828.71 L3795.66 1862.62 L3795.66 1037.68 L3691.34 1103.27 L3586.89 1164.90 L3482.45 1222.44 L3378.00 1275.90 L3273.56 1325.53 L3169.11 1371.19 L3064.79 1413.15 L2960.35 1451.26 L2855.90 1485.91 L2751.46 1517.22 L2647.01 1545.19 L2542.57 1570.19 L2438.25 1592.22 L2333.80 1611.52 L2229.36 1628.35 L2124.91 1642.59 L2020.47 1654.34 L1916.02 1663.50 L1811.70 1670.55 L1707.26 1676.62 L1602.81 1682.56 L1498.37 1688.25 L1393.92 1693.70 L1289.47 1698.77 L1185.15 1703.47 L1080.71 1707.68 L976.26 1711.14 L871.82 1713.87 L767.37 1715.97 L662.93 1717.83 L558.61 1719.31 L558.61 1727.36 Z" stroke-linecap="round" style="fill:#D6D6FF;stroke:#CCCCFF;stroke-width:3.00"/>
	<path d="M558.61 1726.49 L558.61 1726.49 L662.93 1724.26 L767.37 1721.79 L871.82 1719.06 L976.26 1716.09 L1080.71 1713.00 L1185.15 1709.78 L1289.47 1706.19 L1393.92 1702.11 L1498.37 1697.53 L1602.81 1692.21 L1707.26 1686.02 L1811.70 1679.22 L1916.02 1672.04 L2020.47 1665.60 L2124.91 1660.16 L2229.36 1655.70 L2333.80 1652.11 L2438.25 1649.52 L2542.57 1648.15 L2647.01 1647.91 L2751.46 1649.27 L2855.90 1652.11 L2960.35 1656.69 L3064.79 1663.13 L3169.11 1671.67 L3273.56 1682.31 L3378.00 1695.18 L3482.45 1710.53 L3586.89 1728.35 L3691.34 1748.64 L3795.66 1771.54 L3795.66 1128.76 L3691.34 1183.46 L3586.89 1234.82 L3482.45 1283.08 L3378.00 1328.00 L3273.56 1369.83 L3169.11 1408.44 L3064.79 1444.08 L2960.35 1476.75 L2855.90 1506.58 L2751.46 1533.56 L2647.01 1557.94 L2542.57 1579.84 L2438.25 1599.39 L2333.80 1616.60 L2229.36 1631.69 L2124.91 1644.81 L2020.47 1655.70 L1916.02 1664.49 L1811.70 1671.54 L1707.26 1677.85 L1602.81 1683.67 L1498.37 1689.36 L1393.92 1694.69 L1289.47 1699.76 L1185.15 1704.21 L1080.71 1708.30 L976.26 1711.76 L871.82 1714.49 L767.37 1716.71 L662.93 1718.57 L558.61 1720.18 L558.61 1726.49 Z" stroke-linecap="round" style="fill:#C2C2FF;stroke:#B3B3FF;stroke-width:3.00"/>
	<path d="M558.61 1725.87 L558.61 1725.87 L662.93 1723.77 L767.37 1721.29 L871.82 1718.57 L976.26 1715.60 L1080.71 1712.51 L1185.15 1709.29 L1289.47 1705.58 L1393.92 1701.49 L1498.37 1696.79 L1602.81 1691.34 L1707.26 1685.28 L1811.70 1678.47 L1916.02 1671.30 L2020.47 1664.61 L2124.91 1658.67 L2229.36 1653.35 L2333.80 1648.77 L2438.25 1644.81 L2542.57 1641.60 L2647.01 1639.37 L2751.46 1638.13 L2855.90 1638.13 L2960.35 1639.49 L3064.79 1642.21 L3169.11 1646.42 L3273.56 1652.36 L3378.00 1660.03 L3482.45 1669.69 L3586.89 1681.07 L3691.34 1694.56 L3795.66 1710.03 L3795.66 1190.26 L3691.34 1237.41 L3586.89 1281.97 L3482.45 1323.92 L3378.00 1363.15 L3273.56 1399.66 L3169.11 1433.69 L3064.79 1465.12 L2960.35 1493.96 L2855.90 1520.44 L2751.46 1544.70 L2647.01 1566.60 L2542.57 1586.40 L2438.25 1604.10 L2333.80 1619.94 L2229.36 1634.05 L2124.91 1646.30 L2020.47 1656.69 L1916.02 1665.23 L1811.70 1672.29 L1707.26 1678.60 L1602.81 1684.54 L1498.37 1690.11 L1393.92 1695.43 L1289.47 1700.38 L1185.15 1704.83 L1080.71 1708.79 L976.26 1712.13 L871.82 1714.98 L767.37 1717.21 L662.93 1719.19 L558.61 1720.80 L558.61 1725.87 Z" stroke-linecap="round" style="fill:#ADADFF;stroke:#9999FF;stroke-width:3.00"/>
	<path d="M558.61 1725.38 L558.61 1725.38 L662.93 1723.27 L767.37 1720.92 L871.82 1718.20 L976.26 1715.35 L1080.71 1712.26 L1185.15 1708.79 L1289.47 1705.08 L1393.92 1700.87 L1498.37 1696.17 L1602.81 1690.73 L1707.26 1684.66 L1811.70 1677.85 L1916.02 1670.80 L2020.47 1663.87 L2124.91 1657.56 L2229.36 1651.50 L2333.80 1646.05 L2438.25 1640.98 L2542.57 1636.40 L2647.01 1632.56 L2751.46 1629.34 L2855.90 1627.12 L2960.35 1625.75 L3064.79 1625.51 L3169.11 1626.50 L3273.56 1628.60 L3378.00 1632.19 L3482.45 1637.14 L3586.89 1643.58 L3691.34 1651.62 L3795.66 1661.27 L3795.66 1239.02 L3691.34 1280.36 L3586.89 1319.59 L3482.45 1356.34 L3378.00 1390.99 L3273.56 1423.42 L3169.11 1453.61 L3064.79 1481.71 L2960.35 1507.69 L2855.90 1531.58 L2751.46 1553.48 L2647.01 1573.41 L2542.57 1591.60 L2438.25 1607.93 L2333.80 1622.66 L2229.36 1635.78 L2124.91 1647.41 L2020.47 1657.44 L1916.02 1665.85 L1811.70 1672.90 L1707.26 1679.22 L1602.81 1685.16 L1498.37 1690.73 L1393.92 1695.92 L1289.47 1700.87 L1185.15 1705.20 L1080.71 1709.16 L976.26 1712.51 L871.82 1715.23 L767.37 1717.58 L662.93 1719.56 L558.61 1721.29 L558.61 1725.38 Z" stroke-linecap="round" style="fill:#9999FF;stroke:#8080FF;stroke-width:3.00"/>
	<path d="M558.61 1725.01 L558.61 1725.01 L662.93 1722.90 L767.37 1720.55 L871.82 1717.95 L976.26 1714.98 L1080.71 1711.89 L1185.15 1708.42 L1289.47 1704.71 L1393.92 1700.38 L1498.37 1695.55 L1602.81 1690.11 L1707.26 1684.04 L1811.70 1677.36 L1916.02 1670.31 L2020.47 1663.25 L2124.91 1656.45 L2229.36 1650.01 L2333.80 1643.70 L2438.25 1637.63 L2542.57 1631.94 L2647.01 1626.62 L2751.46 1621.79 L2855.90 1617.59 L2960.35 1614.00 L3064.79 1611.28 L3169.11 1609.30 L3273.56 1608.31 L3378.00 1608.18 L3482.45 1609.30 L3586.89 1611.40 L3691.34 1614.74 L3795.66 1619.32 L3795.66 1280.98 L3691.34 1317.24 L3586.89 1351.76 L3482.45 1384.31 L3378.00 1415.00 L3273.56 1443.84 L3169.11 1470.81 L3064.79 1496.06 L2960.35 1519.45 L2855.90 1540.98 L2751.46 1561.03 L2647.01 1579.35 L2542.57 1596.05 L2438.25 1611.28 L2333.80 1625.01 L2229.36 1637.39 L2124.91 1648.40 L2020.47 1658.05 L1916.02 1666.35 L1811.70 1673.40 L1707.26 1679.83 L1602.81 1685.78 L1498.37 1691.22 L1393.92 1696.42 L1289.47 1701.24 L1185.15 1705.58 L1080.71 1709.41 L976.26 1712.75 L871.82 1715.60 L767.37 1717.95 L662.93 1719.93 L558.61 1721.66 L558.61 1725.01 Z" stroke-linecap="round" style="fill:#8585FF;stroke:#6666FF;stroke-width:3.00"/>
	<path d="M558.61 1724.63 L558.61 1724.63 L662.93 1722.65 L767.37 1720.30 L871.82 1717.70 L976.26 1714.73 L1080.71 1711.64 L1185.15 1708.17 L1289.47 1704.34 L1393.92 1700.01 L1498.37 1695.06 L1602.81 1689.61 L1707.26 1683.55 L1811.70 1676.99 L1916.02 1669.81 L2020.47 1662.63 L2124.91 1655.58 L2229.36 1648.65 L2333.80 1641.60 L2438.25 1634.66 L2542.57 1627.98 L2647.01 1621.42 L2751.46 1615.11 L2855.90 1609.05 L2960.35 1603.48 L3064.79 1598.40 L3169.11 1593.95 L3273.56 1589.99 L3378.00 1586.77 L3482.45 1584.17 L3586.89 1582.56 L3691.34 1581.70 L3795.66 1581.70 L3795.66 1318.60 L3691.34 1350.40 L3586.89 1380.60 L3482.45 1409.31 L3378.00 1436.53 L3273.56 1462.15 L3169.11 1486.28 L3064.79 1508.81 L2960.35 1529.97 L2855.90 1549.52 L2751.46 1567.71 L2647.01 1584.54 L2542.57 1600.01 L2438.25 1614.12 L2333.80 1627.12 L2229.36 1638.75 L2124.91 1649.27 L2020.47 1658.67 L1916.02 1666.72 L1811.70 1673.89 L1707.26 1680.21 L1602.81 1686.27 L1498.37 1691.72 L1393.92 1696.91 L1289.47 1701.62 L1185.15 1705.95 L1080.71 1709.66 L976.26 1713.00 L871.82 1715.85 L767.37 1718.20 L662.93 1720.30 L558.61 1722.04 L558.61 1724.63 Z" stroke-linecap="round" style="fill:#7171FF;stroke:#4D4DFF;stroke-width:3.00"/>
	<path d="M558.61 1724.26 L558.61 1724.26 L662.93 1722.28 L767.37 1720.06 L871.82 1717.46 L976.26 1714.49 L1080.71 1711.39 L1185.15 1707.80 L1289.47 1703.97 L1393.92 1699.51 L1498.37 1694.69 L1602.81 1689.24 L1707.26 1683.18 L1811.70 1676.49 L1916.02 1669.44 L2020.47 1662.14 L2124.91 1654.71 L2229.36 1647.29 L2333.80 1639.74 L2438.25 1631.94 L2542.57 1624.27 L2647.01 1616.47 L2751.46 1608.80 L2855.90 1601.25 L2960.35 1593.70 L3064.79 1586.52 L3169.11 1579.59 L3273.56 1573.04 L3378.00 1566.85 L3482.45 1561.03 L3586.89 1555.71 L3691.34 1551.01 L3795.66 1546.80 L3795.66 1353.50 L3691.34 1381.09 L3586.89 1407.33 L3482.45 1432.45 L3378.00 1456.46 L3273.56 1479.11 L3169.11 1500.52 L3064.79 1520.69 L2960.35 1539.62 L2855.90 1557.44 L2751.46 1574.03 L2647.01 1589.49 L2542.57 1603.73 L2438.25 1616.84 L2333.80 1628.97 L2229.36 1640.11 L2124.91 1650.13 L2020.47 1659.17 L1916.02 1667.21 L1811.70 1674.27 L1707.26 1680.70 L1602.81 1686.64 L1498.37 1692.21 L1393.92 1697.28 L1289.47 1701.99 L1185.15 1706.19 L1080.71 1709.91 L976.26 1713.25 L871.82 1716.09 L767.37 1718.45 L662.93 1720.55 L558.61 1722.41 L558.61 1724.26 Z" stroke-linecap="round" style="fill:#5C5CFF;stroke:#3333FF;stroke-width:3.00"/>
	<path d="M558.61 1724.02 L558.61 1724.02 L662.93 1722.04 L767.37 1719.81 L871.82 1717.21 L976.26 1714.36 L1080.71 1711.14 L1185.15 1707.56 L1289.47 1703.60 L1393.92 1699.14 L1498.37 1694.19 L1602.81 1688.75 L1707.26 1682.68 L1811.70 1676.12 L1916.02 1669.07 L2020.47 1661.64 L2124.91 1653.97 L2229.36 1646.05 L2333.80 1637.88 L2438.25 1629.47 L2542.57 1620.68 L2647.01 1611.89 L2751.46 1602.86 L2855.90 1593.70 L2960.35 1584.54 L3064.79 1575.26 L3169.11 1566.11 L3273.56 1556.95 L3378.00 1547.91 L3482.45 1539.00 L3586.89 1530.34 L3691.34 1521.93 L3795.66 1513.63 L3795.66 1386.66 L3691.34 1410.18 L3586.89 1432.82 L3482.45 1454.48 L3378.00 1475.27 L3273.56 1495.19 L3169.11 1514.00 L3064.79 1531.95 L2960.35 1548.90 L2855.90 1564.99 L2751.46 1579.97 L2647.01 1594.07 L2542.57 1607.19 L2438.25 1619.44 L2333.80 1630.83 L2229.36 1641.35 L2124.91 1651.00 L2020.47 1659.66 L1916.02 1667.58 L1811.70 1674.64 L1707.26 1681.07 L1602.81 1687.14 L1498.37 1692.58 L1393.92 1697.66 L1289.47 1702.36 L1185.15 1706.44 L1080.71 1710.15 L976.26 1713.50 L871.82 1716.34 L767.37 1718.82 L662.93 1720.92 L558.61 1722.78 L558.61 1724.02 Z" stroke-linecap="round" style="fill:#4747FF;stroke:#1919FF;stroke-width:3.00"/>
	<path d="M558.61 1723.64 L558.61 1723.64 L662.93 1721.79 L767.37 1719.56 L871.82 1716.96 L976.26 1714.11 L1080.71 1710.90 L1185.15 1707.31 L1289.47 1703.22 L1393.92 1698.77 L1498.37 1693.82 L1602.81 1688.37 L1707.26 1682.31 L1811.70 1675.75 L1916.02 1668.70 L2020.47 1661.15 L2124.91 1653.23 L2229.36 1644.81 L2333.80 1636.15 L2438.25 1626.87 L2542.57 1617.34 L2647.01 1607.44 L2751.46 1597.04 L2855.90 1586.40 L2960.35 1575.51 L3064.79 1564.37 L3169.11 1552.99 L3273.56 1541.35 L3378.00 1529.60 L3482.45 1517.72 L3586.89 1505.71 L3691.34 1493.71 L3795.66 1481.71 L3795.66 1418.59 L3691.34 1438.27 L3586.89 1457.33 L3482.45 1475.76 L3378.00 1493.59 L3273.56 1510.79 L3169.11 1527.12 L3064.79 1542.84 L2960.35 1557.94 L2855.90 1572.17 L2751.46 1585.78 L2647.01 1598.53 L2542.57 1610.66 L2438.25 1622.04 L2333.80 1632.56 L2229.36 1642.46 L2124.91 1651.74 L2020.47 1660.16 L1916.02 1667.95 L1811.70 1675.01 L1707.26 1681.57 L1602.81 1687.51 L1498.37 1693.08 L1393.92 1698.03 L1289.47 1702.61 L1185.15 1706.69 L1080.71 1710.40 L976.26 1713.62 L871.82 1716.59 L767.37 1719.06 L662.93 1721.17 L558.61 1723.03 L558.61 1723.64 Z" stroke-linecap="round" style="fill:#3333FF;stroke:#0000FF;stroke-width:3.00"/>
	<circle cx="558.48" cy="1726.61" r="22.03" style="fill:#000000;stroke:#000000;stroke-width:8.64"/>
	<circle cx="662.93" cy="1720.67" r="22.03" style="fill:#000000;stroke:#000000;stroke-width:8.64"/>
	<circle cx="767.37" cy="1720.67" r="22.03" style="fill:#000000;stroke:#000000;stroke-width:8.64"/>
	<circle cx="871.82" cy="1714.61" r="22.03" style="fill:#000000;stroke:#000000;stroke-width:8.64"/>
	<circle cx="976.14" cy="1714.61" r="22.03" style="fill:#000000;stroke:#000000;stroke-width:8.64"/>
	<circle cx="1080.59" cy="1714.61" r="22.03" style="fill:#000000;stroke:#000000;stroke-width:8.64"/>
	<circle cx="1185.03" cy="1714.61" r="22.03" style="fill:#000000;stroke:#000000;stroke-width:8.64"/>
	<circle cx="1289.47" cy="1711.64" r="22.03" style="fill:#000000;stroke:#000000;stroke-width:8.64"/>
	<circle cx="1393.92" cy="1687.51" r="22.03" style="fill:#000000;stroke:#000000;stroke-width:8.64"/>
	<circle cx="1498.37" cy="1684.54" r="22.03" style="fill:#000000;stroke:#000000;stroke-width:8.64"/>
	<circle cx="1602.69" cy="1678.47" r="22.03" style="fill:#000000;stroke:#000000;stroke-width:8.64"/>
	<circle cx="1707.13" cy="1678.47" r="22.03" style="fill:#000000;stroke:#000000;stroke-width:8.64"/>
	<circle cx="1811.58" cy="1672.53" r="22.03" style="fill:#000000;stroke:#000000;stroke-width:8.64"/>
	<circle cx="1916.02" cy="1672.53" r="22.03" style="fill:#000000;stroke:#000000;stroke-width:8.64"/>
	<circle cx="2020.47" cy="1666.47" r="22.03" style="fill:#000000;stroke:#000000;stroke-width:8.64"/>
	<circle cx="2124.91" cy="1660.53" r="22.03" style="fill:#000000;stroke:#000000;stroke-width:8.64"/>
	<circle cx="2229.23" cy="1660.53" r="22.03" style="fill:#000000;stroke:#000000;stroke-width:8.64"/>
	<circle cx="2333.68" cy="1615.36" r="22.03" style="fill:#000000;stroke:#000000;stroke-width:8.64"/>
	<line x1="390.80" y1="2489.19" x2="390.80" y2="100.86" style="stroke:#000000;stroke-width:5.76"/>
	<line x1="390.80" y1="2255.41" x2="350.83" y2="2255.41" style="stroke:#000000;stroke-width:5.76"/>
	<text x="300.72" y="2255.41" style="font-family:'Helvetica';font-size:99.99px;fill:#000000" transform="rotate(-90 300.72,2255.41)" text-anchor="middle">-2</text>
	<line x1="390.80" y1="1732.55" x2="350.83" y2="1732.55" style="stroke:#000000;stroke-width:5.76"/>
	<text x="300.72" y="1732.55" style="font-family:'Helvetica';font-size:99.99px;fill:#000000" transform="rotate(-90 300.72,1732.55)" text-anchor="middle">0</text>
	<line x1="390.80" y1="1209.82" x2="350.83" y2="1209.82" style="stroke:#000000;stroke-width:5.76"/>
	<text x="300.72" y="1209.82" style="font-family:'Helvetica';font-size:99.99px;fill:#000000" transform="rotate(-90 300.72,1209.82)" text-anchor="middle">2</text>
	<line x1="390.80" y1="686.96" x2="350.83" y2="686.96" style="stroke:#000000;stroke-width:5.76"/>
	<text x="300.72" y="686.96" style="font-family:'Helvetica';font-size:99.99px;fill:#000000" transform="rotate(-90 300.72,686.96)" text-anchor="middle">4</text>
	<line x1="390.80" y1="164.22" x2="350.83" y2="164.22" style="stroke:#000000;stroke-width:5.76"/>
	<text x="300.72" y="164.22" style="font-family:'Helvetica';font-size:99.99px;fill:#000000" transform="rotate(-90 300.72,164.22)" text-anchor="middle">6</text>
	<text x="190.71" y="1294.96" style="font-family:'Helvetica';font-size:99.99px;fill:#000000" transform="rotate(-90 190.71,1294.96)" text-anchor="middle">Confirmed cases per 100 beds</text>
	<line x1="390.80" y1="2489.19" x2="3859.02" y2="2489.19" style="stroke:#000000;stroke-width:5.76"/>
	<line x1="454.16" y1="2489.19" x2="454.16" y2="2529.16" style="stroke:#000000;stroke-width:5.76"/>
	<text x="454.16" y="2619.14" style="font-family:'Helvetica';font-size:99.99px;fill:#000000" text-anchor="middle">0</text>
	<line x1="1498.37" y1="2489.19" x2="1498.37" y2="2529.16" style="stroke:#000000;stroke-width:5.76"/>
	<text x="1498.37" y="2619.14" style="font-family:'Helvetica';font-size:99.99px;fill:#000000" text-anchor="middle">10</text>
	<line x1="2542.57" y1="2489.19" x2="2542.57" y2="2529.16" style="stroke:#000000;stroke-width:5.76"/>
	<text x="2542.57" y="2619.14" style="font-family:'Helvetica';font-size:99.99px;fill:#000000" text-anchor="middle">20</text>
	<line x1="3586.89" y1="2489.19" x2="3586.89" y2="2529.16" style="stroke:#000000;stroke-width:5.76"/>
	<text x="3586.89" y="2619.14" style="font-family:'Helvetica';font-size:99.99px;fill:#000000" text-anchor="middle">30</text>
	<text x="2124.91" y="2729.16" style="font-family:'Helvetica';font-size:99.99px;fill:#000000" text-anchor="middle">Days since 0.01 confirmed cases per 100 beds</text>
</svg>
