<?xml version="1.0" encoding="UTF-8" standalone="no"?>
<!-- This is a Stata 14.2 generated SVG file (http://www.stata.com) -->

<svg version="1.1" width="5.50in" height="4.00in" viewBox="0 0 3960 2880" xmlns="http://www.w3.org/2000/svg">
	<desc>Stata Graph - Graph</desc>
	<line x1="390.80" y1="1860.39" x2="3859.02" y2="1860.39" style="stroke:#FF0000;stroke-width:8.64"/>
	<path d="M565.54 2425.82 L565.54 2425.82 L676.91 2425.58 L788.29 2425.20 L899.66 2424.59 L1011.04 2423.84 L1122.41 2422.85 L1233.79 2421.37 L1345.29 2419.39 L1456.66 2416.79 L1568.04 2413.45 L1679.41 2409.24 L1790.79 2404.17 L1902.16 2398.35 L2013.54 2391.79 L2124.91 2384.86 L2236.29 2377.31 L2347.66 2369.39 L2459.04 2361.10 L2570.53 2352.19 L2681.91 2343.16 L2793.28 2333.87 L2904.66 2324.59 L3016.03 2315.93 L3127.41 2308.01 L3238.78 2301.70 L3350.16 2297.49 L3461.53 2296.50 L3572.91 2299.72 L3684.28 2308.63 L3795.66 2324.84 L3795.66 559.12 L3684.28 891.03 L3572.91 1168.36 L3461.53 1399.16 L3350.16 1590.73 L3238.78 1749.14 L3127.41 1879.57 L3016.03 1986.50 L2904.66 2073.99 L2793.28 2145.15 L2681.91 2202.82 L2570.53 2249.23 L2459.04 2286.48 L2347.66 2316.05 L2236.29 2339.57 L2124.91 2357.88 L2013.54 2371.87 L1902.16 2382.63 L1790.79 2390.80 L1679.41 2397.11 L1568.04 2402.06 L1456.66 2406.27 L1345.29 2409.61 L1233.79 2412.46 L1122.41 2414.81 L1011.04 2416.79 L899.66 2418.40 L788.29 2419.76 L676.91 2420.87 L565.54 2421.86 L565.54 2425.82 Z" stroke-linecap="round" style="fill:#EBEBFF;stroke:#E6E6FF;stroke-width:3.00"/>
	<path d="M565.54 2424.71 L565.54 2424.71 L676.91 2424.21 L788.29 2423.60 L899.66 2422.85 L1011.04 2421.86 L1122.41 2420.50 L1233.79 2418.77 L1345.29 2416.54 L1456.66 2413.70 L1568.04 2410.23 L1679.41 2405.78 L1790.79 2400.33 L1902.16 2393.77 L2013.54 2386.10 L2124.91 2377.06 L2236.29 2366.42 L2347.66 2354.05 L2459.04 2339.57 L2570.53 2322.49 L2681.91 2302.56 L2793.28 2279.42 L2904.66 2252.32 L3016.03 2220.89 L3127.41 2184.38 L3238.78 2142.18 L3350.16 2093.54 L3461.53 2037.48 L3572.91 1973.13 L3684.28 1899.50 L3795.66 1815.22 L3795.66 1068.74 L3684.28 1300.16 L3572.91 1494.82 L3461.53 1658.18 L3350.16 1794.68 L3238.78 1908.53 L3127.41 2003.20 L3016.03 2081.54 L2904.66 2146.26 L2793.28 2199.60 L2681.91 2243.29 L2570.53 2278.93 L2459.04 2308.01 L2347.66 2331.52 L2236.29 2350.46 L2124.91 2365.56 L2013.54 2377.68 L1902.16 2387.21 L1790.79 2394.64 L1679.41 2400.58 L1568.04 2405.40 L1456.66 2409.24 L1345.29 2412.46 L1233.79 2414.93 L1122.41 2417.04 L1011.04 2418.77 L899.66 2420.25 L788.29 2421.37 L676.91 2422.23 L565.54 2422.98 L565.54 2424.71 Z" stroke-linecap="round" style="fill:#D6D6FF;stroke:#CCCCFF;stroke-width:3.00"/>
	<path d="M565.54 2424.46 L565.54 2424.46 L676.91 2423.97 L788.29 2423.35 L899.66 2422.61 L1011.04 2421.49 L1122.41 2420.13 L1233.79 2418.40 L1345.29 2416.05 L1456.66 2413.20 L1568.04 2409.61 L1679.41 2405.16 L1790.79 2399.71 L1902.16 2393.03 L2013.54 2385.11 L2124.91 2375.83 L2236.29 2364.69 L2347.66 2351.57 L2459.04 2335.98 L2570.53 2317.66 L2681.91 2296.01 L2793.28 2270.51 L2904.66 2240.56 L3016.03 2205.42 L3127.41 2164.33 L3238.78 2116.44 L3350.16 2060.50 L3461.53 1995.65 L3572.91 1920.41 L3684.28 1833.29 L3795.66 1732.80 L3795.66 1151.16 L3684.28 1366.37 L3572.91 1547.67 L3461.53 1700.01 L3350.16 1827.72 L3238.78 1934.40 L3127.41 2023.25 L3016.03 2097.01 L2904.66 2158.02 L2793.28 2208.39 L2681.91 2249.85 L2570.53 2283.75 L2459.04 2311.47 L2347.66 2334.00 L2236.29 2352.19 L2124.91 2366.92 L2013.54 2378.55 L1902.16 2387.95 L1790.79 2395.26 L1679.41 2401.20 L1568.04 2405.90 L1456.66 2409.74 L1345.29 2412.83 L1233.79 2415.43 L1122.41 2417.41 L1011.04 2419.14 L899.66 2420.50 L788.29 2421.62 L676.91 2422.48 L565.54 2423.22 L565.54 2424.46 Z" stroke-linecap="round" style="fill:#C2C2FF;stroke:#B3B3FF;stroke-width:3.00"/>
	<path d="M565.54 2424.34 L565.54 2424.34 L676.91 2423.84 L788.29 2423.22 L899.66 2422.36 L1011.04 2421.24 L1122.41 2419.88 L1233.79 2418.03 L1345.29 2415.80 L1456.66 2412.95 L1568.04 2409.24 L1679.41 2404.79 L1790.79 2399.22 L1902.16 2392.53 L2013.54 2384.49 L2124.91 2374.96 L2236.29 2363.45 L2347.66 2349.84 L2459.04 2333.75 L2570.53 2314.44 L2681.91 2291.67 L2793.28 2264.57 L2904.66 2232.64 L3016.03 2195.15 L3127.41 2150.84 L3238.78 2098.99 L3350.16 2038.23 L3461.53 1967.32 L3572.91 1884.77 L3684.28 1788.61 L3795.66 1677.24 L3795.66 1206.72 L3684.28 1411.04 L3572.91 1583.31 L3461.53 1728.35 L3350.16 1850.00 L3238.78 1951.72 L3127.41 2036.74 L3016.03 2107.28 L2904.66 2165.94 L2793.28 2214.33 L2681.91 2254.30 L2570.53 2286.97 L2459.04 2313.83 L2347.66 2335.73 L2236.29 2353.43 L2124.91 2367.78 L2013.54 2379.17 L1902.16 2388.33 L1790.79 2395.75 L1679.41 2401.57 L1568.04 2406.27 L1456.66 2410.11 L1345.29 2413.20 L1233.79 2415.68 L1122.41 2417.78 L1011.04 2419.39 L899.66 2420.75 L788.29 2421.74 L676.91 2422.61 L565.54 2423.35 L565.54 2424.34 Z" stroke-linecap="round" style="fill:#ADADFF;stroke:#9999FF;stroke-width:3.00"/>
	<path d="M565.54 2424.21 L565.54 2424.21 L676.91 2423.72 L788.29 2423.10 L899.66 2422.23 L1011.04 2421.12 L1122.41 2419.64 L1233.79 2417.78 L1345.29 2415.55 L1456.66 2412.58 L1568.04 2408.99 L1679.41 2404.54 L1790.79 2398.97 L1902.16 2392.16 L2013.54 2383.99 L2124.91 2374.22 L2236.29 2362.59 L2347.66 2348.60 L2459.04 2331.77 L2570.53 2311.85 L2681.91 2288.09 L2793.28 2259.87 L2904.66 2226.46 L3016.03 2186.85 L3127.41 2140.08 L3238.78 2085.13 L3350.16 2020.53 L3461.53 1944.92 L3572.91 1856.43 L3684.28 1753.10 L3795.66 1632.93 L3795.66 1251.03 L3684.28 1446.44 L3572.91 1611.65 L3461.53 1750.75 L3350.16 1867.69 L3238.78 1965.58 L3127.41 2047.38 L3016.03 2115.57 L2904.66 2172.25 L2793.28 2219.03 L2681.91 2257.77 L2570.53 2289.57 L2459.04 2315.68 L2347.66 2336.97 L2236.29 2354.42 L2124.91 2368.40 L2013.54 2379.66 L1902.16 2388.82 L1790.79 2396.00 L1679.41 2401.82 L1568.04 2406.52 L1456.66 2410.35 L1345.29 2413.45 L1233.79 2415.92 L1122.41 2417.90 L1011.04 2419.51 L899.66 2420.87 L788.29 2421.86 L676.91 2422.73 L565.54 2423.35 L565.54 2424.21 Z" stroke-linecap="round" style="fill:#9999FF;stroke:#8080FF;stroke-width:3.00"/>
	<path d="M565.54 2424.21 L565.54 2424.21 L676.91 2423.60 L788.29 2422.98 L899.66 2422.11 L1011.04 2420.87 L1122.41 2419.51 L1233.79 2417.66 L1345.29 2415.30 L1456.66 2412.46 L1568.04 2408.75 L1679.41 2404.17 L1790.79 2398.60 L1902.16 2391.79 L2013.54 2383.62 L2124.91 2373.60 L2236.29 2361.72 L2347.66 2347.36 L2459.04 2330.16 L2570.53 2309.62 L2681.91 2285.12 L2793.28 2255.79 L2904.66 2221.01 L3016.03 2179.80 L3127.41 2130.92 L3238.78 2073.25 L3350.16 2005.43 L3461.53 1925.61 L3572.91 1832.05 L3684.28 1722.65 L3795.66 1595.06 L3795.66 1288.90 L3684.28 1477.00 L3572.91 1635.90 L3461.53 1770.05 L3350.16 1882.92 L3238.78 1977.46 L3127.41 2056.67 L3016.03 2122.63 L2904.66 2177.57 L2793.28 2223.11 L2681.91 2260.74 L2570.53 2291.80 L2459.04 2317.29 L2347.66 2338.21 L2236.29 2355.16 L2124.91 2369.02 L2013.54 2380.16 L1902.16 2389.07 L1790.79 2396.37 L1679.41 2402.06 L1568.04 2406.77 L1456.66 2410.60 L1345.29 2413.57 L1233.79 2416.05 L1122.41 2418.15 L1011.04 2419.64 L899.66 2421.00 L788.29 2421.99 L676.91 2422.85 L565.54 2423.47 L565.54 2424.21 Z" stroke-linecap="round" style="fill:#8585FF;stroke:#6666FF;stroke-width:3.00"/>
	<path d="M565.54 2424.09 L565.54 2424.09 L676.91 2423.60 L788.29 2422.85 L899.66 2421.99 L1011.04 2420.75 L1122.41 2419.39 L1233.79 2417.53 L1345.29 2415.18 L1456.66 2412.21 L1568.04 2408.50 L1679.41 2404.04 L1790.79 2398.35 L1902.16 2391.54 L2013.54 2383.25 L2124.91 2373.10 L2236.29 2360.98 L2347.66 2346.37 L2459.04 2328.80 L2570.53 2307.64 L2681.91 2282.39 L2793.28 2252.20 L2904.66 2216.18 L3016.03 2173.37 L3127.41 2122.63 L3238.78 2062.61 L3350.16 1991.69 L3461.53 1908.28 L3572.91 1810.27 L3684.28 1695.30 L3795.66 1561.03 L3795.66 1322.93 L3684.28 1504.23 L3572.91 1657.81 L3461.53 1787.38 L3350.16 1896.53 L3238.78 1988.11 L3127.41 2064.96 L3016.03 2129.06 L2904.66 2182.40 L2793.28 2226.70 L2681.91 2263.46 L2570.53 2293.78 L2459.04 2318.78 L2347.66 2339.20 L2236.29 2355.90 L2124.91 2369.52 L2013.54 2380.53 L1902.16 2389.44 L1790.79 2396.62 L1679.41 2402.31 L1568.04 2407.01 L1456.66 2410.73 L1345.29 2413.82 L1233.79 2416.29 L1122.41 2418.27 L1011.04 2419.88 L899.66 2421.12 L788.29 2422.11 L676.91 2422.98 L565.54 2423.60 L565.54 2424.09 Z" stroke-linecap="round" style="fill:#7171FF;stroke:#4D4DFF;stroke-width:3.00"/>
	<path d="M565.54 2423.97 L565.54 2423.97 L676.91 2423.47 L788.29 2422.73 L899.66 2421.86 L1011.04 2420.63 L1122.41 2419.14 L1233.79 2417.28 L1345.29 2414.93 L1456.66 2411.96 L1568.04 2408.37 L1679.41 2403.80 L1790.79 2398.10 L1902.16 2391.30 L2013.54 2382.88 L2124.91 2372.61 L2236.29 2360.36 L2347.66 2345.38 L2459.04 2327.44 L2570.53 2305.78 L2681.91 2279.92 L2793.28 2248.86 L2904.66 2211.73 L3016.03 2167.55 L3127.41 2114.95 L3238.78 2052.71 L3350.16 1979.07 L3461.53 1892.32 L3572.91 1790.10 L3684.28 1670.06 L3795.66 1529.47 L3795.66 1354.49 L3684.28 1529.60 L3572.91 1677.98 L3461.53 1803.34 L3350.16 1909.15 L3238.78 1998.01 L3127.41 2072.51 L3016.03 2134.88 L2904.66 2186.85 L2793.28 2230.17 L2681.91 2265.93 L2570.53 2295.63 L2459.04 2320.01 L2347.66 2340.19 L2236.29 2356.52 L2124.91 2370.01 L2013.54 2380.90 L1902.16 2389.69 L1790.79 2396.86 L1679.41 2402.56 L1568.04 2407.26 L1456.66 2410.97 L1345.29 2413.94 L1233.79 2416.42 L1122.41 2418.40 L1011.04 2420.01 L899.66 2421.24 L788.29 2422.23 L676.91 2422.98 L565.54 2423.60 L565.54 2423.97 Z" stroke-linecap="round" style="fill:#5C5CFF;stroke:#3333FF;stroke-width:3.00"/>
	<path d="M565.54 2423.97 L565.54 2423.97 L676.91 2423.35 L788.29 2422.61 L899.66 2421.74 L1011.04 2420.50 L1122.41 2419.02 L1233.79 2417.16 L1345.29 2414.81 L1456.66 2411.84 L1568.04 2408.13 L1679.41 2403.55 L1790.79 2397.98 L1902.16 2390.92 L2013.54 2382.51 L2124.91 2372.24 L2236.29 2359.74 L2347.66 2344.52 L2459.04 2326.20 L2570.53 2304.05 L2681.91 2277.44 L2793.28 2245.64 L2904.66 2207.52 L3016.03 2161.98 L3127.41 2107.78 L3238.78 2043.42 L3350.16 1967.19 L3461.53 1877.10 L3572.91 1770.92 L3684.28 1645.93 L3795.66 1499.53 L3795.66 1384.43 L3684.28 1553.73 L3572.91 1697.16 L3461.53 1818.56 L3350.16 1921.16 L3238.78 2007.41 L3127.41 2079.81 L3016.03 2140.45 L2904.66 2191.19 L2793.28 2233.39 L2681.91 2268.41 L2570.53 2297.37 L2459.04 2321.38 L2347.66 2341.05 L2236.29 2357.26 L2124.91 2370.38 L2013.54 2381.27 L1902.16 2389.93 L1790.79 2396.99 L1679.41 2402.81 L1568.04 2407.38 L1456.66 2411.10 L1345.29 2414.19 L1233.79 2416.54 L1122.41 2418.52 L1011.04 2420.13 L899.66 2421.37 L788.29 2422.36 L676.91 2423.10 L565.54 2423.72 L565.54 2423.97 Z" stroke-linecap="round" style="fill:#4747FF;stroke:#1919FF;stroke-width:3.00"/>
	<path d="M565.54 2423.84 L565.54 2423.84 L676.91 2423.35 L788.29 2422.61 L899.66 2421.62 L1011.04 2420.38 L1122.41 2418.89 L1233.79 2417.04 L1345.29 2414.69 L1456.66 2411.72 L1568.04 2408.00 L1679.41 2403.42 L1790.79 2397.73 L1902.16 2390.68 L2013.54 2382.14 L2124.91 2371.74 L2236.29 2359.12 L2347.66 2343.65 L2459.04 2324.96 L2570.53 2302.44 L2681.91 2275.21 L2793.28 2242.54 L2904.66 2203.31 L3016.03 2156.53 L3127.41 2100.72 L3238.78 2034.27 L3350.16 1955.56 L3461.53 1862.37 L3572.91 1752.35 L3684.28 1622.66 L3795.66 1470.44 L3795.66 1413.52 L3684.28 1576.87 L3572.91 1715.72 L3461.53 1833.29 L3350.16 1932.66 L3238.78 2016.45 L3127.41 2086.86 L3016.03 2145.89 L2904.66 2195.27 L2793.28 2236.48 L2681.91 2270.64 L2570.53 2299.10 L2459.04 2322.49 L2347.66 2341.92 L2236.29 2357.88 L2124.91 2370.88 L2013.54 2381.52 L1902.16 2390.18 L1790.79 2397.24 L1679.41 2402.93 L1568.04 2407.63 L1456.66 2411.34 L1345.29 2414.31 L1233.79 2416.79 L1122.41 2418.65 L1011.04 2420.25 L899.66 2421.37 L788.29 2422.36 L676.91 2423.10 L565.54 2423.72 L565.54 2423.84 Z" stroke-linecap="round" style="fill:#3333FF;stroke:#0000FF;stroke-width:3.00"/>
	<circle cx="565.41" cy="2424.21" r="22.03" style="fill:#000000;stroke:#000000;stroke-width:8.64"/>
	<circle cx="676.79" cy="2424.21" r="22.03" style="fill:#000000;stroke:#000000;stroke-width:8.64"/>
	<circle cx="788.29" cy="2424.21" r="22.03" style="fill:#000000;stroke:#000000;stroke-width:8.64"/>
	<circle cx="899.66" cy="2424.21" r="22.03" style="fill:#000000;stroke:#000000;stroke-width:8.64"/>
	<circle cx="1011.04" cy="2420.87" r="22.03" style="fill:#000000;stroke:#000000;stroke-width:8.64"/>
	<circle cx="1122.41" cy="2415.06" r="22.03" style="fill:#000000;stroke:#000000;stroke-width:8.64"/>
	<circle cx="1233.79" cy="2415.06" r="22.03" style="fill:#000000;stroke:#000000;stroke-width:8.64"/>
	<circle cx="1345.16" cy="2414.19" r="22.03" style="fill:#000000;stroke:#000000;stroke-width:8.64"/>
	<circle cx="1456.54" cy="2409.12" r="22.03" style="fill:#000000;stroke:#000000;stroke-width:8.64"/>
	<circle cx="1567.91" cy="2401.57" r="22.03" style="fill:#000000;stroke:#000000;stroke-width:8.64"/>
	<circle cx="1679.29" cy="2401.57" r="22.03" style="fill:#000000;stroke:#000000;stroke-width:8.64"/>
	<circle cx="1790.66" cy="2396.62" r="22.03" style="fill:#000000;stroke:#000000;stroke-width:8.64"/>
	<circle cx="1902.04" cy="2394.02" r="22.03" style="fill:#000000;stroke:#000000;stroke-width:8.64"/>
	<circle cx="2013.54" cy="2394.02" r="22.03" style="fill:#000000;stroke:#000000;stroke-width:8.64"/>
	<circle cx="2124.91" cy="2371.50" r="22.03" style="fill:#000000;stroke:#000000;stroke-width:8.64"/>
	<circle cx="2236.29" cy="2352.19" r="22.03" style="fill:#000000;stroke:#000000;stroke-width:8.64"/>
	<line x1="390.80" y1="2489.19" x2="390.80" y2="100.86" style="stroke:#000000;stroke-width:5.76"/>
	<line x1="390.80" y1="2425.82" x2="350.83" y2="2425.82" style="stroke:#000000;stroke-width:5.76"/>
	<text x="300.72" y="2425.82" style="font-family:'Helvetica';font-size:99.99px;fill:#000000" transform="rotate(-90 300.72,2425.82)" text-anchor="middle">0</text>
	<line x1="390.80" y1="1860.39" x2="350.83" y2="1860.39" style="stroke:#000000;stroke-width:5.76"/>
	<text x="300.72" y="1860.39" style="font-family:'Helvetica';font-size:99.99px;fill:#000000" transform="rotate(-90 300.72,1860.39)" text-anchor="middle">10</text>
	<line x1="390.80" y1="1294.96" x2="350.83" y2="1294.96" style="stroke:#000000;stroke-width:5.76"/>
	<text x="300.72" y="1294.96" style="font-family:'Helvetica';font-size:99.99px;fill:#000000" transform="rotate(-90 300.72,1294.96)" text-anchor="middle">20</text>
	<line x1="390.80" y1="729.53" x2="350.83" y2="729.53" style="stroke:#000000;stroke-width:5.76"/>
	<text x="300.72" y="729.53" style="font-family:'Helvetica';font-size:99.99px;fill:#000000" transform="rotate(-90 300.72,729.53)" text-anchor="middle">30</text>
	<line x1="390.80" y1="164.22" x2="350.83" y2="164.22" style="stroke:#000000;stroke-width:5.76"/>
	<text x="300.72" y="164.22" style="font-family:'Helvetica';font-size:99.99px;fill:#000000" transform="rotate(-90 300.72,164.22)" text-anchor="middle">40</text>
	<text x="190.71" y="1294.96" style="font-family:'Helvetica';font-size:99.99px;fill:#000000" transform="rotate(-90 190.71,1294.96)" text-anchor="middle">Confirmed cases per 100 beds</text>
	<line x1="390.80" y1="2489.19" x2="3859.02" y2="2489.19" style="stroke:#000000;stroke-width:5.76"/>
	<line x1="454.16" y1="2489.19" x2="454.16" y2="2529.16" style="stroke:#000000;stroke-width:5.76"/>
	<text x="454.16" y="2619.14" style="font-family:'Helvetica';font-size:99.99px;fill:#000000" text-anchor="middle">0</text>
	<line x1="1568.04" y1="2489.19" x2="1568.04" y2="2529.16" style="stroke:#000000;stroke-width:5.76"/>
	<text x="1568.04" y="2619.14" style="font-family:'Helvetica';font-size:99.99px;fill:#000000" text-anchor="middle">10</text>
	<line x1="2681.91" y1="2489.19" x2="2681.91" y2="2529.16" style="stroke:#000000;stroke-width:5.76"/>
	<text x="2681.91" y="2619.14" style="font-family:'Helvetica';font-size:99.99px;fill:#000000" text-anchor="middle">20</text>
	<line x1="3795.66" y1="2489.19" x2="3795.66" y2="2529.16" style="stroke:#000000;stroke-width:5.76"/>
	<text x="3795.66" y="2619.14" style="font-family:'Helvetica';font-size:99.99px;fill:#000000" text-anchor="middle">30</text>
	<text x="2124.91" y="2729.16" style="font-family:'Helvetica';font-size:99.99px;fill:#000000" text-anchor="middle">Days since 0.01 confirmed cases per 100 beds</text>
</svg>
