<?xml version="1.0" encoding="UTF-8" standalone="no"?>
<!-- This is a Stata 14.2 generated SVG file (http://www.stata.com) -->

<svg version="1.1" width="5.50in" height="4.00in" viewBox="0 0 3960 2880" xmlns="http://www.w3.org/2000/svg">
	<desc>Stata Graph - Graph</desc>
	<line x1="390.80" y1="1521.18" x2="3859.02" y2="1521.18" style="stroke:#FF0000;stroke-width:8.64"/>
	<path d="M587.81 1671.91 L587.81 1671.91 L721.46 1671.05 L855.11 1670.06 L988.76 1668.94 L1122.41 1667.71 L1256.06 1666.22 L1389.84 1663.87 L1523.49 1660.28 L1657.14 1656.57 L1790.79 1656.57 L1924.44 1658.80 L2058.09 1664.24 L2191.74 1674.14 L2325.39 1689.61 L2459.04 1712.63 L2592.81 1744.68 L2726.46 1787.87 L2860.11 1844.30 L2993.76 1916.33 L3127.41 2006.05 L3261.06 2116.07 L3394.71 2248.61 L3528.36 2406.02 L3528.36 598.72 L3394.71 794.99 L3261.06 963.42 L3127.41 1106.48 L2993.76 1226.40 L2860.11 1325.78 L2726.46 1406.96 L2592.81 1472.30 L2459.04 1524.03 L2325.39 1564.25 L2191.74 1595.06 L2058.09 1617.96 L1924.44 1634.66 L1790.79 1646.55 L1657.14 1654.71 L1523.49 1657.68 L1389.84 1659.79 L1256.06 1662.01 L1122.41 1664.12 L988.76 1665.85 L855.11 1667.09 L721.46 1667.83 L587.81 1668.33 L587.81 1671.91 Z" stroke-linecap="round" style="fill:#EBEBFF;stroke:#E6E6FF;stroke-width:3.00"/>
	<path d="M587.81 1670.92 L587.81 1670.92 L721.46 1670.18 L855.11 1669.19 L988.76 1668.08 L1122.41 1666.72 L1256.06 1664.98 L1389.84 1662.76 L1523.49 1659.54 L1657.14 1656.07 L1790.79 1653.72 L1924.44 1651.87 L2058.09 1650.88 L2191.74 1651.25 L2325.39 1653.48 L2459.04 1658.18 L2592.81 1666.10 L2726.46 1677.98 L2860.11 1694.69 L2993.76 1717.21 L3127.41 1746.41 L3261.06 1783.42 L3394.71 1829.08 L3528.36 1884.40 L3528.36 1120.34 L3394.71 1214.52 L3261.06 1296.07 L3127.41 1366.12 L2993.76 1425.52 L2860.11 1475.39 L2726.46 1516.85 L2592.81 1550.88 L2459.04 1578.48 L2325.39 1600.51 L2191.74 1617.83 L2058.09 1631.32 L1924.44 1641.72 L1790.79 1649.52 L1657.14 1655.21 L1523.49 1658.43 L1389.84 1660.90 L1256.06 1663.25 L1122.41 1665.23 L988.76 1666.72 L855.11 1667.95 L721.46 1668.82 L587.81 1669.44 L587.81 1670.92 Z" stroke-linecap="round" style="fill:#D6D6FF;stroke:#CCCCFF;stroke-width:3.00"/>
	<path d="M587.81 1670.68 L587.81 1670.68 L721.46 1670.06 L855.11 1669.07 L988.76 1667.95 L1122.41 1666.59 L1256.06 1664.74 L1389.84 1662.51 L1523.49 1659.42 L1657.14 1655.95 L1790.79 1653.23 L1924.44 1650.75 L2058.09 1648.77 L2191.74 1647.54 L2325.39 1647.66 L2459.04 1649.39 L2592.81 1653.35 L2726.46 1660.16 L2860.11 1670.43 L2993.76 1685.03 L3127.41 1704.46 L3261.06 1729.58 L3394.71 1761.14 L3528.36 1800.00 L3528.36 1204.74 L3394.71 1282.34 L3261.06 1349.91 L3127.41 1408.07 L2993.76 1457.70 L2860.11 1499.65 L2726.46 1534.67 L2592.81 1563.63 L2459.04 1587.27 L2325.39 1606.33 L2191.74 1621.55 L2058.09 1633.55 L1924.44 1642.83 L1790.79 1649.89 L1657.14 1655.33 L1523.49 1658.55 L1389.84 1661.15 L1256.06 1663.38 L1122.41 1665.36 L988.76 1666.96 L855.11 1668.08 L721.46 1668.94 L587.81 1669.56 L587.81 1670.68 Z" stroke-linecap="round" style="fill:#C2C2FF;stroke:#B3B3FF;stroke-width:3.00"/>
	<path d="M587.81 1670.68 L587.81 1670.68 L721.46 1669.93 L855.11 1668.94 L988.76 1667.83 L1122.41 1666.47 L1256.06 1664.61 L1389.84 1662.39 L1523.49 1659.42 L1657.14 1655.95 L1790.79 1652.98 L1924.44 1650.01 L2058.09 1647.29 L2191.74 1645.06 L2325.39 1643.70 L2459.04 1643.45 L2592.81 1644.81 L2726.46 1648.15 L2860.11 1654.09 L2993.76 1663.25 L3127.41 1676.12 L3261.06 1693.32 L3394.71 1715.35 L3528.36 1743.07 L3528.36 1261.67 L3394.71 1328.13 L3261.06 1386.29 L3127.41 1436.41 L2993.76 1479.48 L2860.11 1515.98 L2726.46 1546.68 L2592.81 1572.17 L2459.04 1593.21 L2325.39 1610.29 L2191.74 1624.02 L2058.09 1634.91 L1924.44 1643.58 L1790.79 1650.26 L1657.14 1655.46 L1523.49 1658.67 L1389.84 1661.27 L1256.06 1663.50 L1122.41 1665.48 L988.76 1666.96 L855.11 1668.20 L721.46 1669.07 L587.81 1669.69 L587.81 1670.68 Z" stroke-linecap="round" style="fill:#ADADFF;stroke:#9999FF;stroke-width:3.00"/>
	<path d="M587.81 1670.55 L587.81 1670.55 L721.46 1669.81 L855.11 1668.94 L988.76 1667.71 L1122.41 1666.35 L1256.06 1664.61 L1389.84 1662.26 L1523.49 1659.29 L1657.14 1655.83 L1790.79 1652.73 L1924.44 1649.39 L2058.09 1646.17 L2191.74 1643.08 L2325.39 1640.48 L2459.04 1638.75 L2592.81 1637.88 L2726.46 1638.62 L2860.11 1641.10 L2993.76 1645.93 L3127.41 1653.60 L3261.06 1664.37 L3394.71 1678.97 L3528.36 1697.90 L3528.36 1306.84 L3394.71 1364.51 L3261.06 1415.13 L3127.41 1458.93 L2993.76 1496.68 L2860.11 1528.98 L2726.46 1556.20 L2592.81 1578.98 L2459.04 1597.91 L2325.39 1613.38 L2191.74 1626.00 L2058.09 1636.15 L1924.44 1644.19 L1790.79 1650.51 L1657.14 1655.46 L1523.49 1658.80 L1389.84 1661.40 L1256.06 1663.62 L1122.41 1665.60 L988.76 1667.09 L855.11 1668.20 L721.46 1669.07 L587.81 1669.81 L587.81 1670.55 Z" stroke-linecap="round" style="fill:#9999FF;stroke:#8080FF;stroke-width:3.00"/>
	<path d="M587.81 1670.43 L587.81 1670.43 L721.46 1669.69 L855.11 1668.82 L988.76 1667.71 L1122.41 1666.22 L1256.06 1664.49 L1389.84 1662.14 L1523.49 1659.29 L1657.14 1655.83 L1790.79 1652.49 L1924.44 1648.90 L2058.09 1645.18 L2191.74 1641.35 L2325.39 1637.88 L2459.04 1634.66 L2592.81 1632.07 L2726.46 1630.46 L2860.11 1629.96 L2993.76 1631.20 L3127.41 1634.29 L3261.06 1639.61 L3394.71 1647.78 L3528.36 1659.04 L3528.36 1345.70 L3394.71 1395.82 L3261.06 1439.88 L3127.41 1478.24 L2993.76 1511.53 L2860.11 1540.12 L2726.46 1564.37 L2592.81 1584.92 L2459.04 1601.99 L2325.39 1616.10 L2191.74 1627.73 L2058.09 1637.14 L1924.44 1644.69 L1790.79 1650.75 L1657.14 1655.46 L1523.49 1658.80 L1389.84 1661.52 L1256.06 1663.75 L1122.41 1665.60 L988.76 1667.09 L855.11 1668.33 L721.46 1669.19 L587.81 1669.81 L587.81 1670.43 Z" stroke-linecap="round" style="fill:#8585FF;stroke:#6666FF;stroke-width:3.00"/>
	<path d="M587.81 1670.43 L587.81 1670.43 L721.46 1669.69 L855.11 1668.82 L988.76 1667.58 L1122.41 1666.22 L1256.06 1664.37 L1389.84 1662.14 L1523.49 1659.17 L1657.14 1655.83 L1790.79 1652.24 L1924.44 1648.40 L2058.09 1644.19 L2191.74 1639.86 L2325.39 1635.41 L2459.04 1630.95 L2592.81 1626.87 L2726.46 1623.03 L2860.11 1620.06 L2993.76 1617.83 L3127.41 1616.84 L3261.06 1617.46 L3394.71 1619.69 L3528.36 1624.15 L3528.36 1380.60 L3394.71 1423.79 L3261.06 1462.03 L3127.41 1495.69 L2993.76 1524.90 L2860.11 1550.14 L2726.46 1571.80 L2592.81 1590.11 L2459.04 1605.58 L2325.39 1618.58 L2191.74 1629.22 L2058.09 1638.01 L1924.44 1645.18 L1790.79 1650.88 L1657.14 1655.58 L1523.49 1658.80 L1389.84 1661.52 L1256.06 1663.87 L1122.41 1665.73 L988.76 1667.21 L855.11 1668.33 L721.46 1669.19 L587.81 1669.93 L587.81 1670.43 Z" stroke-linecap="round" style="fill:#7171FF;stroke:#4D4DFF;stroke-width:3.00"/>
	<path d="M587.81 1670.31 L587.81 1670.31 L721.46 1669.56 L855.11 1668.70 L988.76 1667.58 L1122.41 1666.10 L1256.06 1664.37 L1389.84 1662.01 L1523.49 1659.17 L1657.14 1655.70 L1790.79 1652.11 L1924.44 1648.03 L2058.09 1643.45 L2191.74 1638.50 L2325.39 1633.18 L2459.04 1627.61 L2592.81 1621.92 L2726.46 1616.23 L2860.11 1610.78 L2993.76 1605.58 L3127.41 1600.76 L3261.06 1596.80 L3394.71 1593.83 L3528.36 1591.85 L3528.36 1412.90 L3394.71 1449.78 L3261.06 1482.70 L3127.41 1511.78 L2993.76 1537.15 L2860.11 1559.42 L2726.46 1578.60 L2592.81 1594.94 L2459.04 1608.92 L2325.39 1620.80 L2191.74 1630.58 L2058.09 1638.87 L1924.44 1645.56 L1790.79 1651.12 L1657.14 1655.58 L1523.49 1658.92 L1389.84 1661.64 L1256.06 1663.87 L1122.41 1665.73 L988.76 1667.21 L855.11 1668.45 L721.46 1669.32 L587.81 1669.93 L587.81 1670.31 Z" stroke-linecap="round" style="fill:#5C5CFF;stroke:#3333FF;stroke-width:3.00"/>
	<path d="M587.81 1670.31 L587.81 1670.31 L721.46 1669.56 L855.11 1668.70 L988.76 1667.46 L1122.41 1666.10 L1256.06 1664.24 L1389.84 1662.01 L1523.49 1659.17 L1657.14 1655.70 L1790.79 1651.87 L1924.44 1647.54 L2058.09 1642.59 L2191.74 1637.14 L2325.39 1631.08 L2459.04 1624.39 L2592.81 1617.34 L2726.46 1609.79 L2860.11 1601.99 L2993.76 1593.83 L3127.41 1585.53 L3261.06 1577.24 L3394.71 1569.08 L3528.36 1561.16 L3528.36 1443.47 L3394.71 1474.40 L3261.06 1502.25 L3127.41 1527.00 L2993.76 1548.90 L2860.11 1568.21 L2726.46 1585.04 L2592.81 1599.64 L2459.04 1612.14 L2325.39 1622.91 L2191.74 1631.94 L2058.09 1639.61 L1924.44 1645.93 L1790.79 1651.25 L1657.14 1655.58 L1523.49 1658.92 L1389.84 1661.64 L1256.06 1663.99 L1122.41 1665.85 L988.76 1667.34 L855.11 1668.45 L721.46 1669.32 L587.81 1670.06 L587.81 1670.31 Z" stroke-linecap="round" style="fill:#4747FF;stroke:#1919FF;stroke-width:3.00"/>
	<path d="M587.81 1670.18 L587.81 1670.18 L721.46 1669.56 L855.11 1668.57 L988.76 1667.46 L1122.41 1665.97 L1256.06 1664.12 L1389.84 1661.89 L1523.49 1659.04 L1657.14 1655.70 L1790.79 1651.74 L1924.44 1647.16 L2058.09 1641.84 L2191.74 1635.78 L2325.39 1628.97 L2459.04 1621.30 L2592.81 1612.88 L2726.46 1603.60 L2860.11 1593.45 L2993.76 1582.44 L3127.41 1570.81 L3261.06 1558.31 L3394.71 1545.31 L3528.36 1531.58 L3528.36 1473.17 L3394.71 1498.29 L3261.06 1521.18 L3127.41 1541.73 L2993.76 1560.17 L2860.11 1576.62 L2726.46 1591.23 L2592.81 1604.10 L2459.04 1615.24 L2325.39 1624.89 L2191.74 1633.30 L2058.09 1640.36 L1924.44 1646.42 L1790.79 1651.37 L1657.14 1655.58 L1523.49 1659.04 L1389.84 1661.77 L1256.06 1663.99 L1122.41 1665.85 L988.76 1667.34 L855.11 1668.57 L721.46 1669.44 L587.81 1670.06 L587.81 1670.18 Z" stroke-linecap="round" style="fill:#3333FF;stroke:#0000FF;stroke-width:3.00"/>
	<circle cx="587.69" cy="1670.92" r="22.03" style="fill:#000000;stroke:#000000;stroke-width:8.64"/>
	<circle cx="721.46" cy="1669.93" r="22.03" style="fill:#000000;stroke:#000000;stroke-width:8.64"/>
	<circle cx="855.11" cy="1667.95" r="22.03" style="fill:#000000;stroke:#000000;stroke-width:8.64"/>
	<circle cx="988.76" cy="1666.59" r="22.03" style="fill:#000000;stroke:#000000;stroke-width:8.64"/>
	<circle cx="1122.41" cy="1665.60" r="22.03" style="fill:#000000;stroke:#000000;stroke-width:8.64"/>
	<circle cx="1256.06" cy="1665.60" r="22.03" style="fill:#000000;stroke:#000000;stroke-width:8.64"/>
	<circle cx="1389.71" cy="1661.64" r="22.03" style="fill:#000000;stroke:#000000;stroke-width:8.64"/>
	<circle cx="1523.36" cy="1659.04" r="22.03" style="fill:#000000;stroke:#000000;stroke-width:8.64"/>
	<circle cx="1657.01" cy="1655.58" r="22.03" style="fill:#000000;stroke:#000000;stroke-width:8.64"/>
	<line x1="390.80" y1="2489.19" x2="390.80" y2="100.86" style="stroke:#000000;stroke-width:5.76"/>
	<line x1="390.80" y1="2425.82" x2="350.83" y2="2425.82" style="stroke:#000000;stroke-width:5.76"/>
	<text x="300.72" y="2425.82" style="font-family:'Helvetica';font-size:99.99px;fill:#000000" transform="rotate(-90 300.72,2425.82)" text-anchor="middle">-50</text>
	<line x1="390.80" y1="1671.91" x2="350.83" y2="1671.91" style="stroke:#000000;stroke-width:5.76"/>
	<text x="300.72" y="1671.91" style="font-family:'Helvetica';font-size:99.99px;fill:#000000" transform="rotate(-90 300.72,1671.91)" text-anchor="middle">0</text>
	<line x1="390.80" y1="918.01" x2="350.83" y2="918.01" style="stroke:#000000;stroke-width:5.76"/>
	<text x="300.72" y="918.01" style="font-family:'Helvetica';font-size:99.99px;fill:#000000" transform="rotate(-90 300.72,918.01)" text-anchor="middle">50</text>
	<line x1="390.80" y1="164.22" x2="350.83" y2="164.22" style="stroke:#000000;stroke-width:5.76"/>
	<text x="300.72" y="164.22" style="font-family:'Helvetica';font-size:99.99px;fill:#000000" transform="rotate(-90 300.72,164.22)" text-anchor="middle">100</text>
	<text x="190.71" y="1294.96" style="font-family:'Helvetica';font-size:99.99px;fill:#000000" transform="rotate(-90 190.71,1294.96)" text-anchor="middle">Confirmed cases per 100 beds</text>
	<line x1="390.80" y1="2489.19" x2="3859.02" y2="2489.19" style="stroke:#000000;stroke-width:5.76"/>
	<line x1="454.16" y1="2489.19" x2="454.16" y2="2529.16" style="stroke:#000000;stroke-width:5.76"/>
	<text x="454.16" y="2619.14" style="font-family:'Helvetica';font-size:99.99px;fill:#000000" text-anchor="middle">0</text>
	<line x1="3795.66" y1="2489.19" x2="3795.66" y2="2529.16" style="stroke:#000000;stroke-width:5.76"/>
	<text x="3795.66" y="2619.14" style="font-family:'Helvetica';font-size:99.99px;fill:#000000" text-anchor="middle">25</text>
	<line x1="587.81" y1="2489.19" x2="587.81" y2="2529.16" style="stroke:#000000;stroke-width:5.76"/>
	<text x="587.81" y="2619.14" style="font-family:'Helvetica';font-size:99.99px;fill:#000000" text-anchor="middle">1</text>
	<line x1="721.46" y1="2489.19" x2="721.46" y2="2529.16" style="stroke:#000000;stroke-width:5.76"/>
	<text x="721.46" y="2619.14" style="font-family:'Helvetica';font-size:99.99px;fill:#000000" text-anchor="middle">2</text>
	<line x1="855.11" y1="2489.19" x2="855.11" y2="2529.16" style="stroke:#000000;stroke-width:5.76"/>
	<text x="855.11" y="2619.14" style="font-family:'Helvetica';font-size:99.99px;fill:#000000" text-anchor="middle">3</text>
	<line x1="988.76" y1="2489.19" x2="988.76" y2="2529.16" style="stroke:#000000;stroke-width:5.76"/>
	<text x="988.76" y="2619.14" style="font-family:'Helvetica';font-size:99.99px;fill:#000000" text-anchor="middle">4</text>
	<line x1="1122.41" y1="2489.19" x2="1122.41" y2="2529.16" style="stroke:#000000;stroke-width:5.76"/>
	<text x="1122.41" y="2619.14" style="font-family:'Helvetica';font-size:99.99px;fill:#000000" text-anchor="middle">5</text>
	<line x1="1256.06" y1="2489.19" x2="1256.06" y2="2529.16" style="stroke:#000000;stroke-width:5.76"/>
	<text x="1256.06" y="2619.14" style="font-family:'Helvetica';font-size:99.99px;fill:#000000" text-anchor="middle">6</text>
	<line x1="1389.84" y1="2489.19" x2="1389.84" y2="2529.16" style="stroke:#000000;stroke-width:5.76"/>
	<text x="1389.84" y="2619.14" style="font-family:'Helvetica';font-size:99.99px;fill:#000000" text-anchor="middle">7</text>
	<line x1="1523.49" y1="2489.19" x2="1523.49" y2="2529.16" style="stroke:#000000;stroke-width:5.76"/>
	<text x="1523.49" y="2619.14" style="font-family:'Helvetica';font-size:99.99px;fill:#000000" text-anchor="middle">8</text>
	<line x1="1657.14" y1="2489.19" x2="1657.14" y2="2529.16" style="stroke:#000000;stroke-width:5.76"/>
	<text x="1657.14" y="2619.14" style="font-family:'Helvetica';font-size:99.99px;fill:#000000" text-anchor="middle">9</text>
	<line x1="1790.79" y1="2489.19" x2="1790.79" y2="2529.16" style="stroke:#000000;stroke-width:5.76"/>
	<text x="1790.79" y="2619.14" style="font-family:'Helvetica';font-size:99.99px;fill:#000000" text-anchor="middle">10</text>
	<line x1="1924.44" y1="2489.19" x2="1924.44" y2="2529.16" style="stroke:#000000;stroke-width:5.76"/>
	<text x="1924.44" y="2619.14" style="font-family:'Helvetica';font-size:99.99px;fill:#000000" text-anchor="middle">11</text>
	<line x1="2058.09" y1="2489.19" x2="2058.09" y2="2529.16" style="stroke:#000000;stroke-width:5.76"/>
	<text x="2058.09" y="2619.14" style="font-family:'Helvetica';font-size:99.99px;fill:#000000" text-anchor="middle">12</text>
	<line x1="2191.74" y1="2489.19" x2="2191.74" y2="2529.16" style="stroke:#000000;stroke-width:5.76"/>
	<text x="2191.74" y="2619.14" style="font-family:'Helvetica';font-size:99.99px;fill:#000000" text-anchor="middle">13</text>
	<line x1="2325.39" y1="2489.19" x2="2325.39" y2="2529.16" style="stroke:#000000;stroke-width:5.76"/>
	<text x="2325.39" y="2619.14" style="font-family:'Helvetica';font-size:99.99px;fill:#000000" text-anchor="middle">14</text>
	<line x1="2459.04" y1="2489.19" x2="2459.04" y2="2529.16" style="stroke:#000000;stroke-width:5.76"/>
	<text x="2459.04" y="2619.14" style="font-family:'Helvetica';font-size:99.99px;fill:#000000" text-anchor="middle">15</text>
	<line x1="2592.81" y1="2489.19" x2="2592.81" y2="2529.16" style="stroke:#000000;stroke-width:5.76"/>
	<text x="2592.81" y="2619.14" style="font-family:'Helvetica';font-size:99.99px;fill:#000000" text-anchor="middle">16</text>
	<line x1="2726.46" y1="2489.19" x2="2726.46" y2="2529.16" style="stroke:#000000;stroke-width:5.76"/>
	<text x="2726.46" y="2619.14" style="font-family:'Helvetica';font-size:99.99px;fill:#000000" text-anchor="middle">17</text>
	<line x1="2860.11" y1="2489.19" x2="2860.11" y2="2529.16" style="stroke:#000000;stroke-width:5.76"/>
	<text x="2860.11" y="2619.14" style="font-family:'Helvetica';font-size:99.99px;fill:#000000" text-anchor="middle">18</text>
	<line x1="2993.76" y1="2489.19" x2="2993.76" y2="2529.16" style="stroke:#000000;stroke-width:5.76"/>
	<text x="2993.76" y="2619.14" style="font-family:'Helvetica';font-size:99.99px;fill:#000000" text-anchor="middle">19</text>
	<line x1="3127.41" y1="2489.19" x2="3127.41" y2="2529.16" style="stroke:#000000;stroke-width:5.76"/>
	<text x="3127.41" y="2619.14" style="font-family:'Helvetica';font-size:99.99px;fill:#000000" text-anchor="middle">20</text>
	<line x1="3261.06" y1="2489.19" x2="3261.06" y2="2529.16" style="stroke:#000000;stroke-width:5.76"/>
	<text x="3261.06" y="2619.14" style="font-family:'Helvetica';font-size:99.99px;fill:#000000" text-anchor="middle">21</text>
	<line x1="3394.71" y1="2489.19" x2="3394.71" y2="2529.16" style="stroke:#000000;stroke-width:5.76"/>
	<text x="3394.71" y="2619.14" style="font-family:'Helvetica';font-size:99.99px;fill:#000000" text-anchor="middle">22</text>
	<line x1="3528.36" y1="2489.19" x2="3528.36" y2="2529.16" style="stroke:#000000;stroke-width:5.76"/>
	<text x="3528.36" y="2619.14" style="font-family:'Helvetica';font-size:99.99px;fill:#000000" text-anchor="middle">23</text>
	<text x="2124.91" y="2729.16" style="font-family:'Helvetica';font-size:99.99px;fill:#000000" text-anchor="middle">Days since 0.01 confirmed cases per 100 beds</text>
</svg>
