<?xml version="1.0" encoding="UTF-8" standalone="no"?>
<!-- This is a Stata 14.2 generated SVG file (http://www.stata.com) -->

<svg version="1.1" width="5.50in" height="4.00in" viewBox="0 0 3960 2880" xmlns="http://www.w3.org/2000/svg">
	<desc>Stata Graph - Graph</desc>
	<line x1="390.80" y1="1622.91" x2="3859.02" y2="1622.91" style="stroke:#FF0000;stroke-width:8.64"/>
	<path d="M582.62 1890.59 L582.62 1890.59 L711.19 1890.59 L839.77 1890.59 L968.22 1890.59 L1096.80 1890.34 L1225.25 1890.09 L1353.83 1889.60 L1482.28 1888.73 L1610.85 1887.62 L1739.31 1886.13 L1867.88 1884.40 L1996.46 1882.67 L2124.91 1881.06 L2253.49 1879.82 L2381.94 1879.08 L2510.52 1879.20 L2638.97 1880.94 L2767.55 1885.02 L2896.12 1892.69 L3024.57 1905.44 L3153.15 1925.36 L3281.60 1955.31 L3410.18 1998.62 L3538.63 2059.64 L3667.21 2144.16 L3795.66 2259.00 L3795.66 164.22 L3667.21 577.06 L3538.63 898.70 L3410.18 1147.45 L3281.60 1338.27 L3153.15 1483.69 L3024.57 1593.45 L2896.12 1675.63 L2767.55 1736.64 L2638.97 1781.44 L2510.52 1813.98 L2381.94 1837.50 L2253.49 1854.08 L2124.91 1865.84 L1996.46 1873.76 L1867.88 1879.08 L1739.31 1882.54 L1610.85 1884.65 L1482.28 1886.13 L1353.83 1887.25 L1225.25 1887.99 L1096.80 1888.73 L968.22 1889.23 L839.77 1889.60 L711.19 1889.85 L582.62 1889.97 L582.62 1890.59 Z" stroke-linecap="round" style="fill:#EBEBFF;stroke:#E6E6FF;stroke-width:3.00"/>
	<path d="M582.62 1890.46 L582.62 1890.46 L711.19 1890.46 L839.77 1890.34 L968.22 1890.09 L1096.80 1889.85 L1225.25 1889.47 L1353.83 1888.86 L1482.28 1887.99 L1610.85 1886.75 L1739.31 1885.02 L1867.88 1882.92 L1996.46 1880.07 L2124.91 1876.73 L2253.49 1872.40 L2381.94 1867.07 L2510.52 1860.39 L2638.97 1852.22 L2767.55 1842.20 L2896.12 1829.95 L3024.57 1815.35 L3153.15 1797.90 L3281.60 1777.23 L3410.18 1752.97 L3538.63 1724.63 L3667.21 1691.96 L3795.66 1654.47 L3795.66 768.76 L3667.21 1029.38 L3538.63 1233.70 L3410.18 1393.10 L3281.60 1516.36 L3153.15 1611.15 L3024.57 1683.42 L2896.12 1738.25 L2767.55 1779.46 L2638.97 1810.15 L2510.52 1832.79 L2381.94 1849.50 L2253.49 1861.51 L2124.91 1870.17 L1996.46 1876.36 L1867.88 1880.69 L1739.31 1883.53 L1610.85 1885.51 L1482.28 1886.88 L1353.83 1887.87 L1225.25 1888.61 L1096.80 1889.23 L968.22 1889.60 L839.77 1889.85 L711.19 1890.09 L582.62 1890.22 L582.62 1890.46 Z" stroke-linecap="round" style="fill:#D6D6FF;stroke:#CCCCFF;stroke-width:3.00"/>
	<path d="M582.62 1890.46 L582.62 1890.46 L711.19 1890.34 L839.77 1890.22 L968.22 1890.09 L1096.80 1889.85 L1225.25 1889.35 L1353.83 1888.86 L1482.28 1887.87 L1610.85 1886.63 L1739.31 1884.90 L1867.88 1882.67 L1996.46 1879.70 L2124.91 1875.98 L2253.49 1871.16 L2381.94 1865.09 L2510.52 1857.30 L2638.97 1847.52 L2767.55 1835.27 L2896.12 1819.92 L3024.57 1800.87 L3153.15 1777.23 L3281.60 1748.39 L3410.18 1713.12 L3538.63 1670.43 L3667.21 1618.70 L3795.66 1556.58 L3795.66 866.52 L3667.21 1102.52 L3538.63 1287.91 L3410.18 1432.82 L3281.60 1545.19 L3153.15 1631.82 L3024.57 1698.03 L2896.12 1748.39 L2767.55 1786.39 L2638.97 1814.73 L2510.52 1835.89 L2381.94 1851.36 L2253.49 1862.74 L2124.91 1870.91 L1996.46 1876.73 L1867.88 1880.94 L1739.31 1883.66 L1610.85 1885.64 L1482.28 1887.00 L1353.83 1887.99 L1225.25 1888.73 L1096.80 1889.23 L968.22 1889.60 L839.77 1889.85 L711.19 1890.09 L582.62 1890.22 L582.62 1890.46 Z" stroke-linecap="round" style="fill:#C2C2FF;stroke:#B3B3FF;stroke-width:3.00"/>
	<path d="M582.62 1890.46 L582.62 1890.46 L711.19 1890.34 L839.77 1890.22 L968.22 1890.09 L1096.80 1889.72 L1225.25 1889.35 L1353.83 1888.73 L1482.28 1887.87 L1610.85 1886.50 L1739.31 1884.77 L1867.88 1882.42 L1996.46 1879.45 L2124.91 1875.49 L2253.49 1870.42 L2381.94 1863.73 L2510.52 1855.32 L2638.97 1844.43 L2767.55 1830.57 L2896.12 1812.99 L3024.57 1790.97 L3153.15 1763.37 L3281.60 1728.97 L3410.18 1686.39 L3538.63 1633.80 L3667.21 1569.32 L3795.66 1490.62 L3795.66 932.61 L3667.21 1151.90 L3538.63 1324.54 L3410.18 1459.68 L3281.60 1564.62 L3153.15 1645.68 L3024.57 1707.93 L2896.12 1755.20 L2767.55 1791.09 L2638.97 1817.94 L2510.52 1837.87 L2381.94 1852.72 L2253.49 1863.49 L2124.91 1871.41 L1996.46 1877.10 L1867.88 1881.06 L1739.31 1883.78 L1610.85 1885.76 L1482.28 1887.12 L1353.83 1888.11 L1225.25 1888.86 L1096.80 1889.35 L968.22 1889.72 L839.77 1889.97 L711.19 1890.09 L582.62 1890.22 L582.62 1890.46 Z" stroke-linecap="round" style="fill:#ADADFF;stroke:#9999FF;stroke-width:3.00"/>
	<path d="M582.62 1890.34 L582.62 1890.34 L711.19 1890.34 L839.77 1890.22 L968.22 1889.97 L1096.80 1889.72 L1225.25 1889.35 L1353.83 1888.61 L1482.28 1887.74 L1610.85 1886.50 L1739.31 1884.65 L1867.88 1882.30 L1996.46 1879.20 L2124.91 1875.12 L2253.49 1869.80 L2381.94 1862.74 L2510.52 1853.71 L2638.97 1841.95 L2767.55 1826.85 L2896.12 1807.55 L3024.57 1783.17 L3153.15 1752.35 L3281.60 1713.50 L3410.18 1665.11 L3538.63 1604.72 L3667.21 1530.09 L3795.66 1438.14 L3795.66 984.96 L3667.21 1191.13 L3538.63 1353.62 L3410.18 1480.96 L3281.60 1580.09 L3153.15 1656.69 L3024.57 1715.72 L2896.12 1760.65 L2767.55 1794.80 L2638.97 1820.42 L2510.52 1839.60 L2381.94 1853.71 L2253.49 1864.23 L2124.91 1871.78 L1996.46 1877.22 L1867.88 1881.18 L1739.31 1883.91 L1610.85 1885.76 L1482.28 1887.12 L1353.83 1888.11 L1225.25 1888.86 L1096.80 1889.35 L968.22 1889.72 L839.77 1889.97 L711.19 1890.09 L582.62 1890.22 L582.62 1890.34 Z" stroke-linecap="round" style="fill:#9999FF;stroke:#8080FF;stroke-width:3.00"/>
	<path d="M582.62 1890.34 L582.62 1890.34 L711.19 1890.34 L839.77 1890.22 L968.22 1889.97 L1096.80 1889.72 L1225.25 1889.23 L1353.83 1888.61 L1482.28 1887.74 L1610.85 1886.38 L1739.31 1884.65 L1867.88 1882.17 L1996.46 1878.95 L2124.91 1874.75 L2253.49 1869.18 L2381.94 1861.88 L2510.52 1852.22 L2638.97 1839.72 L2767.55 1823.64 L2896.12 1802.97 L3024.57 1776.49 L3153.15 1742.83 L3281.60 1700.25 L3410.18 1646.79 L3538.63 1579.84 L3667.21 1496.43 L3795.66 1393.22 L3795.66 1030.00 L3667.21 1224.79 L3538.63 1378.49 L3410.18 1499.15 L3281.60 1593.33 L3153.15 1666.22 L3024.57 1722.41 L2896.12 1765.35 L2767.55 1797.90 L2638.97 1822.52 L2510.52 1840.96 L2381.94 1854.70 L2253.49 1864.72 L2124.91 1872.15 L1996.46 1877.47 L1867.88 1881.31 L1739.31 1884.03 L1610.85 1885.89 L1482.28 1887.25 L1353.83 1888.24 L1225.25 1888.86 L1096.80 1889.35 L968.22 1889.72 L839.77 1889.97 L711.19 1890.22 L582.62 1890.34 L582.62 1890.34 Z" stroke-linecap="round" style="fill:#8585FF;stroke:#6666FF;stroke-width:3.00"/>
	<path d="M582.62 1890.34 L582.62 1890.34 L711.19 1890.34 L839.77 1890.09 L968.22 1889.97 L1096.80 1889.60 L1225.25 1889.23 L1353.83 1888.61 L1482.28 1887.62 L1610.85 1886.38 L1739.31 1884.52 L1867.88 1882.05 L1996.46 1878.83 L2124.91 1874.50 L2253.49 1868.68 L2381.94 1861.01 L2510.52 1850.99 L2638.97 1837.87 L2767.55 1820.79 L2896.12 1798.76 L3024.57 1770.42 L3153.15 1734.29 L3281.60 1688.37 L3410.18 1630.33 L3538.63 1557.44 L3667.21 1466.24 L3795.66 1352.75 L3795.66 1070.47 L3667.21 1254.99 L3538.63 1400.89 L3410.18 1515.61 L3281.60 1605.21 L3153.15 1674.76 L3024.57 1728.35 L2896.12 1769.56 L2767.55 1800.74 L2638.97 1824.50 L2510.52 1842.20 L2381.94 1855.44 L2253.49 1865.22 L2124.91 1872.40 L1996.46 1877.59 L1867.88 1881.43 L1739.31 1884.03 L1610.85 1885.89 L1482.28 1887.25 L1353.83 1888.24 L1225.25 1888.98 L1096.80 1889.47 L968.22 1889.72 L839.77 1889.97 L711.19 1890.22 L582.62 1890.34 L582.62 1890.34 Z" stroke-linecap="round" style="fill:#7171FF;stroke:#4D4DFF;stroke-width:3.00"/>
	<path d="M582.62 1890.34 L582.62 1890.34 L711.19 1890.22 L839.77 1890.09 L968.22 1889.97 L1096.80 1889.60 L1225.25 1889.23 L1353.83 1888.48 L1482.28 1887.62 L1610.85 1886.26 L1739.31 1884.52 L1867.88 1882.05 L1996.46 1878.71 L2124.91 1874.25 L2253.49 1868.19 L2381.94 1860.27 L2510.52 1849.87 L2638.97 1836.14 L2767.55 1818.19 L2896.12 1794.93 L3024.57 1764.85 L3153.15 1726.37 L3281.60 1677.36 L3410.18 1615.11 L3538.63 1536.65 L3667.21 1438.27 L3795.66 1315.38 L3795.66 1107.84 L3667.21 1283.08 L3538.63 1421.68 L3410.18 1530.84 L3281.60 1616.23 L3153.15 1682.68 L3024.57 1733.92 L2896.12 1773.39 L2767.55 1803.47 L2638.97 1826.24 L2510.52 1843.44 L2381.94 1856.18 L2253.49 1865.71 L2124.91 1872.64 L1996.46 1877.84 L1867.88 1881.43 L1739.31 1884.15 L1610.85 1886.01 L1482.28 1887.37 L1353.83 1888.24 L1225.25 1888.98 L1096.80 1889.47 L968.22 1889.85 L839.77 1889.97 L711.19 1890.22 L582.62 1890.34 L582.62 1890.34 Z" stroke-linecap="round" style="fill:#5C5CFF;stroke:#3333FF;stroke-width:3.00"/>
	<path d="M582.62 1890.34 L582.62 1890.34 L711.19 1890.22 L839.77 1890.09 L968.22 1889.85 L1096.80 1889.60 L1225.25 1889.10 L1353.83 1888.48 L1482.28 1887.49 L1610.85 1886.26 L1739.31 1884.40 L1867.88 1881.93 L1996.46 1878.58 L2124.91 1874.00 L2253.49 1867.82 L2381.94 1859.65 L2510.52 1848.76 L2638.97 1834.40 L2767.55 1815.59 L2896.12 1791.21 L3024.57 1759.53 L3153.15 1718.94 L3281.60 1666.84 L3410.18 1600.76 L3538.63 1516.97 L3667.21 1411.66 L3795.66 1279.86 L3795.66 1143.36 L3667.21 1309.56 L3538.63 1441.36 L3410.18 1545.31 L3281.60 1626.74 L3153.15 1690.11 L3024.57 1739.24 L2896.12 1777.11 L2767.55 1805.94 L2638.97 1827.97 L2510.52 1844.43 L2381.94 1856.93 L2253.49 1866.08 L2124.91 1872.89 L1996.46 1877.96 L1867.88 1881.55 L1739.31 1884.15 L1610.85 1886.01 L1482.28 1887.37 L1353.83 1888.36 L1225.25 1888.98 L1096.80 1889.47 L968.22 1889.85 L839.77 1890.09 L711.19 1890.22 L582.62 1890.34 L582.62 1890.34 Z" stroke-linecap="round" style="fill:#4747FF;stroke:#1919FF;stroke-width:3.00"/>
	<path d="M582.62 1890.34 L582.62 1890.34 L711.19 1890.22 L839.77 1890.09 L968.22 1889.85 L1096.80 1889.60 L1225.25 1889.10 L1353.83 1888.48 L1482.28 1887.49 L1610.85 1886.13 L1739.31 1884.40 L1867.88 1881.80 L1996.46 1878.34 L2124.91 1873.63 L2253.49 1867.32 L2381.94 1858.91 L2510.52 1847.65 L2638.97 1832.79 L2767.55 1813.24 L2896.12 1787.62 L3024.57 1754.46 L3153.15 1711.64 L3281.60 1656.82 L3410.18 1586.77 L3538.63 1497.92 L3667.21 1385.92 L3795.66 1245.46 L3795.66 1177.77 L3667.21 1335.30 L3538.63 1460.42 L3410.18 1559.30 L3281.60 1636.77 L3153.15 1697.41 L3024.57 1744.43 L2896.12 1780.57 L2767.55 1808.42 L2638.97 1829.58 L2510.52 1845.54 L2381.94 1857.55 L2253.49 1866.58 L2124.91 1873.14 L1996.46 1878.09 L1867.88 1881.68 L1739.31 1884.28 L1610.85 1886.13 L1482.28 1887.37 L1353.83 1888.36 L1225.25 1888.98 L1096.80 1889.47 L968.22 1889.85 L839.77 1890.09 L711.19 1890.22 L582.62 1890.34 L582.62 1890.34 Z" stroke-linecap="round" style="fill:#3333FF;stroke:#0000FF;stroke-width:3.00"/>
	<circle cx="582.62" cy="1890.34" r="22.03" style="fill:#000000;stroke:#000000;stroke-width:8.64"/>
	<circle cx="711.07" cy="1890.22" r="22.03" style="fill:#000000;stroke:#000000;stroke-width:8.64"/>
	<circle cx="839.64" cy="1889.85" r="22.03" style="fill:#000000;stroke:#000000;stroke-width:8.64"/>
	<circle cx="968.22" cy="1889.72" r="22.03" style="fill:#000000;stroke:#000000;stroke-width:8.64"/>
	<circle cx="1096.67" cy="1889.47" r="22.03" style="fill:#000000;stroke:#000000;stroke-width:8.64"/>
	<circle cx="1225.25" cy="1888.98" r="22.03" style="fill:#000000;stroke:#000000;stroke-width:8.64"/>
	<circle cx="1353.70" cy="1887.62" r="22.03" style="fill:#000000;stroke:#000000;stroke-width:8.64"/>
	<circle cx="1482.28" cy="1887.25" r="22.03" style="fill:#000000;stroke:#000000;stroke-width:8.64"/>
	<circle cx="1610.73" cy="1885.64" r="22.03" style="fill:#000000;stroke:#000000;stroke-width:8.64"/>
	<circle cx="1739.31" cy="1885.51" r="22.03" style="fill:#000000;stroke:#000000;stroke-width:8.64"/>
	<circle cx="1867.88" cy="1883.29" r="22.03" style="fill:#000000;stroke:#000000;stroke-width:8.64"/>
	<circle cx="1996.34" cy="1877.10" r="22.03" style="fill:#000000;stroke:#000000;stroke-width:8.64"/>
	<line x1="390.80" y1="2489.19" x2="390.80" y2="100.86" style="stroke:#000000;stroke-width:5.76"/>
	<line x1="390.80" y1="2425.82" x2="350.83" y2="2425.82" style="stroke:#000000;stroke-width:5.76"/>
	<text x="300.72" y="2425.82" style="font-family:'Helvetica';font-size:99.99px;fill:#000000" transform="rotate(-90 300.72,2425.82)" text-anchor="middle">-20</text>
	<line x1="390.80" y1="1890.59" x2="350.83" y2="1890.59" style="stroke:#000000;stroke-width:5.76"/>
	<text x="300.72" y="1890.59" style="font-family:'Helvetica';font-size:99.99px;fill:#000000" transform="rotate(-90 300.72,1890.59)" text-anchor="middle">0</text>
	<line x1="390.80" y1="1355.23" x2="350.83" y2="1355.23" style="stroke:#000000;stroke-width:5.76"/>
	<text x="300.72" y="1355.23" style="font-family:'Helvetica';font-size:99.99px;fill:#000000" transform="rotate(-90 300.72,1355.23)" text-anchor="middle">20</text>
	<line x1="390.80" y1="819.87" x2="350.83" y2="819.87" style="stroke:#000000;stroke-width:5.76"/>
	<text x="300.72" y="819.87" style="font-family:'Helvetica';font-size:99.99px;fill:#000000" transform="rotate(-90 300.72,819.87)" text-anchor="middle">40</text>
	<line x1="390.80" y1="284.63" x2="350.83" y2="284.63" style="stroke:#000000;stroke-width:5.76"/>
	<text x="300.72" y="284.63" style="font-family:'Helvetica';font-size:99.99px;fill:#000000" transform="rotate(-90 300.72,284.63)" text-anchor="middle">60</text>
	<text x="190.71" y="1294.96" style="font-family:'Helvetica';font-size:99.99px;fill:#000000" transform="rotate(-90 190.71,1294.96)" text-anchor="middle">Confirmed cases per 100 beds</text>
	<line x1="390.80" y1="2489.19" x2="3859.02" y2="2489.19" style="stroke:#000000;stroke-width:5.76"/>
	<line x1="454.16" y1="2489.19" x2="454.16" y2="2529.16" style="stroke:#000000;stroke-width:5.76"/>
	<text x="454.16" y="2619.14" style="font-family:'Helvetica';font-size:99.99px;fill:#000000" text-anchor="middle">0</text>
	<line x1="1096.80" y1="2489.19" x2="1096.80" y2="2529.16" style="stroke:#000000;stroke-width:5.76"/>
	<text x="1096.80" y="2619.14" style="font-family:'Helvetica';font-size:99.99px;fill:#000000" text-anchor="middle">5</text>
	<line x1="1739.31" y1="2489.19" x2="1739.31" y2="2529.16" style="stroke:#000000;stroke-width:5.76"/>
	<text x="1739.31" y="2619.14" style="font-family:'Helvetica';font-size:99.99px;fill:#000000" text-anchor="middle">10</text>
	<line x1="2381.94" y1="2489.19" x2="2381.94" y2="2529.16" style="stroke:#000000;stroke-width:5.76"/>
	<text x="2381.94" y="2619.14" style="font-family:'Helvetica';font-size:99.99px;fill:#000000" text-anchor="middle">15</text>
	<line x1="3024.57" y1="2489.19" x2="3024.57" y2="2529.16" style="stroke:#000000;stroke-width:5.76"/>
	<text x="3024.57" y="2619.14" style="font-family:'Helvetica';font-size:99.99px;fill:#000000" text-anchor="middle">20</text>
	<line x1="3667.21" y1="2489.19" x2="3667.21" y2="2529.16" style="stroke:#000000;stroke-width:5.76"/>
	<text x="3667.21" y="2619.14" style="font-family:'Helvetica';font-size:99.99px;fill:#000000" text-anchor="middle">25</text>
	<text x="2124.91" y="2729.16" style="font-family:'Helvetica';font-size:99.99px;fill:#000000" text-anchor="middle">Days since 0.01 confirmed cases per 100 beds</text>
</svg>
