<?xml version="1.0" encoding="UTF-8" standalone="no"?>
<!-- This is a Stata 14.2 generated SVG file (http://www.stata.com) -->

<svg version="1.1" width="5.50in" height="4.00in" viewBox="0 0 3960 2880" xmlns="http://www.w3.org/2000/svg">
	<desc>Stata Graph - Graph</desc>
	<line x1="390.80" y1="2209.25" x2="3859.02" y2="2209.25" style="stroke:#FF0000;stroke-width:8.64"/>
	<path d="M565.54 2425.70 L565.54 2425.70 L676.91 2425.70 L788.29 2425.58 L899.66 2425.45 L1011.04 2425.20 L1122.41 2424.96 L1233.79 2424.46 L1345.29 2423.72 L1456.66 2422.73 L1568.04 2421.12 L1679.41 2419.02 L1790.79 2416.05 L1902.16 2411.84 L2013.54 2406.02 L2124.91 2398.47 L2236.29 2388.45 L2347.66 2375.33 L2459.04 2358.13 L2570.53 2335.85 L2681.91 2306.90 L2793.28 2269.52 L2904.66 2221.51 L3016.03 2160.37 L3127.41 2082.65 L3238.78 1984.52 L3350.16 1861.13 L3461.53 1706.81 L3572.91 1514.62 L3684.28 1276.64 L3795.66 982.98 L3795.66 164.22 L3684.28 660.23 L3572.91 1055.00 L3461.53 1367.36 L3350.16 1613.26 L3238.78 1805.69 L3127.41 1955.43 L3016.03 2071.14 L2904.66 2160.00 L2793.28 2227.94 L2681.91 2279.42 L2570.53 2318.28 L2459.04 2347.24 L2347.66 2368.77 L2236.29 2384.61 L2124.91 2396.25 L2013.54 2404.54 L1902.16 2410.48 L1790.79 2414.69 L1679.41 2417.90 L1568.04 2420.13 L1456.66 2421.74 L1345.29 2422.98 L1233.79 2423.84 L1122.41 2424.46 L1011.04 2424.83 L899.66 2425.20 L788.29 2425.45 L676.91 2425.58 L565.54 2425.70 L565.54 2425.70 Z" stroke-linecap="round" style="fill:#EBEBFF;stroke:#E6E6FF;stroke-width:3.00"/>
	<path d="M565.54 2425.70 L565.54 2425.70 L676.91 2425.70 L788.29 2425.58 L899.66 2425.33 L1011.04 2425.08 L1122.41 2424.83 L1233.79 2424.21 L1345.29 2423.47 L1456.66 2422.48 L1568.04 2420.87 L1679.41 2418.65 L1790.79 2415.68 L1902.16 2411.47 L2013.54 2405.65 L2124.91 2397.85 L2236.29 2387.34 L2347.66 2373.48 L2459.04 2355.04 L2570.53 2330.78 L2681.91 2298.98 L2793.28 2257.52 L2904.66 2203.81 L3016.03 2134.63 L3127.41 2045.90 L3238.78 1932.91 L3350.16 1789.60 L3461.53 1608.80 L3572.91 1381.96 L3684.28 1098.69 L3795.66 746.61 L3795.66 400.47 L3684.28 838.06 L3572.91 1187.67 L3461.53 1465.37 L3350.16 1684.79 L3238.78 1857.30 L3127.41 1992.07 L3016.03 2096.89 L2904.66 2177.82 L2793.28 2239.94 L2681.91 2287.34 L2570.53 2323.36 L2459.04 2350.46 L2347.66 2370.63 L2236.29 2385.73 L2124.91 2396.86 L2013.54 2404.91 L1902.16 2410.85 L1790.79 2415.06 L1679.41 2418.15 L1568.04 2420.50 L1456.66 2422.11 L1345.29 2423.22 L1233.79 2423.97 L1122.41 2424.59 L1011.04 2424.96 L899.66 2425.33 L788.29 2425.45 L676.91 2425.58 L565.54 2425.70 L565.54 2425.70 Z" stroke-linecap="round" style="fill:#D6D6FF;stroke:#CCCCFF;stroke-width:3.00"/>
	<path d="M565.54 2425.70 L565.54 2425.70 L676.91 2425.70 L788.29 2425.58 L899.66 2425.33 L1011.04 2425.08 L1122.41 2424.71 L1233.79 2424.21 L1345.29 2423.47 L1456.66 2422.36 L1568.04 2420.87 L1679.41 2418.65 L1790.79 2415.55 L1902.16 2411.34 L2013.54 2405.53 L2124.91 2397.73 L2236.29 2387.21 L2347.66 2373.10 L2459.04 2354.54 L2570.53 2329.91 L2681.91 2297.61 L2793.28 2255.54 L2904.66 2200.96 L3016.03 2130.42 L3127.41 2039.96 L3238.78 1924.50 L3350.16 1777.97 L3461.53 1592.96 L3572.91 1360.55 L3684.28 1069.85 L3795.66 708.37 L3795.66 438.71 L3684.28 866.90 L3572.91 1209.08 L3461.53 1481.21 L3350.16 1696.42 L3238.78 1865.71 L3127.41 1998.01 L3016.03 2100.97 L2904.66 2180.67 L2793.28 2241.80 L2681.91 2288.58 L2570.53 2324.10 L2459.04 2350.95 L2347.66 2371.00 L2236.29 2385.97 L2124.91 2396.99 L2013.54 2405.03 L1902.16 2410.85 L1790.79 2415.18 L1679.41 2418.27 L1568.04 2420.50 L1456.66 2422.11 L1345.29 2423.22 L1233.79 2424.09 L1122.41 2424.59 L1011.04 2424.96 L899.66 2425.33 L788.29 2425.45 L676.91 2425.58 L565.54 2425.70 L565.54 2425.70 Z" stroke-linecap="round" style="fill:#C2C2FF;stroke:#B3B3FF;stroke-width:3.00"/>
	<path d="M565.54 2425.70 L565.54 2425.70 L676.91 2425.58 L788.29 2425.58 L899.66 2425.33 L1011.04 2425.08 L1122.41 2424.71 L1233.79 2424.21 L1345.29 2423.47 L1456.66 2422.36 L1568.04 2420.75 L1679.41 2418.65 L1790.79 2415.55 L1902.16 2411.34 L2013.54 2405.53 L2124.91 2397.61 L2236.29 2387.09 L2347.66 2372.98 L2459.04 2354.17 L2570.53 2329.42 L2681.91 2296.75 L2793.28 2254.18 L2904.66 2198.98 L3016.03 2127.58 L3127.41 2036.00 L3238.78 1918.93 L3350.16 1770.18 L3461.53 1582.32 L3572.91 1346.07 L3684.28 1050.55 L3795.66 682.63 L3795.66 464.45 L3684.28 886.33 L3572.91 1223.55 L3461.53 1491.85 L3350.16 1704.21 L3238.78 1871.28 L3127.41 2002.09 L3016.03 2103.82 L2904.66 2182.65 L2793.28 2243.16 L2681.91 2289.45 L2570.53 2324.72 L2459.04 2351.32 L2347.66 2371.25 L2236.29 2386.10 L2124.91 2396.99 L2013.54 2405.03 L1902.16 2410.97 L1790.79 2415.18 L1679.41 2418.27 L1568.04 2420.50 L1456.66 2422.11 L1345.29 2423.22 L1233.79 2424.09 L1122.41 2424.59 L1011.04 2424.96 L899.66 2425.33 L788.29 2425.45 L676.91 2425.58 L565.54 2425.70 L565.54 2425.70 Z" stroke-linecap="round" style="fill:#ADADFF;stroke:#9999FF;stroke-width:3.00"/>
	<path d="M565.54 2425.70 L565.54 2425.70 L676.91 2425.58 L788.29 2425.58 L899.66 2425.33 L1011.04 2425.08 L1122.41 2424.71 L1233.79 2424.21 L1345.29 2423.47 L1456.66 2422.36 L1568.04 2420.75 L1679.41 2418.52 L1790.79 2415.55 L1902.16 2411.22 L2013.54 2405.40 L2124.91 2397.61 L2236.29 2386.96 L2347.66 2372.73 L2459.04 2353.92 L2570.53 2328.92 L2681.91 2296.13 L2793.28 2253.19 L2904.66 2197.37 L3016.03 2125.35 L3127.41 2032.78 L3238.78 1914.47 L3350.16 1763.99 L3461.53 1573.78 L3572.91 1334.56 L3684.28 1035.08 L3795.66 662.08 L3795.66 484.99 L3684.28 901.67 L3572.91 1235.06 L3461.53 1500.39 L3350.16 1710.40 L3238.78 1875.74 L3127.41 2005.31 L3016.03 2106.04 L2904.66 2184.13 L2793.28 2244.15 L2681.91 2290.19 L2570.53 2325.09 L2459.04 2351.57 L2347.66 2371.37 L2236.29 2386.10 L2124.91 2397.11 L2013.54 2405.16 L1902.16 2410.97 L1790.79 2415.18 L1679.41 2418.27 L1568.04 2420.50 L1456.66 2422.11 L1345.29 2423.22 L1233.79 2424.09 L1122.41 2424.59 L1011.04 2425.08 L899.66 2425.33 L788.29 2425.45 L676.91 2425.58 L565.54 2425.70 L565.54 2425.70 Z" stroke-linecap="round" style="fill:#9999FF;stroke:#8080FF;stroke-width:3.00"/>
	<path d="M565.54 2425.70 L565.54 2425.70 L676.91 2425.58 L788.29 2425.58 L899.66 2425.33 L1011.04 2425.08 L1122.41 2424.71 L1233.79 2424.21 L1345.29 2423.47 L1456.66 2422.36 L1568.04 2420.75 L1679.41 2418.52 L1790.79 2415.43 L1902.16 2411.22 L2013.54 2405.40 L2124.91 2397.48 L2236.29 2386.84 L2347.66 2372.61 L2459.04 2353.67 L2570.53 2328.55 L2681.91 2295.51 L2793.28 2252.32 L2904.66 2196.14 L3016.03 2123.49 L3127.41 2030.06 L3238.78 1910.64 L3350.16 1758.67 L3461.53 1566.48 L3572.91 1324.66 L3684.28 1021.84 L3795.66 644.51 L3795.66 502.56 L3684.28 914.91 L3572.91 1244.96 L3461.53 1507.69 L3350.16 1715.72 L3238.78 1879.57 L3127.41 2008.03 L3016.03 2108.02 L2904.66 2185.49 L2793.28 2245.14 L2681.91 2290.81 L2570.53 2325.46 L2459.04 2351.82 L2347.66 2371.50 L2236.29 2386.22 L2124.91 2397.11 L2013.54 2405.16 L1902.16 2410.97 L1790.79 2415.30 L1679.41 2418.40 L1568.04 2420.63 L1456.66 2422.11 L1345.29 2423.35 L1233.79 2424.09 L1122.41 2424.59 L1011.04 2425.08 L899.66 2425.33 L788.29 2425.45 L676.91 2425.58 L565.54 2425.70 L565.54 2425.70 Z" stroke-linecap="round" style="fill:#8585FF;stroke:#6666FF;stroke-width:3.00"/>
	<path d="M565.54 2425.70 L565.54 2425.70 L676.91 2425.58 L788.29 2425.45 L899.66 2425.33 L1011.04 2425.08 L1122.41 2424.71 L1233.79 2424.21 L1345.29 2423.35 L1456.66 2422.36 L1568.04 2420.75 L1679.41 2418.52 L1790.79 2415.43 L1902.16 2411.22 L2013.54 2405.40 L2124.91 2397.48 L2236.29 2386.84 L2347.66 2372.49 L2459.04 2353.43 L2570.53 2328.18 L2681.91 2295.02 L2793.28 2251.45 L2904.66 2194.90 L3016.03 2121.76 L3127.41 2027.58 L3238.78 1907.17 L3350.16 1753.84 L3461.53 1559.92 L3572.91 1315.75 L3684.28 1009.96 L3795.66 628.67 L3795.66 518.40 L3684.28 926.79 L3572.91 1253.87 L3461.53 1514.25 L3350.16 1720.55 L3238.78 1883.04 L3127.41 2010.38 L3016.03 2109.76 L2904.66 2186.61 L2793.28 2245.89 L2681.91 2291.30 L2570.53 2325.83 L2459.04 2351.94 L2347.66 2371.62 L2236.29 2386.35 L2124.91 2397.11 L2013.54 2405.16 L1902.16 2410.97 L1790.79 2415.30 L1679.41 2418.40 L1568.04 2420.63 L1456.66 2422.23 L1345.29 2423.35 L1233.79 2424.09 L1122.41 2424.71 L1011.04 2425.08 L899.66 2425.33 L788.29 2425.45 L676.91 2425.58 L565.54 2425.70 L565.54 2425.70 Z" stroke-linecap="round" style="fill:#7171FF;stroke:#4D4DFF;stroke-width:3.00"/>
	<path d="M565.54 2425.70 L565.54 2425.70 L676.91 2425.58 L788.29 2425.45 L899.66 2425.33 L1011.04 2425.08 L1122.41 2424.71 L1233.79 2424.21 L1345.29 2423.35 L1456.66 2422.23 L1568.04 2420.75 L1679.41 2418.52 L1790.79 2415.43 L1902.16 2411.22 L2013.54 2405.40 L2124.91 2397.48 L2236.29 2386.72 L2347.66 2372.36 L2459.04 2353.30 L2570.53 2327.93 L2681.91 2294.52 L2793.28 2250.71 L2904.66 2193.78 L3016.03 2120.15 L3127.41 2025.36 L3238.78 1903.95 L3350.16 1749.51 L3461.53 1553.85 L3572.91 1307.58 L3684.28 998.94 L3795.66 614.07 L3795.66 533.01 L3684.28 937.81 L3572.91 1262.04 L3461.53 1520.32 L3350.16 1724.88 L3238.78 1886.26 L3127.41 2012.73 L3016.03 2111.24 L2904.66 2187.72 L2793.28 2246.63 L2681.91 2291.80 L2570.53 2326.20 L2459.04 2352.19 L2347.66 2371.74 L2236.29 2386.35 L2124.91 2397.24 L2013.54 2405.16 L1902.16 2411.10 L1790.79 2415.30 L1679.41 2418.40 L1568.04 2420.63 L1456.66 2422.23 L1345.29 2423.35 L1233.79 2424.09 L1122.41 2424.71 L1011.04 2425.08 L899.66 2425.33 L788.29 2425.45 L676.91 2425.58 L565.54 2425.70 L565.54 2425.70 Z" stroke-linecap="round" style="fill:#5C5CFF;stroke:#3333FF;stroke-width:3.00"/>
	<path d="M565.54 2425.70 L565.54 2425.70 L676.91 2425.58 L788.29 2425.45 L899.66 2425.33 L1011.04 2425.08 L1122.41 2424.71 L1233.79 2424.21 L1345.29 2423.35 L1456.66 2422.23 L1568.04 2420.75 L1679.41 2418.52 L1790.79 2415.43 L1902.16 2411.22 L2013.54 2405.28 L2124.91 2397.36 L2236.29 2386.72 L2347.66 2372.24 L2459.04 2353.06 L2570.53 2327.56 L2681.91 2294.03 L2793.28 2250.09 L2904.66 2192.79 L3016.03 2118.67 L3127.41 2023.13 L3238.78 1900.86 L3350.16 1745.30 L3461.53 1548.16 L3572.91 1299.79 L3684.28 988.42 L3795.66 600.21 L3795.66 546.87 L3684.28 948.33 L3572.91 1269.84 L3461.53 1526.01 L3350.16 1729.09 L3238.78 1889.23 L3127.41 2014.84 L3016.03 2112.85 L2904.66 2188.83 L2793.28 2247.37 L2681.91 2292.29 L2570.53 2326.45 L2459.04 2352.31 L2347.66 2371.87 L2236.29 2386.47 L2124.91 2397.24 L2013.54 2405.28 L1902.16 2411.10 L1790.79 2415.30 L1679.41 2418.40 L1568.04 2420.63 L1456.66 2422.23 L1345.29 2423.35 L1233.79 2424.09 L1122.41 2424.71 L1011.04 2425.08 L899.66 2425.33 L788.29 2425.45 L676.91 2425.58 L565.54 2425.70 L565.54 2425.70 Z" stroke-linecap="round" style="fill:#4747FF;stroke:#1919FF;stroke-width:3.00"/>
	<path d="M565.54 2425.70 L565.54 2425.70 L676.91 2425.58 L788.29 2425.45 L899.66 2425.33 L1011.04 2425.08 L1122.41 2424.71 L1233.79 2424.09 L1345.29 2423.35 L1456.66 2422.23 L1568.04 2420.63 L1679.41 2418.52 L1790.79 2415.43 L1902.16 2411.10 L2013.54 2405.28 L2124.91 2397.36 L2236.29 2386.59 L2347.66 2372.11 L2459.04 2352.93 L2570.53 2327.32 L2681.91 2293.53 L2793.28 2249.35 L2904.66 2191.80 L3016.03 2117.18 L3127.41 2021.02 L3238.78 1898.01 L3350.16 1741.22 L3461.53 1542.59 L3572.91 1292.24 L3684.28 978.40 L3795.66 586.72 L3795.66 560.36 L3684.28 958.47 L3572.91 1277.39 L3461.53 1531.58 L3350.16 1733.17 L3238.78 1892.20 L3127.41 2016.94 L3016.03 2114.33 L2904.66 2189.82 L2793.28 2247.99 L2681.91 2292.66 L2570.53 2326.70 L2459.04 2352.56 L2347.66 2371.99 L2236.29 2386.47 L2124.91 2397.24 L2013.54 2405.28 L1902.16 2411.10 L1790.79 2415.30 L1679.41 2418.40 L1568.04 2420.63 L1456.66 2422.23 L1345.29 2423.35 L1233.79 2424.09 L1122.41 2424.71 L1011.04 2425.08 L899.66 2425.33 L788.29 2425.45 L676.91 2425.58 L565.54 2425.70 L565.54 2425.70 Z" stroke-linecap="round" style="fill:#3333FF;stroke:#0000FF;stroke-width:3.00"/>
	<circle cx="565.41" cy="2425.70" r="22.03" style="fill:#000000;stroke:#000000;stroke-width:8.64"/>
	<circle cx="676.79" cy="2425.58" r="22.03" style="fill:#000000;stroke:#000000;stroke-width:8.64"/>
	<circle cx="788.29" cy="2425.33" r="22.03" style="fill:#000000;stroke:#000000;stroke-width:8.64"/>
	<circle cx="899.66" cy="2425.08" r="22.03" style="fill:#000000;stroke:#000000;stroke-width:8.64"/>
	<circle cx="1011.04" cy="2424.59" r="22.03" style="fill:#000000;stroke:#000000;stroke-width:8.64"/>
	<circle cx="1122.41" cy="2424.09" r="22.03" style="fill:#000000;stroke:#000000;stroke-width:8.64"/>
	<circle cx="1233.79" cy="2423.47" r="22.03" style="fill:#000000;stroke:#000000;stroke-width:8.64"/>
	<circle cx="1345.16" cy="2423.35" r="22.03" style="fill:#000000;stroke:#000000;stroke-width:8.64"/>
	<circle cx="1456.54" cy="2422.23" r="22.03" style="fill:#000000;stroke:#000000;stroke-width:8.64"/>
	<circle cx="1567.91" cy="2421.12" r="22.03" style="fill:#000000;stroke:#000000;stroke-width:8.64"/>
	<circle cx="1679.29" cy="2419.02" r="22.03" style="fill:#000000;stroke:#000000;stroke-width:8.64"/>
	<circle cx="1790.66" cy="2415.43" r="22.03" style="fill:#000000;stroke:#000000;stroke-width:8.64"/>
	<circle cx="1902.04" cy="2410.73" r="22.03" style="fill:#000000;stroke:#000000;stroke-width:8.64"/>
	<circle cx="2013.54" cy="2405.40" r="22.03" style="fill:#000000;stroke:#000000;stroke-width:8.64"/>
	<circle cx="2124.91" cy="2398.10" r="22.03" style="fill:#000000;stroke:#000000;stroke-width:8.64"/>
	<circle cx="2236.29" cy="2386.10" r="22.03" style="fill:#000000;stroke:#000000;stroke-width:8.64"/>
	<line x1="390.80" y1="2489.19" x2="390.80" y2="100.86" style="stroke:#000000;stroke-width:5.76"/>
	<line x1="390.80" y1="2425.82" x2="350.83" y2="2425.82" style="stroke:#000000;stroke-width:5.76"/>
	<text x="300.72" y="2425.82" style="font-family:'Helvetica';font-size:99.99px;fill:#000000" transform="rotate(-90 300.72,2425.82)" text-anchor="middle">0</text>
	<line x1="390.80" y1="1992.68" x2="350.83" y2="1992.68" style="stroke:#000000;stroke-width:5.76"/>
	<text x="300.72" y="1992.68" style="font-family:'Helvetica';font-size:99.99px;fill:#000000" transform="rotate(-90 300.72,1992.68)" text-anchor="middle">20</text>
	<line x1="390.80" y1="1559.42" x2="350.83" y2="1559.42" style="stroke:#000000;stroke-width:5.76"/>
	<text x="300.72" y="1559.42" style="font-family:'Helvetica';font-size:99.99px;fill:#000000" transform="rotate(-90 300.72,1559.42)" text-anchor="middle">40</text>
	<line x1="390.80" y1="1126.16" x2="350.83" y2="1126.16" style="stroke:#000000;stroke-width:5.76"/>
	<text x="300.72" y="1126.16" style="font-family:'Helvetica';font-size:99.99px;fill:#000000" transform="rotate(-90 300.72,1126.16)" text-anchor="middle">60</text>
	<line x1="390.80" y1="693.02" x2="350.83" y2="693.02" style="stroke:#000000;stroke-width:5.76"/>
	<text x="300.72" y="693.02" style="font-family:'Helvetica';font-size:99.99px;fill:#000000" transform="rotate(-90 300.72,693.02)" text-anchor="middle">80</text>
	<line x1="390.80" y1="259.76" x2="350.83" y2="259.76" style="stroke:#000000;stroke-width:5.76"/>
	<text x="300.72" y="259.76" style="font-family:'Helvetica';font-size:99.99px;fill:#000000" transform="rotate(-90 300.72,259.76)" text-anchor="middle">100</text>
	<text x="190.71" y="1294.96" style="font-family:'Helvetica';font-size:99.99px;fill:#000000" transform="rotate(-90 190.71,1294.96)" text-anchor="middle">Confirmed cases per 100 beds</text>
	<line x1="390.80" y1="2489.19" x2="3859.02" y2="2489.19" style="stroke:#000000;stroke-width:5.76"/>
	<line x1="454.16" y1="2489.19" x2="454.16" y2="2529.16" style="stroke:#000000;stroke-width:5.76"/>
	<text x="454.16" y="2619.14" style="font-family:'Helvetica';font-size:99.99px;fill:#000000" text-anchor="middle">0</text>
	<line x1="1568.04" y1="2489.19" x2="1568.04" y2="2529.16" style="stroke:#000000;stroke-width:5.76"/>
	<text x="1568.04" y="2619.14" style="font-family:'Helvetica';font-size:99.99px;fill:#000000" text-anchor="middle">10</text>
	<line x1="2681.91" y1="2489.19" x2="2681.91" y2="2529.16" style="stroke:#000000;stroke-width:5.76"/>
	<text x="2681.91" y="2619.14" style="font-family:'Helvetica';font-size:99.99px;fill:#000000" text-anchor="middle">20</text>
	<line x1="3795.66" y1="2489.19" x2="3795.66" y2="2529.16" style="stroke:#000000;stroke-width:5.76"/>
	<text x="3795.66" y="2619.14" style="font-family:'Helvetica';font-size:99.99px;fill:#000000" text-anchor="middle">30</text>
	<text x="2124.91" y="2729.16" style="font-family:'Helvetica';font-size:99.99px;fill:#000000" text-anchor="middle">Days since 0.01 confirmed cases per 100 beds</text>
</svg>
