<?xml version="1.0" encoding="UTF-8" standalone="no"?>
<!-- This is a Stata 14.2 generated SVG file (http://www.stata.com) -->

<svg version="1.1" width="5.50in" height="4.00in" viewBox="0 0 3960 2880" xmlns="http://www.w3.org/2000/svg">
	<desc>Stata Graph - Graph</desc>
	<line x1="390.80" y1="729.53" x2="3859.02" y2="729.53" style="stroke:#FF0000;stroke-width:8.64"/>
	<path d="M899.66 1860.39 L899.66 1860.39 L1011.04 1860.39 L1122.41 1860.64 L1233.79 1958.28 L1345.29 2136.86 L1456.66 1637.02 L1568.04 1220.71 L1679.41 948.70 L1790.79 789.92 L1902.16 738.69 L2013.54 735.59 L2124.91 740.30 L2236.29 743.76 L2347.66 745.74 L2459.04 746.73 L2570.53 747.10 L2681.91 747.35 L2793.28 747.47 L2904.66 747.47 L3016.03 747.47 L3127.41 747.47 L3238.78 747.47 L3350.16 747.47 L3461.53 747.47 L3572.91 747.47 L3684.28 747.47 L3684.28 455.66 L3572.91 455.66 L3461.53 455.66 L3350.16 455.66 L3238.78 455.66 L3127.41 455.66 L3016.03 455.66 L2904.66 455.66 L2793.28 455.79 L2681.91 455.91 L2570.53 456.16 L2459.04 456.90 L2347.66 458.38 L2236.29 461.97 L2124.91 469.65 L2013.54 484.62 L1902.16 507.76 L1790.79 521.99 L1679.41 522.24 L1568.04 609.24 L1456.66 869.37 L1345.29 1190.51 L1233.79 1740.23 L1122.41 1860.14 L1011.04 1860.39 L899.66 1860.39 L899.66 1860.39 Z" stroke-linecap="round" style="fill:#EBEBFF;stroke:#E6E6FF;stroke-width:3.00"/>
	<path d="M899.66 1860.39 L899.66 1860.39 L1011.04 1860.39 L1122.41 1860.52 L1233.79 1895.41 L1345.29 1863.73 L1456.66 1415.37 L1568.04 1044.24 L1679.41 825.56 L1790.79 712.57 L1902.16 671.98 L2013.54 663.20 L2124.91 662.21 L2236.29 662.45 L2347.66 662.83 L2459.04 663.07 L2570.53 663.20 L2681.91 663.20 L2793.28 663.20 L2904.66 663.32 L3016.03 663.32 L3127.41 663.32 L3238.78 663.32 L3350.16 663.32 L3461.53 663.32 L3572.91 663.32 L3684.28 663.32 L3684.28 539.94 L3572.91 539.94 L3461.53 539.94 L3350.16 539.94 L3238.78 539.94 L3127.41 539.94 L3016.03 539.94 L2904.66 539.94 L2793.28 539.94 L2681.91 539.94 L2570.53 540.19 L2459.04 540.56 L2347.66 541.42 L2236.29 543.28 L2124.91 547.73 L2013.54 557.14 L1902.16 574.34 L1790.79 599.34 L1679.41 645.25 L1568.04 785.71 L1456.66 1090.89 L1345.29 1463.64 L1233.79 1803.22 L1122.41 1860.27 L1011.04 1860.39 L899.66 1860.39 L899.66 1860.39 Z" stroke-linecap="round" style="fill:#D6D6FF;stroke:#CCCCFF;stroke-width:3.00"/>
	<path d="M899.66 1860.39 L899.66 1860.39 L1011.04 1860.39 L1122.41 1860.52 L1233.79 1885.14 L1345.29 1819.55 L1456.66 1379.61 L1568.04 1015.65 L1679.41 805.64 L1790.79 700.08 L1902.16 661.22 L2013.54 651.44 L2124.91 649.46 L2236.29 649.34 L2347.66 649.46 L2459.04 649.46 L2570.53 649.58 L2681.91 649.58 L2793.28 649.58 L2904.66 649.58 L3016.03 649.58 L3127.41 649.58 L3238.78 649.58 L3350.16 649.58 L3461.53 649.58 L3572.91 649.58 L3684.28 649.58 L3684.28 553.55 L3572.91 553.55 L3461.53 553.55 L3350.16 553.55 L3238.78 553.55 L3127.41 553.55 L3016.03 553.55 L2904.66 553.55 L2793.28 553.55 L2681.91 553.55 L2570.53 553.67 L2459.04 554.05 L2347.66 554.79 L2236.29 556.52 L2124.91 560.36 L2013.54 568.77 L1902.16 585.23 L1790.79 611.84 L1679.41 665.18 L1568.04 814.30 L1456.66 1126.78 L1345.29 1507.82 L1233.79 1813.37 L1122.41 1860.39 L1011.04 1860.39 L899.66 1860.39 L899.66 1860.39 Z" stroke-linecap="round" style="fill:#C2C2FF;stroke:#B3B3FF;stroke-width:3.00"/>
	<path d="M899.66 1860.39 L899.66 1860.39 L1011.04 1860.39 L1122.41 1860.52 L1233.79 1878.34 L1345.29 1789.73 L1456.66 1355.35 L1568.04 996.47 L1679.41 792.27 L1790.79 691.66 L1902.16 654.04 L2013.54 643.52 L2124.91 641.05 L2236.29 640.43 L2347.66 640.43 L2459.04 640.43 L2570.53 640.43 L2681.91 640.43 L2793.28 640.43 L2904.66 640.43 L3016.03 640.43 L3127.41 640.43 L3238.78 640.43 L3350.16 640.43 L3461.53 640.43 L3572.91 640.43 L3684.28 640.43 L3684.28 562.71 L3572.91 562.71 L3461.53 562.71 L3350.16 562.71 L3238.78 562.71 L3127.41 562.71 L3016.03 562.71 L2904.66 562.71 L2793.28 562.71 L2681.91 562.83 L2570.53 562.96 L2459.04 563.20 L2347.66 563.82 L2236.29 565.31 L2124.91 568.90 L2013.54 576.69 L1902.16 592.41 L1790.79 620.25 L1679.41 678.67 L1568.04 833.48 L1456.66 1150.91 L1345.29 1537.64 L1233.79 1820.17 L1122.41 1860.39 L1011.04 1860.39 L899.66 1860.39 L899.66 1860.39 Z" stroke-linecap="round" style="fill:#ADADFF;stroke:#9999FF;stroke-width:3.00"/>
	<path d="M899.66 1860.39 L899.66 1860.39 L1011.04 1860.39 L1122.41 1860.52 L1233.79 1872.89 L1345.29 1766.09 L1456.66 1336.17 L1568.04 981.12 L1679.41 781.63 L1790.79 684.98 L1902.16 648.22 L2013.54 637.21 L2124.91 634.24 L2236.29 633.37 L2347.66 633.12 L2459.04 633.12 L2570.53 633.12 L2681.91 633.12 L2793.28 633.12 L2904.66 633.12 L3016.03 633.12 L3127.41 633.12 L3238.78 633.12 L3350.16 633.12 L3461.53 633.12 L3572.91 633.12 L3684.28 633.12 L3684.28 570.01 L3572.91 570.01 L3461.53 570.01 L3350.16 570.01 L3238.78 570.01 L3127.41 570.01 L3016.03 570.01 L2904.66 570.01 L2793.28 570.01 L2681.91 570.13 L2570.53 570.13 L2459.04 570.38 L2347.66 571.00 L2236.29 572.36 L2124.91 575.70 L2013.54 583.00 L1902.16 598.23 L1790.79 626.94 L1679.41 689.31 L1568.04 848.83 L1456.66 1170.09 L1345.29 1561.40 L1233.79 1825.74 L1122.41 1860.39 L1011.04 1860.39 L899.66 1860.39 L899.66 1860.39 Z" stroke-linecap="round" style="fill:#9999FF;stroke:#8080FF;stroke-width:3.00"/>
	<path d="M899.66 1860.39 L899.66 1860.39 L1011.04 1860.39 L1122.41 1860.52 L1233.79 1868.19 L1345.29 1745.80 L1456.66 1319.71 L1568.04 968.00 L1679.41 772.47 L1790.79 679.16 L1902.16 643.27 L2013.54 631.89 L2124.91 628.42 L2236.29 627.31 L2347.66 627.06 L2459.04 626.94 L2570.53 626.94 L2681.91 626.81 L2793.28 626.81 L2904.66 626.81 L3016.03 626.81 L3127.41 626.81 L3238.78 626.81 L3350.16 626.94 L3461.53 626.94 L3572.91 626.94 L3684.28 626.94 L3684.28 576.32 L3572.91 576.32 L3461.53 576.32 L3350.16 576.32 L3238.78 576.32 L3127.41 576.32 L3016.03 576.32 L2904.66 576.32 L2793.28 576.32 L2681.91 576.32 L2570.53 576.45 L2459.04 576.69 L2347.66 577.19 L2236.29 578.43 L2124.91 581.52 L2013.54 588.33 L1902.16 603.18 L1790.79 632.75 L1679.41 698.47 L1568.04 861.95 L1456.66 1186.68 L1345.29 1581.70 L1233.79 1830.32 L1122.41 1860.39 L1011.04 1860.39 L899.66 1860.39 L899.66 1860.39 Z" stroke-linecap="round" style="fill:#8585FF;stroke:#6666FF;stroke-width:3.00"/>
	<path d="M899.66 1860.39 L899.66 1860.39 L1011.04 1860.39 L1122.41 1860.39 L1233.79 1863.98 L1345.29 1727.48 L1456.66 1304.86 L1568.04 956.25 L1679.41 764.18 L1790.79 673.96 L1902.16 638.82 L2013.54 627.06 L2124.91 623.22 L2236.29 621.86 L2347.66 621.49 L2459.04 621.37 L2570.53 621.24 L2681.91 621.24 L2793.28 621.24 L2904.66 621.24 L3016.03 621.24 L3127.41 621.24 L3238.78 621.24 L3350.16 621.24 L3461.53 621.24 L3572.91 621.24 L3684.28 621.24 L3684.28 581.89 L3572.91 581.89 L3461.53 581.89 L3350.16 581.89 L3238.78 581.89 L3127.41 581.89 L3016.03 581.89 L2904.66 581.89 L2793.28 581.89 L2681.91 582.01 L2570.53 582.01 L2459.04 582.26 L2347.66 582.76 L2236.29 583.87 L2124.91 586.72 L2013.54 593.15 L1902.16 607.63 L1790.79 637.95 L1679.41 706.76 L1568.04 873.70 L1456.66 1201.40 L1345.29 1599.89 L1233.79 1834.53 L1122.41 1860.39 L1011.04 1860.39 L899.66 1860.39 L899.66 1860.39 Z" stroke-linecap="round" style="fill:#7171FF;stroke:#4D4DFF;stroke-width:3.00"/>
	<path d="M899.66 1860.39 L899.66 1860.39 L1011.04 1860.39 L1122.41 1860.39 L1233.79 1860.02 L1345.29 1710.53 L1456.66 1291.12 L1568.04 945.23 L1679.41 756.51 L1790.79 669.26 L1902.16 634.61 L2013.54 622.61 L2124.91 618.40 L2236.29 616.91 L2347.66 616.29 L2459.04 616.17 L2570.53 616.05 L2681.91 616.05 L2793.28 616.05 L2904.66 616.05 L3016.03 616.05 L3127.41 616.05 L3238.78 616.05 L3350.16 616.05 L3461.53 616.05 L3572.91 616.05 L3684.28 616.05 L3684.28 587.09 L3572.91 587.09 L3461.53 587.09 L3350.16 587.09 L3238.78 587.09 L3127.41 587.09 L3016.03 587.09 L2904.66 587.09 L2793.28 587.09 L2681.91 587.21 L2570.53 587.21 L2459.04 587.46 L2347.66 587.83 L2236.29 588.94 L2124.91 591.54 L2013.54 597.73 L1902.16 611.84 L1790.79 642.65 L1679.41 714.31 L1568.04 884.72 L1456.66 1215.14 L1345.29 1616.84 L1233.79 1838.49 L1122.41 1860.39 L1011.04 1860.39 L899.66 1860.39 L899.66 1860.39 Z" stroke-linecap="round" style="fill:#5C5CFF;stroke:#3333FF;stroke-width:3.00"/>
	<path d="M899.66 1860.39 L899.66 1860.39 L1011.04 1860.39 L1122.41 1860.39 L1233.79 1856.43 L1345.29 1694.56 L1456.66 1278.13 L1568.04 934.84 L1679.41 749.33 L1790.79 664.68 L1902.16 630.77 L2013.54 618.27 L2124.91 613.70 L2236.29 612.09 L2347.66 611.47 L2459.04 611.22 L2570.53 611.10 L2681.91 611.10 L2793.28 611.10 L2904.66 611.10 L3016.03 611.10 L3127.41 611.10 L3238.78 611.10 L3350.16 611.10 L3461.53 611.10 L3572.91 611.10 L3684.28 611.10 L3684.28 592.04 L3572.91 592.04 L3461.53 592.04 L3350.16 592.04 L3238.78 592.04 L3127.41 592.04 L3016.03 592.04 L2904.66 592.04 L2793.28 592.04 L2681.91 592.16 L2570.53 592.16 L2459.04 592.29 L2347.66 592.78 L2236.29 593.77 L2124.91 596.12 L2013.54 601.94 L1902.16 615.68 L1790.79 647.23 L1679.41 721.61 L1568.04 895.11 L1456.66 1228.13 L1345.29 1632.93 L1233.79 1842.20 L1122.41 1860.39 L1011.04 1860.39 L899.66 1860.39 L899.66 1860.39 Z" stroke-linecap="round" style="fill:#4747FF;stroke:#1919FF;stroke-width:3.00"/>
	<path d="M899.66 1860.39 L899.66 1860.39 L1011.04 1860.39 L1122.41 1860.39 L1233.79 1852.84 L1345.29 1678.97 L1456.66 1265.51 L1568.04 924.81 L1679.41 742.28 L1790.79 660.23 L1902.16 626.94 L2013.54 614.19 L2124.91 609.36 L2236.29 607.51 L2347.66 606.77 L2459.04 606.52 L2570.53 606.39 L2681.91 606.27 L2793.28 606.27 L2904.66 606.27 L3016.03 606.27 L3127.41 606.27 L3238.78 606.27 L3350.16 606.27 L3461.53 606.27 L3572.91 606.27 L3684.28 606.27 L3684.28 596.86 L3572.91 596.86 L3461.53 596.86 L3350.16 596.86 L3238.78 596.86 L3127.41 596.86 L3016.03 596.86 L2904.66 596.86 L2793.28 596.86 L2681.91 596.86 L2570.53 596.99 L2459.04 597.11 L2347.66 597.48 L2236.29 598.35 L2124.91 600.58 L2013.54 606.02 L1902.16 619.51 L1790.79 651.56 L1679.41 728.54 L1568.04 905.14 L1456.66 1240.76 L1345.29 1648.40 L1233.79 1845.79 L1122.41 1860.39 L1011.04 1860.39 L899.66 1860.39 L899.66 1860.39 Z" stroke-linecap="round" style="fill:#3333FF;stroke:#0000FF;stroke-width:3.00"/>
	<circle cx="565.41" cy="1857.55" r="22.03" style="fill:#000000;stroke:#000000;stroke-width:8.64"/>
	<circle cx="676.79" cy="1851.73" r="22.03" style="fill:#000000;stroke:#000000;stroke-width:8.64"/>
	<circle cx="788.29" cy="1837.25" r="22.03" style="fill:#000000;stroke:#000000;stroke-width:8.64"/>
	<circle cx="899.66" cy="1828.59" r="22.03" style="fill:#000000;stroke:#000000;stroke-width:8.64"/>
	<circle cx="1011.04" cy="1825.62" r="22.03" style="fill:#000000;stroke:#000000;stroke-width:8.64"/>
	<circle cx="1122.41" cy="1816.95" r="22.03" style="fill:#000000;stroke:#000000;stroke-width:8.64"/>
	<circle cx="1233.79" cy="1808.17" r="22.03" style="fill:#000000;stroke:#000000;stroke-width:8.64"/>
	<circle cx="1345.16" cy="1790.84" r="22.03" style="fill:#000000;stroke:#000000;stroke-width:8.64"/>
	<circle cx="1456.54" cy="1099.68" r="22.03" style="fill:#000000;stroke:#000000;stroke-width:8.64"/>
	<circle cx="1567.91" cy="931.25" r="22.03" style="fill:#000000;stroke:#000000;stroke-width:8.64"/>
	<circle cx="1679.29" cy="881.87" r="22.03" style="fill:#000000;stroke:#000000;stroke-width:8.64"/>
	<circle cx="1790.66" cy="696.12" r="22.03" style="fill:#000000;stroke:#000000;stroke-width:8.64"/>
	<circle cx="1902.04" cy="585.73" r="22.03" style="fill:#000000;stroke:#000000;stroke-width:8.64"/>
	<circle cx="2013.54" cy="577.06" r="22.03" style="fill:#000000;stroke:#000000;stroke-width:8.64"/>
	<circle cx="2124.91" cy="547.98" r="22.03" style="fill:#000000;stroke:#000000;stroke-width:8.64"/>
	<line x1="390.80" y1="2489.19" x2="390.80" y2="100.86" style="stroke:#000000;stroke-width:5.76"/>
	<line x1="390.80" y1="2425.82" x2="350.83" y2="2425.82" style="stroke:#000000;stroke-width:5.76"/>
	<text x="300.72" y="2425.82" style="font-family:'Helvetica';font-size:99.99px;fill:#000000" transform="rotate(-90 300.72,2425.82)" text-anchor="middle">-5</text>
	<line x1="390.80" y1="1860.39" x2="350.83" y2="1860.39" style="stroke:#000000;stroke-width:5.76"/>
	<text x="300.72" y="1860.39" style="font-family:'Helvetica';font-size:99.99px;fill:#000000" transform="rotate(-90 300.72,1860.39)" text-anchor="middle">0</text>
	<line x1="390.80" y1="1294.96" x2="350.83" y2="1294.96" style="stroke:#000000;stroke-width:5.76"/>
	<text x="300.72" y="1294.96" style="font-family:'Helvetica';font-size:99.99px;fill:#000000" transform="rotate(-90 300.72,1294.96)" text-anchor="middle">5</text>
	<line x1="390.80" y1="729.53" x2="350.83" y2="729.53" style="stroke:#000000;stroke-width:5.76"/>
	<text x="300.72" y="729.53" style="font-family:'Helvetica';font-size:99.99px;fill:#000000" transform="rotate(-90 300.72,729.53)" text-anchor="middle">10</text>
	<line x1="390.80" y1="164.22" x2="350.83" y2="164.22" style="stroke:#000000;stroke-width:5.76"/>
	<text x="300.72" y="164.22" style="font-family:'Helvetica';font-size:99.99px;fill:#000000" transform="rotate(-90 300.72,164.22)" text-anchor="middle">15</text>
	<text x="190.71" y="1294.96" style="font-family:'Helvetica';font-size:99.99px;fill:#000000" transform="rotate(-90 190.71,1294.96)" text-anchor="middle">Confirmed cases per 100 beds</text>
	<line x1="390.80" y1="2489.19" x2="3859.02" y2="2489.19" style="stroke:#000000;stroke-width:5.76"/>
	<line x1="454.16" y1="2489.19" x2="454.16" y2="2529.16" style="stroke:#000000;stroke-width:5.76"/>
	<text x="454.16" y="2619.14" style="font-family:'Helvetica';font-size:99.99px;fill:#000000" text-anchor="middle">0</text>
	<line x1="1568.04" y1="2489.19" x2="1568.04" y2="2529.16" style="stroke:#000000;stroke-width:5.76"/>
	<text x="1568.04" y="2619.14" style="font-family:'Helvetica';font-size:99.99px;fill:#000000" text-anchor="middle">10</text>
	<line x1="2681.91" y1="2489.19" x2="2681.91" y2="2529.16" style="stroke:#000000;stroke-width:5.76"/>
	<text x="2681.91" y="2619.14" style="font-family:'Helvetica';font-size:99.99px;fill:#000000" text-anchor="middle">20</text>
	<line x1="3795.66" y1="2489.19" x2="3795.66" y2="2529.16" style="stroke:#000000;stroke-width:5.76"/>
	<text x="3795.66" y="2619.14" style="font-family:'Helvetica';font-size:99.99px;fill:#000000" text-anchor="middle">30</text>
	<text x="2124.91" y="2729.16" style="font-family:'Helvetica';font-size:99.99px;fill:#000000" text-anchor="middle">Days since 0.01 confirmed cases per 100 beds</text>
</svg>
