<?xml version="1.0" encoding="UTF-8" standalone="no"?>
<!-- This is a Stata 14.2 generated SVG file (http://www.stata.com) -->

<svg version="1.1" width="5.50in" height="4.00in" viewBox="0 0 3960 2880" xmlns="http://www.w3.org/2000/svg">
	<desc>Stata Graph - Graph</desc>
	<line x1="390.80" y1="1521.18" x2="3859.02" y2="1521.18" style="stroke:#FF0000;stroke-width:8.64"/>
	<path d="M565.54 1672.29 L565.54 1672.29 L676.91 1672.41 L788.29 1672.41 L899.66 1672.29 L1011.04 1672.16 L1122.41 1672.04 L1233.79 1671.67 L1345.29 1671.17 L1456.66 1670.31 L1568.04 1669.07 L1679.41 1667.58 L1790.79 1665.60 L1902.16 1663.38 L2013.54 1661.15 L2124.91 1659.29 L2236.29 1657.68 L2347.66 1656.82 L2459.04 1656.57 L2570.53 1657.56 L2681.91 1659.91 L2793.28 1664.49 L2904.66 1671.79 L3016.03 1682.93 L3127.41 1698.89 L3238.78 1721.29 L3350.16 1751.74 L3461.53 1792.33 L3572.91 1845.91 L3684.28 1915.34 L3795.66 2004.44 L3795.66 271.02 L3684.28 548.35 L3572.91 775.07 L3461.53 959.59 L3350.16 1109.08 L3238.78 1229.62 L3127.41 1326.27 L3016.03 1403.37 L2904.66 1464.50 L2793.28 1512.89 L2681.91 1550.64 L2570.53 1580.09 L2459.04 1602.86 L2347.66 1620.31 L2236.29 1633.43 L2124.91 1643.33 L2013.54 1650.38 L1902.16 1655.33 L1790.79 1658.80 L1679.41 1661.15 L1568.04 1663.13 L1456.66 1664.61 L1345.29 1665.97 L1233.79 1667.09 L1122.41 1667.95 L1011.04 1668.70 L899.66 1669.32 L788.29 1669.81 L676.91 1670.31 L565.54 1670.68 L565.54 1672.29 Z" stroke-linecap="round" style="fill:#EBEBFF;stroke:#E6E6FF;stroke-width:3.00"/>
	<path d="M565.54 1671.79 L565.54 1671.79 L676.91 1671.79 L788.29 1671.67 L899.66 1671.42 L1011.04 1671.17 L1122.41 1670.80 L1233.79 1670.31 L1345.29 1669.56 L1456.66 1668.70 L1568.04 1667.34 L1679.41 1665.73 L1790.79 1663.62 L1902.16 1661.02 L2013.54 1658.05 L2124.91 1654.59 L2236.29 1650.75 L2347.66 1646.30 L2459.04 1641.10 L2570.53 1635.16 L2681.91 1628.35 L2793.28 1620.68 L2904.66 1612.02 L3016.03 1602.24 L3127.41 1591.35 L3238.78 1579.35 L3350.16 1566.23 L3461.53 1552.00 L3572.91 1536.78 L3684.28 1520.81 L3795.66 1504.10 L3795.66 771.36 L3684.28 942.88 L3572.91 1084.08 L3461.53 1199.92 L3350.16 1294.59 L3238.78 1371.44 L3127.41 1433.81 L3016.03 1484.06 L2904.66 1524.40 L2793.28 1556.58 L2681.91 1582.19 L2570.53 1602.49 L2459.04 1618.45 L2347.66 1630.83 L2236.29 1640.48 L2124.91 1647.91 L2013.54 1653.48 L1902.16 1657.68 L1790.79 1660.65 L1679.41 1663.00 L1568.04 1664.86 L1456.66 1666.22 L1345.29 1667.46 L1233.79 1668.33 L1122.41 1669.07 L1011.04 1669.69 L899.66 1670.18 L788.29 1670.55 L676.91 1670.92 L565.54 1671.17 L565.54 1671.79 Z" stroke-linecap="round" style="fill:#D6D6FF;stroke:#CCCCFF;stroke-width:3.00"/>
	<path d="M565.54 1671.79 L565.54 1671.79 L676.91 1671.67 L788.29 1671.54 L899.66 1671.30 L1011.04 1671.05 L1122.41 1670.68 L1233.79 1670.06 L1345.29 1669.44 L1456.66 1668.45 L1568.04 1667.09 L1679.41 1665.36 L1790.79 1663.25 L1902.16 1660.65 L2013.54 1657.56 L2124.91 1653.85 L2236.29 1649.64 L2347.66 1644.57 L2459.04 1638.62 L2570.53 1631.57 L2681.91 1623.28 L2793.28 1613.63 L2904.66 1602.37 L3016.03 1589.12 L3127.41 1573.90 L3238.78 1556.45 L3350.16 1536.28 L3461.53 1513.14 L3572.91 1486.78 L3684.28 1456.95 L3795.66 1423.17 L3795.66 852.29 L3684.28 1006.74 L3572.91 1134.08 L3461.53 1238.90 L3350.16 1324.54 L3238.78 1394.46 L3127.41 1451.26 L3016.03 1497.05 L2904.66 1534.05 L2793.28 1563.63 L2681.91 1587.27 L2570.53 1606.08 L2459.04 1620.93 L2347.66 1632.56 L2236.29 1641.60 L2124.91 1648.65 L2013.54 1653.97 L1902.16 1658.05 L1790.79 1661.02 L1679.41 1663.38 L1568.04 1665.11 L1456.66 1666.59 L1345.29 1667.71 L1233.79 1668.57 L1122.41 1669.32 L1011.04 1669.93 L899.66 1670.31 L788.29 1670.68 L676.91 1671.05 L565.54 1671.17 L565.54 1671.79 Z" stroke-linecap="round" style="fill:#C2C2FF;stroke:#B3B3FF;stroke-width:3.00"/>
	<path d="M565.54 1671.67 L565.54 1671.67 L676.91 1671.67 L788.29 1671.42 L899.66 1671.17 L1011.04 1670.92 L1122.41 1670.55 L1233.79 1669.93 L1345.29 1669.19 L1456.66 1668.20 L1568.04 1666.96 L1679.41 1665.23 L1790.79 1663.00 L1902.16 1660.41 L2013.54 1657.19 L2124.91 1653.35 L2236.29 1648.90 L2347.66 1643.45 L2459.04 1636.89 L2570.53 1629.10 L2681.91 1619.81 L2793.28 1608.80 L2904.66 1595.81 L3016.03 1580.34 L3127.41 1562.27 L3238.78 1540.86 L3350.16 1515.98 L3461.53 1486.90 L3572.91 1453.12 L3684.28 1413.89 L3795.66 1368.59 L3795.66 906.87 L3684.28 1049.80 L3572.91 1167.87 L3461.53 1265.01 L3350.16 1344.83 L3238.78 1409.93 L3127.41 1462.89 L3016.03 1505.96 L2904.66 1540.61 L2793.28 1568.46 L2681.91 1590.73 L2570.53 1608.55 L2459.04 1622.54 L2347.66 1633.67 L2236.29 1642.34 L2124.91 1649.14 L2013.54 1654.34 L1902.16 1658.30 L1790.79 1661.27 L1679.41 1663.50 L1568.04 1665.36 L1456.66 1666.72 L1345.29 1667.83 L1233.79 1668.70 L1122.41 1669.44 L1011.04 1669.93 L899.66 1670.43 L788.29 1670.80 L676.91 1671.05 L565.54 1671.30 L565.54 1671.67 Z" stroke-linecap="round" style="fill:#ADADFF;stroke:#9999FF;stroke-width:3.00"/>
	<path d="M565.54 1671.67 L565.54 1671.67 L676.91 1671.54 L788.29 1671.42 L899.66 1671.17 L1011.04 1670.80 L1122.41 1670.43 L1233.79 1669.81 L1345.29 1669.07 L1456.66 1668.08 L1568.04 1666.72 L1679.41 1665.11 L1790.79 1662.88 L1902.16 1660.16 L2013.54 1656.94 L2124.91 1652.98 L2236.29 1648.28 L2347.66 1642.46 L2459.04 1635.53 L2570.53 1627.24 L2681.91 1617.09 L2793.28 1605.09 L2904.66 1590.61 L3016.03 1573.41 L3127.41 1552.86 L3238.78 1528.61 L3350.16 1499.90 L3461.53 1466.11 L3572.91 1426.26 L3684.28 1379.73 L3795.66 1325.16 L3795.66 950.31 L3684.28 1083.96 L3572.91 1194.72 L3461.53 1285.93 L3350.16 1360.92 L3238.78 1422.30 L3127.41 1472.30 L3016.03 1512.89 L2904.66 1545.81 L2793.28 1572.29 L2681.91 1593.45 L2570.53 1610.41 L2459.04 1623.90 L2347.66 1634.66 L2236.29 1642.96 L2124.91 1649.52 L2013.54 1654.59 L1902.16 1658.43 L1790.79 1661.40 L1679.41 1663.75 L1568.04 1665.48 L1456.66 1666.84 L1345.29 1667.95 L1233.79 1668.82 L1122.41 1669.56 L1011.04 1670.06 L899.66 1670.55 L788.29 1670.80 L676.91 1671.05 L565.54 1671.30 L565.54 1671.67 Z" stroke-linecap="round" style="fill:#9999FF;stroke:#8080FF;stroke-width:3.00"/>
	<path d="M565.54 1671.67 L565.54 1671.67 L676.91 1671.54 L788.29 1671.30 L899.66 1671.05 L1011.04 1670.80 L1122.41 1670.31 L1233.79 1669.81 L1345.29 1668.94 L1456.66 1667.95 L1568.04 1666.59 L1679.41 1664.86 L1790.79 1662.76 L1902.16 1660.03 L2013.54 1656.69 L2124.91 1652.61 L2236.29 1647.66 L2347.66 1641.72 L2459.04 1634.42 L2570.53 1625.51 L2681.91 1614.74 L2793.28 1601.75 L2904.66 1586.15 L3016.03 1567.34 L3127.41 1544.94 L3238.78 1518.09 L3350.16 1486.04 L3461.53 1448.17 L3572.91 1403.25 L3684.28 1350.28 L3795.66 1288.03 L3795.66 987.43 L3684.28 1113.41 L3572.91 1217.61 L3461.53 1303.75 L3350.16 1374.66 L3238.78 1432.82 L3127.41 1480.22 L3016.03 1518.95 L2904.66 1550.26 L2793.28 1575.51 L2681.91 1595.81 L2570.53 1612.14 L2459.04 1625.14 L2347.66 1635.41 L2236.29 1643.45 L2124.91 1649.89 L2013.54 1654.84 L1902.16 1658.67 L1790.79 1661.52 L1679.41 1663.87 L1568.04 1665.60 L1456.66 1666.96 L1345.29 1668.08 L1233.79 1668.94 L1122.41 1669.69 L1011.04 1670.18 L899.66 1670.55 L788.29 1670.92 L676.91 1671.17 L565.54 1671.30 L565.54 1671.67 Z" stroke-linecap="round" style="fill:#8585FF;stroke:#6666FF;stroke-width:3.00"/>
	<path d="M565.54 1671.67 L565.54 1671.67 L676.91 1671.42 L788.29 1671.30 L899.66 1671.05 L1011.04 1670.68 L1122.41 1670.31 L1233.79 1669.69 L1345.29 1668.82 L1456.66 1667.83 L1568.04 1666.47 L1679.41 1664.74 L1790.79 1662.63 L1902.16 1659.91 L2013.54 1656.45 L2124.91 1652.36 L2236.29 1647.29 L2347.66 1640.98 L2459.04 1633.43 L2570.53 1624.02 L2681.91 1612.64 L2793.28 1598.90 L2904.66 1582.19 L3016.03 1562.02 L3127.41 1537.64 L3238.78 1508.56 L3350.16 1473.66 L3461.53 1432.08 L3572.91 1382.70 L3684.28 1323.92 L3795.66 1254.49 L3795.66 1020.97 L3684.28 1139.77 L3572.91 1238.28 L3461.53 1319.83 L3350.16 1387.03 L3238.78 1442.35 L3127.41 1487.52 L3016.03 1524.28 L2904.66 1554.22 L2793.28 1578.48 L2681.91 1597.91 L2570.53 1613.63 L2459.04 1626.13 L2347.66 1636.15 L2236.29 1643.95 L2124.91 1650.13 L2013.54 1655.08 L1902.16 1658.80 L1790.79 1661.64 L1679.41 1663.99 L1568.04 1665.73 L1456.66 1667.09 L1345.29 1668.20 L1233.79 1669.07 L1122.41 1669.69 L1011.04 1670.18 L899.66 1670.68 L788.29 1670.92 L676.91 1671.17 L565.54 1671.42 L565.54 1671.67 Z" stroke-linecap="round" style="fill:#7171FF;stroke:#4D4DFF;stroke-width:3.00"/>
	<path d="M565.54 1671.54 L565.54 1671.54 L676.91 1671.42 L788.29 1671.30 L899.66 1670.92 L1011.04 1670.68 L1122.41 1670.18 L1233.79 1669.56 L1345.29 1668.82 L1456.66 1667.71 L1568.04 1666.47 L1679.41 1664.74 L1790.79 1662.51 L1902.16 1659.66 L2013.54 1656.32 L2124.91 1651.99 L2236.29 1646.79 L2347.66 1640.36 L2459.04 1632.44 L2570.53 1622.66 L2681.91 1610.78 L2793.28 1596.18 L2904.66 1578.48 L3016.03 1556.95 L3127.41 1531.08 L3238.78 1499.77 L3350.16 1462.28 L3461.53 1417.23 L3572.91 1363.52 L3684.28 1299.54 L3795.66 1223.55 L3795.66 1051.91 L3684.28 1164.15 L3572.91 1257.46 L3461.53 1334.81 L3350.16 1398.54 L3238.78 1451.14 L3127.41 1494.08 L3016.03 1529.35 L2904.66 1557.94 L2793.28 1581.20 L2681.91 1599.89 L2570.53 1614.99 L2459.04 1627.12 L2347.66 1636.77 L2236.29 1644.44 L2124.91 1650.51 L2013.54 1655.21 L1902.16 1658.92 L1790.79 1661.77 L1679.41 1664.12 L1568.04 1665.85 L1456.66 1667.21 L1345.29 1668.33 L1233.79 1669.07 L1122.41 1669.81 L1011.04 1670.31 L899.66 1670.68 L788.29 1671.05 L676.91 1671.17 L565.54 1671.42 L565.54 1671.54 Z" stroke-linecap="round" style="fill:#5C5CFF;stroke:#3333FF;stroke-width:3.00"/>
	<path d="M565.54 1671.54 L565.54 1671.54 L676.91 1671.42 L788.29 1671.17 L899.66 1670.92 L1011.04 1670.55 L1122.41 1670.06 L1233.79 1669.44 L1345.29 1668.70 L1456.66 1667.71 L1568.04 1666.35 L1679.41 1664.61 L1790.79 1662.39 L1902.16 1659.54 L2013.54 1656.07 L2124.91 1651.74 L2236.29 1646.42 L2347.66 1639.74 L2459.04 1631.45 L2570.53 1621.30 L2681.91 1608.92 L2793.28 1593.58 L2904.66 1574.89 L3016.03 1552.24 L3127.41 1524.77 L3238.78 1491.48 L3350.16 1451.26 L3461.53 1403.12 L3572.91 1345.33 L3684.28 1276.40 L3795.66 1194.22 L3795.66 1081.36 L3684.28 1187.29 L3572.91 1275.65 L3461.53 1348.92 L3350.16 1409.43 L3238.78 1459.43 L3127.41 1500.39 L3016.03 1534.05 L2904.66 1561.40 L2793.28 1583.68 L2681.91 1601.75 L2570.53 1616.35 L2459.04 1627.98 L2347.66 1637.39 L2236.29 1644.81 L2124.91 1650.75 L2013.54 1655.46 L1902.16 1659.04 L1790.79 1661.89 L1679.41 1664.12 L1568.04 1665.97 L1456.66 1667.34 L1345.29 1668.33 L1233.79 1669.19 L1122.41 1669.81 L1011.04 1670.31 L899.66 1670.68 L788.29 1671.05 L676.91 1671.30 L565.54 1671.42 L565.54 1671.54 Z" stroke-linecap="round" style="fill:#4747FF;stroke:#1919FF;stroke-width:3.00"/>
	<path d="M565.54 1671.54 L565.54 1671.54 L676.91 1671.42 L788.29 1671.17 L899.66 1670.92 L1011.04 1670.55 L1122.41 1670.06 L1233.79 1669.44 L1345.29 1668.57 L1456.66 1667.58 L1568.04 1666.22 L1679.41 1664.49 L1790.79 1662.26 L1902.16 1659.42 L2013.54 1655.95 L2124.91 1651.50 L2236.29 1646.05 L2347.66 1639.12 L2459.04 1630.58 L2570.53 1620.06 L2681.91 1607.07 L2793.28 1591.10 L2904.66 1571.55 L3016.03 1547.67 L3127.41 1518.58 L3238.78 1483.31 L3350.16 1440.74 L3461.53 1389.38 L3572.91 1327.76 L3684.28 1253.87 L3795.66 1165.76 L3795.66 1109.70 L3684.28 1209.82 L3572.91 1293.23 L3461.53 1362.53 L3350.16 1420.08 L3238.78 1467.47 L3127.41 1506.58 L3016.03 1538.63 L2904.66 1564.87 L2793.28 1586.15 L2681.91 1603.60 L2570.53 1617.59 L2459.04 1628.85 L2347.66 1638.01 L2236.29 1645.18 L2124.91 1651.00 L2013.54 1655.58 L1902.16 1659.17 L1790.79 1662.01 L1679.41 1664.24 L1568.04 1665.97 L1456.66 1667.34 L1345.29 1668.45 L1233.79 1669.32 L1122.41 1669.93 L1011.04 1670.43 L899.66 1670.80 L788.29 1671.05 L676.91 1671.30 L565.54 1671.42 L565.54 1671.54 Z" stroke-linecap="round" style="fill:#3333FF;stroke:#0000FF;stroke-width:3.00"/>
	<circle cx="565.41" cy="1670.68" r="22.03" style="fill:#000000;stroke:#000000;stroke-width:8.64"/>
	<circle cx="676.79" cy="1670.68" r="22.03" style="fill:#000000;stroke:#000000;stroke-width:8.64"/>
	<circle cx="788.29" cy="1670.68" r="22.03" style="fill:#000000;stroke:#000000;stroke-width:8.64"/>
	<circle cx="899.66" cy="1669.93" r="22.03" style="fill:#000000;stroke:#000000;stroke-width:8.64"/>
	<circle cx="1011.04" cy="1669.93" r="22.03" style="fill:#000000;stroke:#000000;stroke-width:8.64"/>
	<circle cx="1122.41" cy="1669.93" r="22.03" style="fill:#000000;stroke:#000000;stroke-width:8.64"/>
	<circle cx="1233.79" cy="1669.93" r="22.03" style="fill:#000000;stroke:#000000;stroke-width:8.64"/>
	<circle cx="1345.16" cy="1668.57" r="22.03" style="fill:#000000;stroke:#000000;stroke-width:8.64"/>
	<circle cx="1456.54" cy="1668.57" r="22.03" style="fill:#000000;stroke:#000000;stroke-width:8.64"/>
	<circle cx="1567.91" cy="1668.57" r="22.03" style="fill:#000000;stroke:#000000;stroke-width:8.64"/>
	<circle cx="1679.29" cy="1662.51" r="22.03" style="fill:#000000;stroke:#000000;stroke-width:8.64"/>
	<circle cx="1790.66" cy="1658.43" r="22.03" style="fill:#000000;stroke:#000000;stroke-width:8.64"/>
	<circle cx="1902.04" cy="1658.43" r="22.03" style="fill:#000000;stroke:#000000;stroke-width:8.64"/>
	<circle cx="2013.54" cy="1657.81" r="22.03" style="fill:#000000;stroke:#000000;stroke-width:8.64"/>
	<circle cx="2124.91" cy="1656.45" r="22.03" style="fill:#000000;stroke:#000000;stroke-width:8.64"/>
	<circle cx="2236.29" cy="1642.21" r="22.03" style="fill:#000000;stroke:#000000;stroke-width:8.64"/>
	<line x1="390.80" y1="2489.19" x2="390.80" y2="100.86" style="stroke:#000000;stroke-width:5.76"/>
	<line x1="390.80" y1="2425.82" x2="350.83" y2="2425.82" style="stroke:#000000;stroke-width:5.76"/>
	<text x="300.72" y="2425.82" style="font-family:'Helvetica';font-size:99.99px;fill:#000000" transform="rotate(-90 300.72,2425.82)" text-anchor="middle">-50</text>
	<line x1="390.80" y1="1671.91" x2="350.83" y2="1671.91" style="stroke:#000000;stroke-width:5.76"/>
	<text x="300.72" y="1671.91" style="font-family:'Helvetica';font-size:99.99px;fill:#000000" transform="rotate(-90 300.72,1671.91)" text-anchor="middle">0</text>
	<line x1="390.80" y1="918.01" x2="350.83" y2="918.01" style="stroke:#000000;stroke-width:5.76"/>
	<text x="300.72" y="918.01" style="font-family:'Helvetica';font-size:99.99px;fill:#000000" transform="rotate(-90 300.72,918.01)" text-anchor="middle">50</text>
	<line x1="390.80" y1="164.22" x2="350.83" y2="164.22" style="stroke:#000000;stroke-width:5.76"/>
	<text x="300.72" y="164.22" style="font-family:'Helvetica';font-size:99.99px;fill:#000000" transform="rotate(-90 300.72,164.22)" text-anchor="middle">100</text>
	<text x="190.71" y="1294.96" style="font-family:'Helvetica';font-size:99.99px;fill:#000000" transform="rotate(-90 190.71,1294.96)" text-anchor="middle">Confirmed cases per 100 beds</text>
	<line x1="390.80" y1="2489.19" x2="3859.02" y2="2489.19" style="stroke:#000000;stroke-width:5.76"/>
	<line x1="454.16" y1="2489.19" x2="454.16" y2="2529.16" style="stroke:#000000;stroke-width:5.76"/>
	<text x="454.16" y="2619.14" style="font-family:'Helvetica';font-size:99.99px;fill:#000000" text-anchor="middle">0</text>
	<line x1="1568.04" y1="2489.19" x2="1568.04" y2="2529.16" style="stroke:#000000;stroke-width:5.76"/>
	<text x="1568.04" y="2619.14" style="font-family:'Helvetica';font-size:99.99px;fill:#000000" text-anchor="middle">10</text>
	<line x1="2681.91" y1="2489.19" x2="2681.91" y2="2529.16" style="stroke:#000000;stroke-width:5.76"/>
	<text x="2681.91" y="2619.14" style="font-family:'Helvetica';font-size:99.99px;fill:#000000" text-anchor="middle">20</text>
	<line x1="3795.66" y1="2489.19" x2="3795.66" y2="2529.16" style="stroke:#000000;stroke-width:5.76"/>
	<text x="3795.66" y="2619.14" style="font-family:'Helvetica';font-size:99.99px;fill:#000000" text-anchor="middle">30</text>
	<text x="2124.91" y="2729.16" style="font-family:'Helvetica';font-size:99.99px;fill:#000000" text-anchor="middle">Days since 0.01 confirmed cases per 100 beds</text>
</svg>
