<?xml version="1.0" encoding="UTF-8" standalone="no"?>
<!-- This is a Stata 14.2 generated SVG file (http://www.stata.com) -->

<svg version="1.1" width="5.50in" height="4.00in" viewBox="0 0 3960 2880" xmlns="http://www.w3.org/2000/svg">
	<desc>Stata Graph - Graph</desc>
	<line x1="390.80" y1="-2097.50" x2="3859.02" y2="-2097.50" style="stroke:#FF0000;stroke-width:8.64"/>
	<path d="M495.87 2399.09 L495.87 2399.09 L537.69 2396.99 L579.40 2394.64 L621.23 2392.16 L662.93 2389.44 L704.76 2386.59 L746.58 2383.62 L788.29 2380.41 L830.12 2376.82 L871.82 2373.23 L913.65 2369.27 L955.35 2365.06 L997.18 2360.48 L1038.88 2355.65 L1080.71 2350.58 L1122.41 2345.14 L1164.24 2339.44 L1205.94 2333.26 L1247.77 2326.70 L1289.47 2319.77 L1331.30 2312.34 L1373.13 2304.42 L1414.83 2296.13 L1456.66 2287.34 L1498.37 2277.94 L1540.19 2268.04 L1581.90 2257.52 L1623.72 2246.38 L1665.43 2234.62 L1707.26 2222.12 L1748.96 2209.01 L1790.79 2195.15 L1832.49 2180.67 L1874.32 2165.32 L1916.02 2149.36 L1957.85 2132.53 L1999.68 2114.95 L2041.38 2096.76 L2083.21 2077.83 L2124.91 2058.27 L2166.74 2038.10 L2208.44 2017.44 L2250.27 1996.27 L2291.97 1974.62 L2333.80 1952.46 L2375.51 1929.82 L2417.33 1906.55 L2459.04 1882.67 L2500.86 1858.16 L2542.57 1832.92 L2584.40 1806.81 L2626.22 1779.95 L2667.93 1752.35 L2709.75 1723.77 L2751.46 1694.19 L2793.28 1663.62 L2834.99 1632.19 L2876.82 1599.52 L2918.52 1565.86 L2960.35 1530.96 L3002.05 1495.07 L3043.88 1457.82 L3085.58 1419.33 L3127.41 1379.61 L3169.11 1338.52 L3210.94 1296.20 L3252.77 1252.27 L3294.47 1207.10 L3336.30 1160.32 L3378.00 1112.05 L3378.00 264.21 L3336.30 375.59 L3294.47 481.53 L3252.77 582.39 L3210.94 678.29 L3169.11 769.63 L3127.41 856.50 L3085.58 939.04 L3043.88 1017.50 L3002.05 1092.13 L2960.35 1163.04 L2918.52 1230.36 L2876.82 1294.22 L2834.99 1354.86 L2793.28 1412.40 L2751.46 1466.98 L2709.75 1518.71 L2667.93 1567.71 L2626.22 1614.00 L2584.40 1657.93 L2542.57 1699.39 L2500.86 1738.49 L2459.04 1775.37 L2417.33 1810.15 L2375.51 1842.70 L2333.80 1873.39 L2291.97 1901.97 L2250.27 1928.83 L2208.44 1953.83 L2166.74 1977.22 L2124.91 1999.00 L2083.21 2019.42 L2041.38 2038.60 L1999.68 2056.54 L1957.85 2073.62 L1916.02 2089.71 L1874.32 2104.93 L1832.49 2119.41 L1790.79 2133.15 L1748.96 2146.39 L1707.26 2158.89 L1665.43 2170.89 L1623.72 2182.28 L1581.90 2193.29 L1540.19 2203.69 L1498.37 2213.71 L1456.66 2223.24 L1414.83 2232.52 L1373.13 2241.31 L1331.30 2249.60 L1289.47 2257.64 L1247.77 2265.44 L1205.94 2272.74 L1164.24 2279.79 L1122.41 2286.60 L1080.71 2293.04 L1038.88 2299.22 L997.18 2305.16 L955.35 2310.86 L913.65 2316.18 L871.82 2321.38 L830.12 2326.33 L788.29 2331.15 L746.58 2335.61 L704.76 2339.94 L662.93 2344.02 L621.23 2347.98 L579.40 2351.82 L537.69 2355.41 L495.87 2358.87 L495.87 2399.09 Z" stroke-linecap="round" style="fill:#EBEBFF;stroke:#E6E6FF;stroke-width:3.00"/>
	<path d="M495.87 2387.46 L495.87 2387.46 L537.69 2384.98 L579.40 2382.26 L621.23 2379.42 L662.93 2376.32 L704.76 2373.10 L746.58 2369.76 L788.29 2366.17 L830.12 2362.34 L871.82 2358.25 L913.65 2353.92 L955.35 2349.34 L997.18 2344.52 L1038.88 2339.44 L1080.71 2334.00 L1122.41 2328.31 L1164.24 2322.24 L1205.94 2315.81 L1247.77 2309.00 L1289.47 2301.82 L1331.30 2294.27 L1373.13 2286.23 L1414.83 2277.81 L1456.66 2268.78 L1498.37 2259.37 L1540.19 2249.47 L1581.90 2238.95 L1623.72 2227.82 L1665.43 2216.18 L1707.26 2203.93 L1748.96 2190.94 L1790.79 2177.33 L1832.49 2162.97 L1874.32 2147.87 L1916.02 2132.03 L1957.85 2115.45 L1999.68 2098.12 L2041.38 2079.93 L2083.21 2061.00 L2124.91 2041.20 L2166.74 2020.53 L2208.44 1999.12 L2250.27 1976.84 L2291.97 1953.70 L2333.80 1929.69 L2375.51 1904.70 L2417.33 1878.71 L2459.04 1851.73 L2500.86 1823.64 L2542.57 1794.31 L2584.40 1763.86 L2626.22 1732.06 L2667.93 1699.02 L2709.75 1664.49 L2751.46 1628.60 L2793.28 1591.10 L2834.99 1552.12 L2876.82 1511.41 L2918.52 1468.96 L2960.35 1424.78 L3002.05 1378.74 L3043.88 1330.73 L3085.58 1280.73 L3127.41 1228.63 L3169.11 1174.42 L3210.94 1117.87 L3252.77 1058.96 L3294.47 997.70 L3336.30 933.85 L3378.00 867.39 L3378.00 508.88 L3336.30 602.06 L3294.47 690.92 L3252.77 775.69 L3210.94 856.62 L3169.11 933.85 L3127.41 1007.48 L3085.58 1077.65 L3043.88 1144.60 L3002.05 1208.46 L2960.35 1269.22 L2918.52 1327.14 L2876.82 1382.33 L2834.99 1434.93 L2793.28 1484.92 L2751.46 1532.57 L2709.75 1577.86 L2667.93 1620.93 L2626.22 1661.89 L2584.40 1700.87 L2542.57 1737.88 L2500.86 1773.02 L2459.04 1806.31 L2417.33 1837.99 L2375.51 1867.82 L2333.80 1896.16 L2291.97 1923.01 L2250.27 1948.26 L2208.44 1972.14 L2166.74 1994.79 L2124.91 2016.07 L2083.21 2036.25 L2041.38 2055.30 L1999.68 2073.50 L1957.85 2090.57 L1916.02 2106.91 L1874.32 2122.38 L1832.49 2137.11 L1790.79 2151.09 L1748.96 2164.46 L1707.26 2177.08 L1665.43 2189.21 L1623.72 2200.84 L1581.90 2211.73 L1540.19 2222.25 L1498.37 2232.27 L1456.66 2241.80 L1414.83 2250.84 L1373.13 2259.50 L1331.30 2267.79 L1289.47 2275.59 L1247.77 2283.14 L1205.94 2290.19 L1164.24 2297.00 L1122.41 2303.55 L1080.71 2309.62 L1038.88 2315.56 L997.18 2321.13 L955.35 2326.45 L913.65 2331.52 L871.82 2336.35 L830.12 2340.93 L788.29 2345.26 L746.58 2349.47 L704.76 2353.43 L662.93 2357.14 L621.23 2360.73 L579.40 2364.19 L537.69 2367.41 L495.87 2370.51 L495.87 2387.46 Z" stroke-linecap="round" style="fill:#D6D6FF;stroke:#CCCCFF;stroke-width:3.00"/>
	<path d="M495.87 2385.60 L495.87 2385.60 L537.69 2383.00 L579.40 2380.28 L621.23 2377.31 L662.93 2374.22 L704.76 2371.00 L746.58 2367.54 L788.29 2363.82 L830.12 2359.99 L871.82 2355.78 L913.65 2351.45 L955.35 2346.87 L997.18 2341.92 L1038.88 2336.72 L1080.71 2331.28 L1122.41 2325.58 L1164.24 2319.39 L1205.94 2312.96 L1247.77 2306.15 L1289.47 2298.98 L1331.30 2291.30 L1373.13 2283.26 L1414.83 2274.84 L1456.66 2265.81 L1498.37 2256.40 L1540.19 2246.38 L1581.90 2235.98 L1623.72 2224.85 L1665.43 2213.21 L1707.26 2200.96 L1748.96 2187.97 L1790.79 2174.36 L1832.49 2160.12 L1874.32 2145.03 L1916.02 2129.31 L1957.85 2112.73 L1999.68 2095.40 L2041.38 2077.21 L2083.21 2058.27 L2124.91 2038.35 L2166.74 2017.68 L2208.44 1996.15 L2250.27 1973.63 L2291.97 1950.36 L2333.80 1925.98 L2375.51 1900.61 L2417.33 1874.25 L2459.04 1846.66 L2500.86 1818.07 L2542.57 1788.12 L2584.40 1756.93 L2626.22 1724.39 L2667.93 1690.35 L2709.75 1654.96 L2751.46 1617.96 L2793.28 1579.47 L2834.99 1539.13 L2876.82 1497.17 L2918.52 1453.37 L2960.35 1407.58 L3002.05 1359.93 L3043.88 1310.18 L3085.58 1258.33 L3127.41 1204.25 L3169.11 1147.82 L3210.94 1089.03 L3252.77 1027.65 L3294.47 963.80 L3336.30 897.22 L3378.00 827.79 L3378.00 548.48 L3336.30 638.69 L3294.47 724.83 L3252.77 807.00 L3210.94 885.46 L3169.11 960.45 L3127.41 1031.86 L3085.58 1100.05 L3043.88 1165.14 L3002.05 1227.27 L2960.35 1286.42 L2918.52 1342.85 L2876.82 1396.56 L2834.99 1447.80 L2793.28 1496.68 L2751.46 1543.21 L2709.75 1587.39 L2667.93 1629.59 L2626.22 1669.69 L2584.40 1707.80 L2542.57 1744.19 L2500.86 1778.59 L2459.04 1811.39 L2417.33 1842.45 L2375.51 1871.90 L2333.80 1899.87 L2291.97 1926.35 L2250.27 1951.47 L2208.44 1975.11 L2166.74 1997.63 L2124.91 2018.92 L2083.21 2038.97 L2041.38 2058.03 L1999.68 2076.22 L1957.85 2093.30 L1916.02 2109.63 L1874.32 2125.23 L1832.49 2139.95 L1790.79 2153.94 L1748.96 2167.30 L1707.26 2180.05 L1665.43 2192.18 L1623.72 2203.81 L1581.90 2214.82 L1540.19 2225.22 L1498.37 2235.24 L1456.66 2244.77 L1414.83 2253.81 L1373.13 2262.47 L1331.30 2270.64 L1289.47 2278.56 L1247.77 2285.98 L1205.94 2293.04 L1164.24 2299.84 L1122.41 2306.28 L1080.71 2312.34 L1038.88 2318.16 L997.18 2323.73 L955.35 2328.92 L913.65 2334.00 L871.82 2338.82 L830.12 2343.28 L788.29 2347.61 L746.58 2351.69 L704.76 2355.65 L662.93 2359.24 L621.23 2362.83 L579.40 2366.17 L537.69 2369.39 L495.87 2372.36 L495.87 2385.60 Z" stroke-linecap="round" style="fill:#C2C2FF;stroke:#B3B3FF;stroke-width:3.00"/>
	<path d="M495.87 2384.37 L495.87 2384.37 L537.69 2381.77 L579.40 2378.92 L621.23 2375.95 L662.93 2372.86 L704.76 2369.52 L746.58 2366.05 L788.29 2362.34 L830.12 2358.38 L871.82 2354.17 L913.65 2349.84 L955.35 2345.14 L997.18 2340.19 L1038.88 2334.99 L1080.71 2329.54 L1122.41 2323.73 L1164.24 2317.54 L1205.94 2311.10 L1247.77 2304.17 L1289.47 2297.00 L1331.30 2289.32 L1373.13 2281.28 L1414.83 2272.74 L1456.66 2263.83 L1498.37 2254.42 L1540.19 2244.40 L1581.90 2233.88 L1623.72 2222.87 L1665.43 2211.23 L1707.26 2198.98 L1748.96 2185.99 L1790.79 2172.50 L1832.49 2158.14 L1874.32 2143.17 L1916.02 2127.45 L1957.85 2110.87 L1999.68 2093.54 L2041.38 2075.35 L2083.21 2056.42 L2124.91 2036.49 L2166.74 2015.83 L2208.44 1994.17 L2250.27 1971.52 L2291.97 1948.01 L2333.80 1923.51 L2375.51 1897.89 L2417.33 1871.16 L2459.04 1843.31 L2500.86 1814.23 L2542.57 1783.91 L2584.40 1752.23 L2626.22 1719.19 L2667.93 1684.54 L2709.75 1648.53 L2751.46 1610.90 L2793.28 1571.55 L2834.99 1530.46 L2876.82 1487.52 L2918.52 1442.72 L2960.35 1396.07 L3002.05 1347.31 L3043.88 1296.32 L3085.58 1243.23 L3127.41 1187.79 L3169.11 1129.87 L3210.94 1069.48 L3252.77 1006.61 L3294.47 940.90 L3336.30 872.46 L3378.00 801.06 L3378.00 575.21 L3336.30 663.44 L3294.47 747.60 L3252.77 828.16 L3210.94 905.01 L3169.11 978.27 L3127.41 1048.32 L3085.58 1115.27 L3043.88 1179.00 L3002.05 1239.89 L2960.35 1298.05 L2918.52 1353.37 L2876.82 1406.22 L2834.99 1456.58 L2793.28 1504.60 L2751.46 1550.26 L2709.75 1593.95 L2667.93 1635.41 L2626.22 1674.88 L2584.40 1712.51 L2542.57 1748.39 L2500.86 1782.43 L2459.04 1814.73 L2417.33 1845.54 L2375.51 1874.62 L2333.80 1902.34 L2291.97 1928.70 L2250.27 1953.58 L2208.44 1977.22 L2166.74 1999.49 L2124.91 2020.78 L2083.21 2040.83 L2041.38 2059.88 L1999.68 2077.95 L1957.85 2095.15 L1916.02 2111.49 L1874.32 2127.08 L1832.49 2141.81 L1790.79 2155.92 L1748.96 2169.28 L1707.26 2182.03 L1665.43 2194.28 L1623.72 2205.79 L1581.90 2216.80 L1540.19 2227.32 L1498.37 2237.22 L1456.66 2246.75 L1414.83 2255.79 L1373.13 2264.45 L1331.30 2272.62 L1289.47 2280.41 L1247.77 2287.84 L1205.94 2294.89 L1164.24 2301.70 L1122.41 2308.13 L1080.71 2314.20 L1038.88 2319.89 L997.18 2325.46 L955.35 2330.66 L913.65 2335.61 L871.82 2340.43 L830.12 2344.89 L788.29 2349.22 L746.58 2353.18 L704.76 2357.02 L662.93 2360.73 L621.23 2364.19 L579.40 2367.54 L537.69 2370.63 L495.87 2373.60 L495.87 2384.37 Z" stroke-linecap="round" style="fill:#ADADFF;stroke:#9999FF;stroke-width:3.00"/>
	<path d="M495.87 2383.38 L495.87 2383.38 L537.69 2380.65 L579.40 2377.81 L621.23 2374.84 L662.93 2371.74 L704.76 2368.40 L746.58 2364.81 L788.29 2361.10 L830.12 2357.14 L871.82 2352.93 L913.65 2348.48 L955.35 2343.77 L997.18 2338.82 L1038.88 2333.63 L1080.71 2328.06 L1122.41 2322.24 L1164.24 2316.05 L1205.94 2309.49 L1247.77 2302.69 L1289.47 2295.39 L1331.30 2287.71 L1373.13 2279.67 L1414.83 2271.25 L1456.66 2262.22 L1498.37 2252.82 L1540.19 2242.79 L1581.90 2232.27 L1623.72 2221.26 L1665.43 2209.63 L1707.26 2197.37 L1748.96 2184.50 L1790.79 2170.89 L1832.49 2156.66 L1874.32 2141.68 L1916.02 2125.97 L1957.85 2109.38 L1999.68 2092.06 L2041.38 2073.99 L2083.21 2054.93 L2124.91 2035.01 L2166.74 2014.22 L2208.44 1992.56 L2250.27 1969.91 L2291.97 1946.15 L2333.80 1921.53 L2375.51 1895.66 L2417.33 1868.81 L2459.04 1840.59 L2500.86 1811.26 L2542.57 1780.57 L2584.40 1748.52 L2626.22 1714.98 L2667.93 1679.96 L2709.75 1643.33 L2751.46 1605.21 L2793.28 1565.24 L2834.99 1523.53 L2876.82 1479.85 L2918.52 1434.43 L2960.35 1386.79 L3002.05 1337.16 L3043.88 1285.31 L3085.58 1231.10 L3127.41 1174.67 L3169.11 1115.64 L3210.94 1054.01 L3252.77 989.78 L3294.47 922.71 L3336.30 852.79 L3378.00 779.77 L3378.00 596.49 L3336.30 683.00 L3294.47 765.79 L3252.77 844.87 L3210.94 920.36 L3169.11 992.63 L3127.41 1061.44 L3085.58 1127.27 L3043.88 1190.02 L3002.05 1250.04 L2960.35 1307.21 L2918.52 1361.79 L2876.82 1413.89 L2834.99 1463.51 L2793.28 1510.91 L2751.46 1555.96 L2709.75 1599.02 L2667.93 1639.99 L2626.22 1679.09 L2584.40 1716.22 L2542.57 1751.74 L2500.86 1785.40 L2459.04 1817.45 L2417.33 1847.89 L2375.51 1876.85 L2333.80 1904.32 L2291.97 1930.44 L2250.27 1955.31 L2208.44 1978.82 L2166.74 2001.10 L2124.91 2022.26 L2083.21 2042.31 L2041.38 2061.37 L1999.68 2079.44 L1957.85 2096.64 L1916.02 2112.97 L1874.32 2128.57 L1832.49 2143.42 L1790.79 2157.52 L1748.96 2170.89 L1707.26 2183.64 L1665.43 2195.76 L1623.72 2207.40 L1581.90 2218.41 L1540.19 2228.93 L1498.37 2238.83 L1456.66 2248.36 L1414.83 2257.39 L1373.13 2266.06 L1331.30 2274.22 L1289.47 2282.02 L1247.77 2289.45 L1205.94 2296.50 L1164.24 2303.18 L1122.41 2309.49 L1080.71 2315.56 L1038.88 2321.38 L997.18 2326.82 L955.35 2332.02 L913.65 2336.97 L871.82 2341.67 L830.12 2346.13 L788.29 2350.33 L746.58 2354.42 L704.76 2358.25 L662.93 2361.84 L621.23 2365.31 L579.40 2368.53 L537.69 2371.74 L495.87 2374.59 L495.87 2383.38 Z" stroke-linecap="round" style="fill:#9999FF;stroke:#8080FF;stroke-width:3.00"/>
	<path d="M495.87 2382.51 L495.87 2382.51 L537.69 2379.79 L579.40 2376.94 L621.23 2373.85 L662.93 2370.75 L704.76 2367.29 L746.58 2363.82 L788.29 2359.99 L830.12 2356.03 L871.82 2351.82 L913.65 2347.36 L955.35 2342.66 L997.18 2337.59 L1038.88 2332.39 L1080.71 2326.82 L1122.41 2321.00 L1164.24 2314.82 L1205.94 2308.26 L1247.77 2301.33 L1289.47 2294.15 L1331.30 2286.48 L1373.13 2278.31 L1414.83 2269.77 L1456.66 2260.86 L1498.37 2251.33 L1540.19 2241.43 L1581.90 2230.91 L1623.72 2219.90 L1665.43 2208.26 L1707.26 2196.01 L1748.96 2183.14 L1790.79 2169.53 L1832.49 2155.30 L1874.32 2140.32 L1916.02 2124.61 L1957.85 2108.15 L1999.68 2090.82 L2041.38 2072.75 L2083.21 2053.70 L2124.91 2033.77 L2166.74 2012.98 L2208.44 1991.20 L2250.27 1968.43 L2291.97 1944.67 L2333.80 1919.79 L2375.51 1893.81 L2417.33 1866.70 L2459.04 1838.36 L2500.86 1808.66 L2542.57 1777.72 L2584.40 1745.30 L2626.22 1711.39 L2667.93 1676.00 L2709.75 1639.00 L2751.46 1600.26 L2793.28 1559.79 L2834.99 1517.59 L2876.82 1473.29 L2918.52 1427.13 L2960.35 1378.87 L3002.05 1328.50 L3043.88 1275.90 L3085.58 1220.83 L3127.41 1163.41 L3169.11 1103.39 L3210.94 1040.77 L3252.77 975.43 L3294.47 907.12 L3336.30 835.96 L3378.00 761.58 L3378.00 614.69 L3336.30 699.95 L3294.47 781.38 L3252.77 859.22 L3210.94 933.72 L3169.11 1004.76 L3127.41 1072.70 L3085.58 1137.55 L3043.88 1199.55 L3002.05 1258.70 L2960.35 1315.13 L2918.52 1368.97 L2876.82 1420.45 L2834.99 1469.45 L2793.28 1516.23 L2751.46 1560.91 L2709.75 1603.48 L2667.93 1643.95 L2626.22 1682.68 L2584.40 1719.44 L2542.57 1754.58 L2500.86 1788.00 L2459.04 1819.68 L2417.33 1850.00 L2375.51 1878.71 L2333.80 1906.06 L2291.97 1932.05 L2250.27 1956.67 L2208.44 1980.19 L2166.74 2002.34 L2124.91 2023.50 L2083.21 2043.55 L2041.38 2062.61 L1999.68 2080.67 L1957.85 2098.00 L1916.02 2114.33 L1874.32 2129.93 L1832.49 2144.65 L1790.79 2158.76 L1748.96 2172.25 L1707.26 2185.00 L1665.43 2197.25 L1623.72 2208.76 L1581.90 2219.77 L1540.19 2230.29 L1498.37 2240.32 L1456.66 2249.72 L1414.83 2258.76 L1373.13 2267.42 L1331.30 2275.59 L1289.47 2283.38 L1247.77 2290.68 L1205.94 2297.74 L1164.24 2304.42 L1122.41 2310.86 L1080.71 2316.80 L1038.88 2322.61 L997.18 2328.06 L955.35 2333.26 L913.65 2338.08 L871.82 2342.78 L830.12 2347.24 L788.29 2351.45 L746.58 2355.41 L704.76 2359.24 L662.93 2362.83 L621.23 2366.30 L579.40 2369.52 L537.69 2372.61 L495.87 2375.46 L495.87 2382.51 Z" stroke-linecap="round" style="fill:#8585FF;stroke:#6666FF;stroke-width:3.00"/>
	<path d="M495.87 2381.64 L495.87 2381.64 L537.69 2378.92 L579.40 2376.07 L621.23 2373.10 L662.93 2369.89 L704.76 2366.42 L746.58 2362.83 L788.29 2359.00 L830.12 2355.04 L871.82 2350.83 L913.65 2346.25 L955.35 2341.55 L997.18 2336.60 L1038.88 2331.28 L1080.71 2325.71 L1122.41 2319.77 L1164.24 2313.58 L1205.94 2307.02 L1247.77 2300.21 L1289.47 2292.91 L1331.30 2285.24 L1373.13 2277.07 L1414.83 2268.66 L1456.66 2259.62 L1498.37 2250.09 L1540.19 2240.19 L1581.90 2229.67 L1623.72 2218.66 L1665.43 2207.03 L1707.26 2194.77 L1748.96 2181.90 L1790.79 2168.42 L1832.49 2154.18 L1874.32 2139.21 L1916.02 2123.49 L1957.85 2107.03 L1999.68 2089.71 L2041.38 2071.52 L2083.21 2052.58 L2124.91 2032.66 L2166.74 2011.74 L2208.44 1989.96 L2250.27 1967.07 L2291.97 1943.18 L2333.80 1918.31 L2375.51 1892.20 L2417.33 1864.85 L2459.04 1836.26 L2500.86 1806.31 L2542.57 1775.13 L2584.40 1742.45 L2626.22 1708.17 L2667.93 1672.41 L2709.75 1635.04 L2751.46 1595.93 L2793.28 1554.97 L2834.99 1512.15 L2876.82 1467.47 L2918.52 1420.69 L2960.35 1371.81 L3002.05 1320.70 L3043.88 1267.36 L3085.58 1211.55 L3127.41 1153.26 L3169.11 1092.50 L3210.94 1028.89 L3252.77 962.43 L3294.47 893.13 L3336.30 820.86 L3378.00 745.25 L3378.00 631.02 L3336.30 715.05 L3294.47 795.37 L3252.77 872.22 L3210.94 945.60 L3169.11 1015.77 L3127.41 1082.85 L3085.58 1146.83 L3043.88 1207.96 L3002.05 1266.37 L2960.35 1322.19 L2918.52 1375.52 L2876.82 1426.26 L2834.99 1474.77 L2793.28 1521.06 L2751.46 1565.24 L2709.75 1607.44 L2667.93 1647.54 L2626.22 1685.90 L2584.40 1722.28 L2542.57 1757.06 L2500.86 1790.22 L2459.04 1821.78 L2417.33 1851.85 L2375.51 1880.44 L2333.80 1907.54 L2291.97 1933.41 L2250.27 1958.03 L2208.44 1981.42 L2166.74 2003.58 L2124.91 2024.61 L2083.21 2044.66 L2041.38 2063.72 L1999.68 2081.79 L1957.85 2099.11 L1916.02 2115.45 L1874.32 2131.04 L1832.49 2145.89 L1790.79 2160.00 L1748.96 2173.49 L1707.26 2186.24 L1665.43 2198.36 L1623.72 2210.00 L1581.90 2221.01 L1540.19 2231.53 L1498.37 2241.55 L1456.66 2250.96 L1414.83 2259.99 L1373.13 2268.66 L1331.30 2276.82 L1289.47 2284.50 L1247.77 2291.92 L1205.94 2298.98 L1164.24 2305.53 L1122.41 2311.97 L1080.71 2317.91 L1038.88 2323.73 L997.18 2329.05 L955.35 2334.25 L913.65 2339.20 L871.82 2343.77 L830.12 2348.23 L788.29 2352.44 L746.58 2356.40 L704.76 2360.11 L662.93 2363.70 L621.23 2367.16 L579.40 2370.38 L537.69 2373.35 L495.87 2376.32 L495.87 2381.64 Z" stroke-linecap="round" style="fill:#7171FF;stroke:#4D4DFF;stroke-width:3.00"/>
	<path d="M495.87 2381.02 L495.87 2381.02 L537.69 2378.18 L579.40 2375.33 L621.23 2372.24 L662.93 2369.02 L704.76 2365.56 L746.58 2361.97 L788.29 2358.13 L830.12 2354.17 L871.82 2349.84 L913.65 2345.38 L955.35 2340.56 L997.18 2335.61 L1038.88 2330.29 L1080.71 2324.72 L1122.41 2318.78 L1164.24 2312.59 L1205.94 2306.03 L1247.77 2299.10 L1289.47 2291.80 L1331.30 2284.13 L1373.13 2275.96 L1414.83 2267.42 L1456.66 2258.51 L1498.37 2248.98 L1540.19 2239.08 L1581.90 2228.56 L1623.72 2217.55 L1665.43 2205.91 L1707.26 2193.66 L1748.96 2180.79 L1790.79 2167.30 L1832.49 2153.07 L1874.32 2138.10 L1916.02 2122.38 L1957.85 2105.92 L1999.68 2088.72 L2041.38 2070.53 L2083.21 2051.47 L2124.91 2031.54 L2166.74 2010.63 L2208.44 1988.85 L2250.27 1965.95 L2291.97 1941.95 L2333.80 1916.82 L2375.51 1890.59 L2417.33 1863.11 L2459.04 1834.28 L2500.86 1804.21 L2542.57 1772.77 L2584.40 1739.73 L2626.22 1705.20 L2667.93 1669.19 L2709.75 1631.32 L2751.46 1591.85 L2793.28 1550.51 L2834.99 1507.20 L2876.82 1462.03 L2918.52 1414.75 L2960.35 1365.25 L3002.05 1313.52 L3043.88 1259.44 L3085.58 1203.01 L3127.41 1143.98 L3169.11 1082.23 L3210.94 1017.88 L3252.77 950.55 L3294.47 880.26 L3336.30 806.75 L3378.00 730.15 L3378.00 646.12 L3336.30 729.03 L3294.47 808.36 L3252.77 884.22 L3210.94 956.62 L3169.11 1025.92 L3127.41 1092.13 L3085.58 1155.37 L3043.88 1215.88 L3002.05 1273.67 L2960.35 1328.75 L2918.52 1381.46 L2876.82 1431.71 L2834.99 1479.72 L2793.28 1525.64 L2751.46 1569.32 L2709.75 1611.03 L2667.93 1650.88 L2626.22 1688.87 L2584.40 1725.01 L2542.57 1759.53 L2500.86 1792.33 L2459.04 1823.76 L2417.33 1853.59 L2375.51 1881.93 L2333.80 1909.03 L2291.97 1934.77 L2250.27 1959.27 L2208.44 1982.54 L2166.74 2004.69 L2124.91 2025.73 L2083.21 2045.78 L2041.38 2064.83 L1999.68 2082.90 L1957.85 2100.10 L1916.02 2116.56 L1874.32 2132.16 L1832.49 2147.01 L1790.79 2161.11 L1748.96 2174.60 L1707.26 2187.35 L1665.43 2199.60 L1623.72 2211.11 L1581.90 2222.12 L1540.19 2232.64 L1498.37 2242.67 L1456.66 2252.07 L1414.83 2261.11 L1373.13 2269.77 L1331.30 2277.94 L1289.47 2285.61 L1247.77 2293.04 L1205.94 2299.97 L1164.24 2306.65 L1122.41 2312.96 L1080.71 2319.02 L1038.88 2324.72 L997.18 2330.04 L955.35 2335.24 L913.65 2340.06 L871.82 2344.76 L830.12 2349.10 L788.29 2353.30 L746.58 2357.26 L704.76 2360.98 L662.93 2364.57 L621.23 2367.91 L579.40 2371.12 L537.69 2374.09 L495.87 2376.94 L495.87 2381.02 Z" stroke-linecap="round" style="fill:#5C5CFF;stroke:#3333FF;stroke-width:3.00"/>
	<path d="M495.87 2380.28 L495.87 2380.28 L537.69 2377.56 L579.40 2374.59 L621.23 2371.50 L662.93 2368.28 L704.76 2364.81 L746.58 2361.22 L788.29 2357.26 L830.12 2353.30 L871.82 2348.97 L913.65 2344.39 L955.35 2339.69 L997.18 2334.62 L1038.88 2329.30 L1080.71 2323.73 L1122.41 2317.79 L1164.24 2311.60 L1205.94 2304.92 L1247.77 2297.99 L1289.47 2290.68 L1331.30 2283.01 L1373.13 2274.97 L1414.83 2266.43 L1456.66 2257.39 L1498.37 2247.87 L1540.19 2237.96 L1581.90 2227.45 L1623.72 2216.43 L1665.43 2204.80 L1707.26 2192.55 L1748.96 2179.68 L1790.79 2166.19 L1832.49 2152.08 L1874.32 2137.11 L1916.02 2121.39 L1957.85 2104.93 L1999.68 2087.73 L2041.38 2069.54 L2083.21 2050.48 L2124.91 2030.55 L2166.74 2009.64 L2208.44 1987.73 L2250.27 1964.72 L2291.97 1940.71 L2333.80 1915.46 L2375.51 1889.10 L2417.33 1861.51 L2459.04 1832.55 L2500.86 1802.23 L2542.57 1770.42 L2584.40 1737.26 L2626.22 1702.48 L2667.93 1665.97 L2709.75 1627.86 L2751.46 1588.01 L2793.28 1546.18 L2834.99 1502.50 L2876.82 1456.83 L2918.52 1409.06 L2960.35 1358.94 L3002.05 1306.72 L3043.88 1252.02 L3085.58 1194.84 L3127.41 1135.07 L3169.11 1072.57 L3210.94 1007.36 L3252.77 939.17 L3294.47 867.89 L3336.30 793.51 L3378.00 715.79 L3378.00 660.47 L3336.30 742.40 L3294.47 820.61 L3252.77 895.48 L3210.94 967.14 L3169.11 1035.57 L3127.41 1101.04 L3085.58 1163.53 L3043.88 1223.31 L3002.05 1280.48 L2960.35 1335.06 L2918.52 1387.16 L2876.82 1436.91 L2834.99 1484.43 L2793.28 1529.85 L2751.46 1573.16 L2709.75 1614.49 L2667.93 1653.97 L2626.22 1691.59 L2584.40 1727.48 L2542.57 1761.76 L2500.86 1794.43 L2459.04 1825.49 L2417.33 1855.19 L2375.51 1883.41 L2333.80 1910.39 L2291.97 1936.01 L2250.27 1960.39 L2208.44 1983.53 L2166.74 2005.68 L2124.91 2026.72 L2083.21 2046.77 L2041.38 2065.70 L1999.68 2083.89 L1957.85 2101.09 L1916.02 2117.55 L1874.32 2133.15 L1832.49 2148.00 L1790.79 2162.23 L1748.96 2175.59 L1707.26 2188.46 L1665.43 2200.59 L1623.72 2212.22 L1581.90 2223.24 L1540.19 2233.76 L1498.37 2243.78 L1456.66 2253.19 L1414.83 2262.22 L1373.13 2270.76 L1331.30 2278.93 L1289.47 2286.72 L1247.77 2294.03 L1205.94 2301.08 L1164.24 2307.64 L1122.41 2313.95 L1080.71 2320.01 L1038.88 2325.58 L997.18 2331.03 L955.35 2336.10 L913.65 2341.05 L871.82 2345.63 L830.12 2349.96 L788.29 2354.17 L746.58 2358.01 L704.76 2361.72 L662.93 2365.31 L621.23 2368.65 L579.40 2371.87 L537.69 2374.84 L495.87 2377.68 L495.87 2380.28 Z" stroke-linecap="round" style="fill:#4747FF;stroke:#1919FF;stroke-width:3.00"/>
	<path d="M495.87 2379.66 L495.87 2379.66 L537.69 2376.82 L579.40 2373.85 L621.23 2370.75 L662.93 2367.54 L704.76 2364.07 L746.58 2360.36 L788.29 2356.52 L830.12 2352.44 L871.82 2348.11 L913.65 2343.53 L955.35 2338.82 L997.18 2333.75 L1038.88 2328.43 L1080.71 2322.74 L1122.41 2316.80 L1164.24 2310.61 L1205.94 2303.93 L1247.77 2297.00 L1289.47 2289.69 L1331.30 2282.02 L1373.13 2273.85 L1414.83 2265.31 L1456.66 2256.28 L1498.37 2246.88 L1540.19 2236.85 L1581.90 2226.46 L1623.72 2215.32 L1665.43 2203.69 L1707.26 2191.56 L1748.96 2178.69 L1790.79 2165.20 L1832.49 2150.97 L1874.32 2136.12 L1916.02 2120.40 L1957.85 2103.94 L1999.68 2086.74 L2041.38 2068.55 L2083.21 2049.61 L2124.91 2029.56 L2166.74 2008.65 L2208.44 1986.74 L2250.27 1963.60 L2291.97 1939.47 L2333.80 1914.22 L2375.51 1887.62 L2417.33 1859.90 L2459.04 1830.81 L2500.86 1800.25 L2542.57 1768.32 L2584.40 1734.78 L2626.22 1699.76 L2667.93 1663.00 L2709.75 1624.52 L2751.46 1584.30 L2793.28 1542.10 L2834.99 1498.04 L2876.82 1451.76 L2918.52 1403.49 L2960.35 1353.00 L3002.05 1300.03 L3043.88 1244.84 L3085.58 1186.92 L3127.41 1126.53 L3169.11 1063.29 L3210.94 997.21 L3252.77 928.15 L3294.47 856.01 L3336.30 780.64 L3378.00 701.81 L3378.00 674.46 L3336.30 755.27 L3294.47 832.62 L3252.77 906.50 L3210.94 977.28 L3169.11 1044.98 L3127.41 1109.58 L3085.58 1171.45 L3043.88 1230.61 L3002.05 1287.04 L2960.35 1341.12 L2918.52 1392.73 L2876.82 1441.98 L2834.99 1489.01 L2793.28 1533.93 L2751.46 1576.87 L2709.75 1617.83 L2667.93 1657.06 L2626.22 1694.31 L2584.40 1729.96 L2542.57 1763.99 L2500.86 1796.41 L2459.04 1827.35 L2417.33 1856.80 L2375.51 1884.90 L2333.80 1911.63 L2291.97 1937.12 L2250.27 1961.50 L2208.44 1984.64 L2166.74 2006.67 L2124.91 2027.71 L2083.21 2047.63 L2041.38 2066.69 L1999.68 2084.88 L1957.85 2102.08 L1916.02 2118.54 L1874.32 2134.14 L1832.49 2148.99 L1790.79 2163.22 L1748.96 2176.71 L1707.26 2189.45 L1665.43 2201.71 L1623.72 2213.34 L1581.90 2224.35 L1540.19 2234.87 L1498.37 2244.77 L1456.66 2254.30 L1414.83 2263.33 L1373.13 2271.87 L1331.30 2280.04 L1289.47 2287.71 L1247.77 2295.02 L1205.94 2302.07 L1164.24 2308.63 L1122.41 2314.94 L1080.71 2320.88 L1038.88 2326.57 L997.18 2331.89 L955.35 2337.09 L913.65 2341.92 L871.82 2346.50 L830.12 2350.83 L788.29 2354.91 L746.58 2358.87 L704.76 2362.59 L662.93 2366.05 L621.23 2369.39 L579.40 2372.49 L537.69 2375.46 L495.87 2378.30 L495.87 2379.66 Z" stroke-linecap="round" style="fill:#3333FF;stroke:#0000FF;stroke-width:3.00"/>
	<circle cx="495.87" cy="2415.92" r="22.03" style="fill:#000000;stroke:#000000;stroke-width:8.64"/>
	<circle cx="537.57" cy="2415.92" r="22.03" style="fill:#000000;stroke:#000000;stroke-width:8.64"/>
	<circle cx="579.40" cy="2412.58" r="22.03" style="fill:#000000;stroke:#000000;stroke-width:8.64"/>
	<circle cx="621.10" cy="2412.58" r="22.03" style="fill:#000000;stroke:#000000;stroke-width:8.64"/>
	<circle cx="662.93" cy="2409.24" r="22.03" style="fill:#000000;stroke:#000000;stroke-width:8.64"/>
	<circle cx="704.76" cy="2402.56" r="22.03" style="fill:#000000;stroke:#000000;stroke-width:8.64"/>
	<circle cx="746.46" cy="2392.53" r="22.03" style="fill:#000000;stroke:#000000;stroke-width:8.64"/>
	<circle cx="788.29" cy="2382.51" r="22.03" style="fill:#000000;stroke:#000000;stroke-width:8.64"/>
	<circle cx="829.99" cy="2372.49" r="22.03" style="fill:#000000;stroke:#000000;stroke-width:8.64"/>
	<circle cx="871.82" cy="2365.80" r="22.03" style="fill:#000000;stroke:#000000;stroke-width:8.64"/>
	<circle cx="913.52" cy="2365.80" r="22.03" style="fill:#000000;stroke:#000000;stroke-width:8.64"/>
	<circle cx="955.35" cy="2365.80" r="22.03" style="fill:#000000;stroke:#000000;stroke-width:8.64"/>
	<circle cx="997.05" cy="2345.63" r="22.03" style="fill:#000000;stroke:#000000;stroke-width:8.64"/>
	<circle cx="1038.88" cy="2332.27" r="22.03" style="fill:#000000;stroke:#000000;stroke-width:8.64"/>
	<circle cx="1080.59" cy="2325.58" r="22.03" style="fill:#000000;stroke:#000000;stroke-width:8.64"/>
	<circle cx="1122.41" cy="2315.56" r="22.03" style="fill:#000000;stroke:#000000;stroke-width:8.64"/>
	<circle cx="1164.12" cy="2292.17" r="22.03" style="fill:#000000;stroke:#000000;stroke-width:8.64"/>
	<circle cx="1205.94" cy="2282.15" r="22.03" style="fill:#000000;stroke:#000000;stroke-width:8.64"/>
	<circle cx="1247.65" cy="2275.46" r="22.03" style="fill:#000000;stroke:#000000;stroke-width:8.64"/>
	<circle cx="1289.47" cy="2268.78" r="22.03" style="fill:#000000;stroke:#000000;stroke-width:8.64"/>
	<circle cx="1331.30" cy="2258.76" r="22.03" style="fill:#000000;stroke:#000000;stroke-width:8.64"/>
	<circle cx="1373.01" cy="2232.02" r="22.03" style="fill:#000000;stroke:#000000;stroke-width:8.64"/>
	<circle cx="1414.83" cy="2201.95" r="22.03" style="fill:#000000;stroke:#000000;stroke-width:8.64"/>
	<circle cx="1456.54" cy="2185.25" r="22.03" style="fill:#000000;stroke:#000000;stroke-width:8.64"/>
	<circle cx="1498.37" cy="2175.22" r="22.03" style="fill:#000000;stroke:#000000;stroke-width:8.64"/>
	<circle cx="1540.07" cy="2168.54" r="22.03" style="fill:#000000;stroke:#000000;stroke-width:8.64"/>
	<circle cx="1581.90" cy="2155.17" r="22.03" style="fill:#000000;stroke:#000000;stroke-width:8.64"/>
	<circle cx="1623.60" cy="2145.15" r="22.03" style="fill:#000000;stroke:#000000;stroke-width:8.64"/>
	<circle cx="1665.43" cy="2141.81" r="22.03" style="fill:#000000;stroke:#000000;stroke-width:8.64"/>
	<circle cx="1707.13" cy="2138.47" r="22.03" style="fill:#000000;stroke:#000000;stroke-width:8.64"/>
	<circle cx="1748.96" cy="2128.44" r="22.03" style="fill:#000000;stroke:#000000;stroke-width:8.64"/>
	<circle cx="1790.66" cy="2128.44" r="22.03" style="fill:#000000;stroke:#000000;stroke-width:8.64"/>
	<circle cx="1832.49" cy="2125.10" r="22.03" style="fill:#000000;stroke:#000000;stroke-width:8.64"/>
	<circle cx="1874.19" cy="2121.76" r="22.03" style="fill:#000000;stroke:#000000;stroke-width:8.64"/>
	<circle cx="1916.02" cy="2115.08" r="22.03" style="fill:#000000;stroke:#000000;stroke-width:8.64"/>
	<circle cx="1957.85" cy="2105.05" r="22.03" style="fill:#000000;stroke:#000000;stroke-width:8.64"/>
	<circle cx="1999.55" cy="2098.37" r="22.03" style="fill:#000000;stroke:#000000;stroke-width:8.64"/>
	<circle cx="2041.38" cy="2085.01" r="22.03" style="fill:#000000;stroke:#000000;stroke-width:8.64"/>
	<circle cx="2083.08" cy="2071.64" r="22.03" style="fill:#000000;stroke:#000000;stroke-width:8.64"/>
	<circle cx="2124.91" cy="2064.96" r="22.03" style="fill:#000000;stroke:#000000;stroke-width:8.64"/>
	<circle cx="2166.61" cy="2058.27" r="22.03" style="fill:#000000;stroke:#000000;stroke-width:8.64"/>
	<circle cx="2208.44" cy="2051.59" r="22.03" style="fill:#000000;stroke:#000000;stroke-width:8.64"/>
	<circle cx="2250.15" cy="2034.88" r="22.03" style="fill:#000000;stroke:#000000;stroke-width:8.64"/>
	<circle cx="2291.97" cy="1991.32" r="22.03" style="fill:#000000;stroke:#000000;stroke-width:8.64"/>
	<circle cx="2333.68" cy="1964.59" r="22.03" style="fill:#000000;stroke:#000000;stroke-width:8.64"/>
	<circle cx="2375.51" cy="1924.50" r="22.03" style="fill:#000000;stroke:#000000;stroke-width:8.64"/>
	<circle cx="2417.21" cy="1891.08" r="22.03" style="fill:#000000;stroke:#000000;stroke-width:8.64"/>
	<circle cx="2459.04" cy="1871.03" r="22.03" style="fill:#000000;stroke:#000000;stroke-width:8.64"/>
	<circle cx="2500.74" cy="1830.94" r="22.03" style="fill:#000000;stroke:#000000;stroke-width:8.64"/>
	<circle cx="2542.57" cy="1800.87" r="22.03" style="fill:#000000;stroke:#000000;stroke-width:8.64"/>
	<circle cx="2584.40" cy="1757.43" r="22.03" style="fill:#000000;stroke:#000000;stroke-width:8.64"/>
	<circle cx="2626.10" cy="1710.65" r="22.03" style="fill:#000000;stroke:#000000;stroke-width:8.64"/>
	<circle cx="2667.93" cy="1670.55" r="22.03" style="fill:#000000;stroke:#000000;stroke-width:8.64"/>
	<circle cx="2709.63" cy="1613.63" r="22.03" style="fill:#000000;stroke:#000000;stroke-width:8.64"/>
	<circle cx="2751.46" cy="1536.78" r="22.03" style="fill:#000000;stroke:#000000;stroke-width:8.64"/>
	<circle cx="2793.16" cy="1379.73" r="22.03" style="fill:#000000;stroke:#000000;stroke-width:8.64"/>
	<line x1="390.80" y1="2489.19" x2="390.80" y2="100.86" style="stroke:#000000;stroke-width:5.76"/>
	<line x1="390.80" y1="2425.82" x2="350.83" y2="2425.82" style="stroke:#000000;stroke-width:5.76"/>
	<text x="300.72" y="2425.82" style="font-family:'Helvetica';font-size:99.99px;fill:#000000" transform="rotate(-90 300.72,2425.82)" text-anchor="middle">0</text>
	<line x1="390.80" y1="1973.50" x2="350.83" y2="1973.50" style="stroke:#000000;stroke-width:5.76"/>
	<text x="300.72" y="1973.50" style="font-family:'Helvetica';font-size:99.99px;fill:#000000" transform="rotate(-90 300.72,1973.50)" text-anchor="middle">1</text>
	<line x1="390.80" y1="1521.18" x2="350.83" y2="1521.18" style="stroke:#000000;stroke-width:5.76"/>
	<text x="300.72" y="1521.18" style="font-family:'Helvetica';font-size:99.99px;fill:#000000" transform="rotate(-90 300.72,1521.18)" text-anchor="middle">2</text>
	<line x1="390.80" y1="1068.86" x2="350.83" y2="1068.86" style="stroke:#000000;stroke-width:5.76"/>
	<text x="300.72" y="1068.86" style="font-family:'Helvetica';font-size:99.99px;fill:#000000" transform="rotate(-90 300.72,1068.86)" text-anchor="middle">3</text>
	<line x1="390.80" y1="616.54" x2="350.83" y2="616.54" style="stroke:#000000;stroke-width:5.76"/>
	<text x="300.72" y="616.54" style="font-family:'Helvetica';font-size:99.99px;fill:#000000" transform="rotate(-90 300.72,616.54)" text-anchor="middle">4</text>
	<line x1="390.80" y1="164.22" x2="350.83" y2="164.22" style="stroke:#000000;stroke-width:5.76"/>
	<text x="300.72" y="164.22" style="font-family:'Helvetica';font-size:99.99px;fill:#000000" transform="rotate(-90 300.72,164.22)" text-anchor="middle">5</text>
	<text x="190.71" y="1294.96" style="font-family:'Helvetica';font-size:99.99px;fill:#000000" transform="rotate(-90 190.71,1294.96)" text-anchor="middle">Confirmed cases per 100 beds</text>
	<line x1="390.80" y1="2489.19" x2="3859.02" y2="2489.19" style="stroke:#000000;stroke-width:5.76"/>
	<line x1="454.16" y1="2489.19" x2="454.16" y2="2529.16" style="stroke:#000000;stroke-width:5.76"/>
	<text x="454.16" y="2619.14" style="font-family:'Helvetica';font-size:99.99px;fill:#000000" text-anchor="middle">0</text>
	<line x1="1289.47" y1="2489.19" x2="1289.47" y2="2529.16" style="stroke:#000000;stroke-width:5.76"/>
	<text x="1289.47" y="2619.14" style="font-family:'Helvetica';font-size:99.99px;fill:#000000" text-anchor="middle">20</text>
	<line x1="2124.91" y1="2489.19" x2="2124.91" y2="2529.16" style="stroke:#000000;stroke-width:5.76"/>
	<text x="2124.91" y="2619.14" style="font-family:'Helvetica';font-size:99.99px;fill:#000000" text-anchor="middle">40</text>
	<line x1="2960.35" y1="2489.19" x2="2960.35" y2="2529.16" style="stroke:#000000;stroke-width:5.76"/>
	<text x="2960.35" y="2619.14" style="font-family:'Helvetica';font-size:99.99px;fill:#000000" text-anchor="middle">60</text>
	<line x1="3795.66" y1="2489.19" x2="3795.66" y2="2529.16" style="stroke:#000000;stroke-width:5.76"/>
	<text x="3795.66" y="2619.14" style="font-family:'Helvetica';font-size:99.99px;fill:#000000" text-anchor="middle">80</text>
	<text x="2124.91" y="2729.16" style="font-family:'Helvetica';font-size:99.99px;fill:#000000" text-anchor="middle">Days since 0.01 confirmed cases per 100 beds</text>
</svg>
