<?xml version="1.0" encoding="UTF-8" standalone="no"?>
<!-- This is a Stata 14.2 generated SVG file (http://www.stata.com) -->

<svg version="1.1" width="5.50in" height="4.00in" viewBox="0 0 3960 2880" xmlns="http://www.w3.org/2000/svg">
	<desc>Stata Graph - Graph</desc>
	<line x1="390.80" y1="-3084.94" x2="3859.02" y2="-3084.94" style="stroke:#FF0000;stroke-width:8.64"/>
	<path d="M565.54 2423.60 L565.54 2423.60 L676.91 2423.97 L788.29 2425.82 L899.66 2424.34 L1011.04 2394.14 L1122.41 2297.24 L1233.79 2118.79 L1345.29 1883.91 L1456.66 1637.39 L1568.04 1403.49 L1679.41 1194.10 L1790.79 1026.79 L1902.16 907.49 L2013.54 826.18 L2124.91 771.98 L2236.29 736.71 L2347.66 714.43 L2459.04 700.69 L2570.53 692.53 L2681.91 687.95 L2793.28 685.47 L2904.66 684.36 L3016.03 683.99 L3127.41 683.99 L3238.78 684.36 L3350.16 684.73 L3461.53 685.10 L3572.91 685.35 L3572.91 164.22 L3461.53 167.07 L3350.16 171.03 L3238.78 176.35 L3127.41 183.53 L3016.03 193.18 L2904.66 206.17 L2793.28 223.62 L2681.91 246.89 L2570.53 277.83 L2459.04 318.67 L2347.66 372.25 L2236.29 441.93 L2124.91 531.28 L2013.54 643.64 L1902.16 781.63 L1790.79 944.61 L1679.41 1129.25 L1568.04 1339.88 L1456.66 1577.61 L1345.29 1817.57 L1233.79 2028.94 L1122.41 2198.36 L1011.04 2318.28 L899.66 2387.34 L788.29 2415.68 L676.91 2422.73 L565.54 2423.47 L565.54 2423.60 Z" stroke-linecap="round" style="fill:#EBEBFF;stroke:#E6E6FF;stroke-width:3.00"/>
	<path d="M565.54 2423.47 L565.54 2423.47 L676.91 2423.60 L788.29 2422.98 L899.66 2413.70 L1011.04 2372.24 L1122.41 2268.66 L1233.79 2092.80 L1345.29 1864.72 L1456.66 1620.06 L1568.04 1385.05 L1679.41 1175.41 L1790.79 1003.03 L1902.16 871.23 L2013.54 773.46 L2124.91 702.55 L2236.29 651.69 L2347.66 615.68 L2459.04 590.43 L2570.53 572.86 L2681.91 560.61 L2793.28 552.19 L2904.66 546.37 L3016.03 542.29 L3127.41 539.57 L3238.78 537.71 L3350.16 536.47 L3461.53 535.61 L3572.91 534.99 L3572.91 314.58 L3461.53 316.56 L3350.16 319.28 L3238.78 322.87 L3127.41 327.95 L3016.03 334.88 L2904.66 344.16 L2793.28 356.91 L2681.91 374.11 L2570.53 397.50 L2459.04 428.93 L2347.66 471.01 L2236.29 527.07 L2124.91 600.70 L2013.54 696.36 L1902.16 818.01 L1790.79 968.25 L1679.41 1147.94 L1568.04 1358.20 L1456.66 1594.82 L1345.29 1836.75 L1233.79 2054.81 L1122.41 2226.95 L1011.04 2340.19 L899.66 2398.10 L788.29 2418.65 L676.91 2423.10 L565.54 2423.47 L565.54 2423.47 Z" stroke-linecap="round" style="fill:#D6D6FF;stroke:#CCCCFF;stroke-width:3.00"/>
	<path d="M565.54 2423.47 L565.54 2423.47 L676.91 2423.47 L788.29 2422.48 L899.66 2411.96 L1011.04 2368.65 L1122.41 2264.08 L1233.79 2088.59 L1345.29 1861.63 L1456.66 1617.34 L1568.04 1382.08 L1679.41 1172.32 L1790.79 999.19 L1902.16 865.29 L2013.54 764.92 L2124.91 691.29 L2236.29 637.95 L2347.66 599.71 L2459.04 572.61 L2570.53 553.43 L2681.91 540.06 L2793.28 530.53 L2904.66 523.97 L3016.03 519.39 L3127.41 516.18 L3238.78 513.95 L3350.16 512.46 L3461.53 511.35 L3572.91 510.61 L3572.91 338.96 L3461.53 340.69 L3350.16 343.29 L3238.78 346.63 L3127.41 351.34 L3016.03 357.77 L2904.66 366.44 L2793.28 378.44 L2681.91 394.77 L2570.53 416.80 L2459.04 446.75 L2347.66 486.97 L2236.29 540.80 L2124.91 611.96 L2013.54 704.90 L1902.16 823.83 L1790.79 972.09 L1679.41 1151.03 L1568.04 1361.17 L1456.66 1597.66 L1345.29 1839.85 L1233.79 2059.02 L1122.41 2231.53 L1011.04 2343.77 L899.66 2399.83 L788.29 2419.14 L676.91 2423.10 L565.54 2423.47 L565.54 2423.47 Z" stroke-linecap="round" style="fill:#C2C2FF;stroke:#B3B3FF;stroke-width:3.00"/>
	<path d="M565.54 2423.47 L565.54 2423.47 L676.91 2423.47 L788.29 2422.11 L899.66 2410.85 L1011.04 2366.30 L1122.41 2260.98 L1233.79 2085.75 L1345.29 1859.53 L1456.66 1615.48 L1568.04 1380.10 L1679.41 1170.34 L1790.79 996.59 L1902.16 861.33 L2013.54 759.23 L2124.91 683.74 L2236.29 628.67 L2347.66 588.94 L2459.04 560.61 L2570.53 540.43 L2681.91 526.08 L2793.28 516.05 L2904.66 508.88 L3016.03 503.93 L3127.41 500.46 L3238.78 497.99 L3350.16 496.25 L3461.53 495.02 L3572.91 494.27 L3572.91 355.30 L3461.53 357.03 L3350.16 359.38 L3238.78 362.60 L3127.41 367.05 L3016.03 373.24 L2904.66 381.53 L2793.28 393.04 L2681.91 408.64 L2570.53 429.92 L2459.04 458.76 L2347.66 497.86 L2236.29 550.09 L2124.91 619.51 L2013.54 710.59 L1902.16 827.79 L1790.79 974.69 L1679.41 1153.01 L1568.04 1363.15 L1456.66 1599.52 L1345.29 1841.95 L1233.79 2061.86 L1122.41 2234.62 L1011.04 2346.13 L899.66 2400.95 L788.29 2419.39 L676.91 2423.10 L565.54 2423.47 L565.54 2423.47 Z" stroke-linecap="round" style="fill:#ADADFF;stroke:#9999FF;stroke-width:3.00"/>
	<path d="M565.54 2423.47 L565.54 2423.47 L676.91 2423.47 L788.29 2421.86 L899.66 2409.86 L1011.04 2364.44 L1122.41 2258.51 L1233.79 2083.52 L1345.29 1857.92 L1456.66 1613.87 L1568.04 1378.49 L1679.41 1168.73 L1790.79 994.61 L1902.16 858.23 L2013.54 754.65 L2124.91 677.68 L2236.29 621.24 L2347.66 580.41 L2459.04 550.95 L2570.53 530.04 L2681.91 515.06 L2793.28 504.42 L2904.66 497.00 L3016.03 491.67 L3127.41 487.96 L3238.78 485.24 L3350.16 483.38 L3461.53 482.15 L3572.91 481.16 L3572.91 368.42 L3461.53 370.02 L3350.16 372.25 L3238.78 375.35 L3127.41 379.68 L3016.03 385.49 L2904.66 393.54 L2793.28 404.55 L2681.91 419.65 L2570.53 440.32 L2459.04 468.41 L2347.66 506.40 L2236.29 557.51 L2124.91 625.58 L2013.54 715.17 L1902.16 831.01 L1790.79 976.79 L1679.41 1154.62 L1568.04 1364.76 L1456.66 1601.00 L1345.29 1843.56 L1233.79 2064.09 L1122.41 2237.10 L1011.04 2347.98 L899.66 2401.82 L788.29 2419.64 L676.91 2423.22 L565.54 2423.47 L565.54 2423.47 Z" stroke-linecap="round" style="fill:#9999FF;stroke:#8080FF;stroke-width:3.00"/>
	<path d="M565.54 2423.47 L565.54 2423.47 L676.91 2423.47 L788.29 2421.62 L899.66 2409.12 L1011.04 2362.83 L1122.41 2256.40 L1233.79 2081.66 L1345.29 1856.43 L1456.66 1612.64 L1568.04 1377.13 L1679.41 1167.25 L1790.79 992.88 L1902.16 855.51 L2013.54 750.69 L2124.91 672.48 L2236.29 614.93 L2347.66 572.98 L2459.04 542.78 L2570.53 521.13 L2681.91 505.66 L2793.28 494.52 L2904.66 486.72 L3016.03 481.16 L3127.41 477.19 L3238.78 474.35 L3350.16 472.37 L3461.53 471.01 L3572.91 470.02 L3572.91 379.55 L3461.53 381.16 L3350.16 383.27 L3238.78 386.24 L3127.41 390.32 L3016.03 396.01 L2904.66 403.81 L2793.28 414.45 L2681.91 429.18 L2570.53 449.23 L2459.04 476.58 L2347.66 513.70 L2236.29 563.82 L2124.91 630.77 L2013.54 719.13 L1902.16 833.61 L1790.79 978.52 L1679.41 1155.98 L1568.04 1366.12 L1456.66 1602.24 L1345.29 1844.92 L1233.79 2066.07 L1122.41 2239.20 L1011.04 2349.59 L899.66 2402.68 L788.29 2419.88 L676.91 2423.22 L565.54 2423.47 L565.54 2423.47 Z" stroke-linecap="round" style="fill:#8585FF;stroke:#6666FF;stroke-width:3.00"/>
	<path d="M565.54 2423.47 L565.54 2423.47 L676.91 2423.35 L788.29 2421.49 L899.66 2408.37 L1011.04 2361.35 L1122.41 2254.42 L1233.79 2079.93 L1345.29 1855.19 L1456.66 1611.52 L1568.04 1375.90 L1679.41 1166.01 L1790.79 991.27 L1902.16 853.04 L2013.54 747.23 L2124.91 667.90 L2236.29 609.24 L2347.66 566.42 L2459.04 535.48 L2570.53 513.08 L2681.91 497.12 L2793.28 485.61 L2904.66 477.44 L3016.03 471.63 L3127.41 467.54 L3238.78 464.57 L3350.16 462.47 L3461.53 460.98 L3572.91 459.87 L3572.91 389.70 L3461.53 391.19 L3350.16 393.17 L3238.78 396.14 L3127.41 400.10 L3016.03 405.54 L2904.66 412.97 L2793.28 423.36 L2681.91 437.59 L2570.53 457.27 L2459.04 484.00 L2347.66 520.39 L2236.29 569.52 L2124.91 635.35 L2013.54 722.60 L1902.16 836.08 L1790.79 980.13 L1679.41 1157.35 L1568.04 1367.36 L1456.66 1603.48 L1345.29 1846.28 L1233.79 2067.80 L1122.41 2241.18 L1011.04 2351.08 L899.66 2403.42 L788.29 2420.13 L676.91 2423.22 L565.54 2423.47 L565.54 2423.47 Z" stroke-linecap="round" style="fill:#7171FF;stroke:#4D4DFF;stroke-width:3.00"/>
	<path d="M565.54 2423.47 L565.54 2423.47 L676.91 2423.35 L788.29 2421.24 L899.66 2407.76 L1011.04 2359.99 L1122.41 2252.69 L1233.79 2078.32 L1345.29 1853.96 L1456.66 1610.41 L1568.04 1374.78 L1679.41 1164.90 L1790.79 989.78 L1902.16 850.81 L2013.54 744.01 L2124.91 663.57 L2236.29 603.92 L2347.66 560.36 L2459.04 528.55 L2570.53 505.66 L2681.91 489.20 L2793.28 477.44 L2904.66 468.90 L3016.03 462.84 L3127.41 458.51 L3238.78 455.41 L3350.16 453.31 L3461.53 451.70 L3572.91 450.59 L3572.91 398.98 L3461.53 400.47 L3350.16 402.45 L3238.78 405.17 L3127.41 409.01 L3016.03 414.20 L2904.66 421.63 L2793.28 431.65 L2681.91 445.51 L2570.53 464.57 L2459.04 490.81 L2347.66 526.45 L2236.29 574.71 L2124.91 639.68 L2013.54 725.94 L1902.16 838.31 L1790.79 981.62 L1679.41 1158.46 L1568.04 1368.47 L1456.66 1604.47 L1345.29 1847.40 L1233.79 2069.41 L1122.41 2242.92 L1011.04 2352.44 L899.66 2404.04 L788.29 2420.25 L676.91 2423.22 L565.54 2423.47 L565.54 2423.47 Z" stroke-linecap="round" style="fill:#5C5CFF;stroke:#3333FF;stroke-width:3.00"/>
	<path d="M565.54 2423.47 L565.54 2423.47 L676.91 2423.35 L788.29 2421.12 L899.66 2407.01 L1011.04 2358.62 L1122.41 2251.08 L1233.79 2076.71 L1345.29 1852.84 L1456.66 1609.42 L1568.04 1373.79 L1679.41 1163.78 L1790.79 988.42 L1902.16 848.70 L2013.54 740.91 L2124.91 659.48 L2236.29 598.97 L2347.66 554.54 L2459.04 522.12 L2570.53 498.60 L2681.91 481.77 L2793.28 469.52 L2904.66 460.86 L3016.03 454.55 L3127.41 450.09 L3238.78 446.88 L3350.16 444.52 L3461.53 442.92 L3572.91 441.80 L3572.91 407.77 L3461.53 409.25 L3350.16 411.11 L3238.78 413.83 L3127.41 417.42 L3016.03 422.62 L2904.66 429.67 L2793.28 439.45 L2681.91 453.06 L2570.53 471.63 L2459.04 497.24 L2347.66 532.27 L2236.29 579.79 L2124.91 643.77 L2013.54 729.03 L1902.16 840.54 L1790.79 982.98 L1679.41 1159.57 L1568.04 1369.58 L1456.66 1605.46 L1345.29 1848.51 L1233.79 2070.90 L1122.41 2244.65 L1011.04 2353.80 L899.66 2404.66 L788.29 2420.50 L676.91 2423.22 L565.54 2423.47 L565.54 2423.47 Z" stroke-linecap="round" style="fill:#4747FF;stroke:#1919FF;stroke-width:3.00"/>
	<path d="M565.54 2423.47 L565.54 2423.47 L676.91 2423.35 L788.29 2421.00 L899.66 2406.52 L1011.04 2357.39 L1122.41 2249.35 L1233.79 2075.35 L1345.29 1851.73 L1456.66 1608.43 L1568.04 1372.68 L1679.41 1162.67 L1790.79 987.06 L1902.16 846.60 L2013.54 737.82 L2124.91 655.52 L2236.29 594.14 L2347.66 548.85 L2459.04 515.81 L2570.53 491.80 L2681.91 474.47 L2793.28 461.97 L2904.66 452.94 L3016.03 446.50 L3127.41 441.80 L3238.78 438.46 L3350.16 436.11 L3461.53 434.38 L3572.91 433.26 L3572.91 416.31 L3461.53 417.67 L3350.16 419.53 L3238.78 422.12 L3127.41 425.71 L3016.03 430.66 L2904.66 437.47 L2793.28 447.00 L2681.91 460.24 L2570.53 478.43 L2459.04 503.55 L2347.66 537.83 L2236.29 584.61 L2124.91 647.73 L2013.54 732.00 L1902.16 842.52 L1790.79 984.34 L1679.41 1160.56 L1568.04 1370.70 L1456.66 1606.45 L1345.29 1849.63 L1233.79 2072.38 L1122.41 2246.26 L1011.04 2355.04 L899.66 2405.28 L788.29 2420.63 L676.91 2423.35 L565.54 2423.47 L565.54 2423.47 Z" stroke-linecap="round" style="fill:#3333FF;stroke:#0000FF;stroke-width:3.00"/>
	<circle cx="565.41" cy="2417.78" r="22.03" style="fill:#000000;stroke:#000000;stroke-width:8.64"/>
	<circle cx="676.79" cy="2388.82" r="22.03" style="fill:#000000;stroke:#000000;stroke-width:8.64"/>
	<circle cx="788.29" cy="2371.50" r="22.03" style="fill:#000000;stroke:#000000;stroke-width:8.64"/>
	<circle cx="899.66" cy="2354.05" r="22.03" style="fill:#000000;stroke:#000000;stroke-width:8.64"/>
	<circle cx="1011.04" cy="2330.90" r="22.03" style="fill:#000000;stroke:#000000;stroke-width:8.64"/>
	<circle cx="1122.41" cy="2244.03" r="22.03" style="fill:#000000;stroke:#000000;stroke-width:8.64"/>
	<circle cx="1233.79" cy="2093.42" r="22.03" style="fill:#000000;stroke:#000000;stroke-width:8.64"/>
	<circle cx="1345.16" cy="1867.57" r="22.03" style="fill:#000000;stroke:#000000;stroke-width:8.64"/>
	<circle cx="1456.54" cy="1606.82" r="22.03" style="fill:#000000;stroke:#000000;stroke-width:8.64"/>
	<circle cx="1567.91" cy="1375.15" r="22.03" style="fill:#000000;stroke:#000000;stroke-width:8.64"/>
	<circle cx="1679.29" cy="1155.12" r="22.03" style="fill:#000000;stroke:#000000;stroke-width:8.64"/>
	<circle cx="1790.66" cy="958.10" r="22.03" style="fill:#000000;stroke:#000000;stroke-width:8.64"/>
	<circle cx="1902.04" cy="830.76" r="22.03" style="fill:#000000;stroke:#000000;stroke-width:8.64"/>
	<circle cx="2013.54" cy="767.03" r="22.03" style="fill:#000000;stroke:#000000;stroke-width:8.64"/>
	<line x1="390.80" y1="2489.19" x2="390.80" y2="100.86" style="stroke:#000000;stroke-width:5.76"/>
	<line x1="390.80" y1="2423.47" x2="350.83" y2="2423.47" style="stroke:#000000;stroke-width:5.76"/>
	<text x="300.72" y="2423.47" style="font-family:'Helvetica';font-size:99.99px;fill:#000000" transform="rotate(-90 300.72,2423.47)" text-anchor="middle">0</text>
	<line x1="390.80" y1="1872.64" x2="350.83" y2="1872.64" style="stroke:#000000;stroke-width:5.76"/>
	<text x="300.72" y="1872.64" style="font-family:'Helvetica';font-size:99.99px;fill:#000000" transform="rotate(-90 300.72,1872.64)" text-anchor="middle">1</text>
	<line x1="390.80" y1="1321.82" x2="350.83" y2="1321.82" style="stroke:#000000;stroke-width:5.76"/>
	<text x="300.72" y="1321.82" style="font-family:'Helvetica';font-size:99.99px;fill:#000000" transform="rotate(-90 300.72,1321.82)" text-anchor="middle">2</text>
	<line x1="390.80" y1="770.99" x2="350.83" y2="770.99" style="stroke:#000000;stroke-width:5.76"/>
	<text x="300.72" y="770.99" style="font-family:'Helvetica';font-size:99.99px;fill:#000000" transform="rotate(-90 300.72,770.99)" text-anchor="middle">3</text>
	<line x1="390.80" y1="220.16" x2="350.83" y2="220.16" style="stroke:#000000;stroke-width:5.76"/>
	<text x="300.72" y="220.16" style="font-family:'Helvetica';font-size:99.99px;fill:#000000" transform="rotate(-90 300.72,220.16)" text-anchor="middle">4</text>
	<text x="190.71" y="1294.96" style="font-family:'Helvetica';font-size:99.99px;fill:#000000" transform="rotate(-90 190.71,1294.96)" text-anchor="middle">Confirmed cases per 100 beds</text>
	<line x1="390.80" y1="2489.19" x2="3859.02" y2="2489.19" style="stroke:#000000;stroke-width:5.76"/>
	<line x1="454.16" y1="2489.19" x2="454.16" y2="2529.16" style="stroke:#000000;stroke-width:5.76"/>
	<text x="454.16" y="2619.14" style="font-family:'Helvetica';font-size:99.99px;fill:#000000" text-anchor="middle">0</text>
	<line x1="1568.04" y1="2489.19" x2="1568.04" y2="2529.16" style="stroke:#000000;stroke-width:5.76"/>
	<text x="1568.04" y="2619.14" style="font-family:'Helvetica';font-size:99.99px;fill:#000000" text-anchor="middle">10</text>
	<line x1="2681.91" y1="2489.19" x2="2681.91" y2="2529.16" style="stroke:#000000;stroke-width:5.76"/>
	<text x="2681.91" y="2619.14" style="font-family:'Helvetica';font-size:99.99px;fill:#000000" text-anchor="middle">20</text>
	<line x1="3795.66" y1="2489.19" x2="3795.66" y2="2529.16" style="stroke:#000000;stroke-width:5.76"/>
	<text x="3795.66" y="2619.14" style="font-family:'Helvetica';font-size:99.99px;fill:#000000" text-anchor="middle">30</text>
	<text x="2124.91" y="2729.16" style="font-family:'Helvetica';font-size:99.99px;fill:#000000" text-anchor="middle">Days since 0.01 confirmed cases per 100 beds</text>
</svg>
