<?xml version="1.0" encoding="UTF-8" standalone="no"?>
<!-- This is a Stata 14.2 generated SVG file (http://www.stata.com) -->

<svg version="1.1" width="5.50in" height="4.00in" viewBox="0 0 3960 2880" xmlns="http://www.w3.org/2000/svg">
	<desc>Stata Graph - Graph</desc>
	<line x1="390.80" y1="-544.52" x2="3859.02" y2="-544.52" style="stroke:#FF0000;stroke-width:8.64"/>
	<path d="M587.81 2425.82 L587.81 2425.82 L721.46 2413.32 L855.11 2371.74 L988.76 2296.62 L1122.41 2203.56 L1256.06 2103.44 L1389.84 1988.11 L1523.49 1858.04 L1657.14 1730.95 L1790.79 1641.22 L1924.44 1595.06 L2058.09 1578.11 L2191.74 1580.58 L2325.39 1595.81 L2459.04 1618.70 L2592.81 1645.43 L2726.46 1673.28 L2860.11 1700.50 L2993.76 1726.12 L3127.41 1749.38 L3261.06 1770.18 L3394.71 1788.37 L3528.36 1804.08 L3662.01 1817.57 L3662.01 164.22 L3528.36 191.32 L3394.71 224.49 L3261.06 264.71 L3127.41 313.22 L2993.76 371.63 L2860.11 441.18 L2726.46 523.48 L2592.81 619.88 L2459.04 731.39 L2325.39 858.23 L2191.74 999.81 L2058.09 1153.51 L1924.44 1314.76 L1790.79 1473.91 L1657.14 1614.49 L1523.49 1736.64 L1389.84 1864.72 L1256.06 2002.09 L1122.41 2132.03 L988.76 2230.17 L855.11 2296.62 L721.46 2345.51 L587.81 2380.90 L587.81 2425.82 Z" stroke-linecap="round" style="fill:#EBEBFF;stroke:#E6E6FF;stroke-width:3.00"/>
	<path d="M587.81 2412.83 L587.81 2412.83 L721.46 2393.77 L855.11 2350.09 L988.76 2277.44 L1122.41 2182.89 L1256.06 2074.11 L1389.84 1952.46 L1523.49 1823.02 L1657.14 1697.28 L1790.79 1592.96 L1924.44 1514.13 L2058.09 1455.59 L2191.74 1413.02 L2325.39 1382.95 L2459.04 1362.65 L2592.81 1349.41 L2726.46 1341.37 L2860.11 1337.04 L2993.76 1335.18 L3127.41 1334.93 L3261.06 1335.68 L3394.71 1337.04 L3528.36 1338.65 L3662.01 1340.38 L3662.01 641.29 L3528.36 656.76 L3394.71 675.82 L3261.06 699.21 L3127.41 727.67 L2993.76 762.45 L2860.11 804.65 L2726.46 855.39 L2592.81 915.90 L2459.04 987.43 L2325.39 1071.09 L2191.74 1167.37 L2058.09 1276.03 L1924.44 1395.70 L1790.79 1522.17 L1657.14 1648.03 L1523.49 1771.66 L1389.84 1900.36 L1256.06 2031.30 L1122.41 2152.70 L988.76 2249.35 L855.11 2318.28 L721.46 2365.06 L587.81 2393.89 L587.81 2412.83 Z" stroke-linecap="round" style="fill:#D6D6FF;stroke:#CCCCFF;stroke-width:3.00"/>
	<path d="M587.81 2410.73 L587.81 2410.73 L721.46 2390.55 L855.11 2346.50 L988.76 2274.35 L1122.41 2179.55 L1256.06 2069.41 L1389.84 1946.77 L1523.49 1817.33 L1657.14 1691.84 L1790.79 1585.16 L1924.44 1501.01 L2058.09 1435.79 L2191.74 1385.92 L2325.39 1348.55 L2459.04 1321.20 L2592.81 1301.52 L2726.46 1287.78 L2860.11 1278.25 L2993.76 1271.94 L3127.41 1267.86 L3261.06 1265.38 L3394.71 1264.02 L3528.36 1263.28 L3662.01 1263.16 L3662.01 718.51 L3528.36 732.13 L3394.71 748.83 L3261.06 769.50 L3127.41 794.75 L2993.76 825.81 L2860.11 863.43 L2726.46 908.97 L2592.81 963.80 L2459.04 1028.89 L2325.39 1105.62 L2191.74 1194.47 L2058.09 1295.95 L1924.44 1408.69 L1790.79 1529.97 L1657.14 1653.48 L1523.49 1777.35 L1389.84 1906.06 L1256.06 2036.12 L1122.41 2156.04 L988.76 2252.44 L855.11 2321.87 L721.46 2368.28 L587.81 2396.00 L587.81 2410.73 Z" stroke-linecap="round" style="fill:#C2C2FF;stroke:#B3B3FF;stroke-width:3.00"/>
	<path d="M587.81 2409.36 L587.81 2409.36 L721.46 2388.45 L855.11 2344.15 L988.76 2272.24 L1122.41 2177.33 L1256.06 2066.19 L1389.84 1942.81 L1523.49 1813.49 L1657.14 1688.25 L1790.79 1579.84 L1924.44 1492.22 L2058.09 1422.43 L2191.74 1367.60 L2325.39 1325.28 L2459.04 1293.23 L2592.81 1269.22 L2726.46 1251.52 L2860.11 1238.53 L2993.76 1229.25 L3127.41 1222.56 L3261.06 1217.99 L3394.71 1214.64 L3528.36 1212.54 L3662.01 1211.06 L3662.01 770.62 L3528.36 782.87 L3394.71 798.09 L3261.06 816.90 L3127.41 840.04 L2993.76 868.38 L2860.11 903.16 L2726.46 945.23 L2592.81 996.09 L2459.04 1056.86 L2325.39 1128.76 L2191.74 1212.79 L2058.09 1309.32 L1924.44 1417.60 L1790.79 1535.29 L1657.14 1657.19 L1523.49 1781.19 L1389.84 1910.02 L1256.06 2039.22 L1122.41 2158.27 L988.76 2254.55 L855.11 2324.22 L721.46 2370.38 L587.81 2397.36 L587.81 2409.36 Z" stroke-linecap="round" style="fill:#ADADFF;stroke:#9999FF;stroke-width:3.00"/>
	<path d="M587.81 2408.25 L587.81 2408.25 L721.46 2386.72 L855.11 2342.29 L988.76 2270.64 L1122.41 2175.59 L1256.06 2063.72 L1389.84 1939.72 L1523.49 1810.52 L1657.14 1685.28 L1790.79 1575.63 L1924.44 1485.17 L2058.09 1411.78 L2191.74 1353.00 L2325.39 1306.84 L2459.04 1271.08 L2592.81 1243.60 L2726.46 1222.69 L2860.11 1207.10 L2993.76 1195.34 L3127.41 1186.68 L3261.06 1180.24 L3394.71 1175.54 L3528.36 1172.07 L3662.01 1169.72 L3662.01 811.95 L3528.36 823.21 L3394.71 837.19 L3261.06 854.52 L3127.41 875.93 L2993.76 902.29 L2860.11 934.59 L2726.46 974.07 L2592.81 1021.71 L2459.04 1079.13 L2325.39 1147.32 L2191.74 1227.39 L2058.09 1319.96 L1924.44 1424.53 L1790.79 1539.50 L1657.14 1660.03 L1523.49 1784.16 L1389.84 1913.11 L1256.06 2041.82 L1122.41 2160.12 L988.76 2256.28 L855.11 2326.08 L721.46 2372.11 L587.81 2398.47 L587.81 2408.25 Z" stroke-linecap="round" style="fill:#9999FF;stroke:#8080FF;stroke-width:3.00"/>
	<path d="M587.81 2407.26 L587.81 2407.26 L721.46 2385.23 L855.11 2340.68 L988.76 2269.15 L1122.41 2173.98 L1256.06 2061.49 L1389.84 1937.12 L1523.49 1807.80 L1657.14 1682.81 L1790.79 1572.05 L1924.44 1479.23 L2058.09 1402.63 L2191.74 1340.50 L2325.39 1291.00 L2459.04 1252.02 L2592.81 1221.57 L2726.46 1198.06 L2860.11 1179.99 L2993.76 1166.26 L3127.41 1155.86 L3261.06 1147.94 L3394.71 1142.00 L3528.36 1137.55 L3662.01 1134.20 L3662.01 847.47 L3528.36 857.86 L3394.71 870.86 L3261.06 886.94 L3127.41 906.87 L2993.76 931.37 L2860.11 961.69 L2726.46 998.69 L2592.81 1043.74 L2459.04 1098.19 L2325.39 1163.16 L2191.74 1239.89 L2058.09 1328.99 L1924.44 1430.59 L1790.79 1543.09 L1657.14 1662.63 L1523.49 1786.76 L1389.84 1915.71 L1256.06 2043.92 L1122.41 2161.61 L988.76 2257.64 L855.11 2327.69 L721.46 2373.48 L587.81 2399.46 L587.81 2407.26 Z" stroke-linecap="round" style="fill:#8585FF;stroke:#6666FF;stroke-width:3.00"/>
	<path d="M587.81 2406.39 L587.81 2406.39 L721.46 2383.99 L855.11 2339.20 L988.76 2267.91 L1122.41 2172.62 L1256.06 2059.64 L1389.84 1934.77 L1523.49 1805.57 L1657.14 1680.58 L1790.79 1568.83 L1924.44 1473.78 L2058.09 1394.46 L2191.74 1329.36 L2325.39 1276.77 L2459.04 1234.82 L2592.81 1201.77 L2726.46 1175.91 L2860.11 1155.74 L2993.76 1140.14 L3127.41 1128.14 L3261.06 1118.86 L3394.71 1111.80 L3528.36 1106.36 L3662.01 1102.28 L3662.01 879.39 L3528.36 889.05 L3394.71 901.05 L3261.06 915.90 L3127.41 934.59 L2993.76 957.61 L2860.11 985.95 L2726.46 1020.85 L2592.81 1063.54 L2459.04 1115.27 L2325.39 1177.39 L2191.74 1251.03 L2058.09 1337.16 L1924.44 1436.04 L1790.79 1546.30 L1657.14 1664.86 L1523.49 1789.11 L1389.84 1918.06 L1256.06 2045.90 L1122.41 2162.97 L988.76 2259.00 L855.11 2329.17 L721.46 2374.84 L587.81 2400.33 L587.81 2406.39 Z" stroke-linecap="round" style="fill:#7171FF;stroke:#4D4DFF;stroke-width:3.00"/>
	<path d="M587.81 2405.65 L587.81 2405.65 L721.46 2382.76 L855.11 2337.96 L988.76 2266.68 L1122.41 2171.39 L1256.06 2057.78 L1389.84 1932.54 L1523.49 1803.34 L1657.14 1678.47 L1790.79 1565.86 L1924.44 1468.83 L2058.09 1386.79 L2191.74 1318.97 L2325.39 1263.53 L2459.04 1218.98 L2592.81 1183.46 L2726.46 1155.37 L2860.11 1133.21 L2993.76 1115.89 L3127.41 1102.40 L3261.06 1092.00 L3394.71 1083.84 L3528.36 1077.52 L3662.01 1072.70 L3662.01 908.97 L3528.36 917.88 L3394.71 929.02 L3261.06 942.88 L3127.41 960.21 L2993.76 981.74 L2860.11 1008.47 L2726.46 1041.39 L2592.81 1081.86 L2459.04 1131.11 L2325.39 1190.51 L2191.74 1261.42 L2058.09 1344.83 L1924.44 1440.99 L1790.79 1549.27 L1657.14 1666.96 L1523.49 1791.34 L1389.84 1920.29 L1256.06 2047.76 L1122.41 2164.21 L988.76 2260.12 L855.11 2330.53 L721.46 2376.07 L587.81 2401.20 L587.81 2405.65 Z" stroke-linecap="round" style="fill:#5C5CFF;stroke:#3333FF;stroke-width:3.00"/>
	<path d="M587.81 2404.91 L587.81 2404.91 L721.46 2381.64 L855.11 2336.60 L988.76 2265.56 L1122.41 2170.15 L1256.06 2056.05 L1389.84 1930.44 L1523.49 1801.24 L1657.14 1676.49 L1790.79 1563.01 L1924.44 1464.01 L2058.09 1379.61 L2191.74 1309.07 L2325.39 1251.03 L2459.04 1204.00 L2592.81 1166.01 L2726.46 1135.81 L2860.11 1111.80 L2993.76 1092.99 L3127.41 1078.02 L3261.06 1066.39 L3394.71 1057.35 L3528.36 1050.18 L3662.01 1044.61 L3662.01 937.06 L3528.36 945.23 L3394.71 955.50 L3261.06 968.37 L3127.41 984.59 L2993.76 1004.76 L2860.11 1029.88 L2726.46 1060.94 L2592.81 1099.31 L2459.04 1146.21 L2325.39 1203.01 L2191.74 1271.32 L2058.09 1352.01 L1924.44 1445.82 L1790.79 1552.12 L1657.14 1668.94 L1523.49 1793.32 L1389.84 1922.39 L1256.06 2049.49 L1122.41 2165.45 L988.76 2261.23 L855.11 2331.77 L721.46 2377.19 L587.81 2401.94 L587.81 2404.91 Z" stroke-linecap="round" style="fill:#4747FF;stroke:#1919FF;stroke-width:3.00"/>
	<path d="M587.81 2404.17 L587.81 2404.17 L721.46 2380.53 L855.11 2335.36 L988.76 2264.45 L1122.41 2168.91 L1256.06 2054.44 L1389.84 1928.46 L1523.49 1799.26 L1657.14 1674.51 L1790.79 1560.29 L1924.44 1459.43 L2058.09 1372.68 L2191.74 1299.54 L2325.39 1239.02 L2459.04 1189.40 L2592.81 1149.18 L2726.46 1117.00 L2860.11 1091.14 L2993.76 1070.72 L3127.41 1054.51 L3261.06 1041.76 L3394.71 1031.61 L3528.36 1023.69 L3662.01 1017.50 L3662.01 964.17 L3528.36 971.72 L3394.71 981.12 L3261.06 993.12 L3127.41 1008.10 L2993.76 1026.91 L2860.11 1050.55 L2726.46 1079.88 L2592.81 1116.14 L2459.04 1160.69 L2325.39 1215.14 L2191.74 1280.85 L2058.09 1358.94 L1924.44 1450.40 L1790.79 1554.84 L1657.14 1670.80 L1523.49 1795.42 L1389.84 1924.37 L1256.06 2051.10 L1122.41 2166.68 L988.76 2262.34 L855.11 2333.01 L721.46 2378.30 L587.81 2402.68 L587.81 2404.17 Z" stroke-linecap="round" style="fill:#3333FF;stroke:#0000FF;stroke-width:3.00"/>
	<circle cx="587.69" cy="2378.30" r="22.03" style="fill:#000000;stroke:#000000;stroke-width:8.64"/>
	<circle cx="721.46" cy="2362.59" r="22.03" style="fill:#000000;stroke:#000000;stroke-width:8.64"/>
	<circle cx="855.11" cy="2339.07" r="22.03" style="fill:#000000;stroke:#000000;stroke-width:8.64"/>
	<circle cx="988.76" cy="2252.94" r="22.03" style="fill:#000000;stroke:#000000;stroke-width:8.64"/>
	<circle cx="1122.41" cy="2182.52" r="22.03" style="fill:#000000;stroke:#000000;stroke-width:8.64"/>
	<circle cx="1256.06" cy="2072.88" r="22.03" style="fill:#000000;stroke:#000000;stroke-width:8.64"/>
	<circle cx="1389.71" cy="1939.84" r="22.03" style="fill:#000000;stroke:#000000;stroke-width:8.64"/>
	<circle cx="1523.36" cy="1759.78" r="22.03" style="fill:#000000;stroke:#000000;stroke-width:8.64"/>
	<circle cx="1657.01" cy="1657.93" r="22.03" style="fill:#000000;stroke:#000000;stroke-width:8.64"/>
	<circle cx="1790.66" cy="1579.72" r="22.03" style="fill:#000000;stroke:#000000;stroke-width:8.64"/>
	<line x1="390.80" y1="2489.19" x2="390.80" y2="100.86" style="stroke:#000000;stroke-width:5.76"/>
	<line x1="390.80" y1="2417.28" x2="350.83" y2="2417.28" style="stroke:#000000;stroke-width:5.76"/>
	<text x="300.72" y="2417.28" style="font-family:'Helvetica';font-size:99.99px;fill:#000000" transform="rotate(-90 300.72,2417.28)" text-anchor="middle">0</text>
	<line x1="390.80" y1="1871.53" x2="350.83" y2="1871.53" style="stroke:#000000;stroke-width:5.76"/>
	<text x="300.72" y="1871.53" style="font-family:'Helvetica';font-size:99.99px;fill:#000000" transform="rotate(-90 300.72,1871.53)" text-anchor="middle">.2</text>
	<line x1="390.80" y1="1325.65" x2="350.83" y2="1325.65" style="stroke:#000000;stroke-width:5.76"/>
	<text x="300.72" y="1325.65" style="font-family:'Helvetica';font-size:99.99px;fill:#000000" transform="rotate(-90 300.72,1325.65)" text-anchor="middle">.4</text>
	<line x1="390.80" y1="779.77" x2="350.83" y2="779.77" style="stroke:#000000;stroke-width:5.76"/>
	<text x="300.72" y="779.77" style="font-family:'Helvetica';font-size:99.99px;fill:#000000" transform="rotate(-90 300.72,779.77)" text-anchor="middle">.6</text>
	<line x1="390.80" y1="233.89" x2="350.83" y2="233.89" style="stroke:#000000;stroke-width:5.76"/>
	<text x="300.72" y="233.89" style="font-family:'Helvetica';font-size:99.99px;fill:#000000" transform="rotate(-90 300.72,233.89)" text-anchor="middle">.8</text>
	<text x="190.71" y="1294.96" style="font-family:'Helvetica';font-size:99.99px;fill:#000000" transform="rotate(-90 190.71,1294.96)" text-anchor="middle">Confirmed cases per 100 beds</text>
	<line x1="390.80" y1="2489.19" x2="3859.02" y2="2489.19" style="stroke:#000000;stroke-width:5.76"/>
	<line x1="454.16" y1="2489.19" x2="454.16" y2="2529.16" style="stroke:#000000;stroke-width:5.76"/>
	<text x="454.16" y="2619.14" style="font-family:'Helvetica';font-size:99.99px;fill:#000000" text-anchor="middle">0</text>
	<line x1="3795.66" y1="2489.19" x2="3795.66" y2="2529.16" style="stroke:#000000;stroke-width:5.76"/>
	<text x="3795.66" y="2619.14" style="font-family:'Helvetica';font-size:99.99px;fill:#000000" text-anchor="middle">25</text>
	<line x1="587.81" y1="2489.19" x2="587.81" y2="2529.16" style="stroke:#000000;stroke-width:5.76"/>
	<text x="587.81" y="2619.14" style="font-family:'Helvetica';font-size:99.99px;fill:#000000" text-anchor="middle">1</text>
	<line x1="721.46" y1="2489.19" x2="721.46" y2="2529.16" style="stroke:#000000;stroke-width:5.76"/>
	<text x="721.46" y="2619.14" style="font-family:'Helvetica';font-size:99.99px;fill:#000000" text-anchor="middle">2</text>
	<line x1="855.11" y1="2489.19" x2="855.11" y2="2529.16" style="stroke:#000000;stroke-width:5.76"/>
	<text x="855.11" y="2619.14" style="font-family:'Helvetica';font-size:99.99px;fill:#000000" text-anchor="middle">3</text>
	<line x1="988.76" y1="2489.19" x2="988.76" y2="2529.16" style="stroke:#000000;stroke-width:5.76"/>
	<text x="988.76" y="2619.14" style="font-family:'Helvetica';font-size:99.99px;fill:#000000" text-anchor="middle">4</text>
	<line x1="1122.41" y1="2489.19" x2="1122.41" y2="2529.16" style="stroke:#000000;stroke-width:5.76"/>
	<text x="1122.41" y="2619.14" style="font-family:'Helvetica';font-size:99.99px;fill:#000000" text-anchor="middle">5</text>
	<line x1="1256.06" y1="2489.19" x2="1256.06" y2="2529.16" style="stroke:#000000;stroke-width:5.76"/>
	<text x="1256.06" y="2619.14" style="font-family:'Helvetica';font-size:99.99px;fill:#000000" text-anchor="middle">6</text>
	<line x1="1389.84" y1="2489.19" x2="1389.84" y2="2529.16" style="stroke:#000000;stroke-width:5.76"/>
	<text x="1389.84" y="2619.14" style="font-family:'Helvetica';font-size:99.99px;fill:#000000" text-anchor="middle">7</text>
	<line x1="1523.49" y1="2489.19" x2="1523.49" y2="2529.16" style="stroke:#000000;stroke-width:5.76"/>
	<text x="1523.49" y="2619.14" style="font-family:'Helvetica';font-size:99.99px;fill:#000000" text-anchor="middle">8</text>
	<line x1="1657.14" y1="2489.19" x2="1657.14" y2="2529.16" style="stroke:#000000;stroke-width:5.76"/>
	<text x="1657.14" y="2619.14" style="font-family:'Helvetica';font-size:99.99px;fill:#000000" text-anchor="middle">9</text>
	<line x1="1790.79" y1="2489.19" x2="1790.79" y2="2529.16" style="stroke:#000000;stroke-width:5.76"/>
	<text x="1790.79" y="2619.14" style="font-family:'Helvetica';font-size:99.99px;fill:#000000" text-anchor="middle">10</text>
	<line x1="1924.44" y1="2489.19" x2="1924.44" y2="2529.16" style="stroke:#000000;stroke-width:5.76"/>
	<text x="1924.44" y="2619.14" style="font-family:'Helvetica';font-size:99.99px;fill:#000000" text-anchor="middle">11</text>
	<line x1="2058.09" y1="2489.19" x2="2058.09" y2="2529.16" style="stroke:#000000;stroke-width:5.76"/>
	<text x="2058.09" y="2619.14" style="font-family:'Helvetica';font-size:99.99px;fill:#000000" text-anchor="middle">12</text>
	<line x1="2191.74" y1="2489.19" x2="2191.74" y2="2529.16" style="stroke:#000000;stroke-width:5.76"/>
	<text x="2191.74" y="2619.14" style="font-family:'Helvetica';font-size:99.99px;fill:#000000" text-anchor="middle">13</text>
	<line x1="2325.39" y1="2489.19" x2="2325.39" y2="2529.16" style="stroke:#000000;stroke-width:5.76"/>
	<text x="2325.39" y="2619.14" style="font-family:'Helvetica';font-size:99.99px;fill:#000000" text-anchor="middle">14</text>
	<line x1="2459.04" y1="2489.19" x2="2459.04" y2="2529.16" style="stroke:#000000;stroke-width:5.76"/>
	<text x="2459.04" y="2619.14" style="font-family:'Helvetica';font-size:99.99px;fill:#000000" text-anchor="middle">15</text>
	<line x1="2592.81" y1="2489.19" x2="2592.81" y2="2529.16" style="stroke:#000000;stroke-width:5.76"/>
	<text x="2592.81" y="2619.14" style="font-family:'Helvetica';font-size:99.99px;fill:#000000" text-anchor="middle">16</text>
	<line x1="2726.46" y1="2489.19" x2="2726.46" y2="2529.16" style="stroke:#000000;stroke-width:5.76"/>
	<text x="2726.46" y="2619.14" style="font-family:'Helvetica';font-size:99.99px;fill:#000000" text-anchor="middle">17</text>
	<line x1="2860.11" y1="2489.19" x2="2860.11" y2="2529.16" style="stroke:#000000;stroke-width:5.76"/>
	<text x="2860.11" y="2619.14" style="font-family:'Helvetica';font-size:99.99px;fill:#000000" text-anchor="middle">18</text>
	<line x1="2993.76" y1="2489.19" x2="2993.76" y2="2529.16" style="stroke:#000000;stroke-width:5.76"/>
	<text x="2993.76" y="2619.14" style="font-family:'Helvetica';font-size:99.99px;fill:#000000" text-anchor="middle">19</text>
	<line x1="3127.41" y1="2489.19" x2="3127.41" y2="2529.16" style="stroke:#000000;stroke-width:5.76"/>
	<text x="3127.41" y="2619.14" style="font-family:'Helvetica';font-size:99.99px;fill:#000000" text-anchor="middle">20</text>
	<line x1="3261.06" y1="2489.19" x2="3261.06" y2="2529.16" style="stroke:#000000;stroke-width:5.76"/>
	<text x="3261.06" y="2619.14" style="font-family:'Helvetica';font-size:99.99px;fill:#000000" text-anchor="middle">21</text>
	<line x1="3394.71" y1="2489.19" x2="3394.71" y2="2529.16" style="stroke:#000000;stroke-width:5.76"/>
	<text x="3394.71" y="2619.14" style="font-family:'Helvetica';font-size:99.99px;fill:#000000" text-anchor="middle">22</text>
	<line x1="3528.36" y1="2489.19" x2="3528.36" y2="2529.16" style="stroke:#000000;stroke-width:5.76"/>
	<text x="3528.36" y="2619.14" style="font-family:'Helvetica';font-size:99.99px;fill:#000000" text-anchor="middle">23</text>
	<line x1="3662.01" y1="2489.19" x2="3662.01" y2="2529.16" style="stroke:#000000;stroke-width:5.76"/>
	<text x="3662.01" y="2619.14" style="font-family:'Helvetica';font-size:99.99px;fill:#000000" text-anchor="middle">24</text>
	<text x="2124.91" y="2729.16" style="font-family:'Helvetica';font-size:99.99px;fill:#000000" text-anchor="middle">Days since 0.01 confirmed cases per 100 beds</text>
</svg>
