<?xml version="1.0" encoding="UTF-8" standalone="no"?>
<!-- This is a Stata 14.2 generated SVG file (http://www.stata.com) -->

<svg version="1.1" width="5.50in" height="4.00in" viewBox="0 0 3960 2880" xmlns="http://www.w3.org/2000/svg">
	<desc>Stata Graph - Graph</desc>
	<line x1="390.80" y1="42.45" x2="3859.02" y2="42.45" style="stroke:#FF0000;stroke-width:8.64"/>
	<path d="M587.81 2176.58 L587.81 2176.58 L721.46 2156.41 L855.11 2134.51 L988.76 2111.49 L1122.41 2089.71 L1256.06 2072.26 L1389.84 2061.00 L1523.49 2054.93 L1657.14 2052.71 L1790.79 2053.45 L1924.44 2057.04 L2058.09 2063.47 L2191.74 2072.88 L2325.39 2085.75 L2459.04 2102.21 L2592.81 2122.75 L2726.46 2147.87 L2860.11 2178.07 L2993.76 2213.83 L3127.41 2255.79 L3261.06 2304.54 L3394.71 2361.10 L3528.36 2425.82 L3528.36 164.22 L3394.71 377.45 L3261.06 571.99 L3127.41 749.08 L2993.76 910.09 L2860.11 1056.24 L2726.46 1188.90 L2592.81 1308.94 L2459.04 1417.48 L2325.39 1515.37 L2191.74 1603.60 L2058.09 1682.81 L1924.44 1753.72 L1790.79 1816.95 L1657.14 1872.77 L1523.49 1921.28 L1389.84 1962.12 L1256.06 1994.17 L1122.41 2016.57 L988.76 2031.42 L855.11 2042.19 L721.46 2051.34 L587.81 2059.88 L587.81 2176.58 Z" stroke-linecap="round" style="fill:#EBEBFF;stroke:#E6E6FF;stroke-width:3.00"/>
	<path d="M587.81 2142.92 L587.81 2142.92 L721.46 2126.09 L855.11 2107.90 L988.76 2088.35 L1122.41 2068.55 L1256.06 2049.74 L1389.84 2032.41 L1523.49 2016.32 L1657.14 2000.73 L1790.79 1985.14 L1924.44 1969.54 L2058.09 1953.58 L2191.74 1937.49 L2325.39 1921.16 L2459.04 1904.57 L2592.81 1887.87 L2726.46 1871.03 L2860.11 1854.33 L2993.76 1837.50 L3127.41 1820.91 L3261.06 1804.58 L3394.71 1788.61 L3528.36 1773.15 L3528.36 816.90 L3394.71 949.93 L3261.06 1072.08 L3127.41 1183.95 L2993.76 1286.30 L2860.11 1379.98 L2726.46 1465.62 L2592.81 1543.83 L2459.04 1615.11 L2325.39 1679.96 L2191.74 1739.11 L2058.09 1792.70 L1924.44 1841.33 L1790.79 1885.14 L1657.14 1924.62 L1523.49 1959.89 L1389.84 1990.70 L1256.06 2016.69 L1122.41 2037.61 L988.76 2054.56 L855.11 2068.79 L721.46 2081.66 L587.81 2093.54 L587.81 2142.92 Z" stroke-linecap="round" style="fill:#D6D6FF;stroke:#CCCCFF;stroke-width:3.00"/>
	<path d="M587.81 2137.48 L587.81 2137.48 L721.46 2121.14 L855.11 2103.57 L988.76 2084.63 L1122.41 2065.20 L1256.06 2046.02 L1389.84 2027.83 L1523.49 2010.13 L1657.14 1992.31 L1790.79 1974.12 L1924.44 1955.31 L2058.09 1935.88 L2191.74 1915.59 L2325.39 1894.55 L2459.04 1872.64 L2592.81 1849.87 L2726.46 1826.36 L2860.11 1801.86 L2993.76 1776.61 L3127.41 1750.50 L3261.06 1723.64 L3394.71 1695.92 L3528.36 1667.46 L3528.36 922.46 L3394.71 1042.63 L3261.06 1152.89 L3127.41 1254.25 L2993.76 1347.18 L2860.11 1432.33 L2726.46 1510.42 L2592.81 1581.82 L2459.04 1647.04 L2325.39 1706.69 L2191.74 1761.02 L2058.09 1810.52 L1924.44 1855.44 L1790.79 1896.28 L1657.14 1933.04 L1523.49 1966.08 L1389.84 1995.28 L1256.06 2020.28 L1122.41 2041.07 L988.76 2058.27 L855.11 2073.12 L721.46 2086.61 L587.81 2098.99 L587.81 2137.48 Z" stroke-linecap="round" style="fill:#C2C2FF;stroke:#B3B3FF;stroke-width:3.00"/>
	<path d="M587.81 2133.76 L587.81 2133.76 L721.46 2117.92 L855.11 2100.60 L988.76 2082.16 L1122.41 2062.85 L1256.06 2043.55 L1389.84 2024.74 L1523.49 2005.93 L1657.14 1986.62 L1790.79 1966.70 L1924.44 1945.78 L2058.09 1923.88 L2191.74 1900.74 L2325.39 1876.48 L2459.04 1850.99 L2592.81 1824.26 L2726.46 1796.04 L2860.11 1766.59 L2993.76 1735.52 L3127.41 1703.10 L3261.06 1669.07 L3394.71 1633.43 L3528.36 1596.30 L3528.36 993.74 L3394.71 1105.12 L3261.06 1207.47 L3127.41 1301.77 L2993.76 1388.27 L2860.11 1467.72 L2726.46 1540.61 L2592.81 1607.44 L2459.04 1668.57 L2325.39 1724.63 L2191.74 1775.74 L2058.09 1822.40 L1924.44 1864.97 L1790.79 1903.71 L1657.14 1938.73 L1523.49 1970.29 L1389.84 1998.38 L1256.06 2022.76 L1122.41 2043.30 L988.76 2060.75 L855.11 2076.09 L721.46 2089.96 L587.81 2102.70 L587.81 2133.76 Z" stroke-linecap="round" style="fill:#ADADFF;stroke:#9999FF;stroke-width:3.00"/>
	<path d="M587.81 2130.79 L587.81 2130.79 L721.46 2115.32 L855.11 2098.37 L988.76 2080.18 L1122.41 2061.00 L1256.06 2041.57 L1389.84 2022.26 L1523.49 2002.59 L1657.14 1982.17 L1790.79 1960.76 L1924.44 1938.23 L2058.09 1914.35 L2191.74 1888.98 L2325.39 1862.25 L2459.04 1833.91 L2592.81 1803.84 L2726.46 1772.03 L2860.11 1738.49 L2993.76 1702.98 L3127.41 1665.36 L3261.06 1625.75 L3394.71 1583.80 L3528.36 1539.62 L3528.36 1050.42 L3394.71 1154.75 L3261.06 1250.90 L3127.41 1339.39 L2993.76 1420.94 L2860.11 1495.81 L2726.46 1564.62 L2592.81 1627.86 L2459.04 1685.78 L2325.39 1738.87 L2191.74 1787.50 L2058.09 1831.93 L1924.44 1872.64 L1790.79 1909.65 L1657.14 1943.31 L1523.49 1973.63 L1389.84 2000.85 L1256.06 2024.74 L1122.41 2045.16 L988.76 2062.73 L855.11 2078.32 L721.46 2092.55 L587.81 2105.55 L587.81 2130.79 Z" stroke-linecap="round" style="fill:#9999FF;stroke:#8080FF;stroke-width:3.00"/>
	<path d="M587.81 2128.32 L587.81 2128.32 L721.46 2112.97 L855.11 2096.39 L988.76 2078.45 L1122.41 2059.39 L1256.06 2039.96 L1389.84 2020.16 L1523.49 1999.74 L1657.14 1978.33 L1790.79 1955.68 L1924.44 1931.67 L2058.09 1906.18 L2191.74 1878.95 L2325.39 1850.00 L2459.04 1819.18 L2592.81 1786.39 L2726.46 1751.49 L2860.11 1714.36 L2993.76 1674.88 L3127.41 1633.06 L3261.06 1588.50 L3394.71 1541.23 L3528.36 1491.11 L3528.36 1098.93 L3394.71 1197.32 L3261.06 1288.15 L3127.41 1371.81 L2993.76 1448.91 L2860.11 1519.94 L2726.46 1585.29 L2592.81 1645.31 L2459.04 1700.50 L2325.39 1751.12 L2191.74 1797.52 L2058.09 1840.10 L1924.44 1879.08 L1790.79 1914.72 L1657.14 1947.14 L1523.49 1976.60 L1389.84 2002.96 L1256.06 2026.47 L1122.41 2046.77 L988.76 2064.46 L855.11 2080.30 L721.46 2094.78 L587.81 2108.02 L587.81 2128.32 Z" stroke-linecap="round" style="fill:#8585FF;stroke:#6666FF;stroke-width:3.00"/>
	<path d="M587.81 2126.09 L587.81 2126.09 L721.46 2110.99 L855.11 2094.53 L988.76 2076.84 L1122.41 2058.03 L1256.06 2038.47 L1389.84 2018.18 L1523.49 1997.14 L1657.14 1974.86 L1790.79 1951.10 L1924.44 1925.86 L2058.09 1898.76 L2191.74 1869.92 L2325.39 1838.98 L2459.04 1805.94 L2592.81 1770.67 L2726.46 1733.05 L2860.11 1692.71 L2993.76 1649.76 L3127.41 1603.97 L3261.06 1555.09 L3394.71 1502.99 L3528.36 1447.43 L3528.36 1142.62 L3394.71 1235.56 L3261.06 1321.57 L3127.41 1400.89 L2993.76 1474.03 L2860.11 1541.60 L2726.46 1603.73 L2592.81 1661.02 L2459.04 1713.62 L2325.39 1762.13 L2191.74 1806.68 L2058.09 1847.52 L1924.44 1884.90 L1790.79 1919.30 L1657.14 1950.61 L1523.49 1979.07 L1389.84 2004.94 L1256.06 2027.95 L1122.41 2048.13 L988.76 2066.07 L855.11 2082.16 L721.46 2096.76 L587.81 2110.37 L587.81 2126.09 Z" stroke-linecap="round" style="fill:#7171FF;stroke:#4D4DFF;stroke-width:3.00"/>
	<path d="M587.81 2123.99 L587.81 2123.99 L721.46 2109.14 L855.11 2092.93 L988.76 2075.48 L1122.41 2056.79 L1256.06 2036.99 L1389.84 2016.45 L1523.49 1994.79 L1657.14 1971.65 L1790.79 1946.90 L1924.44 1920.41 L2058.09 1891.95 L2191.74 1861.51 L2325.39 1828.83 L2459.04 1793.69 L2592.81 1756.19 L2726.46 1715.85 L2860.11 1672.66 L2993.76 1626.50 L3127.41 1577.00 L3261.06 1524.03 L3394.71 1467.47 L3528.36 1406.96 L3528.36 1182.96 L3394.71 1271.08 L3261.06 1352.51 L3127.41 1427.75 L2993.76 1497.30 L2860.11 1561.65 L2726.46 1620.93 L2592.81 1675.50 L2459.04 1725.87 L2325.39 1772.28 L2191.74 1814.97 L2058.09 1854.33 L1924.44 1890.34 L1790.79 1923.51 L1657.14 1953.83 L1523.49 1981.55 L1389.84 2006.67 L1256.06 2029.32 L1122.41 2049.49 L988.76 2067.43 L855.11 2083.77 L721.46 2098.74 L587.81 2112.35 L587.81 2123.99 Z" stroke-linecap="round" style="fill:#5C5CFF;stroke:#3333FF;stroke-width:3.00"/>
	<path d="M587.81 2122.01 L587.81 2122.01 L721.46 2107.28 L855.11 2091.32 L988.76 2074.11 L1122.41 2055.43 L1256.06 2035.75 L1389.84 2014.84 L1523.49 1992.44 L1657.14 1968.55 L1790.79 1942.94 L1924.44 1915.21 L2058.09 1885.51 L2191.74 1853.59 L2325.39 1819.18 L2459.04 1782.18 L2592.81 1742.33 L2726.46 1699.64 L2860.11 1653.72 L2993.76 1604.35 L3127.41 1551.50 L3261.06 1494.70 L3394.71 1433.81 L3528.36 1368.59 L3528.36 1221.33 L3394.71 1304.74 L3261.06 1381.84 L3127.41 1453.37 L2993.76 1519.45 L2860.11 1580.58 L2726.46 1637.14 L2592.81 1689.36 L2459.04 1737.50 L2325.39 1781.93 L2191.74 1823.02 L2058.09 1860.76 L1924.44 1895.54 L1790.79 1927.47 L1657.14 1956.80 L1523.49 1983.77 L1389.84 2008.40 L1256.06 2030.68 L1122.41 2050.73 L988.76 2068.79 L855.11 2085.38 L721.46 2100.47 L587.81 2114.33 L587.81 2122.01 Z" stroke-linecap="round" style="fill:#4747FF;stroke:#1919FF;stroke-width:3.00"/>
	<path d="M587.81 2120.03 L587.81 2120.03 L721.46 2105.55 L855.11 2089.83 L988.76 2072.75 L1122.41 2054.31 L1256.06 2034.39 L1389.84 2013.10 L1523.49 1990.33 L1657.14 1965.58 L1790.79 1938.98 L1924.44 1910.26 L2058.09 1879.33 L2191.74 1845.79 L2325.39 1809.78 L2459.04 1770.92 L2592.81 1728.97 L2726.46 1683.80 L2860.11 1635.28 L2993.76 1582.94 L3127.41 1526.75 L3261.06 1466.24 L3394.71 1401.27 L3528.36 1331.47 L3528.36 1258.45 L3394.71 1337.28 L3261.06 1410.30 L3127.41 1478.12 L2993.76 1540.86 L2860.11 1599.02 L2726.46 1652.86 L2592.81 1702.73 L2459.04 1748.77 L2325.39 1791.34 L2191.74 1830.69 L2058.09 1866.95 L1924.44 1900.49 L1790.79 1931.43 L1657.14 1959.77 L1523.49 1986.00 L1389.84 2010.01 L1256.06 2031.91 L1122.41 2051.96 L988.76 2070.15 L855.11 2086.86 L721.46 2102.21 L587.81 2116.31 L587.81 2120.03 Z" stroke-linecap="round" style="fill:#3333FF;stroke:#0000FF;stroke-width:3.00"/>
	<circle cx="587.69" cy="2147.87" r="22.03" style="fill:#000000;stroke:#000000;stroke-width:8.64"/>
	<circle cx="721.46" cy="2074.86" r="22.03" style="fill:#000000;stroke:#000000;stroke-width:8.64"/>
	<circle cx="855.11" cy="2074.86" r="22.03" style="fill:#000000;stroke:#000000;stroke-width:8.64"/>
	<circle cx="988.76" cy="2050.48" r="22.03" style="fill:#000000;stroke:#000000;stroke-width:8.64"/>
	<circle cx="1122.41" cy="2050.48" r="22.03" style="fill:#000000;stroke:#000000;stroke-width:8.64"/>
	<circle cx="1256.06" cy="2050.48" r="22.03" style="fill:#000000;stroke:#000000;stroke-width:8.64"/>
	<circle cx="1389.71" cy="2050.48" r="22.03" style="fill:#000000;stroke:#000000;stroke-width:8.64"/>
	<circle cx="1523.36" cy="2001.84" r="22.03" style="fill:#000000;stroke:#000000;stroke-width:8.64"/>
	<circle cx="1657.01" cy="1928.83" r="22.03" style="fill:#000000;stroke:#000000;stroke-width:8.64"/>
	<line x1="390.80" y1="2489.19" x2="390.80" y2="100.86" style="stroke:#000000;stroke-width:5.76"/>
	<line x1="390.80" y1="2269.52" x2="350.83" y2="2269.52" style="stroke:#000000;stroke-width:5.76"/>
	<text x="300.72" y="2269.52" style="font-family:'Helvetica';font-size:99.99px;fill:#000000" transform="rotate(-90 300.72,2269.52)" text-anchor="middle">0</text>
	<line x1="390.80" y1="1752.73" x2="350.83" y2="1752.73" style="stroke:#000000;stroke-width:5.76"/>
	<text x="300.72" y="1752.73" style="font-family:'Helvetica';font-size:99.99px;fill:#000000" transform="rotate(-90 300.72,1752.73)" text-anchor="middle">.5</text>
	<line x1="390.80" y1="1235.81" x2="350.83" y2="1235.81" style="stroke:#000000;stroke-width:5.76"/>
	<text x="300.72" y="1235.81" style="font-family:'Helvetica';font-size:99.99px;fill:#000000" transform="rotate(-90 300.72,1235.81)" text-anchor="middle">1</text>
	<line x1="390.80" y1="718.89" x2="350.83" y2="718.89" style="stroke:#000000;stroke-width:5.76"/>
	<text x="300.72" y="718.89" style="font-family:'Helvetica';font-size:99.99px;fill:#000000" transform="rotate(-90 300.72,718.89)" text-anchor="middle">1.5</text>
	<line x1="390.80" y1="202.09" x2="350.83" y2="202.09" style="stroke:#000000;stroke-width:5.76"/>
	<text x="300.72" y="202.09" style="font-family:'Helvetica';font-size:99.99px;fill:#000000" transform="rotate(-90 300.72,202.09)" text-anchor="middle">2</text>
	<text x="190.71" y="1294.96" style="font-family:'Helvetica';font-size:99.99px;fill:#000000" transform="rotate(-90 190.71,1294.96)" text-anchor="middle">Confirmed cases per 100 beds</text>
	<line x1="390.80" y1="2489.19" x2="3859.02" y2="2489.19" style="stroke:#000000;stroke-width:5.76"/>
	<line x1="454.16" y1="2489.19" x2="454.16" y2="2529.16" style="stroke:#000000;stroke-width:5.76"/>
	<text x="454.16" y="2619.14" style="font-family:'Helvetica';font-size:99.99px;fill:#000000" text-anchor="middle">0</text>
	<line x1="3795.66" y1="2489.19" x2="3795.66" y2="2529.16" style="stroke:#000000;stroke-width:5.76"/>
	<text x="3795.66" y="2619.14" style="font-family:'Helvetica';font-size:99.99px;fill:#000000" text-anchor="middle">25</text>
	<line x1="587.81" y1="2489.19" x2="587.81" y2="2529.16" style="stroke:#000000;stroke-width:5.76"/>
	<text x="587.81" y="2619.14" style="font-family:'Helvetica';font-size:99.99px;fill:#000000" text-anchor="middle">1</text>
	<line x1="721.46" y1="2489.19" x2="721.46" y2="2529.16" style="stroke:#000000;stroke-width:5.76"/>
	<text x="721.46" y="2619.14" style="font-family:'Helvetica';font-size:99.99px;fill:#000000" text-anchor="middle">2</text>
	<line x1="855.11" y1="2489.19" x2="855.11" y2="2529.16" style="stroke:#000000;stroke-width:5.76"/>
	<text x="855.11" y="2619.14" style="font-family:'Helvetica';font-size:99.99px;fill:#000000" text-anchor="middle">3</text>
	<line x1="988.76" y1="2489.19" x2="988.76" y2="2529.16" style="stroke:#000000;stroke-width:5.76"/>
	<text x="988.76" y="2619.14" style="font-family:'Helvetica';font-size:99.99px;fill:#000000" text-anchor="middle">4</text>
	<line x1="1122.41" y1="2489.19" x2="1122.41" y2="2529.16" style="stroke:#000000;stroke-width:5.76"/>
	<text x="1122.41" y="2619.14" style="font-family:'Helvetica';font-size:99.99px;fill:#000000" text-anchor="middle">5</text>
	<line x1="1256.06" y1="2489.19" x2="1256.06" y2="2529.16" style="stroke:#000000;stroke-width:5.76"/>
	<text x="1256.06" y="2619.14" style="font-family:'Helvetica';font-size:99.99px;fill:#000000" text-anchor="middle">6</text>
	<line x1="1389.84" y1="2489.19" x2="1389.84" y2="2529.16" style="stroke:#000000;stroke-width:5.76"/>
	<text x="1389.84" y="2619.14" style="font-family:'Helvetica';font-size:99.99px;fill:#000000" text-anchor="middle">7</text>
	<line x1="1523.49" y1="2489.19" x2="1523.49" y2="2529.16" style="stroke:#000000;stroke-width:5.76"/>
	<text x="1523.49" y="2619.14" style="font-family:'Helvetica';font-size:99.99px;fill:#000000" text-anchor="middle">8</text>
	<line x1="1657.14" y1="2489.19" x2="1657.14" y2="2529.16" style="stroke:#000000;stroke-width:5.76"/>
	<text x="1657.14" y="2619.14" style="font-family:'Helvetica';font-size:99.99px;fill:#000000" text-anchor="middle">9</text>
	<line x1="1790.79" y1="2489.19" x2="1790.79" y2="2529.16" style="stroke:#000000;stroke-width:5.76"/>
	<text x="1790.79" y="2619.14" style="font-family:'Helvetica';font-size:99.99px;fill:#000000" text-anchor="middle">10</text>
	<line x1="1924.44" y1="2489.19" x2="1924.44" y2="2529.16" style="stroke:#000000;stroke-width:5.76"/>
	<text x="1924.44" y="2619.14" style="font-family:'Helvetica';font-size:99.99px;fill:#000000" text-anchor="middle">11</text>
	<line x1="2058.09" y1="2489.19" x2="2058.09" y2="2529.16" style="stroke:#000000;stroke-width:5.76"/>
	<text x="2058.09" y="2619.14" style="font-family:'Helvetica';font-size:99.99px;fill:#000000" text-anchor="middle">12</text>
	<line x1="2191.74" y1="2489.19" x2="2191.74" y2="2529.16" style="stroke:#000000;stroke-width:5.76"/>
	<text x="2191.74" y="2619.14" style="font-family:'Helvetica';font-size:99.99px;fill:#000000" text-anchor="middle">13</text>
	<line x1="2325.39" y1="2489.19" x2="2325.39" y2="2529.16" style="stroke:#000000;stroke-width:5.76"/>
	<text x="2325.39" y="2619.14" style="font-family:'Helvetica';font-size:99.99px;fill:#000000" text-anchor="middle">14</text>
	<line x1="2459.04" y1="2489.19" x2="2459.04" y2="2529.16" style="stroke:#000000;stroke-width:5.76"/>
	<text x="2459.04" y="2619.14" style="font-family:'Helvetica';font-size:99.99px;fill:#000000" text-anchor="middle">15</text>
	<line x1="2592.81" y1="2489.19" x2="2592.81" y2="2529.16" style="stroke:#000000;stroke-width:5.76"/>
	<text x="2592.81" y="2619.14" style="font-family:'Helvetica';font-size:99.99px;fill:#000000" text-anchor="middle">16</text>
	<line x1="2726.46" y1="2489.19" x2="2726.46" y2="2529.16" style="stroke:#000000;stroke-width:5.76"/>
	<text x="2726.46" y="2619.14" style="font-family:'Helvetica';font-size:99.99px;fill:#000000" text-anchor="middle">17</text>
	<line x1="2860.11" y1="2489.19" x2="2860.11" y2="2529.16" style="stroke:#000000;stroke-width:5.76"/>
	<text x="2860.11" y="2619.14" style="font-family:'Helvetica';font-size:99.99px;fill:#000000" text-anchor="middle">18</text>
	<line x1="2993.76" y1="2489.19" x2="2993.76" y2="2529.16" style="stroke:#000000;stroke-width:5.76"/>
	<text x="2993.76" y="2619.14" style="font-family:'Helvetica';font-size:99.99px;fill:#000000" text-anchor="middle">19</text>
	<line x1="3127.41" y1="2489.19" x2="3127.41" y2="2529.16" style="stroke:#000000;stroke-width:5.76"/>
	<text x="3127.41" y="2619.14" style="font-family:'Helvetica';font-size:99.99px;fill:#000000" text-anchor="middle">20</text>
	<line x1="3261.06" y1="2489.19" x2="3261.06" y2="2529.16" style="stroke:#000000;stroke-width:5.76"/>
	<text x="3261.06" y="2619.14" style="font-family:'Helvetica';font-size:99.99px;fill:#000000" text-anchor="middle">21</text>
	<line x1="3394.71" y1="2489.19" x2="3394.71" y2="2529.16" style="stroke:#000000;stroke-width:5.76"/>
	<text x="3394.71" y="2619.14" style="font-family:'Helvetica';font-size:99.99px;fill:#000000" text-anchor="middle">22</text>
	<line x1="3528.36" y1="2489.19" x2="3528.36" y2="2529.16" style="stroke:#000000;stroke-width:5.76"/>
	<text x="3528.36" y="2619.14" style="font-family:'Helvetica';font-size:99.99px;fill:#000000" text-anchor="middle">23</text>
	<text x="2124.91" y="2729.16" style="font-family:'Helvetica';font-size:99.99px;fill:#000000" text-anchor="middle">Days since 0.01 confirmed cases per 100 beds</text>
</svg>
