<?xml version="1.0" encoding="UTF-8" standalone="no"?>
<!-- This is a Stata 14.2 generated SVG file (http://www.stata.com) -->

<svg version="1.1" width="5.50in" height="4.00in" viewBox="0 0 3960 2880" xmlns="http://www.w3.org/2000/svg">
	<desc>Stata Graph - Graph</desc>
	<line x1="390.80" y1="3598.51" x2="3859.02" y2="3598.51" style="stroke:#FF0000;stroke-width:8.64"/>
	<path d="M531.88 2425.08 L531.88 2425.08 L609.59 2425.82 L687.31 2421.37 L765.02 2403.92 L842.74 2364.19 L920.45 2294.64 L998.17 2192.30 L1075.88 2059.76 L1153.60 1903.95 L1231.31 1734.53 L1308.90 1561.90 L1386.62 1395.32 L1464.33 1241.99 L1542.05 1104.26 L1619.76 981.24 L1697.48 871.47 L1775.19 774.08 L1852.91 688.32 L1930.62 613.57 L2008.34 549.22 L2086.05 494.40 L2163.77 448.61 L2241.48 411.23 L2319.20 381.41 L2396.91 358.02 L2474.63 339.58 L2552.34 325.23 L2630.06 313.84 L2707.77 304.93 L2785.49 297.88 L2863.20 292.31 L2940.92 287.85 L3018.63 284.39 L3096.35 281.66 L3174.06 279.56 L3251.78 277.95 L3329.49 276.59 L3407.21 275.60 L3484.92 274.73 L3562.64 274.11 L3640.35 273.62 L3718.07 273.25 L3795.66 273.00 L3795.66 164.22 L3718.07 165.34 L3640.35 166.82 L3562.64 168.68 L3484.92 170.78 L3407.21 173.38 L3329.49 176.35 L3251.78 180.06 L3174.06 184.39 L3096.35 189.71 L3018.63 195.90 L2940.92 203.33 L2863.20 212.24 L2785.49 222.88 L2707.77 235.38 L2630.06 250.11 L2552.34 267.56 L2474.63 287.85 L2396.91 311.49 L2319.20 338.59 L2241.48 369.78 L2163.77 405.42 L2086.05 446.88 L2008.34 495.88 L1930.62 554.17 L1852.91 623.60 L1775.19 706.14 L1697.48 803.04 L1619.76 914.91 L1542.05 1041.27 L1464.33 1179.25 L1386.62 1324.04 L1308.90 1471.93 L1231.31 1620.19 L1153.60 1766.22 L1075.88 1906.06 L998.17 2035.13 L920.45 2148.99 L842.74 2243.41 L765.02 2315.93 L687.31 2366.42 L609.59 2397.11 L531.88 2413.08 L531.88 2425.08 Z" stroke-linecap="round" style="fill:#EBEBFF;stroke:#E6E6FF;stroke-width:3.00"/>
	<path d="M531.88 2421.62 L531.88 2421.62 L609.59 2417.53 L687.31 2405.53 L765.02 2378.55 L842.74 2329.30 L920.45 2252.57 L998.17 2147.01 L1075.88 2015.33 L1153.60 1864.23 L1231.31 1701.49 L1308.90 1535.91 L1386.62 1374.78 L1464.33 1223.80 L1542.05 1086.06 L1619.76 962.06 L1697.48 851.67 L1775.19 754.53 L1852.91 669.63 L1930.62 596.49 L2008.34 533.75 L2086.05 480.66 L2163.77 436.11 L2241.48 399.23 L2319.20 369.16 L2396.91 344.53 L2474.63 324.73 L2552.34 308.52 L2630.06 295.40 L2707.77 284.76 L2785.49 276.22 L2863.20 269.16 L2940.92 263.47 L3018.63 258.89 L3096.35 255.18 L3174.06 252.09 L3251.78 249.61 L3329.49 247.63 L3407.21 246.02 L3484.92 244.79 L3562.64 243.67 L3640.35 242.81 L3718.07 242.19 L3795.66 241.57 L3795.66 195.53 L3718.07 196.52 L3640.35 197.63 L3562.64 199.12 L3484.92 200.73 L3407.21 202.83 L3329.49 205.31 L3251.78 208.28 L3174.06 211.87 L3096.35 216.20 L3018.63 221.52 L2940.92 227.83 L2863.20 235.38 L2785.49 244.41 L2707.77 255.43 L2630.06 268.55 L2552.34 284.14 L2474.63 302.83 L2396.91 324.85 L2319.20 350.97 L2241.48 381.78 L2163.77 417.92 L2086.05 460.61 L2008.34 511.23 L1930.62 571.25 L1852.91 642.28 L1775.19 725.69 L1697.48 822.72 L1619.76 934.09 L1542.05 1059.46 L1464.33 1197.32 L1386.62 1344.59 L1308.90 1497.79 L1231.31 1653.23 L1153.60 1805.94 L1075.88 1950.36 L998.17 2080.55 L920.45 2191.06 L842.74 2278.31 L765.02 2341.30 L687.31 2382.26 L609.59 2405.40 L531.88 2416.54 L531.88 2421.62 Z" stroke-linecap="round" style="fill:#D6D6FF;stroke:#CCCCFF;stroke-width:3.00"/>
	<path d="M531.88 2421.12 L531.88 2421.12 L609.59 2416.17 L687.31 2402.93 L765.02 2374.47 L842.74 2323.73 L920.45 2245.76 L998.17 2139.58 L1075.88 2008.15 L1153.60 1857.79 L1231.31 1696.17 L1308.90 1531.70 L1386.62 1371.44 L1464.33 1220.96 L1542.05 1083.09 L1619.76 958.97 L1697.48 848.58 L1775.19 751.31 L1852.91 666.66 L1930.62 593.65 L2008.34 531.28 L2086.05 478.43 L2163.77 434.13 L2241.48 397.37 L2319.20 367.05 L2396.91 342.43 L2474.63 322.26 L2552.34 305.80 L2630.06 292.43 L2707.77 281.54 L2785.49 272.63 L2863.20 265.45 L2940.92 259.51 L3018.63 254.81 L3096.35 250.85 L3174.06 247.63 L3251.78 245.03 L3329.49 242.93 L3407.21 241.32 L3484.92 239.83 L3562.64 238.72 L3640.35 237.85 L3718.07 237.11 L3795.66 236.49 L3795.66 200.61 L3718.07 201.60 L3640.35 202.71 L3562.64 204.07 L3484.92 205.68 L3407.21 207.66 L3329.49 210.01 L3251.78 212.86 L3174.06 216.32 L3096.35 220.53 L3018.63 225.60 L2940.92 231.67 L2863.20 239.09 L2785.49 248.00 L2707.77 258.65 L2630.06 271.52 L2552.34 286.86 L2474.63 305.18 L2396.91 327.08 L2319.20 352.95 L2241.48 383.64 L2163.77 419.90 L2086.05 462.84 L2008.34 513.70 L1930.62 574.09 L1852.91 645.38 L1775.19 728.91 L1697.48 825.93 L1619.76 937.19 L1542.05 1062.43 L1464.33 1200.29 L1386.62 1347.93 L1308.90 1502.00 L1231.31 1658.55 L1153.60 1812.38 L1075.88 1957.54 L998.17 2087.85 L920.45 2197.87 L842.74 2283.88 L765.02 2345.51 L687.31 2384.86 L609.59 2406.77 L531.88 2417.16 L531.88 2421.12 Z" stroke-linecap="round" style="fill:#C2C2FF;stroke:#B3B3FF;stroke-width:3.00"/>
	<path d="M531.88 2420.75 L531.88 2420.75 L609.59 2415.30 L687.31 2401.20 L765.02 2371.62 L842.74 2319.89 L920.45 2241.18 L998.17 2134.63 L1075.88 2003.33 L1153.60 1853.46 L1231.31 1692.58 L1308.90 1528.86 L1386.62 1369.21 L1464.33 1218.98 L1542.05 1081.11 L1619.76 956.86 L1697.48 846.35 L1775.19 749.21 L1852.91 664.68 L1930.62 591.79 L2008.34 529.54 L2086.05 476.95 L2163.77 432.77 L2241.48 396.01 L2319.20 365.82 L2396.91 340.94 L2474.63 320.65 L2552.34 304.06 L2630.06 290.45 L2707.77 279.31 L2785.49 270.28 L2863.20 262.98 L2940.92 256.91 L3018.63 251.96 L3096.35 248.00 L3174.06 244.66 L3251.78 242.06 L3329.49 239.83 L3407.21 238.10 L3484.92 236.62 L3562.64 235.38 L3640.35 234.51 L3718.07 233.65 L3795.66 233.03 L3795.66 204.07 L3718.07 204.94 L3640.35 206.05 L3562.64 207.29 L3484.92 208.90 L3407.21 210.88 L3329.49 213.10 L3251.78 215.95 L3174.06 219.29 L3096.35 223.38 L3018.63 228.45 L2940.92 234.39 L2863.20 241.57 L2785.49 250.35 L2707.77 260.87 L2630.06 273.50 L2552.34 288.72 L2474.63 306.79 L2396.91 328.57 L2319.20 354.31 L2241.48 385.00 L2163.77 421.26 L2086.05 464.32 L2008.34 515.43 L1930.62 575.95 L1852.91 647.36 L1775.19 731.01 L1697.48 828.16 L1619.76 939.29 L1542.05 1064.41 L1464.33 1202.27 L1386.62 1350.15 L1308.90 1504.85 L1231.31 1662.14 L1153.60 1816.71 L1075.88 1962.37 L998.17 2092.80 L920.45 2202.45 L842.74 2287.71 L765.02 2348.23 L687.31 2386.59 L609.59 2407.63 L531.88 2417.53 L531.88 2420.75 Z" stroke-linecap="round" style="fill:#ADADFF;stroke:#9999FF;stroke-width:3.00"/>
	<path d="M531.88 2420.38 L531.88 2420.38 L609.59 2414.56 L687.31 2399.83 L765.02 2369.52 L842.74 2316.92 L920.45 2237.59 L998.17 2130.79 L1075.88 1999.49 L1153.60 1850.00 L1231.31 1689.74 L1308.90 1526.63 L1386.62 1367.36 L1464.33 1217.37 L1542.05 1079.63 L1619.76 955.26 L1697.48 844.62 L1775.19 747.47 L1852.91 662.95 L1930.62 590.31 L2008.34 528.31 L2086.05 475.71 L2163.77 431.65 L2241.48 395.02 L2319.20 364.70 L2396.91 339.83 L2474.63 319.28 L2552.34 302.58 L2630.06 288.84 L2707.77 277.58 L2785.49 268.42 L2863.20 260.87 L2940.92 254.81 L3018.63 249.74 L3096.35 245.65 L3174.06 242.31 L3251.78 239.59 L3329.49 237.36 L3407.21 235.50 L3484.92 234.02 L3562.64 232.78 L3640.35 231.79 L3718.07 231.05 L3795.66 230.31 L3795.66 206.79 L3718.07 207.66 L3640.35 208.65 L3562.64 210.01 L3484.92 211.50 L3407.21 213.35 L3329.49 215.70 L3251.78 218.43 L3174.06 221.77 L3096.35 225.73 L3018.63 230.55 L2940.92 236.49 L2863.20 243.67 L2785.49 252.21 L2707.77 262.61 L2630.06 275.10 L2552.34 290.08 L2474.63 308.15 L2396.91 329.68 L2319.20 355.42 L2241.48 385.99 L2163.77 422.37 L2086.05 465.44 L2008.34 516.67 L1930.62 577.44 L1852.91 648.97 L1775.19 732.75 L1697.48 829.89 L1619.76 940.90 L1542.05 1066.02 L1464.33 1203.75 L1386.62 1352.01 L1308.90 1507.20 L1231.31 1664.98 L1153.60 1820.17 L1075.88 1966.20 L998.17 2096.76 L920.45 2206.04 L842.74 2290.68 L765.02 2350.46 L687.31 2387.95 L609.59 2408.37 L531.88 2417.78 L531.88 2420.38 Z" stroke-linecap="round" style="fill:#9999FF;stroke:#8080FF;stroke-width:3.00"/>
	<path d="M531.88 2420.13 L531.88 2420.13 L609.59 2413.94 L687.31 2398.60 L765.02 2367.54 L842.74 2314.32 L920.45 2234.38 L998.17 2127.33 L1075.88 1996.27 L1153.60 1847.03 L1231.31 1687.26 L1308.90 1524.65 L1386.62 1365.87 L1464.33 1216.01 L1542.05 1078.27 L1619.76 953.89 L1697.48 843.14 L1775.19 745.99 L1852.91 661.59 L1930.62 589.07 L2008.34 527.07 L2086.05 474.72 L2163.77 430.79 L2241.48 394.16 L2319.20 363.71 L2396.91 338.71 L2474.63 318.17 L2552.34 301.34 L2630.06 287.48 L2707.77 276.09 L2785.49 266.81 L2863.20 259.14 L2940.92 252.95 L3018.63 247.88 L3096.35 243.67 L3174.06 240.21 L3251.78 237.48 L3329.49 235.13 L3407.21 233.28 L3484.92 231.79 L3562.64 230.55 L3640.35 229.56 L3718.07 228.70 L3795.66 227.95 L3795.66 209.14 L3718.07 210.01 L3640.35 211.00 L3562.64 212.24 L3484.92 213.72 L3407.21 215.58 L3329.49 217.81 L3251.78 220.53 L3174.06 223.75 L3096.35 227.71 L3018.63 232.53 L2940.92 238.35 L2863.20 245.28 L2785.49 253.82 L2707.77 264.09 L2630.06 276.47 L2552.34 291.32 L2474.63 309.26 L2396.91 330.67 L2319.20 356.29 L2241.48 386.85 L2163.77 423.24 L2086.05 466.55 L2008.34 517.91 L1930.62 578.67 L1852.91 650.45 L1775.19 734.23 L1697.48 831.25 L1619.76 942.39 L1542.05 1067.38 L1464.33 1205.12 L1386.62 1353.50 L1308.90 1509.05 L1231.31 1667.46 L1153.60 1823.14 L1075.88 1969.54 L998.17 2100.10 L920.45 2209.13 L842.74 2293.28 L765.02 2352.31 L687.31 2389.07 L609.59 2408.99 L531.88 2418.03 L531.88 2420.13 Z" stroke-linecap="round" style="fill:#8585FF;stroke:#6666FF;stroke-width:3.00"/>
	<path d="M531.88 2419.88 L531.88 2419.88 L609.59 2413.45 L687.31 2397.61 L765.02 2365.93 L842.74 2311.97 L920.45 2231.65 L998.17 2124.36 L1075.88 1993.30 L1153.60 1844.30 L1231.31 1685.03 L1308.90 1522.92 L1386.62 1364.51 L1464.33 1214.77 L1542.05 1077.03 L1619.76 952.53 L1697.48 841.90 L1775.19 744.75 L1852.91 660.35 L1930.62 587.83 L2008.34 526.08 L2086.05 473.85 L2163.77 429.92 L2241.48 393.29 L2319.20 362.97 L2396.91 337.85 L2474.63 317.18 L2552.34 300.23 L2630.06 286.24 L2707.77 274.73 L2785.49 265.33 L2863.20 257.66 L2940.92 251.34 L3018.63 246.15 L3096.35 241.94 L3174.06 238.47 L3251.78 235.63 L3329.49 233.28 L3407.21 231.30 L3484.92 229.81 L3562.64 228.45 L3640.35 227.46 L3718.07 226.59 L3795.66 225.85 L3795.66 211.25 L3718.07 212.11 L3640.35 213.10 L3562.64 214.22 L3484.92 215.70 L3407.21 217.56 L3329.49 219.79 L3251.78 222.39 L3174.06 225.60 L3096.35 229.44 L3018.63 234.27 L2940.92 239.96 L2863.20 246.89 L2785.49 255.30 L2707.77 265.45 L2630.06 277.70 L2552.34 292.43 L2474.63 310.25 L2396.91 331.54 L2319.20 357.15 L2241.48 387.72 L2163.77 424.10 L2086.05 467.42 L2008.34 518.90 L1930.62 579.91 L1852.91 651.69 L1775.19 735.59 L1697.48 832.62 L1619.76 943.62 L1542.05 1068.49 L1464.33 1206.35 L1386.62 1354.86 L1308.90 1510.79 L1231.31 1669.69 L1153.60 1825.74 L1075.88 1972.51 L998.17 2103.20 L920.45 2211.98 L842.74 2295.63 L765.02 2354.05 L687.31 2390.18 L609.59 2409.61 L531.88 2418.27 L531.88 2419.88 Z" stroke-linecap="round" style="fill:#7171FF;stroke:#4D4DFF;stroke-width:3.00"/>
	<path d="M531.88 2419.76 L531.88 2419.76 L609.59 2412.95 L687.31 2396.62 L765.02 2364.32 L842.74 2309.74 L920.45 2229.05 L998.17 2121.51 L1075.88 1990.46 L1153.60 1841.83 L1231.31 1683.05 L1308.90 1521.31 L1386.62 1363.27 L1464.33 1213.65 L1542.05 1075.92 L1619.76 951.42 L1697.48 840.66 L1775.19 743.51 L1852.91 659.24 L1930.62 586.84 L2008.34 525.09 L2086.05 472.99 L2163.77 429.18 L2241.48 392.55 L2319.20 362.23 L2396.91 336.98 L2474.63 316.31 L2552.34 299.24 L2630.06 285.13 L2707.77 273.50 L2785.49 264.09 L2863.20 256.17 L2940.92 249.86 L3018.63 244.54 L3096.35 240.21 L3174.06 236.74 L3251.78 233.77 L3329.49 231.42 L3407.21 229.56 L3484.92 227.95 L3562.64 226.59 L3640.35 225.48 L3718.07 224.61 L3795.66 223.99 L3795.66 213.23 L3718.07 213.97 L3640.35 214.96 L3562.64 216.20 L3484.92 217.56 L3407.21 219.42 L3329.49 221.52 L3251.78 224.12 L3174.06 227.34 L3096.35 231.17 L3018.63 235.75 L2940.92 241.44 L2863.20 248.25 L2785.49 256.67 L2707.77 266.69 L2630.06 278.82 L2552.34 293.54 L2474.63 311.12 L2396.91 332.40 L2319.20 357.90 L2241.48 388.46 L2163.77 424.85 L2086.05 468.28 L2008.34 519.89 L1930.62 580.90 L1852.91 652.80 L1775.19 736.71 L1697.48 833.85 L1619.76 944.86 L1542.05 1069.60 L1464.33 1207.47 L1386.62 1356.22 L1308.90 1512.40 L1231.31 1671.67 L1153.60 1828.22 L1075.88 1975.24 L998.17 2105.92 L920.45 2214.58 L842.74 2297.86 L765.02 2355.53 L687.31 2391.17 L609.59 2410.11 L531.88 2418.52 L531.88 2419.76 Z" stroke-linecap="round" style="fill:#5C5CFF;stroke:#3333FF;stroke-width:3.00"/>
	<path d="M531.88 2419.51 L531.88 2419.51 L609.59 2412.46 L687.31 2395.63 L765.02 2362.83 L842.74 2307.76 L920.45 2226.58 L998.17 2118.91 L1075.88 1987.86 L1153.60 1839.60 L1231.31 1681.07 L1308.90 1519.82 L1386.62 1362.04 L1464.33 1212.66 L1542.05 1074.80 L1619.76 950.31 L1697.48 839.42 L1775.19 742.28 L1852.91 658.12 L1930.62 585.85 L2008.34 524.22 L2086.05 472.12 L2163.77 428.44 L2241.48 391.80 L2319.20 361.49 L2396.91 336.24 L2474.63 315.45 L2552.34 298.25 L2630.06 284.02 L2707.77 272.38 L2785.49 262.73 L2863.20 254.93 L2940.92 248.37 L3018.63 243.05 L3096.35 238.72 L3174.06 235.13 L3251.78 232.16 L3329.49 229.69 L3407.21 227.71 L3484.92 226.10 L3562.64 224.86 L3640.35 223.75 L3718.07 222.88 L3795.66 222.14 L3795.66 214.96 L3718.07 215.83 L3640.35 216.82 L3562.64 217.93 L3484.92 219.42 L3407.21 221.15 L3329.49 223.25 L3251.78 225.73 L3174.06 228.94 L3096.35 232.66 L3018.63 237.24 L2940.92 242.93 L2863.20 249.61 L2785.49 257.90 L2707.77 267.80 L2630.06 279.93 L2552.34 294.41 L2474.63 311.98 L2396.91 333.27 L2319.20 358.64 L2241.48 389.21 L2163.77 425.59 L2086.05 469.03 L2008.34 520.76 L1930.62 581.89 L1852.91 653.92 L1775.19 737.94 L1697.48 834.97 L1619.76 945.97 L1542.05 1070.72 L1464.33 1208.58 L1386.62 1357.33 L1308.90 1514.00 L1231.31 1673.65 L1153.60 1830.57 L1075.88 1977.83 L998.17 2108.64 L920.45 2217.05 L842.74 2299.84 L765.02 2357.14 L687.31 2392.04 L609.59 2410.60 L531.88 2418.77 L531.88 2419.51 Z" stroke-linecap="round" style="fill:#4747FF;stroke:#1919FF;stroke-width:3.00"/>
	<path d="M531.88 2419.26 L531.88 2419.26 L609.59 2411.96 L687.31 2394.76 L765.02 2361.35 L842.74 2305.78 L920.45 2224.10 L998.17 2116.31 L1075.88 1985.38 L1153.60 1837.25 L1231.31 1679.22 L1308.90 1518.34 L1386.62 1360.80 L1464.33 1211.55 L1542.05 1073.81 L1619.76 949.19 L1697.48 838.31 L1775.19 741.16 L1852.91 657.01 L1930.62 584.86 L2008.34 523.36 L2086.05 471.38 L2163.77 427.69 L2241.48 391.19 L2319.20 360.74 L2396.91 335.50 L2474.63 314.58 L2552.34 297.26 L2630.06 283.03 L2707.77 271.27 L2785.49 261.49 L2863.20 253.57 L2940.92 247.01 L3018.63 241.57 L3096.35 237.24 L3174.06 233.52 L3251.78 230.55 L3329.49 228.08 L3407.21 226.10 L3484.92 224.49 L3562.64 223.13 L3640.35 222.01 L3718.07 221.02 L3795.66 220.28 L3795.66 216.82 L3718.07 217.56 L3640.35 218.55 L3562.64 219.66 L3484.92 221.02 L3407.21 222.76 L3329.49 224.86 L3251.78 227.34 L3174.06 230.43 L3096.35 234.14 L3018.63 238.72 L2940.92 244.29 L2863.20 250.97 L2785.49 259.14 L2707.77 269.04 L2630.06 280.92 L2552.34 295.40 L2474.63 312.85 L2396.91 334.01 L2319.20 359.38 L2241.48 389.82 L2163.77 426.33 L2086.05 469.89 L2008.34 521.62 L1930.62 582.88 L1852.91 654.91 L1775.19 739.06 L1697.48 836.08 L1619.76 946.96 L1542.05 1071.71 L1464.33 1209.57 L1386.62 1358.57 L1308.90 1515.37 L1231.31 1675.50 L1153.60 1832.79 L1075.88 1980.43 L998.17 2111.24 L920.45 2219.40 L842.74 2301.82 L765.02 2358.50 L687.31 2393.03 L609.59 2410.97 L531.88 2418.89 L531.88 2419.26 Z" stroke-linecap="round" style="fill:#3333FF;stroke:#0000FF;stroke-width:3.00"/>
	<circle cx="531.75" cy="2402.43" r="22.03" style="fill:#000000;stroke:#000000;stroke-width:8.64"/>
	<circle cx="609.47" cy="2383.38" r="22.03" style="fill:#000000;stroke:#000000;stroke-width:8.64"/>
	<circle cx="687.18" cy="2335.24" r="22.03" style="fill:#000000;stroke:#000000;stroke-width:8.64"/>
	<circle cx="764.90" cy="2270.39" r="22.03" style="fill:#000000;stroke:#000000;stroke-width:8.64"/>
	<circle cx="842.61" cy="2229.55" r="22.03" style="fill:#000000;stroke:#000000;stroke-width:8.64"/>
	<circle cx="920.33" cy="2196.63" r="22.03" style="fill:#000000;stroke:#000000;stroke-width:8.64"/>
	<circle cx="998.04" cy="2132.28" r="22.03" style="fill:#000000;stroke:#000000;stroke-width:8.64"/>
	<circle cx="1075.76" cy="2018.55" r="22.03" style="fill:#000000;stroke:#000000;stroke-width:8.64"/>
	<circle cx="1153.47" cy="1910.39" r="22.03" style="fill:#000000;stroke:#000000;stroke-width:8.64"/>
	<circle cx="1231.19" cy="1680.08" r="22.03" style="fill:#000000;stroke:#000000;stroke-width:8.64"/>
	<circle cx="1308.90" cy="1529.35" r="22.03" style="fill:#000000;stroke:#000000;stroke-width:8.64"/>
	<circle cx="1386.62" cy="1355.48" r="22.03" style="fill:#000000;stroke:#000000;stroke-width:8.64"/>
	<circle cx="1464.33" cy="1203.51" r="22.03" style="fill:#000000;stroke:#000000;stroke-width:8.64"/>
	<circle cx="1542.05" cy="1072.70" r="22.03" style="fill:#000000;stroke:#000000;stroke-width:8.64"/>
	<circle cx="1619.76" cy="961.82" r="22.03" style="fill:#000000;stroke:#000000;stroke-width:8.64"/>
	<circle cx="1697.48" cy="830.51" r="22.03" style="fill:#000000;stroke:#000000;stroke-width:8.64"/>
	<circle cx="1775.19" cy="708.12" r="22.03" style="fill:#000000;stroke:#000000;stroke-width:8.64"/>
	<circle cx="1852.91" cy="615.18" r="22.03" style="fill:#000000;stroke:#000000;stroke-width:8.64"/>
	<circle cx="1930.62" cy="552.31" r="22.03" style="fill:#000000;stroke:#000000;stroke-width:8.64"/>
	<circle cx="2008.34" cy="519.15" r="22.03" style="fill:#000000;stroke:#000000;stroke-width:8.64"/>
	<circle cx="2086.05" cy="457.89" r="22.03" style="fill:#000000;stroke:#000000;stroke-width:8.64"/>
	<circle cx="2163.77" cy="428.93" r="22.03" style="fill:#000000;stroke:#000000;stroke-width:8.64"/>
	<circle cx="2241.48" cy="401.09" r="22.03" style="fill:#000000;stroke:#000000;stroke-width:8.64"/>
	<circle cx="2319.20" cy="373.98" r="22.03" style="fill:#000000;stroke:#000000;stroke-width:8.64"/>
	<circle cx="2396.91" cy="354.68" r="22.03" style="fill:#000000;stroke:#000000;stroke-width:8.64"/>
	<circle cx="2474.63" cy="335.99" r="22.03" style="fill:#000000;stroke:#000000;stroke-width:8.64"/>
	<circle cx="2552.22" cy="314.71" r="22.03" style="fill:#000000;stroke:#000000;stroke-width:8.64"/>
	<circle cx="2629.93" cy="291.07" r="22.03" style="fill:#000000;stroke:#000000;stroke-width:8.64"/>
	<circle cx="2707.65" cy="252.58" r="22.03" style="fill:#000000;stroke:#000000;stroke-width:8.64"/>
	<line x1="390.80" y1="2489.19" x2="390.80" y2="100.86" style="stroke:#000000;stroke-width:5.76"/>
	<line x1="390.80" y1="2422.61" x2="350.83" y2="2422.61" style="stroke:#000000;stroke-width:5.76"/>
	<text x="300.72" y="2422.61" style="font-family:'Helvetica';font-size:99.99px;fill:#000000" transform="rotate(-90 300.72,2422.61)" text-anchor="middle">0</text>
	<line x1="390.80" y1="1670.31" x2="350.83" y2="1670.31" style="stroke:#000000;stroke-width:5.76"/>
	<text x="300.72" y="1670.31" style="font-family:'Helvetica';font-size:99.99px;fill:#000000" transform="rotate(-90 300.72,1670.31)" text-anchor="middle">.5</text>
	<line x1="390.80" y1="918.13" x2="350.83" y2="918.13" style="stroke:#000000;stroke-width:5.76"/>
	<text x="300.72" y="918.13" style="font-family:'Helvetica';font-size:99.99px;fill:#000000" transform="rotate(-90 300.72,918.13)" text-anchor="middle">1</text>
	<line x1="390.80" y1="165.83" x2="350.83" y2="165.83" style="stroke:#000000;stroke-width:5.76"/>
	<text x="300.72" y="165.83" style="font-family:'Helvetica';font-size:99.99px;fill:#000000" transform="rotate(-90 300.72,165.83)" text-anchor="middle">1.5</text>
	<text x="190.71" y="1294.96" style="font-family:'Helvetica';font-size:99.99px;fill:#000000" transform="rotate(-90 190.71,1294.96)" text-anchor="middle">Confirmed cases per 100 beds</text>
	<line x1="390.80" y1="2489.19" x2="3859.02" y2="2489.19" style="stroke:#000000;stroke-width:5.76"/>
	<line x1="454.16" y1="2489.19" x2="454.16" y2="2529.16" style="stroke:#000000;stroke-width:5.76"/>
	<text x="454.16" y="2619.14" style="font-family:'Helvetica';font-size:99.99px;fill:#000000" text-anchor="middle">0</text>
	<line x1="1231.31" y1="2489.19" x2="1231.31" y2="2529.16" style="stroke:#000000;stroke-width:5.76"/>
	<text x="1231.31" y="2619.14" style="font-family:'Helvetica';font-size:99.99px;fill:#000000" text-anchor="middle">10</text>
	<line x1="2008.34" y1="2489.19" x2="2008.34" y2="2529.16" style="stroke:#000000;stroke-width:5.76"/>
	<text x="2008.34" y="2619.14" style="font-family:'Helvetica';font-size:99.99px;fill:#000000" text-anchor="middle">20</text>
	<line x1="2785.49" y1="2489.19" x2="2785.49" y2="2529.16" style="stroke:#000000;stroke-width:5.76"/>
	<text x="2785.49" y="2619.14" style="font-family:'Helvetica';font-size:99.99px;fill:#000000" text-anchor="middle">30</text>
	<line x1="3562.64" y1="2489.19" x2="3562.64" y2="2529.16" style="stroke:#000000;stroke-width:5.76"/>
	<text x="3562.64" y="2619.14" style="font-family:'Helvetica';font-size:99.99px;fill:#000000" text-anchor="middle">40</text>
	<text x="2124.91" y="2729.16" style="font-family:'Helvetica';font-size:99.99px;fill:#000000" text-anchor="middle">Days since 0.01 confirmed cases per 100 beds</text>
</svg>
