<?xml version="1.0" encoding="UTF-8" standalone="no"?>
<!-- This is a Stata 14.2 generated SVG file (http://www.stata.com) -->

<svg version="1.1" width="5.50in" height="4.00in" viewBox="0 0 3960 2880" xmlns="http://www.w3.org/2000/svg">
	<desc>Stata Graph - Graph</desc>
	<line x1="390.80" y1="2048.62" x2="3859.02" y2="2048.62" style="stroke:#FF0000;stroke-width:8.64"/>
	<path d="M537.69 2425.45 L537.69 2425.45 L621.23 2425.58 L704.76 2425.58 L788.29 2425.70 L871.82 2425.82 L955.35 2425.82 L1038.88 2425.70 L1122.41 2424.96 L1205.94 2423.22 L1289.47 2419.76 L1373.13 2413.82 L1456.66 2404.41 L1540.19 2391.05 L1623.72 2373.48 L1707.26 2351.45 L1790.79 2324.59 L1874.32 2291.80 L1957.85 2251.83 L2041.38 2203.69 L2124.91 2147.38 L2208.44 2088.35 L2291.97 2036.12 L2375.51 1987.61 L2459.04 1942.69 L2542.57 1902.34 L2626.22 1867.32 L2709.75 1838.49 L2793.28 1816.09 L2876.82 1800.37 L2960.35 1791.21 L3043.88 1788.49 L3127.41 1791.83 L3210.94 1800.62 L3294.47 1814.48 L3378.00 1832.67 L3378.00 320.52 L3294.47 465.44 L3210.94 611.84 L3127.41 758.98 L3043.88 905.63 L2960.35 1050.42 L2876.82 1192.24 L2793.28 1329.86 L2709.75 1461.66 L2626.22 1586.65 L2542.57 1703.72 L2459.04 1811.76 L2375.51 1909.89 L2291.97 1997.51 L2208.44 2073.00 L2124.91 2131.54 L2041.38 2181.78 L1957.85 2228.31 L1874.32 2270.39 L1790.79 2307.14 L1707.26 2337.83 L1623.72 2361.84 L1540.19 2379.91 L1456.66 2393.28 L1373.13 2403.18 L1289.47 2410.48 L1205.94 2415.68 L1122.41 2419.39 L1038.88 2421.86 L955.35 2423.47 L871.82 2424.46 L788.29 2424.96 L704.76 2425.20 L621.23 2425.33 L537.69 2425.45 L537.69 2425.45 Z" stroke-linecap="round" style="fill:#EBEBFF;stroke:#E6E6FF;stroke-width:3.00"/>
	<path d="M537.69 2425.45 L537.69 2425.45 L621.23 2425.45 L704.76 2425.45 L788.29 2425.45 L871.82 2425.45 L955.35 2425.20 L1038.88 2424.59 L1122.41 2423.35 L1205.94 2421.00 L1289.47 2417.04 L1373.13 2410.73 L1456.66 2401.20 L1540.19 2387.83 L1623.72 2370.13 L1707.26 2347.49 L1790.79 2319.64 L1874.32 2285.61 L1957.85 2245.02 L2041.38 2197.37 L2124.91 2142.80 L2208.44 2083.89 L2291.97 2024.98 L2375.51 1965.21 L2459.04 1904.82 L2542.57 1845.05 L2626.22 1786.39 L2709.75 1729.71 L2793.28 1675.75 L2876.82 1624.89 L2960.35 1577.49 L3043.88 1533.68 L3127.41 1493.71 L3210.94 1457.57 L3294.47 1425.15 L3378.00 1396.31 L3378.00 757.00 L3294.47 854.77 L3210.94 955.01 L3127.41 1057.11 L3043.88 1160.44 L2960.35 1264.27 L2876.82 1367.85 L2793.28 1470.20 L2709.75 1570.44 L2626.22 1667.71 L2542.57 1761.02 L2459.04 1849.50 L2375.51 1932.29 L2291.97 2008.65 L2208.44 2077.33 L2124.91 2136.12 L2041.38 2188.09 L1957.85 2235.12 L1874.32 2276.58 L1790.79 2312.22 L1707.26 2341.67 L1623.72 2365.18 L1540.19 2383.13 L1456.66 2396.49 L1373.13 2406.27 L1289.47 2413.08 L1205.94 2417.90 L1122.41 2421.00 L1038.88 2422.98 L955.35 2424.09 L871.82 2424.83 L788.29 2425.20 L704.76 2425.33 L621.23 2425.45 L537.69 2425.45 L537.69 2425.45 Z" stroke-linecap="round" style="fill:#D6D6FF;stroke:#CCCCFF;stroke-width:3.00"/>
	<path d="M537.69 2425.45 L537.69 2425.45 L621.23 2425.45 L704.76 2425.45 L788.29 2425.45 L871.82 2425.33 L955.35 2425.08 L1038.88 2424.34 L1122.41 2423.10 L1205.94 2420.75 L1289.47 2416.67 L1373.13 2410.23 L1456.66 2400.70 L1540.19 2387.34 L1623.72 2369.52 L1707.26 2346.87 L1790.79 2318.78 L1874.32 2284.62 L1957.85 2243.91 L2041.38 2196.38 L2124.91 2142.06 L2208.44 2083.15 L2291.97 2023.13 L2375.51 1961.50 L2459.04 1898.76 L2542.57 1835.76 L2626.22 1773.27 L2709.75 1712.13 L2793.28 1653.10 L2876.82 1596.55 L2960.35 1542.84 L3043.88 1492.47 L3127.41 1445.57 L3210.94 1402.01 L3294.47 1362.16 L3378.00 1325.65 L3378.00 827.54 L3294.47 917.76 L3210.94 1010.45 L3127.41 1105.37 L3043.88 1201.65 L2960.35 1298.80 L2876.82 1396.19 L2793.28 1492.84 L2709.75 1588.01 L2626.22 1680.83 L2542.57 1770.30 L2459.04 1855.57 L2375.51 1936.01 L2291.97 2010.51 L2208.44 2078.07 L2124.91 2136.86 L2041.38 2189.08 L1957.85 2236.11 L1874.32 2277.57 L1790.79 2313.08 L1707.26 2342.41 L1623.72 2365.68 L1540.19 2383.62 L1456.66 2396.99 L1373.13 2406.77 L1289.47 2413.57 L1205.94 2418.15 L1122.41 2421.24 L1038.88 2423.10 L955.35 2424.21 L871.82 2424.83 L788.29 2425.20 L704.76 2425.33 L621.23 2425.45 L537.69 2425.45 L537.69 2425.45 Z" stroke-linecap="round" style="fill:#C2C2FF;stroke:#B3B3FF;stroke-width:3.00"/>
	<path d="M537.69 2425.45 L537.69 2425.45 L621.23 2425.45 L704.76 2425.45 L788.29 2425.45 L871.82 2425.33 L955.35 2424.96 L1038.88 2424.21 L1122.41 2422.85 L1205.94 2420.50 L1289.47 2416.29 L1373.13 2409.86 L1456.66 2400.33 L1540.19 2386.96 L1623.72 2369.14 L1707.26 2346.50 L1790.79 2318.28 L1874.32 2284.00 L1957.85 2243.16 L2041.38 2195.64 L2124.91 2141.56 L2208.44 2082.65 L2291.97 2021.89 L2375.51 1959.02 L2459.04 1894.67 L2542.57 1829.45 L2626.22 1764.48 L2709.75 1700.25 L2793.28 1637.76 L2876.82 1577.37 L2960.35 1519.57 L3043.88 1464.63 L3127.41 1413.02 L3210.94 1364.63 L3294.47 1319.59 L3378.00 1278.01 L3378.00 875.19 L3294.47 960.21 L3210.94 1047.95 L3127.41 1137.79 L3043.88 1229.49 L2960.35 1322.19 L2876.82 1415.37 L2793.28 1508.19 L2709.75 1599.89 L2626.22 1689.61 L2542.57 1776.61 L2459.04 1859.77 L2375.51 1938.36 L2291.97 2011.74 L2208.44 2078.57 L2124.91 2137.35 L2041.38 2189.82 L1957.85 2236.85 L1874.32 2278.31 L1790.79 2313.58 L1707.26 2342.78 L1623.72 2366.05 L1540.19 2383.99 L1456.66 2397.36 L1373.13 2407.01 L1289.47 2413.82 L1205.94 2418.40 L1122.41 2421.37 L1038.88 2423.22 L955.35 2424.34 L871.82 2424.96 L788.29 2425.20 L704.76 2425.33 L621.23 2425.45 L537.69 2425.45 L537.69 2425.45 Z" stroke-linecap="round" style="fill:#ADADFF;stroke:#9999FF;stroke-width:3.00"/>
	<path d="M537.69 2425.45 L537.69 2425.45 L621.23 2425.45 L704.76 2425.45 L788.29 2425.45 L871.82 2425.20 L955.35 2424.96 L1038.88 2424.21 L1122.41 2422.73 L1205.94 2420.25 L1289.47 2416.05 L1373.13 2409.61 L1456.66 2400.08 L1540.19 2386.72 L1623.72 2368.90 L1707.26 2346.13 L1790.79 2317.79 L1874.32 2283.38 L1957.85 2242.54 L2041.38 2195.15 L2124.91 2141.19 L2208.44 2082.28 L2291.97 2021.02 L2375.51 1957.17 L2459.04 1891.33 L2542.57 1824.50 L2626.22 1757.43 L2709.75 1690.85 L2793.28 1625.51 L2876.82 1562.15 L2960.35 1501.01 L3043.88 1442.60 L3127.41 1387.16 L3210.94 1334.81 L3294.47 1285.80 L3378.00 1240.14 L3378.00 913.06 L3294.47 993.99 L3210.94 1077.65 L3127.41 1163.66 L3043.88 1251.52 L2960.35 1340.75 L2876.82 1430.59 L2793.28 1520.32 L2709.75 1609.30 L2626.22 1696.67 L2542.57 1781.56 L2459.04 1862.99 L2375.51 1940.34 L2291.97 2012.61 L2208.44 2078.94 L2124.91 2137.72 L2041.38 2190.32 L1957.85 2237.47 L1874.32 2278.80 L1790.79 2314.07 L1707.26 2343.16 L1623.72 2366.42 L1540.19 2384.24 L1456.66 2397.61 L1373.13 2407.26 L1289.47 2414.07 L1205.94 2418.65 L1122.41 2421.62 L1038.88 2423.35 L955.35 2424.34 L871.82 2424.96 L788.29 2425.20 L704.76 2425.33 L621.23 2425.45 L537.69 2425.45 L537.69 2425.45 Z" stroke-linecap="round" style="fill:#9999FF;stroke:#8080FF;stroke-width:3.00"/>
	<path d="M537.69 2425.45 L537.69 2425.45 L621.23 2425.45 L704.76 2425.45 L788.29 2425.33 L871.82 2425.20 L955.35 2424.83 L1038.88 2424.09 L1122.41 2422.61 L1205.94 2420.13 L1289.47 2415.92 L1373.13 2409.36 L1456.66 2399.83 L1540.19 2386.47 L1623.72 2368.65 L1707.26 2345.75 L1790.79 2317.41 L1874.32 2283.01 L1957.85 2242.05 L2041.38 2194.65 L2124.91 2140.82 L2208.44 2081.91 L2291.97 2020.16 L2375.51 1955.43 L2459.04 1888.48 L2542.57 1820.17 L2626.22 1751.36 L2709.75 1682.81 L2793.28 1615.11 L2876.82 1549.03 L2960.35 1485.05 L3043.88 1423.54 L3127.41 1364.88 L3210.94 1309.32 L3294.47 1256.84 L3378.00 1207.71 L3378.00 945.60 L3294.47 1022.95 L3210.94 1103.27 L3127.41 1185.93 L3043.88 1270.58 L2960.35 1356.59 L2876.82 1443.59 L2793.28 1530.84 L2709.75 1617.46 L2626.22 1702.73 L2542.57 1785.77 L2459.04 1865.84 L2375.51 1941.95 L2291.97 2013.48 L2208.44 2079.31 L2124.91 2138.10 L2041.38 2190.81 L1957.85 2237.96 L1874.32 2279.30 L1790.79 2314.44 L1707.26 2343.40 L1623.72 2366.67 L1540.19 2384.49 L1456.66 2397.85 L1373.13 2407.51 L1289.47 2414.31 L1205.94 2418.77 L1122.41 2421.62 L1038.88 2423.47 L955.35 2424.46 L871.82 2424.96 L788.29 2425.20 L704.76 2425.33 L621.23 2425.45 L537.69 2425.45 L537.69 2425.45 Z" stroke-linecap="round" style="fill:#8585FF;stroke:#6666FF;stroke-width:3.00"/>
	<path d="M537.69 2425.45 L537.69 2425.45 L621.23 2425.45 L704.76 2425.45 L788.29 2425.33 L871.82 2425.20 L955.35 2424.83 L1038.88 2423.97 L1122.41 2422.48 L1205.94 2420.01 L1289.47 2415.68 L1373.13 2409.12 L1456.66 2399.59 L1540.19 2386.22 L1623.72 2368.40 L1707.26 2345.51 L1790.79 2317.04 L1874.32 2282.52 L1957.85 2241.68 L2041.38 2194.28 L2124.91 2140.57 L2208.44 2081.66 L2291.97 2019.42 L2375.51 1953.95 L2459.04 1886.01 L2542.57 1816.34 L2626.22 1745.92 L2709.75 1675.50 L2793.28 1605.71 L2876.82 1537.27 L2960.35 1470.81 L3043.88 1406.59 L3127.41 1344.96 L3210.94 1286.42 L3294.47 1230.86 L3378.00 1178.51 L3378.00 974.69 L3294.47 1049.06 L3210.94 1126.16 L3127.41 1205.86 L3043.88 1287.54 L2960.35 1370.95 L2876.82 1455.35 L2793.28 1540.24 L2709.75 1624.76 L2626.22 1708.17 L2542.57 1789.60 L2459.04 1868.31 L2375.51 1943.55 L2291.97 2014.22 L2208.44 2079.56 L2124.91 2138.34 L2041.38 2191.31 L1957.85 2238.46 L1874.32 2279.67 L1790.79 2314.69 L1707.26 2343.65 L1623.72 2366.79 L1540.19 2384.74 L1456.66 2398.10 L1373.13 2407.76 L1289.47 2414.44 L1205.94 2418.89 L1122.41 2421.74 L1038.88 2423.47 L955.35 2424.46 L871.82 2424.96 L788.29 2425.33 L704.76 2425.33 L621.23 2425.45 L537.69 2425.45 L537.69 2425.45 Z" stroke-linecap="round" style="fill:#7171FF;stroke:#4D4DFF;stroke-width:3.00"/>
	<path d="M537.69 2425.45 L537.69 2425.45 L621.23 2425.45 L704.76 2425.45 L788.29 2425.33 L871.82 2425.20 L955.35 2424.71 L1038.88 2423.97 L1122.41 2422.48 L1205.94 2419.76 L1289.47 2415.55 L1373.13 2408.99 L1456.66 2399.34 L1540.19 2385.97 L1623.72 2368.15 L1707.26 2345.26 L1790.79 2316.80 L1874.32 2282.15 L1957.85 2241.18 L2041.38 2193.78 L2124.91 2140.20 L2208.44 2081.42 L2291.97 2018.67 L2375.51 1952.59 L2459.04 1883.66 L2542.57 1812.87 L2626.22 1740.97 L2709.75 1668.70 L2793.28 1597.04 L2876.82 1526.50 L2960.35 1457.57 L3043.88 1390.75 L3127.41 1326.52 L3210.94 1265.14 L3294.47 1206.72 L3378.00 1151.53 L3378.00 1001.79 L3294.47 1073.19 L3210.94 1147.45 L3127.41 1224.30 L3043.88 1303.38 L2960.35 1384.19 L2876.82 1466.24 L2793.28 1548.90 L2709.75 1631.45 L2626.22 1713.12 L2542.57 1793.19 L2459.04 1870.66 L2375.51 1944.92 L2291.97 2014.96 L2208.44 2079.81 L2124.91 2138.71 L2041.38 2191.68 L1957.85 2238.83 L1874.32 2280.04 L1790.79 2315.06 L1707.26 2343.90 L1623.72 2367.04 L1540.19 2384.98 L1456.66 2398.35 L1373.13 2407.88 L1289.47 2414.69 L1205.94 2419.02 L1122.41 2421.86 L1038.88 2423.60 L955.35 2424.59 L871.82 2425.08 L788.29 2425.33 L704.76 2425.45 L621.23 2425.45 L537.69 2425.45 L537.69 2425.45 Z" stroke-linecap="round" style="fill:#5C5CFF;stroke:#3333FF;stroke-width:3.00"/>
	<path d="M537.69 2425.45 L537.69 2425.45 L621.23 2425.45 L704.76 2425.45 L788.29 2425.33 L871.82 2425.20 L955.35 2424.71 L1038.88 2423.84 L1122.41 2422.36 L1205.94 2419.64 L1289.47 2415.43 L1373.13 2408.75 L1456.66 2399.22 L1540.19 2385.85 L1623.72 2368.03 L1707.26 2345.01 L1790.79 2316.42 L1874.32 2281.77 L1957.85 2240.81 L2041.38 2193.41 L2124.91 2139.95 L2208.44 2081.17 L2291.97 2018.05 L2375.51 1951.23 L2459.04 1881.43 L2542.57 1809.53 L2626.22 1736.14 L2709.75 1662.39 L2793.28 1588.75 L2876.82 1516.11 L2960.35 1444.95 L3043.88 1375.77 L3127.41 1309.07 L3210.94 1244.96 L3294.47 1183.83 L3378.00 1125.91 L3378.00 1027.40 L3294.47 1095.96 L3210.94 1167.62 L3127.41 1241.75 L3043.88 1318.35 L2960.35 1396.69 L2876.82 1476.51 L2793.28 1557.07 L2709.75 1637.88 L2626.22 1717.95 L2542.57 1796.53 L2459.04 1872.89 L2375.51 1946.15 L2291.97 2015.58 L2208.44 2080.18 L2124.91 2138.96 L2041.38 2192.05 L1957.85 2239.33 L1874.32 2280.41 L1790.79 2315.31 L1707.26 2344.15 L1623.72 2367.29 L1540.19 2385.11 L1456.66 2398.47 L1373.13 2408.13 L1289.47 2414.81 L1205.94 2419.14 L1122.41 2421.99 L1038.88 2423.60 L955.35 2424.59 L871.82 2425.08 L788.29 2425.33 L704.76 2425.45 L621.23 2425.45 L537.69 2425.45 L537.69 2425.45 Z" stroke-linecap="round" style="fill:#4747FF;stroke:#1919FF;stroke-width:3.00"/>
	<path d="M537.69 2425.45 L537.69 2425.45 L621.23 2425.45 L704.76 2425.45 L788.29 2425.33 L871.82 2425.08 L955.35 2424.71 L1038.88 2423.84 L1122.41 2422.23 L1205.94 2419.51 L1289.47 2415.18 L1373.13 2408.62 L1456.66 2398.97 L1540.19 2385.60 L1623.72 2367.78 L1707.26 2344.89 L1790.79 2316.18 L1874.32 2281.40 L1957.85 2240.44 L2041.38 2193.04 L2124.91 2139.70 L2208.44 2080.92 L2291.97 2017.44 L2375.51 1949.99 L2459.04 1879.33 L2542.57 1806.19 L2626.22 1731.56 L2709.75 1656.20 L2793.28 1580.83 L2876.82 1506.21 L2960.35 1432.82 L3043.88 1361.29 L3127.41 1292.11 L3210.94 1225.41 L3294.47 1161.68 L3378.00 1101.04 L3378.00 1052.16 L3294.47 1118.12 L3210.94 1187.05 L3127.41 1258.70 L3043.88 1332.83 L2960.35 1408.94 L2876.82 1486.53 L2793.28 1565.12 L2709.75 1644.07 L2626.22 1722.53 L2542.57 1799.75 L2459.04 1875.12 L2375.51 1947.51 L2291.97 2016.20 L2208.44 2080.43 L2124.91 2139.21 L2041.38 2192.42 L1957.85 2239.70 L1874.32 2280.78 L1790.79 2315.56 L1707.26 2344.39 L1623.72 2367.41 L1540.19 2385.36 L1456.66 2398.72 L1373.13 2408.25 L1289.47 2414.93 L1205.94 2419.26 L1122.41 2422.11 L1038.88 2423.72 L955.35 2424.59 L871.82 2425.08 L788.29 2425.33 L704.76 2425.45 L621.23 2425.45 L537.69 2425.45 L537.69 2425.45 Z" stroke-linecap="round" style="fill:#3333FF;stroke:#0000FF;stroke-width:3.00"/>
	<circle cx="537.57" cy="2424.96" r="22.03" style="fill:#000000;stroke:#000000;stroke-width:8.64"/>
	<circle cx="621.10" cy="2424.71" r="22.03" style="fill:#000000;stroke:#000000;stroke-width:8.64"/>
	<circle cx="704.76" cy="2423.84" r="22.03" style="fill:#000000;stroke:#000000;stroke-width:8.64"/>
	<circle cx="788.29" cy="2423.47" r="22.03" style="fill:#000000;stroke:#000000;stroke-width:8.64"/>
	<circle cx="871.82" cy="2422.61" r="22.03" style="fill:#000000;stroke:#000000;stroke-width:8.64"/>
	<circle cx="955.35" cy="2421.74" r="22.03" style="fill:#000000;stroke:#000000;stroke-width:8.64"/>
	<circle cx="1038.88" cy="2420.50" r="22.03" style="fill:#000000;stroke:#000000;stroke-width:8.64"/>
	<circle cx="1122.41" cy="2418.89" r="22.03" style="fill:#000000;stroke:#000000;stroke-width:8.64"/>
	<circle cx="1205.94" cy="2416.05" r="22.03" style="fill:#000000;stroke:#000000;stroke-width:8.64"/>
	<circle cx="1289.47" cy="2414.69" r="22.03" style="fill:#000000;stroke:#000000;stroke-width:8.64"/>
	<circle cx="1373.01" cy="2410.73" r="22.03" style="fill:#000000;stroke:#000000;stroke-width:8.64"/>
	<circle cx="1456.54" cy="2395.13" r="22.03" style="fill:#000000;stroke:#000000;stroke-width:8.64"/>
	<circle cx="1540.07" cy="2384.24" r="22.03" style="fill:#000000;stroke:#000000;stroke-width:8.64"/>
	<circle cx="1623.60" cy="2371.62" r="22.03" style="fill:#000000;stroke:#000000;stroke-width:8.64"/>
	<circle cx="1707.13" cy="2349.84" r="22.03" style="fill:#000000;stroke:#000000;stroke-width:8.64"/>
	<circle cx="1790.66" cy="2318.90" r="22.03" style="fill:#000000;stroke:#000000;stroke-width:8.64"/>
	<circle cx="1874.19" cy="2280.54" r="22.03" style="fill:#000000;stroke:#000000;stroke-width:8.64"/>
	<circle cx="1957.85" cy="2230.04" r="22.03" style="fill:#000000;stroke:#000000;stroke-width:8.64"/>
	<circle cx="2041.38" cy="2193.91" r="22.03" style="fill:#000000;stroke:#000000;stroke-width:8.64"/>
	<circle cx="2124.91" cy="2143.79" r="22.03" style="fill:#000000;stroke:#000000;stroke-width:8.64"/>
	<circle cx="2208.44" cy="2079.81" r="22.03" style="fill:#000000;stroke:#000000;stroke-width:8.64"/>
	<line x1="390.80" y1="2489.19" x2="390.80" y2="100.86" style="stroke:#000000;stroke-width:5.76"/>
	<line x1="390.80" y1="2425.45" x2="350.83" y2="2425.45" style="stroke:#000000;stroke-width:5.76"/>
	<text x="300.72" y="2425.45" style="font-family:'Helvetica';font-size:99.99px;fill:#000000" transform="rotate(-90 300.72,2425.45)" text-anchor="middle">0</text>
	<line x1="390.80" y1="1671.67" x2="350.83" y2="1671.67" style="stroke:#000000;stroke-width:5.76"/>
	<text x="300.72" y="1671.67" style="font-family:'Helvetica';font-size:99.99px;fill:#000000" transform="rotate(-90 300.72,1671.67)" text-anchor="middle">20</text>
	<line x1="390.80" y1="917.88" x2="350.83" y2="917.88" style="stroke:#000000;stroke-width:5.76"/>
	<text x="300.72" y="917.88" style="font-family:'Helvetica';font-size:99.99px;fill:#000000" transform="rotate(-90 300.72,917.88)" text-anchor="middle">40</text>
	<line x1="390.80" y1="164.22" x2="350.83" y2="164.22" style="stroke:#000000;stroke-width:5.76"/>
	<text x="300.72" y="164.22" style="font-family:'Helvetica';font-size:99.99px;fill:#000000" transform="rotate(-90 300.72,164.22)" text-anchor="middle">60</text>
	<text x="190.71" y="1294.96" style="font-family:'Helvetica';font-size:99.99px;fill:#000000" transform="rotate(-90 190.71,1294.96)" text-anchor="middle">Confirmed cases per 100 beds</text>
	<line x1="390.80" y1="2489.19" x2="3859.02" y2="2489.19" style="stroke:#000000;stroke-width:5.76"/>
	<line x1="454.16" y1="2489.19" x2="454.16" y2="2529.16" style="stroke:#000000;stroke-width:5.76"/>
	<text x="454.16" y="2619.14" style="font-family:'Helvetica';font-size:99.99px;fill:#000000" text-anchor="middle">0</text>
	<line x1="1289.47" y1="2489.19" x2="1289.47" y2="2529.16" style="stroke:#000000;stroke-width:5.76"/>
	<text x="1289.47" y="2619.14" style="font-family:'Helvetica';font-size:99.99px;fill:#000000" text-anchor="middle">10</text>
	<line x1="2124.91" y1="2489.19" x2="2124.91" y2="2529.16" style="stroke:#000000;stroke-width:5.76"/>
	<text x="2124.91" y="2619.14" style="font-family:'Helvetica';font-size:99.99px;fill:#000000" text-anchor="middle">20</text>
	<line x1="2960.35" y1="2489.19" x2="2960.35" y2="2529.16" style="stroke:#000000;stroke-width:5.76"/>
	<text x="2960.35" y="2619.14" style="font-family:'Helvetica';font-size:99.99px;fill:#000000" text-anchor="middle">30</text>
	<line x1="3795.66" y1="2489.19" x2="3795.66" y2="2529.16" style="stroke:#000000;stroke-width:5.76"/>
	<text x="3795.66" y="2619.14" style="font-family:'Helvetica';font-size:99.99px;fill:#000000" text-anchor="middle">40</text>
	<text x="2124.91" y="2729.16" style="font-family:'Helvetica';font-size:99.99px;fill:#000000" text-anchor="middle">Days since 0.01 confirmed cases per 100 beds</text>
</svg>
