<?xml version="1.0" encoding="UTF-8" standalone="no"?>
<!-- This is a Stata 14.2 generated SVG file (http://www.stata.com) -->

<svg version="1.1" width="5.50in" height="4.00in" viewBox="0 0 3960 2880" xmlns="http://www.w3.org/2000/svg">
	<desc>Stata Graph - Graph</desc>
	<line x1="390.80" y1="164.22" x2="3859.02" y2="164.22" style="stroke:#FF0000;stroke-width:8.64"/>
	<path d="M537.69 2415.30 L537.69 2415.30 L621.23 2415.43 L704.76 2415.92 L788.29 2417.41 L871.82 2420.38 L955.35 2423.97 L1038.88 2425.82 L1122.41 2421.00 L1205.94 2403.42 L1289.47 2368.03 L1373.13 2312.34 L1456.66 2238.09 L1540.19 2150.59 L1623.72 2056.05 L1707.26 1957.91 L1790.79 1857.17 L1874.32 1754.33 L1957.85 1651.87 L2041.38 1555.46 L2124.91 1474.03 L2208.44 1412.65 L2291.97 1368.47 L2375.51 1337.53 L2459.04 1316.62 L2542.57 1303.62 L2626.22 1296.57 L2709.75 1294.22 L2793.28 1295.21 L2876.82 1298.67 L2960.35 1303.75 L3043.88 1309.81 L3127.41 1316.49 L3210.94 1323.42 L3294.47 1330.35 L3378.00 1337.04 L3378.00 397.37 L3294.47 424.72 L3210.94 456.03 L3127.41 491.67 L3043.88 532.14 L2960.35 578.05 L2876.82 629.78 L2793.28 687.82 L2709.75 752.55 L2626.22 824.08 L2542.57 902.41 L2459.04 987.56 L2375.51 1078.64 L2291.97 1174.55 L2208.44 1272.81 L2124.91 1369.21 L2041.38 1460.67 L1957.85 1550.64 L1874.32 1645.06 L1790.79 1745.80 L1707.26 1850.00 L1623.72 1951.60 L1540.19 2044.66 L1456.66 2125.47 L1373.13 2194.53 L1289.47 2253.31 L1205.94 2302.56 L1122.41 2342.29 L1038.88 2372.49 L955.35 2393.03 L871.82 2405.40 L788.29 2411.59 L704.76 2414.19 L621.23 2415.06 L537.69 2415.18 L537.69 2415.30 Z" stroke-linecap="round" style="fill:#EBEBFF;stroke:#E6E6FF;stroke-width:3.00"/>
	<path d="M537.69 2415.30 L537.69 2415.30 L621.23 2415.30 L704.76 2415.43 L788.29 2415.80 L871.82 2416.05 L955.35 2415.06 L1038.88 2410.48 L1122.41 2398.35 L1205.94 2374.34 L1289.47 2334.86 L1373.13 2278.31 L1456.66 2205.67 L1540.19 2120.03 L1623.72 2025.85 L1707.26 1926.72 L1790.79 1825.00 L1874.32 1722.78 L1957.85 1622.66 L2041.38 1528.11 L2124.91 1443.84 L2208.44 1372.31 L2291.97 1312.53 L2375.51 1262.78 L2459.04 1221.70 L2542.57 1187.79 L2626.22 1160.19 L2709.75 1137.92 L2793.28 1119.97 L2876.82 1105.62 L2960.35 1094.36 L3043.88 1085.45 L3127.41 1078.51 L3210.94 1073.07 L3294.47 1068.99 L3378.00 1065.89 L3378.00 668.64 L3294.47 686.09 L3210.94 706.39 L3127.41 729.78 L3043.88 756.63 L2960.35 787.57 L2876.82 822.84 L2793.28 863.18 L2709.75 908.85 L2626.22 960.45 L2542.57 1018.25 L2459.04 1082.48 L2375.51 1153.39 L2291.97 1230.48 L2208.44 1313.15 L2124.91 1399.53 L2041.38 1488.02 L1957.85 1579.84 L1874.32 1676.62 L1790.79 1777.97 L1707.26 1881.06 L1623.72 1981.79 L1540.19 2075.23 L1456.66 2158.02 L1373.13 2228.56 L1289.47 2286.35 L1205.94 2331.65 L1122.41 2365.06 L1038.88 2387.83 L955.35 2401.94 L871.82 2409.74 L788.29 2413.32 L704.76 2414.69 L621.23 2415.18 L537.69 2415.18 L537.69 2415.30 Z" stroke-linecap="round" style="fill:#D6D6FF;stroke:#CCCCFF;stroke-width:3.00"/>
	<path d="M537.69 2415.30 L537.69 2415.30 L621.23 2415.30 L704.76 2415.43 L788.29 2415.55 L871.82 2415.30 L955.35 2413.57 L1038.88 2408.00 L1122.41 2394.64 L1205.94 2369.64 L1289.47 2329.54 L1373.13 2272.86 L1456.66 2200.34 L1540.19 2115.08 L1623.72 2021.02 L1707.26 1921.77 L1790.79 1819.80 L1874.32 1717.70 L1957.85 1617.96 L2041.38 1523.66 L2124.91 1438.89 L2208.44 1365.75 L2291.97 1303.50 L2375.51 1250.78 L2459.04 1206.23 L2542.57 1169.10 L2626.22 1138.16 L2709.75 1112.55 L2793.28 1091.63 L2876.82 1074.43 L2960.35 1060.45 L3043.88 1049.06 L3127.41 1039.90 L3210.94 1032.60 L3294.47 1026.66 L3378.00 1021.96 L3378.00 712.45 L3294.47 728.42 L3210.94 746.85 L3127.41 768.26 L3043.88 792.89 L2960.35 821.35 L2876.82 854.15 L2793.28 891.52 L2709.75 934.09 L2626.22 982.48 L2542.57 1036.93 L2459.04 1097.94 L2375.51 1165.51 L2291.97 1239.64 L2208.44 1319.71 L2124.91 1404.36 L2041.38 1492.47 L1957.85 1584.54 L1874.32 1681.69 L1790.79 1783.17 L1707.26 1886.13 L1623.72 1986.62 L1540.19 2080.18 L1456.66 2163.22 L1373.13 2234.00 L1289.47 2291.67 L1205.94 2336.35 L1122.41 2368.77 L1038.88 2390.31 L955.35 2403.42 L871.82 2410.35 L788.29 2413.57 L704.76 2414.81 L621.23 2415.18 L537.69 2415.18 L537.69 2415.30 Z" stroke-linecap="round" style="fill:#C2C2FF;stroke:#B3B3FF;stroke-width:3.00"/>
	<path d="M537.69 2415.18 L537.69 2415.18 L621.23 2415.30 L704.76 2415.30 L788.29 2415.30 L871.82 2414.81 L955.35 2412.71 L1038.88 2406.27 L1122.41 2392.16 L1205.94 2366.42 L1289.47 2325.95 L1373.13 2269.15 L1456.66 2196.75 L1540.19 2111.74 L1623.72 2017.68 L1707.26 1918.31 L1790.79 1816.34 L1874.32 1714.24 L1957.85 1614.74 L2041.38 1520.69 L2124.91 1435.67 L2208.44 1361.29 L2291.97 1297.31 L2375.51 1242.61 L2459.04 1195.96 L2542.57 1156.48 L2626.22 1123.31 L2709.75 1095.59 L2793.28 1072.45 L2876.82 1053.39 L2960.35 1037.55 L3043.88 1024.56 L3127.41 1013.92 L3210.94 1005.25 L3294.47 998.20 L3378.00 992.38 L3378.00 742.03 L3294.47 756.88 L3210.94 774.20 L3127.41 794.25 L3043.88 817.39 L2960.35 844.25 L2876.82 875.19 L2793.28 910.70 L2709.75 951.17 L2626.22 997.33 L2542.57 1049.56 L2459.04 1108.22 L2375.51 1173.68 L2291.97 1245.71 L2208.44 1324.04 L2124.91 1407.70 L2041.38 1495.44 L1957.85 1587.76 L1874.32 1685.16 L1790.79 1786.63 L1707.26 1889.60 L1623.72 1989.96 L1540.19 2083.52 L1456.66 2166.81 L1373.13 2237.72 L1289.47 2295.39 L1205.94 2339.57 L1122.41 2371.25 L1038.88 2392.04 L955.35 2404.41 L871.82 2410.85 L788.29 2413.82 L704.76 2414.81 L621.23 2415.18 L537.69 2415.18 L537.69 2415.18 Z" stroke-linecap="round" style="fill:#ADADFF;stroke:#9999FF;stroke-width:3.00"/>
	<path d="M537.69 2415.18 L537.69 2415.18 L621.23 2415.30 L704.76 2415.30 L788.29 2415.18 L871.82 2414.44 L955.35 2411.84 L1038.88 2404.91 L1122.41 2390.18 L1205.94 2363.95 L1289.47 2322.98 L1373.13 2266.18 L1456.66 2194.03 L1540.19 2109.14 L1623.72 2015.08 L1707.26 1915.59 L1790.79 1813.49 L1874.32 1711.52 L1957.85 1612.14 L2041.38 1518.34 L2124.91 1433.07 L2208.44 1357.83 L2291.97 1292.49 L2375.51 1236.05 L2459.04 1187.67 L2542.57 1146.46 L2626.22 1111.43 L2709.75 1081.98 L2793.28 1057.23 L2876.82 1036.56 L2960.35 1019.36 L3043.88 1005.13 L3127.41 993.37 L3210.94 983.60 L3294.47 975.55 L3378.00 968.87 L3378.00 765.67 L3294.47 779.65 L3210.94 795.86 L3127.41 814.92 L3043.88 836.95 L2960.35 862.44 L2876.82 891.89 L2793.28 925.80 L2709.75 964.79 L2626.22 1009.21 L2542.57 1059.58 L2459.04 1116.51 L2375.51 1180.12 L2291.97 1250.53 L2208.44 1327.63 L2124.91 1410.30 L2041.38 1497.79 L1957.85 1590.24 L1874.32 1687.88 L1790.79 1789.48 L1707.26 1892.32 L1623.72 1992.56 L1540.19 2086.12 L1456.66 2169.65 L1373.13 2240.69 L1289.47 2298.23 L1205.94 2342.04 L1122.41 2373.23 L1038.88 2393.40 L955.35 2405.16 L871.82 2411.22 L788.29 2413.94 L704.76 2414.93 L621.23 2415.18 L537.69 2415.18 L537.69 2415.18 Z" stroke-linecap="round" style="fill:#9999FF;stroke:#8080FF;stroke-width:3.00"/>
	<path d="M537.69 2415.18 L537.69 2415.18 L621.23 2415.30 L704.76 2415.18 L788.29 2415.06 L871.82 2414.19 L955.35 2411.22 L1038.88 2403.80 L1122.41 2388.45 L1205.94 2361.72 L1289.47 2320.51 L1373.13 2263.58 L1456.66 2191.56 L1540.19 2106.79 L1623.72 2012.86 L1707.26 1913.36 L1790.79 1811.14 L1874.32 1709.16 L1957.85 1610.04 L2041.38 1516.36 L2124.91 1430.72 L2208.44 1354.86 L2291.97 1288.40 L2375.51 1230.48 L2459.04 1180.61 L2542.57 1137.79 L2626.22 1101.29 L2709.75 1070.35 L2793.28 1044.24 L2876.82 1022.21 L2960.35 1003.77 L3043.88 988.42 L3127.41 975.55 L3210.94 964.91 L3294.47 956.00 L3378.00 948.70 L3378.00 785.84 L3294.47 799.08 L3210.94 814.55 L3127.41 832.62 L3043.88 853.65 L2960.35 878.03 L2876.82 906.25 L2793.28 938.92 L2709.75 976.42 L2626.22 1019.36 L2542.57 1068.24 L2459.04 1123.56 L2375.51 1185.69 L2291.97 1254.74 L2208.44 1330.60 L2124.91 1412.53 L2041.38 1499.90 L1957.85 1592.46 L1874.32 1690.23 L1790.79 1791.83 L1707.26 1894.55 L1623.72 1994.79 L1540.19 2088.47 L1456.66 2172.00 L1373.13 2243.16 L1289.47 2300.71 L1205.94 2344.27 L1122.41 2374.84 L1038.88 2394.51 L955.35 2405.90 L871.82 2411.59 L788.29 2414.07 L704.76 2414.93 L621.23 2415.18 L537.69 2415.18 L537.69 2415.18 Z" stroke-linecap="round" style="fill:#8585FF;stroke:#6666FF;stroke-width:3.00"/>
	<path d="M537.69 2415.18 L537.69 2415.18 L621.23 2415.18 L704.76 2415.18 L788.29 2414.93 L871.82 2413.82 L955.35 2410.60 L1038.88 2402.81 L1122.41 2386.96 L1205.94 2359.74 L1289.47 2318.40 L1373.13 2261.35 L1456.66 2189.33 L1540.19 2104.81 L1623.72 2010.88 L1707.26 1911.25 L1790.79 1809.03 L1874.32 1707.06 L1957.85 1608.06 L2041.38 1514.50 L2124.91 1428.74 L2208.44 1352.13 L2291.97 1284.57 L2375.51 1225.53 L2459.04 1174.30 L2542.57 1130.00 L2626.22 1092.13 L2709.75 1059.83 L2793.28 1032.48 L2876.82 1009.34 L2960.35 989.78 L3043.88 973.45 L3127.41 959.71 L3210.94 948.20 L3294.47 938.55 L3378.00 930.63 L3378.00 803.91 L3294.47 816.53 L3210.94 831.25 L3127.41 848.46 L3043.88 868.63 L2960.35 892.02 L2876.82 919.24 L2793.28 950.68 L2709.75 986.81 L2626.22 1028.52 L2542.57 1076.04 L2459.04 1129.87 L2375.51 1190.64 L2291.97 1258.45 L2208.44 1333.32 L2124.91 1414.63 L2041.38 1501.75 L1957.85 1594.44 L1874.32 1692.33 L1790.79 1793.94 L1707.26 1896.65 L1623.72 1996.77 L1540.19 2090.45 L1456.66 2174.23 L1373.13 2245.51 L1289.47 2302.94 L1205.94 2346.13 L1122.41 2376.32 L1038.88 2395.50 L955.35 2406.39 L871.82 2411.84 L788.29 2414.19 L704.76 2414.93 L621.23 2415.18 L537.69 2415.18 L537.69 2415.18 Z" stroke-linecap="round" style="fill:#7171FF;stroke:#4D4DFF;stroke-width:3.00"/>
	<path d="M537.69 2415.18 L537.69 2415.18 L621.23 2415.18 L704.76 2415.18 L788.29 2414.81 L871.82 2413.57 L955.35 2410.11 L1038.88 2401.82 L1122.41 2385.60 L1205.94 2358.01 L1289.47 2316.30 L1373.13 2259.25 L1456.66 2187.35 L1540.19 2102.83 L1623.72 2009.02 L1707.26 1909.27 L1790.79 1807.05 L1874.32 1705.08 L1957.85 1606.20 L2041.38 1512.77 L2124.91 1426.88 L2208.44 1349.66 L2291.97 1281.10 L2375.51 1220.96 L2459.04 1168.36 L2542.57 1122.94 L2626.22 1083.71 L2709.75 1050.18 L2793.28 1021.59 L2876.82 997.33 L2960.35 976.91 L3043.88 959.59 L3127.41 944.98 L3210.94 932.73 L3294.47 922.34 L3378.00 913.80 L3378.00 820.74 L3294.47 832.74 L3210.94 846.72 L3127.41 863.31 L3043.88 882.49 L2960.35 905.01 L2876.82 931.12 L2793.28 961.44 L2709.75 996.59 L2626.22 1036.93 L2542.57 1083.09 L2459.04 1135.81 L2375.51 1195.34 L2291.97 1261.92 L2208.44 1335.80 L2124.91 1416.49 L2041.38 1503.36 L1957.85 1596.18 L1874.32 1694.31 L1790.79 1796.04 L1707.26 1898.63 L1623.72 1998.62 L1540.19 2092.31 L1456.66 2176.21 L1373.13 2247.62 L1289.47 2304.92 L1205.94 2347.98 L1122.41 2377.81 L1038.88 2396.49 L955.35 2407.01 L871.82 2412.09 L788.29 2414.31 L704.76 2414.93 L621.23 2415.18 L537.69 2415.18 L537.69 2415.18 Z" stroke-linecap="round" style="fill:#5C5CFF;stroke:#3333FF;stroke-width:3.00"/>
	<path d="M537.69 2415.18 L537.69 2415.18 L621.23 2415.18 L704.76 2415.18 L788.29 2414.69 L871.82 2413.32 L955.35 2409.49 L1038.88 2400.95 L1122.41 2384.24 L1205.94 2356.27 L1289.47 2314.32 L1373.13 2257.27 L1456.66 2185.49 L1540.19 2101.09 L1623.72 2007.29 L1707.26 1907.42 L1790.79 1805.07 L1874.32 1703.22 L1957.85 1604.59 L2041.38 1511.16 L2124.91 1425.03 L2208.44 1347.31 L2291.97 1277.88 L2375.51 1216.50 L2459.04 1162.79 L2542.57 1116.14 L2626.22 1075.67 L2709.75 1041.02 L2793.28 1011.32 L2876.82 986.07 L2960.35 964.54 L3043.88 946.35 L3127.41 931.00 L3210.94 918.01 L3294.47 906.99 L3378.00 897.83 L3378.00 836.70 L3294.47 848.09 L3210.94 861.45 L3127.41 877.29 L3043.88 895.73 L2960.35 917.26 L2876.82 942.51 L2793.28 971.84 L2709.75 1005.75 L2626.22 1044.98 L2542.57 1089.90 L2459.04 1141.38 L2375.51 1199.67 L2291.97 1265.26 L2208.44 1338.15 L2124.91 1418.22 L2041.38 1504.97 L1957.85 1597.91 L1874.32 1696.17 L1790.79 1797.90 L1707.26 1900.49 L1623.72 2000.48 L1540.19 2094.16 L1456.66 2178.07 L1373.13 2249.60 L1289.47 2306.90 L1205.94 2349.71 L1122.41 2379.17 L1038.88 2397.36 L955.35 2407.51 L871.82 2412.33 L788.29 2414.31 L704.76 2415.06 L621.23 2415.18 L537.69 2415.18 L537.69 2415.18 Z" stroke-linecap="round" style="fill:#4747FF;stroke:#1919FF;stroke-width:3.00"/>
	<path d="M537.69 2415.18 L537.69 2415.18 L621.23 2415.18 L704.76 2415.06 L788.29 2414.69 L871.82 2413.08 L955.35 2408.99 L1038.88 2399.96 L1122.41 2383.00 L1205.94 2354.66 L1289.47 2312.46 L1373.13 2255.29 L1456.66 2183.64 L1540.19 2099.36 L1623.72 2005.56 L1707.26 1905.69 L1790.79 1803.34 L1874.32 1701.49 L1957.85 1602.86 L2041.38 1509.67 L2124.91 1423.42 L2208.44 1344.96 L2291.97 1274.66 L2375.51 1212.29 L2459.04 1157.35 L2542.57 1109.45 L2626.22 1068.00 L2709.75 1032.11 L2793.28 1001.42 L2876.82 975.06 L2960.35 952.66 L3043.88 933.60 L3127.41 917.39 L3210.94 903.77 L3294.47 892.14 L3378.00 882.37 L3378.00 852.05 L3294.47 862.94 L3210.94 875.68 L3127.41 890.78 L3043.88 908.48 L2960.35 929.14 L2876.82 953.40 L2793.28 981.74 L2709.75 1014.66 L2626.22 1052.65 L2542.57 1096.58 L2459.04 1146.83 L2375.51 1203.88 L2291.97 1268.35 L2208.44 1340.50 L2124.91 1419.95 L2041.38 1506.58 L1957.85 1599.64 L1874.32 1697.90 L1790.79 1799.75 L1707.26 1902.22 L1623.72 2002.09 L1540.19 2095.90 L1456.66 2179.92 L1373.13 2251.58 L1289.47 2308.75 L1205.94 2351.32 L1122.41 2380.41 L1038.88 2398.35 L955.35 2408.00 L871.82 2412.58 L788.29 2414.44 L704.76 2415.06 L621.23 2415.18 L537.69 2415.18 L537.69 2415.18 Z" stroke-linecap="round" style="fill:#3333FF;stroke:#0000FF;stroke-width:3.00"/>
	<circle cx="537.57" cy="2409.61" r="22.03" style="fill:#000000;stroke:#000000;stroke-width:8.64"/>
	<circle cx="621.10" cy="2405.53" r="22.03" style="fill:#000000;stroke:#000000;stroke-width:8.64"/>
	<circle cx="704.76" cy="2404.66" r="22.03" style="fill:#000000;stroke:#000000;stroke-width:8.64"/>
	<circle cx="788.29" cy="2403.80" r="22.03" style="fill:#000000;stroke:#000000;stroke-width:8.64"/>
	<circle cx="871.82" cy="2403.05" r="22.03" style="fill:#000000;stroke:#000000;stroke-width:8.64"/>
	<circle cx="955.35" cy="2395.63" r="22.03" style="fill:#000000;stroke:#000000;stroke-width:8.64"/>
	<circle cx="1038.88" cy="2386.59" r="22.03" style="fill:#000000;stroke:#000000;stroke-width:8.64"/>
	<circle cx="1122.41" cy="2365.31" r="22.03" style="fill:#000000;stroke:#000000;stroke-width:8.64"/>
	<circle cx="1205.94" cy="2303.18" r="22.03" style="fill:#000000;stroke:#000000;stroke-width:8.64"/>
	<circle cx="1289.47" cy="2283.51" r="22.03" style="fill:#000000;stroke:#000000;stroke-width:8.64"/>
	<circle cx="1373.01" cy="2249.10" r="22.03" style="fill:#000000;stroke:#000000;stroke-width:8.64"/>
	<circle cx="1456.54" cy="2212.22" r="22.03" style="fill:#000000;stroke:#000000;stroke-width:8.64"/>
	<circle cx="1540.07" cy="2148.37" r="22.03" style="fill:#000000;stroke:#000000;stroke-width:8.64"/>
	<circle cx="1623.60" cy="2036.99" r="22.03" style="fill:#000000;stroke:#000000;stroke-width:8.64"/>
	<circle cx="1707.13" cy="1907.67" r="22.03" style="fill:#000000;stroke:#000000;stroke-width:8.64"/>
	<circle cx="1790.66" cy="1780.82" r="22.03" style="fill:#000000;stroke:#000000;stroke-width:8.64"/>
	<circle cx="1874.19" cy="1658.80" r="22.03" style="fill:#000000;stroke:#000000;stroke-width:8.64"/>
	<circle cx="1957.85" cy="1570.31" r="22.03" style="fill:#000000;stroke:#000000;stroke-width:8.64"/>
	<circle cx="2041.38" cy="1497.55" r="22.03" style="fill:#000000;stroke:#000000;stroke-width:8.64"/>
	<circle cx="2124.91" cy="1459.80" r="22.03" style="fill:#000000;stroke:#000000;stroke-width:8.64"/>
	<circle cx="2208.44" cy="1350.15" r="22.03" style="fill:#000000;stroke:#000000;stroke-width:8.64"/>
	<line x1="390.80" y1="2489.19" x2="390.80" y2="100.86" style="stroke:#000000;stroke-width:5.76"/>
	<line x1="390.80" y1="2415.18" x2="350.83" y2="2415.18" style="stroke:#000000;stroke-width:5.76"/>
	<text x="300.72" y="2415.18" style="font-family:'Helvetica';font-size:99.99px;fill:#000000" transform="rotate(-90 300.72,2415.18)" text-anchor="middle">0</text>
	<line x1="390.80" y1="1964.96" x2="350.83" y2="1964.96" style="stroke:#000000;stroke-width:5.76"/>
	<text x="300.72" y="1964.96" style="font-family:'Helvetica';font-size:99.99px;fill:#000000" transform="rotate(-90 300.72,1964.96)" text-anchor="middle">2</text>
	<line x1="390.80" y1="1514.75" x2="350.83" y2="1514.75" style="stroke:#000000;stroke-width:5.76"/>
	<text x="300.72" y="1514.75" style="font-family:'Helvetica';font-size:99.99px;fill:#000000" transform="rotate(-90 300.72,1514.75)" text-anchor="middle">4</text>
	<line x1="390.80" y1="1064.53" x2="350.83" y2="1064.53" style="stroke:#000000;stroke-width:5.76"/>
	<text x="300.72" y="1064.53" style="font-family:'Helvetica';font-size:99.99px;fill:#000000" transform="rotate(-90 300.72,1064.53)" text-anchor="middle">6</text>
	<line x1="390.80" y1="614.31" x2="350.83" y2="614.31" style="stroke:#000000;stroke-width:5.76"/>
	<text x="300.72" y="614.31" style="font-family:'Helvetica';font-size:99.99px;fill:#000000" transform="rotate(-90 300.72,614.31)" text-anchor="middle">8</text>
	<line x1="390.80" y1="164.22" x2="350.83" y2="164.22" style="stroke:#000000;stroke-width:5.76"/>
	<text x="300.72" y="164.22" style="font-family:'Helvetica';font-size:99.99px;fill:#000000" transform="rotate(-90 300.72,164.22)" text-anchor="middle">10</text>
	<text x="190.71" y="1294.96" style="font-family:'Helvetica';font-size:99.99px;fill:#000000" transform="rotate(-90 190.71,1294.96)" text-anchor="middle">Confirmed cases per 100 beds</text>
	<line x1="390.80" y1="2489.19" x2="3859.02" y2="2489.19" style="stroke:#000000;stroke-width:5.76"/>
	<line x1="454.16" y1="2489.19" x2="454.16" y2="2529.16" style="stroke:#000000;stroke-width:5.76"/>
	<text x="454.16" y="2619.14" style="font-family:'Helvetica';font-size:99.99px;fill:#000000" text-anchor="middle">0</text>
	<line x1="1289.47" y1="2489.19" x2="1289.47" y2="2529.16" style="stroke:#000000;stroke-width:5.76"/>
	<text x="1289.47" y="2619.14" style="font-family:'Helvetica';font-size:99.99px;fill:#000000" text-anchor="middle">10</text>
	<line x1="2124.91" y1="2489.19" x2="2124.91" y2="2529.16" style="stroke:#000000;stroke-width:5.76"/>
	<text x="2124.91" y="2619.14" style="font-family:'Helvetica';font-size:99.99px;fill:#000000" text-anchor="middle">20</text>
	<line x1="2960.35" y1="2489.19" x2="2960.35" y2="2529.16" style="stroke:#000000;stroke-width:5.76"/>
	<text x="2960.35" y="2619.14" style="font-family:'Helvetica';font-size:99.99px;fill:#000000" text-anchor="middle">30</text>
	<line x1="3795.66" y1="2489.19" x2="3795.66" y2="2529.16" style="stroke:#000000;stroke-width:5.76"/>
	<text x="3795.66" y="2619.14" style="font-family:'Helvetica';font-size:99.99px;fill:#000000" text-anchor="middle">40</text>
	<text x="2124.91" y="2729.16" style="font-family:'Helvetica';font-size:99.99px;fill:#000000" text-anchor="middle">Days since 0.01 confirmed cases per 100 beds</text>
</svg>
