<?xml version="1.0" encoding="UTF-8" standalone="no"?>
<!-- This is a Stata 14.2 generated SVG file (http://www.stata.com) -->

<svg version="1.1" width="5.50in" height="4.00in" viewBox="0 0 3960 2880" xmlns="http://www.w3.org/2000/svg">
	<desc>Stata Graph - Graph</desc>
	<line x1="390.80" y1="1589.99" x2="3859.02" y2="1589.99" style="stroke:#FF0000;stroke-width:8.64"/>
	<path d="M537.69 1868.93 L537.69 1868.93 L621.23 1869.18 L704.76 1869.67 L788.29 1870.29 L871.82 1871.03 L955.35 1871.65 L1038.88 1872.02 L1122.41 1871.41 L1205.94 1869.43 L1289.47 1865.34 L1373.13 1859.03 L1456.66 1850.37 L1540.19 1841.09 L1623.72 1832.18 L1707.26 1822.52 L1790.79 1810.15 L1874.32 1793.94 L1957.85 1772.28 L2041.38 1744.43 L2124.91 1710.77 L2208.44 1681.82 L2291.97 1670.92 L2375.51 1670.55 L2459.04 1678.84 L2542.57 1696.05 L2626.22 1722.04 L2709.75 1756.69 L2793.28 1799.75 L2876.82 1850.74 L2960.35 1908.90 L3043.88 1973.50 L3127.41 2043.55 L3210.94 2118.17 L3294.47 2196.51 L3378.00 2277.69 L3378.00 164.22 L3294.47 299.48 L3210.94 434.62 L3127.41 568.53 L3043.88 700.20 L2960.35 828.53 L2876.82 952.16 L2793.28 1070.10 L2709.75 1181.11 L2626.22 1284.19 L2542.57 1378.49 L2459.04 1463.14 L2375.51 1537.77 L2291.97 1601.50 L2208.44 1652.11 L2124.91 1681.32 L2041.38 1701.74 L1957.85 1723.64 L1874.32 1746.79 L1790.79 1770.18 L1707.26 1792.20 L1623.72 1811.51 L1540.19 1826.73 L1456.66 1836.75 L1373.13 1843.19 L1289.47 1848.14 L1205.94 1852.47 L1122.41 1856.18 L1038.88 1859.53 L955.35 1862.25 L871.82 1864.48 L788.29 1866.08 L704.76 1867.07 L621.23 1867.82 L537.69 1868.19 L537.69 1868.93 Z" stroke-linecap="round" style="fill:#EBEBFF;stroke:#E6E6FF;stroke-width:3.00"/>
	<path d="M537.69 1868.68 L537.69 1868.68 L621.23 1868.81 L704.76 1868.93 L788.29 1869.05 L871.82 1869.18 L955.35 1868.93 L1038.88 1868.44 L1122.41 1866.95 L1205.94 1864.48 L1289.47 1860.39 L1373.13 1854.45 L1456.66 1846.41 L1540.19 1836.88 L1623.72 1826.24 L1707.26 1813.74 L1790.79 1798.64 L1874.32 1780.32 L1957.85 1758.29 L2041.38 1732.18 L2124.91 1702.23 L2208.44 1673.28 L2291.97 1650.88 L2375.51 1632.19 L2459.04 1616.60 L2542.57 1604.35 L2626.22 1595.68 L2709.75 1590.61 L2793.28 1589.25 L2876.82 1591.47 L2960.35 1597.17 L3043.88 1605.95 L3127.41 1617.83 L3210.94 1632.31 L3294.47 1649.02 L3378.00 1667.71 L3378.00 774.08 L3294.47 846.97 L3210.94 920.48 L3127.41 994.24 L3043.88 1067.75 L2960.35 1140.39 L2876.82 1211.55 L2793.28 1280.73 L2709.75 1347.18 L2626.22 1410.55 L2542.57 1470.07 L2459.04 1525.39 L2375.51 1576.01 L2291.97 1621.55 L2208.44 1660.65 L2124.91 1689.86 L2041.38 1714.11 L1957.85 1737.63 L1874.32 1760.40 L1790.79 1781.68 L1707.26 1800.87 L1623.72 1817.45 L1540.19 1830.81 L1456.66 1840.72 L1373.13 1847.77 L1289.47 1853.09 L1205.94 1857.30 L1122.41 1860.64 L1038.88 1863.11 L955.35 1864.97 L871.82 1866.33 L788.29 1867.32 L704.76 1867.82 L621.23 1868.19 L537.69 1868.44 L537.69 1868.68 Z" stroke-linecap="round" style="fill:#D6D6FF;stroke:#CCCCFF;stroke-width:3.00"/>
	<path d="M537.69 1868.68 L537.69 1868.68 L621.23 1868.81 L704.76 1868.81 L788.29 1868.93 L871.82 1868.81 L955.35 1868.56 L1038.88 1867.82 L1122.41 1866.33 L1205.94 1863.73 L1289.47 1859.65 L1373.13 1853.71 L1456.66 1845.79 L1540.19 1836.26 L1623.72 1825.25 L1707.26 1812.38 L1790.79 1796.78 L1874.32 1778.10 L1957.85 1755.94 L2041.38 1730.20 L2124.91 1700.87 L2208.44 1671.91 L2291.97 1647.66 L2375.51 1626.00 L2459.04 1606.57 L2542.57 1589.49 L2626.22 1575.14 L2709.75 1563.75 L2793.28 1555.09 L2876.82 1549.52 L2960.35 1546.68 L3043.88 1546.55 L3127.41 1549.03 L3210.94 1553.73 L3294.47 1560.41 L3378.00 1568.95 L3378.00 872.84 L3294.47 935.58 L3210.94 999.06 L3127.41 1063.05 L3043.88 1127.15 L2960.35 1190.76 L2876.82 1253.50 L2793.28 1314.76 L2709.75 1374.04 L2626.22 1430.97 L2542.57 1484.92 L2459.04 1535.54 L2375.51 1582.32 L2291.97 1624.76 L2208.44 1662.14 L2124.91 1691.22 L2041.38 1716.09 L1957.85 1739.98 L1874.32 1762.63 L1790.79 1783.54 L1707.26 1802.35 L1623.72 1818.44 L1540.19 1831.56 L1456.66 1841.33 L1373.13 1848.51 L1289.47 1853.96 L1205.94 1858.16 L1122.41 1861.26 L1038.88 1863.73 L955.35 1865.47 L871.82 1866.70 L788.29 1867.45 L704.76 1867.94 L621.23 1868.31 L537.69 1868.44 L537.69 1868.68 Z" stroke-linecap="round" style="fill:#C2C2FF;stroke:#B3B3FF;stroke-width:3.00"/>
	<path d="M537.69 1868.68 L537.69 1868.68 L621.23 1868.68 L704.76 1868.68 L788.29 1868.68 L871.82 1868.56 L955.35 1868.19 L1038.88 1867.45 L1122.41 1865.84 L1205.94 1863.11 L1289.47 1859.03 L1373.13 1853.21 L1456.66 1845.42 L1540.19 1835.76 L1623.72 1824.63 L1707.26 1811.39 L1790.79 1795.54 L1874.32 1776.61 L1957.85 1754.46 L2041.38 1728.84 L2124.91 1700.01 L2208.44 1670.92 L2291.97 1645.43 L2375.51 1621.79 L2459.04 1599.77 L2542.57 1579.47 L2626.22 1561.40 L2709.75 1545.56 L2793.28 1532.20 L2876.82 1521.18 L2960.35 1512.64 L3043.88 1506.46 L3127.41 1502.50 L3210.94 1500.64 L3294.47 1500.64 L3378.00 1502.37 L3378.00 939.42 L3294.47 995.35 L3210.94 1052.16 L3127.41 1109.58 L3043.88 1167.25 L2960.35 1224.79 L2876.82 1281.84 L2793.28 1337.78 L2709.75 1392.23 L2626.22 1444.83 L2542.57 1494.95 L2459.04 1542.34 L2375.51 1586.40 L2291.97 1626.99 L2208.44 1663.00 L2124.91 1692.09 L2041.38 1717.46 L1957.85 1741.46 L1874.32 1764.11 L1790.79 1784.78 L1707.26 1803.34 L1623.72 1819.18 L1540.19 1831.93 L1456.66 1841.71 L1373.13 1849.01 L1289.47 1854.45 L1205.94 1858.66 L1122.41 1861.75 L1038.88 1864.10 L955.35 1865.71 L871.82 1866.83 L788.29 1867.57 L704.76 1868.06 L621.23 1868.31 L537.69 1868.44 L537.69 1868.68 Z" stroke-linecap="round" style="fill:#ADADFF;stroke:#9999FF;stroke-width:3.00"/>
	<path d="M537.69 1868.68 L537.69 1868.68 L621.23 1868.68 L704.76 1868.68 L788.29 1868.68 L871.82 1868.44 L955.35 1868.06 L1038.88 1867.07 L1122.41 1865.47 L1205.94 1862.74 L1289.47 1858.66 L1373.13 1852.84 L1456.66 1845.05 L1540.19 1835.39 L1623.72 1824.13 L1707.26 1810.64 L1790.79 1794.55 L1874.32 1775.50 L1957.85 1753.22 L2041.38 1727.73 L2124.91 1699.26 L2208.44 1670.18 L2291.97 1643.70 L2375.51 1618.45 L2459.04 1594.32 L2542.57 1571.55 L2626.22 1550.39 L2709.75 1531.21 L2793.28 1513.88 L2876.82 1498.66 L2960.35 1485.54 L3043.88 1474.53 L3127.41 1465.62 L3210.94 1458.44 L3294.47 1453.12 L3378.00 1449.53 L3378.00 992.26 L3294.47 1042.75 L3210.94 1094.23 L3127.41 1146.46 L3043.88 1199.17 L2960.35 1251.89 L2876.82 1304.24 L2793.28 1355.97 L2709.75 1406.59 L2626.22 1455.72 L2542.57 1502.87 L2459.04 1547.67 L2375.51 1589.74 L2291.97 1628.72 L2208.44 1663.75 L2124.91 1692.83 L2041.38 1718.45 L1957.85 1742.70 L1874.32 1765.23 L1790.79 1785.89 L1707.26 1804.08 L1623.72 1819.68 L1540.19 1832.30 L1456.66 1842.08 L1373.13 1849.38 L1289.47 1854.95 L1205.94 1859.03 L1122.41 1862.12 L1038.88 1864.35 L955.35 1865.96 L871.82 1867.07 L788.29 1867.69 L704.76 1868.06 L621.23 1868.31 L537.69 1868.44 L537.69 1868.68 Z" stroke-linecap="round" style="fill:#9999FF;stroke:#8080FF;stroke-width:3.00"/>
	<path d="M537.69 1868.68 L537.69 1868.68 L621.23 1868.68 L704.76 1868.56 L788.29 1868.56 L871.82 1868.31 L955.35 1867.82 L1038.88 1866.83 L1122.41 1865.09 L1205.94 1862.37 L1289.47 1858.29 L1373.13 1852.47 L1456.66 1844.68 L1540.19 1835.15 L1623.72 1823.64 L1707.26 1810.02 L1790.79 1793.69 L1874.32 1774.38 L1957.85 1752.23 L2041.38 1726.86 L2124.91 1698.65 L2208.44 1669.56 L2291.97 1642.21 L2375.51 1615.61 L2459.04 1589.74 L2542.57 1564.74 L2626.22 1540.98 L2709.75 1518.83 L2793.28 1498.16 L2876.82 1479.35 L2960.35 1462.40 L3043.88 1447.18 L3127.41 1433.94 L3210.94 1422.30 L3294.47 1412.40 L3378.00 1404.11 L3378.00 1037.68 L3294.47 1083.59 L3210.94 1130.49 L3127.41 1178.14 L3043.88 1226.52 L2960.35 1275.04 L2876.82 1323.55 L2793.28 1371.69 L2709.75 1418.96 L2626.22 1465.12 L2542.57 1509.67 L2459.04 1552.37 L2375.51 1592.59 L2291.97 1630.21 L2208.44 1664.37 L2124.91 1693.45 L2041.38 1719.44 L1957.85 1743.69 L1874.32 1766.22 L1790.79 1786.63 L1707.26 1804.70 L1623.72 1820.05 L1540.19 1832.67 L1456.66 1842.32 L1373.13 1849.75 L1289.47 1855.32 L1205.94 1859.40 L1122.41 1862.50 L1038.88 1864.60 L955.35 1866.21 L871.82 1867.20 L788.29 1867.82 L704.76 1868.19 L621.23 1868.44 L537.69 1868.56 L537.69 1868.68 Z" stroke-linecap="round" style="fill:#8585FF;stroke:#6666FF;stroke-width:3.00"/>
	<path d="M537.69 1868.56 L537.69 1868.56 L621.23 1868.56 L704.76 1868.56 L788.29 1868.44 L871.82 1868.19 L955.35 1867.57 L1038.88 1866.58 L1122.41 1864.85 L1205.94 1862.00 L1289.47 1857.92 L1373.13 1852.10 L1456.66 1844.43 L1540.19 1834.90 L1623.72 1823.27 L1707.26 1809.41 L1790.79 1792.82 L1874.32 1773.52 L1957.85 1751.24 L2041.38 1726.00 L2124.91 1698.03 L2208.44 1668.94 L2291.97 1640.85 L2375.51 1613.13 L2459.04 1585.53 L2542.57 1558.68 L2626.22 1532.57 L2709.75 1507.69 L2793.28 1484.18 L2876.82 1462.03 L2960.35 1441.49 L3043.88 1422.67 L3127.41 1405.47 L3210.94 1389.88 L3294.47 1375.90 L3378.00 1363.40 L3378.00 1078.51 L3294.47 1120.10 L3210.94 1162.92 L3127.41 1206.60 L3043.88 1251.03 L2960.35 1295.95 L2876.82 1340.87 L2793.28 1385.80 L2709.75 1430.10 L2626.22 1473.54 L2542.57 1515.86 L2459.04 1556.45 L2375.51 1595.19 L2291.97 1631.57 L2208.44 1664.98 L2124.91 1694.07 L2041.38 1720.30 L1957.85 1744.68 L1874.32 1767.21 L1790.79 1787.50 L1707.26 1805.32 L1623.72 1820.54 L1540.19 1832.92 L1456.66 1842.57 L1373.13 1850.00 L1289.47 1855.57 L1205.94 1859.77 L1122.41 1862.74 L1038.88 1864.85 L955.35 1866.33 L871.82 1867.32 L788.29 1867.94 L704.76 1868.19 L621.23 1868.44 L537.69 1868.56 L537.69 1868.56 Z" stroke-linecap="round" style="fill:#7171FF;stroke:#4D4DFF;stroke-width:3.00"/>
	<path d="M537.69 1868.56 L537.69 1868.56 L621.23 1868.56 L704.76 1868.56 L788.29 1868.44 L871.82 1868.06 L955.35 1867.45 L1038.88 1866.33 L1122.41 1864.60 L1205.94 1861.75 L1289.47 1857.67 L1373.13 1851.85 L1456.66 1844.18 L1540.19 1834.65 L1623.72 1822.89 L1707.26 1808.79 L1790.79 1792.20 L1874.32 1772.65 L1957.85 1750.37 L2041.38 1725.25 L2124.91 1697.53 L2208.44 1668.45 L2291.97 1639.61 L2375.51 1610.66 L2459.04 1581.70 L2542.57 1552.99 L2626.22 1524.77 L2709.75 1497.42 L2793.28 1471.06 L2876.82 1445.94 L2960.35 1422.18 L3043.88 1399.90 L3127.41 1379.11 L3210.94 1359.81 L3294.47 1341.99 L3378.00 1325.53 L3378.00 1116.26 L3294.47 1154.00 L3210.94 1192.99 L3127.41 1232.96 L3043.88 1273.80 L2960.35 1315.26 L2876.82 1356.96 L2793.28 1398.79 L2709.75 1440.37 L2626.22 1481.46 L2542.57 1521.55 L2459.04 1560.29 L2375.51 1597.54 L2291.97 1632.81 L2208.44 1665.48 L2124.91 1694.56 L2041.38 1721.05 L1957.85 1745.55 L1874.32 1768.07 L1790.79 1788.24 L1707.26 1805.82 L1623.72 1820.79 L1540.19 1833.17 L1456.66 1842.82 L1373.13 1850.24 L1289.47 1855.94 L1205.94 1860.02 L1122.41 1862.99 L1038.88 1865.09 L955.35 1866.46 L871.82 1867.45 L788.29 1867.94 L704.76 1868.31 L621.23 1868.44 L537.69 1868.56 L537.69 1868.56 Z" stroke-linecap="round" style="fill:#5C5CFF;stroke:#3333FF;stroke-width:3.00"/>
	<path d="M537.69 1868.56 L537.69 1868.56 L621.23 1868.56 L704.76 1868.44 L788.29 1868.31 L871.82 1867.94 L955.35 1867.32 L1038.88 1866.21 L1122.41 1864.35 L1205.94 1861.51 L1289.47 1857.30 L1373.13 1851.61 L1456.66 1843.93 L1540.19 1834.40 L1623.72 1822.52 L1707.26 1808.29 L1790.79 1791.46 L1874.32 1771.91 L1957.85 1749.51 L2041.38 1724.51 L2124.91 1697.04 L2208.44 1667.95 L2291.97 1638.50 L2375.51 1608.43 L2459.04 1577.99 L2542.57 1547.54 L2626.22 1517.35 L2709.75 1487.65 L2793.28 1458.69 L2876.82 1430.72 L2960.35 1403.86 L3043.88 1378.37 L3127.41 1354.11 L3210.94 1331.22 L3294.47 1309.81 L3378.00 1289.76 L3378.00 1152.15 L3294.47 1186.18 L3210.94 1221.57 L3127.41 1257.96 L3043.88 1295.46 L2960.35 1333.57 L2876.82 1372.18 L2793.28 1411.17 L2709.75 1450.15 L2626.22 1488.88 L2542.57 1526.88 L2459.04 1564.00 L2375.51 1599.77 L2291.97 1633.92 L2208.44 1665.97 L2124.91 1695.06 L2041.38 1721.79 L1957.85 1746.41 L1874.32 1768.81 L1790.79 1788.86 L1707.26 1806.31 L1623.72 1821.16 L1540.19 1833.41 L1456.66 1843.07 L1373.13 1850.62 L1289.47 1856.18 L1205.94 1860.39 L1122.41 1863.36 L1038.88 1865.34 L955.35 1866.70 L871.82 1867.57 L788.29 1868.06 L704.76 1868.31 L621.23 1868.44 L537.69 1868.56 L537.69 1868.56 Z" stroke-linecap="round" style="fill:#4747FF;stroke:#1919FF;stroke-width:3.00"/>
	<path d="M537.69 1868.56 L537.69 1868.56 L621.23 1868.56 L704.76 1868.44 L788.29 1868.19 L871.82 1867.82 L955.35 1867.07 L1038.88 1865.96 L1122.41 1864.10 L1205.94 1861.13 L1289.47 1857.05 L1373.13 1851.36 L1456.66 1843.81 L1540.19 1834.16 L1623.72 1822.15 L1707.26 1807.80 L1790.79 1790.84 L1874.32 1771.17 L1957.85 1748.77 L2041.38 1723.77 L2124.91 1696.54 L2208.44 1667.46 L2291.97 1637.39 L2375.51 1606.33 L2459.04 1574.52 L2542.57 1542.34 L2626.22 1510.17 L2709.75 1478.24 L2793.28 1446.68 L2876.82 1415.99 L2960.35 1386.17 L3043.88 1357.46 L3127.41 1329.86 L3210.94 1303.62 L3294.47 1278.62 L3378.00 1254.99 L3378.00 1186.80 L3294.47 1217.37 L3210.94 1249.17 L3127.41 1282.21 L3043.88 1316.25 L2960.35 1351.27 L2876.82 1386.91 L2793.28 1423.17 L2709.75 1459.55 L2626.22 1496.06 L2542.57 1532.07 L2459.04 1567.59 L2375.51 1601.99 L2291.97 1635.16 L2208.44 1666.47 L2124.91 1695.55 L2041.38 1722.41 L1957.85 1747.16 L1874.32 1769.56 L1790.79 1789.48 L1707.26 1806.81 L1623.72 1821.53 L1540.19 1833.66 L1456.66 1843.31 L1373.13 1850.86 L1289.47 1856.43 L1205.94 1860.64 L1122.41 1863.61 L1038.88 1865.59 L955.35 1866.83 L871.82 1867.57 L788.29 1868.06 L704.76 1868.31 L621.23 1868.44 L537.69 1868.56 L537.69 1868.56 Z" stroke-linecap="round" style="fill:#3333FF;stroke:#0000FF;stroke-width:3.00"/>
	<circle cx="537.57" cy="1868.19" r="22.03" style="fill:#000000;stroke:#000000;stroke-width:8.64"/>
	<circle cx="621.10" cy="1867.94" r="22.03" style="fill:#000000;stroke:#000000;stroke-width:8.64"/>
	<circle cx="704.76" cy="1867.45" r="22.03" style="fill:#000000;stroke:#000000;stroke-width:8.64"/>
	<circle cx="788.29" cy="1867.07" r="22.03" style="fill:#000000;stroke:#000000;stroke-width:8.64"/>
	<circle cx="871.82" cy="1866.70" r="22.03" style="fill:#000000;stroke:#000000;stroke-width:8.64"/>
	<circle cx="955.35" cy="1866.21" r="22.03" style="fill:#000000;stroke:#000000;stroke-width:8.64"/>
	<circle cx="1038.88" cy="1864.97" r="22.03" style="fill:#000000;stroke:#000000;stroke-width:8.64"/>
	<circle cx="1122.41" cy="1862.99" r="22.03" style="fill:#000000;stroke:#000000;stroke-width:8.64"/>
	<circle cx="1205.94" cy="1854.95" r="22.03" style="fill:#000000;stroke:#000000;stroke-width:8.64"/>
	<circle cx="1289.47" cy="1851.36" r="22.03" style="fill:#000000;stroke:#000000;stroke-width:8.64"/>
	<circle cx="1373.01" cy="1846.90" r="22.03" style="fill:#000000;stroke:#000000;stroke-width:8.64"/>
	<circle cx="1456.54" cy="1844.18" r="22.03" style="fill:#000000;stroke:#000000;stroke-width:8.64"/>
	<circle cx="1540.07" cy="1836.63" r="22.03" style="fill:#000000;stroke:#000000;stroke-width:8.64"/>
	<circle cx="1623.60" cy="1826.61" r="22.03" style="fill:#000000;stroke:#000000;stroke-width:8.64"/>
	<circle cx="1707.13" cy="1812.75" r="22.03" style="fill:#000000;stroke:#000000;stroke-width:8.64"/>
	<circle cx="1790.66" cy="1795.30" r="22.03" style="fill:#000000;stroke:#000000;stroke-width:8.64"/>
	<circle cx="1874.19" cy="1779.70" r="22.03" style="fill:#000000;stroke:#000000;stroke-width:8.64"/>
	<circle cx="1957.85" cy="1724.76" r="22.03" style="fill:#000000;stroke:#000000;stroke-width:8.64"/>
	<circle cx="2041.38" cy="1724.76" r="22.03" style="fill:#000000;stroke:#000000;stroke-width:8.64"/>
	<circle cx="2124.91" cy="1695.30" r="22.03" style="fill:#000000;stroke:#000000;stroke-width:8.64"/>
	<circle cx="2208.44" cy="1671.67" r="22.03" style="fill:#000000;stroke:#000000;stroke-width:8.64"/>
	<line x1="390.80" y1="2489.19" x2="390.80" y2="100.86" style="stroke:#000000;stroke-width:5.76"/>
	<line x1="390.80" y1="2425.82" x2="350.83" y2="2425.82" style="stroke:#000000;stroke-width:5.76"/>
	<text x="300.72" y="2425.82" style="font-family:'Helvetica';font-size:99.99px;fill:#000000" transform="rotate(-90 300.72,2425.82)" text-anchor="middle">-20</text>
	<line x1="390.80" y1="1868.56" x2="350.83" y2="1868.56" style="stroke:#000000;stroke-width:5.76"/>
	<text x="300.72" y="1868.56" style="font-family:'Helvetica';font-size:99.99px;fill:#000000" transform="rotate(-90 300.72,1868.56)" text-anchor="middle">0</text>
	<line x1="390.80" y1="1311.42" x2="350.83" y2="1311.42" style="stroke:#000000;stroke-width:5.76"/>
	<text x="300.72" y="1311.42" style="font-family:'Helvetica';font-size:99.99px;fill:#000000" transform="rotate(-90 300.72,1311.42)" text-anchor="middle">20</text>
	<line x1="390.80" y1="754.16" x2="350.83" y2="754.16" style="stroke:#000000;stroke-width:5.76"/>
	<text x="300.72" y="754.16" style="font-family:'Helvetica';font-size:99.99px;fill:#000000" transform="rotate(-90 300.72,754.16)" text-anchor="middle">40</text>
	<line x1="390.80" y1="196.89" x2="350.83" y2="196.89" style="stroke:#000000;stroke-width:5.76"/>
	<text x="300.72" y="196.89" style="font-family:'Helvetica';font-size:99.99px;fill:#000000" transform="rotate(-90 300.72,196.89)" text-anchor="middle">60</text>
	<text x="190.71" y="1294.96" style="font-family:'Helvetica';font-size:99.99px;fill:#000000" transform="rotate(-90 190.71,1294.96)" text-anchor="middle">Confirmed cases per 100 beds</text>
	<line x1="390.80" y1="2489.19" x2="3859.02" y2="2489.19" style="stroke:#000000;stroke-width:5.76"/>
	<line x1="454.16" y1="2489.19" x2="454.16" y2="2529.16" style="stroke:#000000;stroke-width:5.76"/>
	<text x="454.16" y="2619.14" style="font-family:'Helvetica';font-size:99.99px;fill:#000000" text-anchor="middle">0</text>
	<line x1="1289.47" y1="2489.19" x2="1289.47" y2="2529.16" style="stroke:#000000;stroke-width:5.76"/>
	<text x="1289.47" y="2619.14" style="font-family:'Helvetica';font-size:99.99px;fill:#000000" text-anchor="middle">10</text>
	<line x1="2124.91" y1="2489.19" x2="2124.91" y2="2529.16" style="stroke:#000000;stroke-width:5.76"/>
	<text x="2124.91" y="2619.14" style="font-family:'Helvetica';font-size:99.99px;fill:#000000" text-anchor="middle">20</text>
	<line x1="2960.35" y1="2489.19" x2="2960.35" y2="2529.16" style="stroke:#000000;stroke-width:5.76"/>
	<text x="2960.35" y="2619.14" style="font-family:'Helvetica';font-size:99.99px;fill:#000000" text-anchor="middle">30</text>
	<line x1="3795.66" y1="2489.19" x2="3795.66" y2="2529.16" style="stroke:#000000;stroke-width:5.76"/>
	<text x="3795.66" y="2619.14" style="font-family:'Helvetica';font-size:99.99px;fill:#000000" text-anchor="middle">40</text>
	<text x="2124.91" y="2729.16" style="font-family:'Helvetica';font-size:99.99px;fill:#000000" text-anchor="middle">Days since 0.01 confirmed cases per 100 beds</text>
</svg>
