<?xml version="1.0" encoding="UTF-8" standalone="no"?>
<!-- This is a Stata 14.2 generated SVG file (http://www.stata.com) -->

<svg version="1.1" width="5.50in" height="4.00in" viewBox="0 0 3960 2880" xmlns="http://www.w3.org/2000/svg">
	<desc>Stata Graph - Graph</desc>
	<line x1="390.80" y1="1801.24" x2="3859.02" y2="1801.24" style="stroke:#FF0000;stroke-width:8.64"/>
	<path d="M587.81 1829.08 L587.81 1829.08 L721.46 1829.08 L855.11 1829.08 L988.76 1829.08 L1122.41 1829.08 L1256.06 1829.08 L1389.84 1829.08 L1523.49 1828.96 L1657.14 1828.59 L1790.79 1828.22 L1924.44 1827.72 L2058.09 1827.47 L2191.74 1827.60 L2325.39 1828.34 L2459.04 1830.32 L2592.81 1834.28 L2726.46 1841.21 L2860.11 1852.97 L2993.76 1871.90 L3127.41 1901.48 L3261.06 1946.03 L3394.71 2011.62 L3528.36 2106.17 L3662.01 2239.94 L3795.66 2425.82 L3795.66 469.15 L3662.01 856.25 L3528.36 1142.00 L3394.71 1350.28 L3261.06 1500.14 L3127.41 1606.57 L2993.76 1680.95 L2860.11 1732.18 L2726.46 1766.83 L2592.81 1789.98 L2459.04 1805.07 L2325.39 1814.60 L2191.74 1820.67 L2058.09 1824.26 L1924.44 1826.36 L1790.79 1827.35 L1657.14 1827.84 L1523.49 1828.22 L1389.84 1828.46 L1256.06 1828.59 L1122.41 1828.71 L988.76 1828.83 L855.11 1828.96 L721.46 1828.96 L587.81 1828.96 L587.81 1829.08 Z" stroke-linecap="round" style="fill:#EBEBFF;stroke:#E6E6FF;stroke-width:3.00"/>
	<path d="M587.81 1828.96 L587.81 1828.96 L721.46 1828.96 L855.11 1828.96 L988.76 1828.96 L1122.41 1828.96 L1256.06 1828.96 L1389.84 1828.83 L1523.49 1828.71 L1657.14 1828.46 L1790.79 1827.97 L1924.44 1827.35 L2058.09 1826.48 L2191.74 1825.62 L2325.39 1824.38 L2459.04 1823.02 L2592.81 1821.41 L2726.46 1819.80 L2860.11 1818.07 L2993.76 1816.83 L3127.41 1816.34 L3261.06 1817.33 L3394.71 1820.67 L3528.36 1827.84 L3662.01 1840.59 L3795.66 1861.13 L3795.66 1033.96 L3662.01 1255.61 L3528.36 1420.32 L3394.71 1541.11 L3261.06 1628.85 L3127.41 1691.72 L2993.76 1736.14 L2860.11 1767.08 L2726.46 1788.37 L2592.81 1802.72 L2459.04 1812.38 L2325.39 1818.56 L2191.74 1822.65 L2058.09 1825.12 L1924.44 1826.73 L1790.79 1827.60 L1657.14 1828.09 L1523.49 1828.34 L1389.84 1828.59 L1256.06 1828.71 L1122.41 1828.83 L988.76 1828.96 L855.11 1828.96 L721.46 1828.96 L587.81 1828.96 L587.81 1828.96 Z" stroke-linecap="round" style="fill:#D6D6FF;stroke:#CCCCFF;stroke-width:3.00"/>
	<path d="M587.81 1828.96 L587.81 1828.96 L721.46 1828.96 L855.11 1828.96 L988.76 1828.96 L1122.41 1828.96 L1256.06 1828.96 L1389.84 1828.83 L1523.49 1828.71 L1657.14 1828.34 L1790.79 1827.84 L1924.44 1827.23 L2058.09 1826.36 L2191.74 1825.25 L2325.39 1823.76 L2459.04 1821.90 L2592.81 1819.43 L2726.46 1816.34 L2860.11 1812.50 L2993.76 1807.92 L3127.41 1802.60 L3261.06 1796.53 L3394.71 1789.85 L3528.36 1782.92 L3662.01 1775.99 L3795.66 1769.80 L3795.66 1125.29 L3662.01 1320.21 L3528.36 1465.25 L3394.71 1572.05 L3261.06 1649.64 L3127.41 1705.45 L2993.76 1745.05 L2860.11 1772.65 L2726.46 1791.83 L2592.81 1804.83 L2459.04 1813.49 L2325.39 1819.31 L2191.74 1823.02 L2058.09 1825.37 L1924.44 1826.73 L1790.79 1827.60 L1657.14 1828.09 L1523.49 1828.46 L1389.84 1828.59 L1256.06 1828.71 L1122.41 1828.83 L988.76 1828.96 L855.11 1828.96 L721.46 1828.96 L587.81 1828.96 L587.81 1828.96 Z" stroke-linecap="round" style="fill:#C2C2FF;stroke:#B3B3FF;stroke-width:3.00"/>
	<path d="M587.81 1828.96 L587.81 1828.96 L721.46 1828.96 L855.11 1828.96 L988.76 1828.96 L1122.41 1828.96 L1256.06 1828.96 L1389.84 1828.83 L1523.49 1828.59 L1657.14 1828.34 L1790.79 1827.84 L1924.44 1827.23 L2058.09 1826.24 L2191.74 1825.00 L2325.39 1823.39 L2459.04 1821.04 L2592.81 1817.94 L2726.46 1813.98 L2860.11 1808.66 L2993.76 1801.86 L3127.41 1793.32 L3261.06 1782.43 L3394.71 1769.06 L3528.36 1752.48 L3662.01 1732.43 L3795.66 1708.17 L3795.66 1186.92 L3662.01 1363.77 L3528.36 1495.69 L3394.71 1592.84 L3261.06 1663.75 L3127.41 1714.73 L2993.76 1750.99 L2860.11 1776.49 L2726.46 1794.18 L2592.81 1806.19 L2459.04 1814.36 L2325.39 1819.68 L2191.74 1823.14 L2058.09 1825.49 L1924.44 1826.85 L1790.79 1827.60 L1657.14 1828.09 L1523.49 1828.46 L1389.84 1828.59 L1256.06 1828.83 L1122.41 1828.83 L988.76 1828.96 L855.11 1828.96 L721.46 1828.96 L587.81 1828.96 L587.81 1828.96 Z" stroke-linecap="round" style="fill:#ADADFF;stroke:#9999FF;stroke-width:3.00"/>
	<path d="M587.81 1828.96 L587.81 1828.96 L721.46 1828.96 L855.11 1828.96 L988.76 1828.96 L1122.41 1828.96 L1256.06 1828.83 L1389.84 1828.83 L1523.49 1828.59 L1657.14 1828.34 L1790.79 1827.84 L1924.44 1827.10 L2058.09 1826.24 L2191.74 1824.87 L2325.39 1823.02 L2459.04 1820.42 L2592.81 1816.83 L2726.46 1812.13 L2860.11 1805.69 L2993.76 1797.15 L3127.41 1785.89 L3261.06 1771.29 L3394.71 1752.48 L3528.36 1728.35 L3662.01 1697.78 L3795.66 1659.17 L3795.66 1235.93 L3662.01 1398.42 L3528.36 1519.82 L3394.71 1609.42 L3261.06 1674.88 L3127.41 1722.16 L2993.76 1755.82 L2860.11 1779.58 L2726.46 1796.04 L2592.81 1807.30 L2459.04 1814.97 L2325.39 1820.05 L2191.74 1823.39 L2058.09 1825.49 L1924.44 1826.85 L1790.79 1827.60 L1657.14 1828.09 L1523.49 1828.46 L1389.84 1828.71 L1256.06 1828.83 L1122.41 1828.83 L988.76 1828.96 L855.11 1828.96 L721.46 1828.96 L587.81 1828.96 L587.81 1828.96 Z" stroke-linecap="round" style="fill:#9999FF;stroke:#8080FF;stroke-width:3.00"/>
	<path d="M587.81 1828.96 L587.81 1828.96 L721.46 1828.96 L855.11 1828.96 L988.76 1828.96 L1122.41 1828.96 L1256.06 1828.83 L1389.84 1828.83 L1523.49 1828.59 L1657.14 1828.34 L1790.79 1827.84 L1924.44 1827.10 L2058.09 1826.11 L2191.74 1824.75 L2325.39 1822.77 L2459.04 1819.92 L2592.81 1815.96 L2726.46 1810.52 L2860.11 1803.09 L2993.76 1793.07 L3127.41 1779.58 L3261.06 1761.76 L3394.71 1738.25 L3528.36 1707.68 L3662.01 1668.08 L3795.66 1617.09 L3795.66 1277.88 L3662.01 1428.12 L3528.36 1540.49 L3394.71 1623.65 L3261.06 1684.41 L3127.41 1728.47 L2993.76 1759.90 L2860.11 1782.06 L2726.46 1797.65 L2592.81 1808.29 L2459.04 1815.47 L2325.39 1820.30 L2191.74 1823.51 L2058.09 1825.62 L1924.44 1826.85 L1790.79 1827.72 L1657.14 1828.22 L1523.49 1828.46 L1389.84 1828.71 L1256.06 1828.83 L1122.41 1828.83 L988.76 1828.96 L855.11 1828.96 L721.46 1828.96 L587.81 1828.96 L587.81 1828.96 Z" stroke-linecap="round" style="fill:#8585FF;stroke:#6666FF;stroke-width:3.00"/>
	<path d="M587.81 1828.96 L587.81 1828.96 L721.46 1828.96 L855.11 1828.96 L988.76 1828.96 L1122.41 1828.96 L1256.06 1828.83 L1389.84 1828.71 L1523.49 1828.59 L1657.14 1828.34 L1790.79 1827.84 L1924.44 1827.10 L2058.09 1826.11 L2191.74 1824.63 L2325.39 1822.40 L2459.04 1819.43 L2592.81 1815.10 L2726.46 1809.03 L2860.11 1800.74 L2993.76 1789.36 L3127.41 1773.89 L3261.06 1753.10 L3394.71 1725.50 L3528.36 1688.99 L3662.01 1641.35 L3795.66 1579.35 L3795.66 1315.63 L3662.01 1454.85 L3528.36 1559.05 L3394.71 1636.40 L3261.06 1693.08 L3127.41 1734.16 L2993.76 1763.62 L2860.11 1784.41 L2726.46 1799.01 L2592.81 1809.16 L2459.04 1815.96 L2325.39 1820.54 L2191.74 1823.64 L2058.09 1825.62 L1924.44 1826.85 L1790.79 1827.72 L1657.14 1828.22 L1523.49 1828.46 L1389.84 1828.71 L1256.06 1828.83 L1122.41 1828.83 L988.76 1828.96 L855.11 1828.96 L721.46 1828.96 L587.81 1828.96 L587.81 1828.96 Z" stroke-linecap="round" style="fill:#7171FF;stroke:#4D4DFF;stroke-width:3.00"/>
	<path d="M587.81 1828.96 L587.81 1828.96 L721.46 1828.96 L855.11 1828.96 L988.76 1828.96 L1122.41 1828.96 L1256.06 1828.83 L1389.84 1828.71 L1523.49 1828.59 L1657.14 1828.22 L1790.79 1827.84 L1924.44 1827.10 L2058.09 1825.99 L2191.74 1824.50 L2325.39 1822.15 L2459.04 1818.93 L2592.81 1814.23 L2726.46 1807.67 L2860.11 1798.51 L2993.76 1785.89 L3127.41 1768.57 L3261.06 1745.18 L3394.71 1713.74 L3528.36 1671.79 L3662.01 1616.60 L3795.66 1544.45 L3795.66 1350.65 L3662.01 1479.60 L3528.36 1576.38 L3394.71 1648.15 L3261.06 1701.00 L3127.41 1739.36 L2993.76 1766.96 L2860.11 1786.63 L2726.46 1800.37 L2592.81 1809.90 L2459.04 1816.46 L2325.39 1820.79 L2191.74 1823.76 L2058.09 1825.74 L1924.44 1826.98 L1790.79 1827.72 L1657.14 1828.22 L1523.49 1828.46 L1389.84 1828.71 L1256.06 1828.83 L1122.41 1828.83 L988.76 1828.96 L855.11 1828.96 L721.46 1828.96 L587.81 1828.96 L587.81 1828.96 Z" stroke-linecap="round" style="fill:#5C5CFF;stroke:#3333FF;stroke-width:3.00"/>
	<path d="M587.81 1828.96 L587.81 1828.96 L721.46 1828.96 L855.11 1828.96 L988.76 1828.96 L1122.41 1828.96 L1256.06 1828.83 L1389.84 1828.71 L1523.49 1828.59 L1657.14 1828.22 L1790.79 1827.72 L1924.44 1827.10 L2058.09 1825.99 L2191.74 1824.38 L2325.39 1822.03 L2459.04 1818.56 L2592.81 1813.49 L2726.46 1806.44 L2860.11 1796.53 L2993.76 1782.67 L3127.41 1763.62 L3261.06 1737.63 L3394.71 1702.48 L3528.36 1655.46 L3662.01 1593.08 L3795.66 1511.28 L3795.66 1383.82 L3662.01 1502.99 L3528.36 1592.71 L3394.71 1659.42 L3261.06 1708.55 L3127.41 1744.43 L2993.76 1770.30 L2860.11 1788.61 L2726.46 1801.61 L2592.81 1810.64 L2459.04 1816.83 L2325.39 1821.04 L2191.74 1823.88 L2058.09 1825.74 L1924.44 1826.98 L1790.79 1827.72 L1657.14 1828.22 L1523.49 1828.46 L1389.84 1828.71 L1256.06 1828.83 L1122.41 1828.96 L988.76 1828.96 L855.11 1828.96 L721.46 1828.96 L587.81 1828.96 L587.81 1828.96 Z" stroke-linecap="round" style="fill:#4747FF;stroke:#1919FF;stroke-width:3.00"/>
	<path d="M587.81 1828.96 L587.81 1828.96 L721.46 1828.96 L855.11 1828.96 L988.76 1828.96 L1122.41 1828.96 L1256.06 1828.83 L1389.84 1828.71 L1523.49 1828.59 L1657.14 1828.22 L1790.79 1827.72 L1924.44 1826.98 L2058.09 1825.86 L2191.74 1824.26 L2325.39 1821.78 L2459.04 1818.07 L2592.81 1812.87 L2726.46 1805.20 L2860.11 1794.55 L2993.76 1779.58 L3127.41 1758.79 L3261.06 1730.33 L3394.71 1691.59 L3528.36 1639.61 L3662.01 1570.44 L3795.66 1479.11 L3795.66 1415.87 L3662.01 1525.76 L3528.36 1608.55 L3394.71 1670.31 L3261.06 1715.85 L3127.41 1749.26 L2993.76 1773.39 L2860.11 1790.59 L2726.46 1802.85 L2592.81 1811.39 L2459.04 1817.33 L2325.39 1821.29 L2191.74 1824.01 L2058.09 1825.86 L1924.44 1826.98 L1790.79 1827.72 L1657.14 1828.22 L1523.49 1828.46 L1389.84 1828.71 L1256.06 1828.83 L1122.41 1828.96 L988.76 1828.96 L855.11 1828.96 L721.46 1828.96 L587.81 1828.96 L587.81 1828.96 Z" stroke-linecap="round" style="fill:#3333FF;stroke:#0000FF;stroke-width:3.00"/>
	<circle cx="587.69" cy="1829.08" r="22.03" style="fill:#000000;stroke:#000000;stroke-width:8.64"/>
	<circle cx="721.46" cy="1829.08" r="22.03" style="fill:#000000;stroke:#000000;stroke-width:8.64"/>
	<circle cx="855.11" cy="1828.96" r="22.03" style="fill:#000000;stroke:#000000;stroke-width:8.64"/>
	<circle cx="988.76" cy="1828.96" r="22.03" style="fill:#000000;stroke:#000000;stroke-width:8.64"/>
	<circle cx="1122.41" cy="1828.83" r="22.03" style="fill:#000000;stroke:#000000;stroke-width:8.64"/>
	<circle cx="1256.06" cy="1828.71" r="22.03" style="fill:#000000;stroke:#000000;stroke-width:8.64"/>
	<circle cx="1389.71" cy="1828.59" r="22.03" style="fill:#000000;stroke:#000000;stroke-width:8.64"/>
	<circle cx="1523.36" cy="1828.46" r="22.03" style="fill:#000000;stroke:#000000;stroke-width:8.64"/>
	<circle cx="1657.01" cy="1828.46" r="22.03" style="fill:#000000;stroke:#000000;stroke-width:8.64"/>
	<circle cx="1790.66" cy="1828.09" r="22.03" style="fill:#000000;stroke:#000000;stroke-width:8.64"/>
	<circle cx="1924.31" cy="1826.85" r="22.03" style="fill:#000000;stroke:#000000;stroke-width:8.64"/>
	<line x1="390.80" y1="2489.19" x2="390.80" y2="100.86" style="stroke:#000000;stroke-width:5.76"/>
	<line x1="390.80" y1="2383.99" x2="350.83" y2="2383.99" style="stroke:#000000;stroke-width:5.76"/>
	<text x="300.72" y="2383.99" style="font-family:'Helvetica';font-size:99.99px;fill:#000000" transform="rotate(-90 300.72,2383.99)" text-anchor="middle">-200</text>
	<line x1="390.80" y1="1828.96" x2="350.83" y2="1828.96" style="stroke:#000000;stroke-width:5.76"/>
	<text x="300.72" y="1828.96" style="font-family:'Helvetica';font-size:99.99px;fill:#000000" transform="rotate(-90 300.72,1828.96)" text-anchor="middle">0</text>
	<line x1="390.80" y1="1274.05" x2="350.83" y2="1274.05" style="stroke:#000000;stroke-width:5.76"/>
	<text x="300.72" y="1274.05" style="font-family:'Helvetica';font-size:99.99px;fill:#000000" transform="rotate(-90 300.72,1274.05)" text-anchor="middle">200</text>
	<line x1="390.80" y1="719.13" x2="350.83" y2="719.13" style="stroke:#000000;stroke-width:5.76"/>
	<text x="300.72" y="719.13" style="font-family:'Helvetica';font-size:99.99px;fill:#000000" transform="rotate(-90 300.72,719.13)" text-anchor="middle">400</text>
	<line x1="390.80" y1="164.22" x2="350.83" y2="164.22" style="stroke:#000000;stroke-width:5.76"/>
	<text x="300.72" y="164.22" style="font-family:'Helvetica';font-size:99.99px;fill:#000000" transform="rotate(-90 300.72,164.22)" text-anchor="middle">600</text>
	<text x="190.71" y="1294.96" style="font-family:'Helvetica';font-size:99.99px;fill:#000000" transform="rotate(-90 190.71,1294.96)" text-anchor="middle">Confirmed cases per 100 beds</text>
	<line x1="390.80" y1="2489.19" x2="3859.02" y2="2489.19" style="stroke:#000000;stroke-width:5.76"/>
	<line x1="454.16" y1="2489.19" x2="454.16" y2="2529.16" style="stroke:#000000;stroke-width:5.76"/>
	<text x="454.16" y="2619.14" style="font-family:'Helvetica';font-size:99.99px;fill:#000000" text-anchor="middle">0</text>
	<line x1="1122.41" y1="2489.19" x2="1122.41" y2="2529.16" style="stroke:#000000;stroke-width:5.76"/>
	<text x="1122.41" y="2619.14" style="font-family:'Helvetica';font-size:99.99px;fill:#000000" text-anchor="middle">5</text>
	<line x1="1790.79" y1="2489.19" x2="1790.79" y2="2529.16" style="stroke:#000000;stroke-width:5.76"/>
	<text x="1790.79" y="2619.14" style="font-family:'Helvetica';font-size:99.99px;fill:#000000" text-anchor="middle">10</text>
	<line x1="2459.04" y1="2489.19" x2="2459.04" y2="2529.16" style="stroke:#000000;stroke-width:5.76"/>
	<text x="2459.04" y="2619.14" style="font-family:'Helvetica';font-size:99.99px;fill:#000000" text-anchor="middle">15</text>
	<line x1="3127.41" y1="2489.19" x2="3127.41" y2="2529.16" style="stroke:#000000;stroke-width:5.76"/>
	<text x="3127.41" y="2619.14" style="font-family:'Helvetica';font-size:99.99px;fill:#000000" text-anchor="middle">20</text>
	<line x1="3795.66" y1="2489.19" x2="3795.66" y2="2529.16" style="stroke:#000000;stroke-width:5.76"/>
	<text x="3795.66" y="2619.14" style="font-family:'Helvetica';font-size:99.99px;fill:#000000" text-anchor="middle">25</text>
	<text x="2124.91" y="2729.16" style="font-family:'Helvetica';font-size:99.99px;fill:#000000" text-anchor="middle">Days since 0.01 confirmed cases per 100 beds</text>
</svg>
