<?xml version="1.0" encoding="UTF-8" standalone="no"?>
<!-- This is a Stata 14.2 generated SVG file (http://www.stata.com) -->

<svg version="1.1" width="5.50in" height="4.00in" viewBox="0 0 3960 2880" xmlns="http://www.w3.org/2000/svg">
	<desc>Stata Graph - Graph</desc>
	<line x1="390.80" y1="1294.96" x2="3859.02" y2="1294.96" style="stroke:#FF0000;stroke-width:8.64"/>
	<path d="M565.54 1672.16 L565.54 1672.16 L676.91 1672.16 L788.29 1672.16 L899.66 1672.29 L1011.04 1672.29 L1122.41 1672.29 L1233.79 1672.16 L1345.29 1672.04 L1456.66 1671.79 L1568.04 1671.42 L1679.41 1670.80 L1790.79 1669.93 L1902.16 1669.19 L2013.54 1668.57 L2124.91 1668.45 L2236.29 1668.82 L2347.66 1670.06 L2459.04 1672.41 L2570.53 1676.49 L2681.91 1682.68 L2793.28 1692.09 L2904.66 1705.82 L3016.03 1725.25 L3127.41 1752.35 L3238.78 1789.36 L3350.16 1839.23 L3461.53 1905.81 L3572.91 1993.55 L3684.28 2108.02 L3795.66 2256.03 L3795.66 353.81 L3684.28 649.09 L3572.91 883.11 L3461.53 1067.50 L3350.16 1211.92 L3238.78 1324.29 L3127.41 1411.17 L3016.03 1477.99 L2904.66 1528.86 L2793.28 1567.34 L2681.91 1596.18 L2570.53 1617.71 L2459.04 1633.55 L2347.66 1645.06 L2236.29 1653.35 L2124.91 1659.17 L2013.54 1663.13 L1902.16 1665.73 L1790.79 1667.21 L1679.41 1668.20 L1568.04 1668.82 L1456.66 1669.44 L1345.29 1669.93 L1233.79 1670.31 L1122.41 1670.68 L1011.04 1670.92 L899.66 1671.17 L788.29 1671.42 L676.91 1671.54 L565.54 1671.67 L565.54 1672.16 Z" stroke-linecap="round" style="fill:#EBEBFF;stroke:#E6E6FF;stroke-width:3.00"/>
	<path d="M565.54 1671.91 L565.54 1671.91 L676.91 1671.91 L788.29 1671.91 L899.66 1671.91 L1011.04 1671.91 L1122.41 1671.79 L1233.79 1671.67 L1345.29 1671.42 L1456.66 1671.17 L1568.04 1670.68 L1679.41 1670.06 L1790.79 1669.19 L1902.16 1668.20 L2013.54 1666.96 L2124.91 1665.73 L2236.29 1664.37 L2347.66 1662.88 L2459.04 1661.27 L2570.53 1659.54 L2681.91 1657.81 L2793.28 1656.07 L2904.66 1654.71 L3016.03 1653.85 L3127.41 1653.85 L3238.78 1655.08 L3350.16 1658.18 L3461.53 1663.87 L3572.91 1673.03 L3684.28 1686.89 L3795.66 1707.06 L3795.66 902.78 L3684.28 1070.10 L3572.91 1203.63 L3461.53 1309.44 L3350.16 1392.97 L3238.78 1458.56 L3127.41 1509.67 L3016.03 1549.27 L2904.66 1579.97 L2793.28 1603.36 L2681.91 1621.18 L2570.53 1634.66 L2459.04 1644.69 L2347.66 1652.24 L2236.29 1657.81 L2124.91 1661.77 L2013.54 1664.74 L1902.16 1666.72 L1790.79 1667.95 L1679.41 1668.94 L1568.04 1669.56 L1456.66 1670.18 L1345.29 1670.55 L1233.79 1670.92 L1122.41 1671.17 L1011.04 1671.30 L899.66 1671.54 L788.29 1671.54 L676.91 1671.67 L565.54 1671.79 L565.54 1671.91 Z" stroke-linecap="round" style="fill:#D6D6FF;stroke:#CCCCFF;stroke-width:3.00"/>
	<path d="M565.54 1671.91 L565.54 1671.91 L676.91 1671.91 L788.29 1671.91 L899.66 1671.91 L1011.04 1671.79 L1122.41 1671.67 L1233.79 1671.54 L1345.29 1671.30 L1456.66 1671.05 L1568.04 1670.55 L1679.41 1669.93 L1790.79 1669.07 L1902.16 1667.95 L2013.54 1666.72 L2124.91 1665.36 L2236.29 1663.62 L2347.66 1661.64 L2459.04 1659.42 L2570.53 1656.69 L2681.91 1653.72 L2793.28 1650.26 L2904.66 1646.55 L3016.03 1642.34 L3127.41 1638.01 L3238.78 1633.43 L3350.16 1628.85 L3461.53 1624.76 L3572.91 1621.18 L3684.28 1618.82 L3795.66 1618.21 L3795.66 991.64 L3684.28 1138.29 L3572.91 1255.48 L3461.53 1348.55 L3350.16 1422.30 L3238.78 1480.22 L3127.41 1525.64 L3016.03 1560.91 L2904.66 1588.13 L2793.28 1609.17 L2681.91 1625.26 L2570.53 1637.39 L2459.04 1646.55 L2347.66 1653.48 L2236.29 1658.55 L2124.91 1662.26 L2013.54 1664.98 L1902.16 1666.84 L1790.79 1668.08 L1679.41 1669.07 L1568.04 1669.69 L1456.66 1670.18 L1345.29 1670.68 L1233.79 1670.92 L1122.41 1671.17 L1011.04 1671.42 L899.66 1671.54 L788.29 1671.67 L676.91 1671.67 L565.54 1671.79 L565.54 1671.91 Z" stroke-linecap="round" style="fill:#C2C2FF;stroke:#B3B3FF;stroke-width:3.00"/>
	<path d="M565.54 1671.91 L565.54 1671.91 L676.91 1671.91 L788.29 1671.91 L899.66 1671.79 L1011.04 1671.79 L1122.41 1671.67 L1233.79 1671.54 L1345.29 1671.30 L1456.66 1670.92 L1568.04 1670.43 L1679.41 1669.81 L1790.79 1668.94 L1902.16 1667.83 L2013.54 1666.59 L2124.91 1664.98 L2236.29 1663.13 L2347.66 1660.90 L2459.04 1658.18 L2570.53 1654.84 L2681.91 1651.00 L2793.28 1646.30 L2904.66 1640.98 L3016.03 1634.54 L3127.41 1627.24 L3238.78 1618.70 L3350.16 1609.17 L3461.53 1598.28 L3572.91 1586.15 L3684.28 1572.91 L3795.66 1558.31 L3795.66 1051.54 L3684.28 1184.20 L3572.91 1290.38 L3461.53 1375.03 L3350.16 1441.98 L3238.78 1494.82 L3127.41 1536.28 L3016.03 1568.70 L2904.66 1593.70 L2793.28 1613.13 L2681.91 1627.98 L2570.53 1639.24 L2459.04 1647.78 L2347.66 1654.22 L2236.29 1659.04 L2124.91 1662.51 L2013.54 1665.11 L1902.16 1666.96 L1790.79 1668.20 L1679.41 1669.07 L1568.04 1669.81 L1456.66 1670.31 L1345.29 1670.68 L1233.79 1671.05 L1122.41 1671.30 L1011.04 1671.42 L899.66 1671.54 L788.29 1671.67 L676.91 1671.79 L565.54 1671.79 L565.54 1671.91 Z" stroke-linecap="round" style="fill:#ADADFF;stroke:#9999FF;stroke-width:3.00"/>
	<path d="M565.54 1671.91 L565.54 1671.91 L676.91 1671.91 L788.29 1671.91 L899.66 1671.79 L1011.04 1671.79 L1122.41 1671.67 L1233.79 1671.42 L1345.29 1671.17 L1456.66 1670.92 L1568.04 1670.43 L1679.41 1669.81 L1790.79 1668.94 L1902.16 1667.83 L2013.54 1666.47 L2124.91 1664.74 L2236.29 1662.76 L2347.66 1660.28 L2459.04 1657.19 L2570.53 1653.48 L2681.91 1648.77 L2793.28 1643.20 L2904.66 1636.52 L3016.03 1628.35 L3127.41 1618.70 L3238.78 1607.07 L3350.16 1593.45 L3461.53 1577.37 L3572.91 1558.43 L3684.28 1536.28 L3795.66 1510.66 L3795.66 1099.18 L3684.28 1220.71 L3572.91 1318.23 L3461.53 1395.94 L3350.16 1457.70 L3238.78 1506.46 L3127.41 1544.82 L3016.03 1574.89 L2904.66 1598.16 L2793.28 1616.23 L2681.91 1630.09 L2570.53 1640.73 L2459.04 1648.77 L2347.66 1654.84 L2236.29 1659.42 L2124.91 1662.76 L2013.54 1665.23 L1902.16 1667.09 L1790.79 1668.33 L1679.41 1669.19 L1568.04 1669.81 L1456.66 1670.43 L1345.29 1670.80 L1233.79 1671.05 L1122.41 1671.30 L1011.04 1671.42 L899.66 1671.54 L788.29 1671.67 L676.91 1671.79 L565.54 1671.79 L565.54 1671.91 Z" stroke-linecap="round" style="fill:#9999FF;stroke:#8080FF;stroke-width:3.00"/>
	<path d="M565.54 1671.91 L565.54 1671.91 L676.91 1671.91 L788.29 1671.79 L899.66 1671.79 L1011.04 1671.67 L1122.41 1671.54 L1233.79 1671.42 L1345.29 1671.17 L1456.66 1670.80 L1568.04 1670.31 L1679.41 1669.69 L1790.79 1668.82 L1902.16 1667.71 L2013.54 1666.35 L2124.91 1664.61 L2236.29 1662.39 L2347.66 1659.79 L2459.04 1656.32 L2570.53 1652.11 L2681.91 1646.92 L2793.28 1640.61 L2904.66 1632.68 L3016.03 1623.03 L3127.41 1611.40 L3238.78 1597.17 L3350.16 1579.97 L3461.53 1559.30 L3572.91 1534.55 L3684.28 1504.97 L3795.66 1469.82 L3795.66 1140.02 L3684.28 1252.14 L3572.91 1342.11 L3461.53 1414.01 L3350.16 1471.19 L3238.78 1516.48 L3127.41 1552.24 L3016.03 1580.21 L2904.66 1601.99 L2793.28 1618.95 L2681.91 1631.94 L2570.53 1641.97 L2459.04 1649.64 L2347.66 1655.33 L2236.29 1659.79 L2124.91 1663.00 L2013.54 1665.36 L1902.16 1667.09 L1790.79 1668.33 L1679.41 1669.19 L1568.04 1669.93 L1456.66 1670.43 L1345.29 1670.80 L1233.79 1671.05 L1122.41 1671.30 L1011.04 1671.54 L899.66 1671.67 L788.29 1671.67 L676.91 1671.79 L565.54 1671.79 L565.54 1671.91 Z" stroke-linecap="round" style="fill:#8585FF;stroke:#6666FF;stroke-width:3.00"/>
	<path d="M565.54 1671.91 L565.54 1671.91 L676.91 1671.91 L788.29 1671.79 L899.66 1671.79 L1011.04 1671.67 L1122.41 1671.54 L1233.79 1671.42 L1345.29 1671.17 L1456.66 1670.80 L1568.04 1670.31 L1679.41 1669.69 L1790.79 1668.82 L1902.16 1667.58 L2013.54 1666.22 L2124.91 1664.37 L2236.29 1662.14 L2347.66 1659.29 L2459.04 1655.58 L2570.53 1651.00 L2681.91 1645.31 L2793.28 1638.13 L2904.66 1629.22 L3016.03 1618.33 L3127.41 1604.72 L3238.78 1588.13 L3350.16 1567.84 L3461.53 1543.09 L3572.91 1513.14 L3684.28 1476.88 L3795.66 1433.19 L3795.66 1176.78 L3684.28 1280.23 L3572.91 1363.52 L3461.53 1430.10 L3350.16 1483.31 L3238.78 1525.51 L3127.41 1558.80 L3016.03 1584.92 L2904.66 1605.46 L2793.28 1621.30 L2681.91 1633.67 L2570.53 1643.08 L2459.04 1650.38 L2347.66 1655.83 L2236.29 1660.03 L2124.91 1663.13 L2013.54 1665.48 L1902.16 1667.21 L1790.79 1668.45 L1679.41 1669.32 L1568.04 1669.93 L1456.66 1670.43 L1345.29 1670.80 L1233.79 1671.17 L1122.41 1671.30 L1011.04 1671.54 L899.66 1671.67 L788.29 1671.67 L676.91 1671.79 L565.54 1671.79 L565.54 1671.91 Z" stroke-linecap="round" style="fill:#7171FF;stroke:#4D4DFF;stroke-width:3.00"/>
	<path d="M565.54 1671.91 L565.54 1671.91 L676.91 1671.91 L788.29 1671.79 L899.66 1671.79 L1011.04 1671.67 L1122.41 1671.54 L1233.79 1671.30 L1345.29 1671.05 L1456.66 1670.80 L1568.04 1670.31 L1679.41 1669.56 L1790.79 1668.70 L1902.16 1667.58 L2013.54 1666.10 L2124.91 1664.24 L2236.29 1661.89 L2347.66 1658.80 L2459.04 1654.96 L2570.53 1650.01 L2681.91 1643.70 L2793.28 1635.90 L2904.66 1626.13 L3016.03 1613.87 L3127.41 1598.65 L3238.78 1579.84 L3350.16 1556.70 L3461.53 1528.11 L3572.91 1493.34 L3684.28 1450.77 L3795.66 1399.16 L3795.66 1210.68 L3684.28 1306.35 L3572.91 1383.32 L3461.53 1445.07 L3350.16 1494.45 L3238.78 1533.81 L3127.41 1564.87 L3016.03 1589.37 L2904.66 1608.55 L2793.28 1623.53 L2681.91 1635.16 L2570.53 1644.19 L2459.04 1651.00 L2347.66 1656.32 L2236.29 1660.28 L2124.91 1663.38 L2013.54 1665.60 L1902.16 1667.21 L1790.79 1668.45 L1679.41 1669.32 L1568.04 1670.06 L1456.66 1670.55 L1345.29 1670.92 L1233.79 1671.17 L1122.41 1671.42 L1011.04 1671.54 L899.66 1671.67 L788.29 1671.79 L676.91 1671.79 L565.54 1671.79 L565.54 1671.91 Z" stroke-linecap="round" style="fill:#5C5CFF;stroke:#3333FF;stroke-width:3.00"/>
	<path d="M565.54 1671.91 L565.54 1671.91 L676.91 1671.79 L788.29 1671.79 L899.66 1671.79 L1011.04 1671.67 L1122.41 1671.54 L1233.79 1671.30 L1345.29 1671.05 L1456.66 1670.68 L1568.04 1670.18 L1679.41 1669.56 L1790.79 1668.70 L1902.16 1667.58 L2013.54 1665.97 L2124.91 1664.12 L2236.29 1661.64 L2347.66 1658.43 L2459.04 1654.22 L2570.53 1649.02 L2681.91 1642.34 L2793.28 1633.80 L2904.66 1623.16 L3016.03 1609.67 L3127.41 1592.84 L3238.78 1571.92 L3350.16 1546.06 L3461.53 1513.88 L3572.91 1474.40 L3684.28 1426.02 L3795.66 1366.86 L3795.66 1242.98 L3684.28 1331.10 L3572.91 1402.13 L3461.53 1459.31 L3350.16 1505.09 L3238.78 1541.73 L3127.41 1570.68 L3016.03 1593.58 L2904.66 1611.52 L2793.28 1625.63 L2681.91 1636.64 L2570.53 1645.18 L2459.04 1651.74 L2347.66 1656.69 L2236.29 1660.53 L2124.91 1663.50 L2013.54 1665.73 L1902.16 1667.34 L1790.79 1668.45 L1679.41 1669.44 L1568.04 1670.06 L1456.66 1670.55 L1345.29 1670.92 L1233.79 1671.17 L1122.41 1671.42 L1011.04 1671.54 L899.66 1671.67 L788.29 1671.79 L676.91 1671.79 L565.54 1671.79 L565.54 1671.91 Z" stroke-linecap="round" style="fill:#4747FF;stroke:#1919FF;stroke-width:3.00"/>
	<path d="M565.54 1671.91 L565.54 1671.91 L676.91 1671.79 L788.29 1671.79 L899.66 1671.67 L1011.04 1671.67 L1122.41 1671.54 L1233.79 1671.30 L1345.29 1671.05 L1456.66 1670.68 L1568.04 1670.18 L1679.41 1669.56 L1790.79 1668.70 L1902.16 1667.46 L2013.54 1665.97 L2124.91 1663.99 L2236.29 1661.27 L2347.66 1657.93 L2459.04 1653.60 L2570.53 1648.03 L2681.91 1640.85 L2793.28 1631.69 L2904.66 1620.19 L3016.03 1605.58 L3127.41 1587.27 L3238.78 1564.37 L3350.16 1535.66 L3461.53 1500.14 L3572.91 1456.21 L3684.28 1402.13 L3795.66 1335.68 L3795.66 1274.17 L3684.28 1354.98 L3572.91 1420.32 L3461.53 1473.04 L3350.16 1515.49 L3238.78 1549.27 L3127.41 1576.25 L3016.03 1597.66 L2904.66 1614.49 L2793.28 1627.73 L2681.91 1638.01 L2570.53 1646.17 L2459.04 1652.36 L2347.66 1657.19 L2236.29 1660.78 L2124.91 1663.62 L2013.54 1665.73 L1902.16 1667.34 L1790.79 1668.57 L1679.41 1669.44 L1568.04 1670.06 L1456.66 1670.55 L1345.29 1670.92 L1233.79 1671.30 L1122.41 1671.42 L1011.04 1671.54 L899.66 1671.67 L788.29 1671.79 L676.91 1671.79 L565.54 1671.91 L565.54 1671.91 Z" stroke-linecap="round" style="fill:#3333FF;stroke:#0000FF;stroke-width:3.00"/>
	<circle cx="565.41" cy="1671.42" r="22.03" style="fill:#000000;stroke:#000000;stroke-width:8.64"/>
	<circle cx="676.79" cy="1671.42" r="22.03" style="fill:#000000;stroke:#000000;stroke-width:8.64"/>
	<circle cx="788.29" cy="1671.17" r="22.03" style="fill:#000000;stroke:#000000;stroke-width:8.64"/>
	<circle cx="899.66" cy="1670.92" r="22.03" style="fill:#000000;stroke:#000000;stroke-width:8.64"/>
	<circle cx="1011.04" cy="1670.92" r="22.03" style="fill:#000000;stroke:#000000;stroke-width:8.64"/>
	<circle cx="1122.41" cy="1670.68" r="22.03" style="fill:#000000;stroke:#000000;stroke-width:8.64"/>
	<circle cx="1233.79" cy="1670.68" r="22.03" style="fill:#000000;stroke:#000000;stroke-width:8.64"/>
	<circle cx="1345.16" cy="1670.31" r="22.03" style="fill:#000000;stroke:#000000;stroke-width:8.64"/>
	<circle cx="1456.54" cy="1670.18" r="22.03" style="fill:#000000;stroke:#000000;stroke-width:8.64"/>
	<circle cx="1567.91" cy="1669.93" r="22.03" style="fill:#000000;stroke:#000000;stroke-width:8.64"/>
	<circle cx="1679.29" cy="1669.19" r="22.03" style="fill:#000000;stroke:#000000;stroke-width:8.64"/>
	<circle cx="1790.66" cy="1668.45" r="22.03" style="fill:#000000;stroke:#000000;stroke-width:8.64"/>
	<circle cx="1902.04" cy="1667.58" r="22.03" style="fill:#000000;stroke:#000000;stroke-width:8.64"/>
	<circle cx="2013.54" cy="1667.58" r="22.03" style="fill:#000000;stroke:#000000;stroke-width:8.64"/>
	<circle cx="2124.91" cy="1666.35" r="22.03" style="fill:#000000;stroke:#000000;stroke-width:8.64"/>
	<circle cx="2236.29" cy="1658.80" r="22.03" style="fill:#000000;stroke:#000000;stroke-width:8.64"/>
	<line x1="390.80" y1="2489.19" x2="390.80" y2="100.86" style="stroke:#000000;stroke-width:5.76"/>
	<line x1="390.80" y1="2425.82" x2="350.83" y2="2425.82" style="stroke:#000000;stroke-width:5.76"/>
	<text x="300.72" y="2425.82" style="font-family:'Helvetica';font-size:99.99px;fill:#000000" transform="rotate(-90 300.72,2425.82)" text-anchor="middle">-20</text>
	<line x1="390.80" y1="1671.91" x2="350.83" y2="1671.91" style="stroke:#000000;stroke-width:5.76"/>
	<text x="300.72" y="1671.91" style="font-family:'Helvetica';font-size:99.99px;fill:#000000" transform="rotate(-90 300.72,1671.91)" text-anchor="middle">0</text>
	<line x1="390.80" y1="918.01" x2="350.83" y2="918.01" style="stroke:#000000;stroke-width:5.76"/>
	<text x="300.72" y="918.01" style="font-family:'Helvetica';font-size:99.99px;fill:#000000" transform="rotate(-90 300.72,918.01)" text-anchor="middle">20</text>
	<line x1="390.80" y1="164.22" x2="350.83" y2="164.22" style="stroke:#000000;stroke-width:5.76"/>
	<text x="300.72" y="164.22" style="font-family:'Helvetica';font-size:99.99px;fill:#000000" transform="rotate(-90 300.72,164.22)" text-anchor="middle">40</text>
	<text x="190.71" y="1294.96" style="font-family:'Helvetica';font-size:99.99px;fill:#000000" transform="rotate(-90 190.71,1294.96)" text-anchor="middle">Confirmed cases per 100 beds</text>
	<line x1="390.80" y1="2489.19" x2="3859.02" y2="2489.19" style="stroke:#000000;stroke-width:5.76"/>
	<line x1="454.16" y1="2489.19" x2="454.16" y2="2529.16" style="stroke:#000000;stroke-width:5.76"/>
	<text x="454.16" y="2619.14" style="font-family:'Helvetica';font-size:99.99px;fill:#000000" text-anchor="middle">0</text>
	<line x1="1568.04" y1="2489.19" x2="1568.04" y2="2529.16" style="stroke:#000000;stroke-width:5.76"/>
	<text x="1568.04" y="2619.14" style="font-family:'Helvetica';font-size:99.99px;fill:#000000" text-anchor="middle">10</text>
	<line x1="2681.91" y1="2489.19" x2="2681.91" y2="2529.16" style="stroke:#000000;stroke-width:5.76"/>
	<text x="2681.91" y="2619.14" style="font-family:'Helvetica';font-size:99.99px;fill:#000000" text-anchor="middle">20</text>
	<line x1="3795.66" y1="2489.19" x2="3795.66" y2="2529.16" style="stroke:#000000;stroke-width:5.76"/>
	<text x="3795.66" y="2619.14" style="font-family:'Helvetica';font-size:99.99px;fill:#000000" text-anchor="middle">30</text>
	<text x="2124.91" y="2729.16" style="font-family:'Helvetica';font-size:99.99px;fill:#000000" text-anchor="middle">Days since 0.01 confirmed cases per 100 beds</text>
</svg>
