<?xml version="1.0" encoding="UTF-8" standalone="no"?>
<!-- This is a Stata 14.2 generated SVG file (http://www.stata.com) -->

<svg version="1.1" width="5.50in" height="4.00in" viewBox="0 0 3960 2880" xmlns="http://www.w3.org/2000/svg">
	<desc>Stata Graph - Graph</desc>
	<line x1="390.80" y1="2048.87" x2="3859.02" y2="2048.87" style="stroke:#FF0000;stroke-width:8.64"/>
	<path d="M558.61 2425.82 L558.61 2425.82 L662.93 2425.82 L767.37 2425.70 L871.82 2425.70 L976.26 2425.45 L1080.71 2425.33 L1185.15 2424.96 L1289.47 2424.59 L1393.92 2423.84 L1498.37 2422.98 L1602.81 2421.62 L1707.26 2419.64 L1811.70 2417.04 L1916.02 2413.57 L2020.47 2409.24 L2124.91 2403.80 L2229.36 2397.36 L2333.80 2389.56 L2438.25 2380.16 L2542.57 2368.65 L2647.01 2354.79 L2751.46 2338.08 L2855.90 2318.16 L2960.35 2294.27 L3064.79 2265.93 L3169.11 2232.52 L3273.56 2193.29 L3378.00 2147.50 L3482.45 2094.41 L3586.89 2032.90 L3691.34 1962.12 L3795.66 1881.18 L3795.66 384.50 L3691.34 805.51 L3586.89 1145.71 L3482.45 1419.58 L3378.00 1638.75 L3273.56 1813.37 L3169.11 1951.85 L3064.79 2061.00 L2960.35 2146.51 L2855.90 2213.21 L2751.46 2264.94 L2647.01 2304.79 L2542.57 2335.36 L2438.25 2358.50 L2333.80 2376.07 L2229.36 2389.07 L2124.91 2398.72 L2020.47 2405.65 L1916.02 2410.60 L1811.70 2414.19 L1707.26 2416.91 L1602.81 2419.02 L1498.37 2420.75 L1393.92 2421.99 L1289.47 2422.85 L1185.15 2423.60 L1080.71 2424.21 L976.26 2424.59 L871.82 2424.96 L767.37 2425.20 L662.93 2425.33 L558.61 2425.45 L558.61 2425.82 Z" stroke-linecap="round" style="fill:#EBEBFF;stroke:#E6E6FF;stroke-width:3.00"/>
	<path d="M558.61 2425.70 L558.61 2425.70 L662.93 2425.70 L767.37 2425.58 L871.82 2425.45 L976.26 2425.20 L1080.71 2424.96 L1185.15 2424.59 L1289.47 2424.09 L1393.92 2423.35 L1498.37 2422.23 L1602.81 2420.87 L1707.26 2418.89 L1811.70 2416.29 L1916.02 2412.71 L2020.47 2408.13 L2124.91 2402.31 L2229.36 2395.01 L2333.80 2385.73 L2438.25 2373.97 L2542.57 2359.12 L2647.01 2340.43 L2751.46 2317.04 L2855.90 2287.84 L2960.35 2251.58 L3064.79 2206.78 L3169.11 2151.58 L3273.56 2083.64 L3378.00 2000.73 L3482.45 1899.62 L3586.89 1776.86 L3691.34 1628.35 L3795.66 1449.28 L3795.66 816.53 L3691.34 1139.28 L3586.89 1401.76 L3482.45 1614.37 L3378.00 1785.64 L3273.56 1923.01 L3169.11 2032.90 L3064.79 2120.15 L2960.35 2189.21 L2855.90 2243.53 L2751.46 2286.11 L2647.01 2319.27 L2542.57 2345.01 L2438.25 2364.81 L2333.80 2379.91 L2229.36 2391.54 L2124.91 2400.21 L2020.47 2406.64 L1916.02 2411.47 L1811.70 2415.06 L1707.26 2417.78 L1602.81 2419.76 L1498.37 2421.37 L1393.92 2422.48 L1289.47 2423.35 L1185.15 2424.09 L1080.71 2424.59 L976.26 2424.83 L871.82 2425.20 L767.37 2425.33 L662.93 2425.45 L558.61 2425.58 L558.61 2425.70 Z" stroke-linecap="round" style="fill:#D6D6FF;stroke:#CCCCFF;stroke-width:3.00"/>
	<path d="M558.61 2425.70 L558.61 2425.70 L662.93 2425.70 L767.37 2425.58 L871.82 2425.45 L976.26 2425.20 L1080.71 2424.96 L1185.15 2424.59 L1289.47 2423.97 L1393.92 2423.22 L1498.37 2422.11 L1602.81 2420.75 L1707.26 2418.77 L1811.70 2416.05 L1916.02 2412.58 L2020.47 2408.00 L2124.91 2402.06 L2229.36 2394.64 L2333.80 2385.11 L2438.25 2372.86 L2542.57 2357.51 L2647.01 2338.08 L2751.46 2313.58 L2855.90 2283.01 L2960.35 2244.77 L3064.79 2197.25 L3169.11 2138.47 L3273.56 2065.95 L3378.00 1976.97 L3482.45 1868.06 L3586.89 1735.40 L3691.34 1574.27 L3795.66 1379.36 L3795.66 886.33 L3691.34 1193.23 L3586.89 1443.22 L3482.45 1645.80 L3378.00 1809.41 L3273.56 1940.83 L3169.11 2046.02 L3064.79 2129.68 L2960.35 2196.01 L2855.90 2248.36 L2751.46 2289.57 L2647.01 2321.62 L2542.57 2346.50 L2438.25 2365.80 L2333.80 2380.53 L2229.36 2391.91 L2124.91 2400.45 L2020.47 2406.77 L1916.02 2411.59 L1811.70 2415.18 L1707.26 2417.90 L1602.81 2419.88 L1498.37 2421.49 L1393.92 2422.61 L1289.47 2423.47 L1185.15 2424.09 L1080.71 2424.59 L976.26 2424.96 L871.82 2425.20 L767.37 2425.33 L662.93 2425.58 L558.61 2425.58 L558.61 2425.70 Z" stroke-linecap="round" style="fill:#C2C2FF;stroke:#B3B3FF;stroke-width:3.00"/>
	<path d="M558.61 2425.70 L558.61 2425.70 L662.93 2425.58 L767.37 2425.58 L871.82 2425.45 L976.26 2425.20 L1080.71 2424.96 L1185.15 2424.46 L1289.47 2423.97 L1393.92 2423.22 L1498.37 2422.11 L1602.81 2420.63 L1707.26 2418.65 L1811.70 2416.05 L1916.02 2412.46 L2020.47 2407.88 L2124.91 2401.94 L2229.36 2394.39 L2333.80 2384.61 L2438.25 2372.24 L2542.57 2356.52 L2647.01 2336.47 L2751.46 2311.35 L2855.90 2279.67 L2960.35 2240.07 L3064.79 2190.81 L3169.11 2129.56 L3273.56 2053.94 L3378.00 1960.88 L3482.45 1846.90 L3586.89 1707.43 L3691.34 1537.89 L3795.66 1332.21 L3795.66 933.48 L3691.34 1229.74 L3586.89 1471.19 L3482.45 1667.09 L3378.00 1825.37 L3273.56 1952.84 L3169.11 2054.81 L3064.79 2136.12 L2960.35 2200.72 L2855.90 2251.70 L2751.46 2291.80 L2647.01 2323.23 L2542.57 2347.61 L2438.25 2366.42 L2333.80 2381.02 L2229.36 2392.16 L2124.91 2400.58 L2020.47 2406.89 L1916.02 2411.72 L1811.70 2415.30 L1707.26 2417.90 L1602.81 2420.01 L1498.37 2421.49 L1393.92 2422.61 L1289.47 2423.47 L1185.15 2424.09 L1080.71 2424.59 L976.26 2424.96 L871.82 2425.20 L767.37 2425.45 L662.93 2425.58 L558.61 2425.58 L558.61 2425.70 Z" stroke-linecap="round" style="fill:#ADADFF;stroke:#9999FF;stroke-width:3.00"/>
	<path d="M558.61 2425.70 L558.61 2425.70 L662.93 2425.58 L767.37 2425.58 L871.82 2425.33 L976.26 2425.20 L1080.71 2424.83 L1185.15 2424.46 L1289.47 2423.84 L1393.92 2423.10 L1498.37 2421.99 L1602.81 2420.63 L1707.26 2418.65 L1811.70 2415.92 L1916.02 2412.46 L2020.47 2407.76 L2124.91 2401.82 L2229.36 2394.14 L2333.80 2384.24 L2438.25 2371.74 L2542.57 2355.65 L2647.01 2335.24 L2751.46 2309.49 L2855.90 2277.07 L2960.35 2236.36 L3064.79 2185.62 L3169.11 2122.50 L3273.56 2044.54 L3378.00 1948.26 L3482.45 1829.95 L3586.89 1685.28 L3691.34 1508.93 L3795.66 1294.71 L3795.66 970.97 L3691.34 1258.70 L3586.89 1493.34 L3482.45 1683.92 L3378.00 1838.12 L3273.56 1962.24 L3169.11 2061.86 L3064.79 2141.31 L2960.35 2204.43 L2855.90 2254.30 L2751.46 2293.65 L2647.01 2324.47 L2542.57 2348.35 L2438.25 2367.04 L2333.80 2381.40 L2229.36 2392.29 L2124.91 2400.70 L2020.47 2407.01 L1916.02 2411.72 L1811.70 2415.30 L1707.26 2418.03 L1602.81 2420.01 L1498.37 2421.62 L1393.92 2422.73 L1289.47 2423.60 L1185.15 2424.21 L1080.71 2424.59 L976.26 2424.96 L871.82 2425.20 L767.37 2425.45 L662.93 2425.58 L558.61 2425.58 L558.61 2425.70 Z" stroke-linecap="round" style="fill:#9999FF;stroke:#8080FF;stroke-width:3.00"/>
	<path d="M558.61 2425.70 L558.61 2425.70 L662.93 2425.58 L767.37 2425.45 L871.82 2425.33 L976.26 2425.20 L1080.71 2424.83 L1185.15 2424.46 L1289.47 2423.84 L1393.92 2423.10 L1498.37 2421.99 L1602.81 2420.50 L1707.26 2418.52 L1811.70 2415.92 L1916.02 2412.33 L2020.47 2407.76 L2124.91 2401.69 L2229.36 2394.02 L2333.80 2383.99 L2438.25 2371.25 L2542.57 2354.91 L2647.01 2334.12 L2751.46 2307.89 L2855.90 2274.72 L2960.35 2233.14 L3064.79 2181.29 L3169.11 2116.56 L3273.56 2036.37 L3378.00 1937.24 L3482.45 1815.47 L3586.89 1666.22 L3691.34 1484.06 L3795.66 1262.54 L3795.66 1003.15 L3691.34 1283.58 L3586.89 1512.40 L3482.45 1698.52 L3378.00 1849.01 L3273.56 1970.41 L3169.11 2067.80 L3064.79 2145.64 L2960.35 2207.65 L2855.90 2256.65 L2751.46 2295.26 L2647.01 2325.46 L2542.57 2349.10 L2438.25 2367.54 L2333.80 2381.64 L2229.36 2392.53 L2124.91 2400.83 L2020.47 2407.14 L1916.02 2411.84 L1811.70 2415.43 L1707.26 2418.03 L1602.81 2420.13 L1498.37 2421.62 L1393.92 2422.73 L1289.47 2423.60 L1185.15 2424.21 L1080.71 2424.71 L976.26 2424.96 L871.82 2425.20 L767.37 2425.45 L662.93 2425.58 L558.61 2425.70 L558.61 2425.70 Z" stroke-linecap="round" style="fill:#8585FF;stroke:#6666FF;stroke-width:3.00"/>
	<path d="M558.61 2425.70 L558.61 2425.70 L662.93 2425.58 L767.37 2425.45 L871.82 2425.33 L976.26 2425.08 L1080.71 2424.83 L1185.15 2424.46 L1289.47 2423.84 L1393.92 2423.10 L1498.37 2421.99 L1602.81 2420.50 L1707.26 2418.52 L1811.70 2415.80 L1916.02 2412.33 L2020.47 2407.63 L2124.91 2401.57 L2229.36 2393.77 L2333.80 2383.75 L2438.25 2370.75 L2542.57 2354.29 L2647.01 2333.26 L2751.46 2306.52 L2855.90 2272.74 L2960.35 2230.29 L3064.79 2177.33 L3169.11 2111.12 L3273.56 2028.94 L3378.00 1927.47 L3482.45 1802.48 L3586.89 1649.14 L3691.34 1461.78 L3795.66 1233.70 L3795.66 1031.98 L3691.34 1305.85 L3586.89 1529.47 L3482.45 1711.52 L3378.00 1858.91 L3273.56 1977.83 L3169.11 2073.25 L3064.79 2149.60 L2960.35 2210.49 L2855.90 2258.63 L2751.46 2296.62 L2647.01 2326.45 L2542.57 2349.71 L2438.25 2367.91 L2333.80 2381.89 L2229.36 2392.66 L2124.91 2400.95 L2020.47 2407.14 L1916.02 2411.84 L1811.70 2415.43 L1707.26 2418.15 L1602.81 2420.13 L1498.37 2421.62 L1393.92 2422.73 L1289.47 2423.60 L1185.15 2424.21 L1080.71 2424.71 L976.26 2424.96 L871.82 2425.20 L767.37 2425.45 L662.93 2425.58 L558.61 2425.70 L558.61 2425.70 Z" stroke-linecap="round" style="fill:#7171FF;stroke:#4D4DFF;stroke-width:3.00"/>
	<path d="M558.61 2425.70 L558.61 2425.70 L662.93 2425.58 L767.37 2425.45 L871.82 2425.33 L976.26 2425.08 L1080.71 2424.83 L1185.15 2424.34 L1289.47 2423.84 L1393.92 2422.98 L1498.37 2421.86 L1602.81 2420.38 L1707.26 2418.40 L1811.70 2415.80 L1916.02 2412.21 L2020.47 2407.63 L2124.91 2401.57 L2229.36 2393.65 L2333.80 2383.50 L2438.25 2370.38 L2542.57 2353.67 L2647.01 2332.27 L2751.46 2305.16 L2855.90 2270.88 L2960.35 2227.69 L3064.79 2173.61 L3169.11 2106.04 L3273.56 2022.14 L3378.00 1918.31 L3482.45 1790.35 L3586.89 1633.30 L3691.34 1441.11 L3795.66 1206.97 L3795.66 1058.71 L3691.34 1326.52 L3586.89 1545.44 L3482.45 1723.52 L3378.00 1867.94 L3273.56 1984.52 L3169.11 2078.32 L3064.79 2153.32 L2960.35 2213.09 L2855.90 2260.49 L2751.46 2297.99 L2647.01 2327.32 L2542.57 2350.33 L2438.25 2368.28 L2333.80 2382.14 L2229.36 2392.78 L2124.91 2400.95 L2020.47 2407.26 L1916.02 2411.96 L1811.70 2415.43 L1707.26 2418.15 L1602.81 2420.13 L1498.37 2421.74 L1393.92 2422.85 L1289.47 2423.60 L1185.15 2424.21 L1080.71 2424.71 L976.26 2425.08 L871.82 2425.33 L767.37 2425.45 L662.93 2425.58 L558.61 2425.70 L558.61 2425.70 Z" stroke-linecap="round" style="fill:#5C5CFF;stroke:#3333FF;stroke-width:3.00"/>
	<path d="M558.61 2425.70 L558.61 2425.70 L662.93 2425.58 L767.37 2425.45 L871.82 2425.33 L976.26 2425.08 L1080.71 2424.83 L1185.15 2424.34 L1289.47 2423.72 L1393.92 2422.98 L1498.37 2421.86 L1602.81 2420.38 L1707.26 2418.40 L1811.70 2415.68 L1916.02 2412.21 L2020.47 2407.51 L2124.91 2401.44 L2229.36 2393.52 L2333.80 2383.25 L2438.25 2370.01 L2542.57 2353.06 L2647.01 2331.52 L2751.46 2303.93 L2855.90 2269.15 L2960.35 2225.22 L3064.79 2170.15 L3169.11 2101.34 L3273.56 2015.70 L3378.00 1909.77 L3482.45 1778.96 L3586.89 1618.21 L3691.34 1421.44 L3795.66 1181.60 L3795.66 1084.08 L3691.34 1346.19 L3586.89 1560.41 L3482.45 1735.03 L3378.00 1876.60 L3273.56 1990.95 L3169.11 2083.03 L3064.79 2156.78 L2960.35 2215.57 L2855.90 2262.22 L2751.46 2299.22 L2647.01 2328.18 L2542.57 2350.95 L2438.25 2368.65 L2333.80 2382.39 L2229.36 2393.03 L2124.91 2401.07 L2020.47 2407.26 L1916.02 2411.96 L1811.70 2415.55 L1707.26 2418.27 L1602.81 2420.25 L1498.37 2421.74 L1393.92 2422.85 L1289.47 2423.72 L1185.15 2424.34 L1080.71 2424.71 L976.26 2425.08 L871.82 2425.33 L767.37 2425.45 L662.93 2425.58 L558.61 2425.70 L558.61 2425.70 Z" stroke-linecap="round" style="fill:#4747FF;stroke:#1919FF;stroke-width:3.00"/>
	<path d="M558.61 2425.70 L558.61 2425.70 L662.93 2425.58 L767.37 2425.45 L871.82 2425.33 L976.26 2425.08 L1080.71 2424.83 L1185.15 2424.34 L1289.47 2423.72 L1393.92 2422.98 L1498.37 2421.86 L1602.81 2420.38 L1707.26 2418.40 L1811.70 2415.68 L1916.02 2412.09 L2020.47 2407.51 L2124.91 2401.32 L2229.36 2393.40 L2333.80 2383.00 L2438.25 2369.76 L2542.57 2352.56 L2647.01 2330.66 L2751.46 2302.69 L2855.90 2267.42 L2960.35 2222.74 L3064.79 2166.81 L3169.11 2096.76 L3273.56 2009.52 L3378.00 1901.35 L3482.45 1767.82 L3586.89 1603.60 L3691.34 1402.50 L3795.66 1156.97 L3795.66 1108.71 L3691.34 1365.13 L3586.89 1575.02 L3482.45 1746.04 L3378.00 1884.90 L3273.56 1997.26 L3169.11 2087.60 L3064.79 2160.12 L2960.35 2218.04 L2855.90 2263.95 L2751.46 2300.34 L2647.01 2329.05 L2542.57 2351.45 L2438.25 2369.02 L2333.80 2382.63 L2229.36 2393.15 L2124.91 2401.20 L2020.47 2407.38 L1916.02 2412.09 L1811.70 2415.55 L1707.26 2418.27 L1602.81 2420.25 L1498.37 2421.74 L1393.92 2422.85 L1289.47 2423.72 L1185.15 2424.34 L1080.71 2424.71 L976.26 2425.08 L871.82 2425.33 L767.37 2425.45 L662.93 2425.58 L558.61 2425.70 L558.61 2425.70 Z" stroke-linecap="round" style="fill:#3333FF;stroke:#0000FF;stroke-width:3.00"/>
	<circle cx="558.48" cy="2425.45" r="22.03" style="fill:#000000;stroke:#000000;stroke-width:8.64"/>
	<circle cx="662.93" cy="2425.45" r="22.03" style="fill:#000000;stroke:#000000;stroke-width:8.64"/>
	<circle cx="767.37" cy="2425.33" r="22.03" style="fill:#000000;stroke:#000000;stroke-width:8.64"/>
	<circle cx="871.82" cy="2425.20" r="22.03" style="fill:#000000;stroke:#000000;stroke-width:8.64"/>
	<circle cx="976.14" cy="2424.83" r="22.03" style="fill:#000000;stroke:#000000;stroke-width:8.64"/>
	<circle cx="1080.59" cy="2424.34" r="22.03" style="fill:#000000;stroke:#000000;stroke-width:8.64"/>
	<circle cx="1185.03" cy="2423.84" r="22.03" style="fill:#000000;stroke:#000000;stroke-width:8.64"/>
	<circle cx="1289.47" cy="2423.22" r="22.03" style="fill:#000000;stroke:#000000;stroke-width:8.64"/>
	<circle cx="1393.92" cy="2422.23" r="22.03" style="fill:#000000;stroke:#000000;stroke-width:8.64"/>
	<circle cx="1498.37" cy="2421.00" r="22.03" style="fill:#000000;stroke:#000000;stroke-width:8.64"/>
	<circle cx="1602.69" cy="2419.64" r="22.03" style="fill:#000000;stroke:#000000;stroke-width:8.64"/>
	<circle cx="1707.13" cy="2417.90" r="22.03" style="fill:#000000;stroke:#000000;stroke-width:8.64"/>
	<circle cx="1811.58" cy="2415.43" r="22.03" style="fill:#000000;stroke:#000000;stroke-width:8.64"/>
	<circle cx="1916.02" cy="2411.72" r="22.03" style="fill:#000000;stroke:#000000;stroke-width:8.64"/>
	<circle cx="2020.47" cy="2407.76" r="22.03" style="fill:#000000;stroke:#000000;stroke-width:8.64"/>
	<circle cx="2124.91" cy="2403.55" r="22.03" style="fill:#000000;stroke:#000000;stroke-width:8.64"/>
	<circle cx="2229.23" cy="2395.01" r="22.03" style="fill:#000000;stroke:#000000;stroke-width:8.64"/>
	<circle cx="2333.68" cy="2380.65" r="22.03" style="fill:#000000;stroke:#000000;stroke-width:8.64"/>
	<line x1="390.80" y1="2489.19" x2="390.80" y2="100.86" style="stroke:#000000;stroke-width:5.76"/>
	<line x1="390.80" y1="2425.82" x2="350.83" y2="2425.82" style="stroke:#000000;stroke-width:5.76"/>
	<text x="300.72" y="2425.82" style="font-family:'Helvetica';font-size:99.99px;fill:#000000" transform="rotate(-90 300.72,2425.82)" text-anchor="middle">0</text>
	<line x1="390.80" y1="1671.91" x2="350.83" y2="1671.91" style="stroke:#000000;stroke-width:5.76"/>
	<text x="300.72" y="1671.91" style="font-family:'Helvetica';font-size:99.99px;fill:#000000" transform="rotate(-90 300.72,1671.91)" text-anchor="middle">20</text>
	<line x1="390.80" y1="918.01" x2="350.83" y2="918.01" style="stroke:#000000;stroke-width:5.76"/>
	<text x="300.72" y="918.01" style="font-family:'Helvetica';font-size:99.99px;fill:#000000" transform="rotate(-90 300.72,918.01)" text-anchor="middle">40</text>
	<line x1="390.80" y1="164.22" x2="350.83" y2="164.22" style="stroke:#000000;stroke-width:5.76"/>
	<text x="300.72" y="164.22" style="font-family:'Helvetica';font-size:99.99px;fill:#000000" transform="rotate(-90 300.72,164.22)" text-anchor="middle">60</text>
	<text x="190.71" y="1294.96" style="font-family:'Helvetica';font-size:99.99px;fill:#000000" transform="rotate(-90 190.71,1294.96)" text-anchor="middle">Confirmed cases per 100 beds</text>
	<line x1="390.80" y1="2489.19" x2="3859.02" y2="2489.19" style="stroke:#000000;stroke-width:5.76"/>
	<line x1="454.16" y1="2489.19" x2="454.16" y2="2529.16" style="stroke:#000000;stroke-width:5.76"/>
	<text x="454.16" y="2619.14" style="font-family:'Helvetica';font-size:99.99px;fill:#000000" text-anchor="middle">0</text>
	<line x1="1498.37" y1="2489.19" x2="1498.37" y2="2529.16" style="stroke:#000000;stroke-width:5.76"/>
	<text x="1498.37" y="2619.14" style="font-family:'Helvetica';font-size:99.99px;fill:#000000" text-anchor="middle">10</text>
	<line x1="2542.57" y1="2489.19" x2="2542.57" y2="2529.16" style="stroke:#000000;stroke-width:5.76"/>
	<text x="2542.57" y="2619.14" style="font-family:'Helvetica';font-size:99.99px;fill:#000000" text-anchor="middle">20</text>
	<line x1="3586.89" y1="2489.19" x2="3586.89" y2="2529.16" style="stroke:#000000;stroke-width:5.76"/>
	<text x="3586.89" y="2619.14" style="font-family:'Helvetica';font-size:99.99px;fill:#000000" text-anchor="middle">30</text>
	<text x="2124.91" y="2729.16" style="font-family:'Helvetica';font-size:99.99px;fill:#000000" text-anchor="middle">Days since 0.01 confirmed cases per 100 beds</text>
</svg>
