<?xml version="1.0" encoding="UTF-8" standalone="no"?>
<!-- This is a Stata 14.2 generated SVG file (http://www.stata.com) -->

<svg version="1.1" width="5.50in" height="4.00in" viewBox="0 0 3960 2880" xmlns="http://www.w3.org/2000/svg">
	<desc>Stata Graph - Graph</desc>
	<line x1="390.80" y1="1832.18" x2="3859.02" y2="1832.18" style="stroke:#FF0000;stroke-width:8.64"/>
	<path d="M565.54 1860.39 L565.54 1860.39 L676.91 1860.39 L788.29 1860.39 L899.66 1860.39 L1011.04 1860.39 L1122.41 1860.39 L1233.79 1860.52 L1345.29 1860.52 L1456.66 1860.52 L1568.04 1860.39 L1679.41 1860.39 L1790.79 1860.27 L1902.16 1859.90 L2013.54 1859.28 L2124.91 1858.29 L2236.29 1856.68 L2347.66 1855.44 L2459.04 1854.08 L2570.53 1852.72 L2681.91 1851.48 L2793.28 1850.86 L2904.66 1851.48 L3016.03 1854.20 L3127.41 1860.52 L3238.78 1872.64 L3350.16 1893.19 L3461.53 1926.23 L3572.91 1977.22 L3684.28 2052.95 L3795.66 2162.48 L3795.66 261.49 L3684.28 708.86 L3572.91 1040.52 L3461.53 1283.58 L3350.16 1459.68 L3238.78 1585.78 L3127.41 1674.88 L3016.03 1736.89 L2904.66 1779.58 L2793.28 1808.42 L2681.91 1827.60 L2570.53 1840.22 L2459.04 1848.26 L2347.66 1853.34 L2236.29 1856.31 L2124.91 1857.55 L2013.54 1858.41 L1902.16 1859.03 L1790.79 1859.40 L1679.41 1859.77 L1568.04 1860.02 L1456.66 1860.14 L1345.29 1860.27 L1233.79 1860.27 L1122.41 1860.39 L1011.04 1860.39 L899.66 1860.39 L788.29 1860.39 L676.91 1860.39 L565.54 1860.39 L565.54 1860.39 Z" stroke-linecap="round" style="fill:#EBEBFF;stroke:#E6E6FF;stroke-width:3.00"/>
	<path d="M565.54 1860.39 L565.54 1860.39 L676.91 1860.39 L788.29 1860.39 L899.66 1860.39 L1011.04 1860.39 L1122.41 1860.39 L1233.79 1860.39 L1345.29 1860.39 L1456.66 1860.39 L1568.04 1860.27 L1679.41 1860.14 L1790.79 1860.02 L1902.16 1859.65 L2013.54 1859.03 L2124.91 1858.04 L2236.29 1856.56 L2347.66 1854.82 L2459.04 1852.35 L2570.53 1849.13 L2681.91 1844.68 L2793.28 1838.61 L2904.66 1830.69 L3016.03 1820.42 L3127.41 1806.93 L3238.78 1789.85 L3350.16 1768.07 L3461.53 1740.72 L3572.91 1706.81 L3684.28 1664.98 L3795.66 1613.75 L3795.66 810.09 L3684.28 1096.71 L3572.91 1310.80 L3461.53 1469.08 L3350.16 1584.79 L3238.78 1668.57 L3127.41 1728.47 L3016.03 1770.79 L2904.66 1800.37 L2793.28 1820.67 L2681.91 1834.53 L2570.53 1843.81 L2459.04 1849.87 L2347.66 1853.96 L2236.29 1856.43 L2124.91 1857.79 L2013.54 1858.66 L1902.16 1859.28 L1790.79 1859.65 L1679.41 1859.90 L1568.04 1860.14 L1456.66 1860.27 L1345.29 1860.27 L1233.79 1860.39 L1122.41 1860.39 L1011.04 1860.39 L899.66 1860.39 L788.29 1860.39 L676.91 1860.39 L565.54 1860.39 L565.54 1860.39 Z" stroke-linecap="round" style="fill:#D6D6FF;stroke:#CCCCFF;stroke-width:3.00"/>
	<path d="M565.54 1860.39 L565.54 1860.39 L676.91 1860.39 L788.29 1860.39 L899.66 1860.39 L1011.04 1860.39 L1122.41 1860.39 L1233.79 1860.39 L1345.29 1860.39 L1456.66 1860.39 L1568.04 1860.27 L1679.41 1860.14 L1790.79 1859.90 L1902.16 1859.65 L2013.54 1859.03 L2124.91 1858.04 L2236.29 1856.56 L2347.66 1854.70 L2459.04 1852.10 L2570.53 1848.51 L2681.91 1843.56 L2793.28 1836.63 L2904.66 1827.35 L3016.03 1814.85 L3127.41 1798.27 L3238.78 1776.36 L3350.16 1747.78 L3461.53 1710.77 L3572.91 1663.13 L3684.28 1602.24 L3795.66 1525.02 L3795.66 898.82 L3684.28 1159.45 L3572.91 1354.61 L3461.53 1499.03 L3350.16 1605.09 L3238.78 1681.94 L3127.41 1737.13 L3016.03 1776.24 L2904.66 1803.71 L2793.28 1822.65 L2681.91 1835.64 L2570.53 1844.43 L2459.04 1850.24 L2347.66 1853.96 L2236.29 1856.43 L2124.91 1857.79 L2013.54 1858.66 L1902.16 1859.28 L1790.79 1859.65 L1679.41 1859.90 L1568.04 1860.14 L1456.66 1860.27 L1345.29 1860.27 L1233.79 1860.39 L1122.41 1860.39 L1011.04 1860.39 L899.66 1860.39 L788.29 1860.39 L676.91 1860.39 L565.54 1860.39 L565.54 1860.39 Z" stroke-linecap="round" style="fill:#C2C2FF;stroke:#B3B3FF;stroke-width:3.00"/>
	<path d="M565.54 1860.39 L565.54 1860.39 L676.91 1860.39 L788.29 1860.39 L899.66 1860.39 L1011.04 1860.39 L1122.41 1860.39 L1233.79 1860.39 L1345.29 1860.39 L1456.66 1860.39 L1568.04 1860.27 L1679.41 1860.14 L1790.79 1859.90 L1902.16 1859.53 L2013.54 1859.03 L2124.91 1858.04 L2236.29 1856.56 L2347.66 1854.70 L2459.04 1851.98 L2570.53 1848.14 L2681.91 1842.82 L2793.28 1835.27 L2904.66 1825.12 L3016.03 1811.14 L3127.41 1792.45 L3238.78 1767.33 L3350.16 1734.16 L3461.53 1690.48 L3572.91 1633.55 L3684.28 1559.92 L3795.66 1465.12 L3795.66 958.72 L3684.28 1201.90 L3572.91 1384.06 L3461.53 1519.33 L3350.16 1618.70 L3238.78 1690.97 L3127.41 1742.95 L3016.03 1779.95 L2904.66 1805.94 L2793.28 1824.01 L2681.91 1836.38 L2570.53 1844.80 L2459.04 1850.37 L2347.66 1854.08 L2236.29 1856.43 L2124.91 1857.79 L2013.54 1858.66 L1902.16 1859.28 L1790.79 1859.77 L1679.41 1860.02 L1568.04 1860.14 L1456.66 1860.27 L1345.29 1860.27 L1233.79 1860.39 L1122.41 1860.39 L1011.04 1860.39 L899.66 1860.39 L788.29 1860.39 L676.91 1860.39 L565.54 1860.39 L565.54 1860.39 Z" stroke-linecap="round" style="fill:#ADADFF;stroke:#9999FF;stroke-width:3.00"/>
	<path d="M565.54 1860.39 L565.54 1860.39 L676.91 1860.39 L788.29 1860.39 L899.66 1860.39 L1011.04 1860.39 L1122.41 1860.39 L1233.79 1860.39 L1345.29 1860.39 L1456.66 1860.39 L1568.04 1860.27 L1679.41 1860.14 L1790.79 1859.90 L1902.16 1859.53 L2013.54 1858.91 L2124.91 1858.04 L2236.29 1856.56 L2347.66 1854.58 L2459.04 1851.85 L2570.53 1847.77 L2681.91 1842.20 L2793.28 1834.28 L2904.66 1823.27 L3016.03 1808.29 L3127.41 1787.75 L3238.78 1760.15 L3350.16 1723.27 L3461.53 1674.39 L3572.91 1610.16 L3684.28 1526.26 L3795.66 1417.60 L3795.66 1006.37 L3684.28 1235.43 L3572.91 1407.45 L3461.53 1535.41 L3350.16 1629.59 L3238.78 1698.15 L3127.41 1747.65 L3016.03 1782.92 L2904.66 1807.80 L2793.28 1825.12 L2681.91 1837.00 L2570.53 1845.05 L2459.04 1850.49 L2347.66 1854.08 L2236.29 1856.43 L2124.91 1857.79 L2013.54 1858.78 L1902.16 1859.40 L1790.79 1859.77 L1679.41 1860.02 L1568.04 1860.14 L1456.66 1860.27 L1345.29 1860.27 L1233.79 1860.39 L1122.41 1860.39 L1011.04 1860.39 L899.66 1860.39 L788.29 1860.39 L676.91 1860.39 L565.54 1860.39 L565.54 1860.39 Z" stroke-linecap="round" style="fill:#9999FF;stroke:#8080FF;stroke-width:3.00"/>
	<path d="M565.54 1860.39 L565.54 1860.39 L676.91 1860.39 L788.29 1860.39 L899.66 1860.39 L1011.04 1860.39 L1122.41 1860.39 L1233.79 1860.39 L1345.29 1860.39 L1456.66 1860.27 L1568.04 1860.27 L1679.41 1860.14 L1790.79 1859.90 L1902.16 1859.53 L2013.54 1858.91 L2124.91 1857.92 L2236.29 1856.56 L2347.66 1854.58 L2459.04 1851.73 L2570.53 1847.52 L2681.91 1841.71 L2793.28 1833.29 L2904.66 1821.78 L3016.03 1805.69 L3127.41 1783.79 L3238.78 1754.09 L3350.16 1713.99 L3461.53 1660.65 L3572.91 1589.99 L3684.28 1497.42 L3795.66 1376.76 L3795.66 1047.21 L3684.28 1264.39 L3572.91 1427.62 L3461.53 1549.27 L3350.16 1638.87 L3238.78 1704.34 L3127.41 1751.61 L3016.03 1785.40 L2904.66 1809.28 L2793.28 1825.99 L2681.91 1837.50 L2570.53 1845.42 L2459.04 1850.62 L2347.66 1854.20 L2236.29 1856.43 L2124.91 1857.92 L2013.54 1858.78 L1902.16 1859.40 L1790.79 1859.77 L1679.41 1860.02 L1568.04 1860.14 L1456.66 1860.27 L1345.29 1860.39 L1233.79 1860.39 L1122.41 1860.39 L1011.04 1860.39 L899.66 1860.39 L788.29 1860.39 L676.91 1860.39 L565.54 1860.39 L565.54 1860.39 Z" stroke-linecap="round" style="fill:#8585FF;stroke:#6666FF;stroke-width:3.00"/>
	<path d="M565.54 1860.39 L565.54 1860.39 L676.91 1860.39 L788.29 1860.39 L899.66 1860.39 L1011.04 1860.39 L1122.41 1860.39 L1233.79 1860.39 L1345.29 1860.39 L1456.66 1860.27 L1568.04 1860.27 L1679.41 1860.14 L1790.79 1859.90 L1902.16 1859.53 L2013.54 1858.91 L2124.91 1857.92 L2236.29 1856.56 L2347.66 1854.45 L2459.04 1851.61 L2570.53 1847.27 L2681.91 1841.21 L2793.28 1832.55 L2904.66 1820.42 L3016.03 1803.47 L3127.41 1780.20 L3238.78 1748.52 L3350.16 1705.70 L3461.53 1648.28 L3572.91 1571.92 L3684.28 1471.43 L3795.66 1340.13 L3795.66 1083.84 L3684.28 1290.26 L3572.91 1445.69 L3461.53 1561.65 L3350.16 1647.29 L3238.78 1709.91 L3127.41 1755.20 L3016.03 1787.62 L2904.66 1810.64 L2793.28 1826.85 L2681.91 1837.99 L2570.53 1845.67 L2459.04 1850.74 L2347.66 1854.20 L2236.29 1856.43 L2124.91 1857.92 L2013.54 1858.78 L1902.16 1859.40 L1790.79 1859.77 L1679.41 1860.02 L1568.04 1860.14 L1456.66 1860.27 L1345.29 1860.39 L1233.79 1860.39 L1122.41 1860.39 L1011.04 1860.39 L899.66 1860.39 L788.29 1860.39 L676.91 1860.39 L565.54 1860.39 L565.54 1860.39 Z" stroke-linecap="round" style="fill:#7171FF;stroke:#4D4DFF;stroke-width:3.00"/>
	<path d="M565.54 1860.39 L565.54 1860.39 L676.91 1860.39 L788.29 1860.39 L899.66 1860.39 L1011.04 1860.39 L1122.41 1860.39 L1233.79 1860.39 L1345.29 1860.39 L1456.66 1860.27 L1568.04 1860.27 L1679.41 1860.14 L1790.79 1859.90 L1902.16 1859.53 L2013.54 1858.91 L2124.91 1857.92 L2236.29 1856.56 L2347.66 1854.45 L2459.04 1851.48 L2570.53 1847.03 L2681.91 1840.72 L2793.28 1831.80 L2904.66 1819.06 L3016.03 1801.36 L3127.41 1776.86 L3238.78 1743.44 L3350.16 1697.90 L3461.53 1636.77 L3572.91 1555.21 L3684.28 1447.43 L3795.66 1306.10 L3795.66 1117.87 L3684.28 1314.27 L3572.91 1462.40 L3461.53 1573.04 L3350.16 1654.96 L3238.78 1714.98 L3127.41 1758.54 L3016.03 1789.73 L2904.66 1812.00 L2793.28 1827.60 L2681.91 1838.36 L2570.53 1845.79 L2459.04 1850.86 L2347.66 1854.20 L2236.29 1856.43 L2124.91 1857.92 L2013.54 1858.78 L1902.16 1859.40 L1790.79 1859.77 L1679.41 1860.02 L1568.04 1860.14 L1456.66 1860.27 L1345.29 1860.39 L1233.79 1860.39 L1122.41 1860.39 L1011.04 1860.39 L899.66 1860.39 L788.29 1860.39 L676.91 1860.39 L565.54 1860.39 L565.54 1860.39 Z" stroke-linecap="round" style="fill:#5C5CFF;stroke:#3333FF;stroke-width:3.00"/>
	<path d="M565.54 1860.39 L565.54 1860.39 L676.91 1860.39 L788.29 1860.39 L899.66 1860.39 L1011.04 1860.39 L1122.41 1860.39 L1233.79 1860.39 L1345.29 1860.39 L1456.66 1860.27 L1568.04 1860.27 L1679.41 1860.02 L1790.79 1859.90 L1902.16 1859.53 L2013.54 1858.91 L2124.91 1857.92 L2236.29 1856.56 L2347.66 1854.45 L2459.04 1851.36 L2570.53 1846.90 L2681.91 1840.34 L2793.28 1831.06 L2904.66 1817.82 L3016.03 1799.38 L3127.41 1773.76 L3238.78 1738.49 L3350.16 1690.60 L3461.53 1625.88 L3572.91 1539.37 L3684.28 1424.65 L3795.66 1273.80 L3795.66 1150.04 L3684.28 1337.16 L3572.91 1478.36 L3461.53 1584.05 L3350.16 1662.39 L3238.78 1719.81 L3127.41 1761.64 L3016.03 1791.71 L2904.66 1813.24 L2793.28 1828.34 L2681.91 1838.86 L2570.53 1846.04 L2459.04 1850.99 L2347.66 1854.33 L2236.29 1856.43 L2124.91 1857.92 L2013.54 1858.78 L1902.16 1859.40 L1790.79 1859.77 L1679.41 1860.02 L1568.04 1860.14 L1456.66 1860.27 L1345.29 1860.39 L1233.79 1860.39 L1122.41 1860.39 L1011.04 1860.39 L899.66 1860.39 L788.29 1860.39 L676.91 1860.39 L565.54 1860.39 L565.54 1860.39 Z" stroke-linecap="round" style="fill:#4747FF;stroke:#1919FF;stroke-width:3.00"/>
	<path d="M565.54 1860.39 L565.54 1860.39 L676.91 1860.39 L788.29 1860.39 L899.66 1860.39 L1011.04 1860.39 L1122.41 1860.39 L1233.79 1860.39 L1345.29 1860.39 L1456.66 1860.27 L1568.04 1860.27 L1679.41 1860.02 L1790.79 1859.77 L1902.16 1859.40 L2013.54 1858.91 L2124.91 1857.92 L2236.29 1856.56 L2347.66 1854.45 L2459.04 1851.23 L2570.53 1846.66 L2681.91 1839.97 L2793.28 1830.32 L2904.66 1816.71 L3016.03 1797.52 L3127.41 1770.67 L3238.78 1733.79 L3350.16 1683.42 L3461.53 1615.36 L3572.91 1523.91 L3684.28 1402.63 L3795.66 1242.61 L3795.66 1181.23 L3684.28 1359.19 L3572.91 1493.71 L3461.53 1594.57 L3350.16 1669.44 L3238.78 1724.51 L3127.41 1764.73 L3016.03 1793.69 L2904.66 1814.36 L2793.28 1828.96 L2681.91 1839.23 L2570.53 1846.28 L2459.04 1851.11 L2347.66 1854.33 L2236.29 1856.56 L2124.91 1857.92 L2013.54 1858.78 L1902.16 1859.40 L1790.79 1859.77 L1679.41 1860.02 L1568.04 1860.14 L1456.66 1860.27 L1345.29 1860.39 L1233.79 1860.39 L1122.41 1860.39 L1011.04 1860.39 L899.66 1860.39 L788.29 1860.39 L676.91 1860.39 L565.54 1860.39 L565.54 1860.39 Z" stroke-linecap="round" style="fill:#3333FF;stroke:#0000FF;stroke-width:3.00"/>
	<circle cx="565.41" cy="1860.39" r="22.03" style="fill:#000000;stroke:#000000;stroke-width:8.64"/>
	<circle cx="676.79" cy="1860.39" r="22.03" style="fill:#000000;stroke:#000000;stroke-width:8.64"/>
	<circle cx="788.29" cy="1860.39" r="22.03" style="fill:#000000;stroke:#000000;stroke-width:8.64"/>
	<circle cx="899.66" cy="1860.39" r="22.03" style="fill:#000000;stroke:#000000;stroke-width:8.64"/>
	<circle cx="1011.04" cy="1860.39" r="22.03" style="fill:#000000;stroke:#000000;stroke-width:8.64"/>
	<circle cx="1122.41" cy="1860.39" r="22.03" style="fill:#000000;stroke:#000000;stroke-width:8.64"/>
	<circle cx="1233.79" cy="1860.39" r="22.03" style="fill:#000000;stroke:#000000;stroke-width:8.64"/>
	<circle cx="1345.16" cy="1860.39" r="22.03" style="fill:#000000;stroke:#000000;stroke-width:8.64"/>
	<circle cx="1456.54" cy="1860.39" r="22.03" style="fill:#000000;stroke:#000000;stroke-width:8.64"/>
	<circle cx="1567.91" cy="1860.39" r="22.03" style="fill:#000000;stroke:#000000;stroke-width:8.64"/>
	<circle cx="1679.29" cy="1860.27" r="22.03" style="fill:#000000;stroke:#000000;stroke-width:8.64"/>
	<circle cx="1790.66" cy="1860.02" r="22.03" style="fill:#000000;stroke:#000000;stroke-width:8.64"/>
	<circle cx="1902.04" cy="1859.15" r="22.03" style="fill:#000000;stroke:#000000;stroke-width:8.64"/>
	<circle cx="2013.54" cy="1859.15" r="22.03" style="fill:#000000;stroke:#000000;stroke-width:8.64"/>
	<circle cx="2124.91" cy="1857.92" r="22.03" style="fill:#000000;stroke:#000000;stroke-width:8.64"/>
	<circle cx="2236.29" cy="1856.56" r="22.03" style="fill:#000000;stroke:#000000;stroke-width:8.64"/>
	<line x1="390.80" y1="2489.19" x2="390.80" y2="100.86" style="stroke:#000000;stroke-width:5.76"/>
	<line x1="390.80" y1="2425.82" x2="350.83" y2="2425.82" style="stroke:#000000;stroke-width:5.76"/>
	<text x="300.72" y="2425.82" style="font-family:'Helvetica';font-size:99.99px;fill:#000000" transform="rotate(-90 300.72,2425.82)" text-anchor="middle">-200</text>
	<line x1="390.80" y1="1860.39" x2="350.83" y2="1860.39" style="stroke:#000000;stroke-width:5.76"/>
	<text x="300.72" y="1860.39" style="font-family:'Helvetica';font-size:99.99px;fill:#000000" transform="rotate(-90 300.72,1860.39)" text-anchor="middle">0</text>
	<line x1="390.80" y1="1294.96" x2="350.83" y2="1294.96" style="stroke:#000000;stroke-width:5.76"/>
	<text x="300.72" y="1294.96" style="font-family:'Helvetica';font-size:99.99px;fill:#000000" transform="rotate(-90 300.72,1294.96)" text-anchor="middle">200</text>
	<line x1="390.80" y1="729.53" x2="350.83" y2="729.53" style="stroke:#000000;stroke-width:5.76"/>
	<text x="300.72" y="729.53" style="font-family:'Helvetica';font-size:99.99px;fill:#000000" transform="rotate(-90 300.72,729.53)" text-anchor="middle">400</text>
	<line x1="390.80" y1="164.22" x2="350.83" y2="164.22" style="stroke:#000000;stroke-width:5.76"/>
	<text x="300.72" y="164.22" style="font-family:'Helvetica';font-size:99.99px;fill:#000000" transform="rotate(-90 300.72,164.22)" text-anchor="middle">600</text>
	<text x="190.71" y="1294.96" style="font-family:'Helvetica';font-size:99.99px;fill:#000000" transform="rotate(-90 190.71,1294.96)" text-anchor="middle">Confirmed cases per 100 beds</text>
	<line x1="390.80" y1="2489.19" x2="3859.02" y2="2489.19" style="stroke:#000000;stroke-width:5.76"/>
	<line x1="454.16" y1="2489.19" x2="454.16" y2="2529.16" style="stroke:#000000;stroke-width:5.76"/>
	<text x="454.16" y="2619.14" style="font-family:'Helvetica';font-size:99.99px;fill:#000000" text-anchor="middle">0</text>
	<line x1="1568.04" y1="2489.19" x2="1568.04" y2="2529.16" style="stroke:#000000;stroke-width:5.76"/>
	<text x="1568.04" y="2619.14" style="font-family:'Helvetica';font-size:99.99px;fill:#000000" text-anchor="middle">10</text>
	<line x1="2681.91" y1="2489.19" x2="2681.91" y2="2529.16" style="stroke:#000000;stroke-width:5.76"/>
	<text x="2681.91" y="2619.14" style="font-family:'Helvetica';font-size:99.99px;fill:#000000" text-anchor="middle">20</text>
	<line x1="3795.66" y1="2489.19" x2="3795.66" y2="2529.16" style="stroke:#000000;stroke-width:5.76"/>
	<text x="3795.66" y="2619.14" style="font-family:'Helvetica';font-size:99.99px;fill:#000000" text-anchor="middle">30</text>
	<text x="2124.91" y="2729.16" style="font-family:'Helvetica';font-size:99.99px;fill:#000000" text-anchor="middle">Days since 0.01 confirmed cases per 100 beds</text>
</svg>
