<?xml version="1.0" encoding="UTF-8" standalone="no"?>
<!-- This is a Stata 14.2 generated SVG file (http://www.stata.com) -->

<svg version="1.1" width="5.50in" height="4.00in" viewBox="0 0 3960 2880" xmlns="http://www.w3.org/2000/svg">
	<desc>Stata Graph - Graph</desc>
	<line x1="390.80" y1="1660.16" x2="3859.02" y2="1660.16" style="stroke:#FF0000;stroke-width:8.64"/>
	<path d="M582.62 1696.67 L582.62 1696.67 L711.19 1696.79 L839.77 1696.79 L968.22 1696.79 L1096.80 1696.79 L1225.25 1696.67 L1353.83 1696.54 L1482.28 1696.29 L1610.85 1695.80 L1739.31 1695.18 L1867.88 1694.31 L1996.46 1693.45 L2124.91 1692.83 L2253.49 1692.71 L2381.94 1693.20 L2510.52 1694.93 L2638.97 1698.52 L2767.55 1705.20 L2896.12 1716.22 L3024.57 1733.79 L3153.15 1760.40 L3281.60 1799.75 L3410.18 1856.43 L3538.63 1936.50 L3667.21 2047.63 L3795.66 2199.23 L3795.66 164.22 L3667.21 562.09 L3538.63 864.67 L3410.18 1092.62 L3281.60 1262.78 L3153.15 1388.39 L3024.57 1480.22 L2896.12 1546.55 L2767.55 1593.95 L2638.97 1627.24 L2510.52 1650.51 L2381.94 1666.47 L2253.49 1677.11 L2124.91 1684.17 L1996.46 1688.75 L1867.88 1691.47 L1739.31 1693.08 L1610.85 1694.07 L1482.28 1694.81 L1353.83 1695.30 L1225.25 1695.68 L1096.80 1695.92 L968.22 1696.17 L839.77 1696.29 L711.19 1696.42 L582.62 1696.54 L582.62 1696.67 Z" stroke-linecap="round" style="fill:#EBEBFF;stroke:#E6E6FF;stroke-width:3.00"/>
	<path d="M582.62 1696.67 L582.62 1696.67 L711.19 1696.67 L839.77 1696.67 L968.22 1696.54 L1096.80 1696.54 L1225.25 1696.42 L1353.83 1696.17 L1482.28 1695.92 L1610.85 1695.30 L1739.31 1694.56 L1867.88 1693.45 L1996.46 1692.09 L2124.91 1690.35 L2253.49 1688.25 L2381.94 1685.53 L2510.52 1682.06 L2638.97 1677.98 L2767.55 1673.03 L2896.12 1667.21 L3024.57 1660.53 L3153.15 1652.98 L3281.60 1644.81 L3410.18 1636.03 L3538.63 1627.24 L3667.21 1618.82 L3795.66 1611.89 L3795.66 751.56 L3667.21 990.77 L3538.63 1174.05 L3410.18 1313.03 L3281.60 1417.72 L3153.15 1495.69 L3024.57 1553.36 L2896.12 1595.56 L2767.55 1626.00 L2638.97 1647.91 L2510.52 1663.38 L2381.94 1674.14 L2253.49 1681.57 L2124.91 1686.64 L1996.46 1690.11 L1867.88 1692.33 L1739.31 1693.70 L1610.85 1694.56 L1482.28 1695.18 L1353.83 1695.68 L1225.25 1695.92 L1096.80 1696.17 L968.22 1696.29 L839.77 1696.42 L711.19 1696.54 L582.62 1696.54 L582.62 1696.67 Z" stroke-linecap="round" style="fill:#D6D6FF;stroke:#CCCCFF;stroke-width:3.00"/>
	<path d="M582.62 1696.67 L582.62 1696.67 L711.19 1696.67 L839.77 1696.67 L968.22 1696.54 L1096.80 1696.54 L1225.25 1696.29 L1353.83 1696.17 L1482.28 1695.80 L1610.85 1695.30 L1739.31 1694.44 L1867.88 1693.32 L1996.46 1691.84 L2124.91 1689.98 L2253.49 1687.51 L2381.94 1684.17 L2510.52 1680.08 L2638.97 1674.64 L2767.55 1667.83 L2896.12 1659.29 L3024.57 1648.77 L3153.15 1635.65 L3281.60 1619.69 L3410.18 1600.39 L3538.63 1577.12 L3667.21 1549.52 L3795.66 1516.85 L3795.66 846.48 L3667.21 1060.20 L3538.63 1224.05 L3410.18 1348.79 L3281.60 1442.85 L3153.15 1513.14 L3024.57 1565.24 L2896.12 1603.48 L2767.55 1631.20 L2638.97 1651.25 L2510.52 1665.36 L2381.94 1675.38 L2253.49 1682.31 L2124.91 1687.14 L1996.46 1690.35 L1867.88 1692.46 L1739.31 1693.82 L1610.85 1694.69 L1482.28 1695.30 L1353.83 1695.68 L1225.25 1696.05 L1096.80 1696.17 L968.22 1696.42 L839.77 1696.42 L711.19 1696.54 L582.62 1696.54 L582.62 1696.67 Z" stroke-linecap="round" style="fill:#C2C2FF;stroke:#B3B3FF;stroke-width:3.00"/>
	<path d="M582.62 1696.67 L582.62 1696.67 L711.19 1696.67 L839.77 1696.54 L968.22 1696.54 L1096.80 1696.42 L1225.25 1696.29 L1353.83 1696.05 L1482.28 1695.80 L1610.85 1695.18 L1739.31 1694.44 L1867.88 1693.32 L1996.46 1691.72 L2124.91 1689.74 L2253.49 1687.01 L2381.94 1683.42 L2510.52 1678.60 L2638.97 1672.41 L2767.55 1664.37 L2896.12 1653.97 L3024.57 1640.73 L3153.15 1623.90 L3281.60 1602.74 L3410.18 1576.25 L3538.63 1543.33 L3667.21 1502.74 L3795.66 1452.75 L3795.66 910.58 L3667.21 1106.98 L3538.63 1257.83 L3410.18 1372.80 L3281.60 1459.68 L3153.15 1524.90 L3024.57 1573.16 L2896.12 1608.80 L2767.55 1634.66 L2638.97 1653.48 L2510.52 1666.84 L2381.94 1676.25 L2253.49 1682.81 L2124.91 1687.38 L1996.46 1690.48 L1867.88 1692.46 L1739.31 1693.82 L1610.85 1694.69 L1482.28 1695.30 L1353.83 1695.80 L1225.25 1696.05 L1096.80 1696.29 L968.22 1696.42 L839.77 1696.42 L711.19 1696.54 L582.62 1696.54 L582.62 1696.67 Z" stroke-linecap="round" style="fill:#ADADFF;stroke:#9999FF;stroke-width:3.00"/>
	<path d="M582.62 1696.67 L582.62 1696.67 L711.19 1696.67 L839.77 1696.54 L968.22 1696.54 L1096.80 1696.42 L1225.25 1696.29 L1353.83 1696.05 L1482.28 1695.68 L1610.85 1695.18 L1739.31 1694.31 L1867.88 1693.20 L1996.46 1691.59 L2124.91 1689.49 L2253.49 1686.64 L2381.94 1682.68 L2510.52 1677.48 L2638.97 1670.68 L2767.55 1661.64 L2896.12 1649.76 L3024.57 1634.42 L3153.15 1614.62 L3281.60 1589.37 L3410.18 1557.19 L3538.63 1516.48 L3667.21 1465.49 L3795.66 1401.76 L3795.66 961.57 L3667.21 1144.10 L3538.63 1284.69 L3410.18 1391.98 L3281.60 1473.17 L3153.15 1534.18 L3024.57 1579.59 L2896.12 1613.01 L2767.55 1637.51 L2638.97 1655.21 L2510.52 1667.95 L2381.94 1676.86 L2253.49 1683.18 L2124.91 1687.63 L1996.46 1690.60 L1867.88 1692.58 L1739.31 1693.94 L1610.85 1694.81 L1482.28 1695.43 L1353.83 1695.80 L1225.25 1696.05 L1096.80 1696.29 L968.22 1696.42 L839.77 1696.54 L711.19 1696.54 L582.62 1696.54 L582.62 1696.67 Z" stroke-linecap="round" style="fill:#9999FF;stroke:#8080FF;stroke-width:3.00"/>
	<path d="M582.62 1696.67 L582.62 1696.67 L711.19 1696.67 L839.77 1696.54 L968.22 1696.54 L1096.80 1696.42 L1225.25 1696.29 L1353.83 1696.05 L1482.28 1695.68 L1610.85 1695.18 L1739.31 1694.31 L1867.88 1693.08 L1996.46 1691.47 L2124.91 1689.24 L2253.49 1686.27 L2381.94 1682.19 L2510.52 1676.62 L2638.97 1669.07 L2767.55 1659.17 L2896.12 1646.05 L3024.57 1628.97 L3153.15 1606.70 L3281.60 1577.74 L3410.18 1540.74 L3538.63 1493.46 L3667.21 1433.56 L3795.66 1358.07 L3795.66 1005.25 L3667.21 1176.03 L3538.63 1307.71 L3410.18 1408.32 L3281.60 1484.68 L3153.15 1542.10 L3024.57 1585.04 L2896.12 1616.72 L2767.55 1639.86 L2638.97 1656.69 L2510.52 1668.82 L2381.94 1677.48 L2253.49 1683.55 L2124.91 1687.76 L1996.46 1690.73 L1867.88 1692.58 L1739.31 1693.94 L1610.85 1694.81 L1482.28 1695.43 L1353.83 1695.80 L1225.25 1696.05 L1096.80 1696.29 L968.22 1696.42 L839.77 1696.54 L711.19 1696.54 L582.62 1696.54 L582.62 1696.67 Z" stroke-linecap="round" style="fill:#8585FF;stroke:#6666FF;stroke-width:3.00"/>
	<path d="M582.62 1696.67 L582.62 1696.67 L711.19 1696.54 L839.77 1696.54 L968.22 1696.54 L1096.80 1696.42 L1225.25 1696.29 L1353.83 1696.05 L1482.28 1695.68 L1610.85 1695.06 L1739.31 1694.31 L1867.88 1693.08 L1996.46 1691.47 L2124.91 1689.12 L2253.49 1685.90 L2381.94 1681.57 L2510.52 1675.75 L2638.97 1667.71 L2767.55 1657.06 L2896.12 1642.83 L3024.57 1624.02 L3153.15 1599.52 L3281.60 1567.47 L3410.18 1526.01 L3538.63 1472.79 L3667.21 1404.98 L3795.66 1318.84 L3795.66 1044.48 L3667.21 1204.74 L3538.63 1328.37 L3410.18 1423.05 L3281.60 1495.07 L3153.15 1549.27 L3024.57 1589.87 L2896.12 1619.94 L2767.55 1642.09 L2638.97 1658.18 L2510.52 1669.69 L2381.94 1677.98 L2253.49 1683.92 L2124.91 1688.00 L1996.46 1690.73 L1867.88 1692.71 L1739.31 1693.94 L1610.85 1694.81 L1482.28 1695.43 L1353.83 1695.80 L1225.25 1696.17 L1096.80 1696.29 L968.22 1696.42 L839.77 1696.54 L711.19 1696.54 L582.62 1696.54 L582.62 1696.67 Z" stroke-linecap="round" style="fill:#7171FF;stroke:#4D4DFF;stroke-width:3.00"/>
	<path d="M582.62 1696.67 L582.62 1696.67 L711.19 1696.54 L839.77 1696.54 L968.22 1696.54 L1096.80 1696.42 L1225.25 1696.29 L1353.83 1696.05 L1482.28 1695.68 L1610.85 1695.06 L1739.31 1694.19 L1867.88 1693.08 L1996.46 1691.34 L2124.91 1688.99 L2253.49 1685.65 L2381.94 1681.20 L2510.52 1674.88 L2638.97 1666.47 L2767.55 1655.08 L2896.12 1639.74 L3024.57 1619.57 L3153.15 1592.84 L3281.60 1557.81 L3410.18 1512.40 L3538.63 1453.74 L3667.21 1378.37 L3795.66 1282.46 L3795.66 1080.87 L3667.21 1231.23 L3538.63 1347.56 L3410.18 1436.78 L3281.60 1504.60 L3153.15 1555.96 L3024.57 1594.44 L2896.12 1623.03 L2767.55 1644.07 L2638.97 1659.42 L2510.52 1670.55 L2381.94 1678.47 L2253.49 1684.17 L2124.91 1688.13 L1996.46 1690.85 L1867.88 1692.71 L1739.31 1694.07 L1610.85 1694.93 L1482.28 1695.43 L1353.83 1695.92 L1225.25 1696.17 L1096.80 1696.29 L968.22 1696.42 L839.77 1696.54 L711.19 1696.54 L582.62 1696.54 L582.62 1696.67 Z" stroke-linecap="round" style="fill:#5C5CFF;stroke:#3333FF;stroke-width:3.00"/>
	<path d="M582.62 1696.67 L582.62 1696.67 L711.19 1696.54 L839.77 1696.54 L968.22 1696.54 L1096.80 1696.42 L1225.25 1696.17 L1353.83 1695.92 L1482.28 1695.55 L1610.85 1695.06 L1739.31 1694.19 L1867.88 1692.95 L1996.46 1691.22 L2124.91 1688.87 L2253.49 1685.40 L2381.94 1680.70 L2510.52 1674.14 L2638.97 1665.23 L2767.55 1653.23 L2896.12 1636.89 L3024.57 1615.24 L3153.15 1586.52 L3281.60 1548.78 L3410.18 1499.40 L3538.63 1435.54 L3667.21 1353.25 L3795.66 1247.93 L3795.66 1115.39 L3667.21 1256.47 L3538.63 1365.75 L3410.18 1449.65 L3281.60 1513.76 L3153.15 1562.27 L3024.57 1598.78 L2896.12 1625.88 L2767.55 1645.93 L2638.97 1660.65 L2510.52 1671.30 L2381.94 1678.97 L2253.49 1684.41 L2124.91 1688.25 L1996.46 1690.97 L1867.88 1692.83 L1739.31 1694.07 L1610.85 1694.93 L1482.28 1695.55 L1353.83 1695.92 L1225.25 1696.17 L1096.80 1696.29 L968.22 1696.42 L839.77 1696.54 L711.19 1696.54 L582.62 1696.54 L582.62 1696.67 Z" stroke-linecap="round" style="fill:#4747FF;stroke:#1919FF;stroke-width:3.00"/>
	<path d="M582.62 1696.67 L582.62 1696.67 L711.19 1696.54 L839.77 1696.54 L968.22 1696.42 L1096.80 1696.42 L1225.25 1696.17 L1353.83 1695.92 L1482.28 1695.55 L1610.85 1695.06 L1739.31 1694.19 L1867.88 1692.95 L1996.46 1691.22 L2124.91 1688.62 L2253.49 1685.16 L2381.94 1680.21 L2510.52 1673.40 L2638.97 1664.12 L2767.55 1651.37 L2896.12 1634.17 L3024.57 1611.03 L3153.15 1580.46 L3281.60 1539.87 L3410.18 1486.90 L3538.63 1417.85 L3667.21 1328.87 L3795.66 1214.52 L3795.66 1148.81 L3667.21 1280.85 L3538.63 1383.32 L3410.18 1462.15 L3281.60 1522.54 L3153.15 1568.33 L3024.57 1602.86 L2896.12 1628.60 L2767.55 1647.78 L2638.97 1661.77 L2510.52 1672.04 L2381.94 1679.34 L2253.49 1684.66 L2124.91 1688.37 L1996.46 1690.97 L1867.88 1692.83 L1739.31 1694.07 L1610.85 1694.93 L1482.28 1695.55 L1353.83 1695.92 L1225.25 1696.17 L1096.80 1696.29 L968.22 1696.42 L839.77 1696.54 L711.19 1696.54 L582.62 1696.54 L582.62 1696.67 Z" stroke-linecap="round" style="fill:#3333FF;stroke:#0000FF;stroke-width:3.00"/>
	<circle cx="582.62" cy="1696.42" r="22.03" style="fill:#000000;stroke:#000000;stroke-width:8.64"/>
	<circle cx="711.07" cy="1696.42" r="22.03" style="fill:#000000;stroke:#000000;stroke-width:8.64"/>
	<circle cx="839.64" cy="1696.42" r="22.03" style="fill:#000000;stroke:#000000;stroke-width:8.64"/>
	<circle cx="968.22" cy="1696.42" r="22.03" style="fill:#000000;stroke:#000000;stroke-width:8.64"/>
	<circle cx="1096.67" cy="1696.17" r="22.03" style="fill:#000000;stroke:#000000;stroke-width:8.64"/>
	<circle cx="1225.25" cy="1696.17" r="22.03" style="fill:#000000;stroke:#000000;stroke-width:8.64"/>
	<circle cx="1353.70" cy="1696.17" r="22.03" style="fill:#000000;stroke:#000000;stroke-width:8.64"/>
	<circle cx="1482.28" cy="1695.30" r="22.03" style="fill:#000000;stroke:#000000;stroke-width:8.64"/>
	<circle cx="1610.73" cy="1694.44" r="22.03" style="fill:#000000;stroke:#000000;stroke-width:8.64"/>
	<circle cx="1739.31" cy="1694.44" r="22.03" style="fill:#000000;stroke:#000000;stroke-width:8.64"/>
	<circle cx="1867.88" cy="1693.94" r="22.03" style="fill:#000000;stroke:#000000;stroke-width:8.64"/>
	<circle cx="1996.34" cy="1690.60" r="22.03" style="fill:#000000;stroke:#000000;stroke-width:8.64"/>
	<line x1="390.80" y1="2489.19" x2="390.80" y2="100.86" style="stroke:#000000;stroke-width:5.76"/>
	<line x1="390.80" y1="2425.82" x2="350.83" y2="2425.82" style="stroke:#000000;stroke-width:5.76"/>
	<text x="300.72" y="2425.82" style="font-family:'Helvetica';font-size:99.99px;fill:#000000" transform="rotate(-90 300.72,2425.82)" text-anchor="middle">-200</text>
	<line x1="390.80" y1="1696.67" x2="350.83" y2="1696.67" style="stroke:#000000;stroke-width:5.76"/>
	<text x="300.72" y="1696.67" style="font-family:'Helvetica';font-size:99.99px;fill:#000000" transform="rotate(-90 300.72,1696.67)" text-anchor="middle">0</text>
	<line x1="390.80" y1="967.51" x2="350.83" y2="967.51" style="stroke:#000000;stroke-width:5.76"/>
	<text x="300.72" y="967.51" style="font-family:'Helvetica';font-size:99.99px;fill:#000000" transform="rotate(-90 300.72,967.51)" text-anchor="middle">200</text>
	<line x1="390.80" y1="238.23" x2="350.83" y2="238.23" style="stroke:#000000;stroke-width:5.76"/>
	<text x="300.72" y="238.23" style="font-family:'Helvetica';font-size:99.99px;fill:#000000" transform="rotate(-90 300.72,238.23)" text-anchor="middle">400</text>
	<text x="190.71" y="1294.96" style="font-family:'Helvetica';font-size:99.99px;fill:#000000" transform="rotate(-90 190.71,1294.96)" text-anchor="middle">Confirmed cases per 100 beds</text>
	<line x1="390.80" y1="2489.19" x2="3859.02" y2="2489.19" style="stroke:#000000;stroke-width:5.76"/>
	<line x1="454.16" y1="2489.19" x2="454.16" y2="2529.16" style="stroke:#000000;stroke-width:5.76"/>
	<text x="454.16" y="2619.14" style="font-family:'Helvetica';font-size:99.99px;fill:#000000" text-anchor="middle">0</text>
	<line x1="1096.80" y1="2489.19" x2="1096.80" y2="2529.16" style="stroke:#000000;stroke-width:5.76"/>
	<text x="1096.80" y="2619.14" style="font-family:'Helvetica';font-size:99.99px;fill:#000000" text-anchor="middle">5</text>
	<line x1="1739.31" y1="2489.19" x2="1739.31" y2="2529.16" style="stroke:#000000;stroke-width:5.76"/>
	<text x="1739.31" y="2619.14" style="font-family:'Helvetica';font-size:99.99px;fill:#000000" text-anchor="middle">10</text>
	<line x1="2381.94" y1="2489.19" x2="2381.94" y2="2529.16" style="stroke:#000000;stroke-width:5.76"/>
	<text x="2381.94" y="2619.14" style="font-family:'Helvetica';font-size:99.99px;fill:#000000" text-anchor="middle">15</text>
	<line x1="3024.57" y1="2489.19" x2="3024.57" y2="2529.16" style="stroke:#000000;stroke-width:5.76"/>
	<text x="3024.57" y="2619.14" style="font-family:'Helvetica';font-size:99.99px;fill:#000000" text-anchor="middle">20</text>
	<line x1="3667.21" y1="2489.19" x2="3667.21" y2="2529.16" style="stroke:#000000;stroke-width:5.76"/>
	<text x="3667.21" y="2619.14" style="font-family:'Helvetica';font-size:99.99px;fill:#000000" text-anchor="middle">25</text>
	<text x="2124.91" y="2729.16" style="font-family:'Helvetica';font-size:99.99px;fill:#000000" text-anchor="middle">Days since 0.01 confirmed cases per 100 beds</text>
</svg>
