<?xml version="1.0" encoding="UTF-8" standalone="no"?>
<!-- This is a Stata 14.2 generated SVG file (http://www.stata.com) -->

<svg version="1.1" width="5.50in" height="4.00in" viewBox="0 0 3960 2880" xmlns="http://www.w3.org/2000/svg">
	<desc>Stata Graph - Graph</desc>
	<line x1="390.80" y1="1061.19" x2="3859.02" y2="1061.19" style="stroke:#FF0000;stroke-width:8.64"/>
	<path d="M587.81 1510.42 L587.81 1510.42 L721.46 1509.92 L855.11 1509.05 L988.76 1508.06 L1122.41 1507.32 L1256.06 1506.58 L1389.84 1505.59 L1523.49 1503.73 L1657.14 1500.39 L1790.79 1495.81 L1924.44 1492.84 L2058.09 1494.82 L2191.74 1501.75 L2325.39 1514.25 L2459.04 1533.68 L2592.81 1561.65 L2726.46 1599.52 L2860.11 1648.90 L2993.76 1711.27 L3127.41 1788.12 L3261.06 1880.69 L3394.71 1989.96 L3528.36 2116.81 L3662.01 2261.97 L3795.66 2425.82 L3795.66 239.22 L3662.01 435.74 L3528.36 612.46 L3394.71 769.38 L3261.06 907.12 L3127.41 1026.41 L2993.76 1128.39 L2860.11 1214.15 L2726.46 1285.06 L2592.81 1342.48 L2459.04 1388.02 L2325.39 1423.42 L2191.74 1449.90 L2058.09 1469.08 L1924.44 1481.71 L1790.79 1487.65 L1657.14 1490.62 L1523.49 1493.71 L1389.84 1497.05 L1256.06 1500.14 L1122.41 1502.74 L988.76 1504.48 L855.11 1505.47 L721.46 1506.08 L587.81 1506.58 L587.81 1510.42 Z" stroke-linecap="round" style="fill:#EBEBFF;stroke:#E6E6FF;stroke-width:3.00"/>
	<path d="M587.81 1509.30 L587.81 1509.30 L721.46 1508.81 L855.11 1508.06 L988.76 1507.07 L1122.41 1505.96 L1256.06 1504.72 L1389.84 1503.11 L1523.49 1500.76 L1657.14 1497.67 L1790.79 1493.46 L1924.44 1489.63 L2058.09 1487.40 L2191.74 1486.78 L2325.39 1488.02 L2459.04 1491.73 L2592.81 1498.41 L2726.46 1508.68 L2860.11 1523.41 L2993.76 1543.09 L3127.41 1568.33 L3261.06 1599.64 L3394.71 1637.63 L3528.36 1682.56 L3662.01 1734.91 L3795.66 1794.80 L3795.66 870.24 L3662.01 962.81 L3528.36 1046.59 L3394.71 1121.58 L3261.06 1188.04 L3127.41 1246.33 L2993.76 1296.69 L2860.11 1339.64 L2726.46 1375.77 L2592.81 1405.72 L2459.04 1430.10 L2325.39 1449.65 L2191.74 1464.87 L2058.09 1476.51 L1924.44 1484.92 L1790.79 1490.00 L1657.14 1493.46 L1523.49 1496.68 L1389.84 1499.53 L1256.06 1502.00 L1122.41 1504.10 L988.76 1505.59 L855.11 1506.58 L721.46 1507.20 L587.81 1507.69 L587.81 1509.30 Z" stroke-linecap="round" style="fill:#D6D6FF;stroke:#CCCCFF;stroke-width:3.00"/>
	<path d="M587.81 1509.18 L587.81 1509.18 L721.46 1508.56 L855.11 1507.82 L988.76 1506.95 L1122.41 1505.84 L1256.06 1504.48 L1389.84 1502.74 L1523.49 1500.39 L1657.14 1497.17 L1790.79 1493.09 L1924.44 1489.01 L2058.09 1486.16 L2191.74 1484.30 L2325.39 1483.81 L2459.04 1484.92 L2592.81 1488.14 L2726.46 1494.08 L2860.11 1503.11 L2993.76 1515.86 L3127.41 1532.82 L3261.06 1554.22 L3394.71 1580.71 L3528.36 1612.39 L3662.01 1649.64 L3795.66 1692.71 L3795.66 972.33 L3662.01 1048.07 L3528.36 1116.88 L3394.71 1178.63 L3261.06 1233.58 L3127.41 1281.84 L2993.76 1323.92 L2860.11 1359.93 L2726.46 1390.50 L2592.81 1415.99 L2459.04 1436.91 L2325.39 1453.86 L2191.74 1467.23 L2058.09 1477.62 L1924.44 1485.42 L1790.79 1490.37 L1657.14 1493.96 L1523.49 1497.05 L1389.84 1499.90 L1256.06 1502.25 L1122.41 1504.23 L988.76 1505.71 L855.11 1506.70 L721.46 1507.32 L587.81 1507.94 L587.81 1509.18 Z" stroke-linecap="round" style="fill:#C2C2FF;stroke:#B3B3FF;stroke-width:3.00"/>
	<path d="M587.81 1509.05 L587.81 1509.05 L721.46 1508.56 L855.11 1507.69 L988.76 1506.83 L1122.41 1505.59 L1256.06 1504.23 L1389.84 1502.50 L1523.49 1500.02 L1657.14 1496.80 L1790.79 1492.84 L1924.44 1488.76 L2058.09 1485.42 L2191.74 1482.70 L2325.39 1480.96 L2459.04 1480.34 L2592.81 1481.21 L2726.46 1484.18 L2860.11 1489.50 L2993.76 1497.55 L3127.41 1508.81 L3261.06 1523.53 L3394.71 1542.22 L3528.36 1564.99 L3662.01 1592.09 L3795.66 1623.77 L3795.66 1041.27 L3662.01 1105.62 L3528.36 1164.28 L3394.71 1217.00 L3261.06 1264.15 L3127.41 1305.85 L2993.76 1342.23 L2860.11 1373.67 L2726.46 1400.40 L2592.81 1422.92 L2459.04 1441.49 L2325.39 1456.71 L2191.74 1468.96 L2058.09 1478.49 L1924.44 1485.79 L1790.79 1490.62 L1657.14 1494.20 L1523.49 1497.42 L1389.84 1500.14 L1256.06 1502.50 L1122.41 1504.35 L988.76 1505.84 L855.11 1506.83 L721.46 1507.45 L587.81 1508.06 L587.81 1509.05 Z" stroke-linecap="round" style="fill:#ADADFF;stroke:#9999FF;stroke-width:3.00"/>
	<path d="M587.81 1508.93 L587.81 1508.93 L721.46 1508.44 L855.11 1507.69 L988.76 1506.70 L1122.41 1505.59 L1256.06 1504.10 L1389.84 1502.25 L1523.49 1499.77 L1657.14 1496.56 L1790.79 1492.60 L1924.44 1488.39 L2058.09 1484.68 L2191.74 1481.46 L2325.39 1478.61 L2459.04 1476.63 L2592.81 1475.76 L2726.46 1476.26 L2860.11 1478.61 L2993.76 1482.94 L3127.41 1489.75 L3261.06 1499.15 L3394.71 1511.65 L3528.36 1527.37 L3662.01 1546.43 L3795.66 1569.08 L3795.66 1095.96 L3662.01 1151.41 L3528.36 1201.90 L3394.71 1247.56 L3261.06 1288.53 L3127.41 1324.91 L2993.76 1356.84 L2860.11 1384.56 L2726.46 1408.20 L2592.81 1428.37 L2459.04 1445.20 L2325.39 1458.93 L2191.74 1470.20 L2058.09 1479.11 L1924.44 1486.04 L1790.79 1490.86 L1657.14 1494.45 L1523.49 1497.67 L1389.84 1500.39 L1256.06 1502.62 L1122.41 1504.48 L988.76 1505.96 L855.11 1506.95 L721.46 1507.57 L587.81 1508.06 L587.81 1508.93 Z" stroke-linecap="round" style="fill:#9999FF;stroke:#8080FF;stroke-width:3.00"/>
	<path d="M587.81 1508.81 L587.81 1508.81 L721.46 1508.31 L855.11 1507.57 L988.76 1506.58 L1122.41 1505.47 L1256.06 1503.98 L1389.84 1502.00 L1523.49 1499.53 L1657.14 1496.43 L1790.79 1492.47 L1924.44 1488.14 L2058.09 1484.18 L2191.74 1480.34 L2325.39 1476.63 L2459.04 1473.54 L2592.81 1471.06 L2726.46 1469.58 L2860.11 1469.21 L2993.76 1470.44 L3127.41 1473.29 L3261.06 1478.24 L3394.71 1485.42 L3528.36 1494.95 L3662.01 1507.20 L3795.66 1522.05 L3795.66 1142.99 L3662.01 1190.64 L3528.36 1234.20 L3394.71 1273.80 L3261.06 1309.44 L3127.41 1341.24 L2993.76 1369.34 L2860.11 1393.84 L2726.46 1415.00 L2592.81 1433.07 L2459.04 1448.29 L2325.39 1460.91 L2191.74 1471.31 L2058.09 1479.72 L1924.44 1486.28 L1790.79 1490.99 L1657.14 1494.70 L1523.49 1497.92 L1389.84 1500.52 L1256.06 1502.87 L1122.41 1504.60 L988.76 1505.96 L855.11 1506.95 L721.46 1507.69 L587.81 1508.19 L587.81 1508.81 Z" stroke-linecap="round" style="fill:#8585FF;stroke:#6666FF;stroke-width:3.00"/>
	<path d="M587.81 1508.81 L587.81 1508.81 L721.46 1508.31 L855.11 1507.57 L988.76 1506.58 L1122.41 1505.34 L1256.06 1503.86 L1389.84 1501.88 L1523.49 1499.40 L1657.14 1496.18 L1790.79 1492.35 L1924.44 1488.02 L2058.09 1483.69 L2191.74 1479.35 L2325.39 1474.90 L2459.04 1470.69 L2592.81 1466.85 L2726.46 1463.51 L2860.11 1460.79 L2993.76 1459.18 L3127.41 1458.69 L3261.06 1459.55 L3394.71 1461.90 L3528.36 1465.99 L3662.01 1471.93 L3795.66 1479.85 L3795.66 1185.19 L3662.01 1225.78 L3528.36 1263.28 L3394.71 1297.31 L3261.06 1328.25 L3127.41 1355.97 L2993.76 1380.60 L2860.11 1402.26 L2726.46 1421.07 L2592.81 1437.28 L2459.04 1451.14 L2325.39 1462.65 L2191.74 1472.30 L2058.09 1480.22 L1924.44 1486.53 L1790.79 1491.23 L1657.14 1494.95 L1523.49 1498.04 L1389.84 1500.76 L1256.06 1502.99 L1122.41 1504.72 L988.76 1506.08 L855.11 1507.07 L721.46 1507.69 L587.81 1508.31 L587.81 1508.81 Z" stroke-linecap="round" style="fill:#7171FF;stroke:#4D4DFF;stroke-width:3.00"/>
	<path d="M587.81 1508.68 L587.81 1508.68 L721.46 1508.19 L855.11 1507.45 L988.76 1506.46 L1122.41 1505.22 L1256.06 1503.73 L1389.84 1501.75 L1523.49 1499.15 L1657.14 1496.06 L1790.79 1492.10 L1924.44 1487.77 L2058.09 1483.19 L2191.74 1478.36 L2325.39 1473.29 L2459.04 1468.09 L2592.81 1462.89 L2726.46 1457.82 L2860.11 1453.12 L2993.76 1448.79 L3127.41 1445.07 L3261.06 1442.10 L3394.71 1440.12 L3528.36 1439.13 L3662.01 1439.26 L3795.66 1440.74 L3795.66 1224.30 L3662.01 1258.45 L3528.36 1290.13 L3394.71 1319.22 L3261.06 1345.70 L3127.41 1369.58 L2993.76 1390.99 L2860.11 1410.05 L2726.46 1426.63 L2592.81 1441.24 L2459.04 1453.74 L2325.39 1464.26 L2191.74 1473.29 L2058.09 1480.59 L1924.44 1486.66 L1790.79 1491.36 L1657.14 1495.07 L1523.49 1498.29 L1389.84 1500.89 L1256.06 1503.11 L1122.41 1504.85 L988.76 1506.08 L855.11 1507.07 L721.46 1507.82 L587.81 1508.31 L587.81 1508.68 Z" stroke-linecap="round" style="fill:#5C5CFF;stroke:#3333FF;stroke-width:3.00"/>
	<path d="M587.81 1508.68 L587.81 1508.68 L721.46 1508.06 L855.11 1507.45 L988.76 1506.46 L1122.41 1505.22 L1256.06 1503.61 L1389.84 1501.63 L1523.49 1499.03 L1657.14 1495.81 L1790.79 1491.98 L1924.44 1487.65 L2058.09 1482.82 L2191.74 1477.50 L2325.39 1471.80 L2459.04 1465.62 L2592.81 1459.18 L2726.46 1452.50 L2860.11 1445.69 L2993.76 1438.89 L3127.41 1432.08 L3261.06 1425.52 L3394.71 1419.33 L3528.36 1413.64 L3662.01 1408.32 L3795.66 1403.74 L3795.66 1261.30 L3662.01 1289.39 L3528.36 1315.63 L3394.71 1339.88 L3261.06 1362.16 L3127.41 1382.45 L2993.76 1400.89 L2860.11 1417.35 L2726.46 1432.08 L2592.81 1444.95 L2459.04 1456.09 L2325.39 1465.86 L2191.74 1474.16 L2058.09 1481.09 L1924.44 1486.90 L1790.79 1491.48 L1657.14 1495.19 L1523.49 1498.41 L1389.84 1501.01 L1256.06 1503.11 L1122.41 1504.85 L988.76 1506.21 L855.11 1507.20 L721.46 1507.82 L587.81 1508.44 L587.81 1508.68 Z" stroke-linecap="round" style="fill:#4747FF;stroke:#1919FF;stroke-width:3.00"/>
	<path d="M587.81 1508.56 L587.81 1508.56 L721.46 1508.06 L855.11 1507.32 L988.76 1506.33 L1122.41 1505.09 L1256.06 1503.49 L1389.84 1501.38 L1523.49 1498.91 L1657.14 1495.69 L1790.79 1491.85 L1924.44 1487.40 L2058.09 1482.32 L2191.74 1476.63 L2325.39 1470.32 L2459.04 1463.27 L2592.81 1455.59 L2726.46 1447.30 L2860.11 1438.51 L2993.76 1429.23 L3127.41 1419.58 L3261.06 1409.56 L3394.71 1399.28 L3528.36 1388.89 L3662.01 1378.37 L3795.66 1367.85 L3795.66 1297.19 L3662.01 1319.34 L3528.36 1340.25 L3394.71 1359.93 L3261.06 1378.12 L3127.41 1394.95 L2993.76 1410.42 L2860.11 1424.53 L2726.46 1437.15 L2592.81 1448.54 L2459.04 1458.56 L2325.39 1467.35 L2191.74 1475.02 L2058.09 1481.46 L1924.44 1487.03 L1790.79 1491.61 L1657.14 1495.44 L1523.49 1498.54 L1389.84 1501.13 L1256.06 1503.24 L1122.41 1504.97 L988.76 1506.21 L855.11 1507.20 L721.46 1507.94 L587.81 1508.44 L587.81 1508.56 Z" stroke-linecap="round" style="fill:#3333FF;stroke:#0000FF;stroke-width:3.00"/>
	<circle cx="587.69" cy="1509.18" r="22.03" style="fill:#000000;stroke:#000000;stroke-width:8.64"/>
	<circle cx="721.46" cy="1508.44" r="22.03" style="fill:#000000;stroke:#000000;stroke-width:8.64"/>
	<circle cx="855.11" cy="1507.69" r="22.03" style="fill:#000000;stroke:#000000;stroke-width:8.64"/>
	<circle cx="988.76" cy="1507.45" r="22.03" style="fill:#000000;stroke:#000000;stroke-width:8.64"/>
	<circle cx="1122.41" cy="1505.47" r="22.03" style="fill:#000000;stroke:#000000;stroke-width:8.64"/>
	<circle cx="1256.06" cy="1502.25" r="22.03" style="fill:#000000;stroke:#000000;stroke-width:8.64"/>
	<circle cx="1389.71" cy="1498.16" r="22.03" style="fill:#000000;stroke:#000000;stroke-width:8.64"/>
	<circle cx="1523.36" cy="1498.41" r="22.03" style="fill:#000000;stroke:#000000;stroke-width:8.64"/>
	<circle cx="1657.01" cy="1498.41" r="22.03" style="fill:#000000;stroke:#000000;stroke-width:8.64"/>
	<circle cx="1790.66" cy="1492.97" r="22.03" style="fill:#000000;stroke:#000000;stroke-width:8.64"/>
	<circle cx="1924.31" cy="1485.91" r="22.03" style="fill:#000000;stroke:#000000;stroke-width:8.64"/>
	<line x1="390.80" y1="2489.19" x2="390.80" y2="100.86" style="stroke:#000000;stroke-width:5.76"/>
	<line x1="390.80" y1="2406.64" x2="350.83" y2="2406.64" style="stroke:#000000;stroke-width:5.76"/>
	<text x="300.72" y="2406.64" style="font-family:'Helvetica';font-size:99.99px;fill:#000000" transform="rotate(-90 300.72,2406.64)" text-anchor="middle">-20</text>
	<line x1="390.80" y1="1958.16" x2="350.83" y2="1958.16" style="stroke:#000000;stroke-width:5.76"/>
	<text x="300.72" y="1958.16" style="font-family:'Helvetica';font-size:99.99px;fill:#000000" transform="rotate(-90 300.72,1958.16)" text-anchor="middle">-10</text>
	<line x1="390.80" y1="1509.67" x2="350.83" y2="1509.67" style="stroke:#000000;stroke-width:5.76"/>
	<text x="300.72" y="1509.67" style="font-family:'Helvetica';font-size:99.99px;fill:#000000" transform="rotate(-90 300.72,1509.67)" text-anchor="middle">0</text>
	<line x1="390.80" y1="1061.19" x2="350.83" y2="1061.19" style="stroke:#000000;stroke-width:5.76"/>
	<text x="300.72" y="1061.19" style="font-family:'Helvetica';font-size:99.99px;fill:#000000" transform="rotate(-90 300.72,1061.19)" text-anchor="middle">10</text>
	<line x1="390.80" y1="612.71" x2="350.83" y2="612.71" style="stroke:#000000;stroke-width:5.76"/>
	<text x="300.72" y="612.71" style="font-family:'Helvetica';font-size:99.99px;fill:#000000" transform="rotate(-90 300.72,612.71)" text-anchor="middle">20</text>
	<line x1="390.80" y1="164.22" x2="350.83" y2="164.22" style="stroke:#000000;stroke-width:5.76"/>
	<text x="300.72" y="164.22" style="font-family:'Helvetica';font-size:99.99px;fill:#000000" transform="rotate(-90 300.72,164.22)" text-anchor="middle">30</text>
	<text x="190.71" y="1294.96" style="font-family:'Helvetica';font-size:99.99px;fill:#000000" transform="rotate(-90 190.71,1294.96)" text-anchor="middle">Confirmed cases per 100 beds</text>
	<line x1="390.80" y1="2489.19" x2="3859.02" y2="2489.19" style="stroke:#000000;stroke-width:5.76"/>
	<line x1="454.16" y1="2489.19" x2="454.16" y2="2529.16" style="stroke:#000000;stroke-width:5.76"/>
	<text x="454.16" y="2619.14" style="font-family:'Helvetica';font-size:99.99px;fill:#000000" text-anchor="middle">0</text>
	<line x1="1122.41" y1="2489.19" x2="1122.41" y2="2529.16" style="stroke:#000000;stroke-width:5.76"/>
	<text x="1122.41" y="2619.14" style="font-family:'Helvetica';font-size:99.99px;fill:#000000" text-anchor="middle">5</text>
	<line x1="1790.79" y1="2489.19" x2="1790.79" y2="2529.16" style="stroke:#000000;stroke-width:5.76"/>
	<text x="1790.79" y="2619.14" style="font-family:'Helvetica';font-size:99.99px;fill:#000000" text-anchor="middle">10</text>
	<line x1="2459.04" y1="2489.19" x2="2459.04" y2="2529.16" style="stroke:#000000;stroke-width:5.76"/>
	<text x="2459.04" y="2619.14" style="font-family:'Helvetica';font-size:99.99px;fill:#000000" text-anchor="middle">15</text>
	<line x1="3127.41" y1="2489.19" x2="3127.41" y2="2529.16" style="stroke:#000000;stroke-width:5.76"/>
	<text x="3127.41" y="2619.14" style="font-family:'Helvetica';font-size:99.99px;fill:#000000" text-anchor="middle">20</text>
	<line x1="3795.66" y1="2489.19" x2="3795.66" y2="2529.16" style="stroke:#000000;stroke-width:5.76"/>
	<text x="3795.66" y="2619.14" style="font-family:'Helvetica';font-size:99.99px;fill:#000000" text-anchor="middle">25</text>
	<text x="2124.91" y="2729.16" style="font-family:'Helvetica';font-size:99.99px;fill:#000000" text-anchor="middle">Days since 0.01 confirmed cases per 100 beds</text>
</svg>
