<?xml version="1.0" encoding="UTF-8" standalone="no"?>
<!-- This is a Stata 14.2 generated SVG file (http://www.stata.com) -->

<svg version="1.1" width="5.50in" height="4.00in" viewBox="0 0 3960 2880" xmlns="http://www.w3.org/2000/svg">
	<desc>Stata Graph - Graph</desc>
	<line x1="390.80" y1="1739.48" x2="3859.02" y2="1739.48" style="stroke:#FF0000;stroke-width:8.64"/>
	<path d="M565.54 1794.06 L565.54 1794.06 L676.91 1793.44 L788.29 1792.57 L899.66 1791.46 L1011.04 1790.10 L1122.41 1788.49 L1233.79 1786.88 L1345.29 1785.27 L1456.66 1783.54 L1568.04 1781.44 L1679.41 1778.71 L1790.79 1775.25 L1902.16 1770.79 L2013.54 1765.72 L2124.91 1761.14 L2236.29 1757.80 L2347.66 1756.69 L2459.04 1758.05 L2570.53 1762.87 L2681.91 1771.66 L2793.28 1785.89 L2904.66 1806.68 L3016.03 1835.52 L3127.41 1874.00 L3238.78 1924.00 L3350.16 1987.61 L3461.53 2067.18 L3572.91 2164.95 L3684.28 2283.51 L3795.66 2425.82 L3795.66 496.62 L3684.28 710.35 L3572.91 894.62 L3461.53 1052.28 L3350.16 1186.43 L3238.78 1299.66 L3127.41 1394.46 L3016.03 1473.41 L2904.66 1538.51 L2793.28 1591.72 L2681.91 1634.66 L2570.53 1669.19 L2459.04 1696.42 L2347.66 1717.70 L2236.29 1733.92 L2124.91 1745.67 L2013.54 1754.09 L1902.16 1760.28 L1790.79 1765.60 L1679.41 1770.18 L1568.04 1774.38 L1456.66 1778.22 L1345.29 1781.31 L1233.79 1783.91 L1122.41 1785.64 L1011.04 1786.76 L899.66 1787.75 L788.29 1788.37 L676.91 1788.99 L565.54 1789.60 L565.54 1794.06 Z" stroke-linecap="round" style="fill:#EBEBFF;stroke:#E6E6FF;stroke-width:3.00"/>
	<path d="M565.54 1792.82 L565.54 1792.82 L676.91 1792.20 L788.29 1791.34 L899.66 1790.35 L1011.04 1789.11 L1122.41 1787.62 L1233.79 1786.02 L1345.29 1784.16 L1456.66 1782.06 L1568.04 1779.46 L1679.41 1776.24 L1790.79 1772.40 L1902.16 1767.82 L2013.54 1762.38 L2124.91 1756.69 L2236.29 1750.99 L2347.66 1745.42 L2459.04 1740.35 L2570.53 1735.77 L2681.91 1732.18 L2793.28 1729.83 L2904.66 1729.21 L3016.03 1730.95 L3127.41 1735.65 L3238.78 1743.82 L3350.16 1756.44 L3461.53 1774.26 L3572.91 1798.27 L3684.28 1829.45 L3795.66 1869.05 L3795.66 1053.39 L3684.28 1164.40 L3572.91 1261.18 L3461.53 1345.20 L3350.16 1417.60 L3238.78 1479.85 L3127.41 1532.94 L3016.03 1577.86 L2904.66 1615.85 L2793.28 1647.78 L2681.91 1674.27 L2570.53 1696.17 L2459.04 1714.24 L2347.66 1728.97 L2236.29 1740.85 L2124.91 1750.13 L2013.54 1757.43 L1902.16 1763.37 L1790.79 1768.32 L1679.41 1772.65 L1568.04 1776.49 L1456.66 1779.70 L1345.29 1782.55 L1233.79 1784.78 L1122.41 1786.51 L1011.04 1787.75 L899.66 1788.74 L788.29 1789.60 L676.91 1790.35 L565.54 1790.84 L565.54 1792.82 Z" stroke-linecap="round" style="fill:#D6D6FF;stroke:#CCCCFF;stroke-width:3.00"/>
	<path d="M565.54 1792.57 L565.54 1792.57 L676.91 1791.96 L788.29 1791.21 L899.66 1790.22 L1011.04 1788.99 L1122.41 1787.50 L1233.79 1785.89 L1345.29 1784.04 L1456.66 1781.81 L1568.04 1779.09 L1679.41 1775.87 L1790.79 1771.91 L1902.16 1767.33 L2013.54 1761.88 L2124.91 1755.94 L2236.29 1749.76 L2347.66 1743.57 L2459.04 1737.38 L2570.53 1731.44 L2681.91 1725.75 L2793.28 1720.80 L2904.66 1716.71 L3016.03 1714.11 L3127.41 1713.25 L3238.78 1714.61 L3350.16 1718.94 L3461.53 1726.86 L3572.91 1738.99 L3684.28 1756.07 L3795.66 1778.96 L3795.66 1143.49 L3684.28 1237.91 L3572.91 1320.45 L3461.53 1392.60 L3350.16 1455.10 L3238.78 1508.93 L3127.41 1555.21 L3016.03 1594.82 L2904.66 1628.35 L2793.28 1656.82 L2681.91 1680.70 L2570.53 1700.63 L2459.04 1717.08 L2347.66 1730.82 L2236.29 1741.96 L2124.91 1750.87 L2013.54 1758.05 L1902.16 1763.86 L1790.79 1768.81 L1679.41 1773.02 L1568.04 1776.73 L1456.66 1779.95 L1345.29 1782.67 L1233.79 1784.90 L1122.41 1786.63 L1011.04 1787.87 L899.66 1788.99 L788.29 1789.85 L676.91 1790.47 L565.54 1791.09 L565.54 1792.57 Z" stroke-linecap="round" style="fill:#C2C2FF;stroke:#B3B3FF;stroke-width:3.00"/>
	<path d="M565.54 1792.45 L565.54 1792.45 L676.91 1791.83 L788.29 1791.09 L899.66 1790.10 L1011.04 1788.86 L1122.41 1787.50 L1233.79 1785.77 L1345.29 1783.91 L1456.66 1781.56 L1568.04 1778.84 L1679.41 1775.62 L1790.79 1771.66 L1902.16 1766.96 L2013.54 1761.51 L2124.91 1755.45 L2236.29 1749.01 L2347.66 1742.33 L2459.04 1735.52 L2570.53 1728.47 L2681.91 1721.42 L2793.28 1714.61 L2904.66 1708.30 L3016.03 1702.73 L3127.41 1698.15 L3238.78 1694.93 L3350.16 1693.70 L3461.53 1694.93 L3572.91 1698.89 L3684.28 1706.44 L3795.66 1718.20 L3795.66 1204.25 L3684.28 1287.41 L3572.91 1360.55 L3461.53 1424.53 L3350.16 1480.34 L3238.78 1528.61 L3127.41 1570.44 L3016.03 1606.20 L2904.66 1636.89 L2793.28 1662.88 L2681.91 1685.03 L2570.53 1703.60 L2459.04 1719.06 L2347.66 1732.06 L2236.29 1742.70 L2124.91 1751.36 L2013.54 1758.42 L1902.16 1764.11 L1790.79 1769.06 L1679.41 1773.39 L1568.04 1776.98 L1456.66 1780.20 L1345.29 1782.80 L1233.79 1785.03 L1122.41 1786.63 L1011.04 1788.00 L899.66 1789.11 L788.29 1789.98 L676.91 1790.59 L565.54 1791.21 L565.54 1792.45 Z" stroke-linecap="round" style="fill:#ADADFF;stroke:#9999FF;stroke-width:3.00"/>
	<path d="M565.54 1792.33 L565.54 1792.33 L676.91 1791.71 L788.29 1790.97 L899.66 1789.98 L1011.04 1788.86 L1122.41 1787.38 L1233.79 1785.64 L1345.29 1783.79 L1456.66 1781.44 L1568.04 1778.71 L1679.41 1775.37 L1790.79 1771.41 L1902.16 1766.71 L2013.54 1761.14 L2124.91 1755.08 L2236.29 1748.52 L2347.66 1741.46 L2459.04 1733.92 L2570.53 1726.12 L2681.91 1718.07 L2793.28 1709.78 L2904.66 1701.62 L3016.03 1693.57 L3127.41 1686.15 L3238.78 1679.34 L3350.16 1673.65 L3461.53 1669.44 L3572.91 1667.09 L3684.28 1667.09 L3795.66 1669.93 L3795.66 1252.51 L3684.28 1326.77 L3572.91 1392.35 L3461.53 1449.90 L3350.16 1500.39 L3238.78 1544.32 L3127.41 1582.44 L3016.03 1615.24 L2904.66 1643.58 L2793.28 1667.83 L2681.91 1688.37 L2570.53 1705.82 L2459.04 1720.67 L2347.66 1732.93 L2236.29 1743.32 L2124.91 1751.74 L2013.54 1758.67 L1902.16 1764.48 L1790.79 1769.31 L1679.41 1773.52 L1568.04 1777.23 L1456.66 1780.32 L1345.29 1782.92 L1233.79 1785.03 L1122.41 1786.76 L1011.04 1788.12 L899.66 1789.23 L788.29 1790.10 L676.91 1790.72 L565.54 1791.34 L565.54 1792.33 Z" stroke-linecap="round" style="fill:#9999FF;stroke:#8080FF;stroke-width:3.00"/>
	<path d="M565.54 1792.20 L565.54 1792.20 L676.91 1791.58 L788.29 1790.84 L899.66 1789.98 L1011.04 1788.74 L1122.41 1787.25 L1233.79 1785.64 L1345.29 1783.66 L1456.66 1781.31 L1568.04 1778.59 L1679.41 1775.25 L1790.79 1771.17 L1902.16 1766.46 L2013.54 1760.89 L2124.91 1754.71 L2236.29 1747.90 L2347.66 1740.60 L2459.04 1732.68 L2570.53 1724.14 L2681.91 1715.10 L2793.28 1705.58 L2904.66 1695.80 L3016.03 1685.78 L3127.41 1675.75 L3238.78 1665.97 L3350.16 1656.45 L3461.53 1647.66 L3572.91 1639.86 L3684.28 1633.30 L3795.66 1628.48 L3795.66 1293.97 L3684.28 1360.55 L3572.91 1419.58 L3461.53 1471.68 L3350.16 1517.59 L3238.78 1557.69 L3127.41 1592.71 L3016.03 1623.03 L2904.66 1649.39 L2793.28 1671.91 L2681.91 1691.34 L2570.53 1707.93 L2459.04 1721.91 L2347.66 1733.79 L2236.29 1743.82 L2124.91 1752.11 L2013.54 1758.91 L1902.16 1764.61 L1790.79 1769.56 L1679.41 1773.76 L1568.04 1777.35 L1456.66 1780.45 L1345.29 1783.05 L1233.79 1785.15 L1122.41 1786.76 L1011.04 1788.12 L899.66 1789.23 L788.29 1790.10 L676.91 1790.84 L565.54 1791.46 L565.54 1792.20 Z" stroke-linecap="round" style="fill:#8585FF;stroke:#6666FF;stroke-width:3.00"/>
	<path d="M565.54 1792.08 L565.54 1792.08 L676.91 1791.58 L788.29 1790.84 L899.66 1789.85 L1011.04 1788.61 L1122.41 1787.25 L1233.79 1785.52 L1345.29 1783.54 L1456.66 1781.19 L1568.04 1778.47 L1679.41 1775.00 L1790.79 1771.04 L1902.16 1766.22 L2013.54 1760.77 L2124.91 1754.46 L2236.29 1747.53 L2347.66 1739.86 L2459.04 1731.44 L2570.53 1722.28 L2681.91 1712.51 L2793.28 1701.86 L2904.66 1690.60 L3016.03 1678.84 L3127.41 1666.59 L3238.78 1653.85 L3350.16 1640.98 L3461.53 1628.11 L3572.91 1615.36 L3684.28 1602.98 L3795.66 1591.23 L3795.66 1331.22 L3684.28 1390.87 L3572.91 1444.08 L3461.53 1491.36 L3350.16 1533.06 L3238.78 1569.69 L3127.41 1601.87 L3016.03 1630.09 L2904.66 1654.47 L2793.28 1675.75 L2681.91 1693.94 L2570.53 1709.66 L2459.04 1723.15 L2347.66 1734.53 L2236.29 1744.31 L2124.91 1752.35 L2013.54 1759.16 L1902.16 1764.85 L1790.79 1769.68 L1679.41 1773.89 L1568.04 1777.48 L1456.66 1780.57 L1345.29 1783.05 L1233.79 1785.15 L1122.41 1786.88 L1011.04 1788.24 L899.66 1789.36 L788.29 1790.22 L676.91 1790.97 L565.54 1791.58 L565.54 1792.08 Z" stroke-linecap="round" style="fill:#7171FF;stroke:#4D4DFF;stroke-width:3.00"/>
	<path d="M565.54 1792.08 L565.54 1792.08 L676.91 1791.46 L788.29 1790.72 L899.66 1789.73 L1011.04 1788.61 L1122.41 1787.25 L1233.79 1785.52 L1345.29 1783.54 L1456.66 1781.19 L1568.04 1778.34 L1679.41 1774.88 L1790.79 1770.79 L1902.16 1766.09 L2013.54 1760.52 L2124.91 1754.21 L2236.29 1747.03 L2347.66 1739.11 L2459.04 1730.33 L2570.53 1720.67 L2681.91 1710.03 L2793.28 1698.40 L2904.66 1685.90 L3016.03 1672.41 L3127.41 1657.93 L3238.78 1642.71 L3350.16 1626.74 L3461.53 1609.91 L3572.91 1592.59 L3684.28 1574.89 L3795.66 1556.70 L3795.66 1365.62 L3684.28 1419.09 L3572.91 1466.85 L3461.53 1509.43 L3350.16 1547.29 L3238.78 1580.83 L3127.41 1610.53 L3016.03 1636.52 L2904.66 1659.29 L2793.28 1679.22 L2681.91 1696.42 L2570.53 1711.39 L2459.04 1724.26 L2347.66 1735.28 L2236.29 1744.68 L2124.91 1752.60 L2013.54 1759.41 L1902.16 1764.98 L1790.79 1769.93 L1679.41 1774.01 L1568.04 1777.60 L1456.66 1780.57 L1345.29 1783.17 L1233.79 1785.27 L1122.41 1786.88 L1011.04 1788.24 L899.66 1789.36 L788.29 1790.35 L676.91 1790.97 L565.54 1791.58 L565.54 1792.08 Z" stroke-linecap="round" style="fill:#5C5CFF;stroke:#3333FF;stroke-width:3.00"/>
	<path d="M565.54 1791.96 L565.54 1791.96 L676.91 1791.34 L788.29 1790.59 L899.66 1789.73 L1011.04 1788.61 L1122.41 1787.13 L1233.79 1785.52 L1345.29 1783.42 L1456.66 1781.07 L1568.04 1778.22 L1679.41 1774.75 L1790.79 1770.67 L1902.16 1765.84 L2013.54 1760.28 L2124.91 1753.96 L2236.29 1746.66 L2347.66 1738.49 L2459.04 1729.34 L2570.53 1719.06 L2681.91 1707.68 L2793.28 1695.06 L2904.66 1681.32 L3016.03 1666.22 L3127.41 1649.89 L3238.78 1632.19 L3350.16 1613.13 L3461.53 1592.71 L3572.91 1571.06 L3684.28 1548.16 L3795.66 1524.03 L3795.66 1398.42 L3684.28 1445.69 L3572.91 1488.39 L3461.53 1526.63 L3350.16 1560.91 L3238.78 1591.47 L3127.41 1618.58 L3016.03 1642.71 L2904.66 1663.87 L2793.28 1682.43 L2681.91 1698.77 L2570.53 1713.00 L2459.04 1725.25 L2347.66 1735.90 L2236.29 1745.05 L2124.91 1752.85 L2013.54 1759.53 L1902.16 1765.23 L1790.79 1770.05 L1679.41 1774.14 L1568.04 1777.72 L1456.66 1780.69 L1345.29 1783.17 L1233.79 1785.27 L1122.41 1787.01 L1011.04 1788.37 L899.66 1789.48 L788.29 1790.35 L676.91 1791.09 L565.54 1791.71 L565.54 1791.96 Z" stroke-linecap="round" style="fill:#4747FF;stroke:#1919FF;stroke-width:3.00"/>
	<path d="M565.54 1791.96 L565.54 1791.96 L676.91 1791.34 L788.29 1790.59 L899.66 1789.60 L1011.04 1788.49 L1122.41 1787.13 L1233.79 1785.40 L1345.29 1783.42 L1456.66 1780.94 L1568.04 1778.10 L1679.41 1774.63 L1790.79 1770.55 L1902.16 1765.72 L2013.54 1760.15 L2124.91 1753.59 L2236.29 1746.29 L2347.66 1737.88 L2459.04 1728.35 L2570.53 1717.58 L2681.91 1705.45 L2793.28 1691.96 L2904.66 1676.86 L3016.03 1660.28 L3127.41 1641.97 L3238.78 1621.92 L3350.16 1600.01 L3461.53 1576.13 L3572.91 1550.26 L3684.28 1522.30 L3795.66 1492.35 L3795.66 1430.10 L3684.28 1471.56 L3572.91 1509.18 L3461.53 1543.33 L3350.16 1574.03 L3238.78 1601.75 L3127.41 1626.50 L3016.03 1648.65 L2904.66 1668.20 L2793.28 1685.65 L2681.91 1701.00 L2570.53 1714.49 L2459.04 1726.24 L2347.66 1736.51 L2236.29 1745.42 L2124.91 1753.10 L2013.54 1759.78 L1902.16 1765.35 L1790.79 1770.18 L1679.41 1774.38 L1568.04 1777.85 L1456.66 1780.82 L1345.29 1783.29 L1233.79 1785.27 L1122.41 1787.01 L1011.04 1788.37 L899.66 1789.48 L788.29 1790.47 L676.91 1791.21 L565.54 1791.71 L565.54 1791.96 Z" stroke-linecap="round" style="fill:#3333FF;stroke:#0000FF;stroke-width:3.00"/>
	<circle cx="565.41" cy="1792.70" r="22.03" style="fill:#000000;stroke:#000000;stroke-width:8.64"/>
	<circle cx="676.79" cy="1792.08" r="22.03" style="fill:#000000;stroke:#000000;stroke-width:8.64"/>
	<circle cx="788.29" cy="1790.72" r="22.03" style="fill:#000000;stroke:#000000;stroke-width:8.64"/>
	<circle cx="899.66" cy="1790.35" r="22.03" style="fill:#000000;stroke:#000000;stroke-width:8.64"/>
	<circle cx="1011.04" cy="1789.36" r="22.03" style="fill:#000000;stroke:#000000;stroke-width:8.64"/>
	<circle cx="1122.41" cy="1788.00" r="22.03" style="fill:#000000;stroke:#000000;stroke-width:8.64"/>
	<circle cx="1233.79" cy="1786.39" r="22.03" style="fill:#000000;stroke:#000000;stroke-width:8.64"/>
	<circle cx="1345.16" cy="1782.18" r="22.03" style="fill:#000000;stroke:#000000;stroke-width:8.64"/>
	<circle cx="1456.54" cy="1779.83" r="22.03" style="fill:#000000;stroke:#000000;stroke-width:8.64"/>
	<circle cx="1567.91" cy="1776.24" r="22.03" style="fill:#000000;stroke:#000000;stroke-width:8.64"/>
	<circle cx="1679.29" cy="1772.53" r="22.03" style="fill:#000000;stroke:#000000;stroke-width:8.64"/>
	<circle cx="1790.66" cy="1768.44" r="22.03" style="fill:#000000;stroke:#000000;stroke-width:8.64"/>
	<circle cx="1902.04" cy="1765.60" r="22.03" style="fill:#000000;stroke:#000000;stroke-width:8.64"/>
	<circle cx="2013.54" cy="1765.60" r="22.03" style="fill:#000000;stroke:#000000;stroke-width:8.64"/>
	<circle cx="2124.91" cy="1755.82" r="22.03" style="fill:#000000;stroke:#000000;stroke-width:8.64"/>
	<circle cx="2236.29" cy="1742.33" r="22.03" style="fill:#000000;stroke:#000000;stroke-width:8.64"/>
	<line x1="390.80" y1="2489.19" x2="390.80" y2="100.86" style="stroke:#000000;stroke-width:5.76"/>
	<line x1="390.80" y1="2337.09" x2="350.83" y2="2337.09" style="stroke:#000000;stroke-width:5.76"/>
	<text x="300.72" y="2337.09" style="font-family:'Helvetica';font-size:99.99px;fill:#000000" transform="rotate(-90 300.72,2337.09)" text-anchor="middle">-100</text>
	<line x1="390.80" y1="1793.81" x2="350.83" y2="1793.81" style="stroke:#000000;stroke-width:5.76"/>
	<text x="300.72" y="1793.81" style="font-family:'Helvetica';font-size:99.99px;fill:#000000" transform="rotate(-90 300.72,1793.81)" text-anchor="middle">0</text>
	<line x1="390.80" y1="1250.66" x2="350.83" y2="1250.66" style="stroke:#000000;stroke-width:5.76"/>
	<text x="300.72" y="1250.66" style="font-family:'Helvetica';font-size:99.99px;fill:#000000" transform="rotate(-90 300.72,1250.66)" text-anchor="middle">100</text>
	<line x1="390.80" y1="707.38" x2="350.83" y2="707.38" style="stroke:#000000;stroke-width:5.76"/>
	<text x="300.72" y="707.38" style="font-family:'Helvetica';font-size:99.99px;fill:#000000" transform="rotate(-90 300.72,707.38)" text-anchor="middle">200</text>
	<line x1="390.80" y1="164.22" x2="350.83" y2="164.22" style="stroke:#000000;stroke-width:5.76"/>
	<text x="300.72" y="164.22" style="font-family:'Helvetica';font-size:99.99px;fill:#000000" transform="rotate(-90 300.72,164.22)" text-anchor="middle">300</text>
	<text x="190.71" y="1294.96" style="font-family:'Helvetica';font-size:99.99px;fill:#000000" transform="rotate(-90 190.71,1294.96)" text-anchor="middle">Confirmed cases per 100 beds</text>
	<line x1="390.80" y1="2489.19" x2="3859.02" y2="2489.19" style="stroke:#000000;stroke-width:5.76"/>
	<line x1="454.16" y1="2489.19" x2="454.16" y2="2529.16" style="stroke:#000000;stroke-width:5.76"/>
	<text x="454.16" y="2619.14" style="font-family:'Helvetica';font-size:99.99px;fill:#000000" text-anchor="middle">0</text>
	<line x1="1568.04" y1="2489.19" x2="1568.04" y2="2529.16" style="stroke:#000000;stroke-width:5.76"/>
	<text x="1568.04" y="2619.14" style="font-family:'Helvetica';font-size:99.99px;fill:#000000" text-anchor="middle">10</text>
	<line x1="2681.91" y1="2489.19" x2="2681.91" y2="2529.16" style="stroke:#000000;stroke-width:5.76"/>
	<text x="2681.91" y="2619.14" style="font-family:'Helvetica';font-size:99.99px;fill:#000000" text-anchor="middle">20</text>
	<line x1="3795.66" y1="2489.19" x2="3795.66" y2="2529.16" style="stroke:#000000;stroke-width:5.76"/>
	<text x="3795.66" y="2619.14" style="font-family:'Helvetica';font-size:99.99px;fill:#000000" text-anchor="middle">30</text>
	<text x="2124.91" y="2729.16" style="font-family:'Helvetica';font-size:99.99px;fill:#000000" text-anchor="middle">Days since 0.01 confirmed cases per 100 beds</text>
</svg>
