<?xml version="1.0" encoding="UTF-8" standalone="no"?>
<!-- This is a Stata 14.2 generated SVG file (http://www.stata.com) -->

<svg version="1.1" width="5.50in" height="4.00in" viewBox="0 0 3960 2880" xmlns="http://www.w3.org/2000/svg">
	<desc>Stata Graph - Graph</desc>
	<line x1="390.80" y1="1809.53" x2="3859.02" y2="1809.53" style="stroke:#FF0000;stroke-width:8.64"/>
	<path d="M587.81 1814.97 L587.81 1814.97 L721.46 1814.97 L855.11 1814.97 L988.76 1814.97 L1122.41 1814.97 L1256.06 1814.97 L1389.84 1814.97 L1523.49 1814.97 L1657.14 1814.73 L1790.79 1814.48 L1924.44 1814.23 L2058.09 1814.23 L2191.74 1814.60 L2325.39 1815.59 L2459.04 1818.07 L2592.81 1822.89 L2726.46 1831.93 L2860.11 1847.52 L2993.76 1873.51 L3127.41 1915.09 L3261.06 1979.69 L3394.71 2076.96 L3528.36 2220.14 L3662.01 2425.82 L3662.01 400.59 L3528.36 844.99 L3394.71 1161.18 L3261.06 1382.45 L3127.41 1534.42 L2993.76 1636.77 L2860.11 1704.34 L2726.46 1747.90 L2592.81 1775.37 L2459.04 1792.33 L2325.39 1802.48 L2191.74 1808.29 L2058.09 1811.63 L1924.44 1813.37 L1790.79 1814.23 L1657.14 1814.48 L1523.49 1814.73 L1389.84 1814.85 L1256.06 1814.85 L1122.41 1814.97 L988.76 1814.97 L855.11 1814.97 L721.46 1814.97 L587.81 1814.97 L587.81 1814.97 Z" stroke-linecap="round" style="fill:#EBEBFF;stroke:#E6E6FF;stroke-width:3.00"/>
	<path d="M587.81 1814.97 L587.81 1814.97 L721.46 1814.97 L855.11 1814.97 L988.76 1814.97 L1122.41 1814.97 L1256.06 1814.97 L1389.84 1814.97 L1523.49 1814.85 L1657.14 1814.73 L1790.79 1814.36 L1924.44 1813.98 L2058.09 1813.49 L2191.74 1812.75 L2325.39 1811.76 L2459.04 1810.64 L2592.81 1809.16 L2726.46 1807.67 L2860.11 1806.19 L2993.76 1805.20 L3127.41 1805.20 L3261.06 1807.30 L3394.71 1812.75 L3528.36 1823.27 L3662.01 1841.33 L3662.01 985.08 L3528.36 1241.87 L3394.71 1425.52 L3261.06 1554.84 L3127.41 1644.32 L2993.76 1705.08 L2860.11 1745.67 L2726.46 1772.16 L2592.81 1789.11 L2459.04 1799.75 L2325.39 1806.19 L2191.74 1810.15 L2058.09 1812.38 L1924.44 1813.61 L1790.79 1814.23 L1657.14 1814.60 L1523.49 1814.73 L1389.84 1814.85 L1256.06 1814.97 L1122.41 1814.97 L988.76 1814.97 L855.11 1814.97 L721.46 1814.97 L587.81 1814.97 L587.81 1814.97 Z" stroke-linecap="round" style="fill:#D6D6FF;stroke:#CCCCFF;stroke-width:3.00"/>
	<path d="M587.81 1814.97 L587.81 1814.97 L721.46 1814.97 L855.11 1814.97 L988.76 1814.97 L1122.41 1814.97 L1256.06 1814.97 L1389.84 1814.97 L1523.49 1814.85 L1657.14 1814.73 L1790.79 1814.36 L1924.44 1813.98 L2058.09 1813.37 L2191.74 1812.50 L2325.39 1811.14 L2459.04 1809.41 L2592.81 1806.93 L2726.46 1803.71 L2860.11 1799.50 L2993.76 1794.18 L3127.41 1787.50 L3261.06 1779.46 L3394.71 1769.93 L3528.36 1759.04 L3662.01 1746.79 L3662.01 1079.63 L3528.36 1305.97 L3394.71 1468.22 L3261.06 1582.69 L3127.41 1662.01 L2993.76 1716.09 L2860.11 1752.35 L2726.46 1776.12 L2592.81 1791.34 L2459.04 1800.99 L2325.39 1806.81 L2191.74 1810.40 L2058.09 1812.50 L1924.44 1813.61 L1790.79 1814.23 L1657.14 1814.60 L1523.49 1814.73 L1389.84 1814.85 L1256.06 1814.97 L1122.41 1814.97 L988.76 1814.97 L855.11 1814.97 L721.46 1814.97 L587.81 1814.97 L587.81 1814.97 Z" stroke-linecap="round" style="fill:#C2C2FF;stroke:#B3B3FF;stroke-width:3.00"/>
	<path d="M587.81 1814.97 L587.81 1814.97 L721.46 1814.97 L855.11 1814.97 L988.76 1814.97 L1122.41 1814.97 L1256.06 1814.97 L1389.84 1814.97 L1523.49 1814.85 L1657.14 1814.60 L1790.79 1814.36 L1924.44 1813.98 L2058.09 1813.24 L2191.74 1812.25 L2325.39 1810.77 L2459.04 1808.54 L2592.81 1805.45 L2726.46 1801.11 L2860.11 1795.05 L2993.76 1786.63 L3127.41 1775.50 L3261.06 1760.65 L3394.71 1741.09 L3528.36 1715.72 L3662.01 1682.93 L3662.01 1143.49 L3528.36 1349.29 L3394.71 1497.17 L3261.06 1601.50 L3127.41 1674.02 L2993.76 1723.64 L2860.11 1756.81 L2726.46 1778.71 L2592.81 1792.82 L2459.04 1801.73 L2325.39 1807.30 L2191.74 1810.64 L2058.09 1812.50 L1924.44 1813.74 L1790.79 1814.36 L1657.14 1814.60 L1523.49 1814.73 L1389.84 1814.85 L1256.06 1814.97 L1122.41 1814.97 L988.76 1814.97 L855.11 1814.97 L721.46 1814.97 L587.81 1814.97 L587.81 1814.97 Z" stroke-linecap="round" style="fill:#ADADFF;stroke:#9999FF;stroke-width:3.00"/>
	<path d="M587.81 1814.97 L587.81 1814.97 L721.46 1814.97 L855.11 1814.97 L988.76 1814.97 L1122.41 1814.97 L1256.06 1814.97 L1389.84 1814.97 L1523.49 1814.85 L1657.14 1814.60 L1790.79 1814.36 L1924.44 1813.86 L2058.09 1813.24 L2191.74 1812.13 L2325.39 1810.40 L2459.04 1807.92 L2592.81 1804.33 L2726.46 1799.01 L2860.11 1791.46 L2993.76 1780.69 L3127.41 1765.97 L3261.06 1745.67 L3394.71 1718.20 L3528.36 1681.20 L3662.01 1632.31 L3662.01 1194.10 L3528.36 1383.82 L3394.71 1520.07 L3261.06 1616.47 L3127.41 1683.55 L2993.76 1729.58 L2860.11 1760.40 L2726.46 1780.82 L2592.81 1794.06 L2459.04 1802.35 L2325.39 1807.55 L2191.74 1810.77 L2058.09 1812.62 L1924.44 1813.74 L1790.79 1814.36 L1657.14 1814.60 L1523.49 1814.73 L1389.84 1814.85 L1256.06 1814.97 L1122.41 1814.97 L988.76 1814.97 L855.11 1814.97 L721.46 1814.97 L587.81 1814.97 L587.81 1814.97 Z" stroke-linecap="round" style="fill:#9999FF;stroke:#8080FF;stroke-width:3.00"/>
	<path d="M587.81 1814.97 L587.81 1814.97 L721.46 1814.97 L855.11 1814.97 L988.76 1814.97 L1122.41 1814.97 L1256.06 1814.97 L1389.84 1814.97 L1523.49 1814.85 L1657.14 1814.60 L1790.79 1814.36 L1924.44 1813.86 L2058.09 1813.12 L2191.74 1812.00 L2325.39 1810.15 L2459.04 1807.43 L2592.81 1803.22 L2726.46 1797.15 L2860.11 1788.37 L2993.76 1775.62 L3127.41 1757.80 L3261.06 1732.80 L3394.71 1698.52 L3528.36 1651.74 L3662.01 1588.75 L3662.01 1237.66 L3528.36 1413.27 L3394.71 1539.75 L3261.06 1629.34 L3127.41 1691.72 L2993.76 1734.66 L2860.11 1763.49 L2726.46 1782.67 L2592.81 1795.05 L2459.04 1802.97 L2325.39 1807.92 L2191.74 1810.89 L2058.09 1812.62 L1924.44 1813.74 L1790.79 1814.36 L1657.14 1814.60 L1523.49 1814.73 L1389.84 1814.85 L1256.06 1814.97 L1122.41 1814.97 L988.76 1814.97 L855.11 1814.97 L721.46 1814.97 L587.81 1814.97 L587.81 1814.97 Z" stroke-linecap="round" style="fill:#8585FF;stroke:#6666FF;stroke-width:3.00"/>
	<path d="M587.81 1814.97 L587.81 1814.97 L721.46 1814.97 L855.11 1814.97 L988.76 1814.97 L1122.41 1814.97 L1256.06 1814.97 L1389.84 1814.85 L1523.49 1814.85 L1657.14 1814.60 L1790.79 1814.36 L1924.44 1813.86 L2058.09 1813.12 L2191.74 1811.88 L2325.39 1809.90 L2459.04 1806.93 L2592.81 1802.35 L2726.46 1795.54 L2860.11 1785.52 L2993.76 1771.04 L3127.41 1750.37 L3261.06 1721.29 L3394.71 1680.83 L3528.36 1625.14 L3662.01 1549.65 L3662.01 1276.64 L3528.36 1439.88 L3394.71 1557.44 L3261.06 1640.85 L3127.41 1699.14 L2993.76 1739.24 L2860.11 1766.22 L2726.46 1784.28 L2592.81 1795.92 L2459.04 1803.47 L2325.39 1808.17 L2191.74 1811.01 L2058.09 1812.75 L1924.44 1813.74 L1790.79 1814.36 L1657.14 1814.60 L1523.49 1814.73 L1389.84 1814.85 L1256.06 1814.97 L1122.41 1814.97 L988.76 1814.97 L855.11 1814.97 L721.46 1814.97 L587.81 1814.97 L587.81 1814.97 Z" stroke-linecap="round" style="fill:#7171FF;stroke:#4D4DFF;stroke-width:3.00"/>
	<path d="M587.81 1814.97 L587.81 1814.97 L721.46 1814.97 L855.11 1814.97 L988.76 1814.97 L1122.41 1814.97 L1256.06 1814.97 L1389.84 1814.85 L1523.49 1814.85 L1657.14 1814.60 L1790.79 1814.36 L1924.44 1813.86 L2058.09 1812.99 L2191.74 1811.76 L2325.39 1809.65 L2459.04 1806.44 L2592.81 1801.49 L2726.46 1794.06 L2860.11 1783.05 L2993.76 1766.83 L3127.41 1743.57 L3261.06 1710.65 L3394.71 1664.49 L3528.36 1600.63 L3662.01 1513.51 L3662.01 1312.90 L3528.36 1464.38 L3394.71 1573.78 L3261.06 1651.50 L3127.41 1705.95 L2993.76 1743.44 L2860.11 1768.81 L2726.46 1785.77 L2592.81 1796.78 L2459.04 1803.96 L2325.39 1808.42 L2191.74 1811.14 L2058.09 1812.75 L1924.44 1813.74 L1790.79 1814.36 L1657.14 1814.60 L1523.49 1814.85 L1389.84 1814.85 L1256.06 1814.97 L1122.41 1814.97 L988.76 1814.97 L855.11 1814.97 L721.46 1814.97 L587.81 1814.97 L587.81 1814.97 Z" stroke-linecap="round" style="fill:#5C5CFF;stroke:#3333FF;stroke-width:3.00"/>
	<path d="M587.81 1814.97 L587.81 1814.97 L721.46 1814.97 L855.11 1814.97 L988.76 1814.97 L1122.41 1814.97 L1256.06 1814.97 L1389.84 1814.85 L1523.49 1814.85 L1657.14 1814.60 L1790.79 1814.36 L1924.44 1813.86 L2058.09 1812.99 L2191.74 1811.63 L2325.39 1809.41 L2459.04 1806.06 L2592.81 1800.74 L2726.46 1792.57 L2860.11 1780.57 L2993.76 1762.87 L3127.41 1737.13 L3261.06 1700.50 L3394.71 1648.90 L3528.36 1577.24 L3662.01 1479.11 L3662.01 1347.31 L3528.36 1487.77 L3394.71 1589.25 L3261.06 1661.64 L3127.41 1712.38 L2993.76 1747.40 L2860.11 1771.29 L2726.46 1787.13 L2592.81 1797.65 L2459.04 1804.33 L2325.39 1808.54 L2191.74 1811.26 L2058.09 1812.87 L1924.44 1813.74 L1790.79 1814.36 L1657.14 1814.60 L1523.49 1814.85 L1389.84 1814.85 L1256.06 1814.97 L1122.41 1814.97 L988.76 1814.97 L855.11 1814.97 L721.46 1814.97 L587.81 1814.97 L587.81 1814.97 Z" stroke-linecap="round" style="fill:#4747FF;stroke:#1919FF;stroke-width:3.00"/>
	<path d="M587.81 1814.97 L587.81 1814.97 L721.46 1814.97 L855.11 1814.97 L988.76 1814.97 L1122.41 1814.97 L1256.06 1814.97 L1389.84 1814.85 L1523.49 1814.85 L1657.14 1814.60 L1790.79 1814.36 L1924.44 1813.86 L2058.09 1812.99 L2191.74 1811.51 L2325.39 1809.28 L2459.04 1805.57 L2592.81 1799.88 L2726.46 1791.21 L2860.11 1778.22 L2993.76 1758.91 L3127.41 1730.95 L3261.06 1690.73 L3394.71 1633.92 L3528.36 1554.72 L3662.01 1445.94 L3662.01 1380.47 L3528.36 1510.29 L3394.71 1604.35 L3261.06 1671.42 L3127.41 1718.57 L2993.76 1751.36 L2860.11 1773.64 L2726.46 1788.49 L2592.81 1798.39 L2459.04 1804.70 L2325.39 1808.79 L2191.74 1811.39 L2058.09 1812.87 L1924.44 1813.74 L1790.79 1814.36 L1657.14 1814.60 L1523.49 1814.85 L1389.84 1814.85 L1256.06 1814.97 L1122.41 1814.97 L988.76 1814.97 L855.11 1814.97 L721.46 1814.97 L587.81 1814.97 L587.81 1814.97 Z" stroke-linecap="round" style="fill:#3333FF;stroke:#0000FF;stroke-width:3.00"/>
	<circle cx="587.69" cy="1815.10" r="22.03" style="fill:#000000;stroke:#000000;stroke-width:8.64"/>
	<circle cx="721.46" cy="1815.10" r="22.03" style="fill:#000000;stroke:#000000;stroke-width:8.64"/>
	<circle cx="855.11" cy="1814.97" r="22.03" style="fill:#000000;stroke:#000000;stroke-width:8.64"/>
	<circle cx="988.76" cy="1814.97" r="22.03" style="fill:#000000;stroke:#000000;stroke-width:8.64"/>
	<circle cx="1122.41" cy="1814.97" r="22.03" style="fill:#000000;stroke:#000000;stroke-width:8.64"/>
	<circle cx="1256.06" cy="1814.97" r="22.03" style="fill:#000000;stroke:#000000;stroke-width:8.64"/>
	<circle cx="1389.71" cy="1814.85" r="22.03" style="fill:#000000;stroke:#000000;stroke-width:8.64"/>
	<circle cx="1523.36" cy="1814.85" r="22.03" style="fill:#000000;stroke:#000000;stroke-width:8.64"/>
	<circle cx="1657.01" cy="1814.73" r="22.03" style="fill:#000000;stroke:#000000;stroke-width:8.64"/>
	<circle cx="1790.66" cy="1814.36" r="22.03" style="fill:#000000;stroke:#000000;stroke-width:8.64"/>
	<line x1="390.80" y1="2489.19" x2="390.80" y2="100.86" style="stroke:#000000;stroke-width:5.76"/>
	<line x1="390.80" y1="2365.31" x2="350.83" y2="2365.31" style="stroke:#000000;stroke-width:5.76"/>
	<text x="300.72" y="2365.31" style="font-family:'Helvetica';font-size:99.99px;fill:#000000" transform="rotate(-90 300.72,2365.31)" text-anchor="middle">-1000</text>
	<line x1="390.80" y1="1814.97" x2="350.83" y2="1814.97" style="stroke:#000000;stroke-width:5.76"/>
	<text x="300.72" y="1814.97" style="font-family:'Helvetica';font-size:99.99px;fill:#000000" transform="rotate(-90 300.72,1814.97)" text-anchor="middle">0</text>
	<line x1="390.80" y1="1264.76" x2="350.83" y2="1264.76" style="stroke:#000000;stroke-width:5.76"/>
	<text x="300.72" y="1264.76" style="font-family:'Helvetica';font-size:99.99px;fill:#000000" transform="rotate(-90 300.72,1264.76)" text-anchor="middle">1000</text>
	<line x1="390.80" y1="714.43" x2="350.83" y2="714.43" style="stroke:#000000;stroke-width:5.76"/>
	<text x="300.72" y="714.43" style="font-family:'Helvetica';font-size:99.99px;fill:#000000" transform="rotate(-90 300.72,714.43)" text-anchor="middle">2000</text>
	<line x1="390.80" y1="164.22" x2="350.83" y2="164.22" style="stroke:#000000;stroke-width:5.76"/>
	<text x="300.72" y="164.22" style="font-family:'Helvetica';font-size:99.99px;fill:#000000" transform="rotate(-90 300.72,164.22)" text-anchor="middle">3000</text>
	<text x="190.71" y="1294.96" style="font-family:'Helvetica';font-size:99.99px;fill:#000000" transform="rotate(-90 190.71,1294.96)" text-anchor="middle">Confirmed cases per 100 beds</text>
	<line x1="390.80" y1="2489.19" x2="3859.02" y2="2489.19" style="stroke:#000000;stroke-width:5.76"/>
	<line x1="454.16" y1="2489.19" x2="454.16" y2="2529.16" style="stroke:#000000;stroke-width:5.76"/>
	<text x="454.16" y="2619.14" style="font-family:'Helvetica';font-size:99.99px;fill:#000000" text-anchor="middle">0</text>
	<line x1="3795.66" y1="2489.19" x2="3795.66" y2="2529.16" style="stroke:#000000;stroke-width:5.76"/>
	<text x="3795.66" y="2619.14" style="font-family:'Helvetica';font-size:99.99px;fill:#000000" text-anchor="middle">25</text>
	<line x1="587.81" y1="2489.19" x2="587.81" y2="2529.16" style="stroke:#000000;stroke-width:5.76"/>
	<text x="587.81" y="2619.14" style="font-family:'Helvetica';font-size:99.99px;fill:#000000" text-anchor="middle">1</text>
	<line x1="721.46" y1="2489.19" x2="721.46" y2="2529.16" style="stroke:#000000;stroke-width:5.76"/>
	<text x="721.46" y="2619.14" style="font-family:'Helvetica';font-size:99.99px;fill:#000000" text-anchor="middle">2</text>
	<line x1="855.11" y1="2489.19" x2="855.11" y2="2529.16" style="stroke:#000000;stroke-width:5.76"/>
	<text x="855.11" y="2619.14" style="font-family:'Helvetica';font-size:99.99px;fill:#000000" text-anchor="middle">3</text>
	<line x1="988.76" y1="2489.19" x2="988.76" y2="2529.16" style="stroke:#000000;stroke-width:5.76"/>
	<text x="988.76" y="2619.14" style="font-family:'Helvetica';font-size:99.99px;fill:#000000" text-anchor="middle">4</text>
	<line x1="1122.41" y1="2489.19" x2="1122.41" y2="2529.16" style="stroke:#000000;stroke-width:5.76"/>
	<text x="1122.41" y="2619.14" style="font-family:'Helvetica';font-size:99.99px;fill:#000000" text-anchor="middle">5</text>
	<line x1="1256.06" y1="2489.19" x2="1256.06" y2="2529.16" style="stroke:#000000;stroke-width:5.76"/>
	<text x="1256.06" y="2619.14" style="font-family:'Helvetica';font-size:99.99px;fill:#000000" text-anchor="middle">6</text>
	<line x1="1389.84" y1="2489.19" x2="1389.84" y2="2529.16" style="stroke:#000000;stroke-width:5.76"/>
	<text x="1389.84" y="2619.14" style="font-family:'Helvetica';font-size:99.99px;fill:#000000" text-anchor="middle">7</text>
	<line x1="1523.49" y1="2489.19" x2="1523.49" y2="2529.16" style="stroke:#000000;stroke-width:5.76"/>
	<text x="1523.49" y="2619.14" style="font-family:'Helvetica';font-size:99.99px;fill:#000000" text-anchor="middle">8</text>
	<line x1="1657.14" y1="2489.19" x2="1657.14" y2="2529.16" style="stroke:#000000;stroke-width:5.76"/>
	<text x="1657.14" y="2619.14" style="font-family:'Helvetica';font-size:99.99px;fill:#000000" text-anchor="middle">9</text>
	<line x1="1790.79" y1="2489.19" x2="1790.79" y2="2529.16" style="stroke:#000000;stroke-width:5.76"/>
	<text x="1790.79" y="2619.14" style="font-family:'Helvetica';font-size:99.99px;fill:#000000" text-anchor="middle">10</text>
	<line x1="1924.44" y1="2489.19" x2="1924.44" y2="2529.16" style="stroke:#000000;stroke-width:5.76"/>
	<text x="1924.44" y="2619.14" style="font-family:'Helvetica';font-size:99.99px;fill:#000000" text-anchor="middle">11</text>
	<line x1="2058.09" y1="2489.19" x2="2058.09" y2="2529.16" style="stroke:#000000;stroke-width:5.76"/>
	<text x="2058.09" y="2619.14" style="font-family:'Helvetica';font-size:99.99px;fill:#000000" text-anchor="middle">12</text>
	<line x1="2191.74" y1="2489.19" x2="2191.74" y2="2529.16" style="stroke:#000000;stroke-width:5.76"/>
	<text x="2191.74" y="2619.14" style="font-family:'Helvetica';font-size:99.99px;fill:#000000" text-anchor="middle">13</text>
	<line x1="2325.39" y1="2489.19" x2="2325.39" y2="2529.16" style="stroke:#000000;stroke-width:5.76"/>
	<text x="2325.39" y="2619.14" style="font-family:'Helvetica';font-size:99.99px;fill:#000000" text-anchor="middle">14</text>
	<line x1="2459.04" y1="2489.19" x2="2459.04" y2="2529.16" style="stroke:#000000;stroke-width:5.76"/>
	<text x="2459.04" y="2619.14" style="font-family:'Helvetica';font-size:99.99px;fill:#000000" text-anchor="middle">15</text>
	<line x1="2592.81" y1="2489.19" x2="2592.81" y2="2529.16" style="stroke:#000000;stroke-width:5.76"/>
	<text x="2592.81" y="2619.14" style="font-family:'Helvetica';font-size:99.99px;fill:#000000" text-anchor="middle">16</text>
	<line x1="2726.46" y1="2489.19" x2="2726.46" y2="2529.16" style="stroke:#000000;stroke-width:5.76"/>
	<text x="2726.46" y="2619.14" style="font-family:'Helvetica';font-size:99.99px;fill:#000000" text-anchor="middle">17</text>
	<line x1="2860.11" y1="2489.19" x2="2860.11" y2="2529.16" style="stroke:#000000;stroke-width:5.76"/>
	<text x="2860.11" y="2619.14" style="font-family:'Helvetica';font-size:99.99px;fill:#000000" text-anchor="middle">18</text>
	<line x1="2993.76" y1="2489.19" x2="2993.76" y2="2529.16" style="stroke:#000000;stroke-width:5.76"/>
	<text x="2993.76" y="2619.14" style="font-family:'Helvetica';font-size:99.99px;fill:#000000" text-anchor="middle">19</text>
	<line x1="3127.41" y1="2489.19" x2="3127.41" y2="2529.16" style="stroke:#000000;stroke-width:5.76"/>
	<text x="3127.41" y="2619.14" style="font-family:'Helvetica';font-size:99.99px;fill:#000000" text-anchor="middle">20</text>
	<line x1="3261.06" y1="2489.19" x2="3261.06" y2="2529.16" style="stroke:#000000;stroke-width:5.76"/>
	<text x="3261.06" y="2619.14" style="font-family:'Helvetica';font-size:99.99px;fill:#000000" text-anchor="middle">21</text>
	<line x1="3394.71" y1="2489.19" x2="3394.71" y2="2529.16" style="stroke:#000000;stroke-width:5.76"/>
	<text x="3394.71" y="2619.14" style="font-family:'Helvetica';font-size:99.99px;fill:#000000" text-anchor="middle">22</text>
	<line x1="3528.36" y1="2489.19" x2="3528.36" y2="2529.16" style="stroke:#000000;stroke-width:5.76"/>
	<text x="3528.36" y="2619.14" style="font-family:'Helvetica';font-size:99.99px;fill:#000000" text-anchor="middle">23</text>
	<line x1="3662.01" y1="2489.19" x2="3662.01" y2="2529.16" style="stroke:#000000;stroke-width:5.76"/>
	<text x="3662.01" y="2619.14" style="font-family:'Helvetica';font-size:99.99px;fill:#000000" text-anchor="middle">24</text>
	<text x="2124.91" y="2729.16" style="font-family:'Helvetica';font-size:99.99px;fill:#000000" text-anchor="middle">Days since 0.01 confirmed cases per 100 beds</text>
</svg>
