<?xml version="1.0" encoding="UTF-8" standalone="no"?>
<!-- This is a Stata 14.2 generated SVG file (http://www.stata.com) -->

<svg version="1.1" width="5.50in" height="4.00in" viewBox="0 0 3960 2880" xmlns="http://www.w3.org/2000/svg">
	<desc>Stata Graph - Graph</desc>
	<line x1="390.80" y1="1489.38" x2="3859.02" y2="1489.38" style="stroke:#FF0000;stroke-width:8.64"/>
	<path d="M495.87 2397.24 L495.87 2397.24 L537.69 2391.91 L579.40 2386.35 L621.23 2380.53 L662.93 2374.34 L704.76 2368.03 L746.58 2361.35 L788.29 2354.42 L830.12 2347.24 L871.82 2339.81 L913.65 2332.02 L955.35 2324.10 L997.18 2315.93 L1038.88 2307.64 L1080.71 2299.10 L1122.41 2290.31 L1164.24 2281.40 L1205.94 2272.24 L1247.77 2263.09 L1289.47 2253.81 L1331.30 2244.28 L1373.13 2234.62 L1414.83 2224.97 L1456.66 2214.95 L1498.37 2204.80 L1540.19 2194.28 L1581.90 2183.51 L1623.72 2172.25 L1665.43 2160.62 L1707.26 2148.49 L1748.96 2135.74 L1790.79 2122.38 L1832.49 2108.27 L1874.32 2093.42 L1916.02 2077.83 L1957.85 2061.37 L1999.68 2044.04 L2041.38 2025.85 L2083.21 2006.92 L2124.91 1987.12 L2166.74 1966.94 L2208.44 1946.52 L2250.27 1925.98 L2291.97 1906.06 L2333.80 1887.00 L2375.51 1869.05 L2417.33 1852.60 L2459.04 1837.50 L2500.86 1824.01 L2542.57 1811.88 L2584.40 1801.24 L2626.22 1792.20 L2667.93 1784.78 L2709.75 1779.09 L2751.46 1775.13 L2793.28 1773.15 L2834.99 1773.27 L2876.82 1775.62 L2918.52 1780.45 L2960.35 1787.87 L3002.05 1798.14 L3043.88 1811.39 L3085.58 1827.97 L3127.41 1848.14 L3169.11 1872.02 L3210.94 1900.12 L3252.77 1932.42 L3252.77 174.49 L3210.94 306.41 L3169.11 430.66 L3127.41 547.61 L3085.58 657.63 L3043.88 761.09 L3002.05 858.36 L2960.35 949.81 L2918.52 1035.57 L2876.82 1116.14 L2834.99 1191.63 L2793.28 1262.29 L2751.46 1328.50 L2709.75 1390.37 L2667.93 1448.29 L2626.22 1502.12 L2584.40 1552.24 L2542.57 1598.90 L2500.86 1641.84 L2459.04 1681.44 L2417.33 1717.70 L2375.51 1750.75 L2333.80 1780.57 L2291.97 1807.55 L2250.27 1831.93 L2208.44 1854.33 L2166.74 1874.99 L2124.91 1894.55 L2083.21 1913.11 L2041.38 1931.06 L1999.68 1948.50 L1957.85 1965.34 L1916.02 1981.92 L1874.32 1998.01 L1832.49 2013.85 L1790.79 2029.19 L1748.96 2044.17 L1707.26 2058.65 L1665.43 2072.75 L1623.72 2086.37 L1581.90 2099.48 L1540.19 2112.11 L1498.37 2124.11 L1456.66 2135.62 L1414.83 2146.39 L1373.13 2156.66 L1331.30 2166.31 L1289.47 2175.35 L1247.77 2183.76 L1205.94 2191.68 L1164.24 2198.98 L1122.41 2205.79 L1080.71 2212.22 L1038.88 2218.16 L997.18 2223.73 L955.35 2229.05 L913.65 2234.00 L871.82 2238.58 L830.12 2243.04 L788.29 2247.25 L746.58 2251.21 L704.76 2255.04 L662.93 2258.76 L621.23 2262.22 L579.40 2265.56 L537.69 2268.90 L495.87 2272.00 L495.87 2397.24 Z" stroke-linecap="round" style="fill:#EBEBFF;stroke:#E6E6FF;stroke-width:3.00"/>
	<path d="M495.87 2361.10 L495.87 2361.10 L537.69 2356.40 L579.40 2351.45 L621.23 2346.37 L662.93 2341.05 L704.76 2335.36 L746.58 2329.54 L788.29 2323.48 L830.12 2317.17 L871.82 2310.61 L913.65 2303.80 L955.35 2296.75 L997.18 2289.32 L1038.88 2281.77 L1080.71 2273.98 L1122.41 2265.93 L1164.24 2257.64 L1205.94 2248.98 L1247.77 2240.19 L1289.47 2231.16 L1331.30 2221.75 L1373.13 2212.22 L1414.83 2202.32 L1456.66 2192.05 L1498.37 2181.53 L1540.19 2170.52 L1581.90 2159.26 L1623.72 2147.50 L1665.43 2135.25 L1707.26 2122.50 L1748.96 2109.26 L1790.79 2095.40 L1832.49 2081.05 L1874.32 2065.95 L1916.02 2050.11 L1957.85 2033.65 L1999.68 2016.45 L2041.38 1998.50 L2083.21 1979.81 L2124.91 1960.39 L2166.74 1940.46 L2208.44 1919.92 L2250.27 1898.88 L2291.97 1877.59 L2333.80 1856.31 L2375.51 1834.90 L2417.33 1813.74 L2459.04 1792.45 L2500.86 1771.41 L2542.57 1750.37 L2584.40 1729.46 L2626.22 1708.55 L2667.93 1687.63 L2709.75 1666.84 L2751.46 1646.17 L2793.28 1625.75 L2834.99 1605.34 L2876.82 1585.29 L2918.52 1565.49 L2960.35 1545.93 L3002.05 1526.88 L3043.88 1508.31 L3085.58 1490.24 L3127.41 1472.79 L3169.11 1456.09 L3210.94 1440.12 L3252.77 1425.15 L3252.77 681.88 L3210.94 766.28 L3169.11 846.60 L3127.41 922.96 L3085.58 995.35 L3043.88 1064.28 L3002.05 1129.63 L2960.35 1191.63 L2918.52 1250.53 L2876.82 1306.47 L2834.99 1359.44 L2793.28 1409.68 L2751.46 1457.45 L2709.75 1502.62 L2667.93 1545.31 L2626.22 1585.91 L2584.40 1624.15 L2542.57 1660.28 L2500.86 1694.44 L2459.04 1726.49 L2417.33 1756.69 L2375.51 1784.90 L2333.80 1811.26 L2291.97 1836.01 L2250.27 1859.03 L2208.44 1880.94 L2166.74 1901.60 L2124.91 1921.28 L2083.21 1940.21 L2041.38 1958.40 L1999.68 1976.10 L1957.85 1993.06 L1916.02 2009.64 L1874.32 2025.60 L1832.49 2041.07 L1790.79 2056.05 L1748.96 2070.53 L1707.26 2084.63 L1665.43 2098.12 L1623.72 2111.24 L1581.90 2123.74 L1540.19 2135.87 L1498.37 2147.38 L1456.66 2158.51 L1414.83 2169.03 L1373.13 2179.18 L1331.30 2188.83 L1289.47 2197.99 L1247.77 2206.66 L1205.94 2214.95 L1164.24 2222.74 L1122.41 2230.17 L1080.71 2237.22 L1038.88 2244.03 L997.18 2250.34 L955.35 2256.53 L913.65 2262.22 L871.82 2267.79 L830.12 2273.11 L788.29 2278.18 L746.58 2283.01 L704.76 2287.59 L662.93 2292.05 L621.23 2296.38 L579.40 2300.46 L537.69 2304.42 L495.87 2308.13 L495.87 2361.10 Z" stroke-linecap="round" style="fill:#D6D6FF;stroke:#CCCCFF;stroke-width:3.00"/>
	<path d="M495.87 2355.28 L495.87 2355.28 L537.69 2350.70 L579.40 2345.88 L621.23 2340.80 L662.93 2335.61 L704.76 2330.16 L746.58 2324.47 L788.29 2318.40 L830.12 2312.34 L871.82 2305.91 L913.65 2299.22 L955.35 2292.29 L997.18 2285.12 L1038.88 2277.57 L1080.71 2269.89 L1122.41 2261.97 L1164.24 2253.68 L1205.94 2245.27 L1247.77 2236.48 L1289.47 2227.45 L1331.30 2218.16 L1373.13 2208.51 L1414.83 2198.61 L1456.66 2188.34 L1498.37 2177.70 L1540.19 2166.68 L1581.90 2155.30 L1623.72 2143.54 L1665.43 2131.17 L1707.26 2118.42 L1748.96 2105.05 L1790.79 2091.07 L1832.49 2076.59 L1874.32 2061.49 L1916.02 2045.65 L1957.85 2029.19 L1999.68 2011.99 L2041.38 1994.05 L2083.21 1975.48 L2124.91 1956.05 L2166.74 1936.13 L2208.44 1915.59 L2250.27 1894.42 L2291.97 1873.01 L2333.80 1851.36 L2375.51 1829.45 L2417.33 1807.43 L2459.04 1785.27 L2500.86 1762.87 L2542.57 1740.47 L2584.40 1717.83 L2626.22 1694.93 L2667.93 1671.91 L2709.75 1648.77 L2751.46 1625.38 L2793.28 1601.87 L2834.99 1578.23 L2876.82 1554.47 L2918.52 1530.71 L2960.35 1506.83 L3002.05 1483.07 L3043.88 1459.18 L3085.58 1435.54 L3127.41 1412.03 L3169.11 1388.77 L3210.94 1365.75 L3252.77 1342.98 L3252.77 763.93 L3210.94 840.78 L3169.11 913.92 L3127.41 983.60 L3085.58 1050.05 L3043.88 1113.29 L3002.05 1173.43 L2960.35 1230.73 L2918.52 1285.31 L2876.82 1337.16 L2834.99 1386.66 L2793.28 1433.56 L2751.46 1478.24 L2709.75 1520.69 L2667.93 1561.03 L2626.22 1599.39 L2584.40 1635.78 L2542.57 1670.31 L2500.86 1702.98 L2459.04 1733.79 L2417.33 1763.00 L2375.51 1790.47 L2333.80 1816.21 L2291.97 1840.59 L2250.27 1863.49 L2208.44 1885.14 L2166.74 1905.81 L2124.91 1925.61 L2083.21 1944.54 L2041.38 1962.86 L1999.68 1980.56 L1957.85 1997.51 L1916.02 2014.09 L1874.32 2030.06 L1832.49 2045.53 L1790.79 2060.38 L1748.96 2074.86 L1707.26 2088.84 L1665.43 2102.21 L1623.72 2115.20 L1581.90 2127.70 L1540.19 2139.70 L1498.37 2151.21 L1456.66 2162.23 L1414.83 2172.75 L1373.13 2182.77 L1331.30 2192.42 L1289.47 2201.58 L1247.77 2210.37 L1205.94 2218.66 L1164.24 2226.58 L1122.41 2234.13 L1080.71 2241.31 L1038.88 2248.11 L997.18 2254.67 L955.35 2260.86 L913.65 2266.80 L871.82 2272.49 L830.12 2277.94 L788.29 2283.14 L746.58 2288.09 L704.76 2292.91 L662.93 2297.49 L621.23 2301.82 L579.40 2306.03 L537.69 2310.11 L495.87 2314.07 L495.87 2355.28 Z" stroke-linecap="round" style="fill:#C2C2FF;stroke:#B3B3FF;stroke-width:3.00"/>
	<path d="M495.87 2351.32 L495.87 2351.32 L537.69 2346.74 L579.40 2342.04 L621.23 2337.09 L662.93 2331.89 L704.76 2326.57 L746.58 2320.88 L788.29 2315.06 L830.12 2309.00 L871.82 2302.69 L913.65 2296.13 L955.35 2289.20 L997.18 2282.15 L1038.88 2274.84 L1080.71 2267.17 L1122.41 2259.25 L1164.24 2251.21 L1205.94 2242.67 L1247.77 2234.00 L1289.47 2224.97 L1331.30 2215.69 L1373.13 2206.04 L1414.83 2196.14 L1456.66 2185.86 L1498.37 2175.22 L1540.19 2164.21 L1581.90 2152.70 L1623.72 2140.82 L1665.43 2128.44 L1707.26 2115.57 L1748.96 2102.08 L1790.79 2088.22 L1832.49 2073.62 L1874.32 2058.40 L1916.02 2042.68 L1957.85 2026.10 L1999.68 2008.90 L2041.38 1991.08 L2083.21 1972.51 L2124.91 1953.21 L2166.74 1933.28 L2208.44 1912.62 L2250.27 1891.45 L2291.97 1869.92 L2333.80 1848.02 L2375.51 1825.74 L2417.33 1803.09 L2459.04 1780.32 L2500.86 1757.18 L2542.57 1733.67 L2584.40 1709.91 L2626.22 1685.78 L2667.93 1661.27 L2709.75 1636.52 L2751.46 1611.28 L2793.28 1585.78 L2834.99 1559.92 L2876.82 1533.68 L2918.52 1507.20 L2960.35 1480.47 L3002.05 1453.37 L3043.88 1426.14 L3085.58 1398.67 L3127.41 1371.07 L3169.11 1343.35 L3210.94 1315.50 L3252.77 1287.66 L3252.77 819.25 L3210.94 890.90 L3169.11 959.34 L3127.41 1024.56 L3085.58 1086.93 L3043.88 1146.33 L3002.05 1203.01 L2960.35 1257.22 L2918.52 1308.82 L2876.82 1357.95 L2834.99 1404.98 L2793.28 1449.65 L2751.46 1492.35 L2709.75 1532.94 L2667.93 1571.67 L2626.22 1608.55 L2584.40 1643.58 L2542.57 1676.99 L2500.86 1708.67 L2459.04 1738.74 L2417.33 1767.21 L2375.51 1794.18 L2333.80 1819.55 L2291.97 1843.69 L2250.27 1866.46 L2208.44 1888.11 L2166.74 1908.78 L2124.91 1928.58 L2083.21 1947.51 L2041.38 1965.83 L1999.68 1983.53 L1957.85 2000.61 L1916.02 2017.06 L1874.32 2033.03 L1832.49 2048.50 L1790.79 2063.35 L1748.96 2077.70 L1707.26 2091.56 L1665.43 2105.05 L1623.72 2117.92 L1581.90 2130.30 L1540.19 2142.30 L1498.37 2153.69 L1456.66 2164.70 L1414.83 2175.22 L1373.13 2185.25 L1331.30 2194.90 L1289.47 2204.06 L1247.77 2212.84 L1205.94 2221.26 L1164.24 2229.18 L1122.41 2236.85 L1080.71 2244.03 L1038.88 2250.96 L997.18 2257.64 L955.35 2263.95 L913.65 2269.89 L871.82 2275.71 L830.12 2281.28 L788.29 2286.60 L746.58 2291.55 L704.76 2296.50 L662.93 2301.08 L621.23 2305.66 L579.40 2309.87 L537.69 2313.95 L495.87 2317.91 L495.87 2351.32 Z" stroke-linecap="round" style="fill:#ADADFF;stroke:#9999FF;stroke-width:3.00"/>
	<path d="M495.87 2348.23 L495.87 2348.23 L537.69 2343.77 L579.40 2339.07 L621.23 2334.12 L662.93 2329.05 L704.76 2323.73 L746.58 2318.16 L788.29 2312.46 L830.12 2306.40 L871.82 2300.09 L913.65 2293.65 L955.35 2286.85 L997.18 2279.79 L1038.88 2272.62 L1080.71 2265.07 L1122.41 2257.15 L1164.24 2249.10 L1205.94 2240.69 L1247.77 2232.02 L1289.47 2222.99 L1331.30 2213.71 L1373.13 2204.06 L1414.83 2194.16 L1456.66 2183.88 L1498.37 2173.12 L1540.19 2162.10 L1581.90 2150.59 L1623.72 2138.59 L1665.43 2126.22 L1707.26 2113.34 L1748.96 2099.86 L1790.79 2085.87 L1832.49 2071.27 L1874.32 2056.05 L1916.02 2040.21 L1957.85 2023.75 L1999.68 2006.55 L2041.38 1988.72 L2083.21 1970.16 L2124.91 1950.86 L2166.74 1930.93 L2208.44 1910.39 L2250.27 1889.10 L2291.97 1867.45 L2333.80 1845.29 L2375.51 1822.77 L2417.33 1799.75 L2459.04 1776.36 L2500.86 1752.60 L2542.57 1728.35 L2584.40 1703.72 L2626.22 1678.60 L2667.93 1652.86 L2709.75 1626.74 L2751.46 1600.14 L2793.28 1572.91 L2834.99 1545.31 L2876.82 1517.22 L2918.52 1488.51 L2960.35 1459.43 L3002.05 1429.85 L3043.88 1399.90 L3085.58 1369.46 L3127.41 1338.52 L3169.11 1307.21 L3210.94 1275.65 L3252.77 1243.60 L3252.77 863.31 L3210.94 930.88 L3169.11 995.48 L3127.41 1057.23 L3085.58 1116.26 L3043.88 1172.69 L3002.05 1226.65 L2960.35 1278.13 L2918.52 1327.38 L2876.82 1374.53 L2834.99 1419.46 L2793.28 1462.40 L2751.46 1503.49 L2709.75 1542.72 L2667.93 1580.09 L2626.22 1615.85 L2584.40 1649.89 L2542.57 1682.31 L2500.86 1713.25 L2459.04 1742.58 L2417.33 1770.55 L2375.51 1797.15 L2333.80 1822.28 L2291.97 1846.16 L2250.27 1868.81 L2208.44 1890.34 L2166.74 1911.01 L2124.91 1930.81 L2083.21 1949.87 L2041.38 1968.18 L1999.68 1985.88 L1957.85 2002.96 L1916.02 2019.54 L1874.32 2035.38 L1832.49 2050.85 L1790.79 2065.70 L1748.96 2080.06 L1707.26 2093.92 L1665.43 2107.16 L1623.72 2120.03 L1581.90 2132.40 L1540.19 2144.28 L1498.37 2155.67 L1456.66 2166.68 L1414.83 2177.20 L1373.13 2187.23 L1331.30 2196.88 L1289.47 2206.04 L1247.77 2214.82 L1205.94 2223.24 L1164.24 2231.28 L1122.41 2238.95 L1080.71 2246.26 L1038.88 2253.19 L997.18 2259.87 L955.35 2266.30 L913.65 2272.37 L871.82 2278.31 L830.12 2283.88 L788.29 2289.20 L746.58 2294.40 L704.76 2299.35 L662.93 2304.05 L621.23 2308.50 L579.40 2312.96 L537.69 2317.04 L495.87 2321.13 L495.87 2348.23 Z" stroke-linecap="round" style="fill:#9999FF;stroke:#8080FF;stroke-width:3.00"/>
	<path d="M495.87 2345.51 L495.87 2345.51 L537.69 2341.05 L579.40 2336.47 L621.23 2331.65 L662.93 2326.57 L704.76 2321.25 L746.58 2315.81 L788.29 2310.11 L830.12 2304.17 L871.82 2297.99 L913.65 2291.55 L955.35 2284.87 L997.18 2277.81 L1038.88 2270.64 L1080.71 2263.21 L1122.41 2255.41 L1164.24 2247.37 L1205.94 2238.95 L1247.77 2230.29 L1289.47 2221.38 L1331.30 2212.10 L1373.13 2202.45 L1414.83 2192.42 L1456.66 2182.15 L1498.37 2171.39 L1540.19 2160.37 L1581.90 2148.74 L1623.72 2136.73 L1665.43 2124.36 L1707.26 2111.36 L1748.96 2097.88 L1790.79 2083.89 L1832.49 2069.16 L1874.32 2053.94 L1916.02 2038.10 L1957.85 2021.64 L1999.68 2004.57 L2041.38 1986.62 L2083.21 1968.18 L2124.91 1948.88 L2166.74 1928.95 L2208.44 1908.41 L2250.27 1887.12 L2291.97 1865.34 L2333.80 1842.94 L2375.51 1820.17 L2417.33 1796.91 L2459.04 1773.02 L2500.86 1748.64 L2542.57 1723.77 L2584.40 1698.40 L2626.22 1672.29 L2667.93 1645.68 L2709.75 1618.45 L2751.46 1590.48 L2793.28 1562.02 L2834.99 1532.82 L2876.82 1502.99 L2918.52 1472.55 L2960.35 1441.49 L3002.05 1409.68 L3043.88 1377.26 L3085.58 1344.21 L3127.41 1310.55 L3169.11 1276.27 L3210.94 1241.38 L3252.77 1205.86 L3252.77 901.05 L3210.94 965.03 L3169.11 1026.41 L3127.41 1085.07 L3085.58 1141.38 L3043.88 1195.21 L3002.05 1246.82 L2960.35 1296.20 L2918.52 1343.47 L2876.82 1388.64 L2834.99 1431.96 L2793.28 1473.41 L2751.46 1513.14 L2709.75 1551.01 L2667.93 1587.39 L2626.22 1622.04 L2584.40 1655.21 L2542.57 1686.89 L2500.86 1717.08 L2459.04 1746.04 L2417.33 1773.52 L2375.51 1799.63 L2333.80 1824.50 L2291.97 1848.26 L2250.27 1870.79 L2208.44 1892.32 L2166.74 1912.99 L2124.91 1932.79 L2083.21 1951.85 L2041.38 1970.29 L1999.68 1987.98 L1957.85 2005.06 L1916.02 2021.52 L1874.32 2037.48 L1832.49 2052.83 L1790.79 2067.68 L1748.96 2082.04 L1707.26 2095.77 L1665.43 2109.14 L1623.72 2121.88 L1581.90 2134.26 L1540.19 2146.02 L1498.37 2157.40 L1456.66 2168.42 L1414.83 2178.81 L1373.13 2188.96 L1331.30 2198.49 L1289.47 2207.77 L1247.77 2216.56 L1205.94 2224.97 L1164.24 2233.01 L1122.41 2240.69 L1080.71 2248.11 L1038.88 2255.17 L997.18 2261.85 L955.35 2268.28 L913.65 2274.47 L871.82 2280.41 L830.12 2286.11 L788.29 2291.55 L746.58 2296.75 L704.76 2301.70 L662.93 2306.52 L621.23 2311.10 L579.40 2315.56 L537.69 2319.77 L495.87 2323.85 L495.87 2345.51 Z" stroke-linecap="round" style="fill:#8585FF;stroke:#6666FF;stroke-width:3.00"/>
	<path d="M495.87 2343.16 L495.87 2343.16 L537.69 2338.70 L579.40 2334.12 L621.23 2329.30 L662.93 2324.35 L704.76 2319.15 L746.58 2313.70 L788.29 2308.01 L830.12 2302.19 L871.82 2296.01 L913.65 2289.57 L955.35 2283.01 L997.18 2276.08 L1038.88 2268.90 L1080.71 2261.48 L1122.41 2253.81 L1164.24 2245.76 L1205.94 2237.35 L1247.77 2228.81 L1289.47 2219.77 L1331.30 2210.49 L1373.13 2200.96 L1414.83 2190.94 L1456.66 2180.67 L1498.37 2169.90 L1540.19 2158.76 L1581.90 2147.13 L1623.72 2135.13 L1665.43 2122.63 L1707.26 2109.63 L1748.96 2096.14 L1790.79 2082.04 L1832.49 2067.43 L1874.32 2052.21 L1916.02 2036.37 L1957.85 2019.79 L1999.68 2002.71 L2041.38 1984.89 L2083.21 1966.33 L2124.91 1947.14 L2166.74 1927.22 L2208.44 1906.55 L2250.27 1885.27 L2291.97 1863.49 L2333.80 1840.96 L2375.51 1817.94 L2417.33 1794.31 L2459.04 1770.05 L2500.86 1745.18 L2542.57 1719.68 L2584.40 1693.57 L2626.22 1666.72 L2667.93 1639.24 L2709.75 1610.90 L2751.46 1581.95 L2793.28 1552.12 L2834.99 1521.55 L2876.82 1490.24 L2918.52 1458.19 L2960.35 1425.27 L3002.05 1391.61 L3043.88 1357.08 L3085.58 1321.69 L3127.41 1285.56 L3169.11 1248.43 L3210.94 1210.68 L3252.77 1171.95 L3252.77 934.96 L3210.94 995.85 L3169.11 1054.26 L3127.41 1110.20 L3085.58 1163.91 L3043.88 1215.51 L3002.05 1264.89 L2960.35 1312.29 L2918.52 1357.83 L2876.82 1401.39 L2834.99 1443.22 L2793.28 1483.31 L2751.46 1521.68 L2709.75 1558.56 L2667.93 1593.83 L2626.22 1627.61 L2584.40 1660.03 L2542.57 1690.97 L2500.86 1720.67 L2459.04 1749.01 L2417.33 1776.12 L2375.51 1801.98 L2333.80 1826.61 L2291.97 1850.12 L2250.27 1872.64 L2208.44 1894.18 L2166.74 1914.84 L2124.91 1934.64 L2083.21 1953.70 L2041.38 1972.02 L1999.68 1989.84 L1957.85 2006.92 L1916.02 2023.38 L1874.32 2039.34 L1832.49 2054.69 L1790.79 2069.54 L1748.96 2083.77 L1707.26 2097.50 L1665.43 2110.75 L1623.72 2123.62 L1581.90 2135.87 L1540.19 2147.62 L1498.37 2159.01 L1456.66 2169.90 L1414.83 2180.42 L1373.13 2190.44 L1331.30 2200.10 L1289.47 2209.25 L1247.77 2218.04 L1205.94 2226.58 L1164.24 2234.62 L1122.41 2242.42 L1080.71 2249.72 L1038.88 2256.90 L997.18 2263.71 L955.35 2270.14 L913.65 2276.45 L871.82 2282.39 L830.12 2288.09 L788.29 2293.65 L746.58 2298.85 L704.76 2303.93 L662.93 2308.75 L621.23 2313.33 L579.40 2317.79 L537.69 2322.12 L495.87 2326.20 L495.87 2343.16 Z" stroke-linecap="round" style="fill:#7171FF;stroke:#4D4DFF;stroke-width:3.00"/>
	<path d="M495.87 2340.80 L495.87 2340.80 L537.69 2336.47 L579.40 2332.02 L621.23 2327.19 L662.93 2322.24 L704.76 2317.17 L746.58 2311.72 L788.29 2306.15 L830.12 2300.34 L871.82 2294.15 L913.65 2287.84 L955.35 2281.28 L997.18 2274.47 L1038.88 2267.29 L1080.71 2259.87 L1122.41 2252.20 L1164.24 2244.28 L1205.94 2235.98 L1247.77 2227.32 L1289.47 2218.41 L1331.30 2209.13 L1373.13 2199.60 L1414.83 2189.58 L1456.66 2179.18 L1498.37 2168.42 L1540.19 2157.28 L1581.90 2145.64 L1623.72 2133.64 L1665.43 2121.02 L1707.26 2108.02 L1748.96 2094.41 L1790.79 2080.43 L1832.49 2065.70 L1874.32 2050.48 L1916.02 2034.64 L1957.85 2018.05 L1999.68 2000.98 L2041.38 1983.16 L2083.21 1964.59 L2124.91 1945.41 L2166.74 1925.49 L2208.44 1904.94 L2250.27 1883.66 L2291.97 1861.63 L2333.80 1839.11 L2375.51 1815.72 L2417.33 1791.83 L2459.04 1767.21 L2500.86 1741.96 L2542.57 1715.85 L2584.40 1689.12 L2626.22 1661.52 L2667.93 1633.18 L2709.75 1603.97 L2751.46 1573.90 L2793.28 1542.96 L2834.99 1511.16 L2876.82 1478.49 L2918.52 1444.83 L2960.35 1410.30 L3002.05 1374.78 L3043.88 1338.27 L3085.58 1300.78 L3127.41 1262.29 L3169.11 1222.69 L3210.94 1182.10 L3252.77 1140.52 L3252.77 966.39 L3210.94 1024.31 L3169.11 1080.00 L3127.41 1133.46 L3085.58 1184.82 L3043.88 1234.20 L3002.05 1281.72 L2960.35 1327.26 L2918.52 1371.07 L2876.82 1413.15 L2834.99 1453.61 L2793.28 1492.47 L2751.46 1529.72 L2709.75 1565.49 L2667.93 1599.89 L2626.22 1632.81 L2584.40 1664.49 L2542.57 1694.81 L2500.86 1723.89 L2459.04 1751.74 L2417.33 1778.47 L2375.51 1804.08 L2333.80 1828.46 L2291.97 1851.85 L2250.27 1874.38 L2208.44 1895.79 L2166.74 1916.45 L2124.91 1936.25 L2083.21 1955.31 L2041.38 1973.75 L1999.68 1991.45 L1957.85 2008.65 L1916.02 2025.11 L1874.32 2041.07 L1832.49 2056.29 L1790.79 2071.14 L1748.96 2085.38 L1707.26 2099.11 L1665.43 2112.35 L1623.72 2125.10 L1581.90 2137.35 L1540.19 2149.11 L1498.37 2160.50 L1456.66 2171.39 L1414.83 2181.78 L1373.13 2191.80 L1331.30 2201.46 L1289.47 2210.62 L1247.77 2219.53 L1205.94 2227.94 L1164.24 2236.11 L1122.41 2243.91 L1080.71 2251.33 L1038.88 2258.51 L997.18 2265.31 L955.35 2271.87 L913.65 2278.18 L871.82 2284.25 L830.12 2289.94 L788.29 2295.51 L746.58 2300.83 L704.76 2305.91 L662.93 2310.86 L621.23 2315.56 L579.40 2320.01 L537.69 2324.35 L495.87 2328.43 L495.87 2340.80 Z" stroke-linecap="round" style="fill:#5C5CFF;stroke:#3333FF;stroke-width:3.00"/>
	<path d="M495.87 2338.70 L495.87 2338.70 L537.69 2334.37 L579.40 2329.91 L621.23 2325.21 L662.93 2320.26 L704.76 2315.19 L746.58 2309.87 L788.29 2304.30 L830.12 2298.48 L871.82 2292.54 L913.65 2286.23 L955.35 2279.67 L997.18 2272.86 L1038.88 2265.81 L1080.71 2258.51 L1122.41 2250.84 L1164.24 2242.79 L1205.94 2234.62 L1247.77 2225.96 L1289.47 2217.05 L1331.30 2207.89 L1373.13 2198.24 L1414.83 2188.22 L1456.66 2177.82 L1498.37 2167.05 L1540.19 2155.92 L1581.90 2144.28 L1623.72 2132.16 L1665.43 2119.53 L1707.26 2106.54 L1748.96 2092.93 L1790.79 2078.82 L1832.49 2064.09 L1874.32 2048.87 L1916.02 2033.03 L1957.85 2016.45 L1999.68 1999.37 L2041.38 1981.55 L2083.21 1963.11 L2124.91 1943.93 L2166.74 1924.00 L2208.44 1903.33 L2250.27 1882.05 L2291.97 1860.02 L2333.80 1837.25 L2375.51 1813.74 L2417.33 1789.60 L2459.04 1764.61 L2500.86 1738.87 L2542.57 1712.26 L2584.40 1684.91 L2626.22 1656.57 L2667.93 1627.49 L2709.75 1597.41 L2751.46 1566.35 L2793.28 1534.30 L2834.99 1501.38 L2876.82 1467.35 L2918.52 1432.20 L2960.35 1396.07 L3002.05 1358.82 L3043.88 1320.45 L3085.58 1280.98 L3127.41 1240.26 L3169.11 1198.31 L3210.94 1155.12 L3252.77 1110.69 L3252.77 996.22 L3210.94 1051.29 L3169.11 1104.38 L3127.41 1155.49 L3085.58 1204.74 L3043.88 1252.02 L3002.05 1297.68 L2960.35 1341.49 L2918.52 1383.69 L2876.82 1424.41 L2834.99 1463.51 L2793.28 1501.13 L2751.46 1537.27 L2709.75 1572.05 L2667.93 1605.58 L2626.22 1637.76 L2584.40 1668.70 L2542.57 1698.40 L2500.86 1726.99 L2459.04 1754.46 L2417.33 1780.82 L2375.51 1806.06 L2333.80 1830.32 L2291.97 1853.59 L2250.27 1875.86 L2208.44 1897.39 L2166.74 1917.94 L2124.91 1937.86 L2083.21 1956.92 L2041.38 1975.36 L1999.68 1993.18 L1957.85 2010.26 L1916.02 2026.72 L1874.32 2042.68 L1832.49 2057.90 L1790.79 2072.75 L1748.96 2086.99 L1707.26 2100.60 L1665.43 2113.84 L1623.72 2126.59 L1581.90 2138.71 L1540.19 2150.47 L1498.37 2161.86 L1456.66 2172.75 L1414.83 2183.14 L1373.13 2193.17 L1331.30 2202.82 L1289.47 2211.98 L1247.77 2220.89 L1205.94 2229.30 L1164.24 2237.47 L1122.41 2245.27 L1080.71 2252.82 L1038.88 2259.99 L997.18 2266.92 L955.35 2273.48 L913.65 2279.79 L871.82 2285.86 L830.12 2291.67 L788.29 2297.37 L746.58 2302.69 L704.76 2307.89 L662.93 2312.71 L621.23 2317.54 L579.40 2321.99 L537.69 2326.45 L495.87 2330.53 L495.87 2338.70 Z" stroke-linecap="round" style="fill:#4747FF;stroke:#1919FF;stroke-width:3.00"/>
	<path d="M495.87 2336.72 L495.87 2336.72 L537.69 2332.39 L579.40 2327.93 L621.23 2323.23 L662.93 2318.40 L704.76 2313.33 L746.58 2308.01 L788.29 2302.56 L830.12 2296.75 L871.82 2290.81 L913.65 2284.62 L955.35 2278.06 L997.18 2271.38 L1038.88 2264.32 L1080.71 2257.02 L1122.41 2249.47 L1164.24 2241.55 L1205.94 2233.26 L1247.77 2224.72 L1289.47 2215.81 L1331.30 2206.53 L1373.13 2196.88 L1414.83 2186.98 L1456.66 2176.58 L1498.37 2165.69 L1540.19 2154.55 L1581.90 2142.80 L1623.72 2130.79 L1665.43 2118.17 L1707.26 2105.05 L1748.96 2091.44 L1790.79 2077.21 L1832.49 2062.61 L1874.32 2047.26 L1916.02 2031.42 L1957.85 2014.96 L1999.68 1997.76 L2041.38 1979.94 L2083.21 1961.50 L2124.91 1942.32 L2166.74 1922.52 L2208.44 1901.85 L2250.27 1880.44 L2291.97 1858.41 L2333.80 1835.52 L2375.51 1811.88 L2417.33 1787.38 L2459.04 1762.01 L2500.86 1735.90 L2542.57 1708.79 L2584.40 1680.83 L2626.22 1651.87 L2667.93 1621.92 L2709.75 1590.98 L2751.46 1559.05 L2793.28 1526.01 L2834.99 1491.85 L2876.82 1456.46 L2918.52 1420.08 L2960.35 1382.33 L3002.05 1343.47 L3043.88 1303.25 L3085.58 1261.67 L3127.41 1218.85 L3169.11 1174.67 L3210.94 1129.01 L3252.77 1081.86 L3252.77 1025.05 L3210.94 1077.52 L3169.11 1128.02 L3127.41 1176.90 L3085.58 1223.93 L3043.88 1269.34 L3002.05 1313.03 L2960.35 1355.23 L2918.52 1395.94 L2876.82 1435.17 L2834.99 1473.04 L2793.28 1509.43 L2751.46 1544.57 L2709.75 1578.48 L2667.93 1611.03 L2626.22 1642.46 L2584.40 1672.78 L2542.57 1701.86 L2500.86 1729.96 L2459.04 1756.93 L2417.33 1783.05 L2375.51 1808.04 L2333.80 1832.05 L2291.97 1855.19 L2250.27 1877.47 L2208.44 1898.88 L2166.74 1919.55 L2124.91 1939.35 L2083.21 1958.53 L2041.38 1976.97 L1999.68 1994.66 L1957.85 2011.87 L1916.02 2028.33 L1874.32 2044.17 L1832.49 2059.51 L1790.79 2074.24 L1748.96 2088.47 L1707.26 2102.08 L1665.43 2115.32 L1623.72 2127.95 L1581.90 2140.20 L1540.19 2151.83 L1498.37 2163.09 L1456.66 2173.98 L1414.83 2184.38 L1373.13 2194.40 L1331.30 2204.06 L1289.47 2213.21 L1247.77 2222.12 L1205.94 2230.66 L1164.24 2238.83 L1122.41 2246.63 L1080.71 2254.18 L1038.88 2261.48 L997.18 2268.41 L955.35 2275.09 L913.65 2281.40 L871.82 2287.59 L830.12 2293.41 L788.29 2299.10 L746.58 2304.54 L704.76 2309.74 L662.93 2314.69 L621.23 2319.39 L579.40 2323.97 L537.69 2328.43 L495.87 2332.64 L495.87 2336.72 Z" stroke-linecap="round" style="fill:#3333FF;stroke:#0000FF;stroke-width:3.00"/>
	<circle cx="495.87" cy="2413.45" r="22.03" style="fill:#000000;stroke:#000000;stroke-width:8.64"/>
	<circle cx="537.57" cy="2405.65" r="22.03" style="fill:#000000;stroke:#000000;stroke-width:8.64"/>
	<circle cx="579.40" cy="2399.22" r="22.03" style="fill:#000000;stroke:#000000;stroke-width:8.64"/>
	<circle cx="621.10" cy="2391.42" r="22.03" style="fill:#000000;stroke:#000000;stroke-width:8.64"/>
	<circle cx="662.93" cy="2382.63" r="22.03" style="fill:#000000;stroke:#000000;stroke-width:8.64"/>
	<circle cx="704.76" cy="2373.35" r="22.03" style="fill:#000000;stroke:#000000;stroke-width:8.64"/>
	<circle cx="746.46" cy="2361.84" r="22.03" style="fill:#000000;stroke:#000000;stroke-width:8.64"/>
	<circle cx="788.29" cy="2349.34" r="22.03" style="fill:#000000;stroke:#000000;stroke-width:8.64"/>
	<circle cx="829.99" cy="2335.11" r="22.03" style="fill:#000000;stroke:#000000;stroke-width:8.64"/>
	<circle cx="871.82" cy="2317.91" r="22.03" style="fill:#000000;stroke:#000000;stroke-width:8.64"/>
	<circle cx="913.52" cy="2301.33" r="22.03" style="fill:#000000;stroke:#000000;stroke-width:8.64"/>
	<circle cx="955.35" cy="2287.22" r="22.03" style="fill:#000000;stroke:#000000;stroke-width:8.64"/>
	<circle cx="997.05" cy="2272.00" r="22.03" style="fill:#000000;stroke:#000000;stroke-width:8.64"/>
	<circle cx="1038.88" cy="2260.49" r="22.03" style="fill:#000000;stroke:#000000;stroke-width:8.64"/>
	<circle cx="1080.59" cy="2247.37" r="22.03" style="fill:#000000;stroke:#000000;stroke-width:8.64"/>
	<circle cx="1122.41" cy="2236.11" r="22.03" style="fill:#000000;stroke:#000000;stroke-width:8.64"/>
	<circle cx="1164.12" cy="2226.95" r="22.03" style="fill:#000000;stroke:#000000;stroke-width:8.64"/>
	<circle cx="1205.94" cy="2160.25" r="22.03" style="fill:#000000;stroke:#000000;stroke-width:8.64"/>
	<circle cx="1247.65" cy="2141.68" r="22.03" style="fill:#000000;stroke:#000000;stroke-width:8.64"/>
	<circle cx="1289.47" cy="2130.42" r="22.03" style="fill:#000000;stroke:#000000;stroke-width:8.64"/>
	<circle cx="1331.30" cy="2120.89" r="22.03" style="fill:#000000;stroke:#000000;stroke-width:8.64"/>
	<circle cx="1373.01" cy="2111.74" r="22.03" style="fill:#000000;stroke:#000000;stroke-width:8.64"/>
	<circle cx="1414.83" cy="2102.95" r="22.03" style="fill:#000000;stroke:#000000;stroke-width:8.64"/>
	<circle cx="1456.54" cy="2094.78" r="22.03" style="fill:#000000;stroke:#000000;stroke-width:8.64"/>
	<circle cx="1498.37" cy="2092.43" r="22.03" style="fill:#000000;stroke:#000000;stroke-width:8.64"/>
	<circle cx="1540.07" cy="2087.98" r="22.03" style="fill:#000000;stroke:#000000;stroke-width:8.64"/>
	<circle cx="1581.90" cy="2083.27" r="22.03" style="fill:#000000;stroke:#000000;stroke-width:8.64"/>
	<circle cx="1623.60" cy="2078.82" r="22.03" style="fill:#000000;stroke:#000000;stroke-width:8.64"/>
	<circle cx="1665.43" cy="2076.47" r="22.03" style="fill:#000000;stroke:#000000;stroke-width:8.64"/>
	<circle cx="1707.13" cy="2073.00" r="22.03" style="fill:#000000;stroke:#000000;stroke-width:8.64"/>
	<circle cx="1748.96" cy="2069.16" r="22.03" style="fill:#000000;stroke:#000000;stroke-width:8.64"/>
	<circle cx="1790.66" cy="2064.34" r="22.03" style="fill:#000000;stroke:#000000;stroke-width:8.64"/>
	<circle cx="1832.49" cy="2058.77" r="22.03" style="fill:#000000;stroke:#000000;stroke-width:8.64"/>
	<circle cx="1874.19" cy="2050.60" r="22.03" style="fill:#000000;stroke:#000000;stroke-width:8.64"/>
	<circle cx="1916.02" cy="2042.68" r="22.03" style="fill:#000000;stroke:#000000;stroke-width:8.64"/>
	<circle cx="1957.85" cy="2033.65" r="22.03" style="fill:#000000;stroke:#000000;stroke-width:8.64"/>
	<circle cx="1999.55" cy="2026.59" r="22.03" style="fill:#000000;stroke:#000000;stroke-width:8.64"/>
	<circle cx="2041.38" cy="2015.95" r="22.03" style="fill:#000000;stroke:#000000;stroke-width:8.64"/>
	<circle cx="2083.08" cy="2006.17" r="22.03" style="fill:#000000;stroke:#000000;stroke-width:8.64"/>
	<circle cx="2124.91" cy="1993.55" r="22.03" style="fill:#000000;stroke:#000000;stroke-width:8.64"/>
	<circle cx="2166.61" cy="1976.10" r="22.03" style="fill:#000000;stroke:#000000;stroke-width:8.64"/>
	<circle cx="2208.44" cy="1959.89" r="22.03" style="fill:#000000;stroke:#000000;stroke-width:8.64"/>
	<circle cx="2250.15" cy="1942.81" r="22.03" style="fill:#000000;stroke:#000000;stroke-width:8.64"/>
	<circle cx="2291.97" cy="1922.76" r="22.03" style="fill:#000000;stroke:#000000;stroke-width:8.64"/>
	<circle cx="2333.68" cy="1903.46" r="22.03" style="fill:#000000;stroke:#000000;stroke-width:8.64"/>
	<circle cx="2375.51" cy="1873.14" r="22.03" style="fill:#000000;stroke:#000000;stroke-width:8.64"/>
	<circle cx="2417.21" cy="1836.38" r="22.03" style="fill:#000000;stroke:#000000;stroke-width:8.64"/>
	<circle cx="2459.04" cy="1795.17" r="22.03" style="fill:#000000;stroke:#000000;stroke-width:8.64"/>
	<circle cx="2500.74" cy="1759.28" r="22.03" style="fill:#000000;stroke:#000000;stroke-width:8.64"/>
	<circle cx="2542.57" cy="1688.62" r="22.03" style="fill:#000000;stroke:#000000;stroke-width:8.64"/>
	<circle cx="2584.40" cy="1632.44" r="22.03" style="fill:#000000;stroke:#000000;stroke-width:8.64"/>
	<circle cx="2626.10" cy="1567.47" r="22.03" style="fill:#000000;stroke:#000000;stroke-width:8.64"/>
	<circle cx="2667.93" cy="1486.66" r="22.03" style="fill:#000000;stroke:#000000;stroke-width:8.64"/>
	<line x1="390.80" y1="2489.19" x2="390.80" y2="100.86" style="stroke:#000000;stroke-width:5.76"/>
	<line x1="390.80" y1="2425.82" x2="350.83" y2="2425.82" style="stroke:#000000;stroke-width:5.76"/>
	<text x="300.72" y="2425.82" style="font-family:'Helvetica';font-size:99.99px;fill:#000000" transform="rotate(-90 300.72,2425.82)" text-anchor="middle">0</text>
	<line x1="390.80" y1="1973.50" x2="350.83" y2="1973.50" style="stroke:#000000;stroke-width:5.76"/>
	<text x="300.72" y="1973.50" style="font-family:'Helvetica';font-size:99.99px;fill:#000000" transform="rotate(-90 300.72,1973.50)" text-anchor="middle">.5</text>
	<line x1="390.80" y1="1521.18" x2="350.83" y2="1521.18" style="stroke:#000000;stroke-width:5.76"/>
	<text x="300.72" y="1521.18" style="font-family:'Helvetica';font-size:99.99px;fill:#000000" transform="rotate(-90 300.72,1521.18)" text-anchor="middle">1</text>
	<line x1="390.80" y1="1068.86" x2="350.83" y2="1068.86" style="stroke:#000000;stroke-width:5.76"/>
	<text x="300.72" y="1068.86" style="font-family:'Helvetica';font-size:99.99px;fill:#000000" transform="rotate(-90 300.72,1068.86)" text-anchor="middle">1.5</text>
	<line x1="390.80" y1="616.54" x2="350.83" y2="616.54" style="stroke:#000000;stroke-width:5.76"/>
	<text x="300.72" y="616.54" style="font-family:'Helvetica';font-size:99.99px;fill:#000000" transform="rotate(-90 300.72,616.54)" text-anchor="middle">2</text>
	<line x1="390.80" y1="164.22" x2="350.83" y2="164.22" style="stroke:#000000;stroke-width:5.76"/>
	<text x="300.72" y="164.22" style="font-family:'Helvetica';font-size:99.99px;fill:#000000" transform="rotate(-90 300.72,164.22)" text-anchor="middle">2.5</text>
	<text x="190.71" y="1294.96" style="font-family:'Helvetica';font-size:99.99px;fill:#000000" transform="rotate(-90 190.71,1294.96)" text-anchor="middle">Confirmed cases per 100 beds</text>
	<line x1="390.80" y1="2489.19" x2="3859.02" y2="2489.19" style="stroke:#000000;stroke-width:5.76"/>
	<line x1="454.16" y1="2489.19" x2="454.16" y2="2529.16" style="stroke:#000000;stroke-width:5.76"/>
	<text x="454.16" y="2619.14" style="font-family:'Helvetica';font-size:99.99px;fill:#000000" text-anchor="middle">0</text>
	<line x1="1289.47" y1="2489.19" x2="1289.47" y2="2529.16" style="stroke:#000000;stroke-width:5.76"/>
	<text x="1289.47" y="2619.14" style="font-family:'Helvetica';font-size:99.99px;fill:#000000" text-anchor="middle">20</text>
	<line x1="2124.91" y1="2489.19" x2="2124.91" y2="2529.16" style="stroke:#000000;stroke-width:5.76"/>
	<text x="2124.91" y="2619.14" style="font-family:'Helvetica';font-size:99.99px;fill:#000000" text-anchor="middle">40</text>
	<line x1="2960.35" y1="2489.19" x2="2960.35" y2="2529.16" style="stroke:#000000;stroke-width:5.76"/>
	<text x="2960.35" y="2619.14" style="font-family:'Helvetica';font-size:99.99px;fill:#000000" text-anchor="middle">60</text>
	<line x1="3795.66" y1="2489.19" x2="3795.66" y2="2529.16" style="stroke:#000000;stroke-width:5.76"/>
	<text x="3795.66" y="2619.14" style="font-family:'Helvetica';font-size:99.99px;fill:#000000" text-anchor="middle">80</text>
	<text x="2124.91" y="2729.16" style="font-family:'Helvetica';font-size:99.99px;fill:#000000" text-anchor="middle">Days since 0.01 confirmed cases per 100 beds</text>
</svg>
