<?xml version="1.0" encoding="UTF-8" standalone="no"?>
<!-- This is a Stata 14.2 generated SVG file (http://www.stata.com) -->

<svg version="1.1" width="5.50in" height="4.00in" viewBox="0 0 3960 2880" xmlns="http://www.w3.org/2000/svg">
	<desc>Stata Graph - Graph</desc>
	<line x1="390.80" y1="1677.85" x2="3859.02" y2="1677.85" style="stroke:#FF0000;stroke-width:8.64"/>
	<path d="M606.00 1685.28 L606.00 1685.28 L757.97 1685.28 L909.81 1685.28 L1061.65 1685.28 L1213.62 1685.28 L1365.46 1685.28 L1517.42 1685.03 L1669.26 1684.66 L1821.11 1684.54 L1973.07 1684.54 L2124.91 1685.03 L2276.88 1686.27 L2428.72 1689.24 L2580.56 1695.18 L2732.52 1705.95 L2884.36 1724.51 L3036.33 1755.20 L3188.17 1804.21 L3340.01 1879.94 L3491.98 1993.80 L3643.82 2160.99 L3795.66 2400.95 L3795.66 164.22 L3643.82 643.27 L3491.98 984.09 L3340.01 1222.32 L3188.17 1385.67 L3036.33 1495.57 L2884.36 1567.96 L2732.52 1614.49 L2580.56 1643.82 L2428.72 1661.77 L2276.88 1672.41 L2124.91 1678.47 L1973.07 1681.94 L1821.11 1683.67 L1669.26 1684.54 L1517.42 1684.79 L1365.46 1684.91 L1213.62 1685.03 L1061.65 1685.16 L909.81 1685.16 L757.97 1685.28 L606.00 1685.28 L606.00 1685.28 Z" stroke-linecap="round" style="fill:#EBEBFF;stroke:#E6E6FF;stroke-width:3.00"/>
	<path d="M606.00 1685.28 L606.00 1685.28 L757.97 1685.28 L909.81 1685.28 L1061.65 1685.28 L1213.62 1685.28 L1365.46 1685.16 L1517.42 1685.03 L1669.26 1684.66 L1821.11 1684.29 L1973.07 1683.80 L2124.91 1683.18 L2276.88 1682.31 L2428.72 1681.32 L2580.56 1680.33 L2732.52 1679.46 L2884.36 1679.34 L3036.33 1680.21 L3188.17 1683.42 L3340.01 1690.11 L3491.98 1702.36 L3643.82 1723.03 L3795.66 1755.45 L3795.66 809.72 L3643.82 1081.36 L3491.98 1275.53 L3340.01 1412.03 L3188.17 1506.46 L3036.33 1570.56 L2884.36 1613.13 L2732.52 1640.85 L2580.56 1658.67 L2428.72 1669.69 L2276.88 1676.37 L2124.91 1680.33 L1973.07 1682.68 L1821.11 1683.92 L1669.26 1684.66 L1517.42 1684.91 L1365.46 1685.03 L1213.62 1685.16 L1061.65 1685.16 L909.81 1685.28 L757.97 1685.28 L606.00 1685.28 L606.00 1685.28 Z" stroke-linecap="round" style="fill:#D6D6FF;stroke:#CCCCFF;stroke-width:3.00"/>
	<path d="M606.00 1685.28 L606.00 1685.28 L757.97 1685.28 L909.81 1685.28 L1061.65 1685.28 L1213.62 1685.28 L1365.46 1685.16 L1517.42 1684.91 L1669.26 1684.66 L1821.11 1684.29 L1973.07 1683.67 L2124.91 1682.81 L2276.88 1681.69 L2428.72 1680.08 L2580.56 1677.98 L2732.52 1675.26 L2884.36 1672.04 L3036.33 1668.08 L3188.17 1663.87 L3340.01 1659.42 L3491.98 1655.21 L3643.82 1652.11 L3795.66 1651.00 L3795.66 914.17 L3643.82 1152.15 L3491.98 1322.68 L3340.01 1442.85 L3188.17 1526.01 L3036.33 1582.69 L2884.36 1620.43 L2732.52 1645.18 L2580.56 1661.02 L2428.72 1670.92 L2276.88 1676.99 L2124.91 1680.70 L1973.07 1682.81 L1821.11 1683.92 L1669.26 1684.66 L1517.42 1684.91 L1365.46 1685.03 L1213.62 1685.16 L1061.65 1685.16 L909.81 1685.28 L757.97 1685.28 L606.00 1685.28 L606.00 1685.28 Z" stroke-linecap="round" style="fill:#C2C2FF;stroke:#B3B3FF;stroke-width:3.00"/>
	<path d="M606.00 1685.28 L606.00 1685.28 L757.97 1685.28 L909.81 1685.28 L1061.65 1685.28 L1213.62 1685.28 L1365.46 1685.16 L1517.42 1684.91 L1669.26 1684.66 L1821.11 1684.17 L1973.07 1683.55 L2124.91 1682.56 L2276.88 1681.20 L2428.72 1679.22 L2580.56 1676.37 L2732.52 1672.41 L2884.36 1667.09 L3036.33 1659.91 L3188.17 1650.63 L3340.01 1638.75 L3491.98 1623.40 L3643.82 1604.35 L3795.66 1580.46 L3795.66 984.59 L3643.82 1200.04 L3491.98 1354.49 L3340.01 1463.51 L3188.17 1539.13 L3036.33 1590.86 L2884.36 1625.38 L2732.52 1648.03 L2580.56 1662.63 L2428.72 1671.79 L2276.88 1677.48 L2124.91 1680.83 L1973.07 1682.93 L1821.11 1684.04 L1669.26 1684.66 L1517.42 1684.91 L1365.46 1685.03 L1213.62 1685.16 L1061.65 1685.16 L909.81 1685.28 L757.97 1685.28 L606.00 1685.28 L606.00 1685.28 Z" stroke-linecap="round" style="fill:#ADADFF;stroke:#9999FF;stroke-width:3.00"/>
	<path d="M606.00 1685.28 L606.00 1685.28 L757.97 1685.28 L909.81 1685.28 L1061.65 1685.28 L1213.62 1685.16 L1365.46 1685.16 L1517.42 1684.91 L1669.26 1684.66 L1821.11 1684.17 L1973.07 1683.55 L2124.91 1682.43 L2276.88 1680.83 L2428.72 1678.47 L2580.56 1675.01 L2732.52 1670.06 L2884.36 1663.13 L3036.33 1653.48 L3188.17 1640.23 L3340.01 1622.17 L3491.98 1598.16 L3643.82 1566.35 L3795.66 1524.52 L3795.66 1040.65 L3643.82 1238.03 L3491.98 1379.73 L3340.01 1479.97 L3188.17 1549.65 L3036.33 1597.29 L2884.36 1629.22 L2732.52 1650.38 L2580.56 1663.87 L2428.72 1672.53 L2276.88 1677.85 L2124.91 1681.07 L1973.07 1682.93 L1821.11 1684.04 L1669.26 1684.66 L1517.42 1684.91 L1365.46 1685.03 L1213.62 1685.16 L1061.65 1685.28 L909.81 1685.28 L757.97 1685.28 L606.00 1685.28 L606.00 1685.28 Z" stroke-linecap="round" style="fill:#9999FF;stroke:#8080FF;stroke-width:3.00"/>
	<path d="M606.00 1685.28 L606.00 1685.28 L757.97 1685.28 L909.81 1685.28 L1061.65 1685.28 L1213.62 1685.16 L1365.46 1685.16 L1517.42 1684.91 L1669.26 1684.66 L1821.11 1684.17 L1973.07 1683.42 L2124.91 1682.31 L2276.88 1680.58 L2428.72 1677.85 L2580.56 1673.89 L2732.52 1668.08 L2884.36 1659.79 L3036.33 1647.91 L3188.17 1631.20 L3340.01 1608.06 L3491.98 1576.50 L3643.82 1533.68 L3795.66 1476.51 L3795.66 1088.66 L3643.82 1270.58 L3491.98 1401.39 L3340.01 1494.08 L3188.17 1558.68 L3036.33 1602.86 L2884.36 1632.68 L2732.52 1652.24 L2580.56 1664.98 L2428.72 1673.15 L2276.88 1678.10 L2124.91 1681.20 L1973.07 1682.93 L1821.11 1684.04 L1669.26 1684.66 L1517.42 1684.91 L1365.46 1685.03 L1213.62 1685.16 L1061.65 1685.28 L909.81 1685.28 L757.97 1685.28 L606.00 1685.28 L606.00 1685.28 Z" stroke-linecap="round" style="fill:#8585FF;stroke:#6666FF;stroke-width:3.00"/>
	<path d="M606.00 1685.28 L606.00 1685.28 L757.97 1685.28 L909.81 1685.28 L1061.65 1685.28 L1213.62 1685.16 L1365.46 1685.16 L1517.42 1684.91 L1669.26 1684.66 L1821.11 1684.17 L1973.07 1683.42 L2124.91 1682.19 L2276.88 1680.33 L2428.72 1677.36 L2580.56 1672.90 L2732.52 1666.35 L2884.36 1656.69 L3036.33 1642.83 L3188.17 1623.16 L3340.01 1595.43 L3491.98 1557.07 L3643.82 1504.48 L3795.66 1433.32 L3795.66 1131.85 L3643.82 1299.91 L3491.98 1420.94 L3340.01 1506.83 L3188.17 1566.72 L3036.33 1607.93 L2884.36 1635.65 L2732.52 1654.09 L2580.56 1665.97 L2428.72 1673.65 L2276.88 1678.35 L2124.91 1681.32 L1973.07 1683.05 L1821.11 1684.04 L1669.26 1684.66 L1517.42 1684.91 L1365.46 1685.03 L1213.62 1685.16 L1061.65 1685.28 L909.81 1685.28 L757.97 1685.28 L606.00 1685.28 L606.00 1685.28 Z" stroke-linecap="round" style="fill:#7171FF;stroke:#4D4DFF;stroke-width:3.00"/>
	<path d="M606.00 1685.28 L606.00 1685.28 L757.97 1685.28 L909.81 1685.28 L1061.65 1685.28 L1213.62 1685.16 L1365.46 1685.16 L1517.42 1684.91 L1669.26 1684.66 L1821.11 1684.17 L1973.07 1683.30 L2124.91 1682.06 L2276.88 1680.08 L2428.72 1676.86 L2580.56 1672.04 L2732.52 1664.74 L2884.36 1653.97 L3036.33 1638.25 L3188.17 1615.61 L3340.01 1583.68 L3491.98 1539.00 L3643.82 1477.25 L3795.66 1393.34 L3795.66 1171.83 L3643.82 1327.01 L3491.98 1439.01 L3340.01 1518.58 L3188.17 1574.15 L3036.33 1612.51 L2884.36 1638.50 L2732.52 1655.70 L2580.56 1666.96 L2428.72 1674.14 L2276.88 1678.60 L2124.91 1681.44 L1973.07 1683.05 L1821.11 1684.04 L1669.26 1684.66 L1517.42 1684.91 L1365.46 1685.03 L1213.62 1685.16 L1061.65 1685.28 L909.81 1685.28 L757.97 1685.28 L606.00 1685.28 L606.00 1685.28 Z" stroke-linecap="round" style="fill:#5C5CFF;stroke:#3333FF;stroke-width:3.00"/>
	<path d="M606.00 1685.28 L606.00 1685.28 L757.97 1685.28 L909.81 1685.28 L1061.65 1685.28 L1213.62 1685.16 L1365.46 1685.16 L1517.42 1684.91 L1669.26 1684.66 L1821.11 1684.17 L1973.07 1683.30 L2124.91 1681.94 L2276.88 1679.83 L2428.72 1676.37 L2580.56 1671.17 L2732.52 1663.13 L2884.36 1651.25 L3036.33 1633.80 L3188.17 1608.55 L3340.01 1572.54 L3491.98 1521.80 L3643.82 1451.51 L3795.66 1355.35 L3795.66 1209.69 L3643.82 1352.75 L3491.98 1456.09 L3340.01 1529.72 L3188.17 1581.33 L3036.33 1616.97 L2884.36 1641.10 L2732.52 1657.19 L2580.56 1667.83 L2428.72 1674.64 L2276.88 1678.84 L2124.91 1681.57 L1973.07 1683.18 L1821.11 1684.04 L1669.26 1684.66 L1517.42 1684.91 L1365.46 1685.03 L1213.62 1685.16 L1061.65 1685.28 L909.81 1685.28 L757.97 1685.28 L606.00 1685.28 L606.00 1685.28 Z" stroke-linecap="round" style="fill:#4747FF;stroke:#1919FF;stroke-width:3.00"/>
	<path d="M606.00 1685.28 L606.00 1685.28 L757.97 1685.28 L909.81 1685.28 L1061.65 1685.28 L1213.62 1685.16 L1365.46 1685.16 L1517.42 1684.91 L1669.26 1684.66 L1821.11 1684.17 L1973.07 1683.30 L2124.91 1681.82 L2276.88 1679.59 L2428.72 1676.00 L2580.56 1670.31 L2732.52 1661.64 L2884.36 1648.77 L3036.33 1629.59 L3188.17 1601.75 L3340.01 1561.77 L3491.98 1505.22 L3643.82 1426.63 L3795.66 1318.72 L3795.66 1246.45 L3643.82 1377.63 L3491.98 1472.67 L3340.01 1540.49 L3188.17 1588.13 L3036.33 1621.18 L2884.36 1643.70 L2732.52 1658.80 L2580.56 1668.70 L2428.72 1675.01 L2276.88 1679.09 L2124.91 1681.69 L1973.07 1683.18 L1821.11 1684.04 L1669.26 1684.66 L1517.42 1684.91 L1365.46 1685.03 L1213.62 1685.16 L1061.65 1685.28 L909.81 1685.28 L757.97 1685.28 L606.00 1685.28 L606.00 1685.28 Z" stroke-linecap="round" style="fill:#3333FF;stroke:#0000FF;stroke-width:3.00"/>
	<circle cx="606.00" cy="1685.28" r="22.03" style="fill:#000000;stroke:#000000;stroke-width:8.64"/>
	<circle cx="757.85" cy="1685.28" r="22.03" style="fill:#000000;stroke:#000000;stroke-width:8.64"/>
	<circle cx="909.69" cy="1685.28" r="22.03" style="fill:#000000;stroke:#000000;stroke-width:8.64"/>
	<circle cx="1061.65" cy="1685.28" r="22.03" style="fill:#000000;stroke:#000000;stroke-width:8.64"/>
	<circle cx="1213.49" cy="1685.28" r="22.03" style="fill:#000000;stroke:#000000;stroke-width:8.64"/>
	<circle cx="1365.46" cy="1685.28" r="22.03" style="fill:#000000;stroke:#000000;stroke-width:8.64"/>
	<circle cx="1517.30" cy="1684.91" r="22.03" style="fill:#000000;stroke:#000000;stroke-width:8.64"/>
	<circle cx="1669.14" cy="1684.66" r="22.03" style="fill:#000000;stroke:#000000;stroke-width:8.64"/>
	<line x1="390.80" y1="2489.19" x2="390.80" y2="100.86" style="stroke:#000000;stroke-width:5.76"/>
	<line x1="390.80" y1="2425.82" x2="350.83" y2="2425.82" style="stroke:#000000;stroke-width:5.76"/>
	<text x="300.72" y="2425.82" style="font-family:'Helvetica';font-size:99.99px;fill:#000000" transform="rotate(-90 300.72,2425.82)" text-anchor="middle">-1000</text>
	<line x1="390.80" y1="1685.28" x2="350.83" y2="1685.28" style="stroke:#000000;stroke-width:5.76"/>
	<text x="300.72" y="1685.28" style="font-family:'Helvetica';font-size:99.99px;fill:#000000" transform="rotate(-90 300.72,1685.28)" text-anchor="middle">0</text>
	<line x1="390.80" y1="944.74" x2="350.83" y2="944.74" style="stroke:#000000;stroke-width:5.76"/>
	<text x="300.72" y="944.74" style="font-family:'Helvetica';font-size:99.99px;fill:#000000" transform="rotate(-90 300.72,944.74)" text-anchor="middle">1000</text>
	<line x1="390.80" y1="204.19" x2="350.83" y2="204.19" style="stroke:#000000;stroke-width:5.76"/>
	<text x="300.72" y="204.19" style="font-family:'Helvetica';font-size:99.99px;fill:#000000" transform="rotate(-90 300.72,204.19)" text-anchor="middle">2000</text>
	<text x="190.71" y="1294.96" style="font-family:'Helvetica';font-size:99.99px;fill:#000000" transform="rotate(-90 190.71,1294.96)" text-anchor="middle">Confirmed cases per 100 beds</text>
	<line x1="390.80" y1="2489.19" x2="3859.02" y2="2489.19" style="stroke:#000000;stroke-width:5.76"/>
	<line x1="454.16" y1="2489.19" x2="454.16" y2="2529.16" style="stroke:#000000;stroke-width:5.76"/>
	<text x="454.16" y="2619.14" style="font-family:'Helvetica';font-size:99.99px;fill:#000000" text-anchor="middle">0</text>
	<line x1="606.00" y1="2489.19" x2="606.00" y2="2529.16" style="stroke:#000000;stroke-width:5.76"/>
	<text x="606.00" y="2619.14" style="font-family:'Helvetica';font-size:99.99px;fill:#000000" text-anchor="middle">1</text>
	<line x1="757.97" y1="2489.19" x2="757.97" y2="2529.16" style="stroke:#000000;stroke-width:5.76"/>
	<text x="757.97" y="2619.14" style="font-family:'Helvetica';font-size:99.99px;fill:#000000" text-anchor="middle">2</text>
	<line x1="909.81" y1="2489.19" x2="909.81" y2="2529.16" style="stroke:#000000;stroke-width:5.76"/>
	<text x="909.81" y="2619.14" style="font-family:'Helvetica';font-size:99.99px;fill:#000000" text-anchor="middle">3</text>
	<line x1="1061.65" y1="2489.19" x2="1061.65" y2="2529.16" style="stroke:#000000;stroke-width:5.76"/>
	<text x="1061.65" y="2619.14" style="font-family:'Helvetica';font-size:99.99px;fill:#000000" text-anchor="middle">4</text>
	<line x1="1213.62" y1="2489.19" x2="1213.62" y2="2529.16" style="stroke:#000000;stroke-width:5.76"/>
	<text x="1213.62" y="2619.14" style="font-family:'Helvetica';font-size:99.99px;fill:#000000" text-anchor="middle">5</text>
	<line x1="1365.46" y1="2489.19" x2="1365.46" y2="2529.16" style="stroke:#000000;stroke-width:5.76"/>
	<text x="1365.46" y="2619.14" style="font-family:'Helvetica';font-size:99.99px;fill:#000000" text-anchor="middle">6</text>
	<line x1="1517.42" y1="2489.19" x2="1517.42" y2="2529.16" style="stroke:#000000;stroke-width:5.76"/>
	<text x="1517.42" y="2619.14" style="font-family:'Helvetica';font-size:99.99px;fill:#000000" text-anchor="middle">7</text>
	<line x1="1669.26" y1="2489.19" x2="1669.26" y2="2529.16" style="stroke:#000000;stroke-width:5.76"/>
	<text x="1669.26" y="2619.14" style="font-family:'Helvetica';font-size:99.99px;fill:#000000" text-anchor="middle">8</text>
	<line x1="1821.11" y1="2489.19" x2="1821.11" y2="2529.16" style="stroke:#000000;stroke-width:5.76"/>
	<text x="1821.11" y="2619.14" style="font-family:'Helvetica';font-size:99.99px;fill:#000000" text-anchor="middle">9</text>
	<line x1="1973.07" y1="2489.19" x2="1973.07" y2="2529.16" style="stroke:#000000;stroke-width:5.76"/>
	<text x="1973.07" y="2619.14" style="font-family:'Helvetica';font-size:99.99px;fill:#000000" text-anchor="middle">10</text>
	<line x1="2124.91" y1="2489.19" x2="2124.91" y2="2529.16" style="stroke:#000000;stroke-width:5.76"/>
	<text x="2124.91" y="2619.14" style="font-family:'Helvetica';font-size:99.99px;fill:#000000" text-anchor="middle">11</text>
	<line x1="2276.88" y1="2489.19" x2="2276.88" y2="2529.16" style="stroke:#000000;stroke-width:5.76"/>
	<text x="2276.88" y="2619.14" style="font-family:'Helvetica';font-size:99.99px;fill:#000000" text-anchor="middle">12</text>
	<line x1="2428.72" y1="2489.19" x2="2428.72" y2="2529.16" style="stroke:#000000;stroke-width:5.76"/>
	<text x="2428.72" y="2619.14" style="font-family:'Helvetica';font-size:99.99px;fill:#000000" text-anchor="middle">13</text>
	<line x1="2580.56" y1="2489.19" x2="2580.56" y2="2529.16" style="stroke:#000000;stroke-width:5.76"/>
	<text x="2580.56" y="2619.14" style="font-family:'Helvetica';font-size:99.99px;fill:#000000" text-anchor="middle">14</text>
	<line x1="2732.52" y1="2489.19" x2="2732.52" y2="2529.16" style="stroke:#000000;stroke-width:5.76"/>
	<text x="2732.52" y="2619.14" style="font-family:'Helvetica';font-size:99.99px;fill:#000000" text-anchor="middle">15</text>
	<line x1="2884.36" y1="2489.19" x2="2884.36" y2="2529.16" style="stroke:#000000;stroke-width:5.76"/>
	<text x="2884.36" y="2619.14" style="font-family:'Helvetica';font-size:99.99px;fill:#000000" text-anchor="middle">16</text>
	<line x1="3036.33" y1="2489.19" x2="3036.33" y2="2529.16" style="stroke:#000000;stroke-width:5.76"/>
	<text x="3036.33" y="2619.14" style="font-family:'Helvetica';font-size:99.99px;fill:#000000" text-anchor="middle">17</text>
	<line x1="3188.17" y1="2489.19" x2="3188.17" y2="2529.16" style="stroke:#000000;stroke-width:5.76"/>
	<text x="3188.17" y="2619.14" style="font-family:'Helvetica';font-size:99.99px;fill:#000000" text-anchor="middle">18</text>
	<line x1="3340.01" y1="2489.19" x2="3340.01" y2="2529.16" style="stroke:#000000;stroke-width:5.76"/>
	<text x="3340.01" y="2619.14" style="font-family:'Helvetica';font-size:99.99px;fill:#000000" text-anchor="middle">19</text>
	<line x1="3491.98" y1="2489.19" x2="3491.98" y2="2529.16" style="stroke:#000000;stroke-width:5.76"/>
	<text x="3491.98" y="2619.14" style="font-family:'Helvetica';font-size:99.99px;fill:#000000" text-anchor="middle">20</text>
	<line x1="3643.82" y1="2489.19" x2="3643.82" y2="2529.16" style="stroke:#000000;stroke-width:5.76"/>
	<text x="3643.82" y="2619.14" style="font-family:'Helvetica';font-size:99.99px;fill:#000000" text-anchor="middle">21</text>
	<line x1="3795.66" y1="2489.19" x2="3795.66" y2="2529.16" style="stroke:#000000;stroke-width:5.76"/>
	<text x="3795.66" y="2619.14" style="font-family:'Helvetica';font-size:99.99px;fill:#000000" text-anchor="middle">22</text>
	<text x="2124.91" y="2729.16" style="font-family:'Helvetica';font-size:99.99px;fill:#000000" text-anchor="middle">Days since 0.01 confirmed cases per 100 beds</text>
</svg>
